<svg width="70" height="92" viewBox="0 0 70 92" fill="none" xmlns="http://www.w3.org/2000/svg">
<g clip-path="url(#clip0_46_2)">
<path d="M36.3146 34.2571C35.7851 34.2571 35.369 34.4441 35.0474 34.8367C34.7259 35.2293 34.5557 35.7341 34.5557 36.351C34.5557 36.9866 34.7259 37.4914 35.0474 37.884C35.369 38.2766 35.804 38.4636 36.3146 38.4636C37.109 38.4636 37.6953 38.1271 38.0358 37.4727L40.1731 38.6879C39.8326 39.361 39.303 39.8657 38.6032 40.2396C37.9034 40.6136 37.0901 40.7818 36.1633 40.7818C35.2555 40.7818 34.48 40.5949 33.7802 40.2396C33.0993 39.8844 32.5697 39.361 32.1914 38.6879C31.8132 38.0149 31.624 37.2484 31.624 36.3697C31.624 35.4723 31.8132 34.6871 32.1914 34.0141C32.5697 33.3411 33.0993 32.7989 33.7991 32.4437C34.48 32.0698 35.2744 31.8828 36.1822 31.8828C37.0523 31.8828 37.8467 32.0698 38.5276 32.425C39.2085 32.7802 39.738 33.285 40.1163 33.9393L38.0169 35.1545C37.6197 34.5563 37.0523 34.2571 36.3146 34.2571Z" fill="white" fill-opacity="0.87"/>
<path d="M43.8799 28.4056C44.1636 28.686 44.3149 29.0599 44.3149 29.5086C44.3149 29.9573 44.1636 30.3125 43.8799 30.6116C43.5962 30.8921 43.2179 31.0416 42.7829 31.0416C42.3289 31.0416 41.9696 30.8921 41.6859 30.6116C41.4022 30.3125 41.2509 29.9573 41.2509 29.5086C41.2509 29.0599 41.4022 28.686 41.6859 28.4056C41.9696 28.1251 42.3479 27.9756 42.7829 27.9756C43.2368 27.9756 43.5962 28.1251 43.8799 28.4056ZM41.3643 31.9951H44.2392V40.6884H41.3643V31.9951Z" fill="white" fill-opacity="0.87"/>
<path d="M45.8658 31.9951H48.8353L50.6888 38.0337L52.5424 31.9951H55.4362L52.1263 40.6885H49.1568L45.8658 31.9951Z" fill="white" fill-opacity="0.87"/>
<path d="M59.5598 28.4056C59.8435 28.686 59.9948 29.0599 59.9948 29.5086C59.9948 29.9573 59.8435 30.3125 59.5598 30.6116C59.2761 30.8921 58.8978 31.0416 58.4628 31.0416C58.0089 31.0416 57.6495 30.8921 57.3658 30.6116C57.0821 30.3125 56.9308 29.9573 56.9308 29.5086C56.9308 29.0599 57.0821 28.686 57.3658 28.4056C57.6495 28.1251 58.0278 27.9756 58.4628 27.9756C58.8978 27.9756 59.2572 28.1251 59.5598 28.4056ZM57.0443 31.9951H59.9192V40.6884H57.0443V31.9951Z" fill="white" fill-opacity="0.87"/>
<path d="M66.1417 34.2571C65.6121 34.2571 65.1959 34.4441 64.8744 34.8367C64.5528 35.2293 64.3826 35.7341 64.3826 36.351C64.3826 36.9866 64.5528 37.4914 64.8744 37.884C65.1959 38.2766 65.631 38.4636 66.1417 38.4636C66.9361 38.4636 67.5224 38.1271 67.8629 37.4727L70 38.6879C69.6596 39.361 69.13 39.8657 68.4302 40.2396C67.7304 40.6136 66.9172 40.7818 65.9904 40.7818C65.0825 40.7818 64.3071 40.5949 63.6073 40.2396C62.9264 39.8844 62.3967 39.361 62.0184 38.6879C61.6401 38.0149 61.451 37.2484 61.451 36.3697C61.451 35.4723 61.6401 34.6871 62.0184 34.0141C62.3967 33.3411 62.9263 32.7989 63.6261 32.4437C64.307 32.0698 65.1014 31.8828 66.0093 31.8828C66.8793 31.8828 67.6736 32.0698 68.3545 32.425C69.0354 32.7802 69.565 33.285 69.9433 33.9393L67.8439 35.1545C67.4657 34.5563 66.8793 34.2571 66.1417 34.2571Z" fill="white" fill-opacity="0.87"/>
<path d="M41.2322 43.0255V54.7475H38.3384V53.6258C38.0358 54.0371 37.6575 54.3362 37.2225 54.5419C36.7875 54.7475 36.2957 54.8597 35.7283 54.8597C34.915 54.8597 34.1963 54.6728 33.5721 54.2988C32.948 53.9249 32.4751 53.4015 32.1347 52.7097C31.7942 52.0367 31.624 51.2515 31.624 50.3541C31.624 49.4754 31.7942 48.7089 32.1347 48.0359C32.4751 47.3629 32.948 46.8581 33.5532 46.4842C34.1585 46.1103 34.8583 45.942 35.6716 45.942C36.239 45.942 36.7497 46.0542 37.1847 46.2598C37.6386 46.4655 38.0169 46.7833 38.3384 47.1759V43.0068H41.2322V43.0255ZM37.8277 52.018C38.1682 51.6254 38.3573 51.1019 38.3573 50.4476C38.3573 49.7933 38.1871 49.2698 37.8277 48.8772C37.4873 48.4846 37.0334 48.2789 36.466 48.2789C35.8985 48.2789 35.4446 48.4846 35.0852 48.8772C34.7259 49.2698 34.5557 49.7933 34.5557 50.4476C34.5557 51.1019 34.7259 51.6067 35.0852 52.018C35.4446 52.4293 35.8985 52.6163 36.466 52.6163C37.0145 52.6163 37.4684 52.4106 37.8277 52.018Z" fill="white" fill-opacity="0.87"/>
<path d="M50.0456 46.7647C50.7265 47.3256 51.0669 48.0921 51.0669 49.083V54.7477H48.2299V53.7755C47.6435 54.5233 46.7546 54.8785 45.5819 54.8785C44.6552 54.8785 43.9175 54.6355 43.369 54.1307C42.8394 53.6259 42.5557 52.9716 42.5557 52.1677C42.5557 51.3451 42.8394 50.6908 43.4258 50.2421C44.0121 49.7747 44.8443 49.5504 45.9224 49.5317H48.211V49.4382C48.211 49.0269 48.0596 48.6904 47.7759 48.466C47.4922 48.2417 47.0761 48.1295 46.5276 48.1295C46.1683 48.1295 45.7522 48.1856 45.2793 48.2978C44.8254 48.4099 44.3525 48.5782 43.8797 48.8212L43.0853 46.8956C43.804 46.5778 44.4849 46.3347 45.1469 46.1852C45.8089 46.0356 46.4898 45.9608 47.1896 45.9608C48.4379 45.9421 49.3836 46.2226 50.0456 46.7647ZM47.6057 52.6164C47.9272 52.4107 48.1353 52.1303 48.2299 51.8125V51.0647H46.5087C45.6954 51.0647 45.2793 51.3638 45.2793 51.9621C45.2793 52.2612 45.3928 52.5042 45.6008 52.6725C45.8089 52.8407 46.1115 52.9342 46.4709 52.9342C46.9059 52.9342 47.2842 52.8407 47.6057 52.6164Z" fill="white" fill-opacity="0.87"/>
<path d="M58.9349 54.2988C58.6133 54.4858 58.2351 54.6167 57.819 54.7288C57.4029 54.8223 56.9679 54.8784 56.5328 54.8784C55.6628 54.8784 54.963 54.6354 54.4334 54.1306C53.9038 53.6445 53.6201 52.9528 53.6201 52.0928V48.3537H52.3907V46.4468H53.6201V43.0068H56.495V46.4468H58.7646V48.3537H56.495V51.6441C56.495 52.261 56.7409 52.5602 57.2515 52.5602C57.5731 52.5602 57.9324 52.4667 58.3675 52.261L58.9349 54.2988Z" fill="white" fill-opacity="0.87"/>
<path d="M67.7491 46.7647C68.43 47.3256 68.7705 48.0921 68.7705 49.083V54.7477H65.9145V53.7755C65.3282 54.5233 64.4392 54.8785 63.2666 54.8785C62.3398 54.8785 61.6022 54.6355 61.0537 54.1307C60.5241 53.6259 60.2404 52.9716 60.2404 52.1677C60.2404 51.3451 60.5241 50.6908 61.1104 50.2421C61.6967 49.7747 62.5289 49.5504 63.607 49.5317H65.8956V49.4382C65.8956 49.0269 65.7443 48.6904 65.4606 48.466C65.1769 48.2417 64.7608 48.1295 64.2123 48.1295C63.8529 48.1295 63.4368 48.1856 62.9639 48.2978C62.51 48.4099 62.0372 48.5782 61.5643 48.8212L60.77 46.8956C61.4887 46.5778 62.1696 46.3347 62.8315 46.1852C63.4935 46.0356 64.1744 45.9608 64.8742 45.9608C66.1415 45.9421 67.0871 46.2226 67.7491 46.7647ZM65.3093 52.6164C65.6308 52.4107 65.8388 52.1303 65.9334 51.8125V51.0647H64.2123C63.399 51.0647 62.9829 51.3638 62.9829 51.9621C62.9829 52.2612 63.0963 52.5042 63.3044 52.6725C63.5124 52.8407 63.8151 52.9342 64.1744 52.9342C64.6095 52.9342 64.9877 52.8407 65.3093 52.6164Z" fill="white" fill-opacity="0.87"/>
<path d="M35.8987 58.0005H32.532V69.9281H35.8987V58.0005Z" fill="white" fill-opacity="0.87"/>
<path d="M44.9391 61.9454C45.62 62.5063 45.9605 63.2728 45.9605 64.2636V69.9283H43.1234V68.9562C42.5371 69.704 41.6481 70.0592 40.4755 70.0592C39.5487 70.0592 38.8111 69.8161 38.2626 69.3114C37.733 68.8066 37.4493 68.1523 37.4493 67.3484C37.4493 66.5258 37.733 65.8714 38.3193 65.4227C38.9056 64.9554 39.7378 64.731 40.8159 64.7123H43.1045V64.6188C43.1045 64.2075 42.9532 63.871 42.6695 63.6467C42.3858 63.4223 41.9697 63.3101 41.4212 63.3101C41.0429 63.3101 40.6457 63.3662 40.1729 63.4784C39.7189 63.5906 39.2461 63.7588 38.7732 64.0019L37.9789 62.0763C38.6976 61.7584 39.3785 61.5154 40.0405 61.3658C40.7025 61.2163 41.3834 61.1415 42.0832 61.1415C43.3126 61.1041 44.2582 61.3845 44.9391 61.9454ZM42.4993 67.797C42.8208 67.5914 43.0289 67.311 43.1234 66.9931V66.2453H41.4023C40.589 66.2453 40.1729 66.5444 40.1729 67.1427C40.1729 67.4418 40.2863 67.6849 40.4944 67.8531C40.7024 68.0214 41.0051 68.1149 41.3644 68.1149C41.7995 68.1149 42.1777 68.0027 42.4993 67.797Z" fill="white" fill-opacity="0.87"/>
<path d="M55.7769 61.7581C56.3821 62.132 56.8739 62.6368 57.1954 63.3285C57.5359 64.0016 57.7061 64.7868 57.7061 65.6655C57.7061 66.5441 57.5359 67.3106 57.2143 67.965C56.8928 68.6193 56.4199 69.1428 55.8147 69.498C55.2095 69.8532 54.5097 70.0402 53.7153 70.0402C53.1668 70.0402 52.675 69.928 52.2211 69.7224C51.7672 69.5167 51.3889 69.2176 51.0863 68.825V69.9467H48.2114V58.019H51.0863V62.4498C51.7104 61.6459 52.5804 61.2346 53.6585 61.2346C54.4529 61.216 55.1527 61.3842 55.7769 61.7581ZM54.3016 67.1424C54.642 66.7498 54.8312 66.2263 54.8312 65.5907C54.8312 64.955 54.661 64.4316 54.3016 64.039C53.9422 63.6464 53.4883 63.4407 52.9398 63.4407C52.3913 63.4407 51.9374 63.6464 51.5969 64.039C51.2565 64.4316 51.0863 64.955 51.0863 65.5907C51.0863 66.2263 51.2565 66.7498 51.5969 67.1424C51.9374 67.535 52.3913 67.7406 52.9398 67.7406C53.4883 67.7219 53.9422 67.535 54.3016 67.1424Z" fill="white" fill-opacity="0.87"/>
<path d="M12.9749 50.7282C11.6888 49.6252 10.0244 49.083 7.98166 49.083C5.93897 49.083 4.27455 49.6252 2.98841 50.7282C1.70228 51.8312 1.0592 53.2521 1.0592 55.0094C1.0592 56.7668 1.70228 58.1877 2.98841 59.272C4.27455 60.3563 5.93897 60.8985 7.98166 60.8985C10.0622 60.8985 11.7455 60.3563 13.0127 59.272C14.28 58.1877 14.9041 56.7668 14.9041 55.0094C14.9041 53.2521 14.261 51.8312 12.9749 50.7282Z" fill="white" fill-opacity="0.87"/>
<path d="M22.2046 17.1885C24.5499 18.4598 26.4035 19.5628 27.7842 21.7314V4.08301C27.7842 0.811316 24.0771 -1.13301 21.3346 0.717839C17.1546 3.54084 13.1071 8.81294 9.60803 15.2815C10.7618 15.0946 11.9723 15.0198 13.2395 15.0385C16.6061 15.0572 19.5945 15.7863 22.2046 17.1885Z" fill="white" fill-opacity="0.87"/>
<path d="M27.7847 43.063C26.4418 45.2877 24.5505 46.4282 22.1106 47.6621C21.8458 47.7929 21.7512 47.8303 21.4864 47.9612C22.1484 49.6438 22.2808 51.2703 22.2808 53.1398C22.2808 54.8972 21.9404 56.4676 21.2595 57.8697C20.5786 59.2719 20.4083 59.8701 19.1411 60.8423H27.8036" fill="white" fill-opacity="0.87"/>
<path d="M22.829 91.9138C25.3824 92.4373 27.8033 90.5116 27.8033 87.913V84.0991H8.54907C12.6912 88.1934 17.6844 90.8668 22.829 91.9138Z" fill="white" fill-opacity="0.87"/>
<path d="M27.7844 69.9092H0C0.510673 71.4983 1.097 73.0126 1.75898 74.4522H27.7844V69.9092Z" fill="white" fill-opacity="0.87"/>
<path d="M20.1431 27.6019C18.5922 25.2837 16.3982 24.1059 13.58 24.0872C11.5941 24.0685 9.94859 24.7976 8.70028 26.2932C7.43306 27.7889 6.78999 29.7145 6.77107 32.0888C6.75216 34.5192 7.33849 36.4635 8.56788 37.9591C9.30552 38.8565 10.1944 39.4922 11.2347 39.8661C11.2347 39.8661 12.256 40.2587 13.3152 40.24C13.353 40.24 13.372 40.24 13.4098 40.24C16.4927 40.2774 18.7056 39.0435 20.0674 36.557L27.8032 41.0439V23.3394L20.1431 27.6019Z" fill="white" fill-opacity="0.87"/>
</g>
<defs>
<clipPath id="clip0_46_2">
<rect width="70" height="92" fill="white"/>
</clipPath>
</defs>
</svg>
