<svg id="Layer_1" data-name="Layer 1" xmlns="http://www.w3.org/2000/svg" viewBox="0 0 148.56 465.67"><defs><style>.cls-1{fill:#fbfcfd;}</style></defs><path d="M74.47,256.78q-9.61-8.32-25-8.33t-25,8.33q-9.6,8.34-9.61,21.66T24.48,300q9.61,8.19,25,8.2,15.63,0,25.12-8.2t9.48-21.54Q84.08,265.12,74.47,256.78Z"/><path d="M120.61,87c11.7,6.38,21,12,28,23V20.69A20.64,20.64,0,0,0,116.29,3.63c-20.92,14.28-41.11,41-58.64,73.7a110.19,110.19,0,0,1,18.17-1.25Q101.08,76.35,120.61,87Z"/><path d="M148.56,217.94c-6.73,11.21-16.16,17-28.36,23.31-1.33.69-1.77.89-3.14,1.51C120.39,251.23,121,259.5,121,269a54.53,54.53,0,0,1-5.13,24C112.44,300,111.57,303,105.25,308h43.31"/><path d="M123.71,465.23A20.64,20.64,0,0,0,148.56,445V425.74H52.36C73.06,446.38,98,459.89,123.71,465.23Z"/><path d="M148.56,353.8H9.58a187.41,187.41,0,0,0,8.83,23H148.56Z"/><path class="cls-1" d="M77.5,121.94q21.21.24,32.87,17.83l38.19-21.65V110c-6.95-11-16.25-16.58-27.95-23Q101.08,76.35,75.82,76.08a110.19,110.19,0,0,0-18.17,1.25C36.22,117.36,18.8,166.42,8.91,213c-.56,2.63-1.12,5.26-1.63,7.88C2.6,244.87,0,268,0,288.7a217.48,217.48,0,0,0,9.58,65.1h139L149,308H105.25c6.59-5,7.72-9.12,11.14-16.21S121,275,121,266.14c0-9.45-.69-15.65-3.93-23.38,1.37-.62,3.81-1.89,5.14-2.58,12.2-6.31,19.63-11,26.36-22.24V207.71L109.87,185Q99.69,203.9,76.6,203.65q-15-.17-24.2-11.49t-9-29.73q.2-18.09,9.68-29.37A30,30,0,0,1,77.5,121.94ZM74.6,300q-9.5,8.19-25.12,8.2-15.39,0-25-8.2t-9.61-21.54q0-13.32,9.61-21.66t25-8.33q15.37,0,25,8.33t9.61,21.66Q84.08,291.77,74.6,300Z"/><path class="cls-1" d="M18.41,376.78a169.27,169.27,0,0,0,34,49h96.2v-49Z"/><path d="M110.37,139.77Q98.7,122.17,77.5,121.94a30,30,0,0,0-24.45,11.12q-9.48,11.28-9.68,29.37-.19,18.4,9,29.73a30.23,30.23,0,0,0,13.3,9.61h0a29.33,29.33,0,0,0,10.44,1.86v0c.17,0,.32,0,.49,0q23.09.25,33.27-18.66l38.69,22.72V118.12Z"/></svg>