<svg width="443" height="415" viewBox="0 0 443 415" fill="none" xmlns="http://www.w3.org/2000/svg">
<path d="M220.53 103.78C221.27 103.78 222 103.78 222.73 103.78C222.73 104.51 222.73 105.24 222.73 105.98C222.777 130.236 213.986 153.677 198 171.92L220.53 194.46L286.45 128.54C289.801 131.476 292.954 134.629 295.89 137.98L230 203.9L252.54 226.43C270.774 210.439 294.208 201.637 318.46 201.67H320.66C320.66 202.4 320.66 203.13 320.66 203.87C320.642 207.589 320.422 211.305 320 215H318.39C297.698 214.995 277.691 222.411 262 235.9L295.92 269.82C292.984 273.171 289.831 276.324 286.48 279.26L252.56 245.34C239.064 261.048 231.657 281.08 231.69 301.79C231.69 302.33 231.69 302.87 231.69 303.4C227.991 303.814 224.272 304.021 220.55 304.02C219.82 304.02 219.08 304.02 218.35 304.02C218.35 303.29 218.35 302.56 218.35 301.82C218.313 277.567 227.116 254.132 243.11 235.9L220.57 213.37L154.66 279.29C151.307 276.357 148.153 273.203 145.22 269.85L211.13 203.93L188.6 181.39C170.369 197.386 146.933 206.188 122.68 206.15C121.95 206.15 121.21 206.15 120.48 206.15C120.48 205.42 120.48 204.68 120.48 203.95C120.476 200.228 120.68 196.509 121.09 192.81H122.7C143.397 192.815 163.409 185.396 179.1 171.9L145.18 138C148.113 134.647 151.267 131.493 154.62 128.56L188.53 162.48C202.038 146.767 209.449 126.722 209.41 106C209.41 105.46 209.41 104.92 209.41 104.38C213.11 103.975 216.828 103.771 220.55 103.77" fill="#FDB557"/>
<path d="M318.43 221.17C301.476 221.169 284.953 226.512 271.21 236.44L299.8 265C309.712 252.176 316.347 237.128 319.13 221.16L318.43 221.17Z" fill="#1F5F8D"/>
<path d="M122.64 186.62C139.589 186.62 156.107 181.28 169.85 171.36L141.27 142.77C131.349 155.594 124.71 170.647 121.93 186.62H122.64Z" fill="#1F5F8D"/>
<path d="M188.17 189.67C169.47 204.323 146.397 212.28 122.64 212.27C122.02 212.27 121.41 212.27 120.79 212.27C122.376 231.457 129.49 249.772 141.27 265L202.4 203.9L188.17 189.67Z" fill="#1F5F8D"/>
<path d="M253.08 254.58C243.154 268.32 237.81 284.839 237.81 301.79V302.5C253.783 299.72 268.836 293.081 281.66 283.16L253.08 254.58Z" fill="#1F5F8D"/>
<path d="M188 153.22C197.925 139.476 203.265 122.953 203.26 106C203.26 105.76 203.26 105.52 203.26 105.29C187.292 108.073 172.244 114.708 159.42 124.62L188 153.22Z" fill="#1F5F8D"/>
<path d="M212.16 301.79C212.15 278.033 220.107 254.96 234.76 236.26L220.53 222L159.41 283.12C174.645 294.914 192.977 302.029 212.18 303.6C212.17 303 212.16 302.41 212.16 301.79Z" fill="#1F5F8D"/>
<path d="M252.9 218.13C271.598 203.473 294.672 195.512 318.43 195.52H320.28C318.697 176.32 311.583 157.991 299.8 142.75L238.67 203.9L252.9 218.13Z" fill="#1F5F8D"/>
<path d="M228.91 106C228.917 129.753 220.959 152.822 206.31 171.52L220.53 185.75L281.66 124.62C266.421 112.834 248.09 105.724 228.89 104.15C228.9 104.77 228.91 105.39 228.91 106Z" fill="#1F5F8D"/>
</svg>
