<svg width="40" height="40" viewBox="0 0 40 40" fill="none" xmlns="http://www.w3.org/2000/svg">
<g clip-path="url(#clip0_8519_58894)">
<path d="M27.9416 4.27033C27.1734 5.46026 26.4837 6.66808 25.9468 7.69263C25.3897 8.75558 25.313 10.0448 25.8839 11.1743C25.9995 11.4033 26.1367 11.6152 26.2922 11.8088C26.1184 12.1542 25.9541 12.4908 25.801 12.814C25.3091 13.853 25.2622 15.0932 25.8211 16.181C25.9094 16.3528 26.0099 16.5149 26.1212 16.6668H5.00033C4.85786 16.6668 4.71538 16.6724 4.57324 16.6835C6.11787 13.9164 8.21966 10.6477 10.2587 8.30838C11.4653 6.92419 13.5353 6.9242 14.7419 8.30838C15.0214 8.629 15.302 8.96708 15.5822 9.319C17.4859 6.65644 19.5727 4.07867 21.5724 2.15764C22.7999 0.978377 24.7007 0.978377 25.9283 2.15764C26.593 2.79629 27.2675 3.50753 27.9416 4.27033Z" fill="#0B3865"/>
<path fill-rule="evenodd" clip-rule="evenodd" d="M4.99951 18.75C2.98477 18.75 1.11879 20.4292 1.43819 22.6691C2.73466 31.7606 10.5498 38.75 19.9996 38.75C29.4492 38.75 37.2644 31.7606 38.5608 22.6691C38.8802 20.4292 37.0142 18.75 34.9995 18.75H4.99951Z" fill="#FDB557"/>
<path fill-rule="evenodd" clip-rule="evenodd" d="M20.4745 18.75H34.9995C37.0142 18.75 38.8802 20.4292 38.5608 22.6691C37.5563 29.7134 32.6382 35.4958 26.0785 37.7427C24.5499 34.8339 26.0011 32.4339 27.2006 30.4502C27.9806 29.1603 28.6541 28.0466 28.333 27.0833C27.8907 26.1007 26.6406 25.7692 25.2571 25.4023C22.7826 24.7462 19.8818 23.9772 20.4163 19.1667C20.4318 19.0276 20.4512 18.8886 20.4745 18.75ZM12.0571 18.75C13.5101 20.5116 14.2561 22.5065 13.333 24.5833C12.6129 26.2037 11.2082 26.9327 9.77789 27.6751C8.0427 28.5757 6.26964 29.496 5.63453 32.0507C3.43853 29.4356 1.94341 26.2119 1.43819 22.6691C1.11879 20.4292 2.98477 18.75 4.99951 18.75H12.0571Z" fill="#0B3865"/>
<path d="M32.4274 1.84636C32.8763 1.39692 33.5946 1.39692 34.0435 1.84636C35.6929 3.49796 37.5137 6.43568 38.6792 8.65958C38.9544 9.18483 38.9669 9.76192 38.7281 10.2346C38.4921 10.7015 38.0312 11.0247 37.4452 11.0909C37.9469 11.9988 38.4049 12.8978 38.7873 13.7054C39.0301 14.2183 39.0309 14.7738 38.7971 15.2288C38.5609 15.6886 38.1051 16.0058 37.5246 16.0685C36.8172 16.1448 35.8346 16.2122 34.4855 16.2385V20.0001C34.4855 20.6904 33.9258 21.2501 33.2355 21.2501C32.5451 21.2501 31.9855 20.6904 31.9855 20.0001V16.2385C30.6363 16.2122 29.6537 16.1448 28.9462 16.0685C28.3658 16.0058 27.9101 15.6886 27.6739 15.2288C27.4401 14.7738 27.4408 14.2183 27.6836 13.7054C28.0661 12.8978 28.5241 11.9988 29.0257 11.0909C28.4396 11.0247 27.9789 10.7015 27.7429 10.2346C27.5041 9.76192 27.5165 9.18483 27.7917 8.65958C28.9572 6.43567 30.778 3.49796 32.4274 1.84636Z" fill="#0B3865"/>
</g>
<defs>
<clipPath id="clip0_8519_58894">
<rect width="40" height="40" fill="white"/>
</clipPath>
</defs>
</svg>
