<?xml version="1.0" encoding="UTF-8"?>
<svg version="1.1" xmlns="http://www.w3.org/2000/svg" width="1500" height="1500">
<path d="M0 0 C495 0 990 0 1500 0 C1500 495 1500 990 1500 1500 C1005 1500 510 1500 0 1500 C0 1005 0 510 0 0 Z " fill="#56C02B" transform="translate(0,0)"/>
<path d="M0 0 C1.59521484 -0.01836914 1.59521484 -0.01836914 3.22265625 -0.03710938 C9.90794172 -0.04941358 16.01190116 0.59362699 22.5 2.1875 C23.1811084 2.34323486 23.8622168 2.49896973 24.56396484 2.65942383 C40.15361414 6.35619841 55.50538094 13.43535144 67.5 24.1875 C68.29148437 24.85007812 69.08296875 25.51265625 69.8984375 26.1953125 C88.43004777 42.10398716 103.47201158 65.98322932 106.30957031 90.67578125 C107.63949504 108.21714736 107.26926087 124.83483307 101.5 141.5 C101.23960937 142.27150391 100.97921875 143.04300781 100.7109375 143.83789062 C99.40950046 147.66661324 98.05124575 151.45108595 96.5 155.1875 C97.98693359 155.35765625 97.98693359 155.35765625 99.50390625 155.53125 C125.65025527 159.31049643 150.92580922 178.60155993 166.48461914 199.25292969 C186.77359065 227.26525461 193.56249705 260.37671224 188.73120117 294.54443359 C185.29375481 314.01936961 175.7904007 334.56805923 162.5 349.1875 C161.42105469 350.44240234 161.42105469 350.44240234 160.3203125 351.72265625 C145.21148806 369.05336664 126.89130076 380.09530864 105.3125 387.5 C104.26292114 387.86399902 104.26292114 387.86399902 103.19213867 388.23535156 C91.63802574 392.01587122 80.08830702 392.47719552 68.03320312 392.43041992 C66.40873132 392.43149531 64.7842599 392.43343778 63.15979004 392.43617249 C58.77909366 392.44098618 54.39850046 392.4334061 50.01781654 392.42321944 C45.40409101 392.41436702 40.79036804 392.41619787 36.17663574 392.4165802 C28.42307841 392.41564585 20.66956039 392.40699768 12.91601562 392.39331055 C4.00251284 392.377632 -4.91094683 392.37231112 -13.82446241 392.3730461 C-23.37395706 392.37372672 -32.92343549 392.36675252 -42.47292519 392.3575995 C-45.19503976 392.35548715 -47.91715165 392.3547609 -50.63926697 392.35436058 C-83.30267674 392.34493231 -83.30267674 392.34493231 -95.48242188 391.7590332 C-96.23541313 391.72306376 -96.98840439 391.68709433 -97.76421356 391.6500349 C-103.92784596 391.28746243 -109.6477431 390.11235736 -115.5 388.1875 C-116.39460938 387.91035156 -117.28921875 387.63320313 -118.2109375 387.34765625 C-139.60430313 380.20631787 -155.90179063 365.95717886 -166.90234375 346.38671875 C-169.67725829 340.83010504 -171.68282387 335.11828363 -173.5 329.1875 C-173.82097656 328.17300781 -174.14195312 327.15851563 -174.47265625 326.11328125 C-180.07986724 305.74476132 -176.2594465 283.65537569 -166.5 265.1875 C-162.64095507 258.8460285 -158.17244775 252.94877608 -153.5 247.1875 C-154.21542969 246.94128906 -154.93085938 246.69507813 -155.66796875 246.44140625 C-169.90378812 240.1383745 -181.13763877 224.44733187 -187.04296875 210.55859375 C-194.32298683 190.76804606 -196.32271666 167.81266485 -187.5 148.1875 C-187.08186035 147.23810547 -187.08186035 147.23810547 -186.65527344 146.26953125 C-182.18602211 136.35105987 -176.25233215 128.74993352 -168.5 121.1875 C-167.77039063 120.44886719 -167.04078125 119.71023438 -166.2890625 118.94921875 C-152.87051553 106.10432713 -134.12355401 98.89197558 -115.625 99.125 C-114.93664062 99.12951172 -114.24828125 99.13402344 -113.5390625 99.13867188 C-111.85933665 99.15033664 -110.17965625 99.16826729 -108.5 99.1875 C-108.47421875 98.5790625 -108.4484375 97.970625 -108.421875 97.34375 C-106.69676506 70.68296009 -93.61023381 46.30590703 -74.484375 27.92578125 C-53.00435067 9.1096182 -28.43808416 0.0172352 0 0 Z " fill="#FEFEFE" transform="translate(590.5,594.8125)"/>
<path d="M0 0 C1.05959674 -0.00275974 2.11919347 -0.00551949 3.2108992 -0.00836286 C4.39170743 -0.00630754 5.57251566 -0.00425222 6.78910595 -0.00213462 C8.03568038 -0.00388766 9.28225481 -0.0056407 10.56660423 -0.00744686 C14.05808552 -0.01220875 17.54954096 -0.01066498 21.04102358 -0.00816908 C24.8276104 -0.00654489 28.61419148 -0.01066938 32.40077651 -0.01407826 C39.04764225 -0.0192481 45.6945007 -0.02064673 52.34136826 -0.01962215 C62.22523414 -0.01810228 72.1090919 -0.02224768 81.99295621 -0.02749677 C100.66902912 -0.03718755 119.34509929 -0.03998165 138.02117442 -0.04055383 C152.43856559 -0.04101266 166.85595567 -0.04306725 181.27334648 -0.04625446 C185.41726231 -0.04715194 189.56117815 -0.04804176 193.70509398 -0.04892933 C194.73516263 -0.04915038 195.76523128 -0.04937143 196.82651412 -0.04959918 C225.81577142 -0.05575673 254.80502834 -0.0596994 283.79428631 -0.0592559 C284.88812073 -0.05924032 285.98195515 -0.05922474 287.10893606 -0.05920869 C292.65346268 -0.05912558 298.1979893 -0.05902654 303.74251591 -0.05892398 C304.84376065 -0.05890404 305.94500539 -0.05888409 307.07962118 -0.05886354 C309.3066077 -0.05882311 311.53359422 -0.05878131 313.76058073 -0.05873815 C348.42121161 -0.05812518 383.08183271 -0.06563464 417.74246079 -0.07931072 C456.64570748 -0.09465433 495.54894776 -0.10327798 534.45219767 -0.10234749 C538.59642786 -0.10227286 542.74065804 -0.10222415 546.88488823 -0.10219318 C547.90537194 -0.10218152 548.92585565 -0.10216987 549.97726311 -0.10215786 C566.43579307 -0.10212702 582.89431458 -0.1085267 599.35284203 -0.11712544 C615.87917904 -0.12558134 632.40550363 -0.12660812 648.9318416 -0.12001612 C658.76283853 -0.11630667 668.59379782 -0.11819415 678.4247908 -0.12795846 C684.9803748 -0.13392209 691.53593129 -0.13270369 698.09151398 -0.12548796 C701.83412768 -0.12157558 705.5766681 -0.12091837 709.31927686 -0.12894531 C713.33861105 -0.13749089 717.35776902 -0.13078603 721.37710339 -0.12238914 C723.14480398 -0.12984141 723.14480398 -0.12984141 724.94821569 -0.13744423 C726.54136608 -0.13031801 726.54136608 -0.13031801 728.16670132 -0.12304783 C729.08707522 -0.12313605 730.00744913 -0.12322427 730.95571315 -0.12331517 C733.14602524 0.12649983 733.14602524 0.12649983 735.14602524 2.12649983 C735.39999253 4.17581624 735.39999253 4.17581624 735.4048143 6.72806233 C735.41111862 7.68245198 735.41742295 8.63684163 735.42391831 9.62015218 C735.41784561 11.17016927 735.41784561 11.17016927 735.41165024 12.75149983 C735.41452042 14.3382552 735.41452042 14.3382552 735.41744858 15.95706624 C735.41881126 18.19648923 735.41510906 20.43592009 735.40676743 22.67532796 C735.39606926 26.11235661 735.40666012 29.54886253 735.41946274 32.98587483 C735.41814116 35.15775099 735.4155788 37.32962682 735.41165024 39.50149983 C735.4156987 40.53484456 735.41974716 41.56818928 735.42391831 42.63284749 C735.41761399 43.58723714 735.41130966 44.54162678 735.4048143 45.52493733 C735.40242752 46.78829915 735.40242752 46.78829915 735.39999253 48.07718343 C735.14602524 50.12649983 735.14602524 50.12649983 733.14602524 52.12649983 C730.95571315 52.37631483 730.95571315 52.37631483 728.16670132 52.37604749 C727.10460106 52.3807983 726.04250081 52.38554912 724.94821569 52.39044389 C723.76974863 52.38547571 722.59128157 52.38050753 721.37710339 52.3753888 C720.12907552 52.37799609 718.88104765 52.38060337 717.59520075 52.38328966 C714.10428108 52.39029528 710.61347392 52.3847207 707.12255935 52.37723358 C703.33488893 52.37129003 699.54723343 52.37688532 695.75956309 52.3810544 C689.11236976 52.38675611 682.46521051 52.38497114 675.8180185 52.37836903 C665.93374567 52.36857872 656.04949795 52.3701767 646.16522224 52.37411933 C629.54032268 52.38040503 612.91543728 52.37721087 596.29053932 52.36852521 C579.82198762 52.3599229 563.35344228 52.35500476 546.88488823 52.35519284 C545.86204691 52.35520049 544.83920559 52.35520813 543.78536908 52.35521601 C539.63375584 52.35525691 535.4821426 52.35532252 531.33052936 52.35542182 C492.35420176 52.35632868 453.37788387 52.34637108 414.40155965 52.33099216 C379.74077789 52.31736644 345.08000302 52.31113088 310.4192186 52.31180257 C308.19365104 52.31184298 305.96808348 52.31188334 303.74251591 52.31192365 C302.64226005 52.311944 301.54200419 52.31196435 300.40840724 52.31198531 C294.87036693 52.3120861 289.33232662 52.31217669 283.79428631 52.31225556 C282.15558465 52.31228063 282.15558465 52.31228063 280.48377791 52.31230621 C251.55754941 52.31267104 222.63132176 52.30813644 193.70509398 52.301929 C192.162489 52.30159859 192.162489 52.30159859 190.58872028 52.30126151 C186.45288393 52.30037323 182.31704758 52.29948485 178.18121124 52.29857055 C163.76708835 52.29540575 149.35296614 52.29390067 134.93884292 52.29345906 C116.36829067 52.29286304 97.79774411 52.28889 79.2271943 52.2790276 C69.39599348 52.27389717 59.56480103 52.27150835 49.73359893 52.27302379 C43.17918919 52.27375475 36.62478764 52.2708806 30.07038052 52.26497998 C26.32765198 52.26171027 22.58494107 52.26006507 18.84221166 52.26274057 C14.82449309 52.26557115 10.80682151 52.26078433 6.78910595 52.25513428 C5.01789361 52.25821726 5.01789361 52.25821726 3.2108992 52.26136252 C1.6215041 52.25722291 1.6215041 52.25722291 0 52.25299966 C-0.92030615 52.25270816 -1.84061229 52.25241667 -2.7888065 52.25211633 C-4.85397476 52.12649983 -4.85397476 52.12649983 -5.85397476 51.12649983 C-5.95244443 49.56650935 -5.98196094 48.00209439 -5.98336929 46.43899983 C-5.98652145 45.44126546 -5.98967361 44.44353108 -5.99292129 43.41556233 C-5.99089706 42.33017171 -5.98887283 41.24478108 -5.98678726 40.12649983 C-5.98774399 39.02048421 -5.98870071 37.91446858 -5.98968643 36.77493733 C-5.99036843 34.43118675 -5.9885128 32.0874343 -5.98434585 29.74368733 C-5.9789979 26.14208196 -5.98429022 22.5406013 -5.99069351 18.93899983 C-5.99003273 16.66816622 -5.98875158 14.39733269 -5.98678726 12.12649983 C-5.98881149 11.04110921 -5.99083572 9.95571858 -5.99292129 8.83743733 C-5.98976913 7.83970296 -5.98661697 6.84196858 -5.98336929 5.81399983 C-5.9825737 4.93099202 -5.9817781 4.04798421 -5.9809584 3.13821858 C-5.73201411 -0.80564289 -3.40598447 0.00107882 0 0 Z " fill="#FEFEFE" transform="translate(377.8539747595787,1179.8735001683235)"/>
<path d="M0 0 C1.06041061 -0.00500704 2.12082123 -0.01001407 3.2133655 -0.01517284 C4.38994236 -0.01049051 5.56651923 -0.00580817 6.77874994 -0.00098395 C8.02478984 -0.00389084 9.27082975 -0.00679772 10.55462843 -0.00979269 C14.03997744 -0.01763359 17.52521673 -0.01289345 21.0105641 -0.00623678 C24.79221457 -0.00119056 28.57384743 -0.00767235 32.35549545 -0.01272345 C38.99214458 -0.01996944 45.6287612 -0.01971388 52.26541185 -0.01462913 C62.13406318 -0.00708855 72.00268691 -0.01091889 81.87133802 -0.01704574 C99.49300291 -0.02759802 117.11465334 -0.02665618 134.73631962 -0.02088792 C150.15696638 -0.01586467 165.57760784 -0.01453972 180.99825525 -0.0169332 C182.0195651 -0.01708597 183.04087495 -0.01723874 184.09313358 -0.01739614 C188.23854864 -0.01801878 192.38396369 -0.01865557 196.52937875 -0.01931567 C235.44812291 -0.02543914 274.36685783 -0.01987808 313.28560057 -0.00912188 C347.89268934 0.00036994 382.49976341 -0.00047929 417.10685205 -0.01004386 C455.9526085 -0.0207439 494.79835678 -0.02500494 533.64411449 -0.01881933 C537.78215043 -0.01817786 541.92018636 -0.01755218 546.05822229 -0.0169332 C547.07717635 -0.01677505 548.09613041 -0.01661689 549.14596186 -0.01645395 C564.56014816 -0.01417519 579.97432856 -0.01684664 595.38851404 -0.02189231 C612.9081485 -0.02759844 630.42776618 -0.0262077 647.94739854 -0.01533082 C657.76284664 -0.00943869 667.57825843 -0.00910294 677.39370562 -0.01662317 C683.93889234 -0.02108649 690.48404977 -0.01835595 697.02923213 -0.00961363 C700.76588761 -0.00482705 704.50247064 -0.00328896 708.239124 -0.0104256 C712.25205324 -0.01801226 716.26480225 -0.01034569 720.2777276 -0.00098395 C721.45430447 -0.00566629 722.63088134 -0.01034862 723.84311205 -0.01517284 C725.43372797 -0.00766228 725.43372797 -0.00766228 727.05647755 0 C728.43483103 0.00020328 728.43483103 0.00020328 729.84103003 0.00041066 C732.02823877 0.25069833 732.02823877 0.25069833 734.02823877 2.25069833 C734.28220606 4.30001473 734.28220606 4.30001473 734.28702784 6.85226083 C734.29333216 7.80665048 734.29963648 8.76104012 734.30613184 9.74435067 C734.30005915 11.29436776 734.30005915 11.29436776 734.29386377 12.87569833 C734.29673395 14.4624537 734.29673395 14.4624537 734.29966211 16.08126473 C734.30102479 18.32068772 734.29732259 20.56011859 734.28898096 22.79952645 C734.2782828 26.2365551 734.28887365 29.67306103 734.30167627 33.11007333 C734.30035469 35.28194949 734.29779233 37.45382532 734.29386377 39.62569833 C734.29791224 40.65904305 734.3019607 41.69238778 734.30613184 42.75704598 C734.29982752 43.71143563 734.2935232 44.66582528 734.28702784 45.64913583 C734.28464106 46.91249764 734.28464106 46.91249764 734.28220606 48.20138192 C734.02823877 50.25069833 734.02823877 50.25069833 732.02823877 52.25069833 C729.83792668 52.50051333 729.83792668 52.50051333 727.04891485 52.50024599 C725.98681459 52.5049968 724.92471434 52.50974761 723.83042923 52.51464239 C722.65196217 52.50967421 721.4734951 52.50470603 720.25931692 52.4995873 C719.01128905 52.50219458 717.76326118 52.50480187 716.47741428 52.50748816 C712.98649462 52.51449378 709.49568745 52.5089192 706.00477288 52.50143208 C702.21710246 52.49548853 698.42944696 52.50108381 694.64177662 52.5052529 C687.99458329 52.5109546 681.34742405 52.50916963 674.70023203 52.50256753 C664.8159592 52.49277722 654.93171148 52.4943752 645.04743577 52.49831783 C628.42253622 52.50460353 611.79765082 52.50140937 595.17275286 52.4927237 C578.70420116 52.48412139 562.23565582 52.47920326 545.76710176 52.47939134 C544.74426045 52.47939898 543.72141913 52.47940663 542.66758261 52.4794145 C538.51596937 52.47945541 534.36435613 52.47952102 530.21274289 52.47962032 C491.2364153 52.48052718 452.26009741 52.47056958 413.28377318 52.45519065 C378.62299142 52.44156494 343.96221655 52.43532937 309.30143213 52.43600106 C307.07586457 52.43604147 304.85029701 52.43608183 302.62472945 52.43612214 C301.52447359 52.43614249 300.42421772 52.43616284 299.29062078 52.43618381 C293.75258046 52.4362846 288.21454015 52.43637518 282.67649984 52.43645406 C281.03779819 52.43647913 281.03779819 52.43647913 279.36599145 52.4365047 C250.43976294 52.43686953 221.5135353 52.43233493 192.58730751 52.42612749 C191.04470253 52.42579709 191.04470253 52.42579709 189.47093382 52.42546 C185.33509747 52.42457173 181.19926112 52.42368334 177.06342477 52.42276905 C162.64930188 52.41960425 148.23517967 52.41809916 133.82105645 52.41765756 C115.2505042 52.41706153 96.67995765 52.41308849 78.10940783 52.4032261 C68.27820701 52.39809567 58.44701456 52.39570685 48.61581246 52.39722228 C42.06140272 52.39795325 35.50700117 52.3950791 28.95259405 52.38917847 C25.20986551 52.38590877 21.46715461 52.38426357 17.72442519 52.38693907 C13.70670662 52.38976964 9.68903504 52.38498283 5.67131948 52.37933278 C3.90010714 52.38241576 3.90010714 52.38241576 2.09311274 52.38556102 C0.50371763 52.3814214 0.50371763 52.3814214 -1.11778647 52.37719816 C-2.03809261 52.37690666 -2.95839876 52.37661516 -3.90659297 52.37631483 C-5.97176123 52.25069833 -5.97176123 52.25069833 -6.97176123 51.25069833 C-7.07534902 49.72683602 -7.11027261 48.19822847 -7.1170249 46.67086434 C-7.12340475 45.69637841 -7.1297846 44.72189248 -7.13635778 43.71787667 C-7.13747061 42.65749688 -7.13858343 41.59711709 -7.13972998 40.50460458 C-7.14305838 39.42315667 -7.14638678 38.34170877 -7.14981604 37.22748971 C-7.15489 34.93501867 -7.15722422 32.64254021 -7.15706396 30.35006356 C-7.15924967 26.83179266 -7.1773985 23.31383552 -7.1963706 19.7956202 C-7.1993045 17.57361607 -7.20128932 15.35161045 -7.20222998 13.12960458 C-7.20941549 12.07124902 -7.21660101 11.01289346 -7.22400427 9.92246652 C-7.22092764 8.94482842 -7.21785101 7.96719033 -7.21468115 6.95992684 C-7.21610617 6.09690454 -7.21753119 5.23388223 -7.21899939 4.34470773 C-6.68456864 -0.18170931 -3.84200154 0.00056661 0 0 Z " fill="#FEFEFD" transform="translate(378.97176122665405,1268.7493016719818)"/>
<path d="M0 0 C17.19338969 -0.02332856 34.38677447 -0.04097896 51.58017635 -0.05181217 C59.562815 -0.05697522 67.54544383 -0.06401809 75.52807617 -0.07543945 C82.48323799 -0.08538602 89.43839269 -0.09185336 96.39356142 -0.09408849 C100.07851927 -0.09539565 103.76345678 -0.09848179 107.44840813 -0.10573006 C111.55537708 -0.1137434 115.66231037 -0.11399116 119.76928711 -0.11352539 C120.99998932 -0.11712067 122.23069153 -0.12071594 123.49868774 -0.12442017 C124.61073074 -0.1230455 125.72277374 -0.12167084 126.86851501 -0.12025452 C127.84100661 -0.12117631 128.81349821 -0.1220981 129.81545925 -0.12304783 C132 0 132 0 133 1 C133.09304018 2.47354348 133.11746265 3.95150591 133.11352539 5.42797852 C133.11340454 6.38208618 133.11328369 7.33619385 133.11315918 8.31921387 C133.10804321 9.32891235 133.10292725 10.33861084 133.09765625 11.37890625 C133.09664917 12.30183472 133.09564209 13.22476318 133.09460449 14.17565918 C133.08935494 17.63795201 133.07539381 21.1002272 133.0625 24.5625 C133.041875 32.296875 133.02125 40.03125 133 48 C103.96 48 74.92 48 45 48 C45 52.62 45 57.24 45 62 C44.8830427 65.21228198 44.74816705 68.40985767 44.5625 71.6171875 C44.51810791 72.4440506 44.47371582 73.2709137 44.42797852 74.12283325 C44.2888487 76.70709619 44.14484886 79.29105186 44 81.875 C43.85573986 84.48039621 43.71262908 87.08584078 43.57202148 89.69143677 C43.48524199 91.29660152 43.39636754 92.90165504 43.30493164 94.50656128 C43.04131352 99.34563782 42.96157482 104.15362426 43 109 C43.47566406 108.62488281 43.95132813 108.24976563 44.44140625 107.86328125 C59.52643979 96.83426041 79.41176532 95.08732034 97.515625 97.4609375 C110.83949017 100.4256719 121.82716454 107.86298949 129.26171875 119.37109375 C133.42770018 126.21237209 136.71330714 133.31448108 139 141 C139.27457031 141.91910156 139.54914063 142.83820313 139.83203125 143.78515625 C143.72808742 158.04510567 144.35092728 172.44311594 144.25 187.125 C144.24689819 187.93193298 144.24379639 188.73886597 144.24060059 189.57025146 C144.10356833 220.06745789 142.80166647 251.71506263 120.9140625 275.2421875 C103.55727363 291.84705772 80.81732993 292.507975 58.25390625 292.27734375 C39.66829922 291.79338119 24.23216753 286.42153665 11 273 C10.41347656 272.42378906 9.82695312 271.84757812 9.22265625 271.25390625 C-6.39986953 254.6773331 -7 225.20530942 -7 204 C10.82 204 28.64 204 47 204 C47.99 216.375 47.99 216.375 49 229 C51.43152444 239.69064331 51.43152444 239.69064331 58 248 C63.7987257 251.03742775 70.97318648 250.8426608 77.27734375 249.5234375 C81.91461115 247.76109787 83.98729944 244.96234702 86.375 240.6875 C92.0902899 227.38786032 91.34538334 212.51318589 91.31567383 198.29443359 C91.31251236 195.13734406 91.33606252 191.98119337 91.36132812 188.82421875 C91.73875987 165.2828875 91.73875987 165.2828875 83 144 C76.85402344 138.85744819 70.7775766 138.32786375 63 139 C57.48765482 140.44169028 52.6584257 143.29364154 49.65234375 148.19921875 C46.83768505 153.55773808 45.51683578 157.9326569 44 164 C28.16 164 12.32 164 -4 164 C-4 141.98427176 -4 141.98427176 -3.74636841 131.60488892 C-3.71883169 130.46354933 -3.71883169 130.46354933 -3.69073868 129.29915237 C-3.66206522 128.11853289 -3.66206522 128.11853289 -3.6328125 126.9140625 C-3.59264936 125.20405337 -3.55260365 123.49404148 -3.51266479 121.7840271 C-3.42839371 118.19891691 -3.34247127 114.61385113 -3.25537109 111.02880859 C-3.1697956 107.50151342 -3.08635313 103.97418095 -3.00537109 100.44677734 C-2.23648307 66.95679732 -1.13547087 33.47917124 0 0 Z " fill="#FDFEFD" transform="translate(219,128)"/>
<path d="M0 0 C0 95.04 0 190.08 0 288 C-18.15 288 -36.3 288 -55 288 C-55 212.1 -55 136.2 -55 58 C-61.93 60.64 -68.86 63.28 -76 66 C-79.56005976 67.34153748 -83.11966187 68.67999554 -86.6875 70 C-87.87956055 70.44666016 -87.87956055 70.44666016 -89.09570312 70.90234375 C-94.76517497 73 -94.76517497 73 -97 73 C-97 59.47 -97 45.94 -97 32 C-92.91625 30.081875 -88.8325 28.16375 -84.625 26.1875 C-76.19196109 22.15899117 -67.86696413 18.04695748 -59.875 13.1875 C-59.19775879 12.78104248 -58.52051758 12.37458496 -57.82275391 11.95581055 C-38.74205208 0 -38.74205208 0 0 0 Z " fill="#FEFEFE" transform="translate(181,128)"/>
<path d="M0 0 C3.31837613 -1.85211691 6.57697924 -3.72416892 9.76171875 -5.80078125 C31.26343388 -19.69461223 55.675801 -26.74099063 81.125 -21.5 C90.11695697 -19.42553461 98.05332746 -15.6139711 106 -11 C106.87269531 -10.49339844 107.74539063 -9.98679687 108.64453125 -9.46484375 C115.03419671 -5.44752343 120.67225528 -0.32774472 126 5 C126.43360348 8.05380738 126.46840963 10.95001458 126 14 C123.875 16.625 123.875 16.625 121 18 C117.25284318 18 114.65492455 16.86889818 111.4375 15.125 C93.73040651 6.09009569 69.98765618 8.21887145 51.59863281 14.08837891 C36.51550522 19.37966023 21.67948683 27.24739676 10.31933594 38.69335938 C7.18585257 41.76032589 4.94343351 43.42989468 0.4765625 43.71484375 C-4.59363063 43.34471751 -7.15020924 41.0561584 -10.625 37.5625 C-17.51903869 31.16427194 -24.7804415 26.50861858 -33 22 C-33.98355469 21.43539062 -34.96710938 20.87078125 -35.98046875 20.2890625 C-54.98629574 9.96037859 -80.82710748 6.35368438 -101.9375 11.1875 C-106.36202304 12.53239907 -110.08398819 14.67084225 -114.02734375 17.046875 C-116 18 -116 18 -119.4375 18 C-122 17 -122 17 -124 14 C-124.97042092 10.45047382 -124.96793899 7.55415099 -124 4 C-112.65738651 -10.73210541 -92.00658747 -19.47422193 -74.1875 -22.6875 C-46.54461257 -25.39537469 -22.26277407 -15.69810992 0 0 Z " fill="#FDFEFC" transform="translate(969,893)"/>
<path d="M0 0 C6.6 0 13.2 0 20 0 C20 31.35 20 62.7 20 95 C28.91 95 37.82 95 47 95 C47.495 98.465 47.495 98.465 48 102 C53.28744558 76.95773184 58.46921537 51.89490564 63.5625 26.8125 C63.69828964 26.14379757 63.83407928 25.47509514 63.97398376 24.786129 C65.65142357 16.52451162 67.32654868 8.26242619 69 0 C76.26 0 83.52 0 91 0 C96.46281785 25.98410746 101.85037657 51.97399439 106.8520813 78.05099487 C108.83647817 88.38013979 110.92067622 98.68962034 113 109 C106.73 109 100.46 109 94 109 C91.75 102.25 91.75 102.25 91.3671875 98.2578125 C91.25286377 97.12303467 91.25286377 97.12303467 91.13623047 95.96533203 C91.05002441 95.02802246 90.96381836 94.09071289 90.875 93.125 C90.58625 90.11375 90.2975 87.1025 90 84 C83.4 84 76.8 84 70 84 C70 86.64 70 89.28 70 92 C69.01 97.61 68.02 103.22 67 109 C44.89 109 22.78 109 0 109 C0 73.03 0 37.06 0 0 Z " fill="#FCFEFC" transform="translate(648,308)"/>
<path d="M0 0 C4.83959421 4.3280092 6.93311084 9.44739764 8.91015625 15.52734375 C9.40515625 17.01234375 9.40515625 17.01234375 9.91015625 18.52734375 C10.01942038 20.60546935 10.06912023 22.68690437 10.0871582 24.76782227 C10.10641106 26.70112144 10.10641106 26.70112144 10.12605286 28.67347717 C10.13422414 30.08439752 10.14166712 31.49532224 10.1484375 32.90625 C10.15251303 33.61916639 10.15658855 34.33208279 10.16078758 35.06660271 C10.18164266 38.84526147 10.19594278 42.62388405 10.20532227 46.40258789 C10.21634301 50.28381072 10.25069321 54.1644533 10.29049397 58.04547215 C10.31679856 61.0474495 10.3250266 64.04929201 10.32860374 67.05137444 C10.33343968 68.48055852 10.34496711 69.90973781 10.36364174 71.33880806 C10.50538926 82.91194782 9.09636662 92.15493741 0.9765625 100.8359375 C-2.61915827 103.77912671 -6.67522242 105.21848617 -11.08984375 106.52734375 C-11.71375 106.718125 -12.33765625 106.90890625 -12.98046875 107.10546875 C-23.25784707 109.16094441 -33.17749208 107.60654938 -42.1484375 102.3125 C-48.71683005 97.4391765 -51.77668257 89.39566878 -53.08984375 81.52734375 C-53.18336106 79.58734237 -53.22775446 77.64463273 -53.23510742 75.70239258 C-53.24148727 74.55382278 -53.24786713 73.40525299 -53.25444031 72.22187805 C-53.25555313 70.98850204 -53.25666595 69.75512604 -53.2578125 68.484375 C-53.2611409 67.20559982 -53.2644693 65.92682465 -53.26789856 64.60929871 C-53.27387557 61.90350501 -53.27574007 59.19774318 -53.27514648 56.49194336 C-53.27504526 53.05038681 -53.28866231 49.60903843 -53.30591869 46.16753101 C-53.31981994 42.85647654 -53.31913047 39.54545818 -53.3203125 36.234375 C-53.32749802 35.01112015 -53.33468353 33.7878653 -53.34208679 32.52754211 C-53.31375242 21.80458041 -52.64939068 11.07262596 -45.4375 2.58203125 C-34.04925 -8.55004135 -12.82290866 -9.0359562 0 0 Z " fill="#FCFEFB" transform="translate(529.08984375,311.47265625)"/>
<path d="M0 0 C44.05263158 0 44.05263158 0 51.9375 6.375 C52.9584375 7.674375 52.9584375 7.674375 54 9 C54.721875 9.9075 55.44375 10.815 56.1875 11.75 C60.71659017 19.8711272 60.30734481 28.82247859 60.30078125 37.87109375 C60.30506638 39.18860123 60.3093515 40.5061087 60.31376648 41.86354065 C60.32118503 44.63961843 60.32096915 47.41556894 60.31567383 50.19165039 C60.30988091 53.72289027 60.32682668 57.25360533 60.3500185 60.78475857 C60.36841817 64.18855744 60.36456823 67.59224563 60.36328125 70.99609375 C60.372491 72.25054794 60.38170074 73.50500214 60.39118958 74.79747009 C60.33991566 84.60529452 59.20595403 93.40869977 52.87890625 101.2421875 C39.05551066 114.17467817 16.14292714 109 0 109 C0 73.03 0 37.06 0 0 Z " fill="#FEFEFE" transform="translate(837,308)"/>
<path d="M0 0 C1.43158447 -0.00945648 1.43158447 -0.00945648 2.89208984 -0.019104 C3.92543457 -0.01505554 4.9587793 -0.01100708 6.0234375 -0.00683594 C7.08127441 -0.00874939 8.13911133 -0.01066284 9.22900391 -0.01263428 C11.46842689 -0.01399696 13.70785776 -0.01029476 15.94726562 -0.00195312 C19.38429427 0.00874504 22.8208002 -0.00184581 26.2578125 -0.01464844 C28.42968866 -0.01332686 30.60156449 -0.0107645 32.7734375 -0.00683594 C33.80678223 -0.0108844 34.84012695 -0.01493286 35.90478516 -0.019104 C36.8591748 -0.01279968 37.81356445 -0.00649536 38.796875 0 C39.63911621 0.00159119 40.48135742 0.00318237 41.34912109 0.00482178 C43.3984375 0.25878906 43.3984375 0.25878906 45.3984375 2.25878906 C45.65011978 4.26406097 45.65011978 4.26406097 45.65240479 6.77575684 C45.65804443 7.72641525 45.66368408 8.67707367 45.66949463 9.65653992 C45.66544617 10.70284073 45.66139771 11.74914154 45.65722656 12.82714844 C45.6607312 13.92638138 45.66423584 15.02561432 45.66784668 16.15815735 C45.67667826 19.80634807 45.67080974 23.45434623 45.6640625 27.10253906 C45.66540874 29.62837766 45.66734892 32.154216 45.66986084 34.68005371 C45.67281404 39.97960104 45.66869776 45.27907879 45.65917969 50.57861328 C45.64829483 56.71005451 45.65182031 62.84136273 45.6628325 68.97280073 C45.67299298 74.86532674 45.67192909 80.75781133 45.66606903 86.65034485 C45.66473106 89.16067015 45.66638536 91.67099883 45.67102814 94.18132019 C45.6760846 97.6844493 45.66839538 101.18731992 45.65722656 104.69042969 C45.66127502 105.7367305 45.66532349 106.78303131 45.66949463 107.86103821 C45.66103516 109.28702583 45.66103516 109.28702583 45.65240479 110.74182129 C45.65165073 111.57068092 45.65089668 112.39954056 45.65011978 113.25351715 C45.3984375 115.25878906 45.3984375 115.25878906 43.3984375 117.25878906 C41.34912109 117.51275635 41.34912109 117.51275635 38.796875 117.51757812 C37.84248535 117.52388245 36.8880957 117.53018677 35.90478516 117.53668213 C34.35476807 117.53060944 34.35476807 117.53060944 32.7734375 117.52441406 C31.71560059 117.52632751 30.65776367 117.52824097 29.56787109 117.5302124 C27.32844811 117.53157508 25.08901724 117.52787288 22.84960938 117.51953125 C19.41258073 117.50883308 15.9760748 117.51942394 12.5390625 117.53222656 C10.36718634 117.53090498 8.19531051 117.52834262 6.0234375 117.52441406 C4.99009277 117.52846252 3.95674805 117.53251099 2.89208984 117.53668213 C1.9377002 117.53037781 0.98331055 117.52407349 0 117.51757812 C-0.84224121 117.51598694 -1.68448242 117.51439575 -2.55224609 117.51275635 C-4.6015625 117.25878906 -4.6015625 117.25878906 -6.6015625 115.25878906 C-6.85324478 113.25351715 -6.85324478 113.25351715 -6.85552979 110.74182129 C-6.86116943 109.79116287 -6.86680908 108.84050446 -6.87261963 107.86103821 C-6.86857117 106.8147374 -6.86452271 105.76843658 -6.86035156 104.69042969 C-6.8638562 103.59119675 -6.86736084 102.49196381 -6.87097168 101.35942078 C-6.87980326 97.71123006 -6.87393474 94.06323189 -6.8671875 90.41503906 C-6.86853374 87.88920047 -6.87047392 85.36336212 -6.87298584 82.83752441 C-6.87593904 77.53797709 -6.87182276 72.23849933 -6.86230469 66.93896484 C-6.85141983 60.80752362 -6.85494531 54.67621539 -6.8659575 48.54477739 C-6.87611798 42.65225139 -6.87505409 36.7597668 -6.86919403 30.86723328 C-6.86785606 28.35690797 -6.86951036 25.8465793 -6.87415314 23.33625793 C-6.8792096 19.83312883 -6.87152038 16.3302582 -6.86035156 12.82714844 C-6.86440002 11.78084763 -6.86844849 10.73454681 -6.87261963 9.65653992 C-6.86697998 8.7058815 -6.86134033 7.75522308 -6.85552979 6.77575684 C-6.85477573 5.9468972 -6.85402168 5.11803757 -6.85324478 4.26406097 C-6.31468841 -0.02687264 -3.66944797 0.00693243 0 0 Z " fill="#FDFEFD" transform="translate(578.6015625,1015.7412109375)"/>
<path d="M0 0 C5.41282677 4.32001632 5.41282677 4.32001632 6.5859375 8.05078125 C6.80971757 11.41369845 6.10841509 13.61505851 4.2890625 16.4140625 C1.19553454 18.36786963 -0.47962916 18.42924941 -4.0859375 17.9140625 C-5.78107887 16.96312953 -7.44961858 15.96298488 -9.0859375 14.9140625 C-27.04584371 9.76277157 -49.04320773 14.41143917 -65.0222168 23.20825195 C-74.16117675 28.51790061 -82.60622933 34.87893346 -89.81640625 42.63671875 C-91.99051951 44.82421117 -93.46854673 44.97555327 -96.5859375 45.4765625 C-101.7746394 45.40257032 -104.29943906 42.53212079 -108.078125 39.2734375 C-118.95558716 30.74098666 -131.79315144 26.13655609 -145.0859375 22.9140625 C-145.88128906 22.71167969 -146.67664063 22.50929688 -147.49609375 22.30078125 C-157.6254855 20.78824764 -169.25996538 21.00930432 -179.0859375 23.9140625 C-180.30023437 24.25824219 -180.30023437 24.25824219 -181.5390625 24.609375 C-186.18665178 26.03090607 -186.18665178 26.03090607 -190.2109375 28.6640625 C-192.0859375 29.9140625 -192.0859375 29.9140625 -195.7109375 29.7890625 C-199.0859375 28.9140625 -199.0859375 28.9140625 -201.0859375 25.9140625 C-201.92017127 22.74270053 -201.87879581 20.09559584 -201.0859375 16.9140625 C-193.50806747 5.57647804 -176.03707433 -4.07942359 -163.0859375 -7.0859375 C-139.11294253 -11.44466386 -119.00379848 -3.97998529 -98.0859375 6.9140625 C-97.40789062 6.40617188 -96.72984375 5.89828125 -96.03125 5.375 C-65.83985744 -16.95492192 -32.14470556 -21.72819338 0 0 Z " fill="#FDFEFC" transform="translate(970.0859375,694.0859375)"/>
<path d="M0 0 C4.62 0 9.24 0 14 0 C18.97692878 9.66154953 23.32038089 19.50018858 27.5625 29.5 C28.21516649 31.030088 28.86815983 32.56003662 29.52148438 34.08984375 C33.05562074 42.37653258 36.53488407 50.68372178 40 59 C40.33 39.86 40.66 20.72 41 1 C46.61 1 52.22 1 58 1 C58 36.97 58 72.94 58 110 C53.38 110 48.76 110 44 110 C34.90166078 89.50686574 26.47561706 68.75807907 18 48 C17.67 68.46 17.34 88.92 17 110 C11.39 110 5.78 110 0 110 C0 73.7 0 37.4 0 0 Z " fill="#FBFDFA" transform="translate(767,307)"/>
<path d="M0 0 C5.61 0 11.22 0 17 0 C17 36.3 17 72.6 17 110 C12.38 110 7.76 110 3 110 C2.45585449 108.67983887 1.91170898 107.35967773 1.35107422 105.99951172 C-0.69433452 101.03784503 -2.74102922 96.07670963 -4.78808594 91.11572266 C-5.66896328 88.98044766 -6.54950537 86.84503432 -7.4296875 84.70947266 C-8.70481727 81.61583394 -9.98120691 78.52271745 -11.2578125 75.4296875 C-11.64244659 74.49575165 -12.02708069 73.5618158 -12.42337036 72.59957886 C-15.54779063 65.03486603 -18.77502149 57.52494987 -22 50 C-22.33 69.8 -22.66 89.6 -23 110 C-28.61 110 -34.22 110 -40 110 C-40 74.03 -40 38.06 -40 1 C-35.38 1 -30.76 1 -26 1 C-20.62224956 12.25575674 -15.63689687 23.66611389 -10.70825195 35.12353516 C-10.43581161 35.75601166 -10.16337128 36.38848816 -9.88267517 37.04013062 C-9.1372785 38.77138095 -8.39352934 40.50334036 -7.64990234 42.23535156 C-5.48324288 47.17910548 -3.23358227 52.08611901 -1 57 C-0.67 38.19 -0.34 19.38 0 0 Z " fill="#FCFEFC" transform="translate(590,307)"/>
<path d="M0 0 C0.82113281 -0.01224609 1.64226563 -0.02449219 2.48828125 -0.03710938 C11.39183463 -0.05827472 18.81615472 2.22057736 26.75 6.1875 C27.52085937 6.56261719 28.29171875 6.93773437 29.0859375 7.32421875 C37.23784614 11.71675204 43.67030579 18.28828588 49.75 25.1875 C49.75 25.8475 49.75 26.5075 49.75 27.1875 C50.56339844 26.91035156 51.37679687 26.63320313 52.21484375 26.34765625 C69.31709587 20.94188252 86.15314306 20.63921196 102.75 28.1875 C113.32639667 33.93305603 121.9447649 41.5044934 127.75 52.1875 C128.3708176 56.46424345 128.24672199 59.58112379 125.75 63.1875 C122.79206277 64.66646861 121.04779776 64.6230582 117.75 64.1875 C115.88448484 62.84625139 114.26962636 61.33971879 112.5859375 59.77734375 C109.59816201 57.19005732 106.39641875 55.65783014 102.75 54.1875 C102.03070312 53.88714844 101.31140625 53.58679688 100.5703125 53.27734375 C85.18551238 47.99342677 66.32871319 50.08233372 51.875 56.875 C51.03195312 57.31199219 50.18890625 57.74898437 49.3203125 58.19921875 C46.24146059 59.38303263 44.02279937 59.55014945 40.75 59.1875 C37.61847358 56.12556305 35.24720896 52.87587074 32.6875 49.33203125 C22.47182387 35.33868322 9.83528301 25.73505005 -7.24609375 21.5625 C-11.98800002 20.97053251 -16.7326306 21.06522075 -21.50170898 21.296875 C-26.78513243 21.49127485 -26.78513243 21.49127485 -29.22265625 19.8984375 C-30.99830233 16.94127787 -30.65422808 14.53681838 -30.25 11.1875 C-27.41393285 6.71813153 -24.68362625 5.18011111 -19.75 3.4375 C-18.6259375 3.03015625 -17.501875 2.6228125 -16.34375 2.203125 C-10.71006573 0.35368319 -5.90409651 0.00454861 0 0 Z " fill="#FCFEFC" transform="translate(950.25,594.8125)"/>
<path d="M0 0 C15.18 0 30.36 0 46 0 C46 4.95 46 9.9 46 15 C37.42 15 28.84 15 20 15 C20 25.23 20 35.46 20 46 C26.93 46 33.86 46 41 46 C41 50.62 41 55.24 41 60 C34.07 60 27.14 60 20 60 C20 71.88 20 83.76 20 96 C28.58 96 37.16 96 46 96 C46 100.62 46 105.24 46 110 C30.82 110 15.64 110 0 110 C0 73.7 0 37.4 0 0 Z " fill="#FDFEFD" transform="translate(615,128)"/>
<path d="M0 0 C15.18 0 30.36 0 46 0 C46 4.95 46 9.9 46 15 C37.75 15 29.5 15 21 15 C21 25.23 21 35.46 21 46 C27.6 46 34.2 46 41 46 C41 50.62 41 55.24 41 60 C34.4 60 27.8 60 21 60 C21 76.5 21 93 21 110 C14.07 110 7.14 110 0 110 C0 73.7 0 37.4 0 0 Z " fill="#F8FCF7" transform="translate(563,128)"/>
<path d="M0 0 C6.6 0 13.2 0 20 0 C20 31.68 20 63.36 20 96 C28.58 96 37.16 96 46 96 C46 100.62 46 105.24 46 110 C30.82 110 15.64 110 0 110 C0 73.7 0 37.4 0 0 Z " fill="#FEFEFE" transform="translate(478,128)"/>
<path d="M0 0 C6.6 0 13.2 0 20 0 C20 31.68 20 63.36 20 96 C28.58 96 37.16 96 46 96 C46 100.29 46 104.58 46 109 C30.82 109 15.64 109 0 109 C0 73.03 0 37.06 0 0 Z " fill="#FDFEFC" transform="translate(648,308)"/>
<path d="M0 0 C6.6 0 13.2 0 20 0 C20 36.3 20 72.6 20 110 C13.4 110 6.8 110 0 110 C0 73.7 0 37.4 0 0 Z " fill="#FEFEFE" transform="translate(531,128)"/>
<path d="M0 0 C4.08374457 2.39698051 5.57307408 4.56745981 7 9 C7.26742554 11.97712708 7.26742554 11.97712708 7.29052734 15.31567383 C7.3096669 17.19836723 7.3096669 17.19836723 7.32919312 19.11909485 C7.3322513 20.48173874 7.33447878 21.84438471 7.3359375 23.20703125 C7.34237115 24.6156172 7.34909993 26.02420183 7.35610962 27.43278503 C7.36806521 30.38238622 7.3717923 33.33187045 7.37060547 36.28149414 C7.37040255 40.04408117 7.39768302 43.80591057 7.43214989 47.56831837 C7.45449118 50.47758871 7.4584408 53.38667892 7.45738602 56.29602623 C7.45973195 57.68219293 7.46849825 59.06836536 7.48405075 60.45444679 C7.56436458 68.35254037 7.44791264 74.31673411 3 81 C-0.9303686 82.9651843 -5.7147185 82.46909886 -10 82 C-13.16620095 79.81381363 -13.7896387 78.63108389 -15 75 C-15.10458071 72.83405204 -15.1486516 70.66501739 -15.16113281 68.49658203 C-15.16609772 67.84093262 -15.17106262 67.1852832 -15.17617798 66.50976562 C-15.19077353 64.34243721 -15.19759706 62.17518197 -15.203125 60.0078125 C-15.20887842 58.49950153 -15.21463613 56.99119058 -15.22039795 55.48287964 C-15.23090039 52.32045145 -15.23674806 49.15804864 -15.24023438 45.99560547 C-15.24571881 41.94809551 -15.26974863 37.90092199 -15.29820633 33.85351753 C-15.31685148 30.73765083 -15.32203929 27.62186489 -15.32357025 24.50594711 C-15.32659288 23.01403844 -15.33460828 21.52213106 -15.34775543 20.03027725 C-15.36485658 17.94066171 -15.36292641 15.85186462 -15.35644531 13.76220703 C-15.36009094 12.57434601 -15.36373657 11.38648499 -15.36749268 10.16262817 C-14.96232205 6.67574499 -14.06032188 4.81017611 -12 2 C-8.53596584 -0.69424879 -4.20471068 -0.67710053 0 0 Z " fill="#58C02E" transform="translate(512,321)"/>
<path d="M0 0 C12 0 12 0 17 3 C20.92381803 9.29063338 20.41842505 15.86015752 20.36328125 23.08984375 C20.36377975 24.34833633 20.36427826 25.60682892 20.36479187 26.90345764 C20.36245641 29.55891934 20.35435519 32.21357527 20.33618164 34.86889648 C20.31351895 38.25234546 20.31295035 41.63534731 20.31969929 45.01885128 C20.32386777 48.27171511 20.31184866 51.52450141 20.30078125 54.77734375 C20.30169266 55.98277328 20.30260406 57.18820282 20.30354309 58.43016052 C20.17861695 73.34481059 20.17861695 73.34481059 16 78.4375 C10.41292212 82.8024046 9.64363671 81 0 81 C0 54.27 0 27.54 0 0 Z " fill="#58C02E" transform="translate(857,322)"/>
<path d="M0 0 C1.81231653 3.19035831 2.48551915 6.03939697 3.03515625 9.65625 C3.20466797 10.76226562 3.37417969 11.86828125 3.54882812 13.0078125 C3.71833984 14.16023438 3.88785156 15.31265625 4.0625 16.5 C4.23587891 17.62148438 4.40925781 18.74296875 4.58789062 19.8984375 C5.6966794 27.25637683 6.45467864 34.57913201 7 42 C2.38 42 -2.24 42 -7 42 C-5.60414357 30.85294798 -4.19987079 19.71134715 -2.375 8.625 C-2.25213623 7.86525879 -2.12927246 7.10551758 -2.00268555 6.32275391 C-1.12414046 1.12414046 -1.12414046 1.12414046 0 0 Z " fill="#5FC336" transform="translate(728,337)"/>
</svg>
