<?xml version="1.0" encoding="UTF-8"?>
<svg version="1.1" xmlns="http://www.w3.org/2000/svg" width="1500" height="1500">
<path d="M0 0 C495 0 990 0 1500 0 C1500 495 1500 990 1500 1500 C1005 1500 510 1500 0 1500 C0 1005 0 510 0 0 Z " fill="#19486A" transform="translate(0,0)"/>
<path d="M0 0 C0.79374023 0.24234375 1.58748047 0.4846875 2.40527344 0.734375 C33.69300402 10.37227162 60.4290157 26.24887602 84 49 C84.84820313 49.79664063 85.69640625 50.59328125 86.5703125 51.4140625 C106.1515609 70.25871221 121.98492141 95.40413377 131 121 C131 121.99 131 122.98 131 124 C132.00675781 124.03738281 133.01351562 124.07476563 134.05078125 124.11328125 C173.55390386 125.83246477 212.7675648 139.47937874 244 164 C244.52045898 164.40621582 245.04091797 164.81243164 245.57714844 165.23095703 C287.23321635 198.14934756 313.80825914 245.27638628 320.59643555 297.88720703 C321.36743634 304.9892513 321.30159016 312.11523586 321.25 319.25 C321.24534729 320.39937042 321.24534729 320.39937042 321.24060059 321.57196045 C320.97698251 377.18813219 298.59842252 424.99682626 259.75 464.375 C248.98790323 475 248.98790323 475 246 475 C246.21148682 475.87398437 246.21148682 475.87398437 246.42724609 476.765625 C247.08543661 479.50835502 247.73018353 482.25409617 248.375 485 C248.59671875 485.91523437 248.8184375 486.83046875 249.046875 487.7734375 C252.24762736 501.51784471 253.38793153 515.11714224 253.3125 529.1875 C253.30976578 530.25925476 253.30976578 530.25925476 253.30697632 531.35266113 C253.25535684 543.44742447 252.3958894 555.13098476 250 567 C249.8443457 567.82757812 249.68869141 568.65515625 249.52832031 569.5078125 C242.66417962 605.34931359 223.79546816 641.87153101 197 667 C196.175 667.825 195.35 668.65 194.5 669.5 C193.675 670.325 192.85 671.15 192 672 C191.46375 672.57105469 190.9275 673.14210938 190.375 673.73046875 C184.47778763 679.88568416 177.91111284 685.04517354 171 690 C170.39075684 690.43715332 169.78151367 690.87430664 169.15380859 691.32470703 C135.36054067 715.17621355 96.10685698 726.49646504 55.0625 726.3125 C53.81782455 726.31026428 53.81782455 726.31026428 52.54800415 726.3079834 C40.44119272 726.26895407 28.83491461 725.72255844 17 723 C15.60204959 722.71633885 14.20359982 722.43512869 12.8046875 722.15625 C-8.79510463 717.66769085 -31.23838776 709.43472437 -48.90551758 696.02368164 C-51.6951125 694.66026265 -53.08115879 695.07933068 -56 696 C-58.4930138 697.29909613 -60.8961321 698.63520922 -63.3125 700.0625 C-64.75774944 700.88911017 -66.20440113 701.71327276 -67.65234375 702.53515625 C-68.38308105 702.95039551 -69.11381836 703.36563477 -69.86669922 703.79345703 C-89.10703629 714.67532311 -110.00727777 722.18237127 -131.86425781 725.65771484 C-133.78715834 725.96588889 -135.70287049 726.31813887 -137.6171875 726.67578125 C-178.42418988 733.47694831 -223.07529553 723.89501039 -259 704 C-259.61359375 703.66419922 -260.2271875 703.32839844 -260.859375 702.98242188 C-276.85859122 694.1257129 -290.88617102 682.67240978 -304 670 C-304.72316406 669.32839844 -305.44632812 668.65679688 -306.19140625 667.96484375 C-334.54337596 640.98751499 -352.90270819 601.19612839 -359 563 C-359.17063965 561.99195313 -359.3412793 560.98390625 -359.51708984 559.9453125 C-360.94915003 550.90935887 -361.39730619 542.00540464 -361.375 532.875 C-361.37545319 532.14609558 -361.37590637 531.41719116 -361.37637329 530.66619873 C-361.34216946 511.73270713 -358.86467691 493.31480133 -354 475 C-354.90975586 474.57243408 -354.90975586 474.57243408 -355.83789062 474.13623047 C-360.65202967 471.6063069 -364.44673044 467.26898319 -368.37548828 463.54101562 C-369.41919613 462.55095192 -370.46674417 461.56491222 -371.51904297 460.58398438 C-384.12114519 448.80258104 -394.54293665 435.02729184 -403 420 C-403.3928418 419.30712891 -403.78568359 418.61425781 -404.19042969 417.90039062 C-410.34464004 406.95431626 -415.27706122 395.92204147 -419.30224609 384.03027344 C-419.89252567 382.31272096 -420.52914947 380.61120239 -421.17578125 378.9140625 C-437.27189388 335.53534971 -431.63691612 282.46460604 -413.03417969 240.83886719 C-410.84083184 236.14383446 -408.45373799 231.56311276 -406 227 C-405.534729 226.11368896 -405.534729 226.11368896 -405.06005859 225.20947266 C-396.00567302 208.02481385 -383.66738793 193.66738793 -370 180 C-369.30261719 179.25621094 -368.60523438 178.51242187 -367.88671875 177.74609375 C-334.57886968 142.78172643 -286.78617049 127.60280612 -240 123 C-239.59910156 121.97003906 -239.19820312 120.94007813 -238.78515625 119.87890625 C-222.14418573 77.87054187 -192.67576808 41.33433686 -153 19 C-152.31776367 18.61247559 -151.63552734 18.22495117 -150.93261719 17.82568359 C-132.63489223 7.51863545 -113.5825293 0.21451791 -93 -4 C-91.84371094 -4.24556641 -91.84371094 -4.24556641 -90.6640625 -4.49609375 C-61.47535906 -10.44194075 -28.36078569 -8.84673106 0 0 Z " fill="#FDFDFE" transform="translate(813,590)"/>
<path d="M0 0 C0.82242188 0.71027344 1.64484375 1.42054688 2.4921875 2.15234375 C3.29398438 2.83167969 4.09578125 3.51101563 4.921875 4.2109375 C9.91136681 8.52004406 14.33533912 13.03889846 18.4921875 18.15234375 C19.25273438 19.0753125 20.01328125 19.99828125 20.796875 20.94921875 C25.6589629 26.97912819 29.92949045 33.23056428 33.8671875 39.90234375 C34.27171143 40.58675537 34.67623535 41.27116699 35.09301758 41.97631836 C37.92217513 46.88714212 40.2790182 51.9372128 42.4921875 57.15234375 C41.78578125 57.29929687 41.079375 57.44625 40.3515625 57.59765625 C-10.50662559 68.71489837 -57.7131498 97.21225164 -86.40917969 141.42675781 C-91.51204858 149.44166389 -96.46634358 157.54225778 -100.5078125 166.15234375 C-101.1678125 166.15234375 -101.8278125 166.15234375 -102.5078125 166.15234375 C-102.78866699 165.6197998 -103.06952148 165.08725586 -103.35888672 164.53857422 C-115.6538064 141.36028142 -130.8973611 118.81156872 -151.5078125 102.15234375 C-152.51199219 101.3221875 -153.51617188 100.49203125 -154.55078125 99.63671875 C-163.07684263 92.68650022 -172.00158224 86.67801001 -181.5078125 81.15234375 C-182.16587891 80.76836426 -182.82394531 80.38438477 -183.50195312 79.98876953 C-199.52704778 70.76922906 -216.78951353 63.65803164 -234.9140625 59.90625 C-238.51925253 59.14994383 -241.97967853 58.20260012 -245.5078125 57.15234375 C-230.4896515 20.85845466 -200.14445403 -9.44660184 -163.99609375 -24.81640625 C-108.56540417 -47.42714348 -46.03794753 -38.86586371 0 0 Z " fill="#19486A" transform="translate(860.5078125,659.84765625)"/>
<path d="M0 0 C-0.01571045 1.12680176 -0.0314209 2.25360352 -0.04760742 3.41455078 C-0.64086688 33.3572967 -0.64086688 33.3572967 3 63 C3.12858398 63.70737305 3.25716797 64.41474609 3.38964844 65.14355469 C8.17102621 91.28905298 20.24160467 117.66699446 36 139 C36.75539063 140.03769531 37.51078125 141.07539062 38.2890625 142.14453125 C43.53852039 149.22602886 49.274392 155.73090854 55.3359375 162.125 C57.69192282 164.66752961 59.8765032 167.26260128 62 170 C60.26864974 171.73135026 57.74164429 171.42485332 55.375 171.6875 C6.58312967 178.48067707 -38.86791046 205.97203927 -69.375 244.4375 C-74.98390195 252.05935282 -79.90550687 260.16047677 -84.83007812 268.23510742 C-86 270 -86 270 -88 272 C-94.90566995 266.30241415 -100.57389045 260.10975906 -106 253 C-106.4036377 252.47132324 -106.80727539 251.94264648 -107.22314453 251.39794922 C-128.4972269 223.2735957 -139.45624261 190.99529242 -139.4375 155.6875 C-139.43790283 154.90341766 -139.43830566 154.11933533 -139.4387207 153.31149292 C-139.33749131 118.89044545 -128.00745241 87.20748058 -107 60 C-106.25878906 59.03449219 -105.51757812 58.06898438 -104.75390625 57.07421875 C-82.13173558 28.56463824 -50.43620849 9.65970377 -15 2 C-14.08347656 1.77570312 -13.16695312 1.55140625 -12.22265625 1.3203125 C-8.045 0.30544093 -4.28468061 -0.07282743 0 0 Z " fill="#19486A" transform="translate(563,755)"/>
<path d="M0 0 C1.38099836 3.83396047 0.65709473 7.27354778 0.0625 11.1875 C-6.65546347 61.82889237 8.1179264 113.68211338 38.65136719 154.26953125 C41.45082158 157.86159003 44.41170912 161.32173605 47.42138672 164.73876953 C49.71244469 167.35820406 51.64359969 169.77854927 53 173 C34.90711564 183.90212263 14.74538292 189.639268 -6 193 C-7.66482422 193.28810547 -7.66482422 193.28810547 -9.36328125 193.58203125 C-47.79586249 197.99909483 -88.94211833 186.69603569 -119.38574219 162.77734375 C-124.44480075 158.71274802 -129.28989963 154.46220035 -134 150 C-134.95648437 149.10796875 -135.91296875 148.2159375 -136.8984375 147.296875 C-163.6130617 121.87781939 -181.32847711 83.26308894 -182.28125 46.3515625 C-182.55280604 32.37982907 -182.44932989 18.63306577 -179 5 C-174.52649262 6.44777532 -170.08330066 7.9364817 -165.703125 9.6484375 C-128.15070262 24.29442872 -87.28304313 27.19092577 -48 18 C-47.12085938 17.79761719 -46.24171875 17.59523438 -45.3359375 17.38671875 C-29.5536081 13.40449013 -14.53177604 7.24706447 0 0 Z " fill="#19486A" transform="translate(674,1084)"/>
<path d="M0 0 C11.29018272 0.94917465 22.09584825 2.61041061 32.8125 6.375 C33.78807861 6.71732666 34.76365723 7.05965332 35.76879883 7.41235352 C51.65346789 13.21644053 67.05271202 21.03883724 80 32 C81.11773242 32.91889053 82.23626334 33.83681039 83.35546875 34.75390625 C102.56088023 50.6140685 116.59389223 69.70625543 127.14941406 92.19677734 C127.87807942 93.74153117 128.63545537 95.27268575 129.3984375 96.80078125 C144.75643919 129.8155938 144.13151581 173.38749562 132.29541016 207.29907227 C124.10220406 229.29211207 112.24361694 248.16987884 96 265 C95.03126953 266.02867187 95.03126953 266.02867187 94.04296875 267.078125 C92.74250898 268.43237507 91.3796292 269.72649612 90 271 C89.34 271 88.68 271 88 271 C86.53932089 268.75443315 85.19495158 266.51413762 83.875 264.1875 C73.46165928 246.35885294 60.03483623 229.10974173 44 216 C42.93359375 215.09765625 41.8671875 214.1953125 40.80078125 213.29296875 C11.45937994 188.79712001 -22.92306084 176.23619066 -60 169 C-56.65037817 165.05835852 -53.26461506 161.17132085 -49.75 157.375 C-23.09331903 127.72669822 -4.10601018 88.886956 0 49 C0.10957031 47.99453125 0.21914063 46.9890625 0.33203125 45.953125 C1.02361561 38.24426464 1.10009417 30.54813088 1.125 22.8125 C1.12967285 21.81500732 1.1343457 20.81751465 1.13916016 19.78979492 C1.12489627 13.14337427 0.71140372 6.60762792 0 0 Z " fill="#19486A" transform="translate(954,755)"/>
<path d="M0 0 C4.09624726 1.24668395 7.83220925 2.82405529 11.65478516 4.71557617 C55.76645698 26.49385087 109.82135912 29.32180476 156.29614258 13.65063477 C163.73460221 11.08438427 170.96666464 8.54498223 178 5 C178.99 5 179.98 5 181 5 C183.68293151 14.57653267 184.43525558 23.45634927 184.3125 33.375 C184.31572266 34.66921875 184.31894531 35.9634375 184.32226562 37.296875 C184.09006409 79.59977291 166.40205348 116.41716727 138 147 C137.44957031 147.60457031 136.89914062 148.20914062 136.33203125 148.83203125 C111.78665945 174.71073188 73.04140971 191.20260823 37.66262817 192.22444153 C33.69192658 192.31472381 29.72157641 192.3499888 25.75 192.375 C24.98467957 192.38312714 24.21935913 192.39125427 23.43084717 192.39962769 C12.87260304 192.48354007 3.3063523 191.47419449 -7 189 C-7.8883252 188.80132324 -8.77665039 188.60264648 -9.69189453 188.39794922 C-23.75244334 185.19828235 -36.54654332 180.29644834 -49 173 C-48.42934261 169.20981287 -46.83739592 167.5101418 -44.1875 164.8125 C-28.24817806 147.53225097 -17.5490485 126.70828941 -9 105 C-8.59007812 103.99582031 -8.18015625 102.99164062 -7.7578125 101.95703125 C-2.30071005 87.97585018 -0.00138974 72.80569823 2 58 C2.09716309 57.28199219 2.19432617 56.56398438 2.29443359 55.82421875 C4.60134851 37.17009886 2.66182513 18.50062856 0 0 Z " fill="#19486A" transform="translate(842,1084)"/>
<path d="M0 0 C43.56 0 87.12 0 132 0 C132 41.76845032 132 41.76845032 126.79931641 58.35595703 C125.49560409 62.66848126 124.50760971 67.04817516 123.5 71.4375 C123.09232934 73.1656442 122.68346396 74.89350698 122.2734375 76.62109375 C122.06686523 77.49491699 121.86029297 78.36874023 121.64746094 79.26904297 C120.48277465 84.18162999 119.30371071 89.09076245 118.125 94 C117.87621094 95.03705078 117.62742187 96.07410156 117.37109375 97.14257812 C116.01186982 102.80371128 114.64629104 108.46324985 113.2734375 114.12109375 C110.51332343 125.50436917 107.78276034 136.89043744 105.1875 148.3125 C102.19389142 161.45451425 98.89687304 174.51817411 95.61108398 187.58935547 C92.85632646 198.55078851 90.16480614 209.52325849 87.58300781 220.52685547 C86.20033146 226.39222879 84.78678584 232.25029602 83.37670898 238.10913086 C82.12255554 243.32026476 80.87216264 248.53218338 79.63574219 253.74755859 C79.16920238 255.71355151 78.70087129 257.67910901 78.23193359 259.64453125 C77.63406098 262.15159558 77.03917057 264.65937362 76.44775391 267.16796875 C76.17237793 268.31910156 75.89700195 269.47023438 75.61328125 270.65625 C75.37391846 271.66494141 75.13455566 272.67363281 74.88793945 273.71289062 C73.76766364 277.8600981 72.35846781 281.92459658 71 286 C53.51 286 36.02 286 18 286 C19.2168432 279.30736241 20.43708366 272.84729845 22.171875 266.30859375 C22.59001384 264.70182482 23.00814506 263.09505392 23.42626953 261.48828125 C23.64236877 260.66408691 23.85846802 259.83989258 24.08111572 258.99072266 C27.25813959 246.86358857 30.37770619 234.73288256 33.125 222.5 C35.38437463 212.44610427 37.91250866 202.47633448 40.52105713 192.5090332 C42.82280036 183.70307026 44.99739703 174.87967359 47 166 C49.30463587 155.78109262 51.86856354 145.64384683 54.52050781 135.51123047 C57.09441705 125.66396756 59.47009598 115.78575409 61.70874023 105.85644531 C63.81306065 96.61132725 66.17890632 87.44181242 68.58084106 78.27090454 C71.08728563 68.69215735 73.43015539 59.09458821 75.54125977 49.42089844 C75.81280884 48.18194824 75.81280884 48.18194824 76.08984375 46.91796875 C76.24316162 46.20406982 76.39647949 45.4901709 76.55444336 44.75463867 C77 43 77 43 78 41 C52.26 41 26.52 41 0 41 C0 27.47 0 13.94 0 0 Z " fill="#FDFEFE" transform="translate(216,129)"/>
<path d="M0 0 C14.19 0 28.38 0 43 0 C43 94.71 43 189.42 43 287 C24.85 287 6.7 287 -12 287 C-12 211.43 -12 135.86 -12 58 C-18.93 60.64 -25.86 63.28 -33 66 C-48.98507463 71.74626866 -48.98507463 71.74626866 -54 73 C-54 59.47 -54 45.94 -54 32 C-48.369375 29.3703125 -48.369375 29.3703125 -42.625 26.6875 C-27.72536701 19.60174122 -11.8282701 11.8282701 0 0 Z " fill="#FEFEFE" transform="translate(141,128)"/>
<path d="M0 0 C45.45072682 -1.36745323 84.51712244 16.07258165 117.92871094 46.06640625 C128.25813918 55.93111584 136.28778835 67.96433389 143.71386719 80.078125 C144.29136719 80.95339844 144.86886719 81.82867188 145.46386719 82.73046875 C146.71386719 85.078125 146.71386719 85.078125 146.71386719 89.078125 C132.35238077 95.55011953 118.30021227 101.25067011 102.71386719 104.078125 C101.225 104.3875 101.225 104.3875 99.70605469 104.703125 C61.85629915 111.53315607 20.40551818 102.19863464 -11.34619141 80.68212891 C-33.3767871 65.19906976 -53.99480423 44.93261104 -65.28613281 20.078125 C-64.28613281 17.078125 -64.28613281 17.078125 -61.21582031 15.4296875 C-59.87012983 14.84056735 -58.5180171 14.26598419 -57.16113281 13.703125 C-56.43829102 13.39785889 -55.71544922 13.09259277 -54.97070312 12.77807617 C-37.42249032 5.4867287 -19.05301663 0.65110693 0 0 Z " fill="#1A486A" transform="translate(862.2861328125,961.921875)"/>
<path d="M0 0 C18.93778091 8.53240679 31.66463112 37.81519808 39 56 C39.38929688 56.94230469 39.77859375 57.88460938 40.1796875 58.85546875 C42.28700019 64.25443653 43.77405495 69.74867431 45.125 75.375 C45.36319458 76.36391235 45.36319458 76.36391235 45.60620117 77.37280273 C53.64634708 112.46438115 48.53510747 148.75586906 33 181 C32.21689453 182.63001953 32.21689453 182.63001953 31.41796875 184.29296875 C24.30774711 198.21931527 14.90460719 210.83001521 4 222 C-2.80777469 221.13355595 -7.44366121 213.24105709 -11.45654297 208.15332031 C-33.42964185 179.49023 -45.47335531 145.31744424 -45.3125 109.125 C-45.30758545 107.80653076 -45.3026709 106.48806152 -45.29760742 105.12963867 C-45.18403573 95.69736402 -44.39377608 87.14868268 -42 78 C-41.66492693 76.52151942 -41.33306861 75.04230773 -41.00390625 73.5625 C-35.46670936 49.66146634 -24.33156961 27.35074549 -8 9 C-6.84371094 7.68128906 -6.84371094 7.68128906 -5.6640625 6.3359375 C-3.78941692 4.21133917 -1.90257309 2.09956976 0 0 Z " fill="#1A486A" transform="translate(757,1009)"/>
<path d="M0 0 C-0.55036457 3.44322066 -1.32335338 5.93448236 -3.22265625 8.85546875 C-3.90038086 9.90504761 -3.90038086 9.90504761 -4.59179688 10.97583008 C-5.07712891 11.70568115 -5.56246094 12.43553223 -6.0625 13.1875 C-6.56201172 13.94635498 -7.06152344 14.70520996 -7.57617188 15.48706055 C-11.4179909 21.26026902 -15.44413107 26.76504872 -20 32 C-21.21042969 33.40958984 -21.21042969 33.40958984 -22.4453125 34.84765625 C-38.16198799 52.78789408 -57.13245373 65.53760594 -78.90332031 75.07910156 C-80.68272321 75.86064648 -82.4484827 76.67313916 -84.2109375 77.4921875 C-117.36905358 91.80440382 -159.1070038 90.36286607 -192.54296875 78.40234375 C-198.81769202 75.85700403 -204.926271 72.9894808 -211 70 C-207.15326279 48.68699652 -180.89865089 24.62226045 -164.31005859 12.86474609 C-117.38154634 -19.64818145 -51.10094874 -30.50393798 0 0 Z " fill="#19486A" transform="translate(720,981)"/>
<path d="M0 0 C6.99400488 32.93627828 -0.32946566 70.01387427 -17 99 C-17.35707031 99.63969727 -17.71414063 100.27939453 -18.08203125 100.93847656 C-22.96250947 109.66039126 -28.36746561 117.48389269 -35 125 C-36.14855469 126.31291016 -36.14855469 126.31291016 -37.3203125 127.65234375 C-39.51825015 130.12968026 -41.74780758 132.57198587 -44 135 C-44.54914063 135.60328125 -45.09828125 136.2065625 -45.6640625 136.828125 C-66.80915695 159.11901275 -98.17270458 173.34224346 -128 179 C-129.32 179 -130.64 179 -132 179 C-137.37171158 153.71153962 -134.00009687 126.10919805 -125 102 C-124.75411133 101.32598145 -124.50822266 100.65196289 -124.25488281 99.95751953 C-116.50203066 78.94116185 -104.32797572 61.22641834 -89 45 C-88.30519531 44.25234375 -87.61039063 43.5046875 -86.89453125 42.734375 C-68.26990027 23.32947714 -43.048204 9.31278383 -17 3 C-15.89527344 2.70351563 -14.79054688 2.40703125 -13.65234375 2.1015625 C-8.94794294 0.85543932 -4.8759237 -0.06726115 0 0 Z " fill="#19486A" transform="translate(914,756)"/>
<path d="M0 0 C6.83356404 0.4673602 13.08790297 1.59482944 19.625 3.625 C20.92087036 4.02259521 20.92087036 4.02259521 22.24291992 4.42822266 C30.45644113 7.0221254 38.25725845 10.24175695 46 14 C46.62181152 14.29600098 47.24362305 14.59200195 47.88427734 14.89697266 C83.76730301 32.17121986 111.23130219 64.94545716 125 102 C126.54307331 106.60958501 127.78209466 111.29576846 129 116 C129.33128906 117.07636719 129.66257812 118.15273438 130.00390625 119.26171875 C135.19259358 138.73455709 135.30879756 159.23584316 132 179 C98.68403978 176.08401555 68.87360543 158.5038084 45 136 C44.21367188 135.28972656 43.42734375 134.57945312 42.6171875 133.84765625 C15.92020084 108.738754 -0.62833543 69.91528427 -2.14355469 33.55517578 C-2.76141027 10.33053485 -2.76141027 10.33053485 0 0 Z " fill="#19486A" transform="translate(604,756)"/>
<path d="M0 0 C9.26203212 10.16564501 9.87388095 21.75206893 9.828125 34.9765625 C9.83003845 36.2086142 9.8319519 37.44066589 9.83392334 38.71005249 C9.83527753 41.30019334 9.83163492 43.89034115 9.82324219 46.48046875 C9.81251372 50.43244715 9.82317339 54.38397291 9.8359375 58.3359375 C9.83461613 60.86198016 9.8320542 63.38802255 9.828125 65.9140625 C9.83217346 67.08820709 9.83622192 68.26235168 9.84039307 69.47207642 C9.78040056 80.01877749 8.1388053 90.24672329 1.25 98.625 C-7.89539454 106.06892579 -16.89276384 107.52928018 -28.4375 106.8125 C-34.88747058 106.09358648 -40.5520172 104.20325037 -45.4375 99.8125 C-53.42506031 89.8009425 -54.90183884 78.31442109 -54.80078125 65.875 C-54.80152901 64.07301147 -54.80152901 64.07301147 -54.80229187 62.23461914 C-54.79996506 59.71010676 -54.79031968 57.18559144 -54.77368164 54.66113281 C-54.75006679 50.82335396 -54.75313512 46.98627077 -54.75976562 43.1484375 C-54.75418823 40.68228758 -54.74707797 38.21614054 -54.73828125 35.75 C-54.73964836 34.04952515 -54.73964836 34.04952515 -54.74104309 32.31469727 C-54.64241731 21.09021901 -53.78079578 10.75284518 -46.4375 1.8125 C-34.18822365 -9.12354524 -13.30817761 -9.75255764 0 0 Z " fill="#FAFBFC" transform="translate(1036.4375,312.1875)"/>
<path d="M0 0 C5.60272953 4.37382895 8.24682908 11.2328616 10.1875 17.875 C10.45492554 21.02812195 10.45492554 21.02812195 10.47802734 24.44018555 C10.49078705 25.72559738 10.50354675 27.01100922 10.51669312 28.33537292 C10.51975202 29.72748665 10.52197911 31.11960242 10.5234375 32.51171875 C10.5298746 33.95652902 10.53660362 35.40133801 10.54360962 36.84614563 C10.55555876 39.87133805 10.55929311 42.89641652 10.55810547 45.92163086 C10.55790291 49.77020483 10.58514956 53.61803517 10.61964989 57.46643353 C10.64205663 60.45131178 10.64593877 63.43601532 10.64488602 66.42096901 C10.64722346 67.83814863 10.65594046 69.25533447 10.67155075 70.67243004 C10.78773708 82.31341277 9.49329469 92.49803159 1.18359375 101.21875 C-7.30884263 108.26531169 -18.26159467 108.68834602 -28.8125 107.875 C-35.43153033 106.36395585 -41.17496617 103.95420372 -45.8125 98.875 C-52.04375377 88.64042678 -53.12800729 79.81614959 -53.1484375 68.015625 C-53.15487792 66.66192489 -53.16160717 65.30822613 -53.16860962 63.95452881 C-53.18054272 61.12362446 -53.18429468 58.29284176 -53.18310547 55.46191406 C-53.18290278 51.86333166 -53.21016989 48.26554339 -53.24464989 44.66714859 C-53.26707028 41.87185197 -53.2709384 39.0767417 -53.26988602 36.28136444 C-53.27334338 34.31904729 -53.29491165 32.35678831 -53.31698608 30.39459229 C-53.26528805 20.1624422 -51.36757266 11.01918119 -44.8125 2.875 C-33.27932702 -8.03475822 -13.14157763 -8.15003419 0 0 Z " fill="#FCFCFD" transform="translate(580.8125,311.125)"/>
<path d="M0 0 C44.90082518 0 44.90082518 0 54.41015625 8.22265625 C60.22968947 14.72852262 60.37764726 22.20682742 60.5 30.5625 C60.52803711 31.89196655 60.52803711 31.89196655 60.55664062 33.24829102 C60.48696137 40.46746347 58.92023696 46.67021761 54.078125 52.19140625 C52.38541667 53.4609375 50.69270833 54.73046875 49 56 C50.33650431 63.09879396 51.96982955 70.0790288 53.8125 77.0625 C54.07240723 78.05677002 54.33231445 79.05104004 54.60009766 80.07543945 C56.43133393 87.0186448 58.38385043 93.91794442 60.52661133 100.77172852 C61.53391127 104.05929901 62 106.51181056 62 110 C55.4 110 48.8 110 42 110 C37.45544787 93.7162946 32.97918449 77.43326671 29 61 C26.36 60.67 23.72 60.34 21 60 C21 76.5 21 93 21 110 C14.07 110 7.14 110 0 110 C0 73.7 0 37.4 0 0 Z " fill="#F9FAFB" transform="translate(859,128)"/>
<path d="M0 0 C43.3030303 0 43.3030303 0 53 8 C59.77028321 14.96371988 60.43538057 22.43259887 60.35546875 31.70336914 C60.10964861 39.91574994 58.25852805 46.50417124 53 53 C51.3570126 54.03844604 49.69269392 55.04471729 48 56 C50.87993304 67.86077686 54.01807544 79.65050316 57.18164062 91.43798828 C57.51615234 92.68563965 57.85066406 93.93329102 58.1953125 95.21875 C58.49453613 96.33185547 58.79375977 97.44496094 59.10205078 98.59179688 C60.10165411 102.38583235 61.04840963 106.19363851 62 110 C55.4 110 48.8 110 42 110 C38.62752516 102.13089203 38.62752516 102.13089203 37.75390625 98.25 C37.55829102 97.40131348 37.36267578 96.55262695 37.16113281 95.67822266 C36.96358398 94.79440918 36.76603516 93.9105957 36.5625 93 C36.13325189 91.13241138 35.7022497 89.2652251 35.26953125 87.3984375 C35.0576416 86.48416992 34.84575195 85.56990234 34.62744141 84.62792969 C33.47324643 79.79378389 32.1388207 75.01136889 30.796875 70.2265625 C29.95811877 66.83042206 29.43906033 63.46857664 29 60 C26.03 60 23.06 60 20 60 C20 76.5 20 93 20 110 C13.4 110 6.8 110 0 110 C0 73.7 0 37.4 0 0 Z " fill="#FCFDFD" transform="translate(608,128)"/>
<path d="M0 0 C45.84592105 0 45.84592105 0 54.375 8.16796875 C61.26456122 15.93528657 60.54109883 26.25038289 60 36 C58.93156057 42.92382401 57.18302396 48.18719203 52 53 C50.35246756 53.71264233 48.68739237 54.38768538 47 55 C47.27972656 55.86496094 47.55945313 56.72992188 47.84765625 57.62109375 C50.9616886 67.3653428 53.77436002 77.18120681 56.50024414 87.04077148 C56.7811792 88.05598877 57.06211426 89.07120605 57.3515625 90.1171875 C57.62387695 91.10170898 57.89619141 92.08623047 58.17675781 93.10058594 C59.20890184 96.73574089 60.32270178 100.34304363 61.46240234 103.94580078 C62 106 62 106 62 109 C55.07 109 48.14 109 41 109 C40.38511719 106.52886719 39.77023437 104.05773437 39.13671875 101.51171875 C38.53129704 99.08220267 37.92545781 96.65279106 37.31958008 94.22338867 C36.90312919 92.55259866 36.4871031 90.88170271 36.0715332 89.21069336 C35.46941725 86.78991189 34.86599953 84.3694607 34.26171875 81.94921875 C34.06633514 81.16610321 33.87095154 80.38298767 33.66964722 79.57614136 C32.36410935 74.37252134 30.98039162 69.19687265 29.49145508 64.04223633 C29 62 29 62 29 59 C26.03 59 23.06 59 20 59 C20 75.5 20 92 20 109 C13.4 109 6.8 109 0 109 C0 73.03 0 37.06 0 0 Z " fill="#FDFDFD" transform="translate(602,308)"/>
<path d="M0 0 C6.6 0 13.2 0 20 0 C21 1 21 1 21.12025452 2.82862854 C21.1169236 4.02442787 21.1169236 4.02442787 21.11352539 5.24438477 C21.11344986 6.14524307 21.11337433 7.04610138 21.11329651 7.97425842 C21.10813522 8.95341721 21.10297394 9.93257599 21.09765625 10.94140625 C21.0962413 11.93881332 21.09482635 12.9362204 21.09336853 13.96385193 C21.08775114 17.16343124 21.07519571 20.36294169 21.0625 23.5625 C21.05748724 25.72591045 21.05292395 27.88932199 21.04882812 30.05273438 C21.03862505 35.36853774 21.01905308 40.68419139 21 46 C27.93 46 34.86 46 42 46 C41.98839844 42.76316406 41.97679687 39.52632813 41.96484375 36.19140625 C41.95705413 33.07055764 41.95097683 29.94971009 41.94506836 26.82885742 C41.94002692 24.65307127 41.93319393 22.47728853 41.92456055 20.30151367 C41.91248662 17.18146933 41.90676995 14.06146962 41.90234375 10.94140625 C41.89718246 9.96224747 41.89202118 8.98308868 41.88670349 7.97425842 C41.88662796 7.07340012 41.88655243 6.17254181 41.88647461 5.24438477 C41.884254 4.44718521 41.88203339 3.64998566 41.87974548 2.82862854 C42 1 42 1 43 0 C49.6 0 56.2 0 63 0 C63 36.3 63 72.6 63 110 C56.07 110 49.14 110 42 110 C42 93.83 42 77.66 42 61 C35.07 61 28.14 61 21 61 C21 77.17 21 93.34 21 110 C14.07 110 7.14 110 0 110 C0 73.7 0 37.4 0 0 Z " fill="#F6F8F9" transform="translate(755,307)"/>
<path d="M0 0 C6.93 0 13.86 0 21 0 C21 15.18 21 30.36 21 46 C28.26 46 35.52 46 43 46 C43 30.82 43 15.64 43 0 C49.6 0 56.2 0 63 0 C63 36.3 63 72.6 63 110 C56.4 110 49.8 110 43 110 C43 93.5 43 77 43 60 C35.74 60 28.48 60 21 60 C21 76.5 21 93 21 110 C14.07 110 7.14 110 0 110 C0 73.7 0 37.4 0 0 Z " fill="#FAFBFC" transform="translate(995,128)"/>
<path d="M0 0 C4.62 0 9.24 0 14 0 C17.92466669 7.64164116 21.40128696 15.40336855 24.75 23.3125 C25.72386908 25.60029841 26.69783021 27.88805764 27.671875 30.17578125 C28.77015625 32.75777344 29.8684375 35.33976562 31 38 C33.97 44.93 36.94 51.86 40 59 C40.33 39.53 40.66 20.06 41 0 C46.61 0 52.22 0 58 0 C58 36.3 58 72.6 58 110 C53.38 110 48.76 110 44 110 C38.91439679 99.24689853 34.36005386 88.3260754 29.875 77.3125 C29.16562341 75.57736812 28.45598936 73.84234147 27.74609375 72.10742188 C24.46607847 64.08375728 21.21937889 56.04844724 18 48 C17.67 68.46 17.34 88.92 17 110 C11.39 110 5.78 110 0 110 C0 73.7 0 37.4 0 0 Z " fill="#FBFBFC" transform="translate(734,128)"/>
<path d="M0 0 C45.54545455 0 45.54545455 0 54 7.75 C58.76607138 15.494866 60.70664666 21.8066359 60.5625 30.9375 C60.5471521 32.39446289 60.5471521 32.39446289 60.53149414 33.88085938 C60.26146873 42.95616091 58.32867025 49.08573855 51.6875 55.4375 C42.67840327 63.03963452 32.32830973 61 21 61 C21 77.17 21 93.34 21 110 C14.07 110 7.14 110 0 110 C0 73.7 0 37.4 0 0 Z " fill="#F8FAFA" transform="translate(1105,128)"/>
<path d="M0 0 C42.33333333 0 42.33333333 0 51.8125 5.6875 C60.28108726 14.64000654 60.45514548 24.40243357 60.26953125 36.05078125 C59.96885622 43.9616451 58.03469535 49.38662786 52.3125 54.9375 C42.35708144 62.62620213 34.41973984 61 21 61 C21 77.17 21 93.34 21 110 C14.07 110 7.14 110 0 110 C0 73.7 0 37.4 0 0 Z " fill="#F8FAFA" transform="translate(478,128)"/>
<path d="M0 0 C5.67478336 4.59387224 7.69939709 9.26887246 9.625 16.125 C9.81578125 16.73730469 10.0065625 17.34960938 10.203125 17.98046875 C11.17086712 22.89982452 10.67478565 28.1464348 10.625 33.125 C4.025 33.125 -2.575 33.125 -9.375 33.125 C-9.75 25.9375 -9.75 25.9375 -9.85302734 23.70239258 C-10.08558919 19.8061924 -10.59857407 16.61278131 -12.375 13.125 C-15.73263921 10.51350284 -19.26680455 10.83155747 -23.375 11.125 C-25.69249122 11.53369252 -25.69249122 11.53369252 -27.375 13.125 C-31.16823193 19.700325 -30.80963966 26.17689319 -30.7734375 33.6171875 C-30.77630768 34.9177005 -30.77917786 36.2182135 -30.78213501 37.55813599 C-30.78654113 40.30335252 -30.78018528 43.04827489 -30.76611328 45.79345703 C-30.74905583 49.28901656 -30.75885087 52.78388311 -30.77683067 56.27941704 C-30.7903668 59.64206057 -30.78084786 63.00452437 -30.7734375 66.3671875 C-30.77951019 67.61120331 -30.78558289 68.85521912 -30.7918396 70.13693237 C-30.79282523 81.53869506 -30.79282523 81.53869506 -25.375 91.125 C-20.58299959 91.77914609 -15.92655211 92.14675383 -11.8125 89.4375 C-8.31360243 83.80883869 -7.98204109 78.79514789 -7.75 72.3125 C-7.71132813 71.42884766 -7.67265625 70.54519531 -7.6328125 69.63476562 C-7.53899216 67.46517028 -7.45592674 65.29511453 -7.375 63.125 C-11.335 63.125 -15.295 63.125 -19.375 63.125 C-19.375 59.165 -19.375 55.205 -19.375 51.125 C-9.475 51.125 0.425 51.125 10.625 51.125 C10.625 69.275 10.625 87.425 10.625 106.125 C6.335 106.125 2.045 106.125 -2.375 106.125 C-3.035 103.485 -3.695 100.845 -4.375 98.125 C-4.73851562 98.59550781 -5.10203125 99.06601562 -5.4765625 99.55078125 C-9.50684209 104.54212751 -12.6182037 107.72266572 -19.29296875 108.4375 C-27.59536389 108.74896148 -34.86733974 107.8871626 -41.40625 102.4296875 C-51.21926015 92.15929128 -51.53034747 79.69994456 -51.54296875 66.2890625 C-51.54629715 65.05513763 -51.54962555 63.82121277 -51.55305481 62.54989624 C-51.55810565 59.94602835 -51.56046371 57.34215403 -51.56030273 54.73828125 C-51.56248858 50.77072412 -51.58066258 46.80344548 -51.59960938 42.8359375 C-51.60254386 40.29948011 -51.60452829 37.76302141 -51.60546875 35.2265625 C-51.61265427 34.04816803 -51.61983978 32.86977356 -51.62724304 31.65567017 C-51.59715318 20.72236296 -50.239119 10.83729581 -42.80859375 2.33203125 C-31.40893728 -8.37994293 -12.98234819 -7.21241566 0 0 Z " fill="#FCFCFD" transform="translate(962.375,310.875)"/>
<path d="M0 0 C6.93 0 13.86 0 21 0 C24.91409023 17.46469441 28.63261965 34.94554373 31.9979248 52.5244751 C34.4092003 65.11071025 37.00572632 77.64315025 39.73828125 90.1640625 C40.5594354 93.94818871 41.37893329 97.73247134 42.16796875 101.5234375 C42.41003052 102.67851807 42.41003052 102.67851807 42.65698242 103.85693359 C43 106 43 106 43 110 C36.73 110 30.46 110 24 110 C23.32736907 106.77197209 22.6617023 103.54276967 22 100.3125 C21.80921875 99.40048828 21.6184375 98.48847656 21.421875 97.54882812 C21.24140625 96.66259766 21.0609375 95.77636719 20.875 94.86328125 C20.62363281 93.64572144 20.62363281 93.64572144 20.3671875 92.40356445 C20 90 20 90 20 85 C13.73 85 7.46 85 1 85 C0.42574357 90.23371424 0.42574357 90.23371424 -0.13623047 95.46875 C-0.21244629 96.1390625 -0.28866211 96.809375 -0.3671875 97.5 C-0.44050293 98.1703125 -0.51381836 98.840625 -0.58935547 99.53125 C-1.17691967 103.0636217 -2.13150294 106.52601175 -3 110 C-9.27 110 -15.54 110 -22 110 C-21.43331565 103.49996578 -20.57315643 97.25224647 -19.1796875 90.8828125 C-18.91060074 89.61854431 -18.91060074 89.61854431 -18.63607788 88.32873535 C-18.25230207 86.52689404 -17.86627272 84.72553143 -17.47814941 82.92462158 C-16.4450515 78.12932022 -15.42894305 73.33043515 -14.4140625 68.53125 C-14.20865845 67.56087799 -14.00325439 66.59050598 -13.79162598 65.59072876 C-11.83236109 56.28986066 -10.02834232 46.96183295 -8.25 37.625 C-5.83910534 24.98942867 -3.12075958 12.48303831 0 0 Z " fill="#FBFCFC" transform="translate(557,128)"/>
<path d="M0 0 C7.26 0 14.52 0 22 0 C27.08065599 23.5938713 32.12493386 47.18407364 36.65087891 70.89135742 C38.47493918 80.4270719 40.43327595 89.925376 42.5793457 99.39453125 C42.76843506 100.235 42.95752441 101.07546875 43.15234375 101.94140625 C43.31726318 102.66013916 43.48218262 103.37887207 43.65209961 104.11938477 C44 106 44 106 44 109 C37.73 109 31.46 109 25 109 C24.32736907 105.77197209 23.6617023 102.54276967 23 99.3125 C22.80921875 98.40048828 22.6184375 97.48847656 22.421875 96.54882812 C22.24140625 95.66259766 22.0609375 94.77636719 21.875 93.86328125 C21.62363281 92.64572144 21.62363281 92.64572144 21.3671875 91.40356445 C21 89 21 89 21 84 C14.73 84 8.46 84 2 84 C1.42673566 88.85963201 1.42673566 88.85963201 0.86376953 93.72045898 C0.22619905 98.96727315 -0.83923008 103.77653537 -2 109 C-8.27 109 -14.54 109 -21 109 C-20.34004516 100.50888725 -18.77574742 92.31548576 -17.05078125 83.984375 C-16.75224783 82.52363173 -16.45417781 81.06279368 -16.15653992 79.60186768 C-15.37244717 75.75908734 -14.5825287 71.91752854 -13.79119873 68.07623291 C-13.00932637 64.27673002 -12.23222313 60.4762534 -11.45507812 56.67578125 C-11.14738 55.17126248 -10.83967128 53.66674587 -10.5319519 52.16223145 C-10.30429956 51.04915367 -10.30429956 51.04915367 -10.07204819 49.91358948 C-9.61498452 47.68019785 -9.15719906 45.44695521 -8.69924927 43.21374512 C-5.74900905 28.81920019 -2.86675985 14.4113868 0 0 Z " fill="#FCFDFD" transform="translate(1072,308)"/>
<path d="M0 0 C5.64262194 5.89910476 8.93309428 12.42458914 8.8125 20.625 C8.80347656 21.42421875 8.79445313 22.2234375 8.78515625 23.046875 C8.77355469 23.65015625 8.76195312 24.2534375 8.75 24.875 C6.66798472 25.38046036 4.58432933 25.87916835 2.5 26.375 C0.75976562 26.79265625 0.75976562 26.79265625 -1.015625 27.21875 C-4.25 27.875 -4.25 27.875 -8.25 27.875 C-8.37117188 27.12734375 -8.49234375 26.3796875 -8.6171875 25.609375 C-8.86855469 24.13210938 -8.86855469 24.13210938 -9.125 22.625 C-9.28742188 21.65046875 -9.44984375 20.6759375 -9.6171875 19.671875 C-10.20454738 17.07588938 -10.85368285 15.12979362 -12.25 12.875 C-14.57686453 11.71156773 -16.09721413 11.67604012 -18.6875 11.625 C-19.46996094 11.59921875 -20.25242187 11.5734375 -21.05859375 11.546875 C-23.293638 11.72062176 -23.293638 11.72062176 -25.0078125 13.0625 C-26.68151151 15.50462685 -26.68338544 17.1789744 -26.6875 20.125 C-26.70683594 21.03765625 -26.72617188 21.9503125 -26.74609375 22.890625 C-25.61939099 29.6685849 -21.53510479 34.02243164 -16.5 38.375 C-15.96922852 38.84856934 -15.43845703 39.32213867 -14.89160156 39.81005859 C-12.60730693 41.84154318 -10.29480623 43.83679195 -7.96875 45.8203125 C1.97331915 54.3026334 10.36472613 63.39442445 11.75 76.875 C12.05373377 85.82952146 10.72015195 92.98252812 4.75 99.875 C-2.74903381 106.42134349 -10.43921312 108.34569421 -20.26171875 108.11328125 C-28.19628126 107.48059065 -33.51728725 104.6597253 -39.30078125 99.19921875 C-42.41005501 95.49176807 -43.93238293 91.48665973 -45.25 86.875 C-45.44464844 86.215 -45.63929687 85.555 -45.83984375 84.875 C-46.31106391 82.57724075 -46.34696321 80.46849812 -46.3125 78.125 C-46.30347656 77.32578125 -46.29445313 76.5265625 -46.28515625 75.703125 C-46.27355469 75.09984375 -46.26195312 74.4965625 -46.25 73.875 C-44.35614563 73.36755577 -42.45981334 72.86935426 -40.5625 72.375 C-39.50675781 72.0965625 -38.45101563 71.818125 -37.36328125 71.53125 C-34.53857328 70.9358285 -32.12163292 70.74713508 -29.25 70.875 C-29.09144531 71.81601562 -28.93289063 72.75703125 -28.76953125 73.7265625 C-27.21664509 83.51623439 -27.21664509 83.51623439 -21.25 90.875 C-17.04518375 91.46514965 -13.79684004 91.33050465 -10.25 88.875 C-8.03644714 84.44789428 -8.69168333 78.53198917 -9.6875 73.79296875 C-13.47194731 64.43040378 -24.50505316 57.21833797 -32.1875 51.125 C-39.5485665 45.17828689 -45.22907992 38.31749088 -46.55224609 28.67163086 C-46.68589945 26.39828171 -46.70887067 24.15194759 -46.6875 21.875 C-46.70748047 21.11960937 -46.72746094 20.36421875 -46.74804688 19.5859375 C-46.74239796 13.01059905 -44.84451783 7.89009035 -40.5390625 2.88671875 C-28.52132053 -6.67669563 -13.2472513 -8.66166431 0 0 Z " fill="#FBFBFC" transform="translate(1219.25,311.125)"/>
<path d="M0 0 C8.41738952 -0.39877518 14.60987466 1.28702719 21.0859375 6.8046875 C27.33176505 13.38812736 28.54450254 21.48885701 29.23828125 30.23046875 C27.17746764 30.73737459 25.11454599 31.23571494 23.05078125 31.73046875 C21.32794922 32.148125 21.32794922 32.148125 19.5703125 32.57421875 C16.67009296 33.1454226 14.1773174 33.36330654 11.23828125 33.23046875 C11.2125 32.57820313 11.18671875 31.9259375 11.16015625 31.25390625 C10.77797155 25.36478752 10.07807565 21.76840759 6.23828125 17.23046875 C3.34966416 15.7861602 1.44180424 15.85358369 -1.76171875 16.23046875 C-4.75142814 18.2452729 -6.46827432 19.7244898 -7.17578125 23.35546875 C-7.40649143 29.56366997 -5.74825594 33.89925253 -1.66796875 38.6875 C2.70968928 42.97277239 7.13687297 47.03094752 11.92578125 50.85546875 C21.28845795 58.41154446 27.39007144 66.68583932 31.23828125 78.23046875 C32.28480584 88.17907591 31.14118992 96.00141386 25.23828125 104.23046875 C19.41460645 110.16969265 12.93701818 112.47531882 4.703125 112.6015625 C3.54490234 112.60349609 3.54490234 112.60349609 2.36328125 112.60546875 C1.59886719 112.62996094 0.83445312 112.65445313 0.046875 112.6796875 C-6.97245341 112.7154396 -11.62047948 110.2028748 -17.44921875 106.54296875 C-24.00242006 99.98976744 -26.70092512 91.56925517 -26.8046875 82.45703125 C-26.79050781 81.39226562 -26.77632812 80.3275 -26.76171875 79.23046875 C-24.32539985 78.55920746 -21.88782992 77.89330521 -19.44921875 77.23046875 C-18.75892578 77.0396875 -18.06863281 76.84890625 -17.35742188 76.65234375 C-14.40383926 75.85330691 -11.83612656 75.23046875 -8.76171875 75.23046875 C-8.7359375 75.93171875 -8.71015625 76.63296875 -8.68359375 77.35546875 C-8.30758251 83.64511129 -7.54016285 89.03185084 -3.76171875 94.23046875 C-0.04113515 96.71085782 1.83624696 96.69384078 6.23828125 96.23046875 C8.99380685 94.13430106 10.09638519 92.91548422 10.8046875 89.49609375 C10.79216495 79.82868706 8.15760727 75.14700568 1.61328125 68.29296875 C-2.43029297 64.39462688 -6.78507622 60.91333304 -11.1484375 57.3828125 C-18.72831535 51.13989368 -25.28736727 44.32977639 -26.76171875 34.23046875 C-27.50446265 24.94617006 -27.49069284 17.00443096 -21.76171875 9.23046875 C-15.71999414 2.54083801 -8.65839263 0.72255327 0 0 Z " fill="#FBFBFC" transform="translate(955.76171875,126.76953125)"/>
<path d="M0 0 C5.99084426 4.66159684 9.14599284 11.61009015 10.53515625 18.97265625 C10.60919303 21.30481469 10.63031511 23.64126413 10.53515625 25.97265625 C4.88715513 27.81439575 -0.54992103 28.52040864 -6.46484375 28.97265625 C-6.66980469 28.06902344 -6.87476563 27.16539062 -7.0859375 26.234375 C-7.35535156 25.05488281 -7.62476563 23.87539062 -7.90234375 22.66015625 C-8.16917969 21.48839844 -8.43601562 20.31664062 -8.7109375 19.109375 C-9.41798344 15.97028654 -9.41798344 15.97028654 -10.46484375 12.97265625 C-16.57445825 11.81096657 -16.57445825 11.81096657 -22.46484375 13.28515625 C-24.65136262 15.13003154 -25.35236959 16.06733148 -25.703125 18.890625 C-25.91790931 25.45850315 -24.29292548 29.68347423 -20.02734375 34.64453125 C-16.59709107 38.23969992 -12.82391043 41.34940612 -8.96484375 44.47265625 C0.56108289 52.20271148 9.3008642 60.69150011 12.53515625 72.97265625 C13.47669842 82.44754381 13.50928914 91.07514398 7.53515625 98.97265625 C1.44134096 106.22457218 -5.70804241 108.34464156 -14.90234375 109.34765625 C-23.86318846 108.40440944 -30.96774256 106.82677466 -37.5546875 100.359375 C-43.60724496 92.79677253 -45.65124655 84.47919901 -45.46484375 74.97265625 C-39.50688896 72.98667132 -33.7159181 72.40220566 -27.46484375 71.97265625 C-27.27148438 72.936875 -27.078125 73.90109375 -26.87890625 74.89453125 C-26.61851563 76.1578125 -26.358125 77.42109375 -26.08984375 78.72265625 C-25.83460937 79.975625 -25.579375 81.22859375 -25.31640625 82.51953125 C-24.61794016 85.3518433 -24.02438432 87.53367551 -22.46484375 89.97265625 C-18.80753934 92.00449203 -15.60890327 92.4230975 -11.46484375 91.97265625 C-8.90534829 90.1192285 -8.48565577 89.03509232 -7.46484375 85.97265625 C-6.92986411 79.65989645 -7.80957165 75.21990932 -11.46484375 69.97265625 C-15.22803349 66.00408115 -19.26712383 62.31424651 -23.27734375 58.59765625 C-23.89536865 58.02184814 -24.51339355 57.44604004 -25.15014648 56.8527832 C-28.37346827 53.86111785 -31.63631703 50.96228329 -35.02734375 48.16015625 C-41.51827592 42.53097525 -44.98755836 35.56790964 -45.71875 26.99609375 C-46.0409403 18.12027059 -44.31668924 11.72573207 -39.77734375 4.16015625 C-28.99858122 -6.03597047 -12.72010547 -7.24172896 0 0 Z " fill="#FBFCFC" transform="translate(1215.46484375,131.02734375)"/>
<path d="M0 0 C15.18 0 30.36 0 46 0 C46 4.95 46 9.9 46 15 C37.42 15 28.84 15 20 15 C20 25.23 20 35.46 20 46 C26.93 46 33.86 46 41 46 C41 50.62 41 55.24 41 60 C34.07 60 27.14 60 20 60 C20 71.88 20 83.76 20 96 C28.58 96 37.16 96 46 96 C46 100.62 46 105.24 46 110 C30.82 110 15.64 110 0 110 C0 73.7 0 37.4 0 0 Z " fill="#FCFCFD" transform="translate(830,307)"/>
<path d="M0 0 C15.18 0 30.36 0 46 0 C46 4.95 46 9.9 46 15 C37.42 15 28.84 15 20 15 C20 25.23 20 35.46 20 46 C26.6 46 33.2 46 40 46 C40 50.62 40 55.24 40 60 C33.4 60 26.8 60 20 60 C20 71.88 20 83.76 20 96 C28.58 96 37.16 96 46 96 C46 100.62 46 105.24 46 110 C30.82 110 15.64 110 0 110 C0 73.7 0 37.4 0 0 Z " fill="#FBFCFC" transform="translate(805,128)"/>
<path d="M0 0 C15.18 0 30.36 0 46 0 C46 4.29 46 8.58 46 13 C37.75 13 29.5 13 21 13 C21 23.56 21 34.12 21 45 C27.6 45 34.2 45 41 45 C41 49.95 41 54.9 41 60 C34.4 60 27.8 60 21 60 C21 76.17 21 92.34 21 109 C14.07 109 7.14 109 0 109 C0 73.03 0 37.06 0 0 Z " fill="#F7F8FA" transform="translate(478,308)"/>
<path d="M0 0 C18.48 0 36.96 0 56 0 C56 4.95 56 9.9 56 15 C50.39 15 44.78 15 39 15 C39 46.35 39 77.7 39 110 C32.07 110 25.14 110 18 110 C18 78.65 18 47.3 18 15 C12.06 15 6.12 15 0 15 C0 10.05 0 5.1 0 0 Z " fill="#F7F9FA" transform="translate(672,128)"/>
<path d="M0 0 C18.81 0 37.62 0 57 0 C57 4.62 57 9.24 57 14 C51.06 14 45.12 14 39 14 C39 45.35 39 76.7 39 109 C32.4 109 25.8 109 19 109 C19 77.65 19 46.3 19 14 C12.73 14 6.46 14 0 14 C0 9.38 0 4.76 0 0 Z " fill="#FCFCFD" transform="translate(694,308)"/>
<path d="M0 0 C6.6 0 13.2 0 20 0 C20 31.68 20 63.36 20 96 C28.58 96 37.16 96 46 96 C46 100.62 46 105.24 46 110 C30.49 110 14.98 110 -1 110 C-1.02254812 95.80543617 -1.0409134 81.61088414 -1.05181217 67.4163065 C-1.05704172 60.82595215 -1.06414067 54.23561063 -1.07543945 47.64526367 C-1.08626578 41.29107982 -1.09227629 34.93690835 -1.09487724 28.58271599 C-1.09673195 26.15250389 -1.10035343 23.72229251 -1.10573006 21.29208565 C-1.11293711 17.90117019 -1.11399108 14.51030659 -1.11352539 11.11938477 C-1.11712067 10.10374954 -1.12071594 9.08811432 -1.12442017 8.04170227 C-1.1230455 7.12318481 -1.12167084 6.20466736 -1.12025452 5.25831604 C-1.12117631 4.45543435 -1.1220981 3.65255266 -1.12304783 2.82534122 C-1 1 -1 1 0 0 Z " fill="#F6F8F9" transform="translate(1123,307)"/>
<path d="M0 0 C6.6 0 13.2 0 20 0 C20 36.3 20 72.6 20 110 C13.4 110 6.8 110 0 110 C0 73.7 0 37.4 0 0 Z " fill="#FEFEFE" transform="translate(1072,128)"/>
<path d="M0 0 C3.55997986 2.16694426 5.48915066 4.1496634 7 8 C7.26069641 10.90156555 7.26069641 10.90156555 7.2746582 14.30981445 C7.28895622 16.22749382 7.28895622 16.22749382 7.30354309 18.18391418 C7.3032816 19.57703682 7.30234423 20.97015947 7.30078125 22.36328125 C7.30467074 23.79811222 7.30900593 25.23294204 7.31376648 26.66777039 C7.32122335 29.67462902 7.32094205 32.68137024 7.31567383 35.68823242 C7.30989048 39.52817169 7.32678479 43.36762684 7.3500185 47.20748615 C7.36480515 50.17161334 7.36562069 53.1356254 7.36250877 56.09978294 C7.36301986 57.51467024 7.36821755 58.92956435 7.37832069 60.34441566 C7.46499684 74.18437453 7.46499684 74.18437453 4 80 C1.62173894 82.23836335 0.07882906 82.95561168 -3.18359375 83.08984375 C-7.03228353 82.84337593 -9.37415901 82.46938074 -12.5 80.125 C-15.19978435 76.3003055 -15.1349057 73.05317559 -15.16113281 68.49658203 C-15.16609772 67.84093262 -15.17106262 67.1852832 -15.17617798 66.50976562 C-15.19077353 64.34243721 -15.19759706 62.17518197 -15.203125 60.0078125 C-15.20887842 58.49950153 -15.21463613 56.99119058 -15.22039795 55.48287964 C-15.23090039 52.32045145 -15.23674806 49.15804864 -15.24023438 45.99560547 C-15.24571881 41.94809551 -15.26974863 37.90092199 -15.29820633 33.85351753 C-15.31685148 30.73765083 -15.32203929 27.62186489 -15.32357025 24.50594711 C-15.32659288 23.01403844 -15.33460828 21.52213106 -15.34775543 20.03027725 C-15.36485658 17.94066171 -15.36292641 15.85186462 -15.35644531 13.76220703 C-15.36009094 12.57434601 -15.36373657 11.38648499 -15.36749268 10.16262817 C-14.96232205 6.67574499 -14.06032188 4.81017611 -12 2 C-8.5392985 -0.69165672 -4.20123088 -0.68489251 0 0 Z " fill="#1A496B" transform="translate(564,321)"/>
<path d="M0 0 C2.94722946 1.59720822 5.4574138 3.51977883 6.64909363 6.77078247 C7.10576065 9.67187011 7.15175696 12.47989321 7.17700195 15.41748047 C7.18983719 16.71918182 7.20267242 18.02088318 7.21589661 19.36203003 C7.2240638 20.78041197 7.23150757 22.19879822 7.23828125 23.6171875 C7.24235678 24.33417942 7.2464323 25.05117134 7.25063133 25.78989029 C7.27145342 29.58339394 7.285773 33.37686181 7.29516602 37.17041016 C7.30623593 41.08001855 7.34065281 44.98905867 7.38033772 48.89846611 C7.40652417 51.91314731 7.41485949 54.92769326 7.41844749 57.94247818 C7.42330651 59.3833412 7.43490107 60.82419845 7.45348549 62.2649498 C7.47792042 64.28440301 7.47448786 66.30413449 7.4699707 68.32373047 C7.47877007 70.0443721 7.47877007 70.0443721 7.48774719 71.79977417 C6.88920715 75.72693833 5.44832692 77.90956642 3 81 C-0.94997461 82.9749873 -5.70449185 82.57188718 -10 82 C-13.1600124 79.29141795 -14.23866951 76.99298612 -15 73 C-15.10175731 70.88791667 -15.14836455 68.77294189 -15.16113281 66.65844727 C-15.17074036 65.37353897 -15.1803479 64.08863068 -15.19024658 62.76478577 C-15.19509412 61.36532774 -15.19937306 59.96586764 -15.203125 58.56640625 C-15.20888053 57.12678527 -15.21463821 55.6871643 -15.22039795 54.24754333 C-15.23088906 51.2323267 -15.23674445 48.2171366 -15.24023438 45.2019043 C-15.24572321 41.34386566 -15.26976713 37.4861792 -15.29820633 33.62825108 C-15.31685317 30.65564454 -15.32203933 27.68312264 -15.32357025 24.71046257 C-15.32659137 23.28833015 -15.33460169 21.86619902 -15.34775543 20.44412422 C-15.36486103 18.45313661 -15.36108435 16.46200295 -15.35644531 14.47094727 C-15.36009094 13.33939713 -15.36373657 12.20784698 -15.36749268 11.04200745 C-14.85846832 6.82843809 -13.16534926 4.25167143 -10.3125 1.1875 C-6.88611768 -0.57199362 -3.71017632 -0.76909605 0 0 Z " fill="#1A486A" transform="translate(1018,321)"/>
<path d="M0 0 C14.07407407 0 14.07407407 0 19 4 C21.60596266 7.59384394 21.33207032 11.60866993 21.3125 15.875 C21.32861328 16.56980469 21.34472656 17.26460937 21.36132812 17.98046875 C21.36580345 22.73325931 20.55943171 25.99601784 18 30 C11.68857469 33.94464082 8.13712741 33 0 33 C0 22.11 0 11.22 0 0 Z " fill="#214F6F" transform="translate(879,142)"/>
<path d="M0 0 C11.75 0 11.75 0 17 3 C21.64973408 7.95971635 21.27631383 13.35548365 21.21875 19.82421875 C20.88451203 24.67663785 19.57936706 27.5686986 16 30.8125 C10.42399863 34.12325082 7.5189002 33 0 33 C0 22.11 0 11.22 0 0 Z " fill="#1D4B6D" transform="translate(628,142)"/>
<path d="M0 0 C13 0 13 0 16.6875 1.6875 C20.61295902 5.61295902 21.29130248 9.43430315 21.3125 14.875 C21.1738717 21.51284899 20.40015276 25.59984724 15.5625 30.4375 C12 32 12 32 0 32 C0 21.44 0 10.88 0 0 Z " fill="#1A496B" transform="translate(622,322)"/>
<path d="M0 0 C14 0 14 0 19 4 C20.74487162 7.48974324 20.31176616 11.40423297 20.375 15.25 C20.41238281 16.09691406 20.44976563 16.94382813 20.48828125 17.81640625 C20.54871151 22.13381263 20.41518553 25.09197631 17.6640625 28.546875 C11.94466166 33.81342005 9.02161596 32 0 32 C0 21.44 0 10.88 0 0 Z " fill="#1B496B" transform="translate(1126,143)"/>
<path d="M0 0 C13 0 13 0 18 3 C20.69799198 7.04698797 20.33137116 10.12701565 20.3125 14.875 C20.32861328 15.67808594 20.34472656 16.48117188 20.36132812 17.30859375 C20.36521889 22.03198047 20.06655554 25.17229464 17 29 C11.19223871 33.21062694 8.02500529 32 0 32 C0 21.44 0 10.88 0 0 Z " fill="#1A496B" transform="translate(499,143)"/>
<path d="M0 0 C0.33 0 0.66 0 1 0 C2.73832588 8.82724347 4.32082261 17.6695889 5.6875 26.5625 C5.81874268 27.39426758 5.94998535 28.22603516 6.08520508 29.08300781 C6.26539185 30.28135254 6.26539185 30.28135254 6.44921875 31.50390625 C6.55580811 32.20330322 6.66239746 32.9027002 6.7722168 33.62329102 C7.07049226 36.73552212 7 39.87350824 7 43 C2.38 43 -2.24 43 -7 43 C-5.71080233 33.76075004 -4.34036325 24.53512089 -2.9375 15.3125 C-2.7631543 14.15379395 -2.58880859 12.99508789 -2.40917969 11.80126953 C-2.24192383 10.7079834 -2.07466797 9.61469727 -1.90234375 8.48828125 C-1.67792603 7.01161987 -1.67792603 7.01161987 -1.44897461 5.50512695 C-1 3 -1 3 0 0 Z " fill="#255272" transform="translate(1083,336)"/>
<path d="M0 0 C3.08001095 5.40187794 3.56255572 11.64330391 4.625 17.6875 C4.85445312 18.92951172 5.08390625 20.17152344 5.3203125 21.45117188 C6.49938708 28.07293892 7.27686298 34.275144 7 41 C2.71 41 -1.58 41 -6 41 C-6.10712453 36.07780558 -5.7349497 31.49694725 -4.94140625 26.640625 C-4.8327977 25.96956726 -4.72418915 25.29850952 -4.61228943 24.6071167 C-4.38370294 23.20168082 -4.15247468 21.79667225 -3.91870117 20.39208984 C-3.56130845 18.24283436 -3.21261862 16.09229981 -2.86523438 13.94140625 C-1.15103114 3.45309341 -1.15103114 3.45309341 0 0 Z " fill="#245071" transform="translate(567,158)"/>
</svg>
