<?xml version="1.0" encoding="UTF-8"?>
<svg version="1.1" xmlns="http://www.w3.org/2000/svg" width="1500" height="1500">
<path d="M0 0 C495 0 990 0 1500 0 C1500 495 1500 990 1500 1500 C1005 1500 510 1500 0 1500 C0 1005 0 510 0 0 Z " fill="#BF8B2E" transform="translate(0,0)"/>
<path d="M0 0 C0.67417969 0.26071289 1.34835937 0.52142578 2.04296875 0.79003906 C19.56886157 7.66783295 36.14821899 17.4602753 51 29 C51.62680664 29.48549316 52.25361328 29.97098633 52.89941406 30.47119141 C63.11061521 38.44256483 72.69199172 46.99640802 82 56 C82.49790039 56.48130371 82.99580078 56.96260742 83.50878906 57.45849609 C88.95398354 62.75043805 94.07579655 68.2254321 99 74 C100.27230469 75.43859375 100.27230469 75.43859375 101.5703125 76.90625 C140.89054796 121.58955615 169.55295961 174.81571677 196.34375 227.5859375 C206.53937265 247.56984976 217.85208883 266.80555654 231 285 C231.73863281 286.02262939 231.73863281 286.02262939 232.4921875 287.06591797 C238.59169203 295.45854207 244.9257323 303.39863 252 311 C253.06638287 312.24668915 254.12897991 313.49662796 255.1875 314.75 C283.7414623 347.41149284 322.75436204 370.82711642 364.1875 383.125 C364.98833008 383.36718262 365.78916016 383.60936523 366.61425781 383.85888672 C380.80780884 387.9121999 394.99040973 389.50766166 409.71435547 389.39111328 C412.13175406 389.37495485 414.54749335 389.39112199 416.96484375 389.41015625 C452.664908 389.45723575 487.26624918 374.9168889 512.9296875 350.1796875 C534.59062547 328.32373144 546.24624534 298.75744666 552 269 C552.16516113 268.16662109 552.33032227 267.33324219 552.50048828 266.47460938 C557.92560359 237.50325937 557.58532943 203.911221 552 175 C551.86609863 174.2579834 551.73219727 173.5159668 551.59423828 172.75146484 C544.82303902 136.15415878 525.08126139 101.99904081 494.2109375 80.69921875 C481.66600943 72.44565871 468.1614449 66.04579491 453.84033203 61.58349609 C452.18207192 61.05772776 450.54075191 60.47923429 448.90234375 59.89453125 C407.76894017 45.74984306 363.55816312 50.25187036 324.83203125 68.90917969 C321.52136742 70.54432463 318.25659955 72.26016081 315 74 C313.97390625 74.54269531 312.9478125 75.08539062 311.890625 75.64453125 C302.98653893 80.58990878 294.98801809 86.71770328 287 93 C286.17894775 93.64098633 286.17894775 93.64098633 285.34130859 94.29492188 C270.42003208 106.05877911 256.59891478 119.96594044 245 135 C243.94788922 136.29093137 242.89153179 137.57840791 241.83203125 138.86328125 C240.67956845 140.26292282 239.52722635 141.66266378 238.375 143.0625 C237.52989868 144.08887573 237.52989868 144.08887573 236.66772461 145.13598633 C233.56722498 148.94208214 230.76362066 152.78939816 228.125 156.9375 C225.81594142 160.34939253 225.33392396 160.88312661 221.25 162.3125 C218 162 218 162 216.49169922 160.81958008 C214.62344192 158.5406731 213.29030872 156.16475641 211.8828125 153.57421875 C211.28186768 152.47754883 210.68092285 151.38087891 210.06176758 150.25097656 C209.58799179 149.37898621 209.58799179 149.37898621 209.10464478 148.48937988 C207.44280426 145.43272398 205.76332667 142.38583172 204.08203125 139.33984375 C203.74171371 138.72303741 203.40139618 138.10623108 203.05076599 137.47073364 C198.76629949 129.73323739 194.24164019 122.13958893 189.70703125 114.546875 C189.2476416 113.76634766 188.78825195 112.98582031 188.31494141 112.18164062 C187.47223557 110.7834937 186.59659437 109.40437555 185.68115234 108.05273438 C183.76954346 105.13144481 182.93374543 103.52320617 183.37890625 100.0078125 C185.45797485 96.15026354 188.0043982 93.11123536 190.9375 89.875 C191.51798096 89.22047852 192.09846191 88.56595703 192.6965332 87.89160156 C194.45343312 85.91757828 196.2237908 83.9566527 198 82 C198.50337891 81.4440918 199.00675781 80.88818359 199.52539062 80.31542969 C201.79564065 77.81380671 204.07972347 75.32642145 206.375 72.84765625 C208.14063172 70.93226113 209.89046902 69.00219766 211.625 67.05859375 C215.79703205 62.3841371 219.9579822 57.95846072 224.7578125 53.9296875 C227.0798076 51.93131541 229.30134296 49.85122235 231.52807617 47.74829102 C273.97013956 7.82889845 333.4873471 -18.63090353 392.125 -18.25 C393.35039993 -18.2463443 393.35039993 -18.2463443 394.60055542 -18.24261475 C406.50769429 -18.20089417 418.21300699 -17.81046187 430 -16 C430.98355469 -15.86722656 431.96710937 -15.73445312 432.98046875 -15.59765625 C436.00837825 -15.14923524 438.99591969 -14.58849865 442 -14 C442.76666992 -13.85755859 443.53333984 -13.71511719 444.32324219 -13.56835938 C501.00022753 -2.90824449 552.31471125 26.87674513 585.63037109 74.3972168 C600.59849967 96.33190768 611.49991152 121.28225863 618 147 C618.1659668 147.65194336 618.33193359 148.30388672 618.50292969 148.97558594 C620.78622994 158.09593537 622.44493469 167.24364823 623.6875 176.5625 C623.86647827 177.88882446 623.86647827 177.88882446 624.04907227 179.24194336 C629.04389197 219.17521995 628.24262685 263.19211768 617 302 C616.71060547 303.01191406 616.42121094 304.02382812 616.12304688 305.06640625 C609.29181536 328.37956184 599.44412536 352.28429603 585 372 C584.40541992 372.81694336 584.40541992 372.81694336 583.79882812 373.65039062 C578.8917007 380.3488875 573.65245567 386.68652354 568.01953125 392.79296875 C566.26095093 394.71482152 564.59180225 396.67647489 562.9375 398.6875 C559.64074752 402.55018002 555.88064865 405.73972715 552 409 C550.73929688 410.10988281 550.73929688 410.10988281 549.453125 411.2421875 C517.49868378 438.8713038 479.3531506 453.31091384 438 459 C436.7200415 459.17724609 435.44008301 459.35449219 434.12133789 459.53710938 C427.30226576 460.37682825 420.42321242 460.24464085 413.5625 460.25 C412.39891464 460.25101212 412.39891464 460.25101212 411.21182251 460.25204468 C371.78823002 460.19783363 333.28603265 450.60182058 298 433 C297.21125488 432.60844727 296.42250977 432.21689453 295.60986328 431.81347656 C271.92555298 419.94502145 249.81204119 405.63139078 230 388 C229.25951416 387.34563965 228.51902832 386.6912793 227.75610352 386.01708984 C221.63242446 380.5643925 215.73216457 374.92525895 209.9375 369.125 C209.05916504 368.24585938 208.18083008 367.36671875 207.27587891 366.4609375 C201.43139642 360.56081406 196.0832788 354.56676628 191 348 C189.42034809 346.14269596 187.83676743 344.28872867 186.25 342.4375 C175.41125977 329.43101172 165.95716245 315.34834033 157 301 C156.61924316 300.3915625 156.23848633 299.783125 155.84619141 299.15625 C145.94895919 283.24390838 137.23319759 266.64926668 128.94506836 249.85400391 C124.91656814 241.72965437 120.50906308 233.86423207 116 226 C113.38925417 221.2981228 110.81567912 216.57929362 108.34765625 211.80078125 C99.96502471 195.62664488 90.38223737 179.96757021 80 165 C79.50032715 164.27248535 79.0006543 163.5449707 78.48583984 162.79541016 C65.72408358 144.22515911 52.34842673 125.62893607 36 110 C33.60279918 107.62596054 31.22830282 105.24375188 28.921875 102.78125 C0.96919735 73.42088355 -43.04340527 53.15716074 -83.625 51.76171875 C-98.83847491 51.49718862 -113.12668887 52.8304051 -128 56 C-128.89477051 56.18723633 -129.78954102 56.37447266 -130.71142578 56.56738281 C-142.72004663 59.14304181 -153.84098634 62.8936669 -165 68 C-166.17820312 68.52207031 -167.35640625 69.04414062 -168.5703125 69.58203125 C-201.87014488 85.16999379 -223.94975619 113.17944583 -237 147 C-253.53986936 193.66092337 -254.74202416 255.41781695 -233.75 300.8125 C-227.7306157 313.26697193 -219.93557623 324.46293557 -211 335 C-210.37738281 335.75667969 -209.75476563 336.51335937 -209.11328125 337.29296875 C-185.07130208 365.62641681 -145.98632732 381.40875252 -109.75 384.8059082 C-73.54725805 387.36105556 -38.74915246 381.99111283 -8 362 C-9.0876707 358.7369879 -9.75066713 358.12160072 -12.3125 356 C-15.90735576 352.9517681 -19.41133613 349.82078063 -22.875 346.625 C-27.59918399 342.27634732 -32.35526804 337.96545353 -37.13671875 333.6796875 C-39.98529044 331.11179269 -39.98529044 331.11179269 -40.3125 328.625 C-40 326 -40 326 -38.29174805 324.43457031 C-35.85664563 322.91026417 -33.78916585 322.1659329 -31.01953125 321.421875 C-30.03380127 321.15189697 -29.04807129 320.88191895 -28.0324707 320.60375977 C-26.96988037 320.32201904 -25.90729004 320.04027832 -24.8125 319.75 C-22.53117014 319.12919965 -20.2499223 318.50809782 -17.96875 317.88671875 C-16.80472656 317.5726709 -15.64070313 317.25862305 -14.44140625 316.93505859 C-10.22988148 315.79075242 -6.03067599 314.60556079 -1.83154297 313.41674805 C9.16975692 310.30389439 20.20803583 307.34221882 31.2618103 304.42263794 C39.65259455 302.20277327 47.98255616 299.85773001 56.27514648 297.29760742 C65.38769743 294.51675544 74.60917124 292.12869282 83.82421875 289.71484375 C85.05527344 289.39128906 86.28632812 289.06773437 87.5546875 288.734375 C88.65280762 288.44788086 89.75092773 288.16138672 90.88232422 287.86621094 C93.02095805 287.27201573 95.14319911 286.61644131 97.24755859 285.91040039 C99.90134109 285.03263253 101.97027334 284.7018779 104.75 284.6875 C105.50796875 284.67074219 106.2659375 284.65398437 107.046875 284.63671875 C108.01367188 284.81654297 108.01367188 284.81654297 109 285 C112.54953711 290.32430566 110.95015181 296.1036164 109.8125 302.125 C109.5368841 303.62093256 109.26222103 305.11704085 108.98828125 306.61328125 C108.83311035 307.4532666 108.67793945 308.29325195 108.51806641 309.15869141 C107.47662874 314.87040277 106.49081976 320.59183337 105.5 326.3125 C105.29866455 327.46057129 105.0973291 328.60864258 104.88989258 329.79150391 C103.5401869 337.57356143 102.33270987 345.36845654 101.17550659 353.18104553 C99.61825807 363.64910655 97.88737531 374.08829344 96.16687012 384.53051758 C94.56235094 394.27732884 92.97487097 404.02360082 91.5390625 413.796875 C91.3169672 415.29070091 91.09480143 416.78451635 90.87255859 418.27832031 C90.46357045 421.03115231 90.07052161 423.7856451 89.68603516 426.54199219 C89.5060498 427.75532227 89.32606445 428.96865234 89.140625 430.21875 C88.99141602 431.26998047 88.84220703 432.32121094 88.68847656 433.40429688 C87.94399118 436.21116515 87.31547508 437.2922398 85 439 C82.3046875 439.62890625 82.3046875 439.62890625 79 439 C76.07851436 436.94388333 73.6330478 434.47182258 71.125 431.9375 C69.77473871 430.61195448 68.42317741 429.28773189 67.0703125 427.96484375 C66.40322266 427.30661621 65.73613281 426.64838867 65.04882812 425.97021484 C62.39070265 423.41408132 59.62741215 420.9964868 56.83056641 418.59399414 C54.37025961 416.45164377 52.00373913 414.21714985 49.640625 411.96875 C48.0609549 410.83681301 48.0609549 410.83681301 46.21484375 411.06640625 C42.96609018 412.43581031 40.19038557 414.43129073 37.3125 416.4375 C-13.20666238 450.71769661 -74.73742715 463.6625538 -135 453 C-136.20124512 452.79914795 -136.20124512 452.79914795 -137.42675781 452.59423828 C-157.7883721 449.12207379 -177.47853789 442.05759795 -196 433 C-196.7120459 432.65356445 -197.4240918 432.30712891 -198.15771484 431.95019531 C-219.78882166 421.29308476 -238.61418204 406.58484531 -256 390 C-256.70382812 389.360625 -257.40765625 388.72125 -258.1328125 388.0625 C-289.31002046 358.84202057 -308.44419163 314.47626809 -315 273 C-315.15098145 272.11779785 -315.30196289 271.2355957 -315.45751953 270.32666016 C-320.77752197 238.43534027 -320.43822866 202.84572008 -315 171 C-314.82307617 169.94570801 -314.64615234 168.89141602 -314.46386719 167.80517578 C-312.00089048 153.56117317 -308.61573539 139.69840747 -304 126 C-303.64252686 124.93579834 -303.64252686 124.93579834 -303.27783203 123.85009766 C-299.72137156 113.44922046 -295.16627632 103.69177418 -290 94 C-289.64534668 93.32936523 -289.29069336 92.65873047 -288.92529297 91.96777344 C-264.03965738 45.24143834 -220.42355586 9.90905264 -169.91699219 -5.96923828 C-162.65509323 -8.14999859 -155.34417808 -10.11746064 -148 -12 C-146.75089844 -12.32871094 -145.50179687 -12.65742187 -144.21484375 -12.99609375 C-96.22542667 -24.47311667 -45.46775894 -17.87425202 0 0 Z " fill="#FEFEFE" transform="translate(589,747)"/>
<path d="M0 0 C1.15113281 -0.01224609 2.30226563 -0.02449219 3.48828125 -0.03710938 C13.98555172 -0.05486124 23.99099692 1.02969247 33.8125 4.875 C34.48732422 5.13555176 35.16214844 5.39610352 35.85742188 5.66455078 C52.47371821 12.3324128 63.25224011 23.75203678 70.5 40 C74.91770752 51.47823787 76.28684817 62.82453957 76.1875 75.0625 C76.17614014 77.03585327 76.17614014 77.03585327 76.16455078 79.04907227 C76.00048942 88.72929125 75.0722206 97.07985474 71.75 106.1875 C71.32589844 107.404375 70.90179688 108.62125 70.46484375 109.875 C63.38937404 129.27556316 51.76363207 146.04768705 40.23150635 163.00616455 C35.65597114 169.74307605 31.10344611 176.49562511 26.54708862 183.24551392 C25.30878853 185.07972625 24.07012152 186.91369092 22.83108521 188.74740601 C9.96900697 207.78551013 -2.65855094 226.96897248 -15.25 246.1875 C26.33 246.6825 26.33 246.6825 68.75 247.1875 C68.75 261.3775 68.75 275.5675 68.75 290.1875 C20.24 290.1875 -28.27 290.1875 -78.25 290.1875 C-78.25 246.01010479 -78.25 246.01010479 -64.48242188 229.02734375 C-60.77719749 224.31396119 -57.64642844 219.24528125 -54.4375 214.1875 C-53.19955471 212.28714398 -51.95874696 210.38864904 -50.71484375 208.4921875 C-46.3066435 201.74852494 -41.93199085 194.98334148 -37.56054688 188.21582031 C-34.83118136 183.99160856 -32.09778267 179.77000481 -29.36523438 175.54785156 C-27.12246002 172.08217832 -24.88047811 168.61599957 -22.640625 165.1484375 C-21.99081665 164.14296875 -21.99081665 164.14296875 -21.32788086 163.1171875 C-20.43772281 161.73980743 -19.54791535 160.36220073 -18.65844727 158.984375 C-15.98210273 154.8444854 -13.28621437 150.71819689 -10.57421875 146.6015625 C15.61418546 108.67054817 15.61418546 108.67054817 20.21875 64.1328125 C18.43868609 57.76714919 16.08202886 52.27703941 10.1875 48.8125 C4.49078922 46.28770081 -1.59986066 46.08627152 -7.5546875 47.8828125 C-15.07368583 51.25926835 -18.36659329 56.77263836 -21.35546875 64.13671875 C-25.11971185 76.97459588 -24.68113759 88.53480212 -25.25 102.1875 C-42.74 102.1875 -60.23 102.1875 -78.25 102.1875 C-79.01512456 58.57540036 -79.01512456 58.57540036 -69.25 39.1875 C-68.79753906 38.25808594 -68.34507812 37.32867187 -67.87890625 36.37109375 C-59.51011938 20.06443315 -46.89648544 8.96265553 -29.3984375 3.2578125 C-19.57147714 0.41530331 -10.17803791 0.00562323 0 0 Z " fill="#FEFEFD" transform="translate(290.25,124.8125)"/>
<path d="M0 0 C14.52 0 29.04 0 44 0 C44 95.04 44 190.08 44 288 C25.85 288 7.7 288 -11 288 C-11 212.1 -11 136.2 -11 58 C-29.58899019 64.96429801 -29.58899019 64.96429801 -48.1484375 72.00390625 C-51 73 -51 73 -53 73 C-53 59.47 -53 45.94 -53 32 C-48.05 29.69 -43.1 27.38 -38 25 C-34.21988587 23.05730209 -30.47429003 21.10388436 -26.75 19.0625 C-25.33859741 18.28990845 -25.33859741 18.28990845 -23.89868164 17.50170898 C-14.93440838 12.52345651 -7.28746184 7.28746184 0 0 Z " fill="#FEFEFD" transform="translate(138,128)"/>
<path d="M0 0 C8.94445116 9.81708054 9.87034236 20.45314581 9.828125 33.21875 C9.83003845 34.49802368 9.8319519 35.77729736 9.83392334 37.09533691 C9.83685683 39.79163493 9.83263461 42.48779962 9.82324219 45.18408203 C9.81184859 48.6201667 9.81841765 52.05593879 9.83038712 55.49201202 C9.83939928 58.79678229 9.83306807 62.10147089 9.828125 65.40625 C9.83217346 66.63041626 9.83622192 67.85458252 9.84039307 69.11584473 C9.78206526 79.80008215 8.23869422 90.12523676 1.25 98.625 C-7.87032414 106.04851965 -16.91008866 107.57374414 -28.4375 106.8125 C-37.98689412 105.3912691 -43.72548951 101.35119405 -49.4375 93.8125 C-55.05443388 85.09656812 -54.74633747 73.89569541 -54.73828125 63.875 C-54.74256638 62.67367432 -54.7468515 61.47234863 -54.75126648 60.23461914 C-54.75697581 57.71013007 -54.75753531 55.18562457 -54.75317383 52.66113281 C-54.75000889 48.82328005 -54.77353448 44.98619557 -54.79882812 41.1484375 C-54.80110113 38.68229263 -54.80180461 36.21614571 -54.80078125 33.75 C-54.809991 32.6163501 -54.81920074 31.4827002 -54.82868958 30.31469727 C-54.76581439 19.36414742 -52.9219974 9.20932891 -45.4375 0.8125 C-33.38350924 -9.39470957 -12.62960885 -9.25528588 0 0 Z " fill="#FDFCFB" transform="translate(597.4375,312.1875)"/>
<path d="M0 0 C7.19582497 5.82519164 10.24502571 13.19405234 11.625 22.125 C11.92322951 26.56844758 11.95270231 31.00068303 11.9609375 35.453125 C11.9675943 36.71912537 11.9742511 37.98512573 11.98110962 39.28948975 C11.99119917 41.95892485 11.99679753 44.62795212 11.99560547 47.29736328 C11.99540283 50.68047951 12.02267648 54.06275055 12.05714989 57.44566727 C12.085036 60.71895249 12.08357507 63.99223741 12.0859375 67.265625 C12.10030853 68.46084778 12.11467957 69.65607056 12.12948608 70.88751221 C12.07379246 81.3070507 10.31509203 92.2116364 3.46875 100.47265625 C-4.17222638 107.32039567 -12.86130361 108.44440619 -22.69921875 108.33203125 C-31.15338007 107.85586701 -37.58193506 106.00174739 -43.72265625 100.01171875 C-51.85855276 90.72179436 -51.69857858 79.99068531 -51.7109375 68.2578125 C-51.71737786 66.8134651 -51.7241071 65.36911896 -51.73110962 63.92477417 C-51.74303428 60.90733824 -51.74679536 57.89001639 -51.74560547 54.87255859 C-51.74540237 51.03067078 -51.77271631 47.18952335 -51.80714989 43.34781075 C-51.82952616 40.36726607 -51.83343978 37.38689673 -51.83238602 34.4062767 C-51.83472541 32.99106162 -51.84345386 31.57584045 -51.85905075 30.16070938 C-51.96074393 19.98309621 -50.77299113 12.42186852 -45.25 3.8125 C-33.07903236 -7.56470888 -14.12416471 -7.84675817 0 0 Z " fill="#FEFDFC" transform="translate(1112.375,310.875)"/>
<path d="M0 0 C6.93594688 6.08183878 10.33404471 13.57249093 11.83984375 22.61328125 C11.94266975 24.53722026 11.99783841 26.46403391 12.0168457 28.390625 C12.03609856 30.09895508 12.03609856 30.09895508 12.05574036 31.84179688 C12.06312729 33.06576172 12.07051422 34.28972656 12.078125 35.55078125 C12.08619675 36.82244141 12.09426849 38.09410156 12.10258484 39.40429688 C12.11640935 42.09753033 12.12742893 44.79064215 12.13500977 47.48388672 C12.14600986 50.89845632 12.18034751 54.31236267 12.22018147 57.72669983 C12.25296934 61.02215945 12.25715459 64.31768346 12.265625 67.61328125 C12.28313309 68.82105225 12.30064117 70.02882324 12.31867981 71.27319336 C12.29189711 81.93021927 10.49713524 92.63132039 3.4765625 101.03125 C-2.68291076 106.98491747 -10.5376671 108.9948926 -18.91015625 108.92578125 C-19.61390381 108.9208667 -20.31765137 108.91595215 -21.04272461 108.91088867 C-28.83027095 108.73676053 -36.27350528 107.24666174 -42.55859375 102.40625 C-48.20202908 96.08835533 -51.26587217 87.62745918 -51.3371582 79.296875 C-51.34999344 77.99121582 -51.36282867 76.68555664 -51.37605286 75.34033203 C-51.3842249 73.91048566 -51.39166774 72.48063495 -51.3984375 71.05078125 C-51.40251303 70.32808044 -51.40658855 69.60537964 -51.41078758 68.86077881 C-51.43164608 65.02909635 -51.44594384 61.19744959 -51.45532227 57.36572266 C-51.46633424 53.43303512 -51.50067315 49.50092163 -51.54049397 45.56843567 C-51.56682297 42.52438406 -51.57502881 39.48046523 -51.57860374 36.43630981 C-51.58343467 34.98841514 -51.59494727 33.54052497 -51.61364174 32.09274292 C-51.73538748 22.03182371 -50.73338964 13.48359325 -45.41015625 4.73828125 C-34.76444557 -5.31600106 -12.60938629 -8.09463315 0 0 Z " fill="#FEFDFC" transform="translate(899.16015625,489.38671875)"/>
<path d="M0 0 C6.4507966 7.06515818 8.7286371 14.86528861 8.78613281 24.26660156 C8.79574036 25.53852356 8.8053479 26.81044556 8.81524658 28.12091064 C8.82009586 29.50248026 8.82437437 30.88405197 8.828125 32.265625 C8.83236607 33.31757175 8.83236607 33.31757175 8.83669281 34.39076996 C8.85165078 38.10345329 8.86090112 41.81609813 8.86523438 45.52880859 C8.87070814 49.34270798 8.89472242 53.15624841 8.92320633 56.97003555 C8.9419335 59.92135613 8.94704367 62.87259204 8.94857025 65.82396698 C8.95157559 67.22883817 8.95953153 68.63370864 8.97275543 70.03852081 C9.06527493 80.62420391 8.40006189 89.35777934 1.625 97.875 C-5.91908256 105.08379 -12.25236747 106.37227035 -22.3125 106.25 C-23.26318359 106.26160156 -24.21386719 106.27320313 -25.19335938 106.28515625 C-33.40152275 106.25121484 -40.27968956 104.80099626 -46.375 98.875 C-52.34960747 91.14315504 -54.46877544 82.73597488 -54.53613281 73.06005859 C-54.54574036 71.93804047 -54.5553479 70.81602234 -54.56524658 69.66000366 C-54.56949646 68.45993683 -54.57374634 67.25987 -54.578125 66.0234375 C-54.58382507 64.77301666 -54.58952515 63.52259583 -54.59539795 62.23428345 C-54.60483177 59.58990856 -54.61173661 56.94564667 -54.61523438 54.30126953 C-54.61961218 51.61102686 -54.63348266 48.92110613 -54.65625 46.23095703 C-54.68691503 42.3283528 -54.69730533 38.42614923 -54.703125 34.5234375 C-54.7154718 33.33551605 -54.7278186 32.1475946 -54.74053955 30.92367554 C-54.70578977 17.71281144 -52.39262409 8.08755809 -43.125 -1.4375 C-30.02454769 -9.47641392 -12.65323638 -7.96685253 0 0 Z " fill="#FEFDFC" transform="translate(782.375,133.125)"/>
<path d="M0 0 C0.97259766 -0.02384766 1.94519531 -0.04769531 2.94726562 -0.07226562 C10.08182249 -0.05796792 15.64083303 1.49929391 21.5625 5.5625 C31.55997217 15.8904144 31.71765571 27.94087778 31.73046875 41.49609375 C31.73546135 43.34485863 31.73546135 43.34485863 31.74055481 45.23097229 C31.74560121 47.82886382 31.74796384 50.42676178 31.74780273 53.0246582 C31.74999079 56.98334479 31.76817559 60.9417532 31.78710938 64.90039062 C31.79004351 67.43229072 31.79202817 69.96419213 31.79296875 72.49609375 C31.80015427 73.67135117 31.80733978 74.84660858 31.81474304 76.05747986 C31.78137405 88.14726851 29.88601485 97.88767877 21.3125 106.9375 C10.58122321 113.27870901 -0.79396424 114.49840389 -12.9375 111.5 C-19.29705544 109.21955335 -24.25698396 104.83735481 -27.8125 99.125 C-31.76810429 90.45309828 -31.74903168 82.27325801 -31.73828125 72.87890625 C-31.74217632 71.45458351 -31.74651264 70.03026191 -31.75126648 68.60594177 C-31.75869555 65.63138043 -31.75846143 62.65693786 -31.75317383 59.68237305 C-31.74738043 55.89206814 -31.76432279 52.1022521 -31.7875185 48.31202793 C-31.80233038 45.37356275 -31.80311753 42.43521336 -31.80000877 39.49671745 C-31.80051815 38.10022958 -31.80568282 36.70373457 -31.81582069 35.3072834 C-31.87846854 25.47341054 -31.69512224 16.38319627 -24.8125 8.75 C-23.89597656 7.68845703 -23.89597656 7.68845703 -22.9609375 6.60546875 C-15.91303724 0.89950615 -8.86284136 -0.09945103 0 0 Z " fill="#FEFDFC" transform="translate(1249.4375,485.4375)"/>
<path d="M0 0 C44.71638142 0 44.71638142 0 53 7 C61.44282243 16.28336891 61.31237749 27.93313628 61.3359375 39.8671875 C61.3425943 41.06376984 61.3492511 42.26035217 61.35610962 43.49319458 C61.36617651 46.00928219 61.3709285 48.52539618 61.37060547 51.04150391 C61.37498 54.8575499 61.41137 58.67243907 61.44921875 62.48828125 C61.45508813 64.94791277 61.45905671 67.4075497 61.4609375 69.8671875 C61.47530853 70.99051483 61.48967957 72.11384216 61.50448608 73.27120972 C61.45010301 82.85767235 59.84560175 93.87415137 53.59765625 101.57421875 C39.58772996 114.0769647 16.12759115 110 0 110 C0 73.7 0 37.4 0 0 Z " fill="#FDFDFB" transform="translate(612,487)"/>
<path d="M0 0 C44.73658537 0 44.73658537 0 53 7 C61.17296184 16.14937763 61.30811038 26.9019611 61.265625 38.65625 C61.26849518 40.43062439 61.26849518 40.43062439 61.27142334 42.24084473 C61.2727773 44.72843642 61.26913635 47.21603538 61.26074219 49.70361328 C61.25003178 53.48876982 61.2606648 57.27345179 61.2734375 61.05859375 C61.27211577 63.4869802 61.26955309 65.91536636 61.265625 68.34375 C61.26967346 69.46382446 61.27372192 70.58389893 61.27789307 71.73791504 C61.21222447 82.86381129 59.97246296 92.92254527 52.75 101.75 C37.98761247 113.82831707 17.82390975 110 0 110 C0 73.7 0 37.4 0 0 Z " fill="#FDFCFB" transform="translate(921,487)"/>
<path d="M0 0 C43.8 0 43.8 0 52 7 C59.1208128 14.22054407 59.45245611 20.81535155 59.43164062 30.46679688 C59.30463602 36.07548425 58.95504817 40.71109843 55.64453125 45.43359375 C52.73766773 48.20236399 49.72889635 49.54636244 46 51 C47.19625 51.515625 48.3925 52.03125 49.625 52.5625 C55.07783466 55.28891733 58.54814186 59.16541981 61.3125 64.5625 C64.37893954 75.43442201 64.33182681 86.90255808 59 97 C54.15704617 104.2828217 48.38446722 107.90388319 40 110 C26.8 110 13.6 110 0 110 C0 73.7 0 37.4 0 0 Z " fill="#FDFCFB" transform="translate(967,128)"/>
<path d="M0 0 C6.93 0 13.86 0 21 0 C22.00532883 4.4988465 23.00624245 8.99859027 24 13.5 C24.15317688 14.1935257 24.30635376 14.88705139 24.46417236 15.60159302 C27.663121 30.12844454 30.57754251 44.7085814 33.421875 59.30859375 C33.58676422 60.14753677 33.75165344 60.9864798 33.92153931 61.85084534 C34.23290762 63.43511367 34.54113554 65.02000336 34.84579468 66.60557556 C35.2885177 70.0966633 35.2885177 70.0966633 37 73 C37.11195709 72.45416763 37.22391418 71.90833527 37.33926392 71.34596252 C47.32166516 22.71333937 47.32166516 22.71333937 53 0 C59.6 0 66.2 0 73 0 C74.10141852 14.76271036 74.33548162 29.5137178 74.5625 44.3125 C74.58367889 45.61305328 74.60485779 46.91360657 74.62667847 48.25357056 C74.96148738 68.83758439 75.12965475 89.41370762 75 110 C69.72 110 64.44 110 59 110 C58.97494385 108.31519531 58.9498877 106.63039063 58.92407227 104.89453125 C58.83987899 99.30258289 58.75162688 93.71070823 58.66066074 88.11886597 C58.60570192 84.73145542 58.55232816 81.34403593 58.50268555 77.95654297 C58.44468869 74.05428511 58.3810796 70.15215223 58.31640625 66.25 C58.29969376 65.04448486 58.28298126 63.83896973 58.26576233 62.59692383 C58.16180087 56.65182942 57.89038631 50.88098574 57 45 C56.81937012 45.88333008 56.63874023 46.76666016 56.45263672 47.67675781 C53.22605055 63.44076127 49.98567284 79.20144708 46.625 94.9375 C46.37476074 96.1140918 46.12452148 97.29068359 45.86669922 98.50292969 C45.6348291 99.58348633 45.40295898 100.66404297 45.1640625 101.77734375 C44.86169678 103.18874634 44.86169678 103.18874634 44.55322266 104.62866211 C44 107 44 107 43 110 C39.04 110 35.08 110 31 110 C28.95072578 103.41938176 27.22254153 96.89464271 25.84375 90.14453125 C25.65534546 89.2398259 25.46694092 88.33512054 25.27282715 87.40299988 C24.67776841 84.54033525 24.08883166 81.67645119 23.5 78.8125 C23.10586022 76.91333017 22.71133168 75.01424098 22.31640625 73.11523438 C20.16535799 62.75253242 18.0564202 52.38189784 16 42 C15.13956245 57.08035578 14.71685798 72.14870561 14.4375 87.25 C14.39415719 89.47135959 14.35053886 91.69271382 14.30664062 93.9140625 C14.20126407 99.27598547 14.09956965 104.63796619 14 110 C8.72 110 3.44 110 -2 110 C-1.89032084 100.23502832 -1.77777317 90.47009992 -1.66066074 80.7052145 C-1.6063396 76.16718167 -1.55310401 71.62914245 -1.50268555 67.09106445 C-1.25319141 44.7150276 -0.83568603 22.36254799 0 0 Z " fill="#FDFCFA" transform="translate(823,307)"/>
<path d="M0 0 C44.48648649 0 44.48648649 0 53 7 C61.20563979 16.34210164 60.74236271 25.52931461 60.2265625 37.55175781 C59.77446418 42.43714784 58.15616261 46.27442661 55 50 C53.90346884 50.91042266 52.77925677 51.7889729 51.625 52.625 C50.75875 53.40875 49.8925 54.1925 49 55 C49.26657266 61.84464511 51.34569646 68.26868446 53.25 74.8125 C53.88260247 77.02963662 54.5141009 79.24708852 55.14453125 81.46484375 C55.45729004 82.5616748 55.77004883 83.65850586 56.09228516 84.78857422 C57.41634426 89.47299418 58.68967203 94.16976425 59.9375 98.875 C60.14858398 99.6585083 60.35966797 100.4420166 60.57714844 101.24926758 C61.36880165 104.25022463 62 106.88190215 62 110 C55.4 110 48.8 110 42 110 C38.88272158 99.30206726 35.81262669 88.65539154 33.33789062 77.79150391 C32.05160184 72.14688559 30.58709267 66.56684777 29 61 C26.36 60.67 23.72 60.34 21 60 C21.00222061 60.61165512 21.00444122 61.22331024 21.00672913 61.85350037 C21.02878122 68.19570331 21.04390627 74.53789544 21.05493164 80.88012695 C21.05997341 83.24992312 21.06680665 85.61971615 21.07543945 87.98950195 C21.0875119 91.38754039 21.09322971 94.78553785 21.09765625 98.18359375 C21.10281754 99.25024765 21.10797882 100.31690155 21.11329651 101.4158783 C21.11340981 102.88729027 21.11340981 102.88729027 21.11352539 104.38842773 C21.115746 105.25668686 21.11796661 106.12494598 21.12025452 107.01951599 C21 109 21 109 20 110 C13.4 110 6.8 110 0 110 C0 73.7 0 37.4 0 0 Z " fill="#FDFBF9" transform="translate(778,487)"/>
<path d="M0 0 C44.73335799 0 44.73335799 0 53.56640625 7.4453125 C59.71107413 14.10901227 60.44569838 20.79470032 60.5 29.5625 C60.50636475 30.44873047 60.51272949 31.33496094 60.51928711 32.24804688 C60.38936546 39.01150436 59.79159537 46.09296271 54.921875 51.1640625 C53.46437408 52.14446779 52.00602884 53.12361897 50.546875 54.1015625 C48.67799389 55.97662157 48.67799389 55.97662157 49.0625 58.9765625 C50.15882644 64.30257801 51.74273602 69.52921586 53.25 74.75 C53.88258934 76.97625621 54.51408796 79.20282261 55.14453125 81.4296875 C55.45729004 82.53280273 55.77004883 83.63591797 56.09228516 84.77246094 C57.41159155 89.46348581 58.68733632 94.16512408 59.9375 98.875 C60.14858398 99.65842773 60.35966797 100.44185547 60.57714844 101.24902344 C61.36873549 104.25006569 62 106.88183312 62 110 C55.4 110 48.8 110 42 110 C37.24371065 93.75901197 33.02177669 77.43690445 29 61 C26.36 60.67 23.72 60.34 21 60 C21 76.5 21 93 21 110 C14.07 110 7.14 110 0 110 C0 73.7 0 37.4 0 0 Z " fill="#FDFCFA" transform="translate(476,128)"/>
<path d="M0 0 C4.95 0 9.9 0 15 0 C23.5497676 19.24570136 31.80228269 38.60144122 40 58 C40.33 38.86 40.66 19.72 41 0 C46.61 0 52.22 0 58 0 C58 36.3 58 72.6 58 110 C53.38 110 48.76 110 44 110 C41.74301022 104.56410211 39.48679164 99.12788492 37.23120117 93.69140625 C36.46837761 91.85310823 35.70536539 90.01488849 34.94213867 88.17675781 C33.82677768 85.49045547 32.71216333 82.80384422 31.59765625 80.1171875 C31.27225357 79.33391083 30.94685089 78.55063416 30.61158752 77.74362183 C26.3688774 67.51148077 22.19420834 57.25250927 18 47 C17.67 67.79 17.34 88.58 17 110 C11.39 110 5.78 110 0 110 C0 73.7 0 37.4 0 0 Z " fill="#FDFCFB" transform="translate(1291,487)"/>
<path d="M0 0 C4.62 0 9.24 0 14 0 C19.31414819 11.24039722 24.34076496 22.57781605 29.25 34 C29.96333822 35.65503562 30.67687904 37.30998393 31.390625 38.96484375 C34.26838214 45.63983449 37.13663633 52.31881809 40 59 C40.33 39.86 40.66 20.72 41 1 C46.61 1 52.22 1 58 1 C58 36.97 58 72.94 58 110 C53.38 110 48.76 110 44 110 C38.77306694 98.9986319 34.11370944 87.79385374 29.48461914 76.53076172 C28.17562626 73.34611238 26.86255196 70.16316904 25.54882812 66.98046875 C24.7133072 64.95322162 23.87801234 62.9258813 23.04296875 60.8984375 C22.65135056 59.94850922 22.25973236 58.99858093 21.85624695 58.01986694 C21.49529434 57.14109894 21.13434174 56.26233093 20.76245117 55.35693359 C20.44523605 54.58562103 20.12802094 53.81430847 19.80119324 53.0196228 C19.14568135 51.36722899 18.56214777 49.6864433 18 48 C17.67 68.46 17.34 88.92 17 110 C11.39 110 5.78 110 0 110 C0 73.7 0 37.4 0 0 Z " fill="#FDFDFB" transform="translate(617,307)"/>
<path d="M0 0 C4.62 0 9.24 0 14 0 C17.79613101 7.38801749 21.21351148 14.89917395 24.49194336 22.52807617 C25.29841675 24.40472848 26.10875822 26.27966783 26.91992188 28.15429688 C31.3453672 38.40967016 35.66523677 48.70493732 40 59 C40.33 39.86 40.66 20.72 41 1 C46.61 1 52.22 1 58 1 C58 36.97 58 72.94 58 110 C53.38 110 48.76 110 44 110 C34.90166078 89.50686574 26.47561706 68.75807907 18 48 C17.67 68.46 17.34 88.92 17 110 C11.39 110 5.78 110 0 110 C0 73.7 0 37.4 0 0 Z " fill="#FDFCFA" transform="translate(1134,307)"/>
<path d="M0 0 C4.62 0 9.24 0 14 0 C18.0710896 8.50102904 21.90061865 17.05294763 25.43920898 25.78955078 C27.61391575 31.13318577 29.96216678 36.3733025 32.4453125 41.58203125 C34.75749954 46.66535703 36.85212332 51.84509597 39 57 C39.33 38.19 39.66 19.38 40 0 C45.61 0 51.22 0 57 0 C57 36.3 57 72.6 57 110 C52.71 110 48.42 110 44 110 C40.86040737 103.91617706 38.14884534 97.73742653 35.55859375 91.40234375 C35.14964371 90.40924698 34.74069366 89.41615021 34.3193512 88.39295959 C33.02257041 85.2422948 31.7298973 82.08996509 30.4375 78.9375 C29.140659 75.78182947 27.8429737 72.62650766 26.54493713 69.47132874 C25.74045207 67.51501765 24.93680827 65.55836032 24.13414001 63.6013031 C23.76688309 62.70669876 23.39962616 61.81209442 23.02124023 60.89038086 C22.70243393 60.11286972 22.38362762 59.33535858 22.05516052 58.5342865 C20.72769731 55.3459829 19.36044456 52.17437065 18 49 C17.67 68.8 17.34 88.6 17 109 C11.39 109 5.78 109 0 109 C0 73.03 0 37.06 0 0 Z " fill="#FEFDFC" transform="translate(543,487)"/>
<path d="M0 0 C4.62 0 9.24 0 14 0 C19.61858834 12.18189507 25.09214471 24.41897076 30.375 36.75 C30.87418945 37.9143457 31.37337891 39.07869141 31.88769531 40.27832031 C34.68080333 46.82319581 37.35568138 53.38920346 40 60 C40.33 40.2 40.66 20.4 41 0 C46.28 0 51.56 0 57 0 C57 36.3 57 72.6 57 110 C52.71 110 48.42 110 44 110 C41.0824846 104.3168343 38.49032416 98.58054096 36.06640625 92.671875 C35.52668434 91.36648773 35.52668434 91.36648773 34.97605896 90.034729 C33.83543383 87.27428734 32.69886546 84.51219754 31.5625 81.75 C30.8043121 79.91264665 30.04585076 78.07540611 29.28710938 76.23828125 C28.20904904 73.62773209 27.13134023 71.01704562 26.05580139 68.40545654 C23.38853469 61.92924609 20.69391642 55.46539941 18 49 C17.67 69.13 17.34 89.26 17 110 C11.39 110 5.78 110 0 110 C0 73.7 0 37.4 0 0 Z " fill="#FEFEFD" transform="translate(802,128)"/>
<path d="M0 0 C6.6 0 13.2 0 20 0 C20.01458252 2.50271484 20.02916504 5.00542969 20.04418945 7.58398438 C20.09461687 15.87018693 20.16122633 24.15620317 20.23571491 32.4422226 C20.28036592 37.46406945 20.31963367 42.48583615 20.34643555 47.5078125 C20.37252107 52.35793993 20.41296061 57.20775808 20.46318626 62.05769348 C20.47981951 63.90432374 20.49135579 65.75100746 20.49761391 67.59770203 C20.50729366 70.1924145 20.53539851 72.78634205 20.56762695 75.38085938 C20.56547432 76.51590912 20.56547432 76.51590912 20.5632782 77.67388916 C20.66709264 83.61707857 21.687494 89.44826924 25.8125 94 C28.77852212 95.35589583 30.76711675 95.39586326 34 95 C37.00188843 93.70373 38.55910684 92.81776478 40.12069702 89.92134094 C41.27453705 86.08789536 41.30807709 82.41254978 41.31884766 78.44604492 C41.33391609 77.17210876 41.33391609 77.17210876 41.34928894 75.87243652 C41.38009252 73.07512059 41.39714823 70.27790025 41.4140625 67.48046875 C41.43277642 65.53704508 41.45235 63.59362951 41.4727478 61.65022278 C41.52405133 56.54245789 41.56368664 51.43466667 41.60089111 46.32678223 C41.64094185 41.11166884 41.69202934 35.89666486 41.7421875 30.68164062 C41.83892583 20.45449633 41.92231706 10.22730681 42 0 C48.6 0 55.2 0 62 0 C62.06798094 10.89263846 62.12293408 21.78513426 62.15543652 32.67793751 C62.17104197 37.73678836 62.19218601 42.79548558 62.22631836 47.85424805 C62.2590953 52.74314048 62.27689145 57.63188585 62.28463173 62.52087975 C62.29014249 64.37904866 62.30090305 66.23721022 62.31719017 68.09531593 C62.43018169 81.5293823 62.47433794 94.37457427 53 105 C44.44267313 111.78418707 34.31954899 111.6272667 24 111 C16.4798313 109.9172532 10.89782326 106.85017779 6 101 C1.06546769 92.95201278 -0.31687264 83.64984387 -0.22705078 74.35913086 C-0.22734283 73.54827026 -0.22763489 72.73740967 -0.22793579 71.90197754 C-0.22655679 69.25615245 -0.21106392 66.61061885 -0.1953125 63.96484375 C-0.19157727 62.11682794 -0.18873271 60.26881013 -0.18673706 58.42079163 C-0.17914073 53.58259509 -0.15952703 48.74452071 -0.1373291 43.90637207 C-0.11678405 38.95908256 -0.10771691 34.0117731 -0.09765625 29.06445312 C-0.07627699 19.37624008 -0.04112789 9.68814936 0 0 Z " fill="#FDFCFA" transform="translate(991,487)"/>
<path d="M0 0 C6.27 0 12.54 0 19 0 C19.0093457 2.527771 19.01869141 5.05554199 19.02832031 7.65991211 C19.06216512 16.03394219 19.11775575 24.40772778 19.18390274 32.78156185 C19.22332555 37.85609625 19.25553952 42.93045847 19.27099609 48.00512695 C19.28619689 52.90719102 19.32070315 57.80878155 19.36830902 62.71063423 C19.38308756 64.57597285 19.39103898 66.44137908 19.39188385 68.30677605 C19.16957528 81.72709192 19.16957528 81.72709192 24 94 C27.45861812 95.72930906 31.21806426 95.47864071 35 95 C38.88639863 92.40906758 39.79798051 89.40011286 41 85 C41.20148273 82.17065249 41.31084891 79.43644522 41.31884766 76.60791016 C41.33391609 75.37764603 41.33391609 75.37764603 41.34928894 74.12252808 C41.38002909 71.42804628 41.39713045 68.73366343 41.4140625 66.0390625 C41.43278153 64.16432855 41.45235549 62.28960297 41.4727478 60.41488647 C41.52399732 55.4929091 41.56366145 50.57090443 41.60089111 45.64880371 C41.64097581 40.62126961 41.69204777 35.59384835 41.7421875 30.56640625 C41.83886183 20.71100902 41.92227771 10.85556493 42 1 C48.27 1 54.54 1 61 1 C61.06798094 11.89263846 61.12293408 22.78513426 61.15543652 33.67793751 C61.17104197 38.73678836 61.19218601 43.79548558 61.22631836 48.85424805 C61.2590953 53.74314048 61.27689145 58.63188585 61.28463173 63.52087975 C61.29014249 65.37904866 61.30090305 67.23721022 61.31719017 69.09531593 C61.47605667 87.98366285 61.47605667 87.98366285 58 97 C57.7482048 97.65631912 57.49640961 98.31263824 57.23698425 98.98884583 C54.10070495 105.6241049 47.86332596 108.95011381 41.25 111.375 C30.57177554 113.43832226 20.14172333 112.41206852 10.625 107.125 C4.5240356 102.18612406 0.61966625 95.82983727 -0.22181702 87.91313934 C-0.56886403 81.72528903 -0.45868788 75.53021475 -0.390625 69.3359375 C-0.38315417 67.33241341 -0.37746522 65.32888195 -0.37347412 63.3253479 C-0.35828412 58.08094711 -0.3190601 52.8369974 -0.2746582 47.59277344 C-0.23356167 42.22987976 -0.21543251 36.86691239 -0.1953125 31.50390625 C-0.1525588 21.00237524 -0.08226384 10.5012959 0 0 Z " fill="#FEFEFD" transform="translate(749,307)"/>
<path d="M0 0 C42.05405405 0 42.05405405 0 51.4375 6.3125 C58.71857572 13.94875014 59.21202412 21.71802346 59.3125 31.8125 C59.34150391 32.77220703 59.37050781 33.73191406 59.40039062 34.72070312 C59.47007308 42.57337927 57.71063148 47.68700597 52.75 53.75 C42.29934572 62.30053532 34.3779312 61 20 61 C20 77.17 20 93.34 20 110 C13.4 110 6.8 110 0 110 C0 73.7 0 37.4 0 0 Z " fill="#FEFEFD" transform="translate(664,128)"/>
<path d="M0 0 C45.59183673 0 45.59183673 0 53.375 7.0625 C60.84532832 17.1219762 61.33194437 28.97369843 59.5625 40.96484375 C58.05322437 47.08684303 55.00690348 52.1132851 50 56 C41 60 41 60 20 60 C20 76.17 20 92.34 20 109 C13.4 109 6.8 109 0 109 C0 73.03 0 37.06 0 0 Z " fill="#FEFEFD" transform="translate(712,487)"/>
<path d="M0 0 C41 0 41 0 51 5 C58.82527793 13.25211127 60.58068203 22.69048764 60.2890625 33.8515625 C59.63720109 40.95156647 57.7090278 47.52734607 53 53 C42.12543369 61.20161619 35.16729974 60 20 60 C20 76.17 20 92.34 20 109 C13.4 109 6.8 109 0 109 C0 73.03 0 37.06 0 0 Z " fill="#FEFEFD" transform="translate(910,308)"/>
<path d="M0 0 C6.93 0 13.86 0 21 0 C23.80407101 10.70967081 26.0078877 21.51012521 28.1953125 32.359375 C28.59203964 34.31849228 28.98892353 36.27757783 29.38595581 38.2366333 C30.21304297 42.32096818 31.03813889 46.40569885 31.86181641 50.49072266 C32.91478892 55.71202593 33.97293239 60.93226561 35.03257942 66.15221786 C35.85143183 70.18905864 36.66746343 74.2264657 37.4826622 78.26404572 C37.87169044 80.18904724 38.26160345 82.11387018 38.65243912 84.03850555 C39.19841554 86.72920062 39.74055766 89.42064151 40.28173828 92.11230469 C40.52174561 93.28920616 40.52174561 93.28920616 40.76660156 94.48988342 C40.91509552 95.23239853 41.06358948 95.97491364 41.21658325 96.7399292 C41.34450319 97.37328564 41.47242313 98.00664207 41.60421944 98.65919113 C42.18407755 102.08871025 42.56858307 105.54866457 43 109 C36.73 109 30.46 109 24 109 C23.33011979 105.39640334 22.66396233 101.79218739 22 98.1875 C21.80921875 97.16333984 21.6184375 96.13917969 21.421875 95.08398438 C21.24140625 94.10107422 21.0609375 93.11816406 20.875 92.10546875 C20.70742188 91.19949951 20.53984375 90.29353027 20.3671875 89.36010742 C20 87 20 87 20 84 C13.73 84 7.46 84 1 84 C0.896875 85.711875 0.79375 87.42375 0.6875 89.1875 C0.13538502 95.99962447 -1.34389295 102.37557179 -3 109 C-9.27 109 -15.54 109 -22 109 C-20.31234793 97.23131987 -18.04814025 85.59961634 -15.75 73.9375 C-15.55024567 72.9193219 -15.35049133 71.9011438 -15.14468384 70.85211182 C-12.33082178 56.51474097 -9.4009598 42.21152899 -6.28125 27.9375 C-4.82608899 21.26292913 -3.492372 14.56553499 -2.20385742 7.85693359 C-1.10411532 2.20823063 -1.10411532 2.20823063 0 0 Z " fill="#FEFDFD" transform="translate(493,487)"/>
<path d="M0 0 C5.84278118 4.93390411 9.37896201 10.83562528 10.578125 18.40234375 C11.07704393 24.73029882 10.92004892 31.0296136 10.8125 37.375 C4.2125 37.375 -2.3875 37.375 -9.1875 37.375 C-9.20167969 35.91707031 -9.21585938 34.45914063 -9.23046875 32.95703125 C-9.27737627 31.03382278 -9.32562362 29.11064667 -9.375 27.1875 C-9.38080078 26.22779297 -9.38660156 25.26808594 -9.39257812 24.27929688 C-9.53868208 19.58773642 -9.65228844 17.10466873 -12.48828125 13.23828125 C-15.79554988 10.95526079 -17.36871703 10.63654095 -21.25390625 10.87890625 C-24.56984723 11.72966283 -26.16189672 13.73557754 -28.1875 16.375 C-29.27429059 19.63537178 -29.32750777 22.04782497 -29.34863281 25.47949219 C-29.35824036 26.73799988 -29.3678479 27.99650757 -29.37774658 29.29315186 C-29.38259556 30.66939106 -29.38687414 32.04563237 -29.390625 33.421875 C-29.39638008 34.83571371 -29.40213777 36.24955242 -29.40789795 37.66339111 C-29.41840114 40.62911339 -29.4242478 43.59480862 -29.42773438 46.56054688 C-29.43320816 50.34779791 -29.45721474 54.13468745 -29.48570633 57.92182541 C-29.50439893 60.84390277 -29.50954188 63.76589435 -29.51107025 66.68802643 C-29.51408399 68.08338643 -29.52206906 69.47874538 -29.53525543 70.87404633 C-29.7182911 81.0530481 -29.7182911 81.0530481 -26.1875 90.375 C-25.07623341 91.71401792 -25.07623341 91.71401792 -22.24609375 91.47265625 C-21.05113281 91.46105469 -19.85617187 91.44945312 -18.625 91.4375 C-17.42746094 91.42847656 -16.22992188 91.41945313 -14.99609375 91.41015625 C-13.60583984 91.39275391 -13.60583984 91.39275391 -12.1875 91.375 C-10.64072172 87.90967392 -9.91282479 85.07965673 -9.7734375 81.29296875 C-9.73476563 80.36162109 -9.69609375 79.43027344 -9.65625 78.47070312 C-9.6253125 77.51099609 -9.594375 76.55128906 -9.5625 75.5625 C-9.50449219 74.09393555 -9.50449219 74.09393555 -9.4453125 72.59570312 C-9.35139629 70.1891002 -9.26837436 67.78207649 -9.1875 65.375 C-2.5875 65.375 4.0125 65.375 10.8125 65.375 C11.57418781 90.5106976 11.57418781 90.5106976 3.21875 100.98046875 C-2.81459324 106.96353413 -10.85460518 108.44578223 -19.0625 108.6875 C-28.91861213 108.50083121 -36.69419353 105.76132299 -43.8125 98.8125 C-51.38899975 89.13413258 -51.34164652 76.3578508 -51.35546875 64.671875 C-51.35879715 63.67222717 -51.36212555 62.67257935 -51.36555481 61.64263916 C-51.37059035 59.53829403 -51.37296419 57.433941 -51.37280273 55.32958984 C-51.37498425 52.14797484 -51.39316277 48.96670989 -51.41210938 45.78515625 C-51.50016941 15.17191596 -51.50016941 15.17191596 -43.1875 3.375 C-31.35618775 -7.70341056 -13.67800995 -6.97310311 0 0 Z " fill="#FDFCFA" transform="translate(525.1875,310.625)"/>
<path d="M0 0 C1.47049805 0.00966797 1.47049805 0.00966797 2.97070312 0.01953125 C11.1868253 0.22809013 16.98511121 1.40652842 22.99609375 7.26171875 C31.51011458 17.32745561 30.46567053 29.07504979 30.1875 41.5 C23.5875 41.5 16.9875 41.5 10.1875 41.5 C10.16171875 40.03046875 10.1359375 38.5609375 10.109375 37.046875 C10.0530938 35.11455364 9.99574646 33.18226312 9.9375 31.25 C9.92332031 30.28191406 9.90914062 29.31382812 9.89453125 28.31640625 C9.74896729 22.78512908 9.74896729 22.78512908 7.48828125 17.859375 C4.67611695 16.19785857 2.88182789 15.96455153 -0.375 16 C-1.32503906 15.9896875 -2.27507812 15.979375 -3.25390625 15.96875 C-5.92814254 16.27321249 -5.92814254 16.27321249 -7.58984375 18.34375 C-9.79160793 22.22673347 -9.94710658 25.32236083 -9.97363281 29.7121582 C-9.98324036 30.99391434 -9.9928479 32.27567047 -10.00274658 33.5962677 C-10.007595 34.9977704 -10.01187372 36.39927518 -10.015625 37.80078125 C-10.02137936 39.23943584 -10.02713706 40.67809043 -10.03289795 42.116745 C-10.04340039 45.13374183 -10.0492478 48.15071207 -10.05273438 51.16772461 C-10.05821343 55.02457317 -10.08223168 58.88106769 -10.11070633 62.73780537 C-10.12937617 65.7104544 -10.13454064 68.68301896 -10.13607025 71.65572166 C-10.13908821 73.07702759 -10.14708773 74.49833233 -10.16025543 75.91958046 C-10.17740275 77.91286806 -10.17357837 79.90630223 -10.16894531 81.8996582 C-10.17259094 83.03200394 -10.17623657 84.16434967 -10.17999268 85.33100891 C-9.75552133 88.99134287 -8.73450646 91.3692457 -6.8125 94.5 C-3.81511059 96.49825961 -3.17902492 96.77550398 0.1875 96.75 C0.868125 96.75515625 1.54875 96.7603125 2.25 96.765625 C4.51166007 96.59917603 4.51166007 96.59917603 7.1875 94.5 C9.10556864 91.50558768 9.47280371 89.03503192 9.6015625 85.515625 C9.64023438 84.58105469 9.67890625 83.64648438 9.71875 82.68359375 C9.7496875 81.71550781 9.780625 80.74742187 9.8125 79.75 C9.85117188 78.76644531 9.88984375 77.78289062 9.9296875 76.76953125 C10.0237797 74.34665711 10.10672152 71.92335455 10.1875 69.5 C16.7875 69.5 23.3875 69.5 30.1875 69.5 C30.59362336 82.90207087 30.86458781 94.95587535 21.89453125 105.87890625 C14.86757194 112.55210559 5.96928662 112.81286536 -3.23828125 112.70703125 C-11.28542474 112.24091256 -17.18920176 110.14348698 -23.0546875 104.52734375 C-29.2635796 97.36642152 -30.89665722 90.38514801 -31.00537109 81.04248047 C-31.02143402 79.78031708 -31.03749695 78.51815369 -31.05404663 77.21774292 C-31.06553887 75.85089809 -31.0761466 74.48404558 -31.0859375 73.1171875 C-31.09126118 72.42055119 -31.09658485 71.72391487 -31.10206985 71.00616837 C-31.12871115 67.31597245 -31.14811129 63.62580925 -31.16259766 59.93554688 C-31.17590213 56.90561504 -31.20370163 53.87636222 -31.24462891 50.84667969 C-31.29436139 47.1632649 -31.31876714 43.48046226 -31.32582474 39.79672623 C-31.33247064 38.40545063 -31.34751514 37.01418508 -31.37171555 35.6231041 C-31.5350193 25.66539797 -30.66245884 16.02435546 -23.82235718 8.23312378 C-16.63184469 1.3830264 -9.63841396 -0.06534518 0 0 Z " fill="#FEFDFB" transform="translate(1093.8125,485.5)"/>
<path d="M0 0 C6.18049058 4.07250183 10.05079922 8.82288498 12 16 C12.55486137 19.66587895 12.86153795 23.29614024 13 27 C11.12743583 27.50904657 9.25180659 28.00682455 7.375 28.5 C5.80878906 28.91765625 5.80878906 28.91765625 4.2109375 29.34375 C1.04312582 29.99118596 -1.77741467 30.1161292 -5 30 C-5.02578125 29.34773438 -5.0515625 28.69546875 -5.078125 28.0234375 C-5.44042163 22.44077587 -5.75022397 18.03728723 -10 14 C-14.2591334 12.99785096 -17.71105138 13.30836903 -21.5625 15.375 C-23.86919698 19.58722927 -23.87616521 23.3225196 -23 28 C-19.67670941 36.04586142 -12.65035403 40.80441092 -6 46 C4.76797277 54.87418686 13.71305928 64.895161 15.37890625 79.26953125 C15.72212036 88.77988366 13.42111727 96.39167466 6.87890625 103.42578125 C0.41128294 108.84460078 -6.76217263 110.76055943 -15.08203125 110.3515625 C-23.13230415 109.3816501 -30.37893092 107.09049455 -36 101 C-41.46201458 93.07472395 -42.96931743 85.51159793 -43 76 C-41.29456816 75.49019119 -39.58547682 74.99261732 -37.875 74.5 C-36.92367187 74.2215625 -35.97234375 73.943125 -34.9921875 73.65625 C-31.90214879 72.97853916 -29.15297352 72.88772795 -26 73 C-25.65388672 74.53720703 -25.65388672 74.53720703 -25.30078125 76.10546875 C-24.97228749 77.46637146 -24.64280789 78.82703647 -24.3125 80.1875 C-24.08916992 81.19780273 -24.08916992 81.19780273 -23.86132812 82.22851562 C-22.66015463 87.05676201 -21.01539572 89.81201916 -17 93 C-13.45728358 93.75011367 -13.45728358 93.75011367 -10 93 C-7.25860825 90.89237086 -6.14141697 89.68270262 -5.43359375 86.265625 C-5.44564027 76.96570824 -7.83996533 72.19586189 -14.125 65.5625 C-17.0706568 62.73851163 -20.19864051 60.18471987 -23.375 57.625 C-32.5646866 50.17971058 -41.08905338 43.19113167 -43 31 C-43.60722458 21.22601981 -43.42563675 13.94814197 -37.75 5.75 C-28.08909103 -3.91090897 -12.20360267 -6.49472036 0 0 Z " fill="#FDFCFB" transform="translate(727,309)"/>
<path d="M0 0 C7.79550468 6.68608751 10.12234365 14.1418859 10.88671875 24.09375 C10.94279297 25.03734375 10.94279297 25.03734375 11 26 C8.93918639 26.50690584 6.87626474 27.00524619 4.8125 27.5 C3.08966797 27.91765625 3.08966797 27.91765625 1.33203125 28.34375 C-1.56818829 28.91495385 -4.06096385 29.13283779 -7 29 C-7.08636719 28.19175781 -7.17273438 27.38351563 -7.26171875 26.55078125 C-8.13890839 19.7518 -8.13890839 19.7518 -11.25 13.75 C-14.58671657 11.62663491 -16.11749093 11.27202955 -20 12 C-23.06774841 13.13645906 -23.06774841 13.13645906 -25 16 C-26.2262162 21.66087779 -25.69515875 26.65012259 -22.6875 31.625 C-18.62284668 37.00299649 -13.28913867 40.89686596 -8 45 C2.08895998 53.12631664 10.74231834 62.90155384 13 76 C13.88162863 85.40885632 11.9535055 92.39600613 6.875 100.3125 C-0.7004405 107.39389003 -7.91446569 108.73234593 -18.01879883 108.58935547 C-25.60042975 108.24196744 -31.44153913 106.71882069 -36.8203125 101.09765625 C-43.51814588 92.66874033 -45 85.72391846 -45 75 C-39.72 73.68 -34.44 72.36 -29 71 C-26.91227095 74.13159358 -26.61859453 75.67098115 -26.125 79.3125 C-25.30391372 84.23250112 -24.20509795 87.19394618 -21 91 C-17.98131566 92.50934217 -15.32702771 92.17510672 -12 92 C-8.75150023 90.27773504 -8.75150023 90.27773504 -8 87 C-7.25171992 80.38306612 -7.48258852 75.29288679 -11.46484375 69.82421875 C-15.66659078 64.83130307 -20.29543773 60.71844613 -25.375 56.625 C-42.79827169 42.50903435 -42.79827169 42.50903435 -45 31 C-45.73683727 21.46322041 -46.02311403 12.98518906 -40 5 C-30.33190856 -6.0056672 -12.30039701 -7.94726195 0 0 Z " fill="#FEFDFB" transform="translate(914,131)"/>
<path d="M0 0 C5.94174761 4.98299428 8.39584063 11.54795056 10 19 C10.03888349 21.33300933 10.0448635 23.66709801 10 26 C7.91798472 26.50546036 5.83432933 27.00416835 3.75 27.5 C2.00976562 27.91765625 2.00976562 27.91765625 0.234375 28.34375 C-3 29 -3 29 -7 29 C-7.08636719 28.19175781 -7.17273438 27.38351563 -7.26171875 26.55078125 C-8.13890839 19.7518 -8.13890839 19.7518 -11.25 13.75 C-14.54018482 11.65624602 -16.16792971 11.42926613 -20 12 C-22.55040714 12.85013571 -23.65294576 13.53147678 -25.25 15.6875 C-26.77322008 20.38409524 -26.3128308 24.02857804 -24.8125 28.6875 C-20.40280033 36.81146284 -11.60376314 42.77498877 -4.6875 48.6875 C3.9814436 56.27739787 11.53135758 64.46702952 12.44140625 76.421875 C12.50006912 78.00984622 12.54039356 79.59859936 12.5625 81.1875 C12.57732422 81.93572021 12.59214844 82.68394043 12.60742188 83.45483398 C12.47471231 90.61562075 9.85565663 96.71923574 4.75 101.8125 C4.22921875 102.35519531 3.7084375 102.89789063 3.171875 103.45703125 C-2.65119876 107.59392718 -8.86678236 108.55932803 -15.875 108.5 C-16.66293945 108.49427979 -17.45087891 108.48855957 -18.26269531 108.48266602 C-26.53325144 108.2296422 -32.58347675 105.83226062 -38.375 99.8125 C-44.07043425 92.34228454 -45.64971533 84.2124868 -46 75 C-40.17634262 72.73524435 -34.1439184 71.93451186 -28 71 C-27.89042969 71.71285156 -27.78085937 72.42570312 -27.66796875 73.16015625 C-26.21001213 82.80309906 -26.21001213 82.80309906 -21.1875 90.9375 C-17.17033277 92.88869551 -13.16480236 92.28147765 -9 91 C-7.37952532 84.72066062 -6.87201394 78.57283787 -9.75 72.625 C-14.84795323 64.35882725 -23.36673094 58.27193213 -30.875 52.3125 C-37.78983521 46.73280588 -43.5315674 40.00722426 -45.6875 31.1875 C-46.64310485 21.44033051 -46.24433935 12.53998039 -39.8125 4.625 C-29.85616558 -5.81649478 -12.21169956 -7.62387873 0 0 Z " fill="#FEFDFC" transform="translate(644,131)"/>
<path d="M0 0 C15.51 0 31.02 0 47 0 C47 4.95 47 9.9 47 15 C38.42 15 29.84 15 21 15 C21 25.23 21 35.46 21 46 C27.6 46 34.2 46 41 46 C41 50.62 41 55.24 41 60 C34.4 60 27.8 60 21 60 C21 71.88 21 83.76 21 96 C29.58 96 38.16 96 47 96 C47 100.62 47 105.24 47 110 C31.49 110 15.98 110 0 110 C0 73.7 0 37.4 0 0 Z " fill="#FCFAF7" transform="translate(547,128)"/>
<path d="M0 0 C15.18 0 30.36 0 46 0 C46 4.95 46 9.9 46 15 C37.42 15 28.84 15 20 15 C20 25.23 20 35.46 20 46 C26.93 46 33.86 46 41 46 C41 50.62 41 55.24 41 60 C34.07 60 27.14 60 20 60 C20 71.88 20 83.76 20 96 C28.58 96 37.16 96 46 96 C46 100.62 46 105.24 46 110 C30.82 110 15.64 110 0 110 C0 73.7 0 37.4 0 0 Z " fill="#FEFEFD" transform="translate(1091,128)"/>
<path d="M0 0 C18.48 0 36.96 0 56 0 C56 4.95 56 9.9 56 15 C50.06 15 44.12 15 38 15 C38 46.02 38 77.04 38 109 C31.4 109 24.8 109 18 109 C18 77.98 18 46.96 18 15 C12.06 15 6.12 15 0 15 C0 10.05 0 5.1 0 0 Z " fill="#FEFEFE" transform="translate(1126,487)"/>
<path d="M0 0 C18.81 0 37.62 0 57 0 C57 4.62 57 9.24 57 14 C51.06 14 45.12 14 39 14 C39 45.35 39 76.7 39 109 C32.4 109 25.8 109 19 109 C19 77.65 19 46.3 19 14 C12.73 14 6.46 14 0 14 C0 9.38 0 4.76 0 0 Z " fill="#FEFEFE" transform="translate(968,308)"/>
<path d="M0 0 C6.93 0 13.86 0 21 0 C21 31.68 21 63.36 21 96 C29.58 96 38.16 96 47 96 C47 100.62 47 105.24 47 110 C31.49 110 15.98 110 0 110 C0 73.7 0 37.4 0 0 Z " fill="#FCFBF7" transform="translate(1038,128)"/>
<path d="M0 0 C6.6 0 13.2 0 20 0 C20 36.3 20 72.6 20 110 C13.4 110 6.8 110 0 110 C0 73.7 0 37.4 0 0 Z " fill="#FEFDFB" transform="translate(935,128)"/>
<path d="M0 0 C6.6 0 13.2 0 20 0 C20 35.97 20 71.94 20 109 C13.4 109 6.8 109 0 109 C0 73.03 0 37.06 0 0 Z " fill="#FEFDFC" transform="translate(1187,487)"/>
<path d="M0 0 C6.6 0 13.2 0 20 0 C20 35.97 20 71.94 20 109 C13.4 109 6.8 109 0 109 C0 73.03 0 37.06 0 0 Z " fill="#FEFDFC" transform="translate(1030,308)"/>
<path d="M0 0 C5.33101466 2.01170365 5.33101466 2.01170365 7.15179443 4.70155334 C8.26995847 7.73152684 8.25438192 10.29486652 8.25878906 13.52514648 C8.2622937 14.17118835 8.26579834 14.81723022 8.26940918 15.48284912 C8.27819092 17.61237424 8.27238942 19.74156541 8.265625 21.87109375 C8.26697284 23.35555586 8.26891437 24.84001754 8.27142334 26.32447815 C8.27436992 29.43389086 8.27009263 32.54318856 8.26074219 35.65258789 C8.2493578 39.63163397 8.25590353 43.61040993 8.26788712 47.58944607 C8.27512683 50.65470908 8.27280793 53.71990845 8.26763153 56.78517342 C8.26630036 58.25194392 8.26792407 59.71872025 8.27259064 61.18548393 C8.27768959 63.23896374 8.26989844 65.29201123 8.25878906 67.34545898 C8.25640228 69.09607887 8.25640228 69.09607887 8.25396729 70.88206482 C7.99654154 74.04245926 7.45491756 76.1943757 6 79 C2.99481988 81.52708329 0.88523808 82.85246032 -3 83.5 C-6.91956137 82.84673977 -8.99705306 81.59345418 -12 79 C-13.79696017 74.73406742 -14.25928432 71.05076179 -14.29052734 66.44726562 C-14.30328705 65.16573608 -14.31604675 63.88420654 -14.32919312 62.56384277 C-14.33225039 61.17798006 -14.33447835 59.79211531 -14.3359375 58.40625 C-14.34237156 56.97188181 -14.34910037 55.53751491 -14.35610962 54.10314941 C-14.36805179 51.10405433 -14.37179342 48.1050742 -14.37060547 45.10595703 C-14.37040199 41.27258599 -14.39774626 37.43995392 -14.43214989 33.60675812 C-14.45443587 30.64695886 -14.45844257 27.68733733 -14.45738602 24.72746277 C-14.4597378 23.31452376 -14.46853755 21.90157955 -14.48405075 20.48872375 C-14.50374933 18.5101586 -14.49534028 16.53137478 -14.48583984 14.55273438 C-14.48868988 13.42943726 -14.49153992 12.30614014 -14.49447632 11.14880371 C-13.88006236 7.23624231 -12.44742578 5.08087919 -10 2 C-6.25816125 -0.49455917 -4.43756964 -0.37606522 0 0 Z " fill="#BF8B2F" transform="translate(1095,321)"/>
<path d="M0 0 C2.94989916 1.58889418 5.4585821 3.52296604 6.64909363 6.77078247 C7.10576065 9.67187011 7.15175696 12.47989321 7.17700195 15.41748047 C7.18983719 16.71918182 7.20267242 18.02088318 7.21589661 19.36203003 C7.2240638 20.78041197 7.23150757 22.19879822 7.23828125 23.6171875 C7.24235678 24.33417942 7.2464323 25.05117134 7.25063133 25.78989029 C7.27145342 29.58339394 7.285773 33.37686181 7.29516602 37.17041016 C7.30623593 41.08001855 7.34065281 44.98905867 7.38033772 48.89846611 C7.40652417 51.91314731 7.41485949 54.92769326 7.41844749 57.94247818 C7.42330651 59.3833412 7.43490107 60.82419845 7.45348549 62.2649498 C7.47792042 64.28440301 7.47448786 66.30413449 7.4699707 68.32373047 C7.47877007 70.0443721 7.47877007 70.0443721 7.48774719 71.79977417 C6.88960597 75.72432162 5.4269942 77.89778535 3 81 C-0.20785018 83.35242347 -3.09649252 83.4684209 -7 83 C-10.63946164 81.18026918 -12.55634543 80.05322339 -14.15371704 76.2611084 C-15.03690243 72.85779835 -15.26669292 69.95914307 -15.29052734 66.44726562 C-15.30328705 65.16573608 -15.31604675 63.88420654 -15.32919312 62.56384277 C-15.33225039 61.17798006 -15.33447835 59.79211531 -15.3359375 58.40625 C-15.34237156 56.97188181 -15.34910037 55.53751491 -15.35610962 54.10314941 C-15.36805179 51.10405433 -15.37179342 48.1050742 -15.37060547 45.10595703 C-15.37040199 41.27258599 -15.39774626 37.43995392 -15.43214989 33.60675812 C-15.45443587 30.64695886 -15.45844257 27.68733733 -15.45738602 24.72746277 C-15.4597378 23.31452376 -15.46853755 21.90157955 -15.48405075 20.48872375 C-15.50374933 18.5101586 -15.49534028 16.53137478 -15.48583984 14.55273438 C-15.48868988 13.42943726 -15.49153992 12.30614014 -15.49447632 11.14880371 C-14.88006236 7.23624231 -13.44742578 5.08087919 -11 2 C-7.30378364 -0.46414424 -4.28819801 -0.80100302 0 0 Z " fill="#BF8B2F" transform="translate(579,321)"/>
<path d="M0 0 C1.03769531 -0.0515625 2.07539062 -0.103125 3.14453125 -0.15625 C6.48802127 0.56481075 8.03386418 1.55856659 10.1414032 4.24768066 C12.61030653 9.56340164 11.85074112 15.98690205 11.78125 21.75 C11.77953717 23.25162663 11.77960633 24.75325625 11.78137207 26.25488281 C11.77972221 29.39547503 11.76108733 32.53535052 11.72949219 35.67578125 C11.68981496 39.69070959 11.68544891 43.70470038 11.69295502 47.7197876 C11.69603233 50.81860868 11.68387732 53.91722108 11.66682434 57.01599121 C11.65981953 58.49587697 11.65666674 59.97578638 11.65751648 61.45568848 C11.65570794 63.52818106 11.63423921 65.59957397 11.60742188 67.671875 C11.59900269 68.8484668 11.5905835 70.02505859 11.58190918 71.23730469 C11.13716495 74.9163897 10.1036908 77.3436824 8.1875 80.5 C4.33053825 82.85703218 0.62825828 82.97579553 -3.8125 82.5 C-7.85969775 80.07168135 -9.39844672 77.92938998 -10.8125 73.5 C-11.07319641 70.47145081 -11.07319641 70.47145081 -11.0871582 67.06079102 C-11.09669022 65.77918594 -11.10622223 64.49758087 -11.11604309 63.17713928 C-11.11578164 61.78606132 -11.11484451 60.39498335 -11.11328125 59.00390625 C-11.11717153 57.56810889 -11.12150688 56.13231268 -11.12626648 54.69651794 C-11.13371529 51.69143946 -11.13344713 48.68647849 -11.12817383 45.68139648 C-11.12238012 41.84026707 -11.13931383 37.99961999 -11.1625185 34.15857029 C-11.17728686 31.1944856 -11.17812336 28.23051626 -11.17500877 25.26640129 C-11.1755204 23.85068748 -11.18072834 22.43496695 -11.19082069 21.01928902 C-11.20322699 19.03576497 -11.1944311 17.05214305 -11.18481445 15.06860352 C-11.18544388 13.94229019 -11.1860733 12.81597687 -11.1867218 11.65553284 C-10.30333686 4.2066077 -7.47298154 0.22114865 0 0 Z " fill="#BF8B2F" transform="translate(1248.8125,500.5)"/>
<path d="M0 0 C3.59753882 2.14321461 5.48220244 4.13746815 7 8 C7.26069641 10.94625854 7.26069641 10.94625854 7.2746582 14.41748047 C7.28895622 16.3700325 7.28895622 16.3700325 7.30354309 18.36203003 C7.30328163 19.78041613 7.3023444 21.19880224 7.30078125 22.6171875 C7.30467023 24.07683433 7.30900532 25.53648003 7.31376648 26.99612427 C7.32122294 30.05425689 7.32094197 33.11227405 7.31567383 36.17041016 C7.30988508 40.07994651 7.32679812 43.98900819 7.3500185 47.89846611 C7.36478746 50.91316468 7.36562318 53.92774984 7.36250877 56.94247818 C7.36302057 58.3833116 7.36823168 59.82415161 7.37832069 61.2649498 C7.3907254 63.28450625 7.38193176 65.30415882 7.37231445 67.32373047 C7.37294388 68.47082489 7.3735733 69.61791931 7.3742218 70.79977417 C6.94460113 74.47375348 5.93104365 76.85815673 4 80 C-0.22994616 82.8199641 -4.03220448 82.79231188 -9 82 C-12.34625024 79.47323961 -13.67977847 77.96066458 -15 74 C-15.10945059 71.87007674 -15.15898863 69.73690555 -15.17700195 67.60424805 C-15.18357315 66.9599585 -15.19014435 66.31566895 -15.19691467 65.65185547 C-15.21660845 63.52180864 -15.22830146 61.39183219 -15.23828125 59.26171875 C-15.24235678 58.53277719 -15.2464323 57.80383564 -15.25063133 57.05280495 C-15.27147543 53.19446727 -15.28578425 49.33616497 -15.29516602 45.4777832 C-15.30622677 41.49976872 -15.34062682 37.52231416 -15.38033772 33.54449749 C-15.4065252 30.47920211 -15.4148597 27.41403975 -15.41844749 24.34864235 C-15.42330804 22.88266023 -15.43490699 21.41668384 -15.45348549 19.95081139 C-15.47792439 17.89473884 -15.47690453 15.84010989 -15.4699707 13.78393555 C-15.47583694 12.61606003 -15.48170319 11.44818451 -15.48774719 10.24491882 C-14.89314196 6.28908733 -13.46940429 4.10910944 -11 1 C-7.53749757 -0.73125121 -3.78591771 -0.47815224 0 0 Z " fill="#BF8B2F" transform="translate(764,142)"/>
<path d="M0 0 C1.05832031 -0.03738281 2.11664062 -0.07476562 3.20703125 -0.11328125 C6.88964967 0.4128071 7.97757773 1.3710883 10.1875 4.3125 C11.36016701 7.74404623 11.32061358 11.04977566 11.33276367 14.65405273 C11.33914352 15.93896103 11.34552338 17.22386932 11.35209656 18.54771423 C11.35362526 19.94717369 11.35473921 21.34663365 11.35546875 22.74609375 C11.35868349 24.18571506 11.36204773 25.62533604 11.36555481 27.06495667 C11.37153693 30.08017738 11.37339562 33.09536947 11.37280273 36.1105957 C11.37270109 39.96855596 11.38635952 43.82633226 11.40357494 47.68424892 C11.41470855 50.65685362 11.41672153 53.62941401 11.41619301 56.60203743 C11.41737083 58.02415667 11.42178151 59.44627714 11.42952538 60.86837578 C11.43935344 62.85941053 11.4351757 64.85049941 11.43041992 66.84155273 C11.43184494 67.97310287 11.43326996 69.10465302 11.43473816 70.27049255 C11.07747299 74.66626754 10.04364814 77.38080938 7.0625 80.625 C3.30401645 82.83106643 0.44699709 83.15750145 -3.8125 82.3125 C-7.16029404 80.42026859 -8.47770322 79.13515137 -9.92715454 75.5736084 C-10.85404818 72.15946018 -11.07905186 69.29242822 -11.10302734 65.75976562 C-11.11578705 64.47823608 -11.12854675 63.19670654 -11.14169312 61.87634277 C-11.14475039 60.49048006 -11.14697835 59.10461531 -11.1484375 57.71875 C-11.15487156 56.28438181 -11.16160037 54.85001491 -11.16860962 53.41564941 C-11.18055179 50.41655433 -11.18429342 47.4175742 -11.18310547 44.41845703 C-11.18290199 40.58508599 -11.21024626 36.75245392 -11.24464989 32.91925812 C-11.26693587 29.95945886 -11.27094257 26.99983733 -11.26988602 24.03996277 C-11.2722378 22.62702376 -11.28103755 21.21407955 -11.29655075 19.80122375 C-11.31624933 17.8226586 -11.30784028 15.84387478 -11.29833984 13.86523438 C-11.30118988 12.74193726 -11.30403992 11.61864014 -11.30697632 10.46130371 C-10.14901841 3.08747805 -6.94950675 0.15966219 0 0 Z " fill="#BF8B2F" transform="translate(878.8125,500.6875)"/>
<path d="M0 0 C13.77777778 0 13.77777778 0 18 4 C20.21250422 7.41633783 20.26335074 10.30552128 20.29052734 14.32568359 C20.3096669 16.2482045 20.3096669 16.2482045 20.32919312 18.20956421 C20.33225084 19.60585377 20.33447856 21.00214536 20.3359375 22.3984375 C20.34236764 23.83566419 20.34909616 25.27288957 20.35610962 26.71011353 C20.3680752 29.72116123 20.37179121 32.73209427 20.37060547 35.74316406 C20.37040235 39.59228655 20.39769886 43.44067007 20.43214989 47.28961754 C20.4544418 50.25799911 20.45844232 53.2262035 20.45738602 56.19466019 C20.45973875 57.61318126 20.4685439 59.03170746 20.48405075 60.45014572 C20.50375252 62.43850875 20.49533947 64.42708941 20.48583984 66.41552734 C20.48868988 67.54485687 20.49153992 68.6741864 20.49447632 69.83773804 C19.8727504 73.81378328 18.58083863 75.93136937 16 79 C11 81 11 81 0 81 C0 54.27 0 27.54 0 0 Z " fill="#C18E34" transform="translate(941,501)"/>
<path d="M0 0 C13.77777778 0 13.77777778 0 18 4 C20.19466429 7.39695041 20.25807127 10.23790408 20.2746582 14.23388672 C20.28895622 16.1263765 20.28895622 16.1263765 20.30354309 18.05709839 C20.30328162 19.43129504 20.30234439 20.80549171 20.30078125 22.1796875 C20.30467045 23.59449387 20.30900559 25.00929908 20.31376648 26.42410278 C20.3212222 29.38807969 20.32094254 32.35193747 20.31567383 35.31591797 C20.3098854 39.10439191 20.32679763 42.89237597 20.3500185 46.68076897 C20.36479024 49.60282213 20.3656228 52.52475831 20.36250877 55.44684219 C20.36302044 56.84301853 20.36822908 58.23920168 20.37832069 59.63534164 C20.39073067 61.59263085 20.38192958 63.55001929 20.37231445 65.50732422 C20.37294388 66.61888885 20.3735733 67.73045349 20.3742218 68.8757019 C19.82964192 73.42228332 18.23529931 76.76470069 15 80 C11 81 11 81 0 81 C0 54.27 0 27.54 0 0 Z " fill="#C18E34" transform="translate(632,501)"/>
<path d="M0 0 C14.87654321 0 14.87654321 0 20 5 C23.53850781 9.43951674 23.48633837 13.49868188 23.4375 18.9375 C23.4674707 20.11602539 23.4674707 20.11602539 23.49804688 21.31835938 C23.49355604 26.6849067 22.54349703 29.74650081 19 34 C12.90512628 38.6883644 8.50402936 37 0 37 C0 24.79 0 12.58 0 0 Z " fill="#C18F36" transform="translate(987,187)"/>
<path d="M0 0 C13.03448276 0 13.03448276 0 18 3 C21.23000852 7.10954136 21.45939997 10.88756863 21.375 15.9375 C21.38660156 16.62779297 21.39820313 17.31808594 21.41015625 18.02929688 C21.38332512 22.74710477 20.53195015 26.02376843 18 30 C11.68857469 33.94464082 8.13712741 33 0 33 C0 22.11 0 11.22 0 0 Z " fill="#C18F35" transform="translate(496,142)"/>
<path d="M0 0 C12 0 12 0 17 2 C20.8697 6.45280548 21.6293809 10.26411327 21.5 16 C21.51546875 16.68578125 21.5309375 17.3715625 21.546875 18.078125 C21.50796569 23.17524521 20.20655889 26.09636309 17 30 C14 32 14 32 0 32 C0 21.44 0 10.88 0 0 Z " fill="#C08E33" transform="translate(732,501)"/>
<path d="M0 0 C13 0 13 0 18 3 C21.90267071 9.1904432 21.67084507 15.85963537 21 23 C19.21118247 28.46060089 18.18408356 28.88954987 13 32 C8.71 32 4.42 32 0 32 C0 21.44 0 10.88 0 0 Z " fill="#BF8C31" transform="translate(930,322)"/>
<path d="M0 0 C13 0 13 0 18 3 C20.69009645 7.03514467 20.3314193 10.07889232 20.3125 14.8125 C20.32861328 15.60720703 20.34472656 16.40191406 20.36132812 17.22070312 C20.36543991 22.19185271 19.87574244 25.7610388 17 30 C13 32 13 32 0 32 C0 21.44 0 10.88 0 0 Z " fill="#BF8B2F" transform="translate(684,143)"/>
<path d="M0 0 C13.77777778 0 13.77777778 0 18 4 C21.69661291 9.61527013 20.77995796 18.02811327 19.53515625 24.3671875 C18.44054454 27.38546595 17.02115944 28.98360143 14.5 30.9375 C11 32 11 32 0 32 C0 21.44 0 10.88 0 0 Z " fill="#BF8B2F" transform="translate(799,501)"/>
<path d="M0 0 C13.96551724 0 13.96551724 0 18 3 C21.65034599 6.89370239 21.43969689 11.19295037 21.2890625 16.2734375 C20.78660502 21.01283371 19.56600764 24.53186784 16 27.875 C10.33957541 31.05898883 7.6035091 30 0 30 C0 20.1 0 10.2 0 0 Z " fill="#BF8C30" transform="translate(988,143)"/>
<path d="M0 0 C1.62727636 2.94435317 2.43170558 5.54982111 3 8.859375 C3.1640332 9.80353271 3.32806641 10.74769043 3.49707031 11.72045898 C3.66303711 12.72020752 3.82900391 13.71995605 4 14.75 C4.17370117 15.77101807 4.34740234 16.79203613 4.52636719 17.84399414 C5.92500592 26.20892965 7.03708444 34.57448886 8 43 C3.38 43 -1.24 43 -6 43 C-6.4986603 33.95139327 -4.63907539 25.28832379 -3 16.4375 C-2.71021897 14.84062501 -2.42115026 13.24362059 -2.1328125 11.64648438 C-1.43008554 7.76278068 -0.71771832 3.88095999 0 0 Z " fill="#C3923B" transform="translate(503,515)"/>
</svg>
