<?xml version="1.0" encoding="UTF-8"?>
<svg version="1.1" xmlns="http://www.w3.org/2000/svg" width="1500" height="1500">
<path d="M0 0 C495 0 990 0 1500 0 C1500 495 1500 990 1500 1500 C1005 1500 510 1500 0 1500 C0 1005 0 510 0 0 Z " fill="#3F7E44" transform="translate(0,0)"/>
<path d="M0 0 C1.49088061 -0.00323509 2.98176094 -0.00660058 4.47264099 -0.01008606 C7.57934296 -0.01601316 10.68601741 -0.01793307 13.79272461 -0.01733398 C16.90150868 -0.01725344 20.01014312 -0.02409208 23.11889648 -0.0378418 C51.19570173 -0.15985506 79.0962168 0.837308 106.99609375 4.23046875 C107.84415588 4.3316803 108.69221802 4.43289185 109.565979 4.53717041 C141.35322899 8.38617737 173.06789668 14.64516372 203.93359375 23.16796875 C205.43043701 23.57281494 205.43043701 23.57281494 206.95751953 23.98583984 C222.55739819 28.2279343 237.71396098 33.51464537 252.89013672 39.06787109 C255.41828197 39.98170252 257.95095733 40.86556045 260.5 41.71875 C292.18962599 52.33342375 323.57614754 67.39219063 352.62451172 83.86279297 C354.77203925 85.07665237 356.92964177 86.2691477 359.09375 87.453125 C391.18392358 105.08264174 421.41550357 126.24773898 449.93359375 149.16796875 C450.86171875 149.91304687 451.78984375 150.658125 452.74609375 151.42578125 C462.82969651 159.60405209 472.71810444 168.04597519 482.31787109 176.7878418 C484.02743436 178.34342629 485.74168992 179.89387374 487.46118164 181.43847656 C495.59254577 188.79593928 503.3846704 196.46532663 511.1262207 204.23022461 C513.25684009 206.36624232 515.39280598 208.49680993 517.52929688 210.62695312 C518.91047725 212.00879382 520.29134764 213.39094442 521.671875 214.7734375 C522.29806229 215.39760056 522.92424957 216.02176361 523.56941223 216.6648407 C527.34460713 220.4598227 530.93310707 224.37227004 534.42951965 228.42578125 C536.34840008 230.64844402 538.32741805 232.81332061 540.30859375 234.98046875 C545.03935468 240.22977852 549.50356427 245.6642082 553.93359375 251.16796875 C554.85897783 252.30110572 555.78477768 253.43390324 556.7109375 254.56640625 C562.38631172 261.53814749 567.89189835 268.63402326 573.24609375 275.85546875 C573.8277832 276.62189697 574.40947266 277.3883252 575.00878906 278.17797852 C575.53698242 278.90041748 576.06517578 279.62285645 576.609375 280.3671875 C577.08286377 281.00487061 577.55635254 281.64255371 578.04418945 282.29956055 C578.93359375 284.16796875 578.93359375 284.16796875 578.69750977 286.22045898 C577.48217718 289.31879968 575.51526182 291.87982885 573.55859375 294.54296875 C573.11306152 295.1565625 572.6675293 295.77015625 572.20849609 296.40234375 C563.64617566 308.10945784 554.45841516 319.23619412 544.93359375 330.16796875 C543.94552734 331.30878906 543.94552734 331.30878906 542.9375 332.47265625 C538.33642344 337.7644256 533.64378643 342.97334169 528.93359375 348.16796875 C528.11890625 349.07675781 527.30421875 349.98554687 526.46484375 350.921875 C519.75693349 358.34447136 512.74745665 365.46134159 505.68359375 372.54296875 C505.21200836 373.01714233 504.74042297 373.49131592 504.25454712 373.9798584 C499.21096053 379.04526541 494.12579869 383.99401467 488.69873047 388.64794922 C486.10801842 390.87889987 483.62283395 393.21267648 481.12109375 395.54296875 C476.47802186 399.83227578 471.69917758 403.89475494 466.7734375 407.859375 C464.21540585 409.93887528 461.70216581 412.05849157 459.19848633 414.20239258 C452.87949062 419.60886397 446.41948404 424.79490023 439.76806641 429.78857422 C438.50698404 430.73681954 437.2490077 431.6892053 435.99365234 432.64501953 C415.38920008 448.31815592 393.70141196 462.84441841 371.2890625 475.80566406 C368.85174407 477.21530718 366.42400237 478.64062736 363.99609375 480.06640625 C320.20039332 505.61565196 274.1439189 524.7271289 225.93359375 540.16796875 C224.39421143 540.66103516 224.39421143 540.66103516 222.82373047 541.1640625 C217.22201235 542.93894526 211.59284996 544.58721455 205.93359375 546.16796875 C205.02206543 546.42852051 204.11053711 546.68907227 203.17138672 546.95751953 C171.76661561 555.86149471 138.76760187 562.14549098 106.30859375 565.73046875 C105.21160156 565.85341309 104.11460937 565.97635742 102.984375 566.10302734 C57.61445714 571.08408176 10.78495394 572.80854984 -34.70947266 568.47998047 C-38.33007875 568.14346159 -41.95279415 567.85898322 -45.578125 567.578125 C-122.76904635 561.32705163 -198.90665968 540.84969489 -269.06640625 508.16796875 C-270.18563477 507.64944336 -271.30486328 507.13091797 -272.45800781 506.59667969 C-299.7053164 493.90522927 -325.84333025 479.5440794 -351.06640625 463.16796875 C-351.98389648 462.57242187 -352.90138672 461.976875 -353.84667969 461.36328125 C-370.7692053 450.32658957 -387.15328079 438.61310298 -403.06640625 426.16796875 C-404.20543273 425.28737685 -405.34476381 424.40717882 -406.484375 423.52734375 C-417.57521983 414.93132148 -428.21652057 405.84759189 -438.58984375 396.3984375 C-440.67289252 394.52237938 -442.77576087 392.67579511 -444.890625 390.8359375 C-454.98688688 382.01522803 -464.63381128 372.69105131 -474.12890625 363.23046875 C-474.81847412 362.54549316 -475.50804199 361.86051758 -476.21850586 361.15478516 C-480.10243227 357.25905349 -483.79617622 353.25481566 -487.3894043 349.09008789 C-489.99457177 346.10413892 -492.72292201 343.23782734 -495.44140625 340.35546875 C-500.92106342 334.49311032 -506.05371195 328.43591485 -511.06640625 322.16796875 C-512.04768847 320.97638766 -513.0308867 319.78638279 -514.015625 318.59765625 C-520.14235314 311.18000588 -526.07156071 303.63591849 -531.81640625 295.91796875 C-532.42508545 295.10779297 -533.03376465 294.29761719 -533.66088867 293.46289062 C-534.22267822 292.70041016 -534.78446777 291.93792969 -535.36328125 291.15234375 C-535.86182617 290.47913086 -536.36037109 289.80591797 -536.87402344 289.11230469 C-538.13143118 287.06193711 -538.78923983 285.5570228 -539.06640625 283.16796875 C-537.74008773 280.86212141 -536.41935036 278.89240256 -534.81640625 276.79296875 C-534.36402588 276.18155029 -533.91164551 275.57013184 -533.44555664 274.94018555 C-532.00236176 273.00295966 -530.53850652 271.08330291 -529.06640625 269.16796875 C-528.60024902 268.56001465 -528.1340918 267.95206055 -527.65380859 267.32568359 C-524.50382588 263.23613516 -521.29969739 259.19186434 -518.06640625 255.16796875 C-517.31617188 254.23339844 -516.5659375 253.29882812 -515.79296875 252.3359375 C-513.57062846 249.59612086 -511.32595661 246.87718088 -509.06640625 244.16796875 C-508.63279785 243.64799316 -508.19918945 243.12801758 -507.75244141 242.59228516 C-495.04111111 227.40768933 -481.29236101 213.22183929 -467.27514648 199.24633789 C-465.1021629 197.07879233 -462.93468262 194.90584375 -460.76757812 192.73242188 C-459.35839396 191.32389748 -457.94890019 189.91568275 -456.5390625 188.5078125 C-455.90557388 187.87229965 -455.27208527 187.2367868 -454.61940002 186.58201599 C-450.80684707 182.78911068 -446.87856933 179.18166786 -442.80584717 175.66929626 C-440.58392003 173.75153044 -438.42010469 171.77327626 -436.25390625 169.79296875 C-431.98895317 165.9486863 -427.61779775 162.2726997 -423.15234375 158.6640625 C-420.91700808 156.85598719 -418.6945242 155.03684112 -416.48046875 153.203125 C-406.29113736 144.79372506 -395.77976653 136.89571267 -385.06640625 129.16796875 C-384.36435059 128.65911133 -383.66229492 128.15025391 -382.93896484 127.62597656 C-366.51788581 115.74956327 -349.56358246 104.49205374 -332.03515625 94.31201172 C-330.64218713 93.5025557 -329.25180841 92.68863425 -327.86328125 91.87158203 C-258.56852534 51.12936317 -182.45622979 23.21572468 0 0 Z " fill="#FEFEFE" transform="translate(741.06640625,661.83203125)"/>
<path d="M0 0 C0.68835938 0.10683105 1.37671875 0.21366211 2.0859375 0.32373047 C57.54481591 9.0826664 111.85780816 42.24751639 145.390625 87.35546875 C164.33895634 113.58661294 189.68942372 151.13318272 187 185 C185.70798531 188.94782268 184.4798593 190.57726681 181.375 193.3125 C176.39702447 195.80148777 171.71432443 196.61689192 166.25 195.375 C163.36955152 193.61472593 161.32776142 191.44131075 159 189 C155.5210007 185.68710677 152.82062176 183.74915068 148 183 C147.64952971 192.35885467 147.57897287 198.67840225 152.6875 206.625 C154.23611968 209.42726418 154.34639097 210.83918238 154 214 C148.10273964 222.2490379 136.43857629 226.28246605 127 228.5625 C122.29736443 229.77564367 119.86351939 230.87316323 117 235 C112.69611884 242.8884507 110.72781074 250.0053264 112 259 C113.58063172 263.2400965 115.71090766 267.04243409 118 270.9375 C119.13397371 272.92067699 120.25935751 274.90879687 121.375 276.90234375 C122.12910156 278.19386353 122.12910156 278.19386353 122.8984375 279.51147461 C124.11892953 282.26867213 124.37364623 284.01871966 124 287 C122 289 122 289 119.23046875 289.33984375 C109.57454037 288.32404476 100.11351346 278.15527472 93 272 C92.34128906 271.46117187 91.68257812 270.92234375 91.00390625 270.3671875 C83.22810607 263.47460739 79.85089083 253.3806536 76.32421875 243.88671875 C76.08730316 243.24941833 75.85038757 242.61211792 75.60629272 241.95550537 C74.40664413 238.71813697 73.22866419 235.47513358 72.08300781 232.21826172 C69.58678478 225.34134049 67.36569689 220.05656209 62 215 C57.6873149 213.5624383 53.33813315 212.83155859 49.17382812 214.91259766 C47.42959505 215.90811034 45.71275155 216.95124996 44 218 C44.0928125 219.11375 44.185625 220.2275 44.28125 221.375 C45.01932179 234.34847121 42.2587857 244.16400031 34.046875 254.4453125 C32 256 32 256 29.5078125 256.50390625 C26.16277807 255.83177316 25.11166515 254.48457685 22.875 251.9375 C14.83821392 243.50350868 6.0198946 239.29124228 -4.93408203 235.68310547 C-8.95152558 234.35471891 -12.94743851 232.970757 -16.9375 231.5625 C-17.73027344 231.29824219 -18.52304687 231.03398438 -19.33984375 230.76171875 C-25.98944239 228.40290842 -31.12466713 225.25715709 -34.70703125 219.03515625 C-35.07183594 218.05417969 -35.43664062 217.07320312 -35.8125 216.0625 C-36.21339844 215.01964844 -36.61429688 213.97679687 -37.02734375 212.90234375 C-38 210 -38 210 -38.875 206.125 C-41.70558158 198.26227338 -49.77562729 195.52635135 -56.79223633 192.18530273 C-63.55235935 188.8949635 -69.14085407 184.68343008 -75 180 C-78.18762365 177.87491756 -80.26512223 177.4979837 -84 177 C-84.42767618 179.57577701 -84.39607819 181.35889697 -83.00390625 183.61230469 C-81.55981352 185.42579215 -80.05508022 187.15569146 -78.5 188.875 C-77.94610596 189.502854 -77.39221191 190.13070801 -76.8215332 190.77758789 C-73.53388207 194.45292245 -70.15566946 197.81959798 -66.34375 200.953125 C-62.80548118 204.0432131 -59.50947481 207.36788986 -56.1875 210.6875 C-55.52838623 211.34226318 -54.86927246 211.99702637 -54.19018555 212.67163086 C-53.564104 213.29948486 -52.93802246 213.92733887 -52.29296875 214.57421875 C-51.7311792 215.13713623 -51.16938965 215.70005371 -50.59057617 216.2800293 C-47.51477432 219.60604987 -46.08574805 221.2405173 -45.5625 225.875 C-45.82193542 231.71229694 -49.02612761 235.24899774 -53.125 239.125 C-59.28921783 244.14330554 -67.94622109 247.65049753 -76 247 C-80.48675708 244.75662146 -83.49572306 241.53027306 -87 238 C-87.80179688 237.20980469 -88.60359375 236.41960937 -89.4296875 235.60546875 C-94.51633849 230.57569724 -99.33320547 225.41748534 -104 220 C-106.6991873 216.99233415 -108.09987494 215.83170369 -112 215 C-110.28249108 232.328896 -104.68988621 244.72749565 -91.46875 256.16015625 C-88.8354626 258.12262202 -86.16492354 259.61660543 -83.25 261.125 C-78.57835409 263.55924246 -75.63842813 265.38275077 -73 270 C-73 273.4375 -73 273.4375 -74 277 C-74.309375 278.11375 -74.61875 279.2275 -74.9375 280.375 C-76.95545449 284.8284168 -80.77338748 287.53994625 -84.41796875 290.65625 C-88.84536836 294.67506961 -93.08933093 299.26799279 -95 305 C-95.06821463 306.58855256 -95.08508588 308.17958339 -95.0703125 309.76953125 C-95.1305096 320.65061335 -95.86918077 330.69057006 -99.125 341.125 C-99.39586426 342.02968018 -99.66672852 342.93436035 -99.94580078 343.86645508 C-101.76849039 349.24140493 -103.82651618 352.38479888 -108.44018555 355.7355957 C-111.86386202 358.5108689 -112.66660971 362.8591323 -113.8515625 366.9140625 C-117.89570696 380.69045704 -123.1017894 394.47564456 -136.23046875 401.6796875 C-144.13913743 405.44996961 -153.120985 408.98609546 -162 407 C-165.41667855 404.33781241 -166.79779063 401.67501015 -168.1875 397.625 C-168.51105469 396.70976563 -168.83460938 395.79453125 -169.16796875 394.8515625 C-171.16063506 388.02223664 -171.29710046 381.19071893 -171.5625 374.125 C-171.60568359 373.05507812 -171.64886719 371.98515625 -171.69335938 370.8828125 C-171.79892817 368.25532246 -171.90103791 365.62774578 -172 363 C-172.79035645 363.03843018 -173.58071289 363.07686035 -174.39501953 363.11645508 C-175.25466309 363.0780249 -176.11430664 363.03959473 -177 363 C-180.73091111 358.86129163 -181.1775581 353.12196442 -182.125 347.8125 C-182.45853484 346.00606514 -182.79436076 344.20005134 -183.1328125 342.39453125 C-183.34768311 341.20114136 -183.34768311 341.20114136 -183.56689453 339.98364258 C-183.92816198 337.93856988 -183.92816198 337.93856988 -185 336 C-189.18001995 335.91803882 -192.92212105 336.10554296 -197 337 C-197.30744141 335.75283203 -197.30744141 335.75283203 -197.62109375 334.48046875 C-197.89050781 333.39378906 -198.15992188 332.30710937 -198.4375 331.1875 C-198.83775391 329.56908203 -198.83775391 329.56908203 -199.24609375 327.91796875 C-199.76077412 325.9259157 -200.34937175 323.95188476 -201 322 C-202.31399038 321.29597479 -203.65123021 320.63485612 -205 320 C-206.42870775 318.85226261 -207.82443231 317.66247078 -209.1875 316.4375 C-209.88230469 315.81746094 -210.57710937 315.19742187 -211.29296875 314.55859375 C-212.20988176 313.72141231 -213.1220472 312.8779528 -214 312 C-223.05197061 311.05708639 -228.08801624 314.43772264 -235.5390625 319.17773438 C-240.61356892 322.2216527 -244.06364322 323.610653 -249.9921875 322.80053711 C-253.73410704 321.30859229 -255.57625958 318.93284106 -257.21679688 315.32128906 C-257.71276367 313.80873535 -257.71276367 313.80873535 -258.21875 312.265625 C-258.77816284 310.58158569 -258.77816284 310.58158569 -259.34887695 308.86352539 C-259.72874756 307.67106201 -260.10861816 306.47859863 -260.5 305.25 C-261.09590942 303.40619751 -261.09590942 303.40619751 -261.70385742 301.52514648 C-262.82324596 298.02281195 -263.91880275 294.51429073 -265 291 C-265.24314941 290.21447754 -265.48629883 289.42895508 -265.73681641 288.61962891 C-272.72713165 265.42371 -273.93486084 241.04730216 -273 217 C-272.98163086 215.99187256 -272.96326172 214.98374512 -272.94433594 213.94506836 C-272.64535818 207.26314379 -271.12051377 203.5922208 -266.625 198.6875 C-265.63319324 197.54976334 -264.64611559 196.40788499 -263.6640625 195.26171875 C-263.19532715 194.72023193 -262.7265918 194.17874512 -262.24365234 193.62084961 C-260.77915282 191.82991955 -260.77915282 191.82991955 -259.453125 188.734375 C-257.22697148 184.54537643 -254.49798593 183.98909354 -250.1328125 182.6328125 C-232.63010459 179.0973528 -212.03650824 188.74504207 -196 195 C-194.75331543 195.48533203 -194.75331543 195.48533203 -193.48144531 195.98046875 C-186.55414939 198.6799002 -186.55414939 198.6799002 -183.78491211 199.77880859 C-175.07746888 203.21456179 -165.89043545 205.12769668 -156.77734375 201.8359375 C-152.10182125 199.38176014 -147.37714503 196.86748745 -145 192 C-144.26945599 187.63244654 -144.22711168 184.26753685 -146.5625 180.4375 C-149.90384403 178.46696377 -152.17997175 178.59071126 -156 179 C-156.70125 179.350625 -157.4025 179.70125 -158.125 180.0625 C-160.82680302 181.41340151 -162.15728958 180.93632302 -165 180 C-167.0625 177.78515625 -167.0625 177.78515625 -169 175.0625 C-171.70634729 171.27033999 -173.49413906 169.36896817 -178 168 C-176.86610467 174.5236186 -176.86610467 174.5236186 -174.875 180.8125 C-173.86519108 183.33702229 -173.84603668 185.30564195 -174 188 C-176.71003074 187.64574762 -177.80188778 187.21612242 -179.67578125 185.171875 C-182.96514966 180.30455182 -185.8742772 175.41526072 -188.5625 170.1875 C-192.10565772 163.46962675 -192.10565772 163.46962675 -198 159 C-202.639295 158.74226139 -205.17347497 159.94896556 -208.6875 162.75 C-217.44256769 169.69767682 -227.9851164 171.93310809 -238.7019043 174.21313477 C-243.40127365 175.23912387 -246.92136834 176.35824408 -251 179 C-253.94201348 179.59810164 -255.92960792 179.34665717 -259 179 C-262.20341919 176.10658912 -262.7992101 172.76408265 -263.2734375 168.59765625 C-263.45009202 164.1880876 -263.50151166 161.75226749 -261 158 C-254.92783526 153.95189017 -248.14112299 153.30720449 -241 154 C-238.9921136 154.64252365 -236.99117408 155.30741771 -235 156 C-231.07962389 156.41267117 -228.69342584 156.29507483 -225.0625 154.75 C-222.11601703 150.82135604 -222.79634826 147.5458346 -223.21484375 142.77734375 C-223 140 -223 140 -221.359375 138.3046875 C-218.71222002 136.84086339 -216.04578133 135.48446879 -213.3125 134.1875 C-209.39950216 132.2832377 -205.84223852 130.29166031 -202.3125 127.75 C-193.59700824 121.82594688 -183.17851381 122.30716823 -173 123 C-168.76213202 123.85277344 -164.86538063 125.06730969 -161 127 C-153.91060481 127.72803553 -147.76634802 127.46503967 -142 123 C-139.95598033 120.84358007 -138.05749308 118.6058731 -136.1640625 116.31640625 C-133.1358951 113.07506461 -129.65434576 110.84472763 -125.90625 108.5078125 C-125.2771875 108.01023437 -124.648125 107.51265625 -124 107 C-124 106.01 -124 105.02 -124 104 C-127.70660707 101.52892862 -131.69948496 101.20670111 -136 102 C-139.89503966 104.54369937 -142.45924119 107.52168119 -145.4375 111.0625 C-149.05293258 115.24754121 -152.32860092 118.38218236 -158.01953125 119.33984375 C-167.85814525 119.78302456 -176.88354405 116.3191766 -185.5625 112.0625 C-186.25351807 111.72669922 -186.94453613 111.39089844 -187.65649414 111.04492188 C-191.27151098 109.19423371 -194.04260739 107.63099968 -196 104 C-196.29386241 100.17978861 -195.79358219 97.96536939 -193.33984375 94.98046875 C-181.28239637 83.53574102 -168.00471702 81.10767631 -152.07189941 79.90933228 C-139.82463537 78.96749869 -128.18538752 77.34717159 -116.3203125 73.98144531 C-108.95114034 71.94671219 -100.21131117 69.7504327 -93.14941406 73.52270508 C-92.44010742 74.0102124 -91.73080078 74.49771973 -91 75 C-91.22924805 76.83178711 -91.22924805 76.83178711 -92 79 C-93.88598633 80.41625977 -93.88598633 80.41625977 -96.33203125 81.69140625 C-97.65364258 82.39620117 -97.65364258 82.39620117 -99.00195312 83.11523438 C-99.92943359 83.59283203 -100.85691406 84.07042969 -101.8125 84.5625 C-103.63291555 85.51946722 -105.45197691 86.47901586 -107.26953125 87.44140625 C-108.08010986 87.86107666 -108.89068848 88.28074707 -109.72583008 88.71313477 C-112.00138241 90.00078225 -114.0285969 91.27987332 -116 93 C-116.41717279 95.58462162 -116.41717279 95.58462162 -116 98 C-115.67 98.33 -115.34 98.66 -115 99 C-109.27084068 98.63417706 -104.8409125 97.37940716 -99.75 94.6875 C-99.08540771 94.34356201 -98.42081543 93.99962402 -97.73608398 93.64526367 C-95.4761201 92.45533196 -93.23631751 91.23379877 -91 90 C-90.11908691 89.5143457 -89.23817383 89.02869141 -88.33056641 88.52832031 C-85.55940315 86.9813755 -82.8084819 85.40366418 -80.0625 83.8125 C-79.17981445 83.31387451 -78.29712891 82.81524902 -77.38769531 82.30151367 C-76.57010742 81.81658447 -75.75251953 81.33165527 -74.91015625 80.83203125 C-74.17933838 80.40639893 -73.44852051 79.9807666 -72.69555664 79.54223633 C-70.48009024 77.52710296 -70.32106082 75.91775903 -70 73 C-70.64066406 72.49210938 -71.28132812 71.98421875 -71.94140625 71.4609375 C-74.63545681 69.31693899 -77.31754381 67.15847787 -80 65 C-80.69867187 64.4534375 -81.39734375 63.906875 -82.1171875 63.34375 C-82.71789062 62.8590625 -83.31859375 62.374375 -83.9375 61.875 C-84.46214844 61.45992187 -84.98679687 61.04484375 -85.52734375 60.6171875 C-88.6132944 57.22837167 -89.9628038 54.10224754 -90.1171875 49.52734375 C-90.03726563 48.34269531 -89.95734375 47.15804687 -89.875 45.9375 C-89.72285182 40.59423973 -89.72285182 40.59423973 -91.875 35.8125 C-100.78997556 30.64181418 -109.91701174 30.54942621 -120 30.6875 C-121.40494657 30.69618465 -122.80989454 30.70464524 -124.21484375 30.71289062 C-137.19020155 30.83457628 -150.08627468 31.7381599 -163 33 C-126.88041199 -5.09661758 -47.69389241 -7.8638144 0 0 Z " fill="#3F7E44" transform="translate(801,718)"/>
<path d="M0 0 C1.29357422 -0.00773437 2.58714844 -0.01546875 3.91992188 -0.0234375 C24.11087601 0.01745557 43.76337478 5.23495292 58.8125 19.3125 C73.74960349 35.02555692 78.4682725 54.75531501 78.4375 75.9375 C78.43662384 76.59919189 78.43574768 77.26088379 78.43484497 77.94262695 C78.35059172 97.2421599 74.19042849 114.81522096 60.3984375 129.125 C55.44287196 133.633073 50.32296854 136.88590698 44.0625 139.25 C45.3309375 139.97703125 45.3309375 139.97703125 46.625 140.71875 C62.57805226 150.14555361 71.64251197 162.03596476 76.37109375 179.99609375 C82.31621845 207.97512695 79.22653893 240.68308092 65.1875 265.75 C55.42207278 280.75982332 42.03156907 289.8865746 24.6328125 293.8671875 C16.94519262 295.45647451 9.51750185 295.70908904 1.6875 295.625 C0.6716835 295.61851944 0.6716835 295.61851944 -0.36465454 295.61190796 C-21.16784865 295.45642452 -39.07386438 291.98134666 -54.8984375 277.44921875 C-74.92439993 256.29056614 -75.9375 226.59270675 -75.9375 199.25 C-57.7875 199.25 -39.6375 199.25 -20.9375 199.25 C-20.4425 210.635 -20.4425 210.635 -19.9375 222.25 C-17.4591248 236.00565938 -17.4591248 236.00565938 -9.0625 246.625 C-2.92458843 249.76686834 5.14515299 249.44746859 11.60546875 247.47265625 C16.48365242 244.90085585 18.42003359 241.41114634 20.2734375 236.3359375 C22.59047078 227.27427269 23.37857825 218.65706537 23.3125 209.3125 C23.32023437 208.22259766 23.32796875 207.13269531 23.3359375 206.00976562 C23.30993332 195.06850548 22.19023767 185.02286473 17.0625 175.25 C16.60875 174.321875 16.155 173.39375 15.6875 172.4375 C12.22864379 167.78134741 7.50848727 165.76106102 2.0625 164.25 C-1.38579197 163.74473614 -4.84125208 163.4274129 -8.3125 163.125 C-11.48875 162.83625 -14.665 162.5475 -17.9375 162.25 C-17.9375 149.05 -17.9375 135.85 -17.9375 122.25 C-11.9975 121.92 -6.0575 121.59 0.0625 121.25 C8.60099352 118.88289288 13.5345694 116.51194739 18.25 108.875 C25.0982596 96.03451325 25.36883467 74.81042009 21.8125 60.875 C21.27645198 59.31626128 20.69784246 57.77097135 20.0625 56.25 C19.79566406 55.56808594 19.52882813 54.88617188 19.25390625 54.18359375 C17.30830041 50.0416151 14.77622559 47.69396537 10.67578125 45.91015625 C3.83259226 44.18145828 -4.00270378 43.61879129 -10.26171875 47.09765625 C-17.32765178 52.78134837 -18.46214381 60.67888309 -19.9375 69.25 C-20.2675 77.5 -20.5975 85.75 -20.9375 94.25 C-39.0875 94.25 -57.2375 94.25 -75.9375 94.25 C-75.9375 40.67307692 -75.9375 40.67307692 -55.6875 19.5 C-39.90432619 4.42545849 -21.2748872 -0.12682496 0 0 Z " fill="#FEFEFE" transform="translate(289.9375,124.75)"/>
<path d="M0 0 C14.19 0 28.38 0 43 0 C43 95.04 43 190.08 43 288 C24.85 288 6.7 288 -12 288 C-12 212.1 -12 136.2 -12 58 C-30.58899019 64.96429801 -30.58899019 64.96429801 -49.1484375 72.00390625 C-52 73 -52 73 -54 73 C-54 59.47 -54 45.94 -54 32 C-48.3384375 29.339375 -48.3384375 29.339375 -42.5625 26.625 C-27.44125758 19.40806574 -12.00153021 12.00153021 0 0 Z " fill="#FEFEFE" transform="translate(143,128)"/>
<path d="M0 0 C5.02318429 2.02426829 6.61674247 8.26070153 8.66796875 12.94921875 C10.51974483 21.02969618 9.03127887 27.03910424 5.48046875 34.38671875 C5.07554199 35.25071289 4.67061523 36.11470703 4.25341797 37.00488281 C-6.18060986 58.92954889 -19.11427564 78.81487806 -35.6171875 96.671875 C-37.33030832 98.59624772 -38.78990951 100.53614099 -40.26953125 102.63671875 C-42.64453125 104.94921875 -42.64453125 104.94921875 -46.20703125 104.94921875 C-49.64453125 103.94921875 -49.64453125 103.94921875 -51.58203125 102.88671875 C-54.84435031 101.40384645 -58.12366313 101.44000229 -61.64453125 101.94921875 C-63.85176705 103.43722247 -63.85176705 103.43722247 -65.64453125 104.94921875 C-67.81421334 104.70125508 -69.08686732 104.50688268 -70.64453125 102.94921875 C-70.46817673 100.25839003 -70.02617204 97.62070429 -69.64453125 94.94921875 C-75.03178742 97.10412122 -79.91418041 99.76899495 -84.8984375 102.7421875 C-88.02096547 104.11467846 -90.26974581 104.17222219 -93.64453125 103.94921875 C-96.45251175 98.91450153 -97.84668021 93.93540613 -99.20703125 88.38671875 C-100.65211206 82.26784042 -100.65211206 82.26784042 -102.7734375 76.37109375 C-105.34975239 69.20824518 -104.68946035 58.55530235 -102.08203125 51.44921875 C-99.64985922 46.40503098 -96.32738697 42.13924739 -92.64453125 37.94921875 C-92.09796875 37.30855469 -91.55140625 36.66789062 -90.98828125 36.0078125 C-79.77178285 23.75960788 -60.8568386 21.40531816 -45.39453125 17.94921875 C-30.50619721 14.59302417 -17.75212155 10.03077121 -5.11328125 1.17578125 C-2.64453125 -0.05078125 -2.64453125 -0.05078125 0 0 Z " fill="#407E45" transform="translate(969.64453125,1008.05078125)"/>
<path d="M0 0 C8.27743985 5.41351551 10.76360383 13.64060136 12.9765625 22.8984375 C13.49164852 27.41043136 13.53946665 31.86039732 13.5078125 36.3984375 C13.51355286 38.2556543 13.51355286 38.2556543 13.51940918 40.15039062 C13.52211166 42.74870627 13.5148683 45.3470499 13.49804688 47.9453125 C13.47661571 51.88864664 13.49790831 55.83015902 13.5234375 59.7734375 C13.52079393 62.31510813 13.51566836 64.85677764 13.5078125 67.3984375 C13.51590942 68.55923828 13.52400635 69.72003906 13.53234863 70.91601562 C13.4185617 81.00778936 11.71307954 91.97312334 4.9765625 99.8984375 C0.69402864 104.08364104 -3.38801769 106.2100931 -9.0234375 107.8984375 C-9.62800781 108.08277344 -10.23257813 108.26710938 -10.85546875 108.45703125 C-21.58839941 110.64229461 -31.57085186 108.68582472 -40.8984375 103.2109375 C-48.13318217 95.337833 -51.11313252 85.47101072 -51.18457031 74.95996094 C-51.19417786 73.81146667 -51.2037854 72.66297241 -51.21368408 71.47967529 C-51.21793396 70.25146057 -51.22218384 69.02324585 -51.2265625 67.7578125 C-51.23226257 66.48045227 -51.23796265 65.20309204 -51.24383545 63.88702393 C-51.25430617 61.18721116 -51.26017421 58.48742783 -51.26367188 55.78759766 C-51.26914337 52.35382803 -51.29315877 48.92045752 -51.32164383 45.48681259 C-51.34492102 42.18132149 -51.34672957 38.87588117 -51.3515625 35.5703125 C-51.3639093 34.3501947 -51.3762561 33.1300769 -51.38897705 31.87298584 C-51.35889465 20.23432539 -49.05709866 10.28701991 -40.8984375 1.6484375 C-28.57785574 -5.85104705 -12.86877447 -7.0057807 0 0 Z " fill="#FBFCFB" transform="translate(753.0234375,310.1015625)"/>
<path d="M0 0 C1.20003662 -0.02126953 1.20003662 -0.02126953 2.42431641 -0.04296875 C8.79485684 0.00964773 13.65427488 1.51463744 19.375 4.375 C18.27039891 7.68880327 17.8105748 8.04946077 15.04296875 9.90625 C13.98517212 10.619021 13.98517212 10.619021 12.90600586 11.34619141 C12.13264893 11.85069824 11.35929199 12.35520508 10.5625 12.875 C9.75498291 13.40399902 8.94746582 13.93299805 8.11547852 14.47802734 C-39.85655386 45.46852339 -103.12956836 61.80837767 -160.05273438 49.93164062 C-160.90158203 49.74794922 -161.75042969 49.56425781 -162.625 49.375 C-163.65947266 49.16037109 -164.69394531 48.94574219 -165.75976562 48.72460938 C-169.09874077 48.01787586 -172.42491527 47.26929854 -175.75 46.5 C-176.78946777 46.26780762 -177.82893555 46.03561523 -178.89990234 45.79638672 C-186.08647356 44.00965684 -186.08647356 44.00965684 -188.76953125 40.84765625 C-190.20418618 36.70091391 -190.42433064 34.08704152 -188.5234375 30.015625 C-181.64346787 17.87450213 -171.83378655 10.44521675 -158.46875 6.42578125 C-129.15478125 -0.04657867 -101.56000465 8.0958737 -73.90234375 17.67578125 C-72.83435547 18.04421143 -71.76636719 18.4126416 -70.66601562 18.79223633 C-68.6606979 19.49185748 -66.66022492 20.2055959 -64.66601562 20.9362793 C-58.70244181 23.02932513 -52.95049173 24.66694574 -46.625 23.375 C-43.92561007 21.92936012 -41.95251525 20.04443238 -39.8125 17.875 C-38.61947699 16.76543613 -37.42013074 15.66263577 -36.21484375 14.56640625 C-35.32128174 13.75067139 -35.32128174 13.75067139 -34.40966797 12.91845703 C-24.04237849 3.9523826 -13.45499642 0.18583536 0 0 Z " fill="#407E45" transform="translate(881.625,1128.625)"/>
<path d="M0 0 C6.93 0 13.86 0 21 0 C21.49628906 2.42085937 21.99257813 4.84171875 22.50390625 7.3359375 C26.99214679 29.22611676 31.49003536 51.11428619 36 73 C37.8435352 67.9262951 38.94260529 62.84183873 39.98828125 57.5625 C40.1719072 56.6525679 40.35553314 55.7426358 40.54472351 54.80513 C40.93550861 52.86823777 41.32477741 50.93103908 41.71264648 48.99356079 C42.7116413 44.00809078 43.72441366 39.02543239 44.73828125 34.04296875 C44.93527618 33.07449509 45.13227112 32.10602142 45.3352356 31.10820007 C46.82084919 23.82688392 48.35635035 16.56004901 50 9.3125 C50.19505127 8.44302734 50.39010254 7.57355469 50.59106445 6.67773438 C51.87117731 1.12882269 51.87117731 1.12882269 53 0 C54.4887186 -0.08669432 55.981445 -0.10703494 57.47265625 -0.09765625 C58.28226807 -0.09515869 59.09187988 -0.09266113 59.92602539 -0.09008789 C60.96106201 -0.08098389 61.99609863 -0.07187988 63.0625 -0.0625 C64.83520291 -0.05101153 66.60790819 -0.0398853 68.38061523 -0.02905273 C69.92041016 -0.01936849 71.46020508 -0.00968424 73 0 C73.77174029 24.05524867 74.24632162 48.10477481 74.53222656 72.17041016 C74.58385713 76.46324236 74.63877863 80.7560326 74.69335938 85.04882812 C74.79865298 93.36584984 74.900227 101.68291023 75 110 C69.72 110 64.44 110 59 110 C58.34 88.22 57.68 66.44 57 44 C51.40502204 69.47505375 51.40502204 69.47505375 46.0625 95 C45.75736055 96.49222823 45.45202078 97.9844155 45.14648438 99.4765625 C44.42838035 102.98385222 43.71420959 106.4919067 43 110 C38.71 110 34.42 110 30 110 C28.46807382 102.88888396 26.93766193 95.77744591 25.40980721 88.66545391 C24.70006682 85.36197594 23.98970131 82.05863516 23.27783203 78.75561523 C22.45701514 74.94550112 21.63845753 71.13490737 20.8203125 67.32421875 C20.56814972 66.15606125 20.31598694 64.98790375 20.05618286 63.78434753 C18.72058818 57.5522726 17.48658106 51.32237862 16.43600464 45.03547668 C16.19595658 43.01485061 16.19595658 43.01485061 15 42 C14.67 64.44 14.34 86.88 14 110 C8.72 110 3.44 110 -2 110 C-2.1320246 87.6585037 -1.94627567 65.32523499 -1.59428024 42.9864769 C-1.56265909 40.94775696 -1.53260251 38.90901936 -1.50296021 36.87026978 C-1.44524895 32.98504129 -1.38173349 29.09995086 -1.31640625 25.21484375 C-1.29968872 24.05973297 -1.28297119 22.90462219 -1.26574707 21.71450806 C-1.13405337 14.43563765 -0.67284663 7.24943494 0 0 Z " fill="#FBFCFB" transform="translate(639,128)"/>
<path d="M0 0 C4.62 0 9.24 0 14 0 C22.5467333 18.91309368 30.87636527 37.90106326 39 57 C39.01030746 56.30064835 39.02061493 55.60129669 39.03123474 54.88075256 C39.12905032 48.30286337 39.23154157 41.7250658 39.33933926 35.14733219 C39.39459802 31.76532878 39.44802256 28.38331676 39.49731445 25.0012207 C39.55400946 21.11660573 39.61857585 17.23214122 39.68359375 13.34765625 C39.70866249 11.51800072 39.70866249 11.51800072 39.73423767 9.65138245 C39.75418289 8.53029587 39.77412811 7.40920929 39.79467773 6.25415039 C39.81022202 5.26153702 39.8257663 4.26892365 39.84178162 3.24623108 C40 1 40 1 41 0 C46.28 0 51.56 0 57 0 C57 36.3 57 72.6 57 110 C52.71 110 48.42 110 44 110 C41.0824846 104.3168343 38.49032416 98.58054096 36.06640625 92.671875 C35.52668434 91.36648773 35.52668434 91.36648773 34.97605896 90.034729 C33.83543383 87.27428734 32.69886546 84.51219754 31.5625 81.75 C30.8043121 79.91264665 30.04585076 78.07540611 29.28710938 76.23828125 C28.20904904 73.62773209 27.13134023 71.01704562 26.05580139 68.40545654 C23.38853469 61.92924609 20.69391642 55.46539941 18 49 C17.67 69.13 17.34 89.26 17 110 C11.39 110 5.78 110 0 110 C0 73.7 0 37.4 0 0 Z " fill="#FCFDFC" transform="translate(776,307)"/>
<path d="M0 0 C6.93 0 13.86 0 21 0 C22.26908719 3.80726156 23.30987994 7.06294082 24.04980469 10.91845703 C24.23070648 11.8496637 24.41160828 12.78087036 24.59799194 13.74029541 C24.78737335 14.73607605 24.97675476 15.73185669 25.171875 16.7578125 C25.37487213 17.80612244 25.57786926 18.85443237 25.78701782 19.93450928 C26.22035402 22.17296889 26.65203888 24.4117487 27.08221436 26.65081787 C28.19915175 32.46173034 29.32906348 38.27010582 30.4609375 44.078125 C30.68210236 45.21333588 30.90326721 46.34854675 31.13113403 47.51815796 C32.78822038 55.99145321 34.53112228 64.44039723 36.375 72.875 C38.12747605 80.90141317 39.82165779 88.93237242 41.375 97 C41.54306152 97.86222168 41.71112305 98.72444336 41.88427734 99.61279297 C42.0333252 100.40057129 42.18237305 101.18834961 42.3359375 102 C42.46532715 102.680625 42.5947168 103.36125 42.72802734 104.0625 C43 106 43 106 43 110 C37.06 110 31.12 110 25 110 C23.31104206 106.62208411 22.65313594 104.81314579 22.1484375 101.234375 C21.95507812 99.90019531 21.95507812 99.90019531 21.7578125 98.5390625 C21.63148438 97.61867188 21.50515625 96.69828125 21.375 95.75 C21.2409375 94.81414062 21.106875 93.87828125 20.96875 92.9140625 C20.63963423 90.61025208 20.31898998 88.30523427 20 86 C13.73 85.67 7.46 85.34 1 85 C1 87.31 1 89.62 1 92 C0.83787509 93.46141194 0.63701083 94.91964083 0.37890625 96.3671875 C0.24806641 97.10710937 0.11722656 97.84703125 -0.01757812 98.609375 C-0.15615234 99.35703125 -0.29472656 100.1046875 -0.4375 100.875 C-0.57220703 101.64585937 -0.70691406 102.41671875 -0.84570312 103.2109375 C-1.86624765 108.86624765 -1.86624765 108.86624765 -3 110 C-4.41570123 110.08651611 -5.835595 110.10704904 -7.25390625 110.09765625 C-8.10791016 110.09443359 -8.96191406 110.09121094 -9.84179688 110.08789062 C-10.73962891 110.07951172 -11.63746094 110.07113281 -12.5625 110.0625 C-13.46419922 110.05798828 -14.36589844 110.05347656 -15.29492188 110.04882812 C-17.53001314 110.03700225 -19.76497437 110.0205222 -22 110 C-21.20838961 102.32891836 -19.63067106 94.83407215 -18.0859375 87.28515625 C-17.79003176 85.82869375 -17.49435192 84.37218534 -17.19888306 82.91563416 C-16.57698517 79.85312533 -15.95309342 76.791032 -15.32763672 73.72924805 C-14.54831784 69.91402752 -13.77270318 66.09806744 -12.99848557 62.28180885 C-8.78051781 41.49647294 -4.43314007 20.7404586 0 0 Z " fill="#FCFDFC" transform="translate(742,128)"/>
<path d="M0 0 C6.93 0 13.86 0 21 0 C22.38678491 4.16035472 23.46752949 7.84714074 24.30932617 12.0925293 C24.54706757 13.28155853 24.78480896 14.47058777 25.02975464 15.69564819 C25.40754562 17.61554062 25.40754562 17.61554062 25.79296875 19.57421875 C26.06249162 20.92915581 26.33236601 22.28402299 26.60256958 23.63882446 C27.32080437 27.24491815 28.03438475 30.85191747 28.74692154 34.45914078 C29.48076133 38.17075812 30.21839984 41.88162006 30.95581055 45.5925293 C31.83111843 49.99836768 32.70609503 54.40427011 33.57911682 58.81056213 C35.17409851 66.85888446 36.78179588 74.90445545 38.4140625 82.9453125 C38.74715994 84.59024898 39.0802496 86.23518704 39.41333008 87.88012695 C39.85705732 90.07052251 40.30187583 92.26066101 40.75057983 94.45004272 C41.14567103 96.37877086 41.53589107 98.30849501 41.92578125 100.23828125 C42.13630127 101.26993408 42.34682129 102.30158691 42.5637207 103.36450195 C43 106 43 106 43 110 C36.73 110 30.46 110 24 110 C23.505 106.98875 23.01 103.9775 22.5 100.875 C22.34337891 99.93769043 22.18675781 99.00038086 22.02539062 98.03466797 C21.90357422 97.27814941 21.78175781 96.52163086 21.65625 95.7421875 C21.53056641 94.9776123 21.40488281 94.21303711 21.27539062 93.42529297 C20.95836185 90.63330371 21 87.80993083 21 85 C14.4 85 7.8 85 1 85 C0.42574357 90.23371424 0.42574357 90.23371424 -0.13623047 95.46875 C-0.21244629 96.1390625 -0.28866211 96.809375 -0.3671875 97.5 C-0.44050293 98.1703125 -0.51381836 98.840625 -0.58935547 99.53125 C-1.17691967 103.0636217 -2.13150294 106.52601175 -3 110 C-9.27 110 -15.54 110 -22 110 C-17.83472075 84.89326156 -12.50905021 60.02671565 -7.28320312 35.12402344 C-5.61035583 27.14846886 -3.95947331 19.16843021 -2.3125 11.1875 C-1.85031797 8.95181102 -1.38808633 6.71613229 -0.92578125 4.48046875 C-0.46751953 2.26263672 -0.46751953 2.26263672 0 0 Z " fill="#FCFDFC" transform="translate(499,307)"/>
<path d="M0 0 C4.94946711 3.84958553 7.93958133 9.80306803 9.1875 15.875 C9.26661543 17.53489282 9.29528885 19.1976287 9.28515625 20.859375 C9.28193359 21.79394531 9.27871094 22.72851562 9.27539062 23.69140625 C9.26282227 25.14353516 9.26282227 25.14353516 9.25 26.625 C9.24548828 27.60855469 9.24097656 28.59210938 9.23632812 29.60546875 C9.224565 32.02867194 9.20663018 34.45184377 9.1875 36.875 C2.9175 36.875 -3.3525 36.875 -9.8125 36.875 C-10.1875 28.25 -10.1875 28.25 -10.29052734 25.56787109 C-10.51626877 21.02954905 -11.00558402 17.11099351 -12.8125 12.875 C-16.61888437 9.77350162 -21.49752436 10.68729927 -26.125 11.0625 C-28.0309404 11.77022868 -28.0309404 11.77022868 -28.90080261 14.01185608 C-29.95238486 17.31430199 -30.07340583 20.03225097 -30.0871582 23.49780273 C-30.09226913 24.14238434 -30.09738007 24.78696594 -30.10264587 25.45108032 C-30.11648421 27.57034735 -30.11558957 29.68928706 -30.11328125 31.80859375 C-30.11717128 33.28923156 -30.12150658 34.76986827 -30.12626648 36.25050354 C-30.13371623 39.34973777 -30.13344643 42.44885806 -30.12817383 45.5480957 C-30.12237996 49.51028771 -30.13931382 53.47201213 -30.1625185 57.43412685 C-30.17728423 60.49085698 -30.17812372 63.54747522 -30.17500877 66.6042347 C-30.17552053 68.0646056 -30.18073093 69.524983 -30.19082069 70.98531914 C-30.20322397 73.03145197 -30.19637148 75.07668322 -30.18481445 77.12280273 C-30.18544388 78.28464584 -30.1860733 79.44648895 -30.1867218 80.64353943 C-29.74258421 84.47873316 -28.61558541 88.07191459 -25.8125 90.875 C-23.32182826 91.15232802 -23.32182826 91.15232802 -20.4375 91.1875 C-19.46039062 91.22488281 -18.48328125 91.26226562 -17.4765625 91.30078125 C-14.70522092 91.12934268 -14.70522092 91.12934268 -13.0234375 89.04296875 C-11.21181391 85.79957813 -10.66763308 83.07711849 -10.49609375 79.42578125 C-10.45798584 78.66177002 -10.41987793 77.89775879 -10.38061523 77.1105957 C-10.33751221 76.14597412 -10.29440918 75.18135254 -10.25 74.1875 C-10.105625 71.114375 -9.96125 68.04125 -9.8125 64.875 C-3.5425 64.875 2.7275 64.875 9.1875 64.875 C9.75009374 91.50443685 9.75009374 91.50443685 0.359375 101.8984375 C-6.34265025 107.99776263 -15.48594086 108.51262083 -24.1484375 108.265625 C-31.39344808 107.49323581 -38.69856118 105.28975875 -43.8125 99.875 C-51.51929821 90.31114198 -52.27360722 78.49552736 -52.2109375 66.65625 C-52.21380768 65.43651489 -52.21667786 64.21677979 -52.21963501 62.96008301 C-52.22166319 60.39867688 -52.21622134 57.83725481 -52.20361328 55.27587891 C-52.1875429 51.38538534 -52.20350593 47.49593052 -52.22265625 43.60546875 C-52.2206736 41.10156024 -52.21682947 38.59765236 -52.2109375 36.09375 C-52.21701019 34.94652466 -52.22308289 33.79929932 -52.2293396 32.61730957 C-52.13778221 21.95219001 -50.73166166 11.37980287 -43.8125 2.875 C-32.61793988 -8.02496643 -12.84369131 -7.9824232 0 0 Z " fill="#FBFCFB" transform="translate(598.8125,311.125)"/>
<path d="M0 0 C5.13836726 4.83129352 8.44793331 10.97995045 8.80102539 18.10253906 C8.79578857 18.91948242 8.79055176 19.73642578 8.78515625 20.578125 C8.78193359 21.46757812 8.77871094 22.35703125 8.77539062 23.2734375 C8.76282227 24.65402344 8.76282227 24.65402344 8.75 26.0625 C8.74548828 26.99835938 8.74097656 27.93421875 8.73632812 28.8984375 C8.72456918 31.20319041 8.70813426 33.50781227 8.6875 35.8125 C5.54168577 35.84138514 2.39590531 35.85925923 -0.75 35.875 C-1.64783203 35.88337891 -2.54566406 35.89175781 -3.47070312 35.90039062 C-4.75170898 35.90522461 -4.75170898 35.90522461 -6.05859375 35.91015625 C-6.84935303 35.91539307 -7.6401123 35.92062988 -8.45483398 35.92602539 C-10.3125 35.8125 -10.3125 35.8125 -11.3125 34.8125 C-11.40897256 33.29791818 -11.44448494 31.77934532 -11.453125 30.26171875 C-11.47246094 29.33552734 -11.49179687 28.40933594 -11.51171875 27.45507812 C-11.54536803 25.49694905 -11.56378629 23.53849455 -11.56640625 21.58007812 C-11.62973737 15.86675233 -11.62973737 15.86675233 -14.609375 11.1796875 C-18.38473523 9.27018449 -21.1832559 8.82815494 -25.3125 9.8125 C-28.53204645 12.34703657 -30.01682435 13.92547305 -31.3125 17.8125 C-31.41629122 19.77883843 -31.4610752 21.74849356 -31.47363281 23.7175293 C-31.48324036 24.93276779 -31.4928479 26.14800629 -31.50274658 27.40007019 C-31.5091214 29.37346123 -31.5091214 29.37346123 -31.515625 31.38671875 C-31.521381 32.75332134 -31.52713867 34.11992392 -31.53289795 35.48652649 C-31.54340155 38.35389582 -31.54924766 41.22123719 -31.55273438 44.08862305 C-31.55820229 47.74574525 -31.58219595 51.40249197 -31.61070633 55.05949688 C-31.62942521 57.88467958 -31.6345433 60.70977375 -31.63607025 63.5350132 C-31.64053394 65.53345183 -31.65913967 67.5318429 -31.67803955 69.53019714 C-31.76494436 80.58259239 -31.76494436 80.58259239 -26.3125 89.8125 C-23.97845946 90.169648 -23.97845946 90.169648 -21.375 90.125 C-20.49972656 90.14175781 -19.62445312 90.15851563 -18.72265625 90.17578125 C-15.87203647 89.74610923 -15.05385859 89.05606859 -13.3125 86.8125 C-12.10979036 84.40708071 -12.10933337 82.70883409 -11.99609375 80.0234375 C-11.93325195 78.61191406 -11.93325195 78.61191406 -11.86914062 77.171875 C-11.82982422 76.18703125 -11.79050781 75.2021875 -11.75 74.1875 C-11.70681641 73.19492188 -11.66363281 72.20234375 -11.61914062 71.1796875 C-11.51289053 68.72412967 -11.41217545 66.26833349 -11.3125 63.8125 C-4.7125 63.8125 1.8875 63.8125 8.6875 63.8125 C9.4447861 88.61361994 9.4447861 88.61361994 2.5625 98.3125 C-3.1930947 103.31736496 -9.63957704 106.3862265 -17.3125 106.8125 C-18.529375 106.895 -19.74625 106.9775 -21 107.0625 C-29.17239763 106.90381267 -37.29324553 104.92153753 -43.62890625 99.61328125 C-52.111316 90.54044854 -52.61578161 79.91981757 -52.578125 68.13671875 C-52.57947513 66.80304392 -52.58141855 65.46936957 -52.58392334 64.13569641 C-52.58686132 61.3476592 -52.58262199 58.55975068 -52.57324219 55.77172852 C-52.56188174 52.22483587 -52.56839375 48.67824714 -52.58038712 45.13136578 C-52.58767033 42.37815632 -52.58528785 39.62501695 -52.58013153 36.87180519 C-52.57817547 34.93664474 -52.58417889 33.00148141 -52.59039307 31.06632996 C-52.53036094 19.65931474 -51.88080444 9.57620022 -43.60546875 1.0546875 C-32.24815923 -9.1891603 -11.91755618 -9.59538531 0 0 Z " fill="#FBFCFB" transform="translate(533.3125,133.1875)"/>
<path d="M0 0 C15.18 0 30.36 0 46 0 C46 4.95 46 9.9 46 15 C37.75 15 29.5 15 21 15 C21 25.23 21 35.46 21 46 C27.6 46 34.2 46 41 46 C41 50.62 41 55.24 41 60 C34.4 60 27.8 60 21 60 C21 71.88 21 83.76 21 96 C29.58 96 38.16 96 47 96 C47 100.62 47 105.24 47 110 C31.49 110 15.98 110 0 110 C0 73.7 0 37.4 0 0 Z " fill="#F9FBFA" transform="translate(841,128)"/>
<path d="M0 0 C7.28421977 -0.02255606 14.56842059 -0.04091801 21.85266781 -0.05181217 C25.23471813 -0.05703975 28.6167434 -0.06413511 31.9987793 -0.07543945 C35.88329777 -0.08834267 39.76780597 -0.09322924 43.65234375 -0.09765625 C44.87211411 -0.10281754 46.09188446 -0.10797882 47.34861755 -0.11329651 C49.03024742 -0.11340981 49.03024742 -0.11340981 50.74584961 -0.11352539 C51.73846298 -0.115746 52.73107635 -0.11796661 53.75376892 -0.12025452 C56 0 56 0 57 1 C57.09909302 3.33160055 57.12970504 5.66629942 57.125 8 C57.12886719 9.918125 57.12886719 9.918125 57.1328125 11.875 C57 15 57 15 56 16 C50.39 16 44.78 16 39 16 C39 47.02 39 78.04 39 110 C32.07 110 25.14 110 18 110 C18 78.98 18 47.96 18 16 C12.06 16 6.12 16 0 16 C0 10.72 0 5.44 0 0 Z " fill="#F6F9F7" transform="translate(610,307)"/>
<path d="M0 0 C18.81 0 37.62 0 57 0 C57 4.95 57 9.9 57 15 C51.06 15 45.12 15 39 15 C39 46.35 39 77.7 39 110 C32.4 110 25.8 110 19 110 C19 78.65 19 47.3 19 15 C12.73 15 6.46 15 0 15 C0 10.05 0 5.1 0 0 Z " fill="#FDFDFD" transform="translate(780,128)"/>
<path d="M0 0 C6.93 0 13.86 0 21 0 C21 31.68 21 63.36 21 96 C29.58 96 38.16 96 47 96 C47 100.62 47 105.24 47 110 C31.49 110 15.98 110 0 110 C0 73.7 0 37.4 0 0 Z " fill="#F6F9F6" transform="translate(551,128)"/>
<path d="M0 0 C1.27423828 -0.00193359 1.27423828 -0.00193359 2.57421875 -0.00390625 C3.91419922 0.00189453 3.91419922 0.00189453 5.28125 0.0078125 C6.17457031 0.00394531 7.06789063 0.00007813 7.98828125 -0.00390625 C8.83777344 -0.00261719 9.68726563 -0.00132812 10.5625 0 C11.34689453 0.00112793 12.13128906 0.00225586 12.93945312 0.00341797 C14.78125 0.1328125 14.78125 0.1328125 15.78125 1.1328125 C15.87675698 2.54960161 15.90313483 3.97112491 15.90150452 5.39112854 C15.90287918 6.309646 15.90425385 7.22816345 15.90567017 8.17451477 C15.90207489 9.19014999 15.89847961 10.20578522 15.89477539 11.25219727 C15.89492142 12.31548248 15.89506744 13.3787677 15.8952179 14.47427368 C15.89451825 18.00760908 15.88672343 21.5408925 15.87890625 25.07421875 C15.87704225 27.51659618 15.87561827 29.95897399 15.87461853 32.40135193 C15.87079189 38.84415714 15.86096037 45.28693998 15.84991455 51.72973633 C15.83970356 58.29833676 15.83512158 64.8669408 15.83007812 71.43554688 C15.81933823 84.33464685 15.80174025 97.23372432 15.78125 110.1328125 C8.85125 110.1328125 1.92125 110.1328125 -5.21875 110.1328125 C-5.24129812 95.93824867 -5.2596634 81.74369664 -5.27056217 67.549119 C-5.27579172 60.95876465 -5.28289067 54.36842313 -5.29418945 47.77807617 C-5.30501578 41.42389232 -5.31102629 35.06972085 -5.31362724 28.71552849 C-5.31548195 26.28531639 -5.31910343 23.85510501 -5.32448006 21.42489815 C-5.33168711 18.03398269 -5.33274108 14.64311909 -5.33227539 11.25219727 C-5.33587067 10.23656204 -5.33946594 9.22092682 -5.34317017 8.17451477 C-5.3417955 7.25599731 -5.34042084 6.33747986 -5.33900452 5.39112854 C-5.33992631 4.58824685 -5.3408481 3.78536516 -5.34179783 2.95815372 C-5.10191474 -0.60036892 -3.06922532 0.00441343 0 0 Z " fill="#F5F8F5" transform="translate(676.21875,306.8671875)"/>
<path d="M0 0 C6.6 0 13.2 0 20 0 C20 36.3 20 72.6 20 110 C13.4 110 6.8 110 0 110 C0 73.7 0 37.4 0 0 Z " fill="#FCFDFC" transform="translate(605,128)"/>
<path d="M0 0 C3.55923813 2.16649278 5.49316013 4.14841568 7 8 C7.26069641 10.94625854 7.26069641 10.94625854 7.2746582 14.41748047 C7.28895622 16.3700325 7.28895622 16.3700325 7.30354309 18.36203003 C7.30328163 19.78041613 7.3023444 21.19880224 7.30078125 22.6171875 C7.30467023 24.07683433 7.30900532 25.53648003 7.31376648 26.99612427 C7.32122294 30.05425689 7.32094197 33.11227405 7.31567383 36.17041016 C7.30988508 40.07994651 7.32679812 43.98900819 7.3500185 47.89846611 C7.36478746 50.91316468 7.36562318 53.92774984 7.36250877 56.94247818 C7.36302057 58.3833116 7.36823168 59.82415161 7.37832069 61.2649498 C7.3907254 63.28450625 7.38193176 65.30415882 7.37231445 67.32373047 C7.37294388 68.47082489 7.3735733 69.61791931 7.3742218 70.79977417 C6.83359758 75.42302058 5.32380021 78.79300569 1.875 81.9375 C-2.26146587 83.46619391 -5.79429331 83.30494824 -10 82 C-13.40908001 78.76137399 -14.90149574 75.95077828 -15.14044189 71.21868896 C-15.1472699 70.09174622 -15.1540979 68.96480347 -15.16113281 67.80371094 C-15.17074036 66.5251825 -15.1803479 65.24665405 -15.19024658 63.92938232 C-15.19509552 62.53104837 -15.19937411 61.13271233 -15.203125 59.734375 C-15.20887994 58.29811604 -15.21463763 56.86185709 -15.22039795 55.42559814 C-15.23090149 52.41279748 -15.23674794 49.40002343 -15.24023438 46.38720703 C-15.24570847 42.53942434 -15.2697156 38.69199742 -15.29820633 34.84432602 C-15.31689678 31.87592567 -15.32204177 28.90760978 -15.32357025 25.93915558 C-15.32658443 24.5214672 -15.33457101 23.10377987 -15.34775543 21.6861496 C-15.46738906 7.83025554 -15.46738906 7.83025554 -12 2 C-8.69531126 -0.81510523 -4.14466482 -0.675671 0 0 Z " fill="#407E45" transform="translate(738,321)"/>
<path d="M0 0 C5.2679873 -0.31607924 8.59876455 0.00341416 13 3 C18.09763484 8.82416691 20.15652531 12.74786881 20.203125 20.48046875 C20.20995804 21.23754623 20.21679108 21.99462372 20.22383118 22.77464294 C20.24101527 25.2456398 20.24717189 27.7164467 20.25 30.1875 C20.25200409 31.02247009 20.25400818 31.85744019 20.256073 32.7177124 C20.27403604 63.17789189 20.27403604 63.17789189 16 76 C6.78131354 71.81507167 2.89852026 61.75157511 -1 53 C-4.24285171 44.33055805 -5.58558585 33.63515638 -2.14453125 24.8046875 C-0.72970234 21.86661367 0.65412369 19.39358339 2.8125 16.9375 C4.3081606 14.89856637 4.3081606 14.89856637 3.875 11.625 C3.009499 8.03935298 1.73216883 5.23840259 0 2 C0 1.34 0 0.68 0 0 Z " fill="#417F46" transform="translate(974,919)"/>
<path d="M0 0 C-0.29666287 3.26329161 -0.60345675 4.64079604 -3.07421875 6.87890625 C-4.36779297 7.71228516 -4.36779297 7.71228516 -5.6875 8.5625 C-6.53699219 9.12066406 -7.38648438 9.67882812 -8.26171875 10.25390625 C-10.10788415 11.43113298 -11.96778336 12.58705978 -13.83984375 13.72265625 C-18.74325094 17.25626118 -22.7207868 21.6377728 -26.90234375 25.98046875 C-40.40071553 39.79094162 -40.40071553 39.79094162 -47.75 40.125 C-48.4925 40.08375 -49.235 40.0425 -50 40 C-51 38 -51 38 -50.43017578 36.17504883 C-50.1051709 35.44310303 -49.78016602 34.71115723 -49.4453125 33.95703125 C-49.08211914 33.1371875 -48.71892578 32.31734375 -48.34472656 31.47265625 C-47.74096191 30.15587891 -47.74096191 30.15587891 -47.125 28.8125 C-46.71733398 27.91789063 -46.30966797 27.02328125 -45.88964844 26.1015625 C-43.25032508 20.42185207 -40.43767959 14.89175183 -37.25 9.5 C-36.89824707 8.89647705 -36.54649414 8.2929541 -36.18408203 7.67114258 C-32.59487122 1.81537117 -28.6197959 -1.27885307 -22 -3 C-13.20768306 -4.62820684 -7.53787286 -5.02524857 0 0 Z " fill="#438148" transform="translate(596,822)"/>
<path d="M0 0 C2.31871241 3.47806862 2.21775264 5.3189152 1.67138672 9.38012695 C0.91087079 12.34779838 -0.27745137 14.66602025 -1.7421875 17.35546875 C-5.38215648 24.4468889 -7.75625797 31.79838543 -10.125 39.375 C-10.95011521 42.01140607 -11.78778815 44.64335447 -12.6328125 47.2734375 C-12.99262207 48.42247559 -13.35243164 49.57151367 -13.72314453 50.75537109 C-15.10222572 54.2597667 -16.66421718 57.04574082 -19 60 C-19.99 60 -20.98 60 -22 60 C-27.04301374 49.91397252 -22.32765562 32.45690516 -20 22 C-19.72867737 20.16673902 -19.45777556 18.33341565 -19.1875 16.5 C-17.85280241 9.9478482 -14.02862473 5.69052061 -9 1.5 C-5.64787764 -0.17606118 -3.69462077 -0.58778058 0 0 Z " fill="#438048" transform="translate(733,1009)"/>
<path d="M0 0 C2.07713918 2.55647899 2.12943018 4.58213794 1.93359375 7.81640625 C1.12854438 13.51289486 -0.28623741 17.51084801 -4.875 21.1875 C-12.02655264 25.98587631 -19.58456144 30.36403357 -28.375 29 C-31.375 27 -31.375 27 -33.375 25 C-32.78464069 21.99174498 -31.93075102 20.10392405 -30.01171875 17.72265625 C-29.53669922 17.12646484 -29.06167969 16.53027344 -28.57226562 15.91601562 C-28.07404297 15.30435547 -27.57582031 14.69269531 -27.0625 14.0625 C-26.57587891 13.45470703 -26.08925781 12.84691406 -25.58789062 12.22070312 C-24.63150224 11.02747024 -23.6700163 9.83830268 -22.703125 8.65356445 C-21.52760756 7.19000203 -20.40587713 5.68359295 -19.29296875 4.171875 C-14.82227709 -0.89065975 -6.18442987 -2.60397047 0 0 Z " fill="#438148" transform="translate(607.375,780)"/>
<path d="M0 0 C2.76743092 2.76743092 2.66767543 4.98948462 3.25390625 8.84375 C3.35968491 9.52747681 3.46546356 10.21120361 3.57444763 10.91564941 C3.79753926 12.3676594 4.01667551 13.82028174 4.23217773 15.2734375 C4.55729176 17.46489348 4.89367097 19.65436505 5.23242188 21.84375 C6.36049209 29.21326209 7.34919142 36.57054471 8 44 C3.38 44 -1.24 44 -6 44 C-6.13592736 38.2683965 -5.67924796 32.98222376 -4.6875 27.34375 C-4.55432373 26.55601196 -4.42114746 25.76827393 -4.28393555 24.95666504 C-3.862101 22.47001586 -3.43121577 19.98503765 -3 17.5 C-2.7103348 15.80218605 -2.42126661 14.10427013 -2.1328125 12.40625 C-1.42876723 8.26962314 -0.71660731 4.13446839 0 0 Z " fill="#4C8650" transform="translate(752,156)"/>
<path d="M0 0 C2.42671562 3.64007343 2.853282 7.01699377 3.5078125 11.24609375 C3.63815887 12.05361588 3.76850525 12.861138 3.90280151 13.69313049 C4.17679524 15.39976503 4.44722747 17.10697462 4.71435547 18.81469727 C5.12309759 21.42534926 5.54300403 24.03401385 5.96484375 26.64257812 C6.22982624 28.30197814 6.49417046 29.96148024 6.7578125 31.62109375 C6.88278107 32.40036728 7.00774963 33.17964081 7.13650513 33.98252869 C7.66531601 37.38227152 8 40.54924952 8 44 C3.38 44 -1.24 44 -6 44 C-5.27214548 34.52115889 -3.89559928 25.19933122 -2.4375 15.8125 C-2.20086528 14.27283355 -1.96453498 12.73312028 -1.72851562 11.19335938 C-1.15584672 7.46169133 -0.57907989 3.73067833 0 0 Z " fill="#4A854F" transform="translate(509,335)"/>
<path d="M0 0 C5.1850502 1.83747196 9.01858047 5.04066625 11.91796875 9.6796875 C11.85546875 11.8671875 11.85546875 11.8671875 10.91796875 13.6796875 C6.00982356 16.9517843 0.64777761 16.34030076 -5.08203125 15.6796875 C-8.30278234 14.52327539 -10.71841508 13.16626636 -13.08203125 10.6796875 C-14.01953125 8.2421875 -14.01953125 8.2421875 -13.08203125 5.6796875 C-9.42705068 0.97730951 -5.96327432 -1.31491929 0 0 Z " fill="#438148" transform="translate(942.08203125,991.3203125)"/>
<path d="M0 0 C4.48537669 2.58676068 8.15307559 5.64588032 11 10 C10.9375 12.125 10.9375 12.125 10 14 C5.3351744 16.9484225 0.32324844 16.58658385 -5 16 C-8.08960768 15.1368715 -10.54730989 14.08575222 -13 12 C-14.4375 9.125 -14.4375 9.125 -14 6 C-10.32256178 1.05176509 -6.19415635 -1.30403292 0 0 Z " fill="#428047" transform="translate(815,969)"/>
<path d="M0 0 C4.15524653 2.63503438 7.91867404 6.48054934 10 11 C9.50632911 14.49367089 9.50632911 14.49367089 8 16 C2.94500644 16.65527694 -0.80019737 16.87485609 -5 13.8125 C-7.79496482 9.88208072 -9.12558977 7.63266706 -8.75 2.75 C-8.5025 1.8425 -8.255 0.935 -8 0 C-5.0233079 -1.48834605 -3.18307201 -0.8113713 0 0 Z " fill="#45824A" transform="translate(930,968)"/>
</svg>
