<?xml version="1.0" encoding="UTF-8"?>
<svg version="1.1" xmlns="http://www.w3.org/2000/svg" width="1500" height="1500">
<path d="M0 0 C495 0 990 0 1500 0 C1500 495 1500 990 1500 1500 C1005 1500 510 1500 0 1500 C0 1005 0 510 0 0 Z " fill="#DD1367" transform="translate(0,0)"/>
<path d="M0 0 C1.75775757 -0.00845947 1.75775757 -0.00845947 3.55102539 -0.01708984 C14.29287862 0.07223005 24.43842044 1.1958405 34.375 5.4375 C35.10009766 5.74389404 35.82519531 6.05028809 36.57226562 6.3659668 C42.80531573 9.12112534 47.85239428 12.54584631 52.75 17.3125 C53.50410156 18.01632813 54.25820313 18.72015625 55.03515625 19.4453125 C69.23548305 33.81614066 75.83939341 54.23575153 75.89044189 74.16552734 C75.89341302 74.81837676 75.89638414 75.47122618 75.8994453 76.14385891 C75.90805501 78.31206512 75.90963395 80.48021561 75.91113281 82.6484375 C75.91576662 84.21132015 75.92079203 85.77420167 75.92617798 87.33708191 C75.93925325 91.57101019 75.94573785 95.80492265 75.95018864 100.03886795 C75.95312837 102.69053608 75.95723493 105.34219998 75.96169281 107.99386597 C75.97535738 116.3088577 75.98502808 124.62383964 75.9888947 132.93884182 C75.99336747 142.50214964 76.01088339 152.06531396 76.0398953 161.62857819 C76.06159842 169.04290808 76.07160363 176.45719786 76.07293582 183.87155914 C76.07397805 188.28908317 76.07976028 192.70647213 76.09775543 197.1239624 C76.11438525 201.28714788 76.11632036 205.45009894 76.10761642 209.61330605 C76.10685384 211.12927191 76.11108398 212.64525117 76.12107468 214.16118431 C76.26819304 237.9040412 70.07607694 259.45187579 53.625 277.0625 C38.24950214 291.69980523 20.6024936 295.74857402 -0.0625 295.8125 C-1.3611499 295.81894531 -2.6597998 295.82539063 -3.99780273 295.83203125 C-23.26601523 295.57683939 -41.24435637 290.05596556 -55.4375 276.6875 C-66.76033778 264.77250113 -74.13701319 248.63086798 -76.25 232.3125 C-76.41836365 231.07470795 -76.58672729 229.83691589 -76.76019287 228.56161499 C-77.48038461 221.99576209 -77.40617575 215.41997984 -77.41113281 208.82275391 C-77.41577029 207.37443925 -77.42079617 205.9261258 -77.42617798 204.47781372 C-77.43921959 200.56397304 -77.44573141 196.65014944 -77.45018864 192.73629045 C-77.45313439 190.2812366 -77.45724204 187.82618726 -77.46169281 185.37113571 C-77.4753497 177.66162599 -77.48502365 169.95212677 -77.4888947 162.24260581 C-77.49336292 153.39645937 -77.5108608 144.55046841 -77.5398953 135.70436919 C-77.5616523 128.83260692 -77.57160648 121.96088793 -77.57293582 115.08909166 C-77.57397443 111.00122406 -77.57967662 106.91350293 -77.59775543 102.82567215 C-77.72609066 72.05115812 -77.19446785 40.84528754 -54.25 17.3125 C-38.29363543 3.30203355 -20.49684381 0.09404071 0 0 Z " fill="#FEFEFE" transform="translate(289.25,124.6875)"/>
<path d="M0 0 C0.85285186 0.00075944 1.70570372 0.00151888 2.58439958 0.00230134 C4.05862396 -0.00367181 4.05862396 -0.00367181 5.56263065 -0.00976562 C7.19392684 -0.0010271 7.19392684 -0.0010271 8.8581785 0.00788796 C10.00736556 0.00617911 11.15655262 0.00447026 12.34056354 0.00270963 C15.53994689 -0.00002359 18.73916979 0.00625929 21.93853414 0.01626575 C25.38502068 0.0248774 28.8314993 0.02198172 32.27799356 0.0204612 C38.25245963 0.0194109 44.22688211 0.02570264 50.20133722 0.03693688 C58.83946199 0.05316928 67.47756562 0.05839756 76.11570399 0.06091286 C90.12943262 0.06529352 104.14313802 0.07861267 118.15685403 0.09751809 C131.77241274 0.1158673 145.38796515 0.13002849 159.00353372 0.13853371 C159.84235403 0.13905916 160.68117434 0.13958461 161.54541345 0.14012598 C165.75339616 0.14273599 169.96137892 0.14526342 174.16936171 0.14774978 C209.09619864 0.16849384 244.02300857 0.20372944 278.94982278 0.24839699 C280.53799386 3.42473915 280.0881108 6.85053472 280.07921731 10.33824074 C280.08184579 11.59207055 280.08184579 11.59207055 280.08452737 12.87123024 C280.08893975 15.64280676 280.08601004 18.4143198 280.08263528 21.18589699 C280.0833085 23.10638865 280.08427867 25.02688023 280.08553445 26.9473716 C280.08701059 30.97578153 280.08485955 35.00416932 280.08019388 39.03257668 C280.07449664 44.20464763 280.07777609 49.37666669 280.08376634 54.54873574 C280.0873742 58.51545015 280.08623233 62.48215219 280.08363855 66.44886696 C280.0829699 68.35631738 280.08379553 70.26376891 280.0861181 72.17121804 C280.08864829 74.83369351 280.08479881 77.49608412 280.07921731 80.15855324 C280.08124155 80.95238411 280.08326578 81.74621499 280.08535135 82.56410134 C280.06408693 88.01986871 280.06408693 88.01986871 278.94982278 90.24839699 C243.18613305 90.29413481 207.42244843 90.32939603 171.65873549 90.35052765 C167.44033485 90.35302918 163.22193427 90.35561782 159.00353372 90.35826027 C158.16369559 90.35878489 157.32385746 90.35930952 156.45856969 90.35985003 C142.84464043 90.36856214 129.23072799 90.38433652 115.61680873 90.40270258 C101.65662693 90.42137926 87.69645396 90.43250898 73.73626018 90.43657398 C65.11609834 90.43932369 56.49598404 90.44802079 47.87583683 90.46422993 C41.97159063 90.47476929 36.06736914 90.47800457 30.16311421 90.47539975 C26.75228498 90.47411368 23.34153906 90.47614014 19.9307245 90.48680794 C16.23980806 90.49667962 12.5490992 90.49439445 8.8581785 90.48890603 C7.77064771 90.49473171 6.68311692 90.50055739 5.56263065 90.50655961 C4.5798144 90.50257751 3.59699815 90.49859542 2.58439958 90.49449265 C1.73154772 90.49525209 0.87869586 90.49601153 0 90.49679399 C-2.05017722 90.24839699 -2.05017722 90.24839699 -4.05017722 88.24839699 C-4.24873247 85.51834576 -4.32289502 82.88972967 -4.30896628 80.15855324 C-4.31422324 78.90472344 -4.31422324 78.90472344 -4.3195864 77.62556374 C-4.32841135 74.85392445 -4.3225519 72.08253902 -4.31580222 69.31089699 C-4.31714865 67.39040496 -4.31908899 65.46991325 -4.32160056 63.54942238 C-4.32455285 59.52098774 -4.32025078 55.49264167 -4.3109194 51.46421731 C-4.29952482 46.29209256 -4.30608372 41.12017537 -4.31806433 35.94805825 C-4.32528008 31.98133184 -4.32299632 28.0146549 -4.31780875 24.04792702 C-4.31647146 22.14047642 -4.31812272 20.23302137 -4.32276785 18.32557595 C-4.32782841 15.66300927 -4.32012957 13.00078204 -4.30896628 10.33824074 C-4.31301474 9.54440987 -4.3170632 8.750579 -4.32123435 7.93269265 C-4.26342398 0.51655129 -4.26342398 0.51655129 0 0 Z " fill="#FEFEFE" transform="translate(613.0501772165298,984.7516030073166)"/>
<path d="M0 0 C93.06 0 186.12 0 282 0 C283.58788839 3.17577678 283.14725469 6.6022416 283.14526367 10.08984375 C283.15030159 11.34367355 283.15030159 11.34367355 283.15544128 12.62283325 C283.16496438 15.39440382 283.16689496 18.16591408 283.16796875 20.9375 C283.17117996 22.85799179 283.17454393 24.77848334 283.17805481 26.69897461 C283.18404918 30.72738208 283.18589435 34.75576807 283.18530273 38.78417969 C283.185201 43.95628918 283.19886375 49.12826175 283.21607494 54.30033875 C283.22717006 58.26705564 283.22922273 62.23373914 283.22869301 66.20046997 C283.22987649 68.10792514 283.2343187 70.01538108 283.24202538 71.92282104 C283.25177688 74.58536499 283.24896672 77.24760789 283.24291992 79.91015625 C283.24853943 80.70398712 283.25415894 81.49781799 283.25994873 82.31570435 C283.22831667 87.77168333 283.22831667 87.77168333 281 90 C278.95738548 90.24954766 278.95738548 90.24954766 276.38383389 90.24888897 C275.40511773 90.25348777 274.42640157 90.25808656 273.41802734 90.26282471 C272.33506962 90.25768115 271.2521119 90.25253759 270.13633728 90.24723816 C268.99193934 90.24965257 267.84754139 90.25206699 266.66846472 90.25455457 C263.48241753 90.25923059 260.29652649 90.25488335 257.11049068 90.24679029 C253.6782959 90.2402297 250.24611563 90.24515816 246.81391907 90.24867249 C240.0867631 90.25372206 233.35965618 90.2480635 226.6325063 90.23882218 C218.8060467 90.22845574 210.9795978 90.2285079 203.15313262 90.22899476 C189.19379353 90.22949576 175.23447732 90.22032355 161.27514648 90.20581055 C147.71492089 90.19171968 134.15471544 90.18463986 120.59448242 90.18530273 C119.75921451 90.18534269 118.9239466 90.18538265 118.06336754 90.18542381 C116.81267853 90.18548435 116.81267853 90.18548435 115.53672308 90.1855461 C100.11943514 90.18623515 84.70215579 90.18035077 69.28487064 90.17139288 C63.82306612 90.16837086 58.36126319 90.16731266 52.89945793 90.16686058 C46.24860956 90.1661799 39.59777566 90.16173558 32.94693344 90.15252777 C29.55041867 90.14789668 26.15392247 90.14486908 22.75740433 90.14612198 C19.08380616 90.14660881 15.41026882 90.14099528 11.73667908 90.13371277 C10.10889641 90.13603567 10.10889641 90.13603567 8.44822925 90.1384055 C6.98406664 90.13356883 6.98406664 90.13356883 5.49032497 90.12863445 C4.6412153 90.12793003 3.79210563 90.1272256 2.91726536 90.12649983 C1 90 1 90 0 89 C0 59.63 0 30.26 0 0 Z " fill="#FEFEFE" transform="translate(610,808)"/>
<path d="M0 0 C1.98 0.495 1.98 0.495 4 1 C4 89.77 4 178.54 4 270 C2.68 270.33 1.36 270.66 0 271 C-2.06751967 269.43880281 -3.73261728 267.94193696 -5.5302124 266.10470581 C-6.07674257 265.5659756 -6.62327273 265.02724539 -7.18636441 264.47219002 C-9.02405146 262.65452871 -10.84325483 260.81941264 -12.66308594 258.98388672 C-13.97296789 257.68077621 -15.28391196 256.37873259 -16.59584045 255.0776825 C-20.16307933 251.53330158 -23.71424419 247.973208 -27.26214504 244.40948248 C-30.9716003 240.68739932 -34.69320397 236.97749625 -38.41290283 233.26565552 C-44.65946352 227.02820157 -50.89538501 220.78025614 -57.12548828 214.52636719 C-64.33367091 207.29098349 -71.55967402 200.07377326 -78.795223 192.8657645 C-84.99979984 186.68386257 -91.19459788 180.49228824 -97.3812983 174.29249585 C-101.07944657 170.58654273 -104.78091284 166.88407361 -108.49120331 163.19027328 C-111.97943609 159.71646177 -115.45525212 156.2306893 -118.92178154 152.73522377 C-120.1977875 151.4525941 -121.47809059 150.17422333 -122.76290321 148.90041542 C-124.51297814 147.16395592 -126.24699502 145.412909 -127.97772217 143.65719604 C-128.74987363 142.90177499 -128.74987363 142.90177499 -129.53762412 142.13109291 C-131.60111424 140.00921769 -132.90086527 138.39477994 -133.62778473 135.5 C-132.72455798 131.90311915 -130.55225337 129.8615521 -127.97772217 127.34280396 C-127.43743197 126.7947138 -126.89714177 126.24662365 -126.34047914 125.6819247 C-124.52356267 123.84503471 -122.68925704 122.0265692 -120.85449219 120.20751953 C-119.54961274 118.89586649 -118.24579972 117.5831518 -116.94297791 116.26945496 C-113.39870815 112.7023574 -109.83876297 109.15129724 -106.27515697 105.60352945 C-102.55260671 101.89361726 -98.84224778 98.17154521 -95.12994385 94.4513855 C-88.89426744 88.2066076 -82.64811054 81.97245804 -76.39599609 75.74414062 C-69.15999226 68.53536065 -61.94219387 61.30872792 -54.733567 54.0725795 C-48.55080455 47.86715561 -42.35838685 41.67149339 -36.15773702 35.48394287 C-32.45126956 31.78528462 -28.74829667 28.08329782 -25.05397797 24.37250137 C-21.58178835 20.88590919 -18.0976742 17.41169817 -14.60382271 13.9468174 C-13.32076763 12.67039509 -12.04198817 11.38965897 -10.76775169 10.10443306 C-9.03316562 8.35626754 -7.28405569 6.62410703 -5.5302124 4.89529419 C-5.02436764 4.37829582 -4.51852289 3.86129746 -3.9973495 3.32863247 C-2.56930161 1.9400959 -2.56930161 1.9400959 0 0 Z " fill="#FEFEFE" transform="translate(492,806)"/>
<path d="M0 0 C3.57844943 0.89560075 5.60474119 3.04162145 8.10970974 5.60257626 C8.92466129 6.40582788 8.92466129 6.40582788 9.75607651 7.22530681 C11.57681412 9.02607172 13.37912354 10.84422016 15.18202114 12.66283321 C16.48219966 13.95623802 17.78343978 15.2485764 19.08566189 16.53992367 C22.62183679 20.05326991 26.14197138 23.58229131 29.65881658 27.11497378 C33.33756328 30.80636079 37.0284724 34.48555369 40.71746731 38.16669369 C46.91097106 44.35109547 53.09384536 50.54597765 59.27088833 56.74681759 C66.41717077 63.92031208 73.58128816 71.07561571 80.75493747 78.2217347 C86.90857929 84.35270225 93.05244285 90.49334077 99.18820828 96.64219886 C102.85504336 100.3168376 106.52519305 103.98799432 110.20417118 107.65047932 C113.66204899 111.09393638 117.10750906 114.54935137 120.54368305 118.01446247 C121.80840204 119.28580494 123.0774179 120.5528891 124.35094357 121.81540966 C126.08564088 123.53649091 127.80427278 125.27215402 129.51962185 127.01248837 C130.02981643 127.51152933 130.540011 128.0105703 131.06566602 128.52473372 C134.37930426 131.93297087 134.49720669 132.51286611 134.49720669 137.62499142 C45.72720669 137.62499142 -43.04279331 137.62499142 -134.50279331 137.62499142 C-134.83279331 136.30499142 -135.16279331 134.98499142 -135.50279331 133.62499142 C-133.94159612 131.55747174 -132.44473027 129.89237414 -130.60749912 128.09477901 C-130.06876891 127.54824885 -129.5300387 127.00171869 -128.97498333 126.438627 C-127.15732203 124.60093996 -125.32220595 122.78173659 -123.48668003 120.96190548 C-122.18356952 119.65202353 -120.8815259 118.34107946 -119.58047581 117.02915096 C-116.0360949 113.46191208 -112.47600132 109.91074722 -108.91227579 106.36284637 C-105.19019263 102.65339112 -101.48028956 98.93178744 -97.76844883 95.21208858 C-91.53099489 88.9655279 -85.28304945 82.72960641 -79.0291605 76.49950314 C-71.79377681 69.2913205 -64.57656657 62.0653174 -57.36855781 54.82976842 C-51.18665588 48.62519158 -44.99508155 42.43039353 -38.79528916 36.24369311 C-35.08933604 32.54554484 -31.38686692 28.84407858 -27.6930666 25.13378811 C-24.21925508 21.64555533 -20.73348261 18.1697393 -17.23801708 14.70320988 C-15.95538741 13.42720392 -14.67701665 12.14690083 -13.40320873 10.8620882 C-11.66674923 9.11201328 -9.91570232 7.37799639 -8.15998936 5.64726925 C-7.4045683 4.87511778 -7.4045683 4.87511778 -6.63388622 4.0873673 C-4.51029848 2.02221179 -2.89825612 0.72374542 0 0 Z " fill="#FEFEFE" transform="translate(751.5027933120728,548.3750085830688)"/>
<path d="M0 0 C5.25151822 1.05030364 7.06707163 2.49194999 10.61923218 6.09783936 C11.16323878 6.63419486 11.70724538 7.17055037 12.26773703 7.72315907 C14.08834851 9.52313037 15.89434205 11.33708411 17.70068359 13.15136719 C19.00270707 14.44469677 20.30556413 15.73718764 21.60919189 17.02890015 C25.14725909 20.54016595 28.67238542 24.06415831 32.19454145 27.5913763 C35.13358698 30.53255908 38.07855864 33.46777216 41.02346289 36.4030869 C47.96779904 43.32522686 54.90141519 50.25797844 61.82861328 57.19726562 C68.98277574 64.36352049 76.15512123 71.51119996 83.33657968 78.65009189 C89.4968982 84.77523102 95.64559642 90.91186525 101.78509009 97.05787778 C105.45429101 100.73071199 109.12784648 104.39891155 112.81269455 108.05605316 C116.27509714 111.49339227 119.72280805 114.94480869 123.15958405 118.40776443 C124.42545487 119.6783858 125.6965003 120.94387519 126.97294235 122.2038765 C128.71037337 123.92052746 130.42841074 125.65448054 132.14266968 127.39422607 C132.6557771 127.89258492 133.16888451 128.39094377 133.69754064 128.9044044 C135.81494846 131.08892487 136.96974353 132.4035332 137.1266737 135.49720669 C135.62182207 138.84008458 133.41457108 141.12495522 130.83055115 143.65046692 C130.28658426 144.19785151 129.74261737 144.7452361 129.18216664 145.3092081 C127.35664797 147.14131634 125.5171984 148.95876017 123.67749023 150.77661133 C122.36615553 152.08681779 121.0557009 153.39790558 119.74606323 154.70980835 C116.18695631 158.27006426 112.61563949 161.81784142 109.04203677 165.36353898 C105.30995794 169.07063513 101.58918221 172.78904035 97.86720276 176.50627136 C90.81681754 183.54421764 83.75629665 190.57190429 76.69209582 197.59598035 C68.65049602 205.59289118 60.62023348 213.60114513 52.5909127 221.61038172 C36.07321058 238.08625869 19.54129104 254.54780815 3 271 C2.01 270.67 1.02 270.34 0 270 C0 180.9 0 91.8 0 0 Z " fill="#FEFEFE" transform="translate(1007,806)"/>
<path d="M0 0 C89.1 0 178.2 0 270 0 C268.94969636 5.25151822 267.50805001 7.06707163 263.90216064 10.61923218 C263.09762738 11.43524208 263.09762738 11.43524208 262.27684093 12.26773703 C260.47686963 14.08834851 258.66291589 15.89434205 256.84863281 17.70068359 C255.55530323 19.00270707 254.26281236 20.30556413 252.97109985 21.60919189 C249.45983405 25.14725909 245.93584169 28.67238542 242.4086237 32.19454145 C239.46744092 35.13358698 236.53222784 38.07855864 233.5969131 41.02346289 C226.67477314 47.96779904 219.74202156 54.90141519 212.80273438 61.82861328 C205.63647951 68.98277574 198.48880004 76.15512123 191.34990811 83.33657968 C185.22476898 89.4968982 179.08813475 95.64559642 172.94212222 101.78509009 C169.26928801 105.45429101 165.60108845 109.12784648 161.94394684 112.81269455 C158.50660773 116.27509714 155.05519131 119.72280805 151.59223557 123.15958405 C150.3216142 124.42545487 149.05612481 125.6965003 147.7961235 126.97294235 C146.07947254 128.71037337 144.34551946 130.42841074 142.60577393 132.14266968 C142.10741508 132.6557771 141.60905623 133.16888451 141.0955956 133.69754064 C138.90903317 135.81692769 137.59757806 136.97068538 134.50042057 137.12261868 C131.17959717 135.63166215 128.90218678 133.45508418 126.38749695 130.89543152 C125.84419591 130.35837045 125.30089488 129.82130937 124.74113017 129.26797372 C122.92284848 127.46564863 121.11920137 125.64935965 119.31518555 123.83276367 C118.01480009 122.53779805 116.71356515 121.24368498 115.4115448 119.95036316 C111.87774355 116.43481258 108.35673049 112.90670771 104.83839011 109.37569213 C101.15815224 105.68533791 97.4681773 102.004741 93.77973938 98.32258606 C87.58804728 92.1381734 81.40484243 85.94536894 75.22631836 79.74780273 C68.07703677 72.57674237 60.91344578 65.42021911 53.74226922 58.27105922 C47.59047625 52.13740021 41.44649038 45.99600277 35.30899841 39.84803373 C31.64113844 36.17392909 27.97060913 32.50260094 24.29303551 28.83821678 C20.83744982 25.39416005 17.39174714 21.94051488 13.95352364 18.47912788 C12.68793229 17.20823409 11.4188998 15.94075677 10.14626312 14.67691803 C8.41397574 12.95550836 6.69440008 11.22233996 4.97758484 9.48551941 C4.46739026 8.98424772 3.95719569 8.48297603 3.43154067 7.96651429 C0.52816864 4.99683308 0 4.36533625 0 0 Z " fill="#FEFEFE" transform="translate(616,1197)"/>
<path d="M0 0 C0 95.04 0 190.08 0 288 C-18.15 288 -36.3 288 -55 288 C-55 212.1 -55 136.2 -55 58 C-61.93 60.64 -68.86 63.28 -76 66 C-91.98507463 71.74626866 -91.98507463 71.74626866 -97 73 C-97 59.47 -97 45.94 -97 32 C-92.05 29.69 -87.1 27.38 -82 25 C-31.4648318 0 -31.4648318 0 0 0 Z " fill="#FEFEFE" transform="translate(184,128)"/>
<path d="M0 0 C5.97655901 3.6634836 7.70707635 9.88500835 9.38787079 16.33033752 C12.15543891 28.77074558 11.32619118 41.9606689 11.28339577 54.64735794 C11.27314268 58.64634491 11.28269509 62.64529837 11.28894043 66.64428711 C11.29618152 73.3550485 11.28672289 80.06563279 11.26757812 86.77636719 C11.24581615 94.49274486 11.25287005 102.2086995 11.27488375 109.92506695 C11.29313947 116.59568449 11.2955468 123.266176 11.28512907 129.93681049 C11.27894957 133.90096768 11.27790297 137.86492721 11.29127502 141.82907104 C11.40283634 180.27275769 11.40283634 180.27275769 2.74609375 192.0703125 C-2.46992132 196.89512644 -6.86595565 197.43915105 -13.7890625 197.34765625 C-18.7201106 196.79281566 -21.38568208 193.87652066 -24.87890625 190.6328125 C-31.74146616 181.7844774 -31.83604252 169.72530906 -31.75561523 159.06298828 C-31.75940927 157.60758952 -31.76491817 156.1521944 -31.77198792 154.69680786 C-31.78582123 150.78331525 -31.7748581 146.8702683 -31.7582767 142.95680094 C-31.74430039 138.83455062 -31.75090066 134.71232292 -31.75440979 130.59005737 C-31.75710267 123.66885302 -31.7437182 116.747823 -31.72045898 109.82666016 C-31.69387617 101.86214985 -31.69209894 93.89793114 -31.70384735 85.93339169 C-31.714686 78.22708089 -31.70838926 70.52087399 -31.69429207 62.81457138 C-31.68858264 59.55578993 -31.68857474 56.29708579 -31.69335747 53.03830338 C-31.6981857 49.18852168 -31.68778829 45.33905269 -31.66640282 41.48933029 C-31.66091251 40.08948063 -31.66029661 38.68960043 -31.66535568 37.28974915 C-31.70234487 25.57133904 -31.57621642 12.74597411 -24.25390625 3.0703125 C-17.40034214 -3.11461121 -8.42455672 -3.76308167 0 0 Z " fill="#DD1468" transform="translate(299.25390625,174.9296875)"/>
<path d="M0 0 C7.07779632 5.72964464 10.36025199 13.25503236 11.625 22.125 C11.72546933 24.08693844 11.78257829 26.05145593 11.80200195 28.01586914 C11.82125481 29.72408592 11.82125481 29.72408592 11.84089661 31.46681213 C11.84828354 32.68561569 11.85567047 33.90441925 11.86328125 35.16015625 C11.871353 36.43040146 11.87942474 37.70064667 11.88774109 39.00938416 C11.9015539 41.69664119 11.9125773 44.38377682 11.92016602 47.07104492 C11.93117686 50.47773864 11.96553439 53.88376957 12.00533772 57.29023075 C12.03811888 60.58013834 12.04230941 63.87011032 12.05078125 67.16015625 C12.06828934 68.36479019 12.08579742 69.56942413 12.10383606 70.81056213 C12.07587351 81.90620713 10.07503748 92.58471313 2.625 101.125 C-0.1875 103.5625 -0.1875 103.5625 -2.375 105.125 C-0.25706471 107.94891372 1.47984812 110.02823208 4.4375 112 C5.159375 112.70125 5.88125 113.4025 6.625 114.125 C6.5333978 118.97991664 5.03938655 123.5046706 3.625 128.125 C-4.75200483 125.76896739 -11.15565733 117.70591033 -16.375 111.125 C-16.705 110.465 -17.035 109.805 -17.375 109.125 C-20.17919732 108.50284378 -20.17919732 108.50284378 -23.5 108.125 C-24.68335938 107.95226562 -25.86671875 107.77953125 -27.0859375 107.6015625 C-28.17132812 107.44429688 -29.25671875 107.28703125 -30.375 107.125 C-37.33859791 105.96440035 -41.8511836 102.41007757 -46.375 97.125 C-48.1418075 93.89150024 -49.36428402 90.66250593 -50.375 87.125 C-50.54988449 86.54867828 -50.72476898 85.97235657 -50.904953 85.37857056 C-51.50988305 82.47832324 -51.52626389 79.73441425 -51.55200195 76.77099609 C-51.56483719 75.48220551 -51.57767242 74.19341492 -51.59089661 72.86557007 C-51.5990673 71.45986316 -51.6065104 70.05415185 -51.61328125 68.6484375 C-51.61735678 67.93643818 -51.6214323 67.22443886 -51.62563133 66.4908638 C-51.64646498 62.71868433 -51.66077566 58.94654089 -51.67016602 55.17431641 C-51.68119629 51.30096944 -51.71556393 47.42820235 -51.75533772 43.55505943 C-51.781639 40.55737327 -51.78986994 37.55982215 -51.79344749 34.56203079 C-51.79828242 33.13563772 -51.80980688 31.7092494 -51.82848549 30.28297043 C-51.95042565 20.35066876 -50.90487128 12.79800741 -45.625 4.3125 C-33.42456809 -7.54903103 -14.47502563 -8.04168091 0 0 Z " fill="#FEFBFC" transform="translate(686.375,310.875)"/>
<path d="M0 0 C45.26726445 0 45.26726445 0 54.4140625 9.01171875 C61.50397611 17.90030503 61.16228289 28.4353301 61.203125 39.2578125 C61.20882507 40.43785858 61.21452515 41.61790466 61.22039795 42.83370972 C61.22982143 45.32663077 61.23637135 47.81956413 61.24023438 50.3125 C61.24991386 54.09137194 61.28095296 57.86969358 61.3125 61.6484375 C61.31903372 64.08072597 61.32428274 66.51301829 61.328125 68.9453125 C61.3404718 70.05931427 61.3528186 71.17331604 61.36553955 72.32107544 C61.33394403 83.66566854 60.13385072 94.55250465 52 103 C51.278125 103.763125 50.55625 104.52625 49.8125 105.3125 C35.46965569 113.91820659 14.53072378 110 0 110 C0 73.7 0 37.4 0 0 Z " fill="#FEF9FB" transform="translate(604,128)"/>
<path d="M0 0 C45.14074427 0 45.14074427 0 53.63671875 8.28515625 C58.15187161 13.96467517 60.12088062 19.99096212 60.14526367 27.18041992 C60.15164352 28.45572067 60.15802338 29.73102142 60.16459656 31.04496765 C60.16612587 32.4401343 60.16723949 33.83530145 60.16796875 35.23046875 C60.17118349 36.66433241 60.17454772 38.09819574 60.17805481 39.53205872 C60.18404466 42.54066731 60.18589501 45.54924719 60.18530273 48.55786133 C60.18520146 52.39649856 60.19881854 56.2349494 60.21607494 60.07354259 C60.22724696 63.03769256 60.2292203 66.00179832 60.22869301 68.96596718 C60.22986665 70.38002473 60.23425353 71.79408366 60.24202538 73.20812035 C60.30243218 85.34059641 59.6108976 95.20021961 50.8125 104.25 C33.992628 114.71569813 22.56070355 110 0 110 C0 73.7 0 37.4 0 0 Z " fill="#FEFDFE" transform="translate(872,128)"/>
<path d="M0 0 C44.85714286 0 44.85714286 0 54 8 C60.75346173 15.24669208 61.37377872 23.56824326 61.19140625 33.13671875 C60.7440451 39.82887638 59.20321125 46.88258905 54.25 51.703125 C52.53301516 53.18471676 50.78176837 54.59793418 49 56 C50.3416154 63.11723586 51.97210802 70.12105507 53.8125 77.125 C54.07240723 78.12257324 54.33231445 79.12014648 54.60009766 80.14794922 C56.52996879 87.45984686 58.70793389 94.65316184 61.1171875 101.8203125 C62 105 62 105 62 110 C55.4 110 48.8 110 42 110 C39.35693396 100.13933056 36.75774526 90.26829606 34.19482422 80.38647461 C32.51158131 73.91077456 30.7742037 67.45136499 29 61 C26.36 60.67 23.72 60.34 21 60 C21 76.5 21 93 21 110 C14.07 110 7.14 110 0 110 C0 73.7 0 37.4 0 0 Z " fill="#FEF8FA" transform="translate(478,128)"/>
<path d="M0 0 C4.62 0 9.24 0 14 0 C19.94288285 12.52279114 25.46634175 25.20248995 30.9375 37.9375 C33.928125 44.888125 36.91875 51.83875 40 59 C40.33 39.86 40.66 20.72 41 1 C46.28 1 51.56 1 57 1 C57 36.97 57 72.94 57 110 C52.71 110 48.42 110 44 110 C39.1655131 99.76994903 34.76341937 89.39929633 30.44897461 78.94165039 C29.30693579 76.17401561 28.16061309 73.4081844 27.01367188 70.64257812 C26.27579164 68.85947844 25.53815286 67.07627882 24.80078125 65.29296875 C24.46323318 64.47821579 24.12568512 63.66346283 23.77790833 62.82402039 C23.45714828 62.0457338 23.13638824 61.2674472 22.8059082 60.46557617 C22.52866409 59.79419113 22.25141998 59.12280609 21.96577454 58.43107605 C20.59242475 54.97403961 19.30612212 51.48299233 18 48 C17.67 68.46 17.34 88.92 17 110 C11.39 110 5.78 110 0 110 C0 73.7 0 37.4 0 0 Z " fill="#FEFDFE" transform="translate(512,307)"/>
<path d="M0 0 C6.6 0 13.2 0 20 0 C20.01981934 2.63436035 20.03963867 5.2687207 20.06005859 7.98291016 C20.12700074 16.6921766 20.20463986 25.4013241 20.28752708 34.11045265 C20.3374477 39.39017744 20.38377823 44.66988263 20.421875 49.94970703 C20.45878113 55.04614718 20.50515577 60.14242167 20.55806351 65.23871994 C20.5765791 67.18190985 20.59169751 69.12513523 20.60334396 71.06837845 C20.62025484 73.7926653 20.64930171 76.51657512 20.68115234 79.24072266 C20.68331253 80.04201599 20.68547272 80.84330933 20.68769836 81.66888428 C20.75393022 86.11080995 21.09450996 89.89541937 23 94 C27.06072299 95.35357433 30.75866962 95.66968374 35 95 C38.57650099 92.31762426 40.19132152 90.33292246 41 86 C41.11785296 83.20976391 41.18498312 80.44236767 41.20532227 77.65136719 C41.21522186 76.81197601 41.22512146 75.97258484 41.23532104 75.10775757 C41.26686998 72.33749192 41.29166735 69.56720914 41.31640625 66.796875 C41.33698148 64.87444619 41.3579781 62.95202184 41.37937927 61.02960205 C41.43454116 55.97277445 41.48397639 50.91590643 41.53222656 45.85900879 C41.58248454 40.69763597 41.63814818 35.53632179 41.69335938 30.375 C41.80086901 20.25004825 41.90183036 10.12504662 42 0 C48.6 0 55.2 0 62 0 C62.09078417 10.71043681 62.16399293 21.42061326 62.20724869 32.13134956 C62.2280213 37.10610507 62.2561476 42.08058107 62.30175781 47.05517578 C62.34558727 51.86628802 62.36921451 56.67713336 62.37950897 61.48843002 C62.38683437 63.31343658 62.40113679 65.13843044 62.42292023 66.96332169 C62.57166733 79.9548081 62.56363969 93.93423732 53.71484375 104.44921875 C47.19873577 110.34191777 39.78069407 111.20120061 31.375 111.25 C30.51003906 111.270625 29.64507813 111.29125 28.75390625 111.3125 C21.82610862 111.35404601 15.62589384 110.35277449 9.73046875 106.52734375 C1.49339639 98.04003122 -0.16695929 88.00821929 -0.11352539 76.51611328 C-0.11367142 75.68618362 -0.11381744 74.85625397 -0.1139679 74.00117493 C-0.11327453 71.27419365 -0.10550923 68.54728176 -0.09765625 65.8203125 C-0.09579002 63.92316729 -0.09436709 62.0260216 -0.09336853 60.12887573 C-0.08955948 55.14765074 -0.07974301 50.16645513 -0.06866455 45.1852417 C-0.05841572 40.09745684 -0.05386348 35.00966722 -0.04882812 29.921875 C-0.03811925 19.94790171 -0.02053555 9.9739579 0 0 Z " fill="#FEFAFC" transform="translate(675,128)"/>
<path d="M0 0 C6.6 0 13.2 0 20 0 C20.06798094 10.89263846 20.12293408 21.78513426 20.15543652 32.67793751 C20.17104197 37.73678836 20.19218601 42.79548558 20.22631836 47.85424805 C20.2590953 52.74314048 20.27689145 57.63188585 20.28463173 62.52087975 C20.29014249 64.37904866 20.30090305 66.23721022 20.31719017 68.09531593 C20.42619567 81.0554661 20.45614456 93.34778207 12 104 C5.78432186 110.21567814 -3.03411475 112.13145048 -11.5625 112.3125 C-20.06874354 112.22407751 -27.42344825 110.67869815 -33.9375 104.9375 C-40.55479193 97.60611181 -42.15728898 87.24298906 -42.11352539 77.74316406 C-42.11367142 76.91352646 -42.11381744 76.08388885 -42.1139679 75.22911072 C-42.11327212 72.4912554 -42.10549539 69.75346841 -42.09765625 67.015625 C-42.09579088 65.11562131 -42.09436754 63.21561714 -42.09336853 61.31561279 C-42.08955273 56.31791859 -42.07973041 51.32025351 -42.06866455 46.3225708 C-42.05843031 41.22156162 -42.05386659 36.12054774 -42.04882812 31.01953125 C-42.03810732 21.01300599 -42.02051808 11.00650997 -42 1 C-35.73 1 -29.46 1 -23 1 C-22.98018066 3.34077637 -22.96036133 5.68155273 -22.93994141 8.09326172 C-22.8728157 15.85654862 -22.79518027 23.61970537 -22.71247292 31.38284111 C-22.66268226 36.08625252 -22.61635167 40.78964333 -22.578125 45.49316406 C-22.54105331 50.03850413 -22.49463612 54.58366424 -22.44193649 59.12884903 C-22.42350814 60.85660751 -22.40835829 62.5844044 -22.39665604 64.31222153 C-22.30876523 77.27436389 -22.30876523 77.27436389 -20 90 C-19.87549469 90.72412079 -19.75098938 91.44824158 -19.62271118 92.19430542 C-19.41721649 92.79018463 -19.2117218 93.38606384 -19 94 C-14.93927701 95.35357433 -11.24133038 95.66968374 -7 95 C-3.42349901 92.31762426 -1.80867848 90.33292246 -1 86 C-0.88214704 83.20976391 -0.81501688 80.44236767 -0.79467773 77.65136719 C-0.78477814 76.81197601 -0.77487854 75.97258484 -0.76467896 75.10775757 C-0.73313002 72.33749192 -0.70833265 69.56720914 -0.68359375 66.796875 C-0.66301852 64.87444619 -0.6420219 62.95202184 -0.62062073 61.02960205 C-0.56545884 55.97277445 -0.51602361 50.91590643 -0.46777344 45.85900879 C-0.41751546 40.69763597 -0.36185182 35.53632179 -0.30664062 30.375 C-0.19913099 20.25004825 -0.09816964 10.12504662 0 0 Z " fill="#FEFBFC" transform="translate(750,307)"/>
<path d="M0 0 C7.26 0 14.52 0 22 0 C24.59452142 12.8821208 27.18574344 25.76489331 29.77121639 38.64883327 C30.97197511 44.63178174 32.17415863 50.61443642 33.37963867 56.59643555 C34.54364736 62.37291381 35.70386059 68.1501427 36.86148262 73.92790413 C37.30307409 76.12848947 37.74601616 78.32880425 38.19035149 80.5288372 C38.8140267 83.6180402 39.43282667 86.70818356 40.05053711 89.79858398 C40.2339566 90.70130035 40.4173761 91.60401672 40.60635376 92.53408813 C41.69512471 98.01323028 42.45559094 103.43954996 43 109 C37.06 109 31.12 109 25 109 C22.75 102.25 22.75 102.25 22.1484375 98.4765625 C22.03161621 97.76064941 21.91479492 97.04473633 21.79443359 96.30712891 C21.65602051 95.42202637 21.51760742 94.53692383 21.375 93.625 C20.92125 90.77875 20.4675 87.9325 20 85 C13.73 84.67 7.46 84.34 1 84 C0.896875 85.52625 0.79375 87.0525 0.6875 88.625 C0.07212475 95.56607089 -1.45408675 102.21142444 -3 109 C-9.27 109 -15.54 109 -22 109 C-18.2317305 88.06618692 -14.07772226 67.21876013 -9.84179688 46.37548828 C-8.91879521 41.83371924 -7.99961907 37.29118527 -7.08149338 32.74842834 C-6.36743181 29.21722377 -5.65155324 25.68638953 -4.93509674 22.15567017 C-4.59486912 20.47802518 -4.25517686 18.80027153 -3.91603851 17.12240601 C-3.44683726 14.80258098 -2.97522121 12.48326006 -2.50292969 10.1640625 C-2.36476837 9.4785582 -2.22660706 8.79305389 -2.08425903 8.08677673 C-1.51834454 5.31896494 -0.89468766 2.68406299 0 0 Z " fill="#FEFDFD" transform="translate(798,308)"/>
<path d="M0 0 C6.3048595 3.81497431 10.01471826 9.52462354 12.3046875 16.39453125 C13.37016676 21.39126157 13.42269372 26.19144907 13.3671875 31.26953125 C13.3465625 33.95078125 13.3259375 36.63203125 13.3046875 39.39453125 C6.7046875 39.39453125 0.1046875 39.39453125 -6.6953125 39.39453125 C-6.70949219 37.93660156 -6.72367188 36.47867188 -6.73828125 34.9765625 C-6.78518877 33.05335403 -6.83343612 31.13017792 -6.8828125 29.20703125 C-6.88861328 28.24732422 -6.89441406 27.28761719 -6.90039062 26.29882812 C-7.04653121 21.60609172 -7.16169949 19.1229266 -9.99609375 15.25390625 C-13.31963204 12.96446453 -14.8715225 12.71481223 -18.76171875 12.96484375 C-21.83751914 13.64835495 -23.56787909 15.13816248 -25.6953125 17.39453125 C-26.79061109 20.68042703 -26.8354815 23.130801 -26.85644531 26.59082031 C-26.86605286 27.86934875 -26.8756604 29.1478772 -26.88555908 30.46514893 C-26.89040802 31.86348288 -26.89468661 33.26181892 -26.8984375 34.66015625 C-26.90419244 36.09641521 -26.90995013 37.53267416 -26.91571045 38.96893311 C-26.92621399 41.98173377 -26.93206044 44.99450782 -26.93554688 48.00732422 C-26.94102097 51.85510691 -26.9650281 55.70253383 -26.99351883 59.55020523 C-27.01220928 62.51860558 -27.01735427 65.48692147 -27.01888275 68.45537567 C-27.02189693 69.87306405 -27.02988351 71.29075138 -27.04306793 72.70838165 C-27.29289664 83.00214694 -27.29289664 83.00214694 -23.6953125 92.39453125 C-21.27537892 93.60449804 -19.5206492 93.66536396 -16.8203125 93.76953125 C-15.52480469 93.84300781 -15.52480469 93.84300781 -14.203125 93.91796875 C-11.54869921 93.56406087 -11.54869921 93.56406087 -9.421875 91.546875 C-6.91174789 86.96390537 -7.02139782 82.73162436 -6.9453125 77.58203125 C-6.90083984 76.1134668 -6.90083984 76.1134668 -6.85546875 74.61523438 C-6.7850357 72.20877186 -6.73787867 69.80164794 -6.6953125 67.39453125 C-0.0953125 67.39453125 6.5046875 67.39453125 13.3046875 67.39453125 C13.97424575 93.28411684 13.97424575 93.28411684 5.3046875 103.39453125 C-4.41832591 111.09191687 -15.81943924 110.51485334 -27.6953125 109.39453125 C-34.7550304 107.6076648 -39.76663551 103.46967083 -43.6953125 97.39453125 C-46.95707283 90.98348508 -47.80815967 85.12320693 -47.87231445 77.99707031 C-47.88514969 76.74847229 -47.89798492 75.49987427 -47.91120911 74.21343994 C-47.91937877 72.86234947 -47.92682207 71.51125445 -47.93359375 70.16015625 C-47.93766928 69.4720562 -47.9417448 68.78395615 -47.94594383 68.07500458 C-47.96673137 64.43249318 -47.98106434 60.79001863 -47.99047852 57.14746094 C-48.00152676 53.41092548 -48.03592863 49.67498811 -48.07565022 45.93866348 C-48.10195333 43.04220571 -48.11018237 40.14588764 -48.11375999 37.24932098 C-48.11859082 35.87316601 -48.13010317 34.49701577 -48.14879799 33.12097931 C-48.28647447 22.31581516 -46.82776327 12.91384745 -39.6953125 4.39453125 C-28.62922602 -4.1306298 -12.83375872 -5.5196865 0 0 Z " fill="#FEFBFC" transform="translate(794.6953125,129.60546875)"/>
<path d="M0 0 C5.85400616 6.1885208 9.26700553 13.12121616 9.3125 21.75 C9.27125 22.925625 9.23 24.10125 9.1875 25.3125 C-2.33414009 28.75669134 -2.33414009 28.75669134 -7.8125 28.3125 C-7.99425781 27.20841797 -7.99425781 27.20841797 -8.1796875 26.08203125 C-8.34726563 25.10621094 -8.51484375 24.13039063 -8.6875 23.125 C-8.93113281 21.68060547 -8.93113281 21.68060547 -9.1796875 20.20703125 C-9.79289517 17.40217396 -10.66916343 14.94025253 -11.8125 12.3125 C-13.58324917 12.28544271 -15.35411711 12.26607805 -17.125 12.25 C-18.11113281 12.23839844 -19.09726563 12.22679687 -20.11328125 12.21484375 C-22.91213849 12.18920138 -22.91213849 12.18920138 -25.8125 13.3125 C-27.42377798 16.97449541 -27.4400726 21.40148191 -26.8125 25.3125 C-24.08193022 31.24133101 -19.82547133 35.60676662 -15 39.875 C-14.3797998 40.43944824 -13.75959961 41.00389648 -13.12060547 41.58544922 C-9.95697715 44.45282356 -6.73105525 47.22015323 -3.4375 49.9375 C4.46837944 56.78926218 10.55796789 65.53787602 11.53125 76.01171875 C12.02118251 85.56313457 10.84547255 92.98620965 4.390625 100.3671875 C-1.80817144 106.34282727 -8.18774727 108.39858903 -16.6875 108.75 C-24.53988243 108.50992716 -31.74834659 106.58625879 -37.6875 101.25 C-44.63725338 93.39811518 -46.61569564 84.56421802 -46.8125 74.3125 C-40.69845404 72.45506832 -35.22731258 70.88484583 -28.8125 71.3125 C-28.70292969 72.02535156 -28.59335938 72.73820312 -28.48046875 73.47265625 C-27.53801256 79.1657046 -26.53261498 84.19868384 -23.8125 89.3125 C-20.11844568 91.77520288 -18.17972928 91.54235417 -13.8125 91.3125 C-11.50213085 90.88395005 -11.50213085 90.88395005 -9.8125 90.3125 C-8.00346399 83.78232123 -7.83953108 77.48535516 -11.234375 71.47265625 C-16.26628234 64.5849217 -22.87000526 58.97856822 -29.5 53.6875 C-38.61370728 46.35747543 -45.85701185 38.96165833 -47.1875 26.91796875 C-47.48986842 18.19652956 -46.62438779 10.85415856 -40.89453125 4.02734375 C-29.88767436 -6.70677686 -13.12319047 -7.87391428 0 0 Z " fill="#FEFAFC" transform="translate(1120.8125,310.6875)"/>
<path d="M0 0 C15.18 0 30.36 0 46 0 C46 4.95 46 9.9 46 15 C37.42 15 28.84 15 20 15 C20 25.23 20 35.46 20 46 C26.93 46 33.86 46 41 46 C41 50.62 41 55.24 41 60 C34.07 60 27.14 60 20 60 C20 71.88 20 83.76 20 96 C28.91 96 37.82 96 47 96 C47 100.62 47 105.24 47 110 C31.49 110 15.98 110 0 110 C0 73.7 0 37.4 0 0 Z " fill="#FEFCFD" transform="translate(550,128)"/>
<path d="M0 0 C15.18 0 30.36 0 46 0 C46 4.95 46 9.9 46 15 C37.42 15 28.84 15 20 15 C20 25.23 20 35.46 20 46 C26.6 46 33.2 46 40 46 C40 50.62 40 55.24 40 60 C33.4 60 26.8 60 20 60 C20 71.88 20 83.76 20 96 C28.58 96 37.16 96 46 96 C46 100.62 46 105.24 46 110 C30.82 110 15.64 110 0 110 C0 73.7 0 37.4 0 0 Z " fill="#FEFDFD" transform="translate(818,128)"/>
<path d="M0 0 C15.18 0 30.36 0 46 0 C46 4.95 46 9.9 46 15 C37.42 15 28.84 15 20 15 C20 25.23 20 35.46 20 46 C26.93 46 33.86 46 41 46 C41 50.62 41 55.24 41 60 C34.07 60 27.14 60 20 60 C20 72.21 20 84.42 20 97 C28.58 97 37.16 97 46 97 C46 101.29 46 105.58 46 110 C30.82 110 15.64 110 0 110 C0 73.7 0 37.4 0 0 Z " fill="#FEFCFD" transform="translate(582,307)"/>
<path d="M0 0 C15.18 0 30.36 0 46 0 C46 4.62 46 9.24 46 14 C37.42 14 28.84 14 20 14 C20 24.23 20 34.46 20 45 C26.6 45 33.2 45 40 45 C40 49.62 40 54.24 40 59 C33.4 59 26.8 59 20 59 C20 70.88 20 82.76 20 95 C28.58 95 37.16 95 46 95 C46 99.62 46 104.24 46 109 C30.82 109 15.64 109 0 109 C0 73.03 0 37.06 0 0 Z " fill="#FEFDFE" transform="translate(1023,308)"/>
<path d="M0 0 C18.48 0 36.96 0 56 0 C56 4.62 56 9.24 56 14 C50.06 14 44.12 14 38 14 C38 45.35 38 76.7 38 109 C31.4 109 24.8 109 18 109 C18 77.65 18 46.3 18 14 C12.06 14 6.12 14 0 14 C0 9.38 0 4.76 0 0 Z " fill="#FFFFFF" transform="translate(928,308)"/>
<path d="M0 0 C6.6 0 13.2 0 20 0 C20 31.35 20 62.7 20 95 C28.58 95 37.16 95 46 95 C46 99.62 46 104.24 46 109 C30.82 109 15.64 109 0 109 C0 73.03 0 37.06 0 0 Z " fill="#FEFCFD" transform="translate(849,308)"/>
<path d="M0 0 C6.6 0 13.2 0 20 0 C20 36.3 20 72.6 20 110 C13.4 110 6.8 110 0 110 C0 73.7 0 37.4 0 0 Z " fill="#FEFBFC" transform="translate(902,307)"/>
<path d="M0 0 C6.6 0 13.2 0 20 0 C20 35.97 20 71.94 20 109 C13.4 109 6.8 109 0 109 C0 73.03 0 37.06 0 0 Z " fill="#FFFFFF" transform="translate(479,308)"/>
<path d="M0 0 C6.27 0 12.54 0 19 0 C19 35.97 19 71.94 19 109 C12.73 109 6.46 109 0 109 C0 73.03 0 37.06 0 0 Z " fill="#FFFFFF" transform="translate(990,308)"/>
<path d="M0 0 C5.33101466 2.01170365 5.33101466 2.01170365 7.15179443 4.70155334 C8.26995847 7.73152684 8.25438192 10.29486652 8.25878906 13.52514648 C8.2622937 14.17118835 8.26579834 14.81723022 8.26940918 15.48284912 C8.27819092 17.61237424 8.27238942 19.74156541 8.265625 21.87109375 C8.26697284 23.35555586 8.26891437 24.84001754 8.27142334 26.32447815 C8.27436992 29.43389086 8.27009263 32.54318856 8.26074219 35.65258789 C8.2493578 39.63163397 8.25590353 43.61040993 8.26788712 47.58944607 C8.27512683 50.65470908 8.27280793 53.71990845 8.26763153 56.78517342 C8.26630036 58.25194392 8.26792407 59.71872025 8.27259064 61.18548393 C8.27768959 63.23896374 8.26989844 65.29201123 8.25878906 67.34545898 C8.25640228 69.09607887 8.25640228 69.09607887 8.25396729 70.88206482 C7.93748707 74.76746599 7.03273824 77.66369029 4.64453125 80.75390625 C1.50059535 83.13612847 -2.15940302 83.21627935 -6 83 C-9.4834892 81.35325965 -11.38108723 80.21252602 -13.14299011 76.76074219 C-14.14445956 73.53464295 -14.26107948 70.8314528 -14.2746582 67.453125 C-14.28419022 66.14827148 -14.29372223 64.84341797 -14.30354309 63.49902344 C-14.30328167 62.08268202 -14.30234468 60.66634058 -14.30078125 59.25 C-14.30467101 57.78938679 -14.30900626 56.3287747 -14.31376648 54.86816406 C-14.32121501 51.81181159 -14.32094697 48.75557468 -14.31567383 45.69921875 C-14.30987488 41.78849223 -14.32682662 37.87823866 -14.3500185 33.96759033 C-14.36476952 30.95293426 -14.36562581 27.93839182 -14.36250877 24.92370605 C-14.3630211 23.48204612 -14.36824224 22.04037968 -14.37832069 20.59875488 C-14.39069561 18.58149855 -14.38194401 16.5641463 -14.37231445 14.546875 C-14.37294388 13.40057617 -14.3735733 12.25427734 -14.3742218 11.07324219 C-13.85647129 6.82129132 -12.18830362 4.23074303 -9.25 1.1875 C-5.98669531 -0.5347997 -3.64419529 -0.37698572 0 0 Z " fill="#DD1568" transform="translate(669,321)"/>
<path d="M0 0 C13 0 13 0 16.75 2.3125 C20.05642923 6.26184603 20.13267034 9.10950998 20.17700195 14.10449219 C20.18983719 15.36299988 20.20267242 16.62150757 20.21589661 17.91815186 C20.2240654 19.29438889 20.23150886 20.67063039 20.23828125 22.046875 C20.24235678 22.74147072 20.2464323 23.43606644 20.25063133 24.15171051 C20.27147628 27.82965292 20.28578363 31.50755821 20.29516602 35.18554688 C20.30621527 38.97290576 20.34060159 42.75967466 20.38033772 46.54682541 C20.40656199 49.46890305 20.41486303 52.39084147 20.41844749 55.31302643 C20.42330009 56.70840683 20.43487617 58.10378158 20.45348549 59.49904633 C20.62864574 73.50474997 20.62864574 73.50474997 16 79 C11 81 11 81 0 81 C0 54.27 0 27.54 0 0 Z " fill="#DD186A" transform="translate(892,143)"/>
<path d="M0 0 C12 0 12 0 15.6875 2.375 C19.09019913 6.23752334 19.13351172 8.11014792 19.17700195 13.19042969 C19.18983719 14.4922821 19.20267242 15.79413452 19.21589661 17.13543701 C19.22406499 18.56424581 19.23150853 19.99305891 19.23828125 21.421875 C19.24235678 22.14070107 19.2464323 22.85952713 19.25063133 23.6001358 C19.27149602 27.40659803 19.28579459 31.21302419 19.29516602 35.01953125 C19.3062168 38.94489137 19.34059933 42.86968246 19.38033772 46.79484177 C19.406531 49.81810534 19.41486033 52.84123408 19.41844749 55.86460114 C19.42330842 57.31104617 19.43490848 58.75748537 19.45348549 60.20381927 C19.47792431 62.23307053 19.47448748 64.2625988 19.4699707 66.29199219 C19.47877007 68.02168243 19.47877007 68.02168243 19.48774719 69.78631592 C18.88806397 73.73752762 17.48346744 75.90328063 15 79 C9.77226763 81.67465377 6.29858264 81 0 81 C0 54.27 0 27.54 0 0 Z " fill="#DD1467" transform="translate(625,143)"/>
<path d="M0 0 C12.96296296 0 12.96296296 0 18 4 C20.61072929 7.58868978 20.33206061 11.61078667 20.3125 15.875 C20.32861328 16.56980469 20.34472656 17.26460937 20.36132812 17.98046875 C20.36580299 22.7327772 19.56379944 25.99855601 17 30 C10.92240746 33.72097503 7.7419577 33 0 33 C0 22.11 0 11.22 0 0 Z " fill="#DD1568" transform="translate(499,142)"/>
<path d="M0 0 C2.42671562 3.64007343 2.853282 7.01699377 3.5078125 11.24609375 C3.63815887 12.05361588 3.76850525 12.861138 3.90280151 13.69313049 C4.17679524 15.39976503 4.44722747 17.10697462 4.71435547 18.81469727 C5.12309759 21.42534926 5.54300403 24.03401385 5.96484375 26.64257812 C6.22982624 28.30197814 6.49417046 29.96148024 6.7578125 31.62109375 C6.88278107 32.40036728 7.00774963 33.17964081 7.13650513 33.98252869 C7.66531601 37.38227152 8 40.54924952 8 44 C3.38 44 -1.24 44 -6 44 C-5.34540539 35.84484213 -4.28720854 27.82769998 -3 19.75 C-2.64554388 17.49483714 -2.29136906 15.23963005 -1.9375 12.984375 C-1.69193359 11.42686523 -1.69193359 11.42686523 -1.44140625 9.83789062 C-0.93189921 6.56216619 -0.45553049 3.28361564 0 0 Z " fill="#DF2170" transform="translate(808,335)"/>
</svg>
