<?xml version="1.0" encoding="UTF-8"?>
<svg version="1.1" xmlns="http://www.w3.org/2000/svg" width="1500" height="1500">
<path d="M0 0 C495 0 990 0 1500 0 C1500 495 1500 990 1500 1500 C1005 1500 510 1500 0 1500 C0 1005 0 510 0 0 Z " fill="#4C9F38" transform="translate(0,0)"/>
<path d="M0 0 C9.85988273 5.99580385 14.58383174 22.26152503 19.4375 32.3125 C20.3417863 34.17659537 21.24641095 36.04052664 22.15136719 37.90429688 C27.04398903 47.98942698 31.91204306 58.08637111 36.72924805 68.20776367 C40.69384258 76.53410624 44.72151652 84.82944617 48.75 93.125 C53.27610693 102.44601873 57.79134808 111.77145886 62.25 121.125 C66.68886295 130.43636411 71.1826153 139.7204644 75.6875 149 C87.42150568 173.17431407 87.42150568 173.17431407 91.70776367 182.19189453 C93.83091731 186.6586163 95.97718422 191.09970797 98.265625 195.484375 C102.48259083 203.67375465 105.91613465 211.21666819 103.75 220.625 C101.63276603 225.44589604 98.72201653 228.53675968 93.875 230.625 C88.89443303 232.05206947 84.4707724 232.79412832 79.6262207 230.71240234 C72.20731558 226.28229612 69.40529462 220.36940868 65.875 212.6875 C65.27244482 211.42396738 64.66758992 210.16152912 64.06054688 208.90014648 C62.83937213 206.35246246 61.63231363 203.79888844 60.43847656 201.23828125 C58.94585264 198.04411786 57.4305733 194.86284327 55.8984375 191.6875 C54.11489596 187.98838726 52.34291006 184.28417408 50.58203125 180.57421875 C47.39605767 173.8688689 44.16787755 167.18404032 40.9375 160.5 C40.34243478 159.26831689 39.74738274 158.03662742 39.15234375 156.80493164 C37.9511765 154.31876674 36.74981025 151.8326981 35.54833984 149.34667969 C33.7774021 145.68208374 32.00763822 142.0169219 30.23828125 138.3515625 C29.80599464 137.45605179 29.80599464 137.45605179 29.36497498 136.54244995 C28.2032202 134.13572428 27.04151738 131.72897355 25.87985229 129.32220459 C22.92886339 123.20831103 19.97744192 117.09462982 17.02255249 110.98262024 C9.88498238 96.21884879 2.77770231 81.44146916 -4.25 66.625 C-6.44939478 69.92409217 -7.32088384 72.74250745 -8.45703125 76.5390625 C-8.66262665 77.22125854 -8.86822205 77.90345459 -9.08004761 78.60632324 C-9.74569175 80.81946684 -10.40417278 83.03467004 -11.0625 85.25 C-11.51953468 86.77469782 -11.97697355 88.29927455 -12.43481445 89.82373047 C-14.97795467 98.30359853 -17.4912569 106.79223354 -19.97045898 115.29101562 C-21.4075989 120.18385178 -22.89756564 125.06029183 -24.38671875 129.9375 C-28.05628185 141.97613943 -31.7017647 154.02197776 -35.33935547 166.0703125 C-36.38056153 169.51841781 -37.42269491 172.96624204 -38.46484375 176.4140625 C-41.55210414 186.6345946 -44.62861021 196.85745762 -47.62846375 207.10401917 C-49.27549168 212.7274274 -50.97096481 218.33498413 -52.6875 223.9375 C-54.82975513 230.95325524 -56.96076461 237.9719983 -59.0625 245 C-61.56808909 253.37800926 -64.10507281 261.74637933 -66.64523315 270.11395264 C-72.76492527 290.22565928 -72.76492527 290.22565928 -78.59765625 310.421875 C-81.19165789 319.65212422 -83.91384117 328.81791283 -86.875 337.9375 C-90.55738362 349.28588699 -94.01720801 360.69535914 -97.4375 372.125 C-97.68953186 372.9667276 -97.94156372 373.8084552 -98.20123291 374.6756897 C-100.51217308 382.39857924 -102.81358599 390.12408658 -105.07719421 397.86099243 C-107.77161538 407.06731491 -110.55869139 416.24415403 -113.35839844 425.41894531 C-116.3718966 435.29671934 -119.35447313 445.18386187 -122.33935547 455.0703125 C-123.38056153 458.51841781 -124.42269491 461.96624204 -125.46484375 465.4140625 C-129.67663366 479.35471802 -129.67663366 479.35471802 -133.8046875 493.3203125 C-136.25640598 501.7067443 -138.808287 510.06200091 -141.35839844 518.41894531 C-144.3718966 528.29671934 -147.35447313 538.18386187 -150.33935547 548.0703125 C-151.38056153 551.51841781 -152.42269491 554.96624204 -153.46484375 558.4140625 C-157.67663366 572.35471802 -157.67663366 572.35471802 -161.8046875 586.3203125 C-164.25640598 594.7067443 -166.808287 603.06200091 -169.35839844 611.41894531 C-172.3718966 621.29671934 -175.35447313 631.18386187 -178.33935547 641.0703125 C-179.38056153 644.51841781 -180.42269491 647.96624204 -181.46484375 651.4140625 C-185.46998013 664.67294616 -189.46409033 677.9344249 -193.29101562 691.24609375 C-195.15625177 697.62609539 -196.90124798 701.55994846 -202.25 705.625 C-206.71058073 707.75832122 -211.36034068 708.49651526 -216.25 707.625 C-221.60764272 705.49580742 -225.13018598 702.30878464 -228.07446289 697.390625 C-230.77630376 691.03414455 -231.38442693 683.91908438 -232.375 677.125 C-232.73312864 674.7847727 -233.09643094 672.44538583 -233.45993042 670.10598755 C-233.70014613 668.55641417 -233.93820474 667.00650486 -234.17410278 665.45626831 C-235.16092809 659.0165755 -236.34089506 652.62331061 -237.56689453 646.22558594 C-238.49589211 641.32892538 -239.32048855 636.41837965 -240.125 631.5 C-240.46482703 629.44530973 -240.80467167 627.39062238 -241.14453125 625.3359375 C-241.51311797 623.09897434 -241.88160233 620.8619943 -242.25 618.625 C-245.71595745 597.45625096 -245.71595745 597.45625096 -249.56640625 576.35546875 C-250.53543719 571.06732846 -251.35857723 565.75843202 -252.16064453 560.44262695 C-252.89100645 555.66099005 -253.77666324 550.93206771 -254.7434082 546.19287109 C-255.61589345 541.77031695 -256.33416859 537.32317309 -257.0625 532.875 C-257.41144347 530.76562254 -257.76040257 528.65624767 -258.109375 526.546875 C-258.48969477 524.2396017 -258.86989783 521.93230916 -259.25 519.625 C-262.71604442 498.4562669 -262.71604442 498.4562669 -266.56640625 477.35546875 C-267.53543719 472.06732846 -268.35857723 466.75843202 -269.16064453 461.44262695 C-269.75626498 457.54313458 -270.42495924 453.67687561 -271.21875 449.8125 C-272.39126259 444.06924147 -273.28863256 438.29136369 -274.1875 432.5 C-275.5939987 423.57850058 -277.11870169 414.70260321 -278.83056641 405.83447266 C-279.72868777 401.10339096 -280.57892953 396.36338696 -281.4375 391.625 C-281.61667969 390.63733643 -281.79585937 389.64967285 -281.98046875 388.63208008 C-282.40403693 386.2964573 -282.82722373 383.96076623 -283.25 381.625 C-283.97364746 382.99712646 -283.97364746 382.99712646 -284.71191406 384.39697266 C-296.00232653 405.79762002 -307.30958445 427.17947615 -319.24707031 448.22851562 C-321.29223645 451.85565045 -323.23027023 455.51118911 -325.0625 459.25 C-328.25381614 465.75470448 -331.74493779 472.08439969 -335.22924805 478.43505859 C-339.16771673 485.6208892 -343.04913617 492.83585154 -346.9078064 500.06469727 C-349.10570251 504.17851411 -351.31317331 508.28720152 -353.51953125 512.39648438 C-354.61918872 514.44810266 -355.71588727 516.50131177 -356.80859375 518.55664062 C-358.15391799 521.08504811 -359.51230057 523.6059272 -360.875 526.125 C-361.44081787 527.20056152 -361.44081787 527.20056152 -362.01806641 528.29785156 C-364.70023702 533.20771052 -367.61466178 536.11909245 -372.4375 538.875 C-378.1430924 540.39649131 -383.32966432 540.62072961 -388.625 537.875 C-400.20823696 527.94651118 -399.51773985 509.66683547 -401.54296875 495.1875 C-401.85264671 493.00085369 -402.16280761 490.81427573 -402.47341919 488.62776184 C-403.12810537 484.01333797 -403.77992754 479.39852305 -404.42935181 474.78335571 C-405.94985801 463.97929304 -407.48521718 453.17733642 -409.0192852 442.37519264 C-409.52139302 438.83861894 -410.02293506 435.30196532 -410.52442932 431.76530457 C-412.81147097 415.64698191 -415.14596599 399.53697488 -417.5625 383.4375 C-419.73784367 368.94417567 -421.8553418 354.44389864 -423.9140625 339.93359375 C-424.14639137 338.2977133 -424.37872677 336.66183379 -424.61106873 335.0259552 C-425.64187262 327.76448984 -426.67030295 320.50271032 -427.69039536 313.23973179 C-428.10794602 310.27133875 -428.52823599 307.30333785 -428.9491539 304.33542061 C-429.14594158 302.94301777 -429.34145535 301.55043424 -429.53564835 300.15766716 C-429.80242068 298.24496688 -430.07381437 296.33291283 -430.34545898 294.42089844 C-430.49675766 293.34467224 -430.64805634 292.26844604 -430.80393982 291.15960693 C-431.12277245 288.64160597 -431.12277245 288.64160597 -432.25 286.625 C-441.3333538 306.70476122 -450.36265176 326.80510787 -459.1875 347 C-466.23402591 363.12302415 -473.42684106 379.17589036 -480.70678711 395.19482422 C-481.07942184 396.0153125 -481.45205658 396.83580078 -481.83598328 397.68115234 C-482.56859968 399.29252348 -483.30271224 400.90321531 -484.03840637 402.51318359 C-485.87616683 406.54548917 -487.67222529 410.58993833 -489.40527344 414.66845703 C-489.7562912 415.48572769 -490.10730896 416.30299835 -490.46896362 417.14503479 C-491.12877049 418.68626012 -491.77918948 420.23155492 -492.41799927 421.78160095 C-495.13326895 428.09321464 -498.9076165 432.67344749 -505.25 435.625 C-508.67602561 436.06787356 -512.07915206 436.02957552 -515.52964783 436.00595093 C-516.57507596 436.0106309 -517.62050409 436.01531087 -518.69761187 436.02013266 C-522.20600708 436.03211315 -525.71401389 436.0226132 -529.22241211 436.01318359 C-531.73555225 436.01724795 -534.2486906 436.02258906 -536.76182556 436.02911377 C-542.88267464 436.04138698 -549.00337954 436.03957147 -555.12423056 436.03087585 C-560.09927919 436.02410067 -565.0742969 436.02318186 -570.04934883 436.0264473 C-571.11147287 436.02713684 -571.11147287 436.02713684 -572.19505395 436.02784032 C-573.63352391 436.0287995 -575.07199385 436.02977214 -576.51046378 436.0307581 C-590.00008692 436.03931334 -603.4896489 436.02947609 -616.979262 436.013357 C-628.55187914 435.99995658 -640.12440598 436.00227935 -651.69702148 436.01611328 C-665.13682417 436.03217174 -678.57657324 436.0384863 -692.01638418 436.02927649 C-693.44986792 436.02832085 -694.88335166 436.02737774 -696.3168354 436.0264473 C-697.02212842 436.02598447 -697.72742144 436.02552164 -698.45408697 436.02504479 C-703.42216765 436.02245548 -708.39021431 436.02682468 -713.35828972 436.03388596 C-720.04694513 436.04318375 -726.73540372 436.03655353 -733.42405128 436.01920319 C-735.88068229 436.01523236 -738.33732762 436.01638253 -740.79395294 436.02299118 C-744.14395284 436.031173 -747.49340373 436.02092506 -750.84336853 436.00595093 C-751.81856365 436.01264309 -752.79375876 436.01933526 -753.79850525 436.02623022 C-759.03670525 435.98072815 -762.73814771 435.58799591 -767.25 432.625 C-771.84782312 427.81818492 -774.0372008 424.30626986 -774.5625 417.6875 C-774.39957416 412.86308475 -773.04431603 409.47565928 -769.6328125 405.95703125 C-765.21584953 401.96659904 -762.03725767 400.50842674 -756.04087448 400.4863348 C-755.20386214 400.48086036 -754.3668498 400.47538591 -753.50447345 400.46974558 C-752.59007912 400.46876747 -751.67568479 400.46778936 -750.73358154 400.46678162 C-749.75827838 400.46184364 -748.78297522 400.45690566 -747.77811742 400.45181805 C-744.50149408 400.43642791 -741.22489036 400.42807829 -737.94824219 400.41967773 C-735.60285265 400.41010041 -733.25746484 400.40009041 -730.91207886 400.38967896 C-724.53649705 400.36260811 -718.16090783 400.34161032 -711.78530025 400.32167697 C-705.79994554 400.30204323 -699.8146098 400.27789125 -693.82927194 400.25375474 C-681.97408466 400.20609491 -670.11888558 400.16282636 -658.26367188 400.12231445 C-646.74738649 400.08295134 -635.23111159 400.04152316 -623.71484375 399.99731445 C-622.65006267 399.99322804 -622.65006267 399.99322804 -621.56377086 399.98905908 C-618.00264431 399.97537947 -614.44151792 399.96165922 -610.8803916 399.94791877 C-581.33694991 399.83397927 -551.79348453 399.7272374 -522.25 399.625 C-519.6449187 393.87011324 -517.04028743 388.11502294 -514.43595028 382.35979939 C-513.55228589 380.40715914 -512.66852329 378.45456333 -511.78465557 376.50201511 C-505.57914744 362.79322439 -499.40413452 349.07233211 -493.3125 335.3125 C-492.4877933 333.45305266 -491.66291743 331.59368033 -490.83789062 329.734375 C-489.14666507 325.92264365 -487.45612135 322.11061113 -485.76611328 318.29833984 C-483.26254852 312.65193774 -480.75495539 307.00733149 -478.24609375 301.36328125 C-477.83325134 300.43449158 -477.42040894 299.5057019 -476.99505615 298.54876709 C-474.92346631 293.88857473 -472.85135343 289.22861537 -470.77880859 284.56884766 C-466.90031761 275.84726391 -463.02617144 267.12382927 -459.16720581 258.39358521 C-457.36047628 254.30688826 -455.55129894 250.22127703 -453.74194336 246.13574219 C-452.88688343 244.20317551 -452.03299967 242.27008791 -451.18041992 240.33642578 C-436.59994771 207.27025795 -436.59994771 207.27025795 -431.33203125 204.26171875 C-425.4418354 202.46040182 -418.77215133 202.40861008 -413.25 205.3125 C-406.60877434 210.43177812 -405.4310679 214.91136913 -404.29394531 222.89990234 C-404.13221455 223.94887381 -403.97048378 224.99784527 -403.80385208 226.07860374 C-403.26821395 229.59166536 -402.75769239 233.10779747 -402.25 236.625 C-401.88284385 239.11211557 -401.51544729 241.59919565 -401.14782715 244.08624268 C-400.03054703 251.70873684 -398.94628251 259.33572207 -397.86736584 266.96372652 C-397.31688115 270.85044157 -396.76277722 274.73664076 -396.20904541 278.62289429 C-395.03906404 286.83789097 -393.87255873 295.0533783 -392.70684814 303.26898193 C-390.74940023 317.06417445 -388.78803652 330.85881086 -386.82406235 344.6530757 C-386.59768177 346.2431881 -386.37134558 347.83330682 -386.14505386 349.42343187 C-382.33881576 376.16857918 -378.43352954 402.89739407 -374.44029617 429.61533737 C-372.65061135 441.60996707 -370.93392118 453.61508249 -369.25 465.625 C-368.79898926 464.75270752 -368.79898926 464.75270752 -368.33886719 463.86279297 C-362.30628838 452.21029475 -356.19669896 440.60817892 -349.88916016 429.10205078 C-346.01965998 422.04311415 -342.18807118 414.96457405 -338.375 407.875 C-337.79065186 406.78872314 -337.20630371 405.70244629 -336.60424805 404.58325195 C-335.41485716 402.37167985 -334.225649 400.16000947 -333.03662109 397.94824219 C-325.10109722 383.1876039 -317.16493074 368.42728919 -309.16186523 353.703125 C-306.57113429 348.93216207 -303.99447034 344.15470866 -301.45422363 339.35662842 C-300.50603504 337.56608398 -299.55512101 335.77701178 -298.60351562 333.98828125 C-297.39852238 331.72050681 -296.19899352 329.44981743 -295.00585938 327.17578125 C-287.08331892 312.2989074 -287.08331892 312.2989074 -280.25 309.625 C-272.96594561 308.82185771 -267.56491659 309.27721988 -261.6640625 313.85546875 C-256.36226083 318.88571472 -255.67323782 325.35314163 -254.61523438 332.26074219 C-254.2220104 334.80618402 -253.79364745 337.3440594 -253.359375 339.8828125 C-252.49298789 344.97234524 -251.6524802 350.06581455 -250.81787109 355.16064453 C-249.78147778 361.48326757 -248.73634178 367.80443099 -247.6875 374.125 C-247.47383789 375.4126123 -247.26017578 376.70022461 -247.04003906 378.02685547 C-245.76302646 385.67804181 -244.39854374 393.30137149 -242.9296875 400.91796875 C-241.9936655 406.02305424 -241.1959676 411.1472723 -240.42724609 416.2800293 C-239.57042084 421.90333703 -238.53281479 427.48472898 -237.47200012 433.07292175 C-236.01064253 440.81612165 -234.69109656 448.58246537 -233.37545776 456.35153198 C-232.9235593 459.01981433 -232.46992609 461.68779705 -232.01586914 464.35571289 C-231.39222363 468.02058288 -230.76910048 471.68554093 -230.14648438 475.35058594 C-228.83161926 483.08871152 -227.511544 490.82593999 -226.1875 498.5625 C-226.06579437 499.27429413 -225.94408875 499.98608826 -225.81869507 500.7194519 C-224.48697309 508.50335197 -223.13942332 516.28407528 -221.75390625 524.05859375 C-221.62981888 524.7551709 -221.50573151 525.45174805 -221.37788391 526.16943359 C-221.12707525 527.5771281 -220.87626653 528.9848226 -220.62545776 530.39251709 C-220.5015567 531.08798645 -220.37765564 531.78345581 -220.25 532.5 C-220.12682404 533.19095764 -220.00364807 533.88191528 -219.8767395 534.59381104 C-217.84317294 546.02369101 -215.95998213 557.47421585 -214.125 568.9375 C-212.49627803 579.10251575 -210.85005009 589.25852248 -208.9375 599.375 C-208.77813965 600.22618408 -208.6187793 601.07736816 -208.45458984 601.9543457 C-208.0099053 605.59332974 -208.0099053 605.59332974 -206.25 608.625 C-206.06509506 608.01208603 -205.88019012 607.39917206 -205.68968201 606.76768494 C-203.72631668 600.2598174 -201.76255447 593.7520697 -199.79858398 587.24438477 C-199.07029661 584.83100266 -198.34210312 582.41759222 -197.61401367 580.00415039 C-194.04907493 568.18744868 -190.48108177 556.37181567 -186.87890625 544.56640625 C-182.112813 528.93631558 -177.43898025 513.27835081 -172.75 497.625 C-170.9276768 491.54148871 -169.10499076 485.4580865 -167.28125 479.375 C-167.05936508 478.63487671 -166.83748016 477.89475342 -166.60887146 477.13220215 C-163.74032936 467.56614906 -160.85112936 458.00668635 -157.93481445 448.45507812 C-155.3372363 439.93604964 -152.77632708 431.40609972 -150.21875 422.875 C-149.99714706 422.13584351 -149.77554413 421.39668701 -149.54722595 420.63513184 C-147.94749524 415.29861755 -146.34865582 409.96183638 -144.75 404.625 C-142.9276768 398.54148871 -141.10499076 392.4580865 -139.28125 386.375 C-139.05936508 385.63487671 -138.83748016 384.89475342 -138.60887146 384.13220215 C-135.74032936 374.56614906 -132.85112936 365.00668635 -129.93481445 355.45507812 C-127.3372363 346.93604964 -124.77632708 338.40609972 -122.21875 329.875 C-121.99714706 329.13584351 -121.77554413 328.39668701 -121.54722595 327.63513184 C-119.94749524 322.29861755 -118.34865582 316.96183638 -116.75 311.625 C-114.9276768 305.5414887 -113.10497794 299.45809035 -111.28125 293.375 C-111.05936508 292.63485594 -110.83748016 291.89471188 -110.60887146 291.13213921 C-108.00805935 282.45862548 -105.39488775 273.78910165 -102.75 265.12890625 C-99.87324182 255.70906325 -97.04191342 246.27585022 -94.21875 236.83984375 C-93.77015219 235.34103077 -93.32154375 233.84222096 -92.8729248 232.34341431 C-91.0359641 226.20546482 -89.1993344 220.06741769 -87.36572266 213.9284668 C-86.00623042 209.37749304 -84.64478784 204.82710705 -83.28125 200.27734375 C-82.95216141 199.17917674 -82.95216141 199.17917674 -82.61642456 198.05882454 C-79.66309308 188.21405795 -76.64918817 178.39234258 -73.46789551 168.61827087 C-71.55803349 162.72674082 -69.87204092 156.78927695 -68.25 150.8125 C-64.65276257 137.71349335 -60.67093202 124.73576068 -56.6875 111.75 C-56.36612061 110.70145844 -56.04474121 109.65291687 -55.71362305 108.57260132 C-52.51642134 98.14858686 -49.2933135 87.73410358 -45.98828125 77.34375 C-43.8460492 70.59888072 -41.84930837 63.83172741 -40 57 C-37.3403513 47.39843826 -34.61189124 37.81777926 -31.77648926 28.2666626 C-31.34696379 26.81346293 -30.92165085 25.35901057 -30.50085449 23.90325928 C-25.05292482 5.08902403 -25.05292482 5.08902403 -18.0625 0.125 C-12.32741791 -2.66773563 -5.84277483 -2.34604726 0 0 Z " fill="#FDFEFD" transform="translate(1018.25,565.375)"/>
<path d="M0 0 C0.90878906 0.43570313 1.81757812 0.87140625 2.75390625 1.3203125 C16.70451606 8.42173557 28.15970249 19.88718105 39 31 C42.98216066 29.42392236 45.44795861 26.61666663 48.3125 23.5625 C61.04489119 10.44162246 79.42720002 -3.87018282 98.43066406 -4.24145508 C114.58861677 -4.30817621 129.80753957 0.01173319 142 11 C142.82371094 11.73089844 143.64742187 12.46179688 144.49609375 13.21484375 C160.60819264 28.34599294 167.42838251 49.16785813 168.50634766 70.82495117 C169.0581862 94.04295813 159.07933006 113.99771646 143.50675774 130.66917992 C140.80932194 133.43425064 138.08158068 136.1667596 135.33959961 138.88745117 C134.30337206 139.92311281 133.2675882 140.95921853 132.23220825 141.99572754 C129.45422904 144.77427426 126.67018269 147.54666528 123.88489985 150.31788802 C120.96249124 153.22768746 118.04584759 156.14325448 115.1285553 159.05818176 C109.6186032 164.56194875 104.10357875 170.06060308 98.58665615 175.55738193 C92.29962516 181.82196084 86.01835736 188.09230501 79.73753726 194.36310995 C66.83137069 207.24844188 53.91808138 220.12661372 41 233 C37.46471521 231.4897336 35.17967388 229.43549293 32.46598816 226.7334137 C31.56187698 225.83783249 30.65776581 224.94225128 29.72625732 224.01953125 C28.73170323 223.02427813 27.73726118 222.02891303 26.74291992 221.03344727 C25.69006003 219.98657328 24.63679134 218.94011029 23.58314514 217.89402771 C20.72272866 215.05128167 17.86883459 212.20207326 15.01660323 209.35111737 C13.23132137 207.56725819 11.44462243 205.78483129 9.65740395 204.00291252 C3.41325375 197.77727292 -2.82569956 191.54647919 -9.05981445 185.31079102 C-14.85482164 179.5145853 -20.66085602 173.72959385 -26.4722603 167.9498325 C-31.47153444 162.97680348 -36.46297128 157.99599789 -41.44850272 153.00919193 C-44.42138573 150.03580128 -47.39722544 147.06553324 -50.38099098 144.10305977 C-53.19299852 141.3105711 -55.99503353 138.50843157 -58.79006386 135.69895363 C-59.81083837 134.67610606 -60.83495722 133.65658197 -61.86285019 132.64088821 C-77.65901069 117.01993866 -87.94038108 97.44236844 -88.19067383 74.91333008 C-88.15627426 52.14346173 -81.81052521 31.86122467 -66 15 C-49.1781691 -1.25071936 -22.19632064 -11.29101935 0 0 Z " fill="#FEFEFE" transform="translate(1090,866)"/>
<path d="M0 0 C1.06605469 0.36222656 2.13210937 0.72445312 3.23046875 1.09765625 C19.14334708 7.04733826 30.18809726 18.19677254 38 33 C47.14227872 53.45469431 48.91492856 80.84150084 41 102 C35.69425528 115.15662301 28.89031085 125.94011435 16.06640625 132.84375 C13.86767683 133.95112809 13.86767683 133.95112809 12 136 C12.78503906 136.42410156 13.57007813 136.84820312 14.37890625 137.28515625 C30.06760712 146.04387882 37.93785676 158.1237187 42.9765625 175.3359375 C49.46023867 203.75504145 46.06116343 237.75224056 31 263 C21.21674415 277.30162703 7.228714 286.87836456 -9.8671875 290.34375 C-32.48671477 293.85123818 -60.34831789 293.03259596 -79.84765625 280.11328125 C-95.92606907 267.76952239 -105.08413171 248.88092014 -108 229 C-109.0265155 217.70832955 -109 206.33823423 -109 195 C-90.85 195 -72.7 195 -54 195 C-53.505 207.375 -53.505 207.375 -53 220 C-50.00246428 233.82562033 -50.00246428 233.82562033 -41 243 C-34.68389617 245.12781323 -26.63326466 245.11701331 -20.5 242.5 C-15.148228 239.35777702 -13.77386472 234.19940498 -11.8125 228.625 C-7.87183425 211.04356818 -6.69822711 185.51426541 -16.625 169.796875 C-20.94504078 164.15136716 -25.06673241 162.59997535 -32 160 C-38.27 159.34 -44.54 158.68 -51 158 C-51 144.8 -51 131.6 -51 118 C-43.08 117.505 -43.08 117.505 -35 117 C-26.8945939 115.10873858 -19.95210104 112.72562716 -15.16796875 105.40234375 C-7.34307412 89.30766081 -8.07775029 68.83366784 -13 52 C-14.45075968 47.80891648 -16.53659742 44.9490012 -20.3125 42.5625 C-26.39088546 39.91823062 -33.54618711 40.04387957 -40 41 C-45.78698621 43.98501478 -48.94885008 47.85872571 -51.01171875 54.0234375 C-53.49188693 66.32392478 -53.45552273 76.93254557 -54 90 C-72.15 90 -90.3 90 -109 90 C-109.04125 85.2975 -109.0825 80.595 -109.125 75.75 C-109.14320801 74.29303711 -109.16141602 72.83607422 -109.18017578 71.33496094 C-109.2654339 51.05453017 -104.17503283 31.08823124 -89.99609375 15.8671875 C-67.11496004 -5.53629961 -29.14812341 -10.64691933 0 0 Z " fill="#FEFEFD" transform="translate(226,129)"/>
<path d="M0 0 C7.09290521 5.64208369 9.59970496 11.46302525 11.75 20.1875 C12.27866304 24.88359245 12.31229671 29.52373096 12.28125 34.24609375 C12.28699036 36.20531517 12.28699036 36.20531517 12.29284668 38.20411682 C12.29869347 40.94983171 12.29033902 43.69502083 12.27148438 46.44067383 C12.24871918 49.92131 12.26183159 53.40071008 12.28577423 56.88130093 C12.30389088 60.25299154 12.29112165 63.6243683 12.28125 66.99609375 C12.28934692 68.22565292 12.29744385 69.4552121 12.30578613 70.72203064 C12.18880353 81.68443097 10.3632932 92.86599347 2.75 101.1875 C-7.19947929 108.56786492 -19.42199072 108.3561715 -31.25 107.1875 C-37.34302906 105.6132918 -42.157434 102.32654456 -46.00390625 97.3359375 C-51.90583174 87.16020389 -52.40481408 75.80444778 -52.41796875 64.36328125 C-52.42129715 63.34002243 -52.42462555 62.31676361 -52.42805481 61.26249695 C-52.43309664 59.10509691 -52.43546399 56.94768913 -52.43530273 54.7902832 C-52.43748172 51.5273723 -52.45564647 48.26480403 -52.47460938 45.00195312 C-52.56732079 11.5831647 -52.56732079 11.5831647 -43.42578125 2.34375 C-30.99515056 -7.62029189 -13.60586366 -7.5878855 0 0 Z " fill="#FBFDFB" transform="translate(518.25,131.8125)"/>
<path d="M0 0 C6.4001217 5.80476154 10.32228958 13.81396507 10.88180542 22.4294281 C10.9687509 26.13788575 10.99086097 29.84129453 10.98828125 33.55078125 C10.99217592 34.92929715 10.99651216 36.30781187 11.00126648 37.68632507 C11.00870228 40.56851092 11.00845731 43.45057422 11.00317383 46.33276367 C10.99739146 50.00081645 11.01429272 53.66836226 11.0375185 57.33633137 C11.05235382 60.18219365 11.0531142 63.02793669 11.05000877 65.8738308 C11.05076232 67.87548935 11.06455799 69.87712959 11.07868958 71.8787384 C11.02579586 82.3912466 9.58595273 92.11114173 2.6875 100.4375 C-4.3997585 106.82578576 -11.2209525 107.82170617 -20.5 107.875 C-21.49064453 107.90787109 -22.48128906 107.94074219 -23.50195312 107.97460938 C-30.74568197 108.02685922 -36.30431108 106.58978901 -42.3125 102.4375 C-52.13737887 92.27893653 -52.46811296 80.7547859 -52.48046875 67.41796875 C-52.48379715 66.16421951 -52.48712555 64.91047028 -52.49055481 63.61872864 C-52.49560654 60.97193844 -52.49839763 58.32525103 -52.49780273 55.6784668 C-52.49772146 52.9814585 -52.50466843 50.28461999 -52.51831055 47.58764648 C-52.53670915 43.67686835 -52.54154269 39.76628596 -52.54296875 35.85546875 C-52.55015427 34.66036179 -52.55733978 33.46525482 -52.56474304 32.2339325 C-52.53387625 20.81822197 -51.56744992 11.47431867 -43.78125 2.71484375 C-32.26057628 -8.34391617 -13.41126458 -6.3260682 0 0 Z " fill="#FCFDFC" transform="translate(594.3125,131.5625)"/>
<path d="M0 0 C44.26717557 0 44.26717557 0 52.72265625 7.53515625 C60.46930456 15.89087765 60.46393931 24.95534723 60.43359375 35.83203125 C60.4381646 37.27398421 60.44347283 38.71593499 60.44947815 40.15788269 C60.45837803 43.17118206 60.45602347 46.18421598 60.44604492 49.19750977 C60.43457991 53.03037451 60.45474367 56.86231449 60.48396206 60.69505787 C60.50244708 63.67137836 60.50200704 66.64748246 60.49632454 69.62384605 C60.49617271 71.03543072 60.50210077 72.44703137 60.51461601 73.85856056 C60.59811019 84.82051399 59.57783462 95.27409839 51.703125 103.56640625 C37.94611676 115.14627328 15.20101791 110 0 110 C0 73.7 0 37.4 0 0 Z " fill="#FEFEFD" transform="translate(619,128)"/>
<path d="M0 0 C45.62264151 0 45.62264151 0 54.5625 8.3125 C60.86867721 16.11172851 60.46010087 25.3311498 60.43359375 34.83203125 C60.4381646 36.27398421 60.44347283 37.71593499 60.44947815 39.15788269 C60.45837803 42.17118206 60.45602347 45.18421598 60.44604492 48.19750977 C60.43457991 52.03037451 60.45474367 55.86231449 60.48396206 59.69505787 C60.50244708 62.67137836 60.50200704 65.64748246 60.49632454 68.62384605 C60.49617271 70.03543072 60.50210077 71.44703137 60.51461601 72.85856056 C60.59970401 84.02976686 59.52263751 94.24988126 51.49609375 102.63671875 C38.55693604 114.42723061 13.4716284 109 0 109 C0 73.03 0 37.06 0 0 Z " fill="#FEFEFE" transform="translate(536,308)"/>
<path d="M0 0 C44.17948718 0 44.17948718 0 51.9375 6.4375 C58.91987802 15.11257573 59.8897451 23.15623157 59 34 C57.43966322 40.87080115 54.82299866 45.07580525 49 49 C48.01 49.495 48.01 49.495 47 50 C47.53109375 50.37511719 48.0621875 50.75023437 48.609375 51.13671875 C55.24611305 55.94472059 60.28540276 60.65065691 62 69 C62.85871997 79.95448183 63.00439231 91.48868422 55.8125 100.4375 C51.54121211 104.86295327 46.75731508 107.08089497 41 109 C27.47 109 13.94 109 0 109 C0 73.03 0 37.06 0 0 Z " fill="#FDFDFC" transform="translate(956,308)"/>
<path d="M0 0 C5.61 0 11.22 0 17 0 C21.95295782 34.14212821 21.95295782 34.14212821 23.8125 48.8125 C23.9360083 49.76962891 24.0595166 50.72675781 24.18676758 51.71289062 C24.74031434 56.17375465 25.14151667 60.49381134 25 65 C25.66 65 26.32 65 27 65 C27.03810791 64.40606445 27.07621582 63.81212891 27.11547852 63.20019531 C27.79891334 54.28149541 29.3692991 45.54429817 30.9375 36.75 C31.47123332 33.74544671 32.00153617 30.74032572 32.52734375 27.734375 C32.65523285 27.00440308 32.78312195 26.27443115 32.91488647 25.52233887 C33.97773589 19.35157584 34.81260689 13.16492105 35.57250977 6.95019531 C36 4 36 4 37 1 C41.62 1 46.24 1 51 1 C53.54408226 11.38076423 55.35293305 21.75990503 57 32.3125 C57.49705613 35.47573157 57.99706946 38.63847837 58.5 41.80078125 C58.62157471 42.56601105 58.74314941 43.33124084 58.8684082 44.11965942 C60.09899579 51.77438125 61.52551013 59.38899176 63 67 C63.10022461 66.16791016 63.20044922 65.33582031 63.30371094 64.47851562 C64.24246647 56.6917407 65.18547494 48.90549551 66.13374329 41.11987305 C66.61304413 37.18431016 67.09109433 33.24860579 67.56591797 29.3125 C68.01591723 25.58358325 68.47021165 21.85521312 68.9276123 18.12719727 C69.1009277 16.70859981 69.27272051 15.2898155 69.44299316 13.87084961 C69.68065055 11.89258163 69.92415817 9.91501906 70.16796875 7.9375 C70.30485107 6.81214844 70.4417334 5.68679688 70.58276367 4.52734375 C71 2 71 2 72 1 C74.69654854 0.92680379 77.36691458 0.90757463 80.0625 0.9375 C80.82111328 0.94201172 81.57972656 0.94652344 82.36132812 0.95117188 C84.24091871 0.9629932 86.12046899 0.98092922 88 1 C87.36708576 12.43089501 85.73271184 23.67919452 84.09375 35 C83.8057835 37.00963725 83.51815101 39.01932239 83.23083496 41.02905273 C82.63155102 45.21489117 82.02953985 49.40032437 81.42529297 53.58544922 C80.65140926 58.9457876 79.88246034 64.30681877 79.11528778 69.66812134 C78.52287796 73.80667818 77.92888347 77.94500619 77.33430481 82.08325195 C77.05017973 84.06075357 76.76631309 86.03829234 76.48271179 88.01586914 C76.08694021 90.77251102 75.68927784 93.52887324 75.29101562 96.28515625 C75.1164257 97.50393211 75.1164257 97.50393211 74.93830872 98.74732971 C74.82899521 99.50110397 74.7196817 100.25487823 74.60705566 101.03149414 C74.51340981 101.68106583 74.41976395 102.33063751 74.32328033 102.99989319 C73.94437234 105.34416339 73.46571591 107.67142045 73 110 C67.39 110 61.78 110 56 110 C55.62488281 107.73769531 55.24976563 105.47539062 54.86328125 103.14453125 C52.33039087 87.88374109 49.78741662 72.6245297 47.1875 57.375 C46.9810083 56.15014893 46.7745166 54.92529785 46.56176758 53.66333008 C46.36993896 52.54466553 46.17811035 51.42600098 45.98046875 50.2734375 C45.73139771 48.81043213 45.73139771 48.81043213 45.47729492 47.31787109 C45.1012241 44.98775804 45.1012241 44.98775804 44 43 C40.37 65.11 36.74 87.22 33 110 C27.06 110 21.12 110 15 110 C13.04098091 96.24886183 11.08494202 82.49730339 9.13272858 68.7451973 C8.22618788 62.35986899 7.31861322 55.97469119 6.40869141 49.58984375 C5.53094609 43.43050579 4.65589613 37.27079044 3.7827301 31.1108017 C3.44878014 28.75829109 3.11385183 26.40591916 2.77793884 24.05368805 C2.30836892 20.7643416 1.84224967 17.47452358 1.37695312 14.18457031 C1.23669205 13.20777313 1.09643097 12.23097595 0.95191956 11.22457886 C0.82570724 10.32717987 0.69949493 9.42978088 0.56945801 8.50518799 C0.45884285 7.72719471 0.34822769 6.94920143 0.23426056 6.1476326 C0 4 0 4 0 0 Z " fill="#FBFDFB" transform="translate(639,307)"/>
<path d="M0 0 C6.6 0 13.2 0 20 0 C20 15.18 20 30.36 20 46 C27.26 46 34.52 46 42 46 C42 30.82 42 15.64 42 0 C48.6 0 55.2 0 62 0 C62 36.3 62 72.6 62 110 C55.4 110 48.8 110 42 110 C42 93.83 42 77.66 42 61 C34.74 61 27.48 61 20 61 C20 77.17 20 93.34 20 110 C13.4 110 6.8 110 0 110 C0 73.7 0 37.4 0 0 Z " fill="#FEFEFD" transform="translate(1041,128)"/>
<path d="M0 0 C6.6 0 13.2 0 20 0 C20 15.18 20 30.36 20 46 C27.26 46 34.52 46 42 46 C42 30.82 42 15.64 42 0 C48.6 0 55.2 0 62 0 C62 36.3 62 72.6 62 110 C55.4 110 48.8 110 42 110 C42 93.83 42 77.66 42 61 C34.74 61 27.48 61 20 61 C20 77.17 20 93.34 20 110 C13.4 110 6.8 110 0 110 C0 73.7 0 37.4 0 0 Z " fill="#FEFEFD" transform="translate(726,128)"/>
<path d="M0 0 C4.62 0 9.24 0 14 0 C17.33854926 6.55757744 20.44721232 13.14513083 23.3203125 19.91796875 C23.70565155 20.81945145 24.0909906 21.72093414 24.48800659 22.6497345 C25.70321444 25.4944389 26.91419361 28.34091982 28.125 31.1875 C28.94372748 33.10624054 29.76273569 35.02486133 30.58203125 36.94335938 C32.38712364 41.17148121 34.18955759 45.40072436 35.98953247 49.63102722 C37.32235061 52.75572921 38.6618238 55.87758888 40 59 C40.33 39.53 40.66 20.06 41 0 C46.28 0 51.56 0 57 0 C58 1 58 1 58.12304783 2.82534122 C58.12166514 4.02966376 58.12166514 4.02966376 58.12025452 5.25831604 C58.12162918 6.1768335 58.12300385 7.09535095 58.12442017 8.04170227 C58.11902725 9.56515511 58.11902725 9.56515511 58.11352539 11.11938477 C58.11367142 12.18266998 58.11381744 13.2459552 58.1139679 14.34146118 C58.11326825 17.87479658 58.10547343 21.40808 58.09765625 24.94140625 C58.09579225 27.38378368 58.09436827 29.82616149 58.09336853 32.26853943 C58.08954189 38.71134464 58.07971037 45.15412748 58.06866455 51.59692383 C58.05845356 58.16552426 58.05387158 64.7341283 58.04882812 71.30273438 C58.03808823 84.20183277 58.02101007 97.10091453 58 110 C53.38 110 48.76 110 44 110 C34.90166078 89.50686574 26.47561706 68.75807907 18 48 C17.67 68.46 17.34 88.92 17 110 C11.39 110 5.78 110 0 110 C0 73.7 0 37.4 0 0 Z " fill="#FAFCFA" transform="translate(463,307)"/>
<path d="M0 0 C5.61 0 11.22 0 17 0 C17 36.3 17 72.6 17 110 C12.38 110 7.76 110 3 110 C2.45585449 108.67983887 1.91170898 107.35967773 1.35107422 105.99951172 C-0.69433452 101.03784503 -2.74102922 96.07670963 -4.78808594 91.11572266 C-5.66896328 88.98044766 -6.54950537 86.84503432 -7.4296875 84.70947266 C-8.70481727 81.61583394 -9.98120691 78.52271745 -11.2578125 75.4296875 C-11.64244659 74.49575165 -12.02708069 73.5618158 -12.42337036 72.59957886 C-15.54779063 65.03486603 -18.77502149 57.52494987 -22 50 C-22.33 69.8 -22.66 89.6 -23 110 C-28.61 110 -34.22 110 -40 110 C-40 74.03 -40 38.06 -40 1 C-35.38 1 -30.76 1 -26 1 C-20.21297361 13.18771061 -14.85027673 25.5260818 -9.5625 37.9375 C-6.736875 44.558125 -3.91125 51.17875 -1 58 C-0.67 38.86 -0.34 19.72 0 0 Z " fill="#FCFDFC" transform="translate(1164,307)"/>
<path d="M0 0 C6.64915572 5.44021832 9.3963706 11.81667395 10.75 20.25 C10.96827479 24.62024099 10.89131843 28.86912855 10.75 33.25 C4.15 33.25 -2.45 33.25 -9.25 33.25 C-9.625 25.5 -9.625 25.5 -9.72802734 23.07910156 C-9.93406419 19.37789671 -10.13633626 16.35832903 -12.25 13.25 C-15.2457868 10.94554862 -18.55913879 10.77604415 -22.28125 10.859375 C-25.67127675 11.53199936 -27.21848242 13.60287104 -29.25 16.25 C-30.31530157 19.4459047 -30.39601992 21.77912279 -30.42700195 25.13916016 C-30.43983719 26.35117096 -30.45267242 27.56318176 -30.46589661 28.81192017 C-30.47328354 30.12437714 -30.48067047 31.43683411 -30.48828125 32.7890625 C-30.49235678 33.45909679 -30.4964323 34.12913109 -30.50063133 34.81946945 C-30.52148104 38.37004027 -30.53578414 41.92057265 -30.54516602 45.47119141 C-30.55619287 49.11936046 -30.59055153 52.76691324 -30.63033772 56.41486549 C-30.65662954 59.23579961 -30.66486915 62.05659012 -30.66844749 64.87763596 C-30.67562249 66.86997962 -30.70201234 68.86222463 -30.72883606 70.85440063 C-30.71188775 77.9853497 -30.34501565 84.18743718 -26.25 90.25 C-22.5532604 92.0983698 -18.28556179 91.72016254 -14.25 91.25 C-10.72062287 88.86767044 -9.53209416 86.23402813 -8.25 82.25 C-7.87519087 79.15131251 -7.74311652 76.05528387 -7.625 72.9375 C-7.58632813 72.10154297 -7.54765625 71.26558594 -7.5078125 70.40429688 C-7.41404841 68.35320741 -7.33095755 66.30163485 -7.25 64.25 C-11.21 64.25 -15.17 64.25 -19.25 64.25 C-19.25 59.63 -19.25 55.01 -19.25 50.25 C-9.35 50.25 0.55 50.25 10.75 50.25 C10.75 68.73 10.75 87.21 10.75 106.25 C6.46 106.25 2.17 106.25 -2.25 106.25 C-2.91 103.28 -3.57 100.31 -4.25 97.25 C-4.8275 98.178125 -5.405 99.10625 -6 100.0625 C-9.4066864 104.88863907 -12.49086328 106.8887495 -18.25 108.25 C-25.89420939 109.05655438 -32.59908259 108.27913939 -39.25 104.25 C-46.61911264 97.99613621 -50.38730397 89.76412596 -51.25 80.25 C-51.40599215 75.81388412 -51.41395084 71.37996191 -51.41796875 66.94140625 C-51.42129715 65.66071762 -51.42462555 64.38002899 -51.42805481 63.06053162 C-51.43401747 60.3582983 -51.4358976 57.65609684 -51.43530273 54.95385742 C-51.43520111 51.50992002 -51.44886668 48.06618874 -51.46607494 44.62230015 C-51.47993518 41.31199944 -51.47928522 38.00173555 -51.48046875 34.69140625 C-51.48765427 33.46410294 -51.49483978 32.23679962 -51.50224304 30.9723053 C-51.47561333 20.94903154 -50.47580756 11.05645284 -43.4921875 3.296875 C-31.51399948 -7.88276715 -13.90643854 -7.48808229 0 0 Z " fill="#FCFDFC" transform="translate(443.25,131.75)"/>
<path d="M0 0 C5.05678868 4.23359052 8.03270267 8.83952385 9.6875 15.25 C9.91318994 18.38215319 9.87705427 21.48697702 9.8125 24.625 C9.77125 27.47125 9.73 30.3175 9.6875 33.25 C3.4175 33.25 -2.8525 33.25 -9.3125 33.25 C-9.6875 25.5 -9.6875 25.5 -9.79052734 23.07910156 C-9.99647626 19.37947625 -10.19385576 16.35424065 -12.3125 13.25 C-15.74952931 10.70405236 -19.16296112 10.88600536 -23.3125 11.25 C-26.45664691 12.57752869 -27.89388812 13.41617095 -29.43205261 16.48002625 C-30.42054805 19.58992974 -30.57306491 22.1207683 -30.5871582 25.38208008 C-30.59669022 26.59716751 -30.60622223 27.81225494 -30.61604309 29.06416321 C-30.61467598 31.02207039 -30.61467598 31.02207039 -30.61328125 33.01953125 C-30.61717277 34.38327667 -30.62150837 35.74702088 -30.62626648 37.11076355 C-30.63371536 39.96621634 -30.63344787 42.82154547 -30.62817383 45.67700195 C-30.62239141 49.31840671 -30.63928634 52.95930079 -30.6625185 56.60062122 C-30.67732556 59.41724051 -30.67811796 62.23373892 -30.67500877 65.05039024 C-30.67576525 67.03994872 -30.68958637 69.02948856 -30.70368958 71.01899719 C-30.66924009 77.79156507 -30.36684818 83.14911997 -27.3125 89.25 C-24.56215742 91.62867467 -22.90539306 92.17588837 -19.3125 92.625 C-15.71960694 92.17588837 -14.06284258 91.62867467 -11.3125 89.25 C-8.62417762 83.32257699 -7.80920094 78.21282149 -7.625 71.75 C-7.59083984 70.92757812 -7.55667969 70.10515625 -7.52148438 69.2578125 C-7.4400012 67.2556545 -7.37455425 65.25285432 -7.3125 63.25 C-11.2725 63.25 -15.2325 63.25 -19.3125 63.25 C-19.3125 58.96 -19.3125 54.67 -19.3125 50.25 C-9.4125 50.25 0.4875 50.25 10.6875 50.25 C10.6875 68.73 10.6875 87.21 10.6875 106.25 C6.3975 106.25 2.1075 106.25 -2.3125 106.25 C-2.9725 103.61 -3.6325 100.97 -4.3125 98.25 C-4.66441406 98.72050781 -5.01632812 99.19101562 -5.37890625 99.67578125 C-8.8999492 104.11615657 -11.69355773 106.68406527 -17.3125 108.25 C-26.46613621 109.2362036 -34.33764399 107.91992701 -41.625 102.125 C-48.46799594 95.64932194 -50.89110597 86.4630458 -51.51565552 77.25466919 C-51.60868166 73.80912786 -51.64206234 70.36867438 -51.6484375 66.921875 C-51.6550943 65.65587463 -51.6617511 64.38987427 -51.66860962 63.08551025 C-51.67869917 60.41607515 -51.68429753 57.74704788 -51.68310547 55.07763672 C-51.68290283 51.69452049 -51.71017648 48.31224945 -51.74464989 44.92933273 C-51.772536 41.65604751 -51.77107507 38.38276259 -51.7734375 35.109375 C-51.78780853 33.91415222 -51.80217957 32.71892944 -51.81698608 31.48748779 C-51.75677866 20.22347776 -49.85567649 9.29317649 -41.625 1.0625 C-29.87409447 -8.1476692 -12.60811203 -6.66088937 0 0 Z " fill="#FCFDFC" transform="translate(1246.3125,310.75)"/>
<path d="M0 0 C7.26 0 14.52 0 22 0 C27.5256433 26.25903053 32.95112032 52.53654259 38.21903992 78.84843445 C38.62581911 80.87908904 39.03334461 82.90959266 39.44104004 84.94006348 C40.20550961 88.74858099 40.96636269 92.55781527 41.7265625 96.3671875 C42.0727211 98.09202866 42.0727211 98.09202866 42.4258728 99.85171509 C42.63418732 100.89951141 42.84250183 101.94730774 43.05712891 103.02685547 C43.24014557 103.94352997 43.42316223 104.86020447 43.61172485 105.80465698 C44 108 44 108 44 110 C37.73 110 31.46 110 25 110 C23.08974618 101.61149411 21.57977637 93.58069025 21 85 C14.73 85 8.46 85 2 85 C1.566875 87.84625 1.566875 87.84625 1.125 90.75 C0.13742103 97.17631747 -0.91860058 103.58884631 -2 110 C-8.27 110 -14.54 110 -21 110 C-20.32086307 101.01028442 -18.59075763 92.31217214 -16.796875 83.49609375 C-16.47355233 81.88884405 -16.15066502 80.28150671 -15.82818604 78.67408752 C-14.97950234 74.44966294 -14.1250725 70.22642119 -13.26934814 66.00341797 C-12.41708239 61.79267028 -11.57003203 57.5808746 -10.72265625 53.36914062 C-9.41853728 46.88995133 -8.11167626 40.41132204 -6.80273438 33.93310547 C-4.51841116 22.62540612 -2.25821266 11.31294522 0 0 Z " fill="#FCFDFC" transform="translate(877,128)"/>
<path d="M0 0 C6.93 0 13.86 0 21 0 C26.27101952 22.92451787 31.03676226 45.92074969 35.49755859 69.0168457 C35.79870071 70.5748011 35.79870071 70.5748011 36.10592651 72.16423035 C36.49997207 74.2028709 36.89347732 76.24161597 37.28640747 78.2804718 C38.70260729 85.58687961 40.21006327 92.87098836 41.81964111 100.13734436 C42.55838074 103.53882557 43 106.49831924 43 110 C36.73 110 30.46 110 24 110 C22.68 101.75 21.36 93.5 20 85 C13.73 85 7.46 85 1 85 C1 87.31 1 89.62 1 92 C0.52517051 93.96262856 0.04844896 95.92556396 -0.4921875 97.87109375 C-1.228623 100.95845796 -1.48847984 104.05681119 -1.75390625 107.21484375 C-2 109 -2 109 -3 110 C-4.41570123 110.08651611 -5.835595 110.10704904 -7.25390625 110.09765625 C-8.10791016 110.09443359 -8.96191406 110.09121094 -9.84179688 110.08789062 C-10.73962891 110.07951172 -11.63746094 110.07113281 -12.5625 110.0625 C-13.46419922 110.05798828 -14.36589844 110.05347656 -15.29492188 110.04882812 C-17.53001314 110.03700225 -19.76497437 110.0205222 -22 110 C-21.23468477 102.75441869 -19.80230278 95.68833821 -18.33984375 88.5546875 C-18.07107693 87.23329311 -17.80254803 85.91185032 -17.53424072 84.59036255 C-16.8196301 81.07504286 -16.10111586 77.56053219 -15.38164902 74.04620361 C-14.7887932 71.14805312 -14.1981808 68.24944715 -13.60748005 65.35085678 C-9.16330209 43.54789961 -4.64123291 21.76191381 0 0 Z " fill="#FCFDFC" transform="translate(410,307)"/>
<path d="M0 0 C15.18 0 30.36 0 46 0 C46 4.95 46 9.9 46 15 C37.75 15 29.5 15 21 15 C21 25.23 21 35.46 21 46 C27.6 46 34.2 46 41 46 C41 50.95 41 55.9 41 61 C34.4 61 27.8 61 21 61 C21 72.55 21 84.1 21 96 C29.58 96 38.16 96 47 96 C47 100.62 47 105.24 47 110 C31.49 110 15.98 110 0 110 C0 73.7 0 37.4 0 0 Z " fill="#F9FBF8" transform="translate(739,307)"/>
<path d="M0 0 C15.18 0 30.36 0 46 0 C46 4.95 46 9.9 46 15 C37.42 15 28.84 15 20 15 C20 25.23 20 35.46 20 46 C26.93 46 33.86 46 41 46 C41 50.62 41 55.24 41 60 C34.07 60 27.14 60 20 60 C20 71.88 20 83.76 20 96 C28.91 96 37.82 96 47 96 C47 100.62 47 105.24 47 110 C31.49 110 15.98 110 0 110 C0 73.7 0 37.4 0 0 Z " fill="#FDFDFC" transform="translate(804,128)"/>
<path d="M0 0 C15.18 0 30.36 0 46 0 C46 4.95 46 9.9 46 15 C37.42 15 28.84 15 20 15 C20 25.23 20 35.46 20 46 C26.93 46 33.86 46 41 46 C41 50.62 41 55.24 41 60 C34.07 60 27.14 60 20 60 C20 72.21 20 84.42 20 97 C28.58 97 37.16 97 46 97 C46 101.29 46 105.58 46 110 C30.82 110 15.64 110 0 110 C0 73.7 0 37.4 0 0 Z " fill="#FBFDFB" transform="translate(1030,307)"/>
<path d="M0 0 C18.81 0 37.62 0 57 0 C57 4.95 57 9.9 57 15 C51.06 15 45.12 15 39 15 C39 46.35 39 77.7 39 110 C32.4 110 25.8 110 19 110 C19 78.65 19 47.3 19 15 C12.73 15 6.46 15 0 15 C0 10.05 0 5.1 0 0 Z " fill="#FDFEFD" transform="translate(976,128)"/>
<path d="M0 0 C6.6 0 13.2 0 20 0 C21.88885195 1.88885195 21.12010635 4.64051759 21.12442017 7.15324402 C21.12082489 8.0379689 21.11722961 8.92269379 21.11352539 9.83422852 C21.11367142 10.76096375 21.11381744 11.68769897 21.1139679 12.64251709 C21.11326838 15.72133687 21.10547421 18.80009697 21.09765625 21.87890625 C21.09579221 24.00740018 21.09436824 26.13589453 21.09336853 28.26438904 C21.08954228 33.8786232 21.07971108 39.49283168 21.06866455 45.10705566 C21.05845273 50.83113253 21.0538714 56.55521353 21.04882812 62.27929688 C21.0380889 73.51954438 21.02049124 84.75976604 21 96 C29.58 96 38.16 96 47 96 C47 100.62 47 105.24 47 110 C31.49 110 15.98 110 0 110 C0 73.7 0 37.4 0 0 Z " fill="#F8FBF7" transform="translate(796,307)"/>
<path d="M0 0 C1.27423828 -0.00193359 1.27423828 -0.00193359 2.57421875 -0.00390625 C3.91419922 0.00189453 3.91419922 0.00189453 5.28125 0.0078125 C6.17457031 0.00394531 7.06789063 0.00007813 7.98828125 -0.00390625 C8.83777344 -0.00261719 9.68726563 -0.00132812 10.5625 0 C11.34689453 0.00112793 12.13128906 0.00225586 12.93945312 0.00341797 C14.78125 0.1328125 14.78125 0.1328125 15.78125 1.1328125 C15.87651806 4.08527604 15.90677452 7.01429671 15.89477539 9.96704102 C15.89492142 10.89377625 15.89506744 11.82051147 15.8952179 12.77532959 C15.89451838 15.85414937 15.88672421 18.93290947 15.87890625 22.01171875 C15.87704221 24.14021268 15.87561824 26.26870703 15.87461853 28.39720154 C15.87079228 34.0114357 15.86096108 39.62564418 15.84991455 45.23986816 C15.83970273 50.96394503 15.8351214 56.68802603 15.83007812 62.41210938 C15.8193389 73.65235688 15.80174124 84.89257854 15.78125 96.1328125 C24.36125 96.1328125 32.94125 96.1328125 41.78125 96.1328125 C41.78125 100.7528125 41.78125 105.3728125 41.78125 110.1328125 C26.27125 110.1328125 10.76125 110.1328125 -5.21875 110.1328125 C-5.24129812 95.93824867 -5.2596634 81.74369664 -5.27056217 67.549119 C-5.27579172 60.95876465 -5.28289067 54.36842313 -5.29418945 47.77807617 C-5.30501578 41.42389232 -5.31102629 35.06972085 -5.31362724 28.71552849 C-5.31548195 26.28531639 -5.31910343 23.85510501 -5.32448006 21.42489815 C-5.33168711 18.03398269 -5.33274108 14.64311909 -5.33227539 11.25219727 C-5.33587067 10.23656204 -5.33946594 9.22092682 -5.34317017 8.17451477 C-5.3417955 7.25599731 -5.34042084 6.33747986 -5.33900452 5.39112854 C-5.33992631 4.58824685 -5.3408481 3.78536516 -5.34179783 2.95815372 C-5.10191474 -0.60036892 -3.06922532 0.00441343 0 0 Z " fill="#F6FAF5" transform="translate(857.21875,306.8671875)"/>
<path d="M0 0 C6.6 0 13.2 0 20 0 C20 31.68 20 63.36 20 96 C28.58 96 37.16 96 46 96 C46 100.62 46 105.24 46 110 C30.82 110 15.64 110 0 110 C0 73.7 0 37.4 0 0 Z " fill="#FEFEFE" transform="translate(931,128)"/>
<path d="M0 0 C6.6 0 13.2 0 20 0 C20 36.3 20 72.6 20 110 C13.4 110 6.8 110 0 110 C0 73.7 0 37.4 0 0 Z " fill="#FCFDFB" transform="translate(1088,307)"/>
<path d="M0 0 C4.1190353 2.36625432 5.56969 4.55909299 7 9 C7.26069641 12.02854919 7.26069641 12.02854919 7.2746582 15.43920898 C7.28895622 17.36161659 7.28895622 17.36161659 7.30354309 19.32286072 C7.30328164 20.71393868 7.30234451 22.10501665 7.30078125 23.49609375 C7.30467153 24.93189111 7.30900688 26.36768732 7.31376648 27.80348206 C7.32121529 30.80856054 7.32094713 33.81352151 7.31567383 36.81860352 C7.30988012 40.65973293 7.32681383 44.50038001 7.3500185 48.34142971 C7.36478686 51.3055144 7.36562336 54.26948374 7.36250877 57.23359871 C7.3630204 58.64931252 7.36822834 60.06503305 7.37832069 61.48071098 C7.39072699 63.46423503 7.3819311 65.44785695 7.37231445 67.43139648 C7.37294388 68.55770981 7.3735733 69.68402313 7.3742218 70.84446716 C6.94147914 74.49346265 5.91490894 76.87666548 4 80 C-0.44082189 82.96054793 -4.79027847 82.64828619 -10 82 C-13.16620095 79.81381363 -13.7896387 78.63108389 -15 75 C-15.1097035 72.80354137 -15.15902189 70.60390819 -15.17700195 68.40478516 C-15.18357315 67.73938217 -15.19014435 67.07397919 -15.19691467 66.38841248 C-15.21660918 64.18862795 -15.22830055 61.98891152 -15.23828125 59.7890625 C-15.24235678 59.03680767 -15.2464323 58.28455284 -15.25063133 57.50950241 C-15.27147398 53.52912421 -15.28578442 49.54878031 -15.29516602 45.56835938 C-15.30623698 41.46021859 -15.34064931 37.35261849 -15.38033772 33.24466896 C-15.40649357 30.08247884 -15.41485681 26.9204179 -15.41844749 23.75812912 C-15.42331484 22.24387325 -15.4349332 20.72962321 -15.45348549 19.21547318 C-15.47786063 17.09454789 -15.47691619 14.97502667 -15.4699707 12.85400391 C-15.47583694 11.64837799 -15.48170319 10.44275208 -15.48774719 9.20059204 C-14.90465494 5.3743467 -13.68465171 3.73397037 -11 1 C-7.53472176 -0.73263912 -3.78892972 -0.4719774 0 0 Z " fill="#4EA03B" transform="translate(578,142)"/>
<path d="M0 0 C2.82872699 1.2298813 4.42406733 2.12238344 6.11663818 4.70155334 C7.28235987 7.73468095 7.25435574 10.27567883 7.25878906 13.52514648 C7.2622937 14.17118835 7.26579834 14.81723022 7.26940918 15.48284912 C7.27819092 17.61237424 7.27238942 19.74156541 7.265625 21.87109375 C7.26697284 23.35555586 7.26891437 24.84001754 7.27142334 26.32447815 C7.27436992 29.43389086 7.27009263 32.54318856 7.26074219 35.65258789 C7.2493578 39.63163397 7.25590353 43.61040993 7.26788712 47.58944607 C7.27512683 50.65470908 7.27280793 53.71990845 7.26763153 56.78517342 C7.26630036 58.25194392 7.26792407 59.71872025 7.27259064 61.18548393 C7.27768959 63.23896374 7.26989844 65.29201123 7.25878906 67.34545898 C7.25640228 69.09607887 7.25640228 69.09607887 7.25396729 70.88206482 C6.92060602 74.97471327 6.14009705 77.87710269 3.1875 80.78515625 C-0.69275611 82.9400842 -4.695805 82.65280291 -9 82 C-12.09321115 79.83475219 -13.5863963 77.45686575 -15 74 C-15.25396729 71.0849762 -15.25396729 71.0849762 -15.25878906 67.65844727 C-15.26509338 66.37353897 -15.27139771 65.08863068 -15.27789307 63.76478577 C-15.27431278 62.36532453 -15.2702107 60.96586455 -15.265625 59.56640625 C-15.26697291 58.12678461 -15.2689145 56.68716342 -15.27142334 55.24754333 C-15.27436962 52.23228618 -15.27009361 49.21714765 -15.26074219 46.2019043 C-15.24935812 42.3439236 -15.25590349 38.48622151 -15.26788712 34.62825108 C-15.27512791 31.65563371 -15.27280744 28.68308195 -15.26763153 25.71046257 C-15.26630064 24.28834945 -15.26792308 22.86623031 -15.27259064 21.44412422 C-15.27769094 19.45306645 -15.26853407 17.46198772 -15.25878906 15.47094727 C-15.25719788 14.33939713 -15.25560669 13.20784698 -15.25396729 12.04200745 C-14.88721782 7.6491007 -13.85516529 4.93062105 -10.875 1.6875 C-7.10735025 -0.52394659 -4.26942206 -0.71733205 0 0 Z " fill="#4D9F39" transform="translate(502,142)"/>
<path d="M0 0 C13.77777778 0 13.77777778 0 18 4 C20.15534897 7.35501777 20.25294934 10.10703873 20.25878906 14.05029297 C20.26509338 15.27191132 20.27139771 16.49352966 20.27789307 17.75216675 C20.2738446 19.0688736 20.26979614 20.38558044 20.265625 21.7421875 C20.26697317 23.1121528 20.26891497 24.48211763 20.27142334 25.8520813 C20.27436946 28.72190918 20.27009484 31.59161241 20.26074219 34.46142578 C20.2493694 38.12874257 20.25589638 41.79576589 20.26788712 45.46307182 C20.27513802 48.29247215 20.27280264 51.12180373 20.26763153 53.95120621 C20.26565915 55.95745281 20.27170549 57.96370215 20.27789307 59.96994019 C20.27158875 61.19786285 20.26528442 62.42578552 20.25878906 63.69091797 C20.25640228 65.30497025 20.25640228 65.30497025 20.25396729 66.95162964 C19.87954677 71.44580063 18.96843401 74.88024818 16 78.3125 C10.56226452 82.90058931 9.53142892 81 0 81 C0 54.27 0 27.54 0 0 Z " fill="#4FA03B" transform="translate(556,322)"/>
<path d="M0 0 C13 0 13 0 16.75 2.3125 C19.98533934 6.1769331 20.12937708 8.91470909 20.16113281 13.79736328 C20.17074036 14.98935333 20.1803479 16.18134338 20.19024658 17.40945435 C20.19449646 18.70003754 20.19874634 19.99062073 20.203125 21.3203125 C20.20888179 22.66209921 20.21463946 24.00388591 20.22039795 25.34567261 C20.23090236 28.16176739 20.23674765 30.9778337 20.24023438 33.79394531 C20.24569653 37.38147039 20.26967732 40.9686116 20.29820633 44.55601692 C20.3169502 47.33062794 20.32204466 50.10514902 20.32357025 52.87981796 C20.3280251 54.83887901 20.34662031 56.7978917 20.36553955 58.75686646 C20.34884392 65.4933274 20.22703143 71.92297443 17 78 C11.60743598 82.44886532 7.54037742 81 0 81 C0 54.27 0 27.54 0 0 Z " fill="#4FA03B" transform="translate(639,143)"/>
<path d="M0 0 C14 0 14 0 18.25 2.5625 C23.14259053 7.86177941 23.47064541 14.29037847 23.30859375 21.2109375 C22.81490629 25.67287228 21.63505618 29.34238471 19 33 C12.70050679 37.33090158 8.25155712 36 0 36 C0 24.12 0 12.24 0 0 Z " fill="#4EA03A" transform="translate(976,367)"/>
<path d="M0 0 C14.77142857 0 14.77142857 0 19 4 C21.4214607 7.63219105 21.29869516 9.49158558 21.3125 13.8125 C21.32925781 15.01519531 21.34601562 16.21789062 21.36328125 17.45703125 C20.96032299 21.38695749 20.16000459 23.70116946 18 27 C13 30 13 30 0 30 C0 20.1 0 10.2 0 0 Z " fill="#4D9F3A" transform="translate(976,322)"/>
<path d="M0 0 C10.89 0 21.78 0 33 0 C33 4.62 33 9.24 33 14 C22.11 14 11.22 14 0 14 C0 9.38 0 4.76 0 0 Z " fill="#F1F7EF" transform="translate(908,367)"/>
<path d="M0 0 C0.33 0 0.66 0 1 0 C1.86169938 5.1400215 2.71594299 10.28120767 3.56347656 15.42358398 C3.85247449 17.17066374 4.14346214 18.91741562 4.43652344 20.66381836 C4.85883114 23.18258215 5.2738307 25.70246112 5.6875 28.22265625 C5.81874268 28.99585709 5.94998535 29.76905792 6.08520508 30.56568909 C6.26539185 31.67604774 6.26539185 31.67604774 6.44921875 32.80883789 C6.55580811 33.45059464 6.66239746 34.09235138 6.7722168 34.7535553 C7.08323804 37.8209106 7 40.91691668 7 44 C2.38 44 -2.24 44 -7 44 C-5.82483183 34.01107052 -4.45086313 24.06858939 -2.9375 14.125 C-2.7631543 12.96564941 -2.58880859 11.80629883 -2.40917969 10.61181641 C-2.1582959 8.98252197 -2.1582959 8.98252197 -1.90234375 7.3203125 C-1.75273193 6.34336426 -1.60312012 5.36641602 -1.44897461 4.35986328 C-1 2 -1 2 0 0 Z " fill="#59A546" transform="translate(888,156)"/>
<path d="M0 0 C1.93663899 3.36898232 2.59993201 6.53184924 3.25390625 10.34765625 C3.46853516 11.59353516 3.68316406 12.83941406 3.90429688 14.12304688 C4.12150391 15.42306641 4.33871094 16.72308594 4.5625 18.0625 C4.78357422 19.33544922 5.00464844 20.60839844 5.23242188 21.91992188 C6.48297178 29.27587554 7.4335613 36.55992316 8 44 C3.38 44 -1.24 44 -6 44 C-5.38531557 34.08733044 -4.08100471 24.46503779 -2.4375 14.6875 C-2.20066457 13.25333889 -1.9643337 11.81909437 -1.72851562 10.38476562 C-1.15813347 6.92219989 -0.58101481 3.46079949 0 0 Z " fill="#56A443" transform="translate(420,335)"/>
</svg>
