<?xml version="1.0" encoding="UTF-8"?>
<svg version="1.1" xmlns="http://www.w3.org/2000/svg" width="1500" height="1500">
<path d="M0 0 C495 0 990 0 1500 0 C1500 495 1500 990 1500 1500 C1005 1500 510 1500 0 1500 C0 1005 0 510 0 0 Z " fill="#C5192D" transform="translate(0,0)"/>
<path d="M0 0 C0 166.98 0 333.96 0 506 C-11.99986223 509.81813798 -23.7367899 513.53412397 -35.83984375 516.8203125 C-39.77913283 517.91259058 -43.63123435 519.17895807 -47.5 520.5 C-53.50488321 522.54827584 -59.54297795 524.30135715 -65.66493225 525.96240234 C-71.37113985 527.52165832 -77.03049087 529.20445577 -82.68359375 530.9453125 C-93.21356316 534.16826055 -103.76243118 537.32557951 -114.31640625 540.46875 C-115.96980541 540.96145102 -117.62319686 541.45417788 -119.27658081 541.94692993 C-126.08589099 543.97600444 -132.89541384 546.00436011 -139.70581055 548.02978516 C-164.02195609 555.22788597 -164.02195609 555.22788597 -188.21278381 562.83312988 C-193.93864994 564.69214231 -199.7033982 566.37570316 -205.5 568 C-212.63363025 570.0051785 -219.70115254 572.151815 -226.75 574.4375 C-236.00212555 577.43491459 -245.32371294 580.11774114 -254.70214844 582.69116211 C-256.19536621 583.10120483 -256.19536621 583.10120483 -257.71875 583.51953125 C-259.1109375 583.90165771 -259.1109375 583.90165771 -260.53125 584.29150391 C-262.52940884 584.86494704 -264.50403497 585.51997605 -266.46875 586.19921875 C-269 587 -269 587 -273 587 C-273 444.77 -273 302.54 -273 156 C-264.75 151.38 -256.5 146.76 -248 142 C-241.75850592 138.34802223 -241.75850592 138.34802223 -235.53125 134.671875 C-229.90132145 131.33998092 -224.2308083 128.07852327 -218.5625 124.8125 C-217.45527588 124.17449463 -216.34805176 123.53648926 -215.20727539 122.87915039 C-212.93662932 121.57110523 -210.66587642 120.26324552 -208.39501953 118.95556641 C-202.9283002 115.80667946 -197.46425113 112.65316736 -192 109.5 C-189.83334689 108.2499765 -187.66668021 106.99997653 -185.5 105.75 C-184.4275 105.13125 -183.355 104.5125 -182.25 103.875 C-172.5 98.25 -172.5 98.25 -169.24951172 96.37475586 C-167.08442929 95.12564482 -164.91939018 93.87645871 -162.75439453 92.62719727 C-157.31384294 89.48797691 -151.87252784 86.35009437 -146.4296875 83.21484375 C-135.97793801 77.19252671 -125.53700452 71.15330663 -115.125 65.0625 C-105.85500223 59.64078822 -96.54168248 54.29795085 -87.21154785 48.98077393 C-78.09001709 43.78117074 -69.00363569 38.52418533 -59.94189453 33.22094727 C-51.52418969 28.29676458 -43.07659143 23.42555695 -34.62036133 18.56787109 C-29.24627933 15.4743066 -23.89314292 12.35167071 -18.57421875 9.1640625 C-17.05368896 8.25442749 -17.05368896 8.25442749 -15.50244141 7.32641602 C-13.58584283 6.1764887 -11.67257529 5.02098555 -9.76318359 3.85913086 C-8.91449707 3.35003174 -8.06581055 2.84093262 -7.19140625 2.31640625 C-6.08067749 1.64266968 -6.08067749 1.64266968 -4.94750977 0.95532227 C-3 0 -3 0 0 0 Z " fill="#FEFEFE" transform="translate(967,649)"/>
<path d="M0 0 C3.66547318 1.46618927 6.65214735 2.85771893 10 4.8359375 C10.95841797 5.39925781 11.91683594 5.96257813 12.90429688 6.54296875 C13.92587891 7.14753906 14.94746094 7.75210938 16 8.375 C18.17661866 9.65443668 20.35371034 10.93306894 22.53125 12.2109375 C23.62179687 12.8512793 24.71234375 13.49162109 25.8359375 14.15136719 C30.37154209 16.80133617 34.93337675 19.4039663 39.5 22 C48.0552122 26.86936335 56.56160568 31.81892133 65.05859375 36.7890625 C72.36960586 41.06087653 79.71171766 45.27481709 87.07080078 49.46313477 C93.69950687 53.2417843 100.29083553 57.08185568 106.875 60.9375 C115.81698355 66.17246497 124.81200024 71.3042777 133.84277344 76.38427734 C140.15987675 79.94350015 146.42760951 83.57560389 152.66552734 87.27148438 C158.10023682 90.48612858 163.57493163 93.6265663 169.0625 96.75 C176.73665809 101.11896539 184.37779729 105.5410267 192 110 C199.47740959 114.37381582 206.97178045 118.71422106 214.5 123 C222.00217805 127.27341061 229.47933224 131.58771035 236.9375 135.9375 C237.81664062 136.44990234 238.69578125 136.96230469 239.6015625 137.49023438 C241.47046485 138.58198261 243.31540847 139.7155398 245.13730431 140.8840456 C248.11843691 142.66724478 251.0736354 143.71522757 254.37510109 144.77955151 C261.07631772 147.28180366 266.66017094 150.16293919 271 156 C275.03890873 168.0036472 273.83578067 181.54239342 273.55344367 194.03142464 C273.45807065 199.32297799 273.49061186 204.61397168 273.5072937 209.90614319 C273.51880801 219.06524802 273.45003119 228.22089467 273.32606125 237.37912941 C273.1469491 250.6196233 273.08993966 263.85845197 273.06232543 277.10002597 C273.01422297 298.58463959 272.86794953 320.06741137 272.65966797 341.55102539 C272.45760276 362.41518971 272.30194175 383.27885305 272.20849609 404.14379883 C272.20271618 405.43076551 272.19693626 406.7177322 272.19098119 408.04369787 C272.16226952 414.50029526 272.13446815 420.95689618 272.10711932 427.41349947 C271.87919999 480.94360566 271.4918451 534.47171283 271 588 C269.41216314 587.68988016 267.82473211 587.37768204 266.23747253 587.06462097 C264.91140629 586.80417637 264.91140629 586.80417637 263.55855083 586.53847027 C260.18150886 585.8277411 256.9111555 584.87713124 253.61328125 583.86328125 C252.63060776 583.56343071 252.63060776 583.56343071 251.62808228 583.25752258 C249.52149609 582.6136267 247.41702616 581.96309365 245.3125 581.3125 C243.8231445 580.85612985 242.33364056 580.40024387 240.84399414 579.94482422 C237.20081439 578.83013383 233.55912137 577.7106779 229.91784668 576.58978271 C225.59357334 575.25996751 221.26556326 573.94241542 216.9375 572.625 C216.07012207 572.36041992 215.20274414 572.09583984 214.30908203 571.82324219 C203.73137778 568.60241352 193.13543951 565.44211272 182.54284668 562.27069092 C171.05184978 558.82925053 159.5754559 555.34681192 148.11669922 551.79931641 C139.38585037 549.10283868 130.62712184 546.5051818 121.86279297 543.91992188 C114.09914515 541.62802066 106.35068123 539.29103719 98.60986328 536.92333984 C89.69232151 534.20050702 80.76022776 531.52694757 71.82794189 528.85299683 C57.71068 524.62656384 43.60395816 520.37200182 29.52734375 516.01171875 C19.69316859 512.98083891 9.84478474 509.99623883 0 507 C0 339.69 0 172.38 0 0 Z " fill="#FEFEFE" transform="translate(393,648)"/>
<path d="M0 0 C0.66 0 1.32 0 2 0 C2 176.55 2 353.1 2 535 C4.97 535.66 7.94 536.32 11 537 C20.50065811 539.22119531 29.8358925 541.80585793 39.16674805 544.6496582 C51.18653236 548.29728389 63.33167784 551.4917561 75.46875 554.72265625 C86.25505644 557.5997452 96.99964432 560.54607514 107.67773438 563.80297852 C119.52584858 567.40109136 131.50437903 570.53772932 143.46875 573.72265625 C154.25505644 576.5997452 164.99964432 579.54607514 175.67773438 582.80297852 C187.52584858 586.40109136 199.50437903 589.53772932 211.46875 592.72265625 C222.2299752 595.59326631 232.94612347 598.53440884 243.59423828 601.80078125 C250.80845 603.99229295 258.09052235 605.87392272 265.39477539 607.73925781 C272.86438321 609.66256621 280.25071784 611.8047933 287.61914062 614.08398438 C288.38677734 614.32052734 289.15441406 614.55707031 289.9453125 614.80078125 C290.61062988 615.00872314 291.27594727 615.21666504 291.96142578 615.4309082 C318.55089957 622.85367029 344.78004126 614.81768999 369.71875 605.86865234 C377.53302018 603.07807345 385.44081512 600.57696918 393.34109497 598.04309082 C397.83511911 596.5969896 402.32171341 595.12824355 406.80859375 593.66015625 C407.71669296 593.36329926 408.62479218 593.06644226 409.56040955 592.7605896 C415.32086944 590.87728508 421.0805389 588.99156797 426.84016418 587.10571289 C431.91398973 585.44459936 436.98813102 583.78445267 442.0625 582.125 C443.58041641 581.62858002 443.58041641 581.62858002 445.1289978 581.12213135 C468.22014 573.57421983 491.36025486 566.18080488 514.50408936 558.79638672 C528.91236655 554.19904241 543.30555156 549.55847193 557.6796875 544.85546875 C558.82698334 544.4801149 559.97427917 544.10476105 561.15634155 543.71803284 C566.94848254 541.822597 572.74004452 539.92541596 578.53076172 538.02563477 C588.90073881 534.62644143 599.27701055 531.26202748 609.70117188 528.03271484 C614.89974133 526.40527636 620.05397639 524.65383053 625.20703125 522.88867188 C630.78965097 521 630.78965097 521 633 521 C633 349.07 633 177.14 633 0 C636.11811236 1.87086742 638.70512441 3.44064803 641.453125 5.671875 C642.07316406 6.17203125 642.69320312 6.6721875 643.33203125 7.1875 C644.28142578 7.9609375 644.28142578 7.9609375 645.25 8.75 C646.50466074 9.76630139 647.75987574 10.7819189 649.015625 11.796875 C649.61559414 12.30717154 650.21556327 12.81746809 650.83371329 13.34322816 C652.93175963 15.06299395 652.93175963 15.06299395 655.31909013 16.12090749 C658.3388294 17.77553065 659.98085636 19.18279175 662 22 C663.80841424 28.5915717 663.18678719 35.80368561 663.10247803 42.5695343 C663.10855073 44.71906074 663.11856845 46.86857905 663.13219476 49.01807088 C663.15816881 54.92772413 663.12791869 60.83596557 663.08856773 66.74549592 C663.05590741 73.11700738 663.07510694 79.48838677 663.08792114 85.85993958 C663.10288075 96.90042541 663.08487426 107.94044794 663.0432663 118.98085976 C662.99967562 130.56090935 662.97340734 142.14077279 662.97071075 153.72090721 C662.97043583 154.80110056 662.97043583 154.80110056 662.97015535 155.90311599 C662.96946681 158.82622689 662.96890527 161.74933776 662.96851094 164.67244871 C662.96487698 191.31048313 662.91778362 217.94825707 662.84375 244.58618164 C662.7738385 269.7460329 662.73134557 294.90572614 662.72070312 320.06567383 C662.72036858 320.84109609 662.72003403 321.61651836 662.71968935 322.41543827 C662.7183428 325.54157918 662.71701688 328.66772011 662.71569207 331.79386103 C662.71503093 333.35168063 662.71436706 334.90950024 662.71370043 336.46731984 C662.71303636 338.02126522 662.71238004 339.5752106 662.71173152 341.12915599 C662.70119532 365.85166692 662.66681523 390.57414805 662.62831251 415.29662919 C662.61714705 422.53928663 662.60735491 429.78194207 662.60056591 437.02460504 C662.58615473 452.25575412 662.56453966 467.486796 662.51612291 482.71788106 C662.49624962 489.01879879 662.48109578 495.31963178 662.47874069 501.62058258 C662.4763913 507.37963455 662.46028425 513.13847186 662.4327822 518.89745715 C662.4252167 520.98945111 662.42277487 523.08147062 662.42575857 525.17347614 C662.42901348 528.00004845 662.41410332 530.82593454 662.39428329 533.65242481 C662.40224591 534.89293182 662.40224591 534.89293182 662.4103694 536.15849957 C662.3829515 538.42540246 662.3829515 538.42540246 662 542 C658.86352998 544.09098001 656.76238072 544.67669081 653.125 545.5625 C645.18603373 547.57653007 637.37846055 549.9951753 629.5625 552.4375 C628.92529022 552.63646881 628.28808044 552.83543762 627.63156128 553.04043579 C623.41982495 554.35642393 619.20988036 555.67809007 615 557 C612.76869127 557.69733595 610.53703954 558.39355453 608.30517578 559.08911133 C606.47178191 559.66128071 604.63891804 560.23514781 602.80615234 560.80932617 C600.34489317 561.57927877 597.88286552 562.34678097 595.41992188 563.11132812 C586.13756031 565.99671192 576.88716279 568.97140669 567.64682007 571.98834229 C556.01838364 575.78254705 544.3813911 579.53657699 532.6875 583.125 C514.35151945 588.75703662 496.11126105 594.69204857 477.85475159 600.57528687 C464.9122555 604.74576224 451.96156931 608.88919722 439 613 C438.14117218 613.27249573 437.28234436 613.54499146 436.39749146 613.82574463 C431.29199841 615.44560383 426.18613873 617.06430384 421.08007812 618.68237305 C405.22723496 623.70066006 405.22723496 623.70066006 389.38232422 628.74389648 C387.78712726 629.25018107 386.18974952 629.74964252 384.59033203 630.24243164 C379.44895319 631.83994907 374.37665713 633.57672196 369.31680298 635.41323853 C335.12800769 647.75212459 306.99012559 650.32323368 272 639 C270.15408472 638.44083472 268.30648214 637.88720145 266.45703125 637.33984375 C263.12742439 636.35391482 259.80412731 635.35060326 256.484375 634.33203125 C251.73544856 632.89581501 246.94509194 631.69623616 242.1237793 630.53173828 C235.85856629 629.00325907 229.67625134 627.21658189 223.48291016 625.421875 C216.32462819 623.35646725 209.13721895 621.41539593 201.9375 619.5 C194.27053435 617.45759578 186.64576595 615.33403269 179.0625 613 C170.10910388 610.2465247 161.06456166 607.91754529 151.98852539 605.60546875 C144.4728727 603.6778612 137.04835675 601.56040118 129.63671875 599.26953125 C121.49690165 596.7841913 113.25859885 594.71155226 105.01245117 592.61206055 C97.23049459 590.61670123 89.53885283 588.41980779 81.86108398 586.05859375 C76.31894809 584.36435683 70.75596403 582.89208714 65.1237793 581.53173828 C59.74936542 580.22058096 54.43834938 578.72624359 49.125 577.1875 C41.10687793 574.86593867 33.06490379 572.65336604 25 570.5 C16.12671557 568.12836572 7.2783721 565.68782877 -1.54589844 563.13989258 C-5.77916185 561.91793242 -10.01580784 560.71404662 -14.265625 559.55078125 C-15.10480469 559.32084473 -15.94398438 559.0909082 -16.80859375 558.85400391 C-18.39896275 558.41983317 -19.99007684 557.98837966 -21.58203125 557.56005859 C-26.89047652 556.10952348 -26.89047652 556.10952348 -28 555 C-28.11092205 552.19202685 -28.15575256 549.40815596 -28.15936089 546.59923744 C-28.16693378 545.25512782 -28.16693378 545.25512782 -28.17465967 543.88386446 C-28.19050376 540.84157477 -28.19909982 537.79930665 -28.20773315 534.75698853 C-28.2174664 532.5695695 -28.2276051 530.38215225 -28.23811734 528.19473684 C-28.26573489 522.15260831 -28.28678795 516.11047179 -28.30663323 510.06831336 C-28.32439513 504.89335603 -28.34582287 499.7184163 -28.36717294 494.54347272 C-28.5652143 446.28852476 -28.66943811 398.03314368 -28.75161848 349.77787476 C-28.76388903 342.59654475 -28.77663179 335.41521559 -28.78955078 328.23388672 C-28.79167625 327.0435841 -28.79167625 327.0435841 -28.79384466 325.82923497 C-28.84008536 300.10963314 -28.93111037 274.39043673 -29.04639695 248.671059 C-29.16467217 222.23684326 -29.24052235 195.80284803 -29.26198688 169.36836747 C-29.26503253 165.63409082 -29.26854831 161.89981475 -29.27234268 158.16553879 C-29.27307268 157.43059089 -29.27380268 156.69564298 -29.2745548 155.93842393 C-29.28751852 144.11195903 -29.34490912 132.28610815 -29.41877765 120.45988432 C-29.49206066 108.56866913 -29.51772639 96.67809888 -29.4950311 84.78667302 C-29.48470769 78.344235 -29.49556468 71.90365312 -29.56312943 65.46152115 C-29.62452743 59.56206146 -29.62581262 53.66573915 -29.57947291 47.76617019 C-29.57328757 45.63339248 -29.58907137 43.50041297 -29.62916015 41.36800309 C-29.92536591 24.61804027 -29.92536591 24.61804027 -25.14303803 19.34593844 C-22.01167424 16.45603716 -18.62161423 14.23164361 -15 12 C-13.63793115 10.95471502 -12.28685192 9.89460905 -10.95703125 8.80859375 C-9.3587745 7.6034486 -7.76051296 6.39830977 -6.16210938 5.19335938 C-3.98506362 3.5437561 -1.93461928 1.93461928 0 0 Z " fill="#FEFBFB" transform="translate(363,647)"/>
<path d="M0 0 C21.12 0 42.24 0 64 0 C64.15846565 57.13952116 64.28370057 114.27899006 64.35745731 171.4186876 C64.36618771 178.17479604 64.37526372 184.93090399 64.38452148 191.68701172 C64.3854368 192.35928088 64.38635211 193.03155004 64.38729516 193.724191 C64.41705803 215.46534325 64.46958699 237.20636709 64.53408055 258.94744174 C64.60218704 281.94854498 64.64401611 304.94959567 64.65861946 327.9508034 C64.66819226 341.71180016 64.69835292 355.47242801 64.75541527 369.23331113 C64.7926086 378.68815107 64.80355762 388.14280216 64.79450964 397.59770982 C64.79005567 403.04104956 64.79655601 408.48374775 64.83443832 413.92697144 C65.10641513 455.05200406 65.10641513 455.05200406 57.92542756 475.35175633 C56.6021546 479.13849168 55.4620682 482.9757727 54.30753225 486.8166517 C53.46956169 489.60114345 52.61138146 492.37892191 51.75 495.15625 C49.52131394 502.47907564 47.58918517 509.87841033 45.63378906 517.27783203 C43.40103541 525.66509954 40.92764571 533.9604663 38.35913086 542.25024414 C36.34172098 548.78721012 34.50752007 555.32383971 33 562 C32.34 562 31.68 562 31 562 C30.82762314 561.38708603 30.65524628 560.77417206 30.47764587 560.14268494 C28.64663309 553.63409151 26.81214426 547.12648441 24.97583008 540.61938477 C24.29529048 538.20621344 23.61557313 535.79281006 22.93676758 533.37915039 C19.21052981 520.13183727 15.40617233 506.91898451 11.3616333 493.76512146 C9.14800699 486.54731064 7.10148393 479.30372562 5.1875 472 C4.61892618 469.85405094 4.04992859 467.70821411 3.48046875 465.5625 C3.24223389 464.65628906 3.00399902 463.75007813 2.75854492 462.81640625 C2.21604703 460.80216237 1.61189654 458.80412288 0.96797192 456.81997484 C-0.04589245 452.81889144 -0.27644734 449.15619213 -0.24609566 445.06399632 C-0.24840335 444.29108613 -0.25071103 443.51817594 -0.25308865 442.72184423 C-0.25837798 440.13467091 -0.24941346 437.54774705 -0.24050903 434.96058655 C-0.24138132 433.08601 -0.24313272 431.2114337 -0.24568737 429.33685869 C-0.25016038 424.18772997 -0.24215779 419.03868442 -0.23213124 413.8895663 C-0.22349842 408.33612691 -0.22641679 402.78269226 -0.22793579 397.22924805 C-0.22898475 387.60819957 -0.22270701 377.98717821 -0.21146011 368.36613655 C-0.19520955 354.45570927 -0.18999756 340.54529512 -0.18748413 326.63485938 C-0.18310633 304.06637926 -0.16981211 281.49791479 -0.15087891 258.92944336 C-0.13250775 237.005616 -0.11834164 215.0817925 -0.10986328 193.15795898 C-0.10960023 192.48207234 -0.10933718 191.80618569 -0.10906615 191.10981764 C-0.10642909 184.32223484 -0.10387747 177.53465201 -0.10138843 170.74706916 C-0.08050921 113.83136877 -0.04466251 56.91568631 0 0 Z " fill="#FEFEFE" transform="translate(1116,695)"/>
<path d="M0 0 C20.46 0 40.92 0 62 0 C62 58.74 62 117.48 62 178 C71.24 178 80.48 178 90 178 C90 191.53 90 205.06 90 219 C80.76 219 71.52 219 62 219 C62 241.77 62 264.54 62 288 C45.5 288 29 288 12 288 C12 265.23 12 242.46 12 219 C-16.38 219 -44.76 219 -74 219 C-75.57123241 171.2916704 -75.57123241 171.2916704 -64.66796875 151.21386719 C-61.84596355 145.77638527 -59.57276118 140.10614695 -57.23553467 134.44863892 C-55.7759445 130.93145002 -54.28057722 127.42952099 -52.7890625 123.92578125 C-52.16683177 122.46051733 -51.54476375 120.99518431 -50.92285156 119.52978516 C-50.60819946 118.78859436 -50.29354736 118.04740356 -49.96936035 117.28375244 C-48.98161434 114.95668453 -47.99418475 112.62948257 -47.00683594 110.30224609 C-38.53502713 90.33461678 -30.02993356 70.38172842 -21.47665405 50.44885254 C-15.62977346 36.82212644 -9.81768919 23.18157849 -4.06469727 9.51489258 C-2.72010891 6.33887683 -1.35859299 3.17005031 0 0 Z " fill="#FEFDFD" transform="translate(187,128)"/>
<path d="M0 0 C6.81461316 6.23464608 9.54757066 14.39387427 9.97637939 23.46221924 C9.9866214 25.02247833 9.9866214 25.02247833 9.99707031 26.61425781 C10.00667786 27.80279358 10.0162854 28.99132935 10.02618408 30.21588135 C10.03043396 31.48784363 10.03468384 32.75980591 10.0390625 34.0703125 C10.04330357 35.05281605 10.04330357 35.05281605 10.04763031 36.05516815 C10.06256986 39.52262263 10.07183193 42.99003608 10.07617188 46.45751953 C10.08164412 50.01235148 10.10566041 53.56679804 10.13414383 57.12150955 C10.15290246 59.87899829 10.15798281 62.63639668 10.15950775 65.39394379 C10.16394974 67.33357706 10.18252947 69.2731617 10.20147705 71.21270752 C10.17303678 82.59549765 8.11042182 91.562758 0.8359375 100.4921875 C-2.0390625 103.0546875 -2.0390625 103.0546875 -4.1640625 104.4921875 C-3.50277344 105.03746094 -2.84148437 105.58273438 -2.16015625 106.14453125 C4.59457188 112.17738004 4.59457188 112.17738004 5.28125 115.91796875 C4.82940546 119.99141576 3.62280321 123.7993317 1.8359375 127.4921875 C-1.94214082 126.17317419 -4.55924481 124.59215998 -7.5390625 121.9296875 C-8.33054687 121.22328125 -9.12203125 120.516875 -9.9375 119.7890625 C-12.11803701 117.53966643 -13.53783087 115.3407938 -15.1640625 112.6796875 C-18.08139108 108.66407051 -20.62216011 107.85276722 -25.3137207 107.05834961 C-26.83607595 106.84797184 -28.35937746 106.64432908 -29.88354492 106.44750977 C-37.00144529 105.51610084 -41.27153848 103.30436363 -46.4140625 98.3046875 C-50.58391784 91.60313427 -53.27167633 84.22312122 -53.34106445 76.34350586 C-53.35389969 75.07466049 -53.36673492 73.80581512 -53.37995911 72.4985199 C-53.3881305 71.10969434 -53.39557346 69.72086434 -53.40234375 68.33203125 C-53.40641928 67.63014742 -53.4104948 66.92826359 -53.41469383 66.20511055 C-53.43554838 62.48480653 -53.44984863 58.76453925 -53.45922852 55.04418945 C-53.47024819 51.22349657 -53.50459722 47.40339331 -53.54440022 43.58290768 C-53.57070912 40.62725333 -53.57893323 37.67173591 -53.58250999 34.71597481 C-53.58734496 33.30911879 -53.59886953 31.90226759 -53.61754799 30.49552727 C-53.75340638 19.57861899 -52.37483911 10.10505957 -45.1640625 1.4921875 C-33.36578133 -8.35800538 -12.50166984 -8.71054974 0 0 Z " fill="#FEFBFB" transform="translate(445.1640625,132.5078125)"/>
<path d="M0 0 C7.45116174 6.26574965 10.07848437 12.82685293 11.75 22.3125 C12.12922609 26.9185783 12.14863266 31.48968597 12.11328125 36.109375 C12.11402901 38.01979584 12.11402901 38.01979584 12.11479187 39.96881104 C12.11246612 42.64147372 12.10444909 45.31332019 12.08618164 47.98583984 C12.06340462 51.39044273 12.06297644 54.7946024 12.06969929 58.19926071 C12.07386268 61.48183163 12.06185881 64.76432542 12.05078125 68.046875 C12.05214836 69.86430206 12.05214836 69.86430206 12.05354309 71.71844482 C11.96587648 82.22046918 10.59044873 93.22976191 2.9609375 101.17578125 C-6.09419606 108.44514146 -15.90047656 109.37131298 -27.25 108.3125 C-34.28023886 106.77626262 -40.6331833 103.97531424 -45.25 98.3125 C-49.54408188 91.34579946 -51.35935381 85.29460793 -51.41113281 77.12036133 C-51.42074036 75.89170853 -51.4303479 74.66305573 -51.44024658 73.39717102 C-51.4450965 72.06295967 -51.44937485 70.72874614 -51.453125 69.39453125 C-51.45595238 68.71654669 -51.45877975 68.03856213 -51.46169281 67.34003258 C-51.47665105 63.74938955 -51.4859007 60.15878632 -51.49023438 56.56811523 C-51.49570231 52.88434478 -51.51970405 49.20094705 -51.54820633 45.51729298 C-51.56696078 42.66286708 -51.57204514 39.80852851 -51.57357025 36.95404625 C-51.57801669 34.94350763 -51.59660178 32.93301599 -51.61553955 30.92256165 C-51.58966414 20.19325207 -50.36899546 10.8149312 -42.75390625 2.72265625 C-31.2375578 -8.15537265 -13.34301734 -6.92810516 0 0 Z " fill="#FEFBFB" transform="translate(881.25,310.6875)"/>
<path d="M0 0 C43.54054054 0 43.54054054 0 51 6 C60.57099106 15.61678528 60.15777712 26.07985736 60.23828125 39.01171875 C60.246353 40.25693802 60.25442474 41.50215729 60.26274109 42.78511047 C60.27652873 45.41328562 60.28727449 48.04147827 60.29516602 50.66967773 C60.30401009 53.33969542 60.32712624 56.00846722 60.35668945 58.6784668 C60.39961313 62.56054134 60.41556895 66.44193559 60.42578125 70.32421875 C60.44328934 71.5007048 60.46079742 72.67719086 60.47883606 73.889328 C60.45440828 83.36129365 58.80914291 92.17178562 54 100.4375 C37.16855117 114.81436255 23.84374907 109 0 109 C0 73.03 0 37.06 0 0 Z " fill="#FEFBFC" transform="translate(451,308)"/>
<path d="M0 0 C25.08 0 50.16 0 76 0 C78.34423514 5.86058786 80.51819008 11.31456942 82.32421875 17.28515625 C82.61181816 18.22590248 82.61181816 18.22590248 82.90522766 19.18565369 C83.50339485 21.14339047 84.09600631 23.1027376 84.6875 25.0625 C85.47934952 27.67955476 86.27566489 30.29512645 87.07421875 32.91015625 C87.42057373 34.05621338 87.76692871 35.20227051 88.1237793 36.38305664 C88.74959752 38.89826824 88.74959752 38.89826824 90 40 C90.25692627 39.1435791 90.51385254 38.2871582 90.77856445 37.40478516 C94.51904297 24.93652344 98.25952148 12.46826172 102 0 C108.27 0 114.54 0 121 0 C119.09317318 7.95313186 116.90742818 15.68473946 114.27734375 23.42578125 C113.93119522 24.45761032 113.58504669 25.48943939 113.22840881 26.55253601 C112.13576204 29.80733049 111.03697832 33.0600076 109.9375 36.3125 C108.83553039 39.58319597 107.73489309 42.85433191 106.63587952 46.12602234 C105.95557389 48.15012832 105.2734126 50.17361188 104.58909607 52.19636536 C103.71411871 54.79379787 102.85542421 57.3960789 102 60 C101.60449951 61.16885742 101.20899902 62.33771484 100.80151367 63.54199219 C99.74817055 68.08647953 99.64533802 72.43886619 99.5859375 77.08984375 C99.56657135 78.03436905 99.5472052 78.97889435 99.5272522 79.95204163 C99.46782308 82.94710467 99.42121846 85.94220691 99.375 88.9375 C99.33678644 90.97722962 99.29773277 93.01694369 99.2578125 95.05664062 C99.16058204 100.03767611 99.08072268 105.01856062 99 110 C92.73 110 86.46 110 80 110 C80.13664063 107.52242188 80.27328125 105.04484375 80.4140625 102.4921875 C81.49861262 72.09090305 73.66247503 46.64640803 62.97705078 18.40991211 C61.07563665 13.33378794 59.50083954 8.2079428 58 3 C57.67 6.96 57.34 10.92 57 15 C51.06 15 45.12 15 39 15 C39 46.35 39 77.7 39 110 C32.4 110 25.8 110 19 110 C19 78.65 19 47.3 19 15 C12.73 15 6.46 15 0 15 C0 10.05 0 5.1 0 0 Z " fill="#FEFBFB" transform="translate(699,128)"/>
<path d="M0 0 C4.62 0 9.24 0 14 0 C19.38113126 11.75010304 24.5302444 23.57085092 29.45825195 35.51831055 C32.13733219 41.99262228 34.92756724 48.38053068 37.94140625 54.70703125 C39 57 39 57 40 60 C40.33 40.53 40.66 21.06 41 1 C46.28 1 51.56 1 57 1 C57 36.97 57 72.94 57 110 C52.71 110 48.42 110 44 110 C40.49041014 103.15070781 37.33521802 96.25929042 34.42578125 89.13671875 C33.8109211 87.64420341 33.8109211 87.64420341 33.18363953 86.12153625 C31.88973359 82.97829377 30.60105939 79.83293749 29.3125 76.6875 C28.43718884 74.55910498 27.5615407 72.43084851 26.68554688 70.30273438 C20.72089436 55.80223589 20.72089436 55.80223589 18 49 C17.67 69.13 17.34 89.26 17 110 C11.39 110 5.78 110 0 110 C0 73.7 0 37.4 0 0 Z " fill="#FEFDFD" transform="translate(907,307)"/>
<path d="M0 0 C6.27 0 12.54 0 19 0 C19.01981934 2.26447998 19.03963867 4.52895996 19.06005859 6.86206055 C19.12731929 14.38983595 19.20495091 21.91747957 19.28752708 29.44510174 C19.33722291 34.00381689 19.38355259 38.56251182 19.421875 43.12133789 C19.45906868 47.53053185 19.50551507 51.93954458 19.55806351 56.34858131 C19.57642824 58.02082922 19.59160034 59.69311569 19.60334396 61.3654232 C19.06563895 78.04080875 19.06563895 78.04080875 24.125 93.3125 C28.18194415 95.69374982 30.32709654 95.59338457 35 95 C38.04347621 93.55835337 38.78270936 92.51854131 40.08163452 89.41879272 C41.16636341 85.38068011 41.30739702 81.57264881 41.31884766 77.42431641 C41.33391609 76.16479156 41.33391609 76.16479156 41.34928894 74.87982178 C41.38003664 72.12040861 41.3971326 69.3610921 41.4140625 66.6015625 C41.43278092 64.68198825 41.45235484 62.76242218 41.4727478 60.84286499 C41.52400377 55.80251895 41.56366448 50.76214626 41.60089111 45.72167969 C41.64097174 40.57350098 41.69204556 35.42543255 41.7421875 30.27734375 C41.83886948 20.18496571 41.92228244 10.09254191 42 0 C48.6 0 55.2 0 62 0 C62.09067987 11.00574601 62.1639337 22.0112404 62.20724869 33.01727676 C62.22804674 38.12884752 62.25622091 43.24014752 62.30175781 48.3515625 C62.34549476 53.29234191 62.36919551 58.2328623 62.37950897 63.1738205 C62.38685066 65.0507184 62.40118615 66.92760353 62.42292023 68.80438995 C62.5626751 81.38264554 62.42058976 93.79322454 54 104 C47.74687253 110.07942948 39.72814377 111.76359281 31.25 112.1875 C21.10978822 111.99398451 13.40567574 109.40567574 6.1875 102.1875 C0.37167546 93.71301282 -0.16168896 84.4844046 -0.11352539 74.47265625 C-0.11367142 73.66194168 -0.11381744 72.85122711 -0.1139679 72.01594543 C-0.11327718 69.36476871 -0.10552458 66.71366429 -0.09765625 64.0625 C-0.09578908 62.21305378 -0.09436659 60.36360705 -0.09336853 58.51416016 C-0.08956692 53.66777153 -0.07975694 48.82141331 -0.06866455 43.97503662 C-0.05839958 39.02112235 -0.05386005 34.06720312 -0.04882812 29.11328125 C-0.03813239 19.40883872 -0.02055487 9.70442666 0 0 Z " fill="#FEFBFB" transform="translate(468,128)"/>
<path d="M0 0 C6.6 0 13.2 0 20 0 C20.09073128 10.85809141 20.16396293 21.7159269 20.20724869 32.57431316 C20.22803419 37.61747626 20.25618478 42.66036429 20.30175781 47.70336914 C20.34554035 52.57931496 20.36920489 57.45499788 20.37950897 62.33112526 C20.38684262 64.18207748 20.40116184 66.03301696 20.42292023 67.88385582 C20.56503383 80.48518897 20.61031359 93.82417484 12 104 C4.55710018 111.2361526 -5.38598742 112.37670491 -15.3203125 112.2734375 C-23.28323367 111.681713 -30.14726813 109.1367497 -35.56640625 103.1328125 C-40.66807752 95.54286015 -42.15467761 86.67613513 -42.11352539 77.74316406 C-42.11367142 76.91352646 -42.11381744 76.08388885 -42.1139679 75.22911072 C-42.11327212 72.4912554 -42.10549539 69.75346841 -42.09765625 67.015625 C-42.09579088 65.11562131 -42.09436754 63.21561714 -42.09336853 61.31561279 C-42.08955273 56.31791859 -42.07973041 51.32025351 -42.06866455 46.3225708 C-42.05843031 41.22156162 -42.05386659 36.12054774 -42.04882812 31.01953125 C-42.03810732 21.01300599 -42.02051808 11.00650997 -42 1 C-35.73 1 -29.46 1 -23 1 C-22.98018066 3.34077637 -22.96036133 5.68155273 -22.93994141 8.09326172 C-22.8728157 15.85654862 -22.79518027 23.61970537 -22.71247292 31.38284111 C-22.66268226 36.08625252 -22.61635167 40.78964333 -22.578125 45.49316406 C-22.54105331 50.03850413 -22.49463612 54.58366424 -22.44193649 59.12884903 C-22.42350814 60.85660751 -22.40835829 62.5844044 -22.39665604 64.31222153 C-22.30876523 77.27436389 -22.30876523 77.27436389 -20 90 C-19.87549469 90.72412079 -19.75098938 91.44824158 -19.62271118 92.19430542 C-19.41721649 92.79018463 -19.2117218 93.38606384 -19 94 C-14.27338717 95.57553761 -9.1965786 95.95748298 -4.5625 93.9375 C-0.5739008 88.99163699 -0.69816794 82.46502024 -0.68115234 76.40258789 C-0.66608391 75.15747437 -0.66608391 75.15747437 -0.65071106 73.88720703 C-0.62002059 71.16569663 -0.60288351 68.44428395 -0.5859375 65.72265625 C-0.56721446 63.82693143 -0.54764021 61.93121485 -0.5272522 60.0355072 C-0.47604499 55.06258002 -0.43635832 50.08962585 -0.39910889 45.11657715 C-0.35899754 40.03533312 -0.30793779 34.95420024 -0.2578125 29.87304688 C-0.16118832 19.91543511 -0.07775315 9.95777702 0 0 Z " fill="#FEFBFB" transform="translate(566,307)"/>
<path d="M0 0 C6.93 0 13.86 0 21 0 C23.27397399 8.80373295 25.20282011 17.62698693 26.9609375 26.546875 C27.23584723 27.9296023 27.51105148 29.31227107 27.78652954 30.69488525 C28.50715012 34.31495499 29.2244749 37.93566899 29.94085693 41.55657959 C31.07550059 47.28913818 32.2147349 53.02078613 33.35462189 58.75230408 C33.633424 60.15496386 33.91192323 61.55768389 34.19011688 62.96046448 C36.20376188 73.11336942 38.27315031 83.25329727 40.4715271 93.36810303 C40.65961945 94.24984192 40.84771179 95.13158081 41.04150391 96.04003906 C41.2035733 96.78674866 41.3656427 97.53345825 41.53262329 98.30279541 C42.20355821 102.17472296 42.56604518 106.0944066 43 110 C36.73 110 30.46 110 24 110 C23.32881816 106.58416384 22.66288615 103.16744683 22 99.75 C21.80921875 98.78191406 21.6184375 97.81382812 21.421875 96.81640625 C21.24140625 95.88183594 21.0609375 94.94726562 20.875 93.984375 C20.62363281 92.69611816 20.62363281 92.69611816 20.3671875 91.38183594 C20 89 20 89 20 85 C13.73 85 7.46 85 1 85 C0.4248861 90.60781855 0.4248861 90.60781855 -0.13623047 96.21704102 C-0.21244629 96.93045654 -0.28866211 97.64387207 -0.3671875 98.37890625 C-0.44050293 99.0963501 -0.51381836 99.81379395 -0.58935547 100.55297852 C-1.12721559 103.75807481 -2.10718018 106.87513064 -3 110 C-9.27 110 -15.54 110 -22 110 C-20.42897641 99.10350921 -18.35795144 88.3494379 -16.19140625 77.55859375 C-15.82013956 75.70023392 -15.44904399 73.84183991 -15.07810974 71.9834137 C-14.30418911 68.10941472 -13.52821019 64.23583544 -12.75073242 60.36254883 C-11.76062647 55.42911795 -10.77571067 50.49466786 -9.79234409 45.55988979 C-9.02830027 41.72876643 -8.26147897 37.89820294 -7.4938488 34.06779671 C-7.12983775 32.24972467 -6.76666441 30.43148467 -6.40439034 28.61306572 C-4.4894778 19.00943058 -2.47900085 9.47813509 0 0 Z " fill="#FEFCFC" transform="translate(561,128)"/>
<path d="M0 0 C7.26 0 14.52 0 22 0 C22.59167969 3.0421875 23.18335938 6.084375 23.79296875 9.21875 C28.57815503 33.97942645 28.57815503 33.97942645 33.625 58.6875 C35.56921558 67.89621588 37.4650254 77.11404309 39.32562256 86.33999634 C39.64748706 87.93319939 39.97074602 89.52612144 40.29547119 91.1187439 C40.7489117 93.3440483 41.19734136 95.57030724 41.64453125 97.796875 C42.03668823 99.73578613 42.03668823 99.73578613 42.43676758 101.71386719 C43 105 43 105 43 109 C36.73 109 30.46 109 24 109 C23.505 106.36 23.01 103.72 22.5 101 C22.34337891 100.1853125 22.18675781 99.370625 22.02539062 98.53125 C21.90357422 97.8609375 21.78175781 97.190625 21.65625 96.5 C21.53056641 95.8296875 21.40488281 95.159375 21.27539062 94.46875 C20.88839111 90.99947776 21 87.49079053 21 84 C14.4 84 7.8 84 1 84 C0.42574357 89.23371424 0.42574357 89.23371424 -0.13623047 94.46875 C-0.21244629 95.1390625 -0.28866211 95.809375 -0.3671875 96.5 C-0.44050293 97.1703125 -0.51381836 97.840625 -0.58935547 98.53125 C-1.17691967 102.0636217 -2.13150294 105.52601175 -3 109 C-9.27 109 -15.54 109 -22 109 C-17.24585691 83.14555374 -12.37670313 57.34483312 -6.79248047 31.65527344 C-5.39068351 25.18956056 -4.00919689 18.71949917 -2.625 12.25 C-2.11727251 9.88019012 -1.60946821 7.51039669 -1.1015625 5.140625 C-0.73804688 3.44421875 -0.37453125 1.7478125 0 0 Z " fill="#FEFDFD" transform="translate(689,308)"/>
<path d="M0 0 C6.23858421 4.93283403 9.53123062 11.27735686 10.6875 19.125 C10.80270534 22.2308198 10.78163647 25.33012711 10.75 28.4375 C10.729375 31.304375 10.70875 34.17125 10.6875 37.125 C4.0875 37.125 -2.5125 37.125 -9.3125 37.125 C-9.36857422 34.92070312 -9.36857422 34.92070312 -9.42578125 32.671875 C-9.49144251 30.73955787 -9.5578898 28.80726735 -9.625 26.875 C-9.65883789 25.42287109 -9.65883789 25.42287109 -9.69335938 23.94140625 C-9.72880859 23.00683594 -9.76425781 22.07226562 -9.80078125 21.109375 C-9.82696533 20.25053711 -9.85314941 19.39169922 -9.88012695 18.50683594 C-10.4019387 15.63230439 -11.31565288 14.23698755 -13.3125 12.125 C-16.95032632 10.91239123 -19.48985999 10.72955448 -23.3125 11.125 C-25.94266161 13.2977422 -27.78586894 15.07173788 -29.3125 18.125 C-29.41949697 20.1864005 -29.46137661 22.2512906 -29.47363281 24.31542969 C-29.48324036 25.6172821 -29.4928479 26.91913452 -29.50274658 28.26043701 C-29.50759532 29.6892479 -29.51187396 31.11806081 -29.515625 32.546875 C-29.52137751 34.00937909 -29.52713523 35.47188316 -29.53289795 36.93438721 C-29.54341081 40.0044388 -29.54925108 43.07446419 -29.55273438 46.14453125 C-29.55820893 50.06978735 -29.58221312 53.99469477 -29.61070633 57.91984177 C-29.62937684 60.94310499 -29.63454072 63.96628514 -29.63607025 66.98960114 C-29.63908917 68.4360265 -29.64709198 69.88245066 -29.66025543 71.32881927 C-29.67740052 73.35813989 -29.67357869 75.38760444 -29.66894531 77.41699219 C-29.67259094 78.57011902 -29.67623657 79.72324585 -29.67999268 80.91131592 C-29.26171954 84.56906972 -28.1905216 86.9772407 -26.3125 90.125 C-22.57849698 92.95769194 -18.5258361 92.30944468 -14.0625 91.9375 C-12.07765333 91.24010618 -12.07765333 91.24010618 -11.22900391 88.8918457 C-10.31647969 86.13701434 -10.0047696 83.93165737 -9.8984375 81.04296875 C-9.85976563 80.11162109 -9.82109375 79.18027344 -9.78125 78.22070312 C-9.7503125 77.26099609 -9.719375 76.30128906 -9.6875 75.3125 C-9.62949219 73.84393555 -9.62949219 73.84393555 -9.5703125 72.34570312 C-9.47639629 69.9391002 -9.39337436 67.53207649 -9.3125 65.125 C-2.7125 65.125 3.8875 65.125 10.6875 65.125 C11.27935079 91.56100217 11.27935079 91.56100217 1.6875 102.125 C-0.8481297 103.94426277 -3.38125835 105.08265277 -6.3125 106.125 C-7.385 106.5375 -8.4575 106.95 -9.5625 107.375 C-19.85958658 109.43441732 -29.3984583 108.36098508 -38.625 103.3125 C-46.28300423 97.07924074 -49.31186025 89.73351818 -50.60316467 79.91488647 C-51.19064367 74.17565475 -51.47239548 68.50986002 -51.48046875 62.7421875 C-51.48379715 61.88424591 -51.48712555 61.02630432 -51.49055481 60.1423645 C-51.49557872 58.33905567 -51.49796455 56.5357377 -51.49780273 54.73242188 C-51.49997814 52.02718091 -51.51815251 49.32235608 -51.53710938 46.6171875 C-51.64681272 13.54824998 -51.64681272 13.54824998 -42.5234375 3.0703125 C-30.99271516 -8.00101851 -13.3843546 -7.57604977 0 0 Z " fill="#FDFAFA" transform="translate(649.3125,310.875)"/>
<path d="M0 0 C8.69284796 4.8078594 14.25391836 10.56742206 17.6703186 19.9909668 C18.76202826 24.04870855 18.64823323 28.05457551 18.57421875 32.23046875 C18.57119751 33.04805664 18.56817627 33.86564453 18.56506348 34.70800781 C18.54951382 37.72604216 18.50763121 40.7438948 18.46875 43.76171875 C18.406875 50.52671875 18.345 57.29171875 18.28125 64.26171875 C-2.83875 64.26171875 -23.95875 64.26171875 -45.71875 64.26171875 C-45.8425 57.41421875 -45.96625 50.56671875 -46.09375 43.51171875 C-46.14837402 41.37606445 -46.20299805 39.24041016 -46.25927734 37.04003906 C-46.4341874 25.32886909 -45.98784692 16.12964796 -37.70727539 7.05810547 C-27.43201602 -2.84695918 -13.180508 -6.09812464 0 0 Z " fill="#FEFDFE" transform="translate(1161.71875,605.73828125)"/>
<path d="M0 0 C15.51 0 31.02 0 47 0 C47 4.95 47 9.9 47 15 C38.42 15 29.84 15 21 15 C21 25.23 21 35.46 21 46 C27.6 46 34.2 46 41 46 C41 50.95 41 55.9 41 61 C34.4 61 27.8 61 21 61 C21 72.55 21 84.1 21 96 C29.58 96 38.16 96 47 96 C47 100.62 47 105.24 47 110 C31.49 110 15.98 110 0 110 C0 73.7 0 37.4 0 0 Z " fill="#FCF6F7" transform="translate(393,307)"/>
<path d="M0 0 C18.48 0 36.96 0 56 0 C56 5.28 56 10.56 56 16 C50.39 16 44.78 16 39 16 C39 47.02 39 78.04 39 110 C32.07 110 25.14 110 18 110 C18 78.98 18 47.96 18 16 C12.06 16 6.12 16 0 16 C0 10.72 0 5.44 0 0 Z " fill="#FCF5F6" transform="translate(731,307)"/>
<path d="M0 0 C6.93 0 13.86 0 21 0 C21 31.68 21 63.36 21 96 C29.58 96 38.16 96 47 96 C47 100.62 47 105.24 47 110 C31.49 110 15.98 110 0 110 C0 73.7 0 37.4 0 0 Z " fill="#FDF7F7" transform="translate(614,128)"/>
<path d="M0 0 C0.33 0 0.66 0 1 0 C1 39.6 1 79.2 1 120 C-13.19 120 -27.38 120 -42 120 C-41.30615112 116.5307556 -40.64099633 113.74963439 -39.43359375 110.5078125 C-38.95974243 109.22342285 -38.95974243 109.22342285 -38.47631836 107.91308594 C-38.1335083 106.99301758 -37.79069824 106.07294922 -37.4375 105.125 C-34.70019043 97.68966926 -32.01782151 90.2412335 -29.4375 82.75 C-23.70224946 66.14391659 -17.73714638 49.61840367 -11.81689453 33.07763672 C-9.22834026 25.84476571 -6.64546308 18.60986911 -4.0625 11.375 C-3.26174803 9.13280204 -2.46097029 6.89061329 -1.66015625 4.6484375 C-1.33668213 3.74270996 -1.01320801 2.83698242 -0.67993164 1.90380859 C-0.4555542 1.27555176 -0.23117676 0.64729492 0 0 Z " fill="#C51A2E" transform="translate(198,186)"/>
<path d="M0 0 C6.6 0 13.2 0 20 0 C20 36.3 20 72.6 20 110 C13.4 110 6.8 110 0 110 C0 73.7 0 37.4 0 0 Z " fill="#FEFEFE" transform="translate(671,128)"/>
<path d="M0 0 C6.27 0 12.54 0 19 0 C19 35.97 19 71.94 19 109 C12.73 109 6.46 109 0 109 C0 73.03 0 37.06 0 0 Z " fill="#FFFFFF" transform="translate(796,308)"/>
<path d="M0 0 C5.5 3 5.5 3 7 6 C7.10212554 8.1586913 7.13843456 10.32059457 7.14526367 12.48168945 C7.14862228 13.14694641 7.1519809 13.81220337 7.15544128 14.49761963 C7.16496078 16.70285904 7.16689508 18.90802256 7.16796875 21.11328125 C7.17118134 22.64544201 7.17454541 24.17760246 7.17805481 25.70976257 C7.18404907 28.92524934 7.18589448 32.14070921 7.18530273 35.35620117 C7.18520125 39.47204508 7.19883745 43.58771593 7.21607494 47.70351887 C7.22720816 50.86999804 7.22922151 54.03643561 7.22869301 57.20293236 C7.22987175 58.71994814 7.23428758 60.23696505 7.24202538 61.75396156 C7.25184924 63.87947211 7.24893764 66.00461009 7.24291992 68.13012695 C7.24434494 69.33876907 7.24576996 70.54741119 7.24723816 71.79267883 C6.9996793 75.00416029 6.51242527 77.16737937 5 80 C0.55175146 82.96549903 -3.78303754 82.63449543 -9 82 C-12.56715026 79.65090105 -13.65885281 76.9706325 -15 73 C-15.26069641 70.05410767 -15.26069641 70.05410767 -15.2746582 66.76025391 C-15.28419022 65.52191803 -15.29372223 64.28358215 -15.30354309 63.00772095 C-15.30328161 61.66400117 -15.30234432 60.32028139 -15.30078125 58.9765625 C-15.3046722 57.58800123 -15.3090077 56.19944114 -15.31376648 54.81088257 C-15.32121507 51.90415587 -15.32094768 48.99755065 -15.31567383 46.09082031 C-15.3098857 42.37981888 -15.32680035 38.66931762 -15.3500185 34.95839882 C-15.36480655 32.09120818 -15.36562061 29.22413654 -15.36250877 26.35691452 C-15.3630196 24.98947536 -15.36821226 23.62202912 -15.37832069 22.25462723 C-15.47729354 6.99244814 -15.47729354 6.99244814 -10.3125 1.0625 C-6.87464254 -0.51705613 -3.6669288 -0.65455735 0 0 Z " fill="#C51C30" transform="translate(865,321)"/>
<path d="M0 0 C2.87029869 1.79393668 4.49131638 2.98263276 6 6 C6.10725888 8.15856747 6.14889937 10.32049341 6.16113281 12.48168945 C6.16609772 13.14694641 6.17106262 13.81220337 6.17617798 14.49761963 C6.19080622 16.70285063 6.19760326 18.90800966 6.203125 21.11328125 C6.20887667 22.64544171 6.2146344 24.17760215 6.22039795 25.70976257 C6.23091034 28.92524552 6.23675119 32.14070345 6.24023438 35.35620117 C6.24571442 39.4721189 6.26973067 43.58770503 6.29820633 47.70351887 C6.31685251 50.86999977 6.32203939 54.03640119 6.32357025 57.20293236 C6.32659372 58.7199605 6.33461198 60.23698735 6.34775543 61.75396156 C6.36485519 63.8796045 6.36292645 66.0044427 6.35644531 68.13012695 C6.36009094 69.33876907 6.36373657 70.54741119 6.36749268 71.79267883 C5.96144743 75.33647055 5.14254646 77.17500424 3 80 C-1.23816047 82.82544031 -5.02398485 82.65366373 -10 82 C-13.92224969 79.4505377 -14.75140253 76.38489473 -16 72 C-16.26069641 68.97181702 -16.26069641 68.97181702 -16.2746582 65.73852539 C-16.28419022 64.5202858 -16.29372223 63.3020462 -16.30354309 62.04689026 C-16.30263168 60.74364304 -16.30172028 59.44039581 -16.30078125 58.09765625 C-16.3046736 56.73294445 -16.30900937 55.36823384 -16.31376648 54.00352478 C-16.32120688 51.14985214 -16.32095323 48.29630326 -16.31567383 45.44262695 C-16.30988048 41.80003213 -16.32681696 38.157946 -16.3500185 34.51543522 C-16.36480626 31.69885842 -16.36562076 28.88240274 -16.36250877 26.06579399 C-16.36326627 24.07452528 -16.3770962 22.08327526 -16.39118958 20.09205627 C-16.35364483 12.72997825 -16.27696089 6.90714568 -11.375 1.0625 C-7.62000237 -0.61736736 -4.03618038 -0.66909942 0 0 Z " fill="#C51C2F" transform="translate(428,142)"/>
<path d="M0 0 C12.96551724 0 12.96551724 0 17 3 C18.9981245 6.88817029 19.26605191 10.19584516 19.30639648 14.53100586 C19.32238388 15.83263168 19.33837128 17.13425751 19.35484314 18.47532654 C19.36121955 19.88849494 19.36661238 21.30166807 19.37109375 22.71484375 C19.38006737 24.17306101 19.38918935 25.63127735 19.39845276 27.0894928 C19.41491277 30.14163445 19.42263765 33.19366677 19.42553711 36.24584961 C19.43092467 40.14776761 19.46863109 44.04865221 19.51428127 47.95027828 C19.54408812 50.96069556 19.55126139 53.97086471 19.55226326 56.9814167 C19.55645675 58.41949775 19.56885623 59.85758013 19.58978081 61.29551506 C19.75902886 73.92914854 19.75902886 73.92914854 16.65258789 77.86547852 C10.98269992 82.42800319 8.40665001 81 0 81 C0 54.27 0 27.54 0 0 Z " fill="#C5192D" transform="translate(471,322)"/>
<path d="M0 0 C2.88833516 2.88833516 2.90698232 6.22109562 3.5078125 10.11328125 C3.63815887 10.91984665 3.76850525 11.72641205 3.90280151 12.55741882 C4.17718053 14.26577229 4.44759294 15.97476682 4.71435547 17.68432617 C5.12196339 20.29306533 5.54232387 22.89949841 5.96484375 25.50585938 C6.22992606 27.16654563 6.49427291 28.82734948 6.7578125 30.48828125 C6.88278107 31.26553055 7.00774963 32.04277985 7.13650513 32.84358215 C7.72606803 36.65025094 8 40.12578984 8 44 C3.38 44 -1.24 44 -6 44 C-5.38531557 34.08733044 -4.08100471 24.46503779 -2.4375 14.6875 C-2.20066457 13.25333889 -1.9643337 11.81909437 -1.72851562 10.38476562 C-1.15813347 6.92219989 -0.58101481 3.46079949 0 0 Z " fill="#C92A3D" transform="translate(571,156)"/>
<path d="M0 0 C2.42671562 3.64007343 2.853282 7.01699377 3.5078125 11.24609375 C3.63815887 12.05361588 3.76850525 12.861138 3.90280151 13.69313049 C4.17679524 15.39976503 4.44722747 17.10697462 4.71435547 18.81469727 C5.12309759 21.42534926 5.54300403 24.03401385 5.96484375 26.64257812 C6.22982624 28.30197814 6.49417046 29.96148024 6.7578125 31.62109375 C6.88278107 32.40036728 7.00774963 33.17964081 7.13650513 33.98252869 C7.66531601 37.38227152 8 40.54924952 8 44 C3.38 44 -1.24 44 -6 44 C-5.27214548 34.52115889 -3.89559928 25.19933122 -2.4375 15.8125 C-2.20086528 14.27283355 -1.96453498 12.73312028 -1.72851562 11.19335938 C-1.15584672 7.46169133 -0.57907989 3.73067833 0 0 Z " fill="#C82639" transform="translate(699,335)"/>
</svg>
