<?xml version="1.0" encoding="UTF-8"?>
<svg version="1.1" xmlns="http://www.w3.org/2000/svg" width="1500" height="1500">
<path d="M0 0 C495 0 990 0 1500 0 C1500 495 1500 990 1500 1500 C1005 1500 510 1500 0 1500 C0 1005 0 510 0 0 Z " fill="#FF3A21" transform="translate(0,0)"/>
<path d="M0 0 C0.73957616 0.00223072 1.47915233 0.00446144 2.24113989 0.00675976 C3.41130093 0.00441978 3.41130093 0.00441978 4.60510159 0.00203252 C7.23921159 -0.00198059 9.87326473 0.00121335 12.50737524 0.00434887 C14.38765004 0.00299497 16.26792458 0.0012151 18.1481986 -0.00096118 C23.26995059 -0.00553682 28.39168253 -0.00374543 33.51343489 -0.0005821 C38.8608215 0.00194083 44.20820634 -0.00039585 49.55559301 -0.00196826 C58.53740769 -0.00379016 67.51921415 -0.00138314 76.50102758 0.00337231 C86.90122892 0.00881497 97.30141066 0.00705233 107.70161152 0.00154591 C116.61367715 -0.00298467 125.52573686 -0.00363605 134.43780327 -0.00101542 C139.76818205 0.00054766 145.09855161 0.00074027 150.42892981 -0.00255191 C155.43897121 -0.00542982 160.44898722 -0.00345642 165.45902586 0.00234234 C167.30337179 0.00367038 169.14771985 0.0032751 170.99206495 0.00107968 C173.49870327 -0.00163014 176.00525887 0.00174722 178.51189184 0.00675976 C179.25146801 0.00452904 179.99104417 0.00229832 180.75303173 0 C185.76236601 0.01959355 185.76236601 0.01959355 186.87651587 1.13374341 C186.97643763 3.59775833 187.01093317 6.03380347 187.00349951 8.49836743 C187.0050595 9.27847479 187.00661949 10.05858215 187.00822675 10.86232913 C187.01223986 13.49643913 187.00904592 16.13049227 187.0059104 18.76460278 C187.0072643 20.64487758 187.00904417 22.52515212 187.01122046 24.40542614 C187.01579609 29.52717813 187.0140047 34.64891007 187.01084137 39.77066243 C187.00831844 45.11804904 187.01065512 50.46543388 187.01222754 55.81282055 C187.01404943 64.79463523 187.01164241 73.77644169 187.00688696 82.75825512 C187.0014443 93.15845646 187.00320695 103.5586382 187.00871336 113.95883906 C187.01324394 122.87090469 187.01389532 131.7829644 187.0112747 140.69503081 C187.00971161 146.02540959 187.009519 151.35577915 187.01281118 156.68615735 C187.01568909 161.69619875 187.0137157 166.70621476 187.00791693 171.7162534 C187.00658889 173.56059933 187.00698417 175.40494739 187.00917959 177.24929249 C187.01188941 179.75593081 187.00851205 182.26248641 187.00349951 184.76911938 C187.00573023 185.50869555 187.00796095 186.24827171 187.01025927 187.01025927 C186.99066572 192.01959355 186.99066572 192.01959355 185.87651587 193.13374341 C183.8263874 193.23313966 181.77280195 193.26173893 179.72026587 193.26313794 C178.40219946 193.2662901 177.08413305 193.26944226 175.72612524 193.27268994 C174.27625511 193.27090016 172.82638529 193.26884921 171.37651587 193.26655591 C169.90060424 193.26722898 168.42469273 193.26819903 166.94878149 193.26945508 C163.85176557 193.27093188 160.75477844 193.26877804 157.65776587 193.2641145 C153.67943038 193.25841721 149.70116235 193.26169631 145.72282934 193.26768696 C142.6740367 193.27129304 139.62526016 193.27015378 136.57646704 193.26755917 C135.1091818 193.26689003 133.64189512 193.26771788 132.17461157 193.27003872 C130.12732994 193.27256597 128.0800432 193.26803401 126.03276587 193.26313794 C124.28189672 193.26194455 124.28189672 193.26194455 122.49565649 193.26072705 C119.87651587 193.13374341 119.87651587 193.13374341 118.87651587 192.13374341 C118.75254715 189.98706056 118.69850867 187.83631954 118.6711936 185.68623364 C118.66116088 185.00217229 118.65112816 184.31811095 118.64079142 183.61332047 C118.60930301 181.3896943 118.58459295 179.16605037 118.56010962 176.94233716 C118.54171569 175.57323116 118.52287954 174.20413103 118.50359106 172.83503735 C118.43502991 167.74717556 118.37504991 162.65920106 118.31401587 157.57124341 C118.16964087 146.20686841 118.02526587 134.84249341 117.87651587 123.13374341 C91.80651587 149.20374341 65.73651587 175.27374341 38.87651587 202.13374341 C40.35522896 205.0911696 41.90488281 207.8459209 43.64214087 210.64741528 C79.02015866 268.01212371 91.24037073 333.50171721 76.47612524 399.43208325 C75.97060318 401.70981417 75.50072857 403.98960658 75.04839087 406.27827466 C69.22785979 433.06983682 56.19370121 461.10248753 39.87651587 483.13374341 C39.42953344 483.75007641 38.98255102 484.36640942 38.52202368 485.00141919 C32.3837978 493.46424017 26.00795342 501.47712247 18.87651587 509.13374341 C17.68411465 510.50449524 16.49637704 511.87932204 15.31401587 513.25874341 C-3.88948378 535.24984784 -28.94039098 552.89691512 -55.2807107 565.25434887 C-57.00322226 566.07635294 -58.70130345 566.94901281 -60.39692163 567.82514966 C-78.56421406 576.95114387 -103.60200905 587.13374341 -124.12348413 587.13374341 C-124.12348413 611.22374341 -124.12348413 635.31374341 -124.12348413 660.13374341 C-115.91151148 660.11634106 -115.91151148 660.11634106 -107.53364038 660.09858716 C-104.07465483 660.09348035 -100.6156739 660.08866657 -97.15668726 660.08491528 C-91.66099065 660.07892703 -86.16531062 660.07182722 -80.66962671 660.05830395 C-76.24114725 660.0474744 -71.81268557 660.04146643 -67.3841939 660.03886616 C-65.69082786 660.03701203 -63.99746284 660.03339166 -62.30410433 660.02801335 C-59.94057182 660.02080201 -57.57711369 660.0197525 -55.21357203 660.02021801 C-54.50651117 660.01662274 -53.79945032 660.01302746 -53.07096338 660.00932324 C-48.2375363 660.01969124 -48.2375363 660.01969124 -47.12348413 661.13374341 C-47.02919071 663.3118006 -47.00605876 665.4929562 -47.00995874 667.67305005 C-47.00977794 668.71401034 -47.00977794 668.71401034 -47.00959349 669.77600014 C-47.01034244 672.03199877 -47.01796985 674.28791573 -47.02582788 676.54389966 C-47.02729736 677.93285596 -47.02831804 679.32181281 -47.02887964 680.71076977 C-47.0341319 685.87260274 -47.04809299 691.03442387 -47.06098413 696.19624341 C-47.08160913 707.72561841 -47.10223413 719.25499341 -47.12348413 731.13374341 C-72.20348413 731.13374341 -97.28348413 731.13374341 -123.12348413 731.13374341 C-123.04427979 754.73901346 -123.04427979 754.73901346 -122.94330835 778.34419262 C-122.93427515 782.90547192 -122.93427515 782.90547192 -122.93259668 785.03953564 C-122.92952174 786.5327932 -122.92247984 788.02604573 -122.91233301 789.51927197 C-122.89774464 791.77870855 -122.89567039 794.03784118 -122.89643335 796.29731762 C-122.89199213 797.57194867 -122.88755091 798.84657971 -122.8829751 800.15983593 C-123.12348413 803.13374341 -123.12348413 803.13374341 -125.12348413 805.13374341 C-127.97004175 805.38771069 -127.97004175 805.38771069 -131.65278101 805.39253247 C-132.65789476 805.39778943 -132.65789476 805.39778943 -133.68331385 805.40315259 C-135.90305866 805.41197073 -138.12248596 805.40612064 -140.34223413 805.39936841 C-141.88158209 805.40071504 -143.42092963 805.40265555 -144.96027613 805.40516675 C-148.1883853 805.40811811 -151.41638389 805.40382002 -154.64448023 805.39448559 C-158.78754208 805.38309098 -162.93034482 805.38965039 -167.07339716 805.40163052 C-170.25263413 805.40884882 -173.43180942 805.40656135 -176.61104822 805.40137494 C-178.13891108 805.40003835 -179.66677949 805.40168647 -181.19463587 805.40633404 C-183.32797113 805.41139887 -185.46088358 805.4036901 -187.59418726 805.39253247 C-188.80949121 805.39094128 -190.02479517 805.38935009 -191.27692652 805.38771069 C-194.12348413 805.13374341 -194.12348413 805.13374341 -196.12348413 803.13374341 C-196.36399317 800.15983593 -196.36399317 800.15983593 -196.35053492 796.29731762 C-196.35077599 795.58339919 -196.35101706 794.86948075 -196.35126543 794.13392842 C-196.34977038 791.81863663 -196.33452921 789.50366523 -196.31879663 787.18843091 C-196.31585679 785.76077949 -196.31381599 784.33312592 -196.31269312 782.90547192 C-196.30219904 777.60652958 -196.27427671 772.30763336 -196.24848413 767.00874341 C-196.20723413 755.16999341 -196.16598413 743.33124341 -196.12348413 731.13374341 C-221.20348413 731.13374341 -246.28348413 731.13374341 -272.12348413 731.13374341 C-272.14410913 719.60436841 -272.16473413 708.07499341 -272.18598413 696.19624341 C-272.19508814 692.55085522 -272.20419214 688.90546704 -272.21357203 685.14961255 C-272.21808863 680.71076977 -272.21808863 680.71076977 -272.21892786 678.63519299 C-272.22046716 677.18023383 -272.22399181 675.72527597 -272.2290597 674.27032483 C-272.23633916 672.07121056 -272.23739149 669.87217449 -272.23700953 667.67305005 C-272.23923014 666.43172818 -272.24145075 665.19040631 -272.24373865 663.91146863 C-272.12348413 661.13374341 -272.12348413 661.13374341 -271.12348413 660.13374341 C-268.75047544 660.03879607 -266.40669711 660.00815021 -264.03339624 660.02021801 C-263.29197886 660.02007199 -262.55056147 660.01992596 -261.78667688 660.01977551 C-259.32469793 660.02047476 -256.8627937 660.02826766 -254.40082788 660.03608716 C-252.69831874 660.03795129 -250.99580907 660.03937522 -249.2932992 660.04037488 C-244.8035534 660.04420038 -240.31383975 660.05403094 -235.82410669 660.06507885 C-230.44184772 660.07708672 -225.05957803 660.08169506 -219.67730951 660.08753216 C-211.49267867 660.09724268 -203.30811841 660.116399 -195.12348413 660.13374341 C-195.12348413 636.37374341 -195.12348413 612.61374341 -195.12348413 588.13374341 C-199.08348413 587.80374341 -203.04348413 587.47374341 -207.12348413 587.13374341 C-211.1495336 586.33972438 -215.08573988 585.49613358 -219.06098413 584.50874341 C-220.14001001 584.24367993 -221.21903589 583.97861645 -222.33075953 583.70552075 C-239.25472565 579.44189946 -255.41632062 573.7419567 -271.12348413 566.13374341 C-271.8132937 565.80180981 -272.50310328 565.46987622 -273.21381617 565.12788403 C-297.53589342 553.26233655 -318.73264144 536.82895049 -338.12348413 518.13374341 C-338.9910232 517.30745434 -339.85856226 516.48116528 -340.75239038 515.62983716 C-346.36420155 510.17418074 -351.28184673 504.27575302 -356.12348413 498.13374341 C-356.92785913 497.13471997 -357.73223413 496.13569653 -358.56098413 495.10639966 C-383.81180451 463.41773518 -399.59574959 424.73740224 -407.12348413 385.13374341 C-407.28864527 384.26829907 -407.4538064 383.40285473 -407.62397242 382.51118481 C-418.46371252 322.6403969 -402.87006669 256.8674462 -368.68598413 206.88374341 C-360.03017598 194.4989516 -350.59014119 183.02445786 -340.12348413 172.13374341 C-339.34617945 171.31559155 -339.34617945 171.31559155 -338.55317163 170.48091137 C-331.1839967 162.75099173 -323.47207538 155.8657465 -314.91498804 149.47651684 C-313.120722 148.13167312 -311.34629976 146.76350101 -309.57270288 145.39155591 C-290.15138191 130.55170169 -268.09719834 119.33167031 -245.12348413 111.13374341 C-244.01263453 110.73542309 -244.01263453 110.73542309 -242.87934351 110.32905591 C-233.23726804 106.93289332 -223.51582879 104.41655661 -213.49848413 102.38374341 C-212.52258326 102.18506665 -211.54668238 101.98638989 -210.54120874 101.78169262 C-195.03278968 98.79295098 -179.82442905 97.75119991 -164.06098413 97.82124341 C-163.16207453 97.82373089 -162.26316492 97.82621838 -161.33701563 97.82878125 C-127.42178401 97.97350769 -96.39613008 104.87362131 -65.12348413 118.13374341 C-64.31346949 118.47518384 -63.50345484 118.81662426 -62.66889429 119.16841137 C-46.96437114 125.89501701 -31.95495337 134.74365539 -18.43525171 145.18794262 C-15.25849535 147.58851168 -14.28530415 148.13374341 -10.12348413 148.13374341 C-8.30931768 146.90958308 -8.30931768 146.90958308 -6.64332056 145.1345979 C-5.97310373 144.46987973 -5.30288691 143.80516156 -4.61236048 143.12030041 C-3.88803324 142.38159207 -3.163706 141.64288373 -2.41742945 140.88179028 C-1.64631327 140.11125821 -0.87519709 139.34072613 -0.08071375 138.5468446 C2.47191306 135.9914257 5.01007212 133.42211874 7.54839087 130.85249341 C9.31300115 129.08042481 11.07849523 127.30923587 12.84483862 125.53889477 C17.02058253 121.34942616 21.18732421 117.15114207 25.34981704 112.9485184 C30.55404533 107.69520922 35.7720792 102.45567988 40.98979712 97.21577466 C50.29651155 87.86613292 59.59084138 78.50427903 68.87651587 69.13374341 C67.95165884 69.12343594 67.02680182 69.11312848 66.07391882 69.10250866 C57.37692363 69.00471158 48.6799993 68.90222303 39.98312235 68.79440415 C35.51149593 68.73913463 31.03986302 68.68570834 26.56816626 68.63642895 C22.2563382 68.58884464 17.94459218 68.53650425 13.63286161 68.48080266 C11.98417647 68.46035212 10.33546881 68.4416436 8.68674421 68.42466938 C6.38541626 68.40068481 4.08424477 68.37062264 1.78301001 68.33906567 C-0.18556215 68.31574925 -0.18556215 68.31574925 -2.19390345 68.29196179 C-5.12348413 68.13374341 -5.12348413 68.13374341 -6.12348413 67.13374341 C-6.22288039 65.08361494 -6.25147966 63.03002949 -6.25287867 60.97749341 C-6.25603083 59.659427 -6.25918299 58.34136059 -6.26243067 56.98335278 C-6.26064089 55.53348265 -6.25858994 54.08361283 -6.25629663 52.63374341 C-6.25696971 51.15783178 -6.25793976 49.68192027 -6.2591958 48.20600903 C-6.26067261 45.10899311 -6.25851877 42.01200598 -6.25385523 38.91499341 C-6.24815794 34.93665792 -6.25143704 30.95838989 -6.25742769 26.98005688 C-6.26103377 23.93126424 -6.25989451 20.8824877 -6.2572999 17.83369458 C-6.25663076 16.36640934 -6.25745861 14.89912266 -6.25977945 13.43183911 C-6.2623067 11.38455748 -6.25777474 9.33727074 -6.25287867 7.28999341 C-6.25168528 5.53912426 -6.25168528 5.53912426 -6.25046778 3.75288403 C-6.02809243 -0.83378784 -4.09644721 0.01602288 0 0 Z " fill="#FFFEFE" transform="translate(911.1234841346741,565.8662565946579)"/>
<path d="M0 0 C1.90712769 0.01232666 1.90712769 0.01232666 3.8527832 0.02490234 C54.53910489 0.62451157 100.34207496 21.10793935 135.75 57.25 C138.93144143 60.79039851 141.85561339 64.47356492 144.75 68.25 C145.55953125 69.24386719 146.3690625 70.23773437 147.203125 71.26171875 C167.10916828 95.87811855 177.32164622 125.47081756 182.75 156.25 C182.93103271 157.1985083 183.11206543 158.1470166 183.29858398 159.12426758 C184.23435949 165.60384237 183.99421379 172.21200521 184 178.75 C184.00100708 179.53289398 184.00201416 180.31578796 184.00305176 181.12240601 C183.98750174 199.00240881 182.57653813 216.21720602 176.75 233.25 C176.4912207 234.03777832 176.23244141 234.82555664 175.96582031 235.63720703 C169.41967722 255.45685721 160.64035962 273.76965423 147.75 290.25 C146.99976563 291.21035156 146.24953125 292.17070313 145.4765625 293.16015625 C124.31200497 319.56015696 97.68865909 339.688294 65.75 351.25 C64.65026855 351.65557129 64.65026855 351.65557129 63.52832031 352.06933594 C53.07531811 355.88636771 42.76007685 358.65120339 31.75 360.25 C30.75492432 360.4044458 30.75492432 360.4044458 29.73974609 360.56201172 C-17.15861203 367.66578312 -64.60247817 356.01659031 -103.01733398 328.26855469 C-116.64082846 318.12633883 -128.78380702 306.62068673 -139.25 293.25 C-139.6836084 292.69812012 -140.1172168 292.14624023 -140.56396484 291.57763672 C-170.92442246 252.61158239 -181.26808762 205.22724204 -176.92480469 156.60986328 C-176.1347072 150.37270687 -174.84725415 144.32564803 -173.25 138.25 C-173.07339844 137.52377441 -172.89679687 136.79754883 -172.71484375 136.04931641 C-161.59470828 90.61120729 -130.84760428 51.03989079 -91.40771484 26.54443359 C-63.54085888 9.82684247 -32.70339899 -0.25995292 0 0 Z " fill="#FF3B22" transform="translate(744.25,728.75)"/>
<path d="M0 0 C43.56 0 87.12 0 132 0 C132 15.84 132 31.68 132 48 C103.29 48 74.58 48 45 48 C45 51.96 45 55.92 45 60 C44.88275048 62.77999867 44.73952015 65.55910407 44.5625 68.3359375 C44.47134378 69.82812437 44.38019827 71.32031189 44.2890625 72.8125 C44.14540031 75.09154915 44.00028786 77.37050045 43.85449219 79.64941406 C43.23301708 89.45350092 42.85855068 99.17123653 43 109 C43.62318115 108.56856689 44.2463623 108.13713379 44.88842773 107.69262695 C60.38018931 96.96756125 79.94667654 94.76034074 98.375 97.625 C111.09793379 100.79480309 121.61750122 108.50496952 128.8125 119.375 C134.56840421 129.14382334 138.17370528 138.8581144 140.54589844 149.90820312 C140.97340854 151.87750772 141.44240333 153.83767539 141.9140625 155.796875 C148.98025433 187.99531602 147.31325261 236.3536846 129.375 264.5546875 C127.68206983 266.81976536 125.90756503 268.91299122 124 271 C122.94619141 272.17369141 122.94619141 272.17369141 121.87109375 273.37109375 C117.05034137 278.47689931 112.33361706 282.01097721 106 285 C105.32710938 285.35707031 104.65421875 285.71414063 103.9609375 286.08203125 C92.36244039 291.8812798 79.21649807 292.48979286 66.5 292.375 C65.21480469 292.38660156 63.92960937 292.39820313 62.60546875 292.41015625 C43.35887298 292.35212631 24.99075001 288.01288727 11 274 C-5.98373868 254.89329399 -7 228.22859909 -7 204 C10.82 204 28.64 204 47 204 C47.33 210.6 47.66 217.2 48 224 C49.13551416 232.64737705 50.70136321 242.29794 58 248 C63.33422836 251.26440582 70.24512167 250.85368459 76.19921875 249.5 C82.13771011 247.23281024 84.6413998 243.11193634 87.125 237.5625 C91.60469567 225.32782085 91.31870231 212.30048419 91.26074219 199.45117188 C91.2500437 196.63649832 91.26068375 193.82246652 91.2734375 191.0078125 C91.78581056 166.17522301 91.78581056 166.17522301 82.625 143.9375 C75.62644511 138.77189996 69.62649953 137.87297259 61 139 C53.97284288 141.68913257 49.94932109 146.73907048 46.875 153.4375 C45.3632115 156.9296065 44.21366329 160.35901014 43 164 C27.49 164 11.98 164 -4 164 C-4 137.50514241 -4 137.50514241 -3.81640625 128.46875 C-3.79694443 127.43186035 -3.7774826 126.3949707 -3.75743103 125.32666016 C-3.69498253 122.05105164 -3.62899841 118.77552859 -3.5625 115.5 C-3.54010254 114.35893799 -3.51770508 113.21787598 -3.49462891 112.04223633 C-3.21957455 98.05445433 -2.88706089 84.07335218 -2.37524414 70.09204102 C-2.08073507 61.65461458 -1.89913699 53.21848298 -1.75 44.77734375 C-1.72901245 43.60229279 -1.7080249 42.42724182 -1.68640137 41.21658325 C-1.58174978 35.29030901 -1.48329845 29.36400349 -1.39257812 23.4375 C-1.35558633 21.24869593 -1.31848195 19.05989375 -1.28125 16.87109375 C-1.26771484 15.86312241 -1.25417969 14.85515106 -1.24023438 13.81663513 C-1.22347656 12.87481888 -1.20671875 11.93300262 -1.18945312 10.96264648 C-1.17692505 10.14569809 -1.16439697 9.32874969 -1.15148926 8.48704529 C-0.97791307 5.63739215 -0.46934836 2.81609016 0 0 Z " fill="#FFFDFD" transform="translate(127,128)"/>
<path d="M0 0 C28.51925447 -0.02202678 57.03850235 -0.0404981 85.55776322 -0.05106533 C88.92123994 -0.0523161 92.28471666 -0.05361042 95.64819336 -0.05493164 C96.31782876 -0.05519395 96.98746416 -0.05545626 97.67739154 -0.05572652 C108.53401669 -0.06008324 119.39063657 -0.06797079 130.2472586 -0.0771528 C141.37901486 -0.08648929 152.51076932 -0.0919807 163.64252955 -0.09408849 C169.89848604 -0.09539602 176.15443056 -0.09848451 182.41038322 -0.10573006 C188.29124963 -0.1124864 194.17209906 -0.11461775 200.05296898 -0.11310768 C202.21821434 -0.11338418 204.38346022 -0.11539158 206.54870224 -0.11920547 C209.49110253 -0.12413669 212.43343762 -0.12300041 215.37583923 -0.12025452 C216.24449881 -0.12316736 217.11315839 -0.1260802 218.00814098 -0.12908131 C223.88587879 -0.11412121 223.88587879 -0.11412121 225 1 C225.09881593 2.71318946 225.12798969 4.43044803 225.12939453 6.14648438 C225.13254669 7.24432251 225.13569885 8.34216064 225.13894653 9.4732666 C225.13591019 11.26540588 225.13591019 11.26540588 225.1328125 13.09375 C225.13376923 14.31074585 225.13472595 15.5277417 225.13571167 16.78161621 C225.13639372 19.36075899 225.13453772 21.93990347 225.13037109 24.51904297 C225.12502322 28.48278636 225.13031529 32.44641642 225.13671875 36.41015625 C225.13605797 38.90885442 225.13477682 41.40755252 225.1328125 43.90625 C225.13483673 45.10100952 225.13686096 46.29576904 225.13894653 47.5267334 C225.13421829 49.1734906 225.13421829 49.1734906 225.12939453 50.85351562 C225.12859894 51.8253479 225.12780334 52.79718018 225.12698364 53.79846191 C225 56 225 56 224 57 C221.11743397 57.0979454 218.25882417 57.12992191 215.37583923 57.12025452 C214.002484 57.12153615 214.002484 57.12153615 212.60138422 57.12284368 C209.50889494 57.12450129 206.41645896 57.11897254 203.32397461 57.11352539 C201.11695863 57.11324355 198.90994256 57.11340118 196.70292664 57.1139679 C190.69077275 57.11425601 184.67863863 57.10835711 178.66648936 57.10139394 C172.39106899 57.09516263 166.11564821 57.09455678 159.84022522 57.09336853 C149.30062523 57.09060884 138.76103175 57.08435333 128.22143555 57.07543945 C117.36368852 57.06626602 106.50594347 57.05918485 95.64819336 57.05493164 C94.64495693 57.05453756 94.64495693 57.05453756 93.6214531 57.05413551 C90.26629178 57.05283051 86.91113046 57.05156679 83.55596912 57.05032361 C55.70397317 57.03985772 27.85198976 57.02151142 0 57 C0 38.19 0 19.38 0 0 Z " fill="#FFFEFE" transform="translate(636,931)"/>
<path d="M0 0 C28.51925447 -0.02202678 57.03850235 -0.0404981 85.55776322 -0.05106533 C88.92123994 -0.0523161 92.28471666 -0.05361042 95.64819336 -0.05493164 C96.31782876 -0.05519395 96.98746416 -0.05545626 97.67739154 -0.05572652 C108.53401669 -0.06008324 119.39063657 -0.06797079 130.2472586 -0.0771528 C141.37901486 -0.08648929 152.51076932 -0.0919807 163.64252955 -0.09408849 C169.89848604 -0.09539602 176.15443056 -0.09848451 182.41038322 -0.10573006 C188.29124963 -0.1124864 194.17209906 -0.11461775 200.05296898 -0.11310768 C202.21821434 -0.11338418 204.38346022 -0.11539158 206.54870224 -0.11920547 C209.49110253 -0.12413669 212.43343762 -0.12300041 215.37583923 -0.12025452 C216.24449881 -0.12316736 217.11315839 -0.1260802 218.00814098 -0.12908131 C223.88587879 -0.11412121 223.88587879 -0.11412121 225 1 C225.09881593 2.71318946 225.12798969 4.43044803 225.12939453 6.14648438 C225.13254669 7.24432251 225.13569885 8.34216064 225.13894653 9.4732666 C225.13591019 11.26540588 225.13591019 11.26540588 225.1328125 13.09375 C225.13376923 14.31074585 225.13472595 15.5277417 225.13571167 16.78161621 C225.13639372 19.36075899 225.13453772 21.93990347 225.13037109 24.51904297 C225.12502322 28.48278636 225.13031529 32.44641642 225.13671875 36.41015625 C225.13605797 38.90885442 225.13477682 41.40755252 225.1328125 43.90625 C225.13483673 45.10100952 225.13686096 46.29576904 225.13894653 47.5267334 C225.13421829 49.1734906 225.13421829 49.1734906 225.12939453 50.85351562 C225.12859894 51.8253479 225.12780334 52.79718018 225.12698364 53.79846191 C225 56 225 56 224 57 C221.11743397 57.0979454 218.25882417 57.12992191 215.37583923 57.12025452 C214.002484 57.12153615 214.002484 57.12153615 212.60138422 57.12284368 C209.50889494 57.12450129 206.41645896 57.11897254 203.32397461 57.11352539 C201.11695863 57.11324355 198.90994256 57.11340118 196.70292664 57.1139679 C190.69077275 57.11425601 184.67863863 57.10835711 178.66648936 57.10139394 C172.39106899 57.09516263 166.11564821 57.09455678 159.84022522 57.09336853 C149.30062523 57.09060884 138.76103175 57.08435333 128.22143555 57.07543945 C117.36368852 57.06626602 106.50594347 57.05918485 95.64819336 57.05493164 C94.64495693 57.05453756 94.64495693 57.05453756 93.6214531 57.05413551 C90.26629178 57.05283051 86.91113046 57.05156679 83.55596912 57.05032361 C55.70397317 57.03985772 27.85198976 57.02151142 0 57 C0 38.19 0 19.38 0 0 Z " fill="#FFFEFE" transform="translate(636,836)"/>
<path d="M0 0 C6.33332059 5.41561224 9.64669839 11.81562916 11 20 C11.10325162 21.98517163 11.15806542 23.97317275 11.17700195 25.9609375 C11.19625481 27.72932983 11.19625481 27.72932983 11.21589661 29.53344727 C11.22328354 30.80115967 11.23067047 32.06887207 11.23828125 33.375 C11.246353 34.69105225 11.25442474 36.00710449 11.26274109 37.36303711 C11.27773544 40.15038927 11.2875864 42.93771632 11.29516602 45.72509766 C11.30616911 49.26072515 11.34050976 52.79571263 11.38033772 56.33111572 C11.40675363 59.08014931 11.41488005 61.82903677 11.41844749 64.57818604 C11.42556458 66.50387624 11.45189912 68.42946552 11.47883606 70.35498047 C11.45366349 80.71585388 9.93950758 91.83587344 3 100 C1.06324565 101.78410376 -0.91207094 103.38660027 -3 105 C-2.02546875 105.87011719 -2.02546875 105.87011719 -1.03125 106.7578125 C-0.1959375 107.53898437 0.639375 108.32015625 1.5 109.125 C2.75296875 110.27355469 2.75296875 110.27355469 4.03125 111.4453125 C6.46794127 114.60720951 6.49351374 116.09301623 6 120 C5.2155826 122.79215241 4.11294451 125.3103841 3 128 C-1.0789334 126.61854306 -3.75576617 124.76017412 -6.9375 121.875 C-7.81792969 121.07707031 -8.69835937 120.27914062 -9.60546875 119.45703125 C-11.77259452 117.23334102 -13.18427311 115.21405606 -14.75 112.5625 C-16.74018414 109.69030243 -17.66461371 109.08216964 -21.125 108.234375 C-23.56311828 107.95062848 -26.00493798 107.69721003 -28.44921875 107.47265625 C-35.07776757 106.59030817 -40.03405266 103.83773338 -44.875 99.3125 C-49.70659699 91.78089293 -52.10126031 84.04672234 -52.16113281 75.11499023 C-52.17074036 73.95285507 -52.1803479 72.79071991 -52.19024658 71.59336853 C-52.19449646 70.34439285 -52.19874634 69.09541718 -52.203125 67.80859375 C-52.21167511 65.86425194 -52.21167511 65.86425194 -52.22039795 63.88063049 C-52.2308832 61.13615531 -52.23674089 58.39170917 -52.24023438 55.6472168 C-52.24569004 52.16317168 -52.26966487 48.6795231 -52.29820633 45.19560146 C-52.32154229 41.83744157 -52.32329698 38.47933034 -52.328125 35.12109375 C-52.3404718 33.88628769 -52.3528186 32.65148163 -52.36553955 31.3792572 C-52.33580462 19.64618151 -51.11385077 9.5942551 -42.5625 1.0703125 C-31.11798989 -8.17601427 -12.13560796 -7.76528856 0 0 Z " fill="#FFFDFD" transform="translate(501,311)"/>
<path d="M0 0 C45.2032241 0 45.2032241 0 54.484375 9.22265625 C61.57597336 17.53883474 61.3092946 29.17620262 61.30078125 39.55078125 C61.30506638 40.72658249 61.3093515 41.90238373 61.31376648 43.11381531 C61.31948089 45.58880981 61.3200315 48.0638211 61.31567383 50.53881836 C61.31251796 54.29114954 61.3359968 58.04268809 61.36132812 61.79492188 C61.36360206 64.21354069 61.36430418 66.63216159 61.36328125 69.05078125 C61.372491 70.15537186 61.38170074 71.25996246 61.39118958 72.39802551 C61.32520046 83.71139733 60.10963963 94.57764933 52 103 C51.278125 103.763125 50.55625 104.52625 49.8125 105.3125 C35.46965569 113.91820659 14.53072378 110 0 110 C0 73.7 0 37.4 0 0 Z " fill="#FFFAF9" transform="translate(598,128)"/>
<path d="M0 0 C45.77777778 0 45.77777778 0 56.3125 10.25 C62.07509439 19.64089456 62.42622121 30.5818557 60.37890625 41.23046875 C58.25107299 48.08682036 54.6862031 51.79847444 49 56 C50.37010598 63.549221 52.26638225 70.87632679 54.375 78.25 C54.68445557 79.34666992 54.99391113 80.44333984 55.31274414 81.57324219 C56.6330198 86.24376482 57.96572589 90.90982328 59.34765625 95.5625 C59.88712891 97.3878125 59.88712891 97.3878125 60.4375 99.25 C60.74558594 100.26578125 61.05367187 101.2815625 61.37109375 102.328125 C62 105 62 105 62 110 C55.4 110 48.8 110 42 110 C41.62488281 108.56011719 41.24976563 107.12023437 40.86328125 105.63671875 C40.61795654 104.69578369 40.37263184 103.75484863 40.11987305 102.78540039 C39.57776299 100.70531739 39.03626761 98.62507409 38.49536133 96.54467773 C37.19043142 91.53229059 35.8768993 86.52295966 34.5234375 81.5234375 C34.29744873 80.68337158 34.07145996 79.84330566 33.83862305 78.9777832 C33.41738425 77.41523524 32.99203752 75.85378644 32.56176758 74.29370117 C31.2837497 69.53427888 30.51406223 64.90293759 30 60 C27.03 60 24.06 60 21 60 C21 76.5 21 93 21 110 C14.07 110 7.14 110 0 110 C0 73.7 0 37.4 0 0 Z " fill="#FFFAF9" transform="translate(729,128)"/>
<path d="M0 0 C4.95 0 9.9 0 15 0 C15.96679688 2.25972656 16.93359375 4.51945313 17.9296875 6.84765625 C18.9060943 9.12856605 19.88272527 11.40937975 20.859375 13.69018555 C21.51878671 15.23045082 22.17797919 16.77080997 22.83691406 18.3112793 C28.5060286 31.56392474 34.25247357 44.78068922 40 58 C40.33 38.86 40.66 19.72 41 0 C46.61 0 52.22 0 58 0 C58 36.3 58 72.6 58 110 C53.38 110 48.76 110 44 110 C41.9012805 105.04731922 39.80598841 100.09320493 37.71337891 95.13793945 C37.00655477 93.46537602 36.29891908 91.79315523 35.59033203 90.12133789 C29.52994308 75.82003378 23.77066192 61.42665479 18 47 C17.67 67.79 17.34 88.58 17 110 C11.39 110 5.78 110 0 110 C0 73.7 0 37.4 0 0 Z " fill="#FFFBFB" transform="translate(525,128)"/>
<path d="M0 0 C6.6 0 13.2 0 20 0 C20.01981934 2.57377441 20.03963867 5.14754883 20.06005859 7.79931641 C20.12700571 16.3090151 20.20464474 24.81859214 20.28752708 33.3281498 C20.33744418 38.48680565 20.38377472 43.64544148 20.421875 48.80419922 C20.45878561 53.7839323 20.50516142 58.76349599 20.55806351 63.74308395 C20.57657673 65.6416158 20.59169601 67.54018392 20.60334396 69.43877029 C20.62025894 72.10079493 20.64930668 74.76243424 20.68115234 77.42431641 C20.68331253 78.20690826 20.68547272 78.98950012 20.68769836 79.79580688 C20.76644665 84.95845499 21.26211277 89.56076955 24.31640625 93.84765625 C27.75293089 96.19980189 32.03510745 95.59148397 36 95 C39.34868519 92.71309304 40.22627804 90.86058361 41 87 C41.11794672 84.17924316 41.18500129 81.38109242 41.20532227 78.55957031 C41.21522186 77.71042557 41.22512146 76.86128082 41.23532104 75.98640442 C41.26687247 73.18367284 41.29166835 70.38092432 41.31640625 67.578125 C41.33698126 65.63327599 41.35797788 63.6884314 41.37937927 61.74359131 C41.43454338 56.62757955 41.48397763 51.51152781 41.53222656 46.39544678 C41.58248291 41.17375129 41.6381474 35.95211378 41.69335938 30.73046875 C41.80087173 20.48702688 41.90183226 10.24353569 42 0 C48.6 0 55.2 0 62 0 C62.0907766 10.84082076 62.16398866 21.68138442 62.20724869 32.52250099 C62.22802313 37.55778885 62.25615292 42.59280065 62.30175781 47.62792969 C62.34558055 52.49739629 62.36921314 57.36659926 62.37950897 62.23624802 C62.38683554 64.08358274 62.40114037 65.9309049 62.42292023 67.77812576 C62.71320795 93.44561196 62.71320795 93.44561196 54.75 103.625 C47.93851348 110.43648652 40.56377949 111.98598704 31.1875 112.1875 C22.16796536 112.08691039 15.12546455 110.93702835 8.40625 104.46484375 C0.93956018 96.43083191 -0.16313086 87.1848331 -0.11352539 76.51611328 C-0.11367142 75.68618362 -0.11381744 74.85625397 -0.1139679 74.00117493 C-0.11327453 71.27419365 -0.10550923 68.54728176 -0.09765625 65.8203125 C-0.09579002 63.92316729 -0.09436709 62.0260216 -0.09336853 60.12887573 C-0.08955948 55.14765074 -0.07974301 50.16645513 -0.06866455 45.1852417 C-0.05841572 40.09745684 -0.05386348 35.00966722 -0.04882812 29.921875 C-0.03811925 19.94790171 -0.02053555 9.9739579 0 0 Z " fill="#FFFBFA" transform="translate(525,307)"/>
<path d="M0 0 C6.13061035 5.01595392 8.85993156 10.71065096 10.375 18.4375 C10.8632578 23.40145432 10.81157703 28.26226026 10.75 33.25 C4.15 33.25 -2.45 33.25 -9.25 33.25 C-9.625 25.5 -9.625 25.5 -9.72802734 23.07910156 C-9.93406419 19.37789671 -10.13633626 16.35832903 -12.25 13.25 C-15.2457868 10.94554862 -18.55913879 10.77604415 -22.28125 10.859375 C-25.67127675 11.53199936 -27.21848242 13.60287104 -29.25 16.25 C-30.31530157 19.4459047 -30.39601992 21.77912279 -30.42700195 25.13916016 C-30.43983719 26.35117096 -30.45267242 27.56318176 -30.46589661 28.81192017 C-30.47328354 30.12437714 -30.48067047 31.43683411 -30.48828125 32.7890625 C-30.49235678 33.45909679 -30.4964323 34.12913109 -30.50063133 34.81946945 C-30.52148104 38.37004027 -30.53578414 41.92057265 -30.54516602 45.47119141 C-30.55619287 49.11936046 -30.59055153 52.76691324 -30.63033772 56.41486549 C-30.65662954 59.23579961 -30.66486915 62.05659012 -30.66844749 64.87763596 C-30.67562249 66.86997962 -30.70201234 68.86222463 -30.72883606 70.85440063 C-30.71188775 77.9853497 -30.34501565 84.18743718 -26.25 90.25 C-23.92404054 91.41297973 -22.46276769 91.41600691 -19.875 91.4375 C-19.10414063 91.45167969 -18.33328125 91.46585937 -17.5390625 91.48046875 C-14.80888506 91.2055874 -13.4597807 90.90960896 -11.25 89.25 C-8.19958056 83.82625651 -7.73572824 78.9546786 -7.5625 72.8125 C-7.52833984 71.98556641 -7.49417969 71.15863281 -7.45898438 70.30664062 C-7.37731379 68.28821056 -7.31196276 66.26913116 -7.25 64.25 C-11.21 64.25 -15.17 64.25 -19.25 64.25 C-19.25 59.63 -19.25 55.01 -19.25 50.25 C-9.35 50.25 0.55 50.25 10.75 50.25 C10.75 68.73 10.75 87.21 10.75 106.25 C6.46 106.25 2.17 106.25 -2.25 106.25 C-2.91 103.28 -3.57 100.31 -4.25 97.25 C-4.8275 98.178125 -5.405 99.10625 -6 100.0625 C-9.4066864 104.88863907 -12.49086328 106.8887495 -18.25 108.25 C-25.89420939 109.05655438 -32.59908259 108.27913939 -39.25 104.25 C-46.62213192 97.99357387 -50.38122103 89.76588052 -51.25 80.25 C-51.40550792 75.89849951 -51.41394555 71.5492868 -51.41796875 67.1953125 C-51.42129715 65.93919159 -51.42462555 64.68307068 -51.42805481 63.3888855 C-51.43310621 60.73789919 -51.43589765 58.08701551 -51.43530273 55.43603516 C-51.43520121 52.06169655 -51.44885581 48.68756882 -51.46607494 45.31328011 C-51.47995505 42.06563246 -51.47928583 38.81798575 -51.48046875 35.5703125 C-51.48765427 34.37004425 -51.49483978 33.169776 -51.50224304 31.93313599 C-51.47451883 21.67899023 -50.66191156 11.25120859 -43.4921875 3.30078125 C-31.52602857 -7.8910968 -13.89999358 -7.48461193 0 0 Z " fill="#FFFCFB" transform="translate(443.25,131.75)"/>
<path d="M0 0 C6.93 0 13.86 0 21 0 C22.28721503 4.50525262 23.42389358 8.7557305 24.32519531 13.31713867 C24.68632416 15.13280586 24.68632416 15.13280586 25.05474854 16.9851532 C25.18043465 17.6243186 25.30612076 18.263484 25.43561554 18.92201805 C25.83798583 20.96811209 26.24399075 23.01345777 26.65081787 25.05867004 C27.52047915 29.43430242 28.38534859 33.8108754 29.25 38.1875 C30.23735669 43.18183352 31.2263442 48.17583919 32.21864319 53.16919327 C32.49999442 54.58519469 32.78103074 56.00125872 33.06175232 57.4173851 C34.55836678 64.95993156 36.08755609 72.49290362 37.72460938 80.00634766 C37.99964294 81.26989578 38.27467651 82.53344391 38.55804443 83.83528137 C39.07385177 86.18667567 39.59480607 88.53694987 40.12213135 90.88578796 C41.52743822 97.26706249 42.48257653 103.48431101 43 110 C36.73 110 30.46 110 24 110 C22.68 101.75 21.36 93.5 20 85 C13.73 85 7.46 85 1 85 C0.896875 86.52625 0.79375 88.0525 0.6875 89.625 C0.07212475 96.56607089 -1.45408675 103.21142444 -3 110 C-9.27 110 -15.54 110 -22 110 C-20.61275322 101.45637283 -19.06346063 92.96071922 -17.390625 84.46875 C-17.1413324 83.19817749 -16.89203979 81.92760498 -16.63519287 80.61853027 C-16.10854333 77.93572376 -15.5805978 75.25317634 -15.05175781 72.57080078 C-14.52254596 69.88594229 -13.99517149 67.20073495 -13.46972656 64.51513672 C-9.25016276 42.9492344 -4.76712886 21.45207986 0 0 Z " fill="#FFFCFC" transform="translate(618,307)"/>
<path d="M0 0 C1.22244667 0.00333092 1.22244667 0.00333092 2.46958923 0.00672913 C3.39046829 0.00680466 4.31134735 0.00688019 5.26013184 0.00695801 C6.2611644 0.01211929 7.26219696 0.01728058 8.29356384 0.02259827 C9.31316696 0.02401321 10.33277008 0.02542816 11.38327026 0.02688599 C14.65417867 0.03250355 17.92501972 0.04505902 21.19590759 0.05775452 C23.40749515 0.06276725 25.61908377 0.06733055 27.83067322 0.07142639 C33.26494413 0.08247869 38.69916443 0.09975508 44.13340759 0.12025452 C44.13340759 5.07025452 44.13340759 10.02025452 44.13340759 15.12025452 C35.55340759 15.12025452 26.97340759 15.12025452 18.13340759 15.12025452 C18.13340759 25.35025452 18.13340759 35.58025452 18.13340759 46.12025452 C24.73340759 46.12025452 31.33340759 46.12025452 38.13340759 46.12025452 C38.13340759 51.07025452 38.13340759 56.02025452 38.13340759 61.12025452 C31.53340759 61.12025452 24.93340759 61.12025452 18.13340759 61.12025452 C18.13340759 72.67025452 18.13340759 84.22025452 18.13340759 96.12025452 C26.71340759 96.12025452 35.29340759 96.12025452 44.13340759 96.12025452 C44.13340759 100.74025452 44.13340759 105.36025452 44.13340759 110.12025452 C28.62340759 110.12025452 13.11340759 110.12025452 -2.86659241 110.12025452 C-2.88914053 95.92569069 -2.90750581 81.73113866 -2.91840458 67.53656101 C-2.92363413 60.94620666 -2.93073308 54.35586515 -2.94203186 47.76551819 C-2.95285819 41.41133434 -2.9588687 35.05716287 -2.96146965 28.7029705 C-2.96332436 26.27275841 -2.96694584 23.84254702 -2.97232246 21.41234016 C-2.97952951 18.0214247 -2.98058349 14.63056111 -2.9801178 11.23963928 C-2.98371307 10.22400406 -2.98730835 9.20836884 -2.99101257 8.16195679 C-2.98963791 7.24343933 -2.98826324 6.32492187 -2.98684692 5.37857056 C-2.98776872 4.57568887 -2.98869051 3.77280718 -2.98964024 2.94559574 C-2.82025513 0.43286863 -2.51159333 0.16180846 0 0 Z " fill="#FFF7F7" transform="translate(395.86659240722656,306.87974548339844)"/>
<path d="M0 0 C15.51 0 31.02 0 47 0 C47 4.95 47 9.9 47 15 C38.42 15 29.84 15 21 15 C21 25.23 21 35.46 21 46 C27.6 46 34.2 46 41 46 C41 50.62 41 55.24 41 60 C34.4 60 27.8 60 21 60 C21 71.88 21 83.76 21 96 C29.58 96 38.16 96 47 96 C47 100.62 47 105.24 47 110 C31.49 110 15.98 110 0 110 C0 73.7 0 37.4 0 0 Z " fill="#FFF8F8" transform="translate(672,128)"/>
<path d="M0 0 C15.51 0 31.02 0 47 0 C47 4.95 47 9.9 47 15 C38.42 15 29.84 15 21 15 C21 25.23 21 35.46 21 46 C27.6 46 34.2 46 41 46 C41 50.62 41 55.24 41 60 C34.4 60 27.8 60 21 60 C21 71.88 21 83.76 21 96 C29.58 96 38.16 96 47 96 C47 100.62 47 105.24 47 110 C31.49 110 15.98 110 0 110 C0 73.7 0 37.4 0 0 Z " fill="#FFF9F8" transform="translate(468,128)"/>
<path d="M0 0 C0.74886475 0.00523682 1.49772949 0.01047363 2.26928711 0.01586914 C3.07817383 0.0190918 3.88706055 0.02231445 4.72045898 0.02563477 C5.5705957 0.03401367 6.42073242 0.04239258 7.29663086 0.05102539 C8.15063477 0.05553711 9.00463867 0.06004883 9.88452148 0.06469727 C12.00108749 0.07652166 14.11761771 0.0944577 16.23413086 0.11352539 C14.80648073 7.43840631 12.50627851 14.17937015 9.91772461 21.16821289 C-0.87388563 51.17852672 -7.73582385 77.80626811 -5.76586914 110.11352539 C-12.03586914 110.11352539 -18.30586914 110.11352539 -24.76586914 110.11352539 C-24.68723633 107.45032227 -24.60860352 104.78711914 -24.52758789 102.04321289 C-24.10543164 77.80391064 -27.31678656 58.0448404 -36.25967407 35.55755615 C-39.08854434 28.43338468 -41.37989259 21.2057244 -43.57836914 13.86352539 C-43.90909424 12.78578857 -44.23981934 11.70805176 -44.58056641 10.59765625 C-46.76586914 3.40439299 -46.76586914 3.40439299 -46.76586914 1.11352539 C-40.49586914 1.11352539 -34.22586914 1.11352539 -27.76586914 1.11352539 C-24.0500879 12.76415937 -20.34299355 24.41687705 -16.71118164 36.09399414 C-16.0811759 38.10636786 -15.4326941 40.11305052 -14.76586914 42.11352539 C-14.48614258 41.08098633 -14.20641602 40.04844727 -13.91821289 38.98461914 C-11.4097933 29.80163146 -8.77215376 20.66281027 -6.01586914 11.55102539 C-5.71028076 10.53387451 -5.40469238 9.51672363 -5.08984375 8.46875 C-4.80246338 7.52523682 -4.51508301 6.58172363 -4.21899414 5.60961914 C-3.96279297 4.76584717 -3.7065918 3.9220752 -3.44262695 3.05273438 C-2.43182389 0.15633874 -2.43182389 0.15633874 0 0 Z " fill="#FFFCFC" transform="translate(860.765869140625,306.886474609375)"/>
<path d="M0 0 C18.48 0 36.96 0 56 0 C56 4.95 56 9.9 56 15 C50.39 15 44.78 15 39 15 C39 46.02 39 77.04 39 109 C32.07 109 25.14 109 18 109 C18 77.65 18 46.3 18 14 C12.06 14 6.12 14 0 14 C0 9.38 0 4.76 0 0 Z " fill="#FFF9F8" transform="translate(756,308)"/>
<path d="M0 0 C6.6 0 13.2 0 20 0 C21.88885195 1.88885195 21.12010635 4.64051759 21.12442017 7.15324402 C21.12082489 8.0379689 21.11722961 8.92269379 21.11352539 9.83422852 C21.11367142 10.76096375 21.11381744 11.68769897 21.1139679 12.64251709 C21.11326838 15.72133687 21.10547421 18.80009697 21.09765625 21.87890625 C21.09579221 24.00740018 21.09436824 26.13589453 21.09336853 28.26438904 C21.08954228 33.8786232 21.07971108 39.49283168 21.06866455 45.10705566 C21.05845273 50.83113253 21.0538714 56.55521353 21.04882812 62.27929688 C21.0380889 73.51954438 21.02049124 84.75976604 21 96 C29.58 96 38.16 96 47 96 C47 100.62 47 105.24 47 110 C31.49 110 15.98 110 0 110 C0 73.7 0 37.4 0 0 Z " fill="#FFF8F7" transform="translate(671,307)"/>
<path d="M0 0 C6.6 0 13.2 0 20 0 C20 36.3 20 72.6 20 110 C13.4 110 6.8 110 0 110 C0 73.7 0 37.4 0 0 Z " fill="#FFFEFD" transform="translate(728,307)"/>
<path d="M0 0 C3.39226607 1.69613303 5.41414406 2.84632453 7.14590454 6.25653076 C8.1149504 9.36923612 8.26754115 11.94882652 8.29052734 15.20800781 C8.3096669 17.05582855 8.3096669 17.05582855 8.32919312 18.940979 C8.33225167 20.27835939 8.33447895 21.61574191 8.3359375 22.953125 C8.34237208 24.33689509 8.34910092 25.72066385 8.35610962 27.10443115 C8.36806571 30.00275827 8.37179234 32.90096638 8.37060547 35.79931641 C8.37040275 39.49230924 8.39766211 43.18452843 8.43214989 46.87733841 C8.45451991 49.73603741 8.4584399 52.59455348 8.45738602 55.45333099 C8.46085897 57.47002374 8.48246312 59.48665938 8.50448608 61.50323486 C8.47012221 68.45328565 8.36713948 75.23798702 4 81 C-0.09123054 83.25829714 -3.24846426 83.12320258 -7.8125 82.375 C-11.16034663 80.93083087 -12.35422047 80.20012687 -14 77 C-14.94552322 73.20984663 -15.13670945 69.64320762 -15.16113281 65.74438477 C-15.17074036 64.5028212 -15.1803479 63.26125763 -15.19024658 61.98207092 C-15.19509432 60.63518458 -15.19937321 59.28829609 -15.203125 57.94140625 C-15.20595238 57.25842909 -15.20877975 56.57545193 -15.21169281 55.87177849 C-15.22664245 52.25981132 -15.23589945 48.64788369 -15.24023438 45.03588867 C-15.24572295 41.31585497 -15.26977077 37.59618654 -15.29820633 33.87626743 C-15.31687475 31.00484675 -15.32204046 28.13351351 -15.32357025 25.26203728 C-15.32658618 23.89097019 -15.33457877 22.51990426 -15.34775543 21.14889717 C-15.36490747 19.22767575 -15.36107769 17.30630217 -15.35644531 15.38500977 C-15.36009094 14.29422623 -15.36373657 13.20344269 -15.36749268 12.0796051 C-14.8467617 7.71585614 -13.24832544 4.38702826 -10.3125 1.125 C-6.88126801 -0.54424799 -3.69125078 -0.63887033 0 0 Z " fill="#FF3F26" transform="translate(484,321)"/>
<path d="M0 0 C12 0 12 0 15.6875 2.375 C19.09019913 6.23752334 19.13351172 8.11014792 19.17700195 13.19042969 C19.18983719 14.4922821 19.20267242 15.79413452 19.21589661 17.13543701 C19.22406499 18.56424581 19.23150853 19.99305891 19.23828125 21.421875 C19.24235678 22.14070107 19.2464323 22.85952713 19.25063133 23.6001358 C19.27149602 27.40659803 19.28579459 31.21302419 19.29516602 35.01953125 C19.3062168 38.94489137 19.34059933 42.86968246 19.38033772 46.79484177 C19.406531 49.81810534 19.41486033 52.84123408 19.41844749 55.86460114 C19.42330842 57.31104617 19.43490848 58.75748537 19.45348549 60.20381927 C19.47792431 62.23307053 19.47448748 64.2625988 19.4699707 66.29199219 C19.47877007 68.02168243 19.47877007 68.02168243 19.48774719 69.78631592 C18.88806397 73.73752762 17.48346744 75.90328063 15 79 C9.77226763 81.67465377 6.29858264 81 0 81 C0 54.27 0 27.54 0 0 Z " fill="#FF3B22" transform="translate(619,143)"/>
<path d="M0 0 C13.0504451 0 13.0504451 0 18 4 C21.42374516 9.34960182 21.84681387 14.74880098 21 21 C19.72874477 25.66126916 18.23572506 29.00539203 14.4375 32.0625 C11 33 11 33 0 33 C0 22.11 0 11.22 0 0 Z " fill="#FF3D25" transform="translate(750,142)"/>
<path d="M0 0 C2.30547203 3.45820804 2.82789151 6.54815382 3.5078125 10.5546875 C3.70333206 11.66253098 3.70333206 11.66253098 3.90280151 12.79275513 C4.17672564 14.35391871 4.44716143 15.91569783 4.71435547 17.47802734 C5.12254088 19.86064586 5.54278143 22.24089865 5.96484375 24.62109375 C6.2298869 26.14049954 6.49423275 27.66002716 6.7578125 29.1796875 C6.88278107 29.88817841 7.00774963 30.59666931 7.13650513 31.32662964 C7.75784689 34.99252953 8 38.24892997 8 42 C3.38 42 -1.24 42 -6 42 C-6.13176388 36.40003503 -5.71466735 31.27870765 -4.6875 25.78125 C-4.55432373 25.03790405 -4.42114746 24.29455811 -4.28393555 23.52868652 C-3.86244511 21.18456262 -3.43140336 18.84231758 -3 16.5 C-2.71030069 14.89855257 -2.42123233 13.29699086 -2.1328125 11.6953125 C-1.42915513 7.79551723 -0.71693403 3.8973754 0 0 Z " fill="#FF442D" transform="translate(628,337)"/>
</svg>
