<?xml version="1.0" encoding="UTF-8"?>
<svg version="1.1" xmlns="http://www.w3.org/2000/svg" width="1500" height="1500">
<path d="M0 0 C495 0 990 0 1500 0 C1500 495 1500 990 1500 1500 C1005 1500 510 1500 0 1500 C0 1005 0 510 0 0 Z " fill="#FCC30B" transform="translate(0,0)"/>
<path d="M0 0 C0.81001465 0.18191895 1.6200293 0.36383789 2.45458984 0.55126953 C41.55894485 9.68841158 77.71211058 29.20043775 106.31396484 57.34472656 C107.92997251 58.93125016 109.56539761 60.49475495 111.20703125 62.0546875 C118.57647424 69.13556797 124.92932381 76.78811631 131 85 C131.74765625 86.00289062 132.4953125 87.00578125 133.265625 88.0390625 C165.84616124 133.39398166 180.8851041 191.45006477 172.69921875 246.9375 C172.47343118 248.29290043 172.23985258 249.64701771 172 251 C171.8551416 251.81984375 171.7102832 252.6396875 171.56103516 253.484375 C169.82044107 263.07982132 167.95869978 272.69775047 165 282 C164.79068848 282.66837891 164.58137695 283.33675781 164.36572266 284.02539062 C155.88719223 310.72960428 143.00494698 335.5074418 125 357 C124.50854492 357.59296875 124.01708984 358.1859375 123.51074219 358.796875 C113.92399354 370.33796404 103.82557414 380.70847746 92 390 C90.50339844 391.20462891 90.50339844 391.20462891 88.9765625 392.43359375 C43.63989011 428.55716368 -15.19690123 443.8872832 -72.59033203 438.23022461 C-129.02991107 431.7569795 -183.69287971 402.70693791 -219.41992188 358.23242188 C-234.13047835 339.58119618 -246.24260418 319.09954593 -255 297 C-255.41765625 295.97648437 -255.8353125 294.95296875 -256.265625 293.8984375 C-275.98280363 242.60881461 -274.27597524 180.03032501 -252.03857422 129.82958984 C-250.14933102 125.78282526 -248.1117428 121.8242984 -246.00292969 117.88818359 C-245.00918961 116.01730099 -244.05188135 114.13153305 -243.1015625 112.23828125 C-233.54504275 93.42204331 -220.4695033 77.26356141 -206 62 C-205.52691406 61.49823242 -205.05382812 60.99646484 -204.56640625 60.47949219 C-180.21289105 34.82250294 -147.74002966 15.41576728 -114 5 C-112.92709717 4.66790527 -112.92709717 4.66790527 -111.83251953 4.32910156 C-106.2719637 2.65095465 -100.6699355 1.25636435 -95 0 C-93.67137939 -0.29849854 -93.67137939 -0.29849854 -92.31591797 -0.60302734 C-62.8267473 -6.9077511 -29.39046389 -6.67940141 0 0 Z " fill="#FEFEFE" transform="translate(798,735)"/>
<path d="M0 0 C0.24774368 6.01369202 0.42888752 12.02440145 0.54931641 18.04199219 C0.59952135 20.08711485 0.66770538 22.13188002 0.75439453 24.17578125 C1.45891251 41.21682785 1.45891251 41.21682785 -2.08813477 45.55224609 C-4.68636769 47.07703861 -7.14777252 48.05384426 -10 49 C-26.49850417 61.85425626 -37.34996671 79.09718636 -40 100 C-41.17455406 121.84218803 -36.35613989 142.40614992 -21.625 159.1875 C-20.10054078 160.80802796 -18.55974685 162.41340725 -17 164 C-16.38511719 164.62777344 -15.77023437 165.25554687 -15.13671875 165.90234375 C0.05575308 180.24898203 19.27958957 184.54442813 39.578125 184.28515625 C46.78448475 184.03427004 53.18915167 182.38586081 60 180 C61.36318359 179.54947266 61.36318359 179.54947266 62.75390625 179.08984375 C82.0256416 172.12306618 94.94284167 157.42932316 103.5625 139.33203125 C111.30262209 121.39093304 111.03857092 100.69190772 104.74609375 82.34375 C97.89708609 65.17457548 85.59662224 51.29831112 69 43 C69 28.81 69 14.62 69 0 C75.46423772 1.93927132 81.05083332 3.67559571 86.9375 6.6875 C87.96544678 7.20969116 87.96544678 7.20969116 89.01416016 7.74243164 C99.19942439 13.04989239 107.66921011 20.15756676 116 28 C116.60328125 28.53882813 117.2065625 29.07765625 117.828125 29.6328125 C138.30535592 48.6747235 148.91618353 77.68861092 150.21484375 105.0703125 C151.17469787 135.75720415 140.18729553 165.26722471 119.24609375 187.66015625 C118.13427734 188.81837891 118.13427734 188.81837891 117 190 C116.26910156 190.78246094 115.53820312 191.56492187 114.78515625 192.37109375 C109.64845193 197.72446047 104.27175716 202.04587384 98 206 C96.97261719 206.64839844 95.94523438 207.29679687 94.88671875 207.96484375 C68.41901973 223.86988549 37.13347577 229.40580827 7 222 C-25.13924159 213.35971509 -50.51367721 192.72516645 -67.09130859 164.11669922 C-76.63628441 147.25607301 -80.17731075 129.63268616 -80.1875 110.375 C-80.19974609 109.18003906 -80.21199219 107.98507812 -80.22460938 106.75390625 C-80.27597893 75.14450438 -66.93786692 48.22652306 -45 26 C-34.66882069 15.65023943 -15.30779887 0 0 0 Z " fill="#FCC30C" transform="translate(716,841)"/>
<path d="M0 0 C43.56 0 87.12 0 132 0 C132 42.43231389 132 42.43231389 127.875 55.6875 C127.45257793 57.18116032 127.03548452 58.67633625 126.62329102 60.17285156 C125.81090206 63.11145135 124.9799628 66.04355459 124.13232422 68.97216797 C122.50176097 74.67803955 121.21626453 80.45685717 119.9375 86.25 C117.7401718 95.972541 115.37104576 105.64703247 112.9375 115.3125 C110.08173376 126.65584517 107.29739044 138.01215217 104.61523438 149.39794922 C103.46371536 154.26814352 102.2937277 159.13391197 101.125 164 C100.87532471 165.03987061 100.62564941 166.07974121 100.3684082 167.15112305 C98.438267 175.18532818 96.50139353 183.21790311 94.5625 191.25 C94.27076904 192.45889893 93.97903809 193.66779785 93.6784668 194.91333008 C92.19300021 201.06682344 90.70454083 207.21957007 89.2109375 213.37109375 C86.39425514 224.98430142 83.6100755 236.60269822 80.9375 248.25 C78.88365426 257.19456711 76.80834868 266.1335542 74.6875 275.0625 C74.43282959 276.1462793 74.17815918 277.23005859 73.91577148 278.34667969 C73.67930908 279.33700195 73.44284668 280.32732422 73.19921875 281.34765625 C72.99127686 282.22429932 72.78333496 283.10094238 72.5690918 284.00415039 C72 286 72 286 71 287 C69.34261557 287.09346915 67.68125356 287.11744977 66.02124023 287.11352539 C64.96021591 287.11344986 63.89919159 287.11337433 62.80601501 287.11329651 C61.07479149 287.10555458 61.07479149 287.10555458 59.30859375 287.09765625 C58.13361832 287.0962413 56.95864288 287.09482635 55.74806213 287.09336853 C51.97784936 287.08774992 48.20769496 287.07519426 44.4375 287.0625 C41.88867273 287.0574874 39.33984453 287.05292408 36.79101562 287.04882812 C30.52732367 287.03777444 24.26366601 287.02101821 18 287 C19.00316823 278.5012929 19.00316823 278.5012929 19.98828125 274.40234375 C20.19388672 273.54261963 20.39949219 272.68289551 20.61132812 271.79711914 C20.84271484 270.85344482 21.07410156 269.90977051 21.3125 268.9375 C21.68858398 267.38373657 21.68858398 267.38373657 22.07226562 265.79858398 C25.20340054 252.98117217 28.52142533 240.21023978 31.80447388 227.43112183 C34.99680076 214.99703598 38.10790512 202.5630361 40.9140625 190.03540039 C42.9219735 181.1407976 45.21343281 172.32683574 47.52160645 163.50683594 C49.82317028 154.70160656 51.99756313 145.87893712 54 137 C56.3042495 126.78280579 58.86650822 116.6468229 61.51950073 106.51626587 C63.53799995 98.7993432 65.49014769 91.07526957 67.24633789 83.29370117 C70.47658106 69.02091569 74.17884787 55.19285076 78 41 C52.26 41 26.52 41 0 41 C0 27.47 0 13.94 0 0 Z " fill="#FEFEFD" transform="translate(121,129)"/>
<path d="M0 0 C8.18606777 6.91267945 11.17273612 16.132711 12.09713745 26.59716797 C12.22146779 30.00584644 12.25465864 33.40158845 12.24609375 36.8125 C12.2513356 38.05443115 12.25657745 39.2963623 12.26197815 40.57592773 C12.26836082 43.18439999 12.26711052 45.79290118 12.25854492 48.40136719 C12.25002267 52.36445865 12.27887274 56.3261124 12.31054688 60.2890625 C12.31215902 62.83854124 12.3115811 65.3880225 12.30859375 67.9375 C12.31982773 69.10659912 12.33106171 70.27569824 12.34263611 71.48022461 C12.25905888 81.47252587 10.35436117 91.48628507 3.8125 99.375 C-3.72000613 106.57272808 -11.82346987 108.70564917 -22.0859375 108.52734375 C-30.41775186 107.92336464 -38.5577535 105.47223442 -44.4375 99.3125 C-49.76472896 92.60628806 -52.2889218 83.3399039 -52.34863281 74.87890625 C-52.35824036 73.77675781 -52.3678479 72.67460937 -52.37774658 71.5390625 C-52.38199646 70.35054688 -52.38624634 69.16203125 -52.390625 67.9375 C-52.39632507 66.70644531 -52.40202515 65.47539062 -52.40789795 64.20703125 C-52.4173474 61.59782774 -52.42388171 58.9886123 -52.42773438 56.37939453 C-52.43425378 52.41812903 -52.46840169 48.4572376 -52.5 44.49609375 C-52.50653492 41.95573223 -52.51178347 39.41536702 -52.515625 36.875 C-52.5279718 35.70267822 -52.5403186 34.53035645 -52.55303955 33.32250977 C-52.5244489 22.58240438 -51.17565316 11.93911649 -44.1875 3.375 C-32.34867544 -7.85670535 -13.73855303 -7.00396821 0 0 Z " fill="#FEFDFA" transform="translate(598.1875,131.625)"/>
<path d="M0 0 C43.88888889 0 43.88888889 0 53 8 C57.76380519 14.21830034 60.2407278 20.39016642 60.2746582 28.28979492 C60.28895622 30.12781929 60.28895622 30.12781929 60.30354309 32.00297546 C60.30263168 33.31554825 60.30172028 34.62812103 60.30078125 35.98046875 C60.3046751 37.35801826 60.30901118 38.73556659 60.31376648 40.1131134 C60.32121066 42.99707939 60.32095199 45.88092295 60.31567383 48.76489258 C60.30990227 52.43175528 60.32676223 56.09810906 60.3500185 59.76488781 C60.36487304 62.61079257 60.36561143 65.45657835 60.36250877 68.30251503 C60.36326131 70.30246335 60.37704812 72.3023934 60.39118958 74.30229187 C60.34020149 84.46186398 59.48114734 94.17376869 52.80859375 102.27734375 C38.88466331 115.53966194 17.20918922 110 0 110 C0 73.7 0 37.4 0 0 Z " fill="#FEFEFD" transform="translate(694,128)"/>
<path d="M0 0 C41.83783784 0 41.83783784 0 51.5625 6.3125 C60.15132514 15.78223028 60.30648484 26.19738218 60.265625 38.46875 C60.26849518 40.38198059 60.26849518 40.38198059 60.27142334 42.3338623 C60.27277923 45.02007878 60.27014434 47.70592652 60.26074219 50.39208984 C60.24934877 53.81123271 60.25591942 57.23006143 60.26788712 60.64919281 C60.27690875 63.94322264 60.27056662 67.23721604 60.265625 70.53125 C60.26967346 71.74711792 60.27372192 72.96298584 60.27789307 74.21569824 C60.22279535 84.27939315 59.35044715 93.77995649 53 102 C38.79695959 114.9068406 17.46299746 110 0 110 C0 73.7 0 37.4 0 0 Z " fill="#FEFEFD" transform="translate(1183,128)"/>
<path d="M0 0 C43.8 0 43.8 0 52 7 C59.12669943 14.22651315 59.43562777 20.81090395 59.43823242 30.46459961 C59.30447077 36.91403271 58.63963732 42.15863932 54 47 C50.09090909 50 50.09090909 50 47 50 C47 50.66 47 51.32 47 52 C47.845625 52.165 48.69125 52.33 49.5625 52.5 C55.55798794 55.11621292 59.53575305 60.06398764 61.9375 66.125 C65.26178991 78.19632775 62.66703276 89.38385503 57.375 100.375 C52.5992055 105.65350972 46.92351303 108.61529739 40 110 C26.8 110 13.6 110 0 110 C0 73.7 0 37.4 0 0 Z " fill="#FEFDFA" transform="translate(832,128)"/>
<path d="M0 0 C44.82608696 0 44.82608696 0 54 8 C60.1307713 14.28797057 61.06816517 21.56974375 61.25 30.0625 C61.10356905 37.74524371 60.01831358 46.08931982 54.25 51.703125 C52.53301516 53.18471676 50.78176837 54.59793418 49 56 C50.3416154 63.11723586 51.97210802 70.12105507 53.8125 77.125 C54.07240723 78.12257324 54.33231445 79.12014648 54.60009766 80.14794922 C56.52996879 87.45984686 58.70793389 94.65316184 61.1171875 101.8203125 C62 105 62 105 62 110 C55.4 110 48.8 110 42 110 C39.35693396 100.13933056 36.75774526 90.26829606 34.19482422 80.38647461 C32.51158131 73.91077456 30.7742037 67.45136499 29 61 C26.36 60.67 23.72 60.34 21 60 C21 76.5 21 93 21 110 C14.07 110 7.14 110 0 110 C0 73.7 0 37.4 0 0 Z " fill="#FEFDF8" transform="translate(621,128)"/>
<path d="M0 0 C43.25641026 0 43.25641026 0 52.5 6.4375 C58.7316504 12.82494166 60.38444966 20.09079327 60.3125 28.875 C60.30621582 29.9266333 60.30621582 29.9266333 60.29980469 30.99951172 C60.12223019 39.16227155 58.18042265 45.60065437 53 52 C50.25 53.875 50.25 53.875 48 55 C48.6157312 58.97727084 49.41149314 62.82414389 50.453125 66.7109375 C50.74050537 67.78375977 51.02788574 68.85658203 51.32397461 69.96191406 C51.62956299 71.08823242 51.93515137 72.21455078 52.25 73.375 C52.56138916 74.53225586 52.87277832 75.68951172 53.19360352 76.88183594 C55.29316516 84.61167264 57.57742645 92.2441242 60.15234375 99.828125 C61 103 61 103 61 109 C54.4 109 47.8 109 41 109 C40.61328125 107.44152344 40.2265625 105.88304687 39.828125 104.27734375 C35.39603004 85.3787108 35.39603004 85.3787108 29.8984375 66.78125 C29.00159262 64.00493021 28.82977774 61.89377839 29 59 C26.03 59 23.06 59 20 59 C20 75.5 20 92 20 109 C13.4 109 6.8 109 0 109 C0 73.03 0 37.06 0 0 Z " fill="#FEFEFD" transform="translate(904,308)"/>
<path d="M0 0 C5.61 0 11.22 0 17 0 C17 36.3 17 72.6 17 110 C12.38 110 7.76 110 3 110 C2.45585449 108.67983887 1.91170898 107.35967773 1.35107422 105.99951172 C-0.69433452 101.03784503 -2.74102922 96.07670963 -4.78808594 91.11572266 C-5.66896328 88.98044766 -6.54950537 86.84503432 -7.4296875 84.70947266 C-8.70481727 81.61583394 -9.98120691 78.52271745 -11.2578125 75.4296875 C-11.64244659 74.49575165 -12.02708069 73.5618158 -12.42337036 72.59957886 C-15.54779063 65.03486603 -18.77502149 57.52494987 -22 50 C-22.33 69.8 -22.66 89.6 -23 110 C-28.61 110 -34.22 110 -40 110 C-40 74.03 -40 38.06 -40 1 C-35.38 1 -30.76 1 -26 1 C-20.98576455 11.53305408 -16.31360477 22.17622396 -11.8125 32.9375 C-10.61381485 35.80211093 -9.41142331 38.66512833 -8.20703125 41.52734375 C-7.81158867 42.47757668 -7.81158867 42.47757668 -7.40815735 43.44700623 C-5.45304404 48.09308247 -3.2674946 52.46501079 -1 57 C-0.67 38.19 -0.34 19.38 0 0 Z " fill="#FEFEFC" transform="translate(662,307)"/>
<path d="M0 0 C4.69596849 2.67935299 7.49837836 6.38928409 9.625 11.3125 C9.88506222 13.42216873 9.88506222 13.42216873 9.89915466 15.72589111 C9.91411736 17.04202644 9.91411736 17.04202644 9.92938232 18.38475037 C9.930047 19.33962845 9.93071167 20.29450653 9.93139648 21.27832031 C9.93972 22.29017899 9.94804352 23.30203766 9.95661926 24.34455872 C9.98073534 27.69328652 9.98949404 31.04181953 9.99609375 34.390625 C10.00505983 36.71986957 10.01418167 39.04911355 10.02345276 41.37835693 C10.03995038 46.2641337 10.04764412 51.14984189 10.05053711 56.03564453 C10.05591733 62.28797216 10.09358007 68.53965262 10.13928127 74.79179764 C10.16906628 79.60459733 10.17626102 84.41724159 10.17726326 89.23012543 C10.18146373 91.53456329 10.19389094 93.83900169 10.21478081 96.14334869 C10.2417197 99.37241252 10.23686098 102.59998169 10.22436523 105.82910156 C10.23919952 106.77588272 10.25403381 107.72266388 10.26931763 108.69813538 C10.19933808 115.06779033 8.79032932 119.41672266 4.625 124.3125 C-0.68811931 128.45673306 -5.03696034 129.79635134 -11.671875 129.71875 C-16.4055476 129.007331 -20.01352505 126.65435545 -23.375 123.3125 C-27.46682958 117.47831525 -27.96126425 113.05028519 -27.92431641 106.02197266 C-27.93453827 105.0112822 -27.94476013 104.00059174 -27.95529175 102.95927429 C-27.98300131 99.63146006 -27.98117671 96.30447811 -27.9765625 92.9765625 C-27.98434114 90.65399876 -27.99301146 88.33143786 -28.00253296 86.00888062 C-28.01743974 81.14514944 -28.01688799 76.28170866 -28.00634766 71.41796875 C-27.99476228 65.1981486 -28.02861687 58.97952038 -28.075037 52.75989723 C-28.10456255 47.96417338 -28.10624827 43.16873489 -28.10001755 38.37293625 C-28.1010415 36.08049535 -28.11147058 33.78803796 -28.13164139 31.49568558 C-28.1564367 28.28361794 -28.14275278 25.07384979 -28.11962891 21.86181641 C-28.13491638 20.92334366 -28.15020386 19.98487091 -28.16595459 19.01795959 C-28.05588849 12.0685853 -25.92719533 7.55848034 -21.375 2.3125 C-15.20527281 -3.01606106 -7.32128966 -3.3402532 0 0 Z " fill="#FEFEFC" transform="translate(759.375,566.6875)"/>
<path d="M0 0 C4.31633181 3.18586395 7.91120739 6.79612218 9.625 11.9375 C9.72142379 13.35345968 9.76412487 14.77345653 9.77217102 16.19267273 C9.77932632 17.06030746 9.78648163 17.9279422 9.79385376 18.8218689 C9.79654266 19.77099152 9.79923157 20.72011414 9.80200195 21.69799805 C9.81185875 23.20093666 9.81185875 23.20093666 9.82191467 24.73423767 C9.84165284 28.05589878 9.85331214 31.37751463 9.86328125 34.69921875 C9.86735678 35.83386881 9.8714323 36.96851887 9.87563133 38.13755226 C9.89649536 44.14435265 9.91079505 50.15113019 9.92016602 56.15795898 C9.93122451 62.35751379 9.96561742 68.55670908 10.00533772 74.75613689 C10.03150515 79.52688761 10.03985805 84.29755274 10.04344749 89.06836891 C10.04831394 91.35326373 10.0599295 93.63815471 10.07848549 95.92297935 C10.10287634 99.12561746 10.10191149 102.32732642 10.0949707 105.5300293 C10.10778076 106.46903076 10.12059082 107.40803223 10.13378906 108.37548828 C10.08031668 115.16547268 8.69564758 120.82723116 3.80859375 125.77734375 C2.94427734 126.32068359 2.94427734 126.32068359 2.0625 126.875 C1.19431641 127.44541016 1.19431641 127.44541016 0.30859375 128.02734375 C-4.12882942 130.42622913 -8.46917367 130.37657568 -13.375 129.9375 C-19.20886502 128.07066319 -22.83692118 123.77189971 -26.375 118.9375 C-27.29314132 116.18307605 -27.50789751 114.52339402 -27.52890015 111.68232727 C-27.53750061 110.81469254 -27.54610107 109.9470578 -27.55496216 109.0531311 C-27.55922211 108.10400848 -27.56348206 107.15488586 -27.56787109 106.17700195 C-27.57604858 105.17504288 -27.58422607 104.1730838 -27.59265137 103.14076233 C-27.61749856 99.81910805 -27.63402059 96.49749651 -27.6484375 93.17578125 C-27.65376118 92.04113119 -27.65908485 90.90648113 -27.66456985 89.73744774 C-27.69129972 83.73065237 -27.71067435 77.72387776 -27.72509766 71.71704102 C-27.74173635 65.51740382 -27.78650877 59.31829913 -27.8374691 53.11886311 C-27.87115188 48.348113 -27.88267632 43.57748908 -27.88832474 38.80663109 C-27.89503529 36.52171959 -27.91025211 34.23681633 -27.93421555 31.95202065 C-27.9658879 28.74923152 -27.96590007 25.54787579 -27.95849609 22.3449707 C-27.97490143 21.40596924 -27.99130676 20.46696777 -28.00820923 19.49951172 C-27.94000833 12.27042257 -25.7997931 7.49822499 -20.78914452 2.28870106 C-15.0884133 -2.92774336 -6.94055153 -2.18498845 0 0 Z " fill="#FEFEFC" transform="translate(759.375,1206.0625)"/>
<path d="M0 0 C1.51844513 -0.01292336 1.51844513 -0.01292336 3.06756592 -0.02610779 C6.40020618 -0.04873448 9.73200328 -0.04203447 13.06469727 -0.03295898 C15.38965606 -0.0381961 17.71461272 -0.04447291 20.03956604 -0.05174255 C24.90750135 -0.0621408 29.77514423 -0.05759342 34.64306641 -0.04296875 C40.87183207 -0.02578469 47.09967495 -0.04927567 53.32833767 -0.08445835 C58.12830177 -0.10645118 62.92804574 -0.10498615 67.72804451 -0.09669304 C70.0240893 -0.09587452 72.32015041 -0.10271889 74.61614799 -0.11746407 C77.83060794 -0.13494336 81.04341798 -0.12033757 84.2578125 -0.09765625 C85.19988052 -0.10934845 86.14194855 -0.12104065 87.11256409 -0.13308716 C93.50802015 -0.04157784 97.7309963 1.44982049 102.69360352 5.53344727 C107.34130343 10.65783435 108.06583895 13.85031347 107.95922852 20.64672852 C107.47340891 25.92644451 105.83362098 29.62908068 101.84281445 33.18043423 C95.88762118 37.43084232 91.45296064 38.39322057 84.22021484 38.26220703 C82.71114311 38.27074959 82.71114311 38.27074959 81.17158508 38.27946472 C77.8722033 38.29050839 74.57483795 38.25860064 71.27563477 38.22485352 C68.97116834 38.22127358 66.66669747 38.21991959 64.36222839 38.22068787 C59.54475292 38.21600737 54.7279507 38.19124468 49.91064453 38.15087891 C43.74018993 38.09982446 37.57047193 38.08843917 31.39983082 38.09071445 C26.64626555 38.08989836 21.89286082 38.0734403 17.13934898 38.05171013 C14.86400249 38.04217591 12.58863786 38.03625394 10.31327248 38.03402901 C7.13480307 38.02751529 3.9571106 38.00123702 0.77880859 37.96923828 C-0.15795715 37.97059784 -1.0947229 37.9719574 -2.05987549 37.97335815 C-8.71797618 37.8754738 -13.74128779 36.55292589 -18.55639648 31.65844727 C-22.93768152 26.95602092 -23.89006134 22.52047741 -23.74780273 16.16625977 C-22.96268986 11.48337411 -20.62414099 7.87066972 -17.30639648 4.53344727 C-11.46581368 0.4338238 -7.03695104 -0.04864174 0 0 Z " fill="#FEFEFC" transform="translate(388.306396484375,931.466552734375)"/>
<path d="M0 0 C1.01244278 -0.0087616 2.02488556 -0.01752319 3.06800842 -0.02655029 C6.39539176 -0.04845269 9.72143263 -0.0340232 13.04882812 -0.01708984 C15.37235772 -0.02046058 17.6958856 -0.02531535 20.01940918 -0.03158569 C24.88143759 -0.03894466 29.7430057 -0.02828234 34.60498047 -0.00488281 C40.8259012 0.02360359 47.04574326 0.00719449 53.26662445 -0.02274513 C58.06231765 -0.04084403 62.85775664 -0.03504802 67.65345764 -0.02210617 C69.94670236 -0.01877936 72.23997043 -0.02283359 74.53318787 -0.03450394 C77.74279599 -0.04725469 80.95067627 -0.02777458 84.16015625 0 C85.57090172 -0.01518173 85.57090172 -0.01518173 87.01014709 -0.03067017 C93.35261976 0.07061089 97.70118288 1.50675397 102.58007812 5.64697266 C107.12865568 11.47848235 108.40208482 16.40157082 107.58007812 23.64697266 C105.92465053 29.24152013 103.09094534 32.56522248 98.26367188 35.73681641 C95.2399517 37.37144936 92.71727303 37.77403903 89.34941101 37.78741455 C88.05624466 37.79597977 88.05624466 37.79597977 86.73695374 37.80471802 C85.32258278 37.80639481 85.32258278 37.80639481 83.87963867 37.80810547 C82.88422058 37.81307037 81.88880249 37.81803528 80.86322021 37.82315063 C77.56440544 37.83777657 74.26563877 37.84457505 70.96679688 37.85009766 C68.67617288 37.85584881 66.38554889 37.86160655 64.09492493 37.86737061 C59.28894832 37.87788186 54.48298844 37.8837237 49.67700195 37.88720703 C43.51991347 37.89269155 37.36304615 37.91671835 31.20602703 37.94517899 C26.47310236 37.96380631 21.74023095 37.96901103 17.00727272 37.97054291 C14.73748376 37.97356981 12.46769574 37.98159958 10.19794273 37.99472809 C7.02135793 38.01178994 3.84531326 38.00990777 0.66870117 38.00341797 C-0.26814011 38.01263275 -1.20498138 38.02184753 -2.17021179 38.03134155 C-8.8126197 37.9888492 -13.01039092 36.77632559 -18.10742188 32.27197266 C-22.76264982 26.98765986 -24.05429393 23.49440751 -23.82617188 16.43212891 C-23.06571343 11.2186013 -20.73630492 7.61570747 -16.7432785 4.22196388 C-11.16195159 0.43691984 -6.64491053 -0.07150918 0 0 Z " fill="#FEFEFC" transform="translate(1028.419921875,931.35302734375)"/>
<path d="M0 0 C5.39150887 2.10020138 8.10128601 4.91520198 10.9375 10 C11.29827637 10.63317139 11.65905273 11.26634277 12.03076172 11.91870117 C12.87378019 13.40173873 13.7087712 14.88935559 14.53759766 16.38037109 C16.20476705 19.36680308 17.90326301 22.3341808 19.60546875 25.30078125 C22.34627581 30.07897241 25.07890139 34.86166514 27.8046875 39.6484375 C31.13892452 45.50083214 34.49418315 51.34065276 37.86450195 57.17236328 C39.11365943 59.33554237 40.359634 61.50056284 41.60229492 63.66748047 C44.54164651 68.78743819 47.51836772 73.87379468 50.60546875 78.90625 C51.1684668 79.84154541 51.73146484 80.77684082 52.31152344 81.74047852 C53.35369145 83.46913167 54.41405458 85.18702158 55.49707031 86.89038086 C59.05726641 92.85847193 60.03409432 98.08191576 59 105 C56.83445988 110.50885973 53.41455328 114.27663707 48.23828125 117.15234375 C42.7230626 119.24100422 37.15548558 118.79071543 31.75 116.5625 C24.00003989 111.95253844 19.99035103 101.63160264 15.75 94 C11.8994175 87.12583511 8.02497586 80.2736588 4 73.5 C-0.50145626 65.9151016 -4.83549882 58.24020569 -9.15722656 50.55175781 C-13.02048695 43.69268741 -16.96548954 36.88799046 -21.01757812 30.13867188 C-24.53139327 24.24664005 -25.79467546 19.80015145 -25 13 C-24.08742853 10.27877785 -22.77690441 8.24114069 -21 6 C-20.56042969 5.41734375 -20.12085938 4.8346875 -19.66796875 4.234375 C-14.39733737 -1.47658761 -7.28468409 -1.25205508 0 0 Z " fill="#FEFEFC" transform="translate(893,1169)"/>
<path d="M0 0 C4.10975674 2.38365891 7.06044896 4.91638658 8.75 9.4375 C9.61004791 16.06979254 9.91174012 22.88851317 5.75 28.4375 C0.59409225 33.26023115 -5.26021503 36.39277991 -11.4375 39.75 C-20.64158029 44.82307249 -29.72989139 50.04167077 -38.75 55.4375 C-47.7072625 60.7833188 -56.71259839 66.02535418 -65.8125 71.125 C-66.81667969 71.68896484 -67.82085937 72.25292969 -68.85546875 72.83398438 C-87.98165821 83.49258187 -87.98165821 83.49258187 -95.25 82.4375 C-101.41246756 80.31562472 -104.99640805 77.2506429 -108.328125 71.61328125 C-110.30771276 66.94111861 -110.1459237 61.08168562 -108.52734375 56.3046875 C-105.37242235 50.40357945 -100.21885234 47.27329836 -94.55078125 44.07421875 C-92.88088135 43.12663696 -92.88088135 43.12663696 -91.17724609 42.15991211 C-90.58901062 41.82877411 -90.00077515 41.49763611 -89.39471436 41.15646362 C-86.88313685 39.74254564 -84.37707484 38.3189735 -81.87054443 36.89613342 C-80.57383464 36.16022457 -79.27683499 35.42482624 -77.97955322 34.68992615 C-71.67563438 31.11791979 -65.39811561 27.50080309 -59.125 23.875 C-58.07570313 23.26970459 -57.02640625 22.66440918 -55.9453125 22.04077148 C-50.92410584 19.14336008 -45.90658915 16.23983555 -40.89727783 13.32191467 C-38.52476946 11.94051521 -36.15056064 10.56205373 -33.77618408 9.18386841 C-32.11131349 8.21588109 -30.44892774 7.24362397 -28.78662109 6.27124023 C-10.25579025 -4.48087257 -10.25579025 -4.48087257 0 0 Z " fill="#FEFEFC" transform="translate(523.25,1069.5625)"/>
<path d="M0 0 C4.53830986 1.83417315 8.67106034 4.60089176 11 9 C12.98600957 14.16362489 13.60671056 18.67983266 12 24 C11.16471042 25.7038872 10.27320722 27.38075317 9.34375 29.03515625 C8.80234375 30.00565918 8.2609375 30.97616211 7.703125 31.97607422 C7.14109375 32.97396973 6.5790625 33.97186523 6 35 C4.94750264 36.89951024 3.89541959 38.79925009 2.84375 40.69921875 C-3.51767692 52.10935199 -9.9613353 63.46382294 -16.58764648 74.72241211 C-19.87218816 80.31279858 -23.09689126 85.93117083 -26.26171875 91.58984375 C-26.98501036 92.87729753 -27.70847951 94.16465159 -28.43212891 95.4519043 C-29.4896732 97.33316776 -30.54370515 99.21592866 -31.58612061 101.10562134 C-32.54944056 102.8516056 -33.52643419 104.59002409 -34.50390625 106.328125 C-35.05892822 107.3274707 -35.6139502 108.32681641 -36.18579102 109.35644531 C-39.21410446 113.76911897 -42.89863607 116.43884071 -48 118 C-53.20221668 118.65122363 -57.61392639 118.66736877 -62.375 116.375 C-68.01387285 111.27316266 -71.01131498 107.19723429 -71.4453125 99.4765625 C-71.35946237 92.76798814 -68.26846968 87.99276074 -64.875 82.375 C-64.24335937 81.28960938 -63.61171875 80.20421875 -62.9609375 79.0859375 C-60.99300988 75.7123473 -58.99749456 72.35614631 -57 69 C-55.23433577 65.98552097 -53.47603886 62.96683678 -51.71826172 59.94775391 C-50.56940182 57.97683398 -49.41736227 56.00776418 -48.26220703 54.04052734 C-43.98660667 46.75037174 -39.85246189 39.38867168 -35.75 32 C-27.59860801 17.40908722 -27.59860801 17.40908722 -23.5625 10.6875 C-23.19801758 10.05392578 -22.83353516 9.42035156 -22.45800781 8.76757812 C-17.22686779 0.25573219 -9.48656276 -1.47205284 0 0 Z " fill="#FEFEFC" transform="translate(621,1169)"/>
<path d="M0 0 C5.4232742 2.38218586 9.10744797 5.95317718 11.77734375 11.29296875 C12.50582199 18.38667493 12.26566196 24.54277334 7.77734375 30.29296875 C2.069319 34.77752814 -4.46957375 38.24701453 -10.78515625 41.79296875 C-18.55162514 46.18952822 -26.27566057 50.65094954 -33.97265625 55.16796875 C-43.47244132 60.73501794 -53.0457019 66.15934761 -62.67480469 71.49951172 C-68.24048316 74.59227273 -73.73213703 77.7668359 -79.15087891 81.11132812 C-83.36709127 83.51604977 -87.47500182 83.89490351 -92.22265625 83.29296875 C-98.12462209 81.39435841 -101.69951846 78.31077106 -105.22265625 73.29296875 C-107.20208931 67.35466956 -107.26761782 60.64413229 -104.72265625 54.91796875 C-98.32892 48.20454569 -90.35175169 43.94939633 -82.28515625 39.54296875 C-80.03177727 38.29697314 -77.77917332 37.04957486 -75.52734375 35.80078125 C-74.43905273 35.19782227 -73.35076172 34.59486328 -72.22949219 33.97363281 C-68.42156334 31.8451997 -64.65813618 29.64982047 -60.91015625 27.41796875 C-52.12686572 22.19616158 -43.24735053 17.14418231 -34.36791992 12.08837891 C-32.66212769 11.11650635 -32.66212769 11.11650635 -30.921875 10.125 C-29.80699707 9.49198975 -28.69211914 8.85897949 -27.54345703 8.20678711 C-25.30908202 6.91908929 -23.08871007 5.60681611 -20.88232422 4.27172852 C-19.30475342 3.31931274 -19.30475342 3.31931274 -17.6953125 2.34765625 C-16.765979 1.77644043 -15.83664551 1.20522461 -14.87915039 0.61669922 C-9.83926723 -1.8946735 -5.27165948 -1.67692507 0 0 Z " fill="#FEFEFC" transform="translate(1075.22265625,749.70703125)"/>
<path d="M0 0 C8.60299759 3.22849799 12.53832183 12.80124497 16.76953125 20.2890625 C17.43045162 21.44843272 18.09200407 22.6074428 18.75415039 23.76611328 C20.12610262 26.16791029 21.49534692 28.57122078 22.86279297 30.97558594 C25.99165048 36.47095486 29.16523298 41.94050613 32.33203125 47.4140625 C38.49074135 58.07852744 44.60704752 68.7669272 50.70483398 79.46630859 C51.33977783 80.5795752 51.97472168 81.6928418 52.62890625 82.83984375 C53.18803711 83.82122314 53.74716797 84.80260254 54.32324219 85.8137207 C55.37698188 87.64139258 56.46036369 89.45226943 57.5715332 91.24560547 C59.85596715 95.20574063 59.49581707 99.10711306 58.89453125 103.5390625 C57.0722366 109.46924168 53.90694246 113.01970995 48.89453125 116.5390625 C43.27556809 118.41205022 37.72050434 118.07787423 32.08203125 116.4140625 C24.62891305 112.02987532 21.2217373 104.08603052 17.20703125 96.7265625 C15.95585805 94.46144858 14.70325033 92.19712645 13.44921875 89.93359375 C12.84045898 88.83354004 12.23169922 87.73348633 11.60449219 86.60009766 C9.40771574 82.66760435 7.13756544 78.78350059 4.83203125 74.9140625 C0.34654373 67.371344 -3.9657683 59.73600522 -8.26513672 52.0859375 C-12.09515657 45.28511677 -16.00540634 38.53808505 -20.03515625 31.85351562 C-23.66216491 25.78168031 -26.16992152 20.75073001 -25.10546875 13.5390625 C-23.18246119 7.61707332 -20.10386592 4.12486916 -15.10546875 0.5390625 C-10.75320704 -1.63706836 -4.66294882 -1.0208311 0 0 Z " fill="#FEFEFC" transform="translate(574.10546875,614.4609375)"/>
<path d="M0 0 C4.62 0 9.24 0 14 0 C23.02356082 19.86364861 31.62766402 39.85119143 40 60 C40.33 40.2 40.66 20.4 41 0 C46.28 0 51.56 0 57 0 C57 36.3 57 72.6 57 110 C52.71 110 48.42 110 44 110 C39.17393251 100.84807164 35.39526038 91.34572902 31.5625 81.75 C30.58928815 79.32147485 29.61480786 76.89347067 28.63865662 74.46612549 C28.03670548 72.96847641 27.43646095 71.47013939 26.83851624 69.97088623 C24.01198927 62.92315482 20.99452653 55.98722856 18 49 C17.67 69.13 17.34 89.26 17 110 C11.39 110 5.78 110 0 110 C0 73.7 0 37.4 0 0 Z " fill="#FEFEFD" transform="translate(1112,128)"/>
<path d="M0 0 C5.22615267 5.50121334 6.6451572 10.17032192 6.5 17.6640625 C5.57137501 23.85973236 2.26014465 28.76410243 -1 34 C-1.73048918 35.21748883 -2.45813523 36.43668749 -3.18310547 37.6574707 C-4.68895282 40.18807763 -6.20663482 42.71096523 -7.73339844 45.22900391 C-10.96420617 50.57771676 -14.04803966 56.00939122 -17.13311768 61.44299316 C-18.12357837 63.18499966 -19.11846205 64.92440426 -20.11474609 66.66308594 C-23.41686997 72.43304431 -26.68816185 78.21803846 -29.90625 84.03515625 C-30.53257324 85.16477783 -31.15889648 86.29439941 -31.80419922 87.45825195 C-32.97788816 89.58011412 -34.14657319 91.70475568 -35.30908203 93.83276367 C-45.1179737 111.56605808 -45.1179737 111.56605808 -52.8125 114.75 C-59.41917224 115.50504826 -64.11402214 115.37898729 -70 112 C-74.93298385 107.30033295 -77.13443389 103.45948707 -77.46875 96.5625 C-77.38780674 89.07075114 -74.43104566 84.20303791 -70.5 78 C-69.46752169 76.29395192 -68.43510263 74.58786538 -67.40577698 72.87991333 C-66.33101102 71.10258088 -65.24577359 69.33194399 -64.15966797 67.56152344 C-60.66025434 61.82658568 -57.37535482 55.96908938 -54.0625 50.125 C-53.06853109 48.38342689 -52.07288716 46.64281829 -51.07720947 44.90222168 C-48.28431646 40.01869537 -45.50431809 35.12811145 -42.73954773 30.22860718 C-41.30071044 27.68007091 -39.85779303 25.133856 -38.41452026 22.58782959 C-37.73256295 21.38215678 -37.05258218 20.17536339 -36.37478638 18.96734619 C-25.35525826 -0.66973864 -25.35525826 -0.66973864 -17.125 -3.6875 C-10.35325447 -4.68334493 -5.63694402 -3.79480545 0 0 Z " fill="#FEFEFD" transform="translate(945,617)"/>
<path d="M0 0 C2.18712372 1.25238413 4.35854828 2.53248201 6.515625 3.8359375 C7.69858766 4.52521329 8.88294437 5.21210149 10.06860352 5.89672852 C13.07889029 7.64226961 16.07132791 9.41615298 19.06011963 11.19818115 C21.65304426 12.73790124 24.26195645 14.24967808 26.87109375 15.76171875 C30.77110713 18.02379146 34.66353009 20.29810217 38.55078125 22.58203125 C46.70950288 27.36299716 54.93089181 32.03437293 63.15209961 36.70678711 C66.36116065 38.53369891 69.56473776 40.36974864 72.765625 42.2109375 C73.73258301 42.76241455 74.69954102 43.3138916 75.69580078 43.88208008 C76.58509277 44.39923584 77.47438477 44.9163916 78.390625 45.44921875 C79.1640625 45.89563721 79.9375 46.34205566 80.734375 46.80200195 C84.28515817 49.264931 86.3814684 52.1353653 87.765625 56.2109375 C88.66313806 62.39673827 88.51390869 68.01170529 84.765625 73.2109375 C80.14864971 77.83882763 76.54744798 80.318477 69.87109375 80.6875 C62.49092324 80.60271222 57.27460588 77.30174333 51.078125 73.5859375 C49.89266897 72.89834672 48.70595674 72.21291766 47.51806641 71.52954102 C44.49562743 69.78365869 41.48973965 68.01130412 38.48797607 66.23016357 C35.85040724 64.6693442 33.20046572 63.12998085 30.55078125 61.58984375 C27.60105284 59.87400764 24.65300007 58.15570992 21.7109375 56.42675781 C14.38938857 52.12668475 6.99804451 47.96352719 -0.421875 43.8359375 C-15.20020725 35.57842399 -15.20020725 35.57842399 -20.046875 32.7109375 C-20.98144531 32.164375 -21.91601562 31.6178125 -22.87890625 31.0546875 C-26.61670458 28.12891501 -28.74322398 24.68439055 -30.234375 20.2109375 C-30.94516029 14.13777204 -31.26876857 8.78878669 -27.609375 3.6484375 C-20.09881776 -4.71401165 -9.71512083 -5.00766856 0 0 Z " fill="#FEFEFD" transform="translate(444.234375,752.7890625)"/>
<path d="M0 0 C2.23418323 1.32637398 4.45110304 2.68214426 6.65234375 4.0625 C7.86512602 4.79322657 9.07977284 5.52086634 10.29614258 6.24560547 C12.81645773 7.75054585 15.32833085 9.26828144 17.83496094 10.79589844 C23.17288621 14.0355121 28.60145508 17.11446676 34.03182983 20.19561768 C35.7744002 21.18582734 37.51418211 22.18076687 39.25317383 23.17724609 C45.0229716 26.4795112 50.80794355 29.75069578 56.625 32.96875 C57.75462158 33.59507324 58.88424316 34.22139648 60.0480957 34.86669922 C62.16995787 36.04038816 64.29459943 37.20907319 66.42260742 38.37158203 C83.40570431 47.76551379 83.40570431 47.76551379 86.58984375 55.0625 C87.30449931 60.82441044 87.69062934 66.83376915 84.96484375 72.125 C81.67940375 76.18857053 77.92073932 79.43533582 72.58984375 80.0625 C61.74733209 80.77348437 54.0525073 75.16980299 44.90234375 69.875 C43.65989767 69.15983842 42.41721731 68.44508373 41.17431641 67.73071289 C38.59432973 66.24746189 36.01535559 64.76247185 33.43701172 63.27636719 C29.19239486 60.83161098 24.93889992 58.40256718 20.6835022 55.97663879 C16.63469655 53.66847655 12.59022479 51.35286007 8.546875 49.03515625 C4.3972762 46.65884009 0.23919678 44.29987923 -3.93365479 41.9646759 C-5.74891483 40.94733716 -7.56120813 39.92491585 -9.37255859 38.90063477 C-11.6266413 37.62726965 -13.88581902 36.36286578 -16.15087891 35.10913086 C-22.62615149 31.4324581 -26.93497361 28.30567024 -30.72265625 21.8125 C-32.22539619 15.80154025 -32.4754752 10.19204979 -29.34765625 4.6875 C-22.13748194 -5.17905432 -10.32826577 -5.48852704 0 0 Z " fill="#FEFEFD" transform="translate(1000.41015625,1070.9375)"/>
<path d="M0 0 C4.62 0 9.24 0 14 0 C18.40745251 9.27884738 22.39229901 18.6854443 26.3125 28.17822266 C28.94734935 34.53679282 31.66542311 40.8194996 34.6484375 47.0234375 C36.58290212 51.28373242 38.26229378 55.65573444 40 60 C40.33 40.53 40.66 21.06 41 1 C46.28 1 51.56 1 57 1 C57 36.97 57 72.94 57 110 C52.71 110 48.42 110 44 110 C40.49041014 103.15070781 37.33521802 96.25929042 34.42578125 89.13671875 C33.8109211 87.64420341 33.8109211 87.64420341 33.18363953 86.12153625 C31.88973359 82.97829377 30.60105939 79.83293749 29.3125 76.6875 C28.43718884 74.55910498 27.5615407 72.43084851 26.68554688 70.30273438 C20.72089436 55.80223589 20.72089436 55.80223589 18 49 C17.67 69.13 17.34 89.26 17 110 C11.39 110 5.78 110 0 110 C0 73.7 0 37.4 0 0 Z " fill="#FEFEFD" transform="translate(778,307)"/>
<path d="M0 0 C6.14682189 4.94909556 9.59444466 10.71232784 10.75 18.5234375 C10.81780195 21.14059272 10.84477108 23.7214088 10.8125 26.3359375 C10.791875 28.7078125 10.77125 31.0796875 10.75 33.5234375 C4.48 33.5234375 -1.79 33.5234375 -8.25 33.5234375 C-8.5625 26.3359375 -8.5625 26.3359375 -8.63793945 24.10083008 C-8.87749318 19.78478309 -9.66129621 16.98365005 -12.25 13.5234375 C-15.67159595 10.95724053 -19.09844133 11.01359696 -23.25 11.5234375 C-25.88016161 13.6961797 -27.72336894 15.47017538 -29.25 18.5234375 C-29.35679611 20.51299656 -29.39885906 22.50614965 -29.41113281 24.49853516 C-29.42074036 25.75389069 -29.4303479 27.00924622 -29.44024658 28.30264282 C-29.44509645 29.6809267 -29.44937482 31.05921269 -29.453125 32.4375 C-29.45887889 33.85037233 -29.4646366 35.26324464 -29.47039795 36.67611694 C-29.48091267 39.64361942 -29.48675119 42.61109479 -29.49023438 45.57861328 C-29.49569825 49.36467427 -29.51967848 53.15037181 -29.54820633 56.93631935 C-29.56692245 59.85843921 -29.57204321 62.78047345 -29.57357025 65.70264816 C-29.57658077 67.09718166 -29.58455474 68.49171424 -29.59775543 69.88618851 C-29.66357578 77.37851215 -29.70105164 83.76311509 -26.25 90.5234375 C-23.65483479 91.82102011 -21.70816973 91.65612852 -18.8125 91.6484375 C-17.84441406 91.65101563 -16.87632812 91.65359375 -15.87890625 91.65625 C-13.13982171 91.63557723 -13.13982171 91.63557723 -10.25 90.5234375 C-7.76715799 85.30440226 -7.8191148 79.8182074 -7.625 74.1484375 C-7.58632813 73.22160156 -7.54765625 72.29476562 -7.5078125 71.33984375 C-7.41412882 69.06801454 -7.33100191 66.79575422 -7.25 64.5234375 C-11.21 64.5234375 -15.17 64.5234375 -19.25 64.5234375 C-19.25 59.9034375 -19.25 55.2834375 -19.25 50.5234375 C-9.02 50.5234375 1.21 50.5234375 11.75 50.5234375 C11.75 69.0034375 11.75 87.4834375 11.75 106.5234375 C7.13 106.5234375 2.51 106.5234375 -2.25 106.5234375 C-2.25 103.5534375 -2.25 100.5834375 -2.25 97.5234375 C-2.91 97.5234375 -3.57 97.5234375 -4.25 97.5234375 C-4.476875 98.2659375 -4.70375 99.0084375 -4.9375 99.7734375 C-6.85265064 103.78613409 -9.56070147 105.71500819 -13.52734375 107.61328125 C-20.08899289 109.80677372 -27.81286339 109.50917221 -34.1875 106.8359375 C-43.06203183 102.11475146 -46.23381192 97.10748441 -49.25 87.5234375 C-51.08927763 80.24718995 -51.54514532 73.29604916 -51.515625 65.8125 C-51.51753845 64.72311127 -51.5194519 63.63372253 -51.52142334 62.51132202 C-51.52277658 60.22043627 -51.51914075 57.92954263 -51.51074219 55.63867188 C-51.50005155 52.16518603 -51.51065655 48.69221977 -51.5234375 45.21875 C-51.52211535 42.97916554 -51.51955181 40.7395814 -51.515625 38.5 C-51.51967346 37.47774323 -51.52372192 36.45548645 -51.52789307 35.4022522 C-51.46314467 25.25630212 -50.73694329 15.28616782 -45.25 6.5234375 C-44.71375 5.6365625 -44.1775 4.7496875 -43.625 3.8359375 C-32.87564192 -6.63054274 -12.46941715 -8.183055 0 0 Z " fill="#FEFDF8" transform="translate(1025.25,310.4765625)"/>
<path d="M0 0 C6.93 0 13.86 0 21 0 C22.49807921 4.49423762 23.60967056 8.56134056 24.5246582 13.16918945 C24.66322235 13.86142609 24.8017865 14.55366272 24.94454956 15.26687622 C25.40027913 17.54830067 25.85054312 19.83076729 26.30078125 22.11328125 C26.62190858 23.72640129 26.94338221 25.33945243 27.2651825 26.95243835 C28.11329673 31.20826274 28.956806 35.46498703 29.79931641 39.72192383 C30.63892903 43.9603299 31.48265401 48.1979166 32.32617188 52.43554688 C33.30890737 57.37326152 34.29089026 62.31111925 35.26882935 67.24978638 C36.69570856 74.45404836 38.12879143 81.65669668 39.59521484 88.85302734 C39.83201462 90.01916061 40.06881439 91.18529388 40.31278992 92.38676453 C40.74311678 94.50153923 41.17648855 96.61569775 41.61360168 98.7290802 C41.79936264 99.64372543 41.9851236 100.55837067 42.17651367 101.50073242 C42.33705734 102.28091232 42.49760101 103.06109222 42.66300964 103.86491394 C43 106 43 106 43 110 C37.06 110 31.12 110 25 110 C23.31104206 106.62208411 22.65313594 104.81314579 22.1484375 101.234375 C21.95507812 99.90019531 21.95507812 99.90019531 21.7578125 98.5390625 C21.63148438 97.61867188 21.50515625 96.69828125 21.375 95.75 C21.2409375 94.81414062 21.106875 93.87828125 20.96875 92.9140625 C20.63963423 90.61025208 20.31898998 88.30523427 20 86 C13.73 85.67 7.46 85.34 1 85 C1 87.31 1 89.62 1 92 C0.83787509 93.46141194 0.63701083 94.91964083 0.37890625 96.3671875 C0.24806641 97.10710937 0.11722656 97.84703125 -0.01757812 98.609375 C-0.15615234 99.35703125 -0.29472656 100.1046875 -0.4375 100.875 C-0.57220703 101.64585937 -0.70691406 102.41671875 -0.84570312 103.2109375 C-1.86624765 108.86624765 -1.86624765 108.86624765 -3 110 C-4.41570123 110.08651611 -5.835595 110.10704904 -7.25390625 110.09765625 C-8.10791016 110.09443359 -8.96191406 110.09121094 -9.84179688 110.08789062 C-10.73962891 110.07951172 -11.63746094 110.07113281 -12.5625 110.0625 C-13.46419922 110.05798828 -14.36589844 110.05347656 -15.29492188 110.04882812 C-17.53001314 110.03700225 -19.76497437 110.0205222 -22 110 C-21.39620609 104.82247784 -20.62587282 99.75108168 -19.60473633 94.63549805 C-19.4679245 93.94618195 -19.33111267 93.25686584 -19.19015503 92.54666138 C-18.74033097 90.28442796 -18.28632889 88.0230577 -17.83203125 85.76171875 C-17.51136294 84.15634959 -17.19086569 82.55094626 -16.87052917 80.94551086 C-16.19738129 77.57535593 -15.52215865 74.20562514 -14.84545898 70.83618164 C-13.9956158 66.60379428 -13.1508738 62.37040887 -12.30763435 58.13670158 C-8.43440104 38.70285443 -4.41061734 19.32018478 0 0 Z " fill="#FEFEFB" transform="translate(781,128)"/>
<path d="M0 0 C0.87454834 0.00523682 1.74909668 0.01047363 2.65014648 0.01586914 C3.50036377 0.0183667 4.35058105 0.02086426 5.2265625 0.0234375 C6.85742798 0.03709351 6.85742798 0.03709351 8.52124023 0.05102539 C10.38313596 0.06251376 12.24503394 0.07364 14.10693359 0.08447266 C15.72420247 0.0941569 17.34147135 0.10384115 18.95874023 0.11352539 C19.07878418 0.68999817 19.19882813 1.26647095 19.32250977 1.8604126 C19.909524 4.67917157 20.49663322 7.49791074 21.08374023 10.31665039 C21.30747314 11.39102356 21.53120605 12.46539673 21.76171875 13.57232666 C22.97744688 19.40880583 24.1948934 25.24491805 25.41577148 31.08032227 C26.67685576 37.10822145 27.93360098 43.13701438 29.18823242 49.16625977 C29.70047406 51.62424055 30.2141381 54.08192535 30.72924805 56.53930664 C34.46105404 74.34955225 37.85321728 92.18462685 40.95874023 110.11352539 C34.68874023 110.11352539 28.41874023 110.11352539 21.95874023 110.11352539 C20.6423349 104.18970138 19.51870896 98.53713995 18.83374023 92.55102539 C18.54499023 90.09665039 18.25624023 87.64227539 17.95874023 85.11352539 C11.68874023 85.11352539 5.41874023 85.11352539 -1.04125977 85.11352539 C-1.37125977 87.75352539 -1.70125977 90.39352539 -2.04125977 93.11352539 C-2.27793761 94.61590229 -2.52618622 96.11659433 -2.79516602 97.61352539 C-2.91448486 98.28383789 -3.03380371 98.95415039 -3.15673828 99.64477539 C-3.30425537 100.45946289 -3.45177246 101.27415039 -3.60375977 102.11352539 C-4.07813477 104.75352539 -4.55250977 107.39352539 -5.04125977 110.11352539 C-11.31125977 110.11352539 -17.58125977 110.11352539 -24.04125977 110.11352539 C-22.91608172 99.98692298 -22.91608172 99.98692298 -21.92138672 94.93652344 C-21.70057938 93.80631271 -21.47977203 92.67610199 -21.25227356 91.51164246 C-20.89452095 89.71162529 -20.89452095 89.71162529 -20.52954102 87.87524414 C-20.27883347 86.60042679 -20.02812592 85.32560944 -19.76982117 84.01216125 C-19.23836131 81.31118994 -18.70438274 78.6107332 -18.16845703 75.91064453 C-17.50004889 72.54256194 -16.83682269 69.17348725 -16.17538643 65.80402946 C-13.26365928 50.98037408 -10.2551495 36.18316092 -7.02937317 21.42399597 C-5.70857579 15.35767271 -4.50300132 9.2949679 -3.48042297 3.17070007 C-2.90198131 0.46110254 -2.78668251 0.15498234 0 0 Z " fill="#FEFEFB" transform="translate(1063.041259765625,127.886474609375)"/>
<path d="M0 0 C7.26 0 14.52 0 22 0 C30.78686523 43.93432617 30.78686523 43.93432617 31.33140373 46.65709496 C31.69177337 48.45889239 32.052182 50.26068202 32.41263008 52.06246376 C33.29723452 56.48460557 34.18118412 60.90687617 35.06369019 65.32943726 C36.57289599 72.88952133 38.08723364 80.44824473 39.63525391 88.00048828 C39.87307083 89.16701431 40.11088776 90.33354034 40.35591125 91.53541565 C40.78166951 93.62034963 41.21117912 95.7045231 41.64543152 97.78770447 C41.82793961 98.68413162 42.01044769 99.58055878 42.19848633 100.50415039 C42.35505203 101.26079483 42.51161774 102.01743927 42.67292786 102.79701233 C43.03339208 105.22491169 43.05533228 107.54898048 43 110 C40.02077407 110.02683987 37.04178705 110.04676037 34.0625 110.0625 C32.78729492 110.07506836 32.78729492 110.07506836 31.48632812 110.08789062 C30.67744141 110.09111328 29.86855469 110.09433594 29.03515625 110.09765625 C28.2862915 110.10289307 27.53742676 110.10812988 26.76586914 110.11352539 C25 110 25 110 24 109 C23.70464998 107.64951065 23.46277687 106.28719604 23.24609375 104.921875 C23.11396484 104.09042969 22.98183594 103.25898438 22.84570312 102.40234375 C22.71099609 101.52707031 22.57628906 100.65179688 22.4375 99.75 C22.29892578 98.89019531 22.16035156 98.03039062 22.01757812 97.14453125 C21.36593742 92.9778828 21 89.25559271 21 85 C14.4 85 7.8 85 1 85 C0.87625 86.5675 0.7525 88.135 0.625 89.75 C-0.81715531 105.63431062 -0.81715531 105.63431062 -3 110 C-9.27 110 -15.54 110 -22 110 C-20.53534761 100.86889059 -18.80426724 91.81362243 -16.953125 82.75390625 C-16.65630491 81.29356764 -16.35965778 79.83319387 -16.06317139 78.37278748 C-15.2848499 74.5416767 -14.50394134 70.71109765 -13.72253418 66.88061523 C-13.10194373 63.83617901 -12.48325591 60.79135773 -11.86466217 57.74651527 C-7.95205652 38.48887345 -3.99514256 19.24068771 0 0 Z " fill="#FEFEFB" transform="translate(391,128)"/>
<path d="M0 0 C7.26 0 14.52 0 22 0 C25.43782024 16.4886855 28.87367418 32.97778169 32.28786659 49.47137833 C32.9966791 52.89528772 33.7065098 56.31897919 34.41870117 59.7421875 C37.82659054 76.12601062 41.08703622 92.51931981 44 109 C37.73 109 31.46 109 25 109 C24.34 106.03 23.68 103.06 23 100 C22.79117188 99.14148438 22.58234375 98.28296875 22.3671875 97.3984375 C22.20476563 96.73070312 22.04234375 96.06296875 21.875 95.375 C21.70742188 94.70210938 21.53984375 94.02921875 21.3671875 93.3359375 C20.88357364 90.25933016 21 87.11438518 21 84 C14.73 84 8.46 84 2 84 C1.72285156 85.72089844 1.44570313 87.44179688 1.16015625 89.21484375 C0.7944831 91.45576381 0.42858616 93.69664737 0.0625 95.9375 C-0.11990234 97.07380859 -0.30230469 98.21011719 -0.49023438 99.38085938 C-0.66748047 100.46044922 -0.84472656 101.54003906 -1.02734375 102.65234375 C-1.18968506 103.65257568 -1.35202637 104.65280762 -1.51928711 105.68334961 C-2 108 -2 108 -3 109 C-4.34267413 109.08631874 -5.68974322 109.10706473 -7.03515625 109.09765625 C-7.84404297 109.09443359 -8.65292969 109.09121094 -9.48632812 109.08789062 C-10.33646484 109.07951172 -11.18660156 109.07113281 -12.0625 109.0625 C-12.91650391 109.05798828 -13.77050781 109.05347656 -14.65039062 109.04882812 C-16.76695663 109.03700373 -18.88348685 109.01906769 -21 109 C-20.32060536 99.8598775 -18.52280417 91.02231584 -16.6875 82.0625 C-16.34333572 80.36401618 -15.99959902 78.66544568 -15.65625 76.96679688 C-14.67228785 72.10607996 -13.68170046 67.24673066 -12.69036865 62.38751221 C-11.52919687 56.68985549 -10.3730485 50.99117844 -9.2162571 45.29263115 C-6.15096248 30.19370268 -3.07726717 15.09649303 0 0 Z " fill="#FEFEFC" transform="translate(570,308)"/>
<path d="M0 0 C6.54360334 4.30170793 10.49544698 9.60538555 12.59375 17.12890625 C13.19221414 21.35843649 13.10384813 25.54728102 13.0625 29.8125 C13.05798828 30.69615234 13.05347656 31.57980469 13.04882812 32.49023438 C13.03709866 34.66018559 13.01916495 36.83010172 13 39 C9.85418577 39.02888514 6.70840531 39.04675923 3.5625 39.0625 C2.66466797 39.07087891 1.76683594 39.07925781 0.84179688 39.08789062 C-0.43920898 39.09272461 -0.43920898 39.09272461 -1.74609375 39.09765625 C-2.53685303 39.10289307 -3.3276123 39.10812988 -4.14233398 39.11352539 C-6 39 -6 39 -7 38 C-7.12067971 36.4745039 -7.17952604 34.94400212 -7.2109375 33.4140625 C-7.23929687 32.48335938 -7.26765625 31.55265625 -7.296875 30.59375 C-7.34874786 28.62258122 -7.39308119 26.65119888 -7.4296875 24.6796875 C-7.460625 23.74640625 -7.4915625 22.813125 -7.5234375 21.8515625 C-7.5531665 20.56499756 -7.5531665 20.56499756 -7.58349609 19.25244141 C-8.08736099 16.5275542 -8.81513117 15.65972804 -11 14 C-14.63782632 12.78739123 -17.17735999 12.60455448 -21 13 C-24.30258057 15.57030535 -25.8189542 17.07051813 -26.62818909 21.22509766 C-26.62963173 23.05113525 -26.62963173 23.05113525 -26.63110352 24.9140625 C-26.63825882 25.58951111 -26.64541412 26.26495972 -26.65278625 26.96087646 C-26.66962922 29.18294918 -26.65030039 31.40299145 -26.62890625 33.625 C-26.62973537 35.17529466 -26.6321964 36.72558923 -26.63621521 38.27587891 C-26.63907015 41.52077785 -26.62440289 44.76498538 -26.59692383 48.00976562 C-26.56284056 52.16283732 -26.56886157 56.31467309 -26.5875864 60.46780396 C-26.59817033 63.66782884 -26.58920613 66.86756762 -26.57420158 70.06756592 C-26.56902947 71.59852244 -26.5694898 73.12950895 -26.57574654 74.66046143 C-26.58121604 76.80293702 -26.5607727 78.94366164 -26.53344727 81.0859375 C-26.52724869 82.3032959 -26.52105011 83.5206543 -26.5146637 84.77490234 C-25.90378694 88.60291123 -24.68940445 90.26082119 -22 93 C-19.17998673 94.41000664 -17.12992745 94.24548451 -14 94 C-11.1798125 92.80873468 -11.1798125 92.80873468 -9 91 C-8.04831317 88.14493951 -7.8099054 86.09062718 -7.68359375 83.11328125 C-7.62075195 81.7065918 -7.62075195 81.7065918 -7.55664062 80.27148438 C-7.51732422 79.29501953 -7.47800781 78.31855469 -7.4375 77.3125 C-7.37272461 75.83040039 -7.37272461 75.83040039 -7.30664062 74.31835938 C-7.20058458 71.87907028 -7.09979026 69.43955346 -7 67 C-0.4 67 6.2 67 13 67 C13.54259184 92.68268066 13.54259184 92.68268066 6 102 C-1.20658523 109.00640231 -10.8842151 110.36803515 -20.5390625 110.28125 C-27.29367707 109.73234227 -34.58762225 107.46500256 -39.65625 102.75 C-45.38961918 95.28328665 -48.09017693 87.22869051 -48.17700195 77.93139648 C-48.18983719 76.72921982 -48.20267242 75.52704315 -48.21589661 74.28843689 C-48.22328354 72.99571365 -48.23067047 71.70299042 -48.23828125 70.37109375 C-48.24235678 69.70663805 -48.2464323 69.04218235 -48.25063133 68.35759163 C-48.27144456 64.83597253 -48.28576298 61.31439177 -48.29516602 57.79272461 C-48.30618127 54.18750277 -48.34053693 50.5829065 -48.38033772 46.97790432 C-48.40671575 44.17829893 -48.41487669 41.37883739 -48.41844749 38.57911873 C-48.42557996 36.61405194 -48.45192944 34.64908436 -48.47883606 32.68418884 C-48.45354942 22.10266569 -46.88113666 11.5308569 -39.15625 3.69140625 C-28.43837152 -4.71591509 -12.22781988 -6.08156121 0 0 Z " fill="#FEFDF9" transform="translate(421,309)"/>
<path d="M0 0 C5.19695679 2.25657334 8.20268473 5.34757207 10.890625 10.33984375 C11.55325533 13.13369779 11.55704775 15.79662041 11.50585938 18.65844727 C11.51140839 19.45937805 11.5169574 20.26030884 11.52267456 21.08551025 C11.53441587 23.71387944 11.5102554 26.34050332 11.484375 28.96875 C11.48266249 30.80525128 11.48273101 32.641755 11.48449707 34.47825623 C11.48284702 38.31899541 11.46420561 42.15914866 11.43261719 45.99975586 C11.39291263 50.91477315 11.38857721 55.82902482 11.39608002 60.7441721 C11.39915389 64.53353346 11.38701479 68.32272374 11.36994934 72.11204338 C11.36293505 73.92407088 11.3597929 75.73611777 11.36064148 77.54815865 C11.35883745 80.08267193 11.3374055 82.61627888 11.31054688 85.15063477 C11.31347748 85.89417709 11.31640808 86.63771942 11.31942749 87.40379333 C11.2287564 92.96803765 9.77102962 96.79422636 6.48828125 101.23828125 C2.79417484 104.79139123 -0.02428883 105.78601942 -5.171875 105.96484375 C-10.24951362 105.67360762 -13.36710235 104.99084146 -17.109375 101.33984375 C-23.86015306 93.59589696 -22.83725071 84.61358157 -22.7734375 74.90234375 C-22.77681015 73.09447911 -22.78166651 71.28661669 -22.78793335 69.47875977 C-22.79528351 65.69948629 -22.78465949 61.92080581 -22.76123047 58.14160156 C-22.73274351 53.31285902 -22.74915752 48.48550621 -22.77909279 43.65681458 C-22.79721627 39.92653046 -22.7913847 36.19657235 -22.77845383 32.46627808 C-22.77513374 30.68659294 -22.77915739 28.90687759 -22.79085159 27.12722778 C-22.87672483 10.38790301 -22.87672483 10.38790301 -18.50326538 4.68579102 C-13.17485071 -0.45935186 -7.14633555 -2.23653835 0 0 Z " fill="#FCC30D" transform="translate(756.109375,803.66015625)"/>
<path d="M0 0 C15.18 0 30.36 0 46 0 C46 4.95 46 9.9 46 15 C37.42 15 28.84 15 20 15 C20 25.23 20 35.46 20 46 C26.93 46 33.86 46 41 46 C41 50.62 41 55.24 41 60 C34.07 60 27.14 60 20 60 C20 71.88 20 83.76 20 96 C28.58 96 37.16 96 46 96 C46 100.62 46 105.24 46 110 C30.82 110 15.64 110 0 110 C0 73.7 0 37.4 0 0 Z " fill="#FEFEFC" transform="translate(499,307)"/>
<path d="M0 0 C15.18 0 30.36 0 46 0 C46 4.95 46 9.9 46 15 C37.42 15 28.84 15 20 15 C20 25.23 20 35.46 20 46 C26.6 46 33.2 46 40 46 C40 50.62 40 55.24 40 60 C33.4 60 26.8 60 20 60 C20 71.88 20 83.76 20 96 C28.58 96 37.16 96 46 96 C46 100.62 46 105.24 46 110 C30.82 110 15.64 110 0 110 C0 73.7 0 37.4 0 0 Z " fill="#FEFEFD" transform="translate(959,128)"/>
<path d="M0 0 C15.18 0 30.36 0 46 0 C46 4.62 46 9.24 46 14 C37.42 14 28.84 14 20 14 C20 24.23 20 34.46 20 45 C26.93 45 33.86 45 41 45 C41.09765625 55.83984375 41.09765625 55.83984375 41 59 C40 60 40 60 38.05053711 60.11352539 C37.2178833 60.10828857 36.38522949 60.10305176 35.52734375 60.09765625 C34.71773193 60.09515869 33.90812012 60.09266113 33.07397461 60.09008789 C32.03893799 60.08098389 31.00390137 60.07187988 29.9375 60.0625 C26.658125 60.041875 23.37875 60.02125 20 60 C20 71.55 20 83.1 20 95 C28.58 95 37.16 95 46 95 C46 99.62 46 104.24 46 109 C30.82 109 15.64 109 0 109 C0 73.03 0 37.06 0 0 Z " fill="#FEFEFC" transform="translate(849,308)"/>
<path d="M0 0 C15.18 0 30.36 0 46 0 C46 4.62 46 9.24 46 14 C37.42 14 28.84 14 20 14 C20 24.23 20 34.46 20 45 C26.93 45 33.86 45 41 45 C41.09765625 55.83984375 41.09765625 55.83984375 41 59 C40 60 40 60 38.05053711 60.11352539 C37.2178833 60.10828857 36.38522949 60.10305176 35.52734375 60.09765625 C34.71773193 60.09515869 33.90812012 60.09266113 33.07397461 60.09008789 C32.03893799 60.08098389 31.00390137 60.07187988 29.9375 60.0625 C26.658125 60.041875 23.37875 60.02125 20 60 C20 71.55 20 83.1 20 95 C28.58 95 37.16 95 46 95 C46 99.62 46 104.24 46 109 C30.82 109 15.64 109 0 109 C0 73.03 0 37.06 0 0 Z " fill="#FEFEFC" transform="translate(723,308)"/>
<path d="M0 0 C6.27 0 12.54 0 19 0 C21.1875 7 21.1875 7 21.921875 9.35351562 C23.06587203 13.01918903 24.21481475 16.68316549 25.375 20.34375 C25.59518799 21.04113281 25.81537598 21.73851562 26.04223633 22.45703125 C26.655571 24.39890963 27.27108519 26.34009922 27.88671875 28.28125 C29.05013761 32.16747722 30.0450515 36.05811213 31 40 C33.34043693 36.4893446 34.19877635 33.0244894 35.25 29 C37.87440443 19.23210945 40.9095398 9.63073644 44 0 C50.27 0 56.54 0 63 0 C60.72262768 7.59845707 60.72262768 7.59845707 59.59521484 11.32226562 C58.8538764 13.77134236 58.11499919 16.22102868 57.38360596 18.6730957 C54.89739611 27.00709985 52.4146159 35.26256184 49.078125 43.30078125 C40.21994604 64.96978025 40.64336792 85.89233888 41 109 C34.4 109 27.8 109 21 109 C21.06574219 104.66681641 21.06574219 104.66681641 21.1328125 100.24609375 C21.29323838 77.34527022 19.91443215 58.11973643 11.43896484 36.72509766 C9.09124348 30.64747082 7.07862642 24.46186045 5.04464722 18.27365112 C4.38999621 16.29531804 3.72189109 14.32207311 3.04907227 12.34985352 C2.44857056 10.5756604 2.44857056 10.5756604 1.8359375 8.765625 C1.48063965 7.72180664 1.1253418 6.67798828 0.75927734 5.60253906 C0 3 0 3 0 0 Z " fill="#FEFEFB" transform="translate(1042,308)"/>
<path d="M0 0 C15.18 0 30.36 0 46 0 C46 4.95 46 9.9 46 15 C37.75 15 29.5 15 21 15 C21 25.23 21 35.46 21 46 C27.6 46 34.2 46 41 46 C41 50.62 41 55.24 41 60 C34.4 60 27.8 60 21 60 C21 76.5 21 93 21 110 C14.07 110 7.14 110 0 110 C0 73.7 0 37.4 0 0 Z " fill="#FEFCF6" transform="translate(442,128)"/>
<path d="M0 0 C15.18 0 30.36 0 46 0 C46 4.62 46 9.24 46 14 C45 15 45 15 42.68334961 15.11352539 C41.68311768 15.10828857 40.68288574 15.10305176 39.65234375 15.09765625 C38.68031006 15.09515869 37.70827637 15.09266113 36.70678711 15.09008789 C35.46292236 15.08098389 34.21905762 15.07187988 32.9375 15.0625 C28.998125 15.041875 25.05875 15.02125 21 15 C21 25.23 21 35.46 21 46 C27.27 46 33.54 46 40 46 C40 50.62 40 55.24 40 60 C33.4 60 26.8 60 20 60 C20 76.5 20 93 20 110 C13.4 110 6.8 110 0 110 C0 73.7 0 37.4 0 0 Z " fill="#FEFDF8" transform="translate(495,128)"/>
<path d="M0 0 C6.6 0 13.2 0 20 0 C20 31.68 20 63.36 20 96 C28.58 96 37.16 96 46 96 C46 100.62 46 105.24 46 110 C30.82 110 15.64 110 0 110 C0 73.7 0 37.4 0 0 Z " fill="#FEFEFD" transform="translate(445,307)"/>
<path d="M0 0 C6.6 0 13.2 0 20 0 C20 31.68 20 63.36 20 96 C28.58 96 37.16 96 46 96 C46 100.62 46 105.24 46 110 C30.82 110 15.64 110 0 110 C0 73.7 0 37.4 0 0 Z " fill="#FEFEFD" transform="translate(905,128)"/>
<path d="M0 0 C2.88019898 1.22561659 4.40195612 2.08641268 6.11074829 4.69680786 C7.28939967 7.74955497 7.26940446 10.32875796 7.29052734 13.60107422 C7.30060318 14.58235794 7.30060318 14.58235794 7.31088257 15.58346558 C7.32984043 17.74061737 7.33378561 19.89745765 7.3359375 22.0546875 C7.34236712 23.55917487 7.3490956 25.06366099 7.35610962 26.56814575 C7.36807692 29.72042743 7.37179103 32.87259956 7.37060547 36.02490234 C7.37040234 40.05561353 7.39769992 44.08561918 7.43214989 48.11616325 C7.4544358 51.22351276 7.4584425 54.33069294 7.45738602 57.43811417 C7.45973961 58.92362015 7.4685496 60.40913098 7.48405075 61.89455795 C7.50374615 63.97691367 7.49786089 66.05775428 7.48583984 68.14013672 C7.48868988 69.32276093 7.49153992 70.50538513 7.49447632 71.72384644 C6.89497416 75.69584888 5.48199846 77.87917722 3 81 C-0.71968579 82.85984289 -4.94976192 82.5731469 -9 82 C-12.61547704 79.34373115 -14.23830491 77.35402029 -15 73 C-15.10173715 70.89320985 -15.14836241 68.78352292 -15.16113281 66.67431641 C-15.17074036 65.3926358 -15.1803479 64.1109552 -15.19024658 62.79043579 C-15.19509464 61.39414651 -15.19937345 59.99785516 -15.203125 58.6015625 C-15.20888111 57.16433715 -15.21463878 55.72711181 -15.22039795 54.28988647 C-15.23089015 51.27886601 -15.23674459 48.2678721 -15.24023438 45.25683594 C-15.24571825 41.40786317 -15.26975118 37.5592443 -15.29820633 33.71038246 C-15.3168737 30.74202462 -15.32204046 27.77375139 -15.32357025 24.80533981 C-15.3265876 23.38682494 -15.33458505 21.96831122 -15.34775543 20.54985428 C-15.36490137 18.56146555 -15.36107856 16.57292991 -15.35644531 14.58447266 C-15.36009094 13.45514313 -15.36373657 12.3258136 -15.36749268 11.16226196 C-14.94255532 7.50569048 -13.91958674 5.12795615 -12 2 C-7.95514343 -0.69657104 -4.74692804 -0.5422677 0 0 Z " fill="#FCC30C" transform="translate(582,142)"/>
<path d="M0 0 C12 0 12 0 15.625 1.625 C19.78897411 5.78897411 20.24966966 10.47865631 20.2746582 16.18554688 C20.28895622 17.98771667 20.28895622 17.98771667 20.30354309 19.82629395 C20.30263168 21.11080444 20.30172028 22.39531494 20.30078125 23.71875 C20.30467334 25.06343721 20.30900907 26.40812319 20.31376648 27.75280762 C20.32120542 30.5635986 20.32095392 33.3742639 20.31567383 36.18505859 C20.30987496 39.77618832 20.32683093 43.36680299 20.3500185 46.9578476 C20.36479057 49.73235042 20.36562298 52.50673007 20.36250877 55.28126526 C20.36326742 57.24543531 20.37710713 59.20958634 20.39118958 61.17370605 C20.38496078 62.37515259 20.37873199 63.57659912 20.37231445 64.81445312 C20.37294388 65.86669067 20.3735733 66.91892822 20.3742218 68.00305176 C19.84702401 72.22510533 18.19555961 75.49255528 15.5625 78.8125 C11.09255212 82.20966039 5.29795113 81 0 81 C0 54.27 0 27.54 0 0 Z " fill="#FCC30E" transform="translate(714,143)"/>
<path d="M0 0 C12 0 12 0 15.625 1.5625 C21.41150503 7.50128148 20.29211071 16.1148333 20.265625 23.87109375 C20.26753845 25.10739029 20.2694519 26.34368683 20.27142334 27.6174469 C20.27278111 30.22551681 20.26911321 32.83359356 20.26074219 35.44165039 C20.2500464 39.42024014 20.26064702 43.39837743 20.2734375 47.37695312 C20.27211566 49.91666766 20.26955275 52.45638191 20.265625 54.99609375 C20.26967346 56.17964951 20.27372192 57.36320526 20.27789307 58.58262634 C20.19203732 73.80796268 20.19203732 73.80796268 15.5625 78.4375 C9.88789439 81.89762537 7.69764684 81 0 81 C0 54.27 0 27.54 0 0 Z " fill="#FCC30E" transform="translate(1203,143)"/>
<path d="M0 0 C13.86206897 0 13.86206897 0 18 3 C23.67979947 8.98681566 23.28502916 14.60024322 23.21875 22.5703125 C22.88723614 27.7679762 21.90175684 31.21710296 18 34.875 C11.76399958 38.38275024 8.54522249 37 0 37 C0 24.79 0 12.58 0 0 Z " fill="#FCC514" transform="translate(852,187)"/>
<path d="M0 0 C14 0 14 0 19 4 C21.88077598 9.48719234 21.53874864 15.95772675 21 22 C19.50027657 26.27421176 17.90361026 28.68223141 14 31 C11 32 11 32 0 32 C0 21.44 0 10.88 0 0 Z " fill="#FCC30E" transform="translate(924,322)"/>
<path d="M0 0 C12.96296296 0 12.96296296 0 18 4 C20.61072929 7.58868978 20.33206061 11.61078667 20.3125 15.875 C20.32861328 16.56980469 20.34472656 17.26460937 20.36132812 17.98046875 C20.36580299 22.7327772 19.56379944 25.99855601 17 30 C10.92240746 33.72097503 7.7419577 33 0 33 C0 22.11 0 11.22 0 0 Z " fill="#FCC30D" transform="translate(642,142)"/>
<path d="M0 0 C13.96551724 0 13.96551724 0 18 3 C21.94019113 8.42366837 21.64887331 13.52880401 21 20 C19.50027657 24.27421176 17.90361026 26.68223141 14 29 C11 30 11 30 0 30 C0 20.1 0 10.2 0 0 Z " fill="#FCC30E" transform="translate(853,143)"/>
<path d="M0 0 C0.66 0.33 1.32 0.66 2 1 C3.94093564 8.30525384 4.98747881 15.78449059 6.125 23.25 C6.30675781 24.40757812 6.48851562 25.56515625 6.67578125 26.7578125 C6.84722656 27.87414062 7.01867187 28.99046875 7.1953125 30.140625 C7.35016113 31.14641602 7.50500977 32.15220703 7.66455078 33.18847656 C8 36 8 36 8 41 C3.38 41 -1.24 41 -6 41 C-5.4246971 31.56370992 -4.17969279 22.47431481 -2.4375 13.1875 C-2.20353516 11.91068359 -1.96957031 10.63386719 -1.72851562 9.31835938 C-1.15826849 6.2110944 -0.58202157 3.10507705 0 0 Z " fill="#FCC71B" transform="translate(401,159)"/>
<path d="M0 0 C0.33 0 0.66 0 1 0 C1.70265437 4.01461477 2.39588849 8.03074427 3.08129883 12.04833984 C3.31453904 13.40813508 3.55012697 14.7675302 3.78833008 16.12646484 C5.41808119 25.436375 6.46542247 34.54965233 7 44 C2.38 44 -2.24 44 -7 44 C-5.82483183 34.01107052 -4.45086313 24.06858939 -2.9375 14.125 C-2.7631543 12.96564941 -2.58880859 11.80629883 -2.40917969 10.61181641 C-2.1582959 8.98252197 -2.1582959 8.98252197 -1.90234375 7.3203125 C-1.75273193 6.34336426 -1.60312012 5.36641602 -1.44897461 4.35986328 C-1 2 -1 2 0 0 Z " fill="#FCC619" transform="translate(581,335)"/>
<path d="M0 0 C2.5012342 2.5012342 2.48775127 3.85405801 3 7.3203125 C3.1640332 8.40650879 3.32806641 9.49270508 3.49707031 10.61181641 C3.66303711 11.77116699 3.82900391 12.93051758 4 14.125 C4.17370117 15.29595215 4.34740234 16.4669043 4.52636719 17.67333984 C5.81270781 26.43517782 6.96531469 35.20517484 8 44 C3.38 44 -1.24 44 -6 44 C-5.38531557 34.08733044 -4.08100471 24.46503779 -2.4375 14.6875 C-2.20066457 13.25333889 -1.9643337 11.81909437 -1.72851562 10.38476562 C-1.15813347 6.92219989 -0.58101481 3.46079949 0 0 Z " fill="#FCC61A" transform="translate(791,156)"/>
<path d="M0 0 C0.33 0 0.66 0 1 0 C1.86210172 4.85505423 2.71632321 9.7114069 3.56347656 14.5690918 C3.85236359 16.21920545 4.14334811 17.86895339 4.43652344 19.51831055 C4.85912842 21.89797907 5.27401095 24.27888894 5.6875 26.66015625 C5.81874268 27.38960953 5.94998535 28.11906281 6.08520508 28.87062073 C6.84780722 33.31577669 7.12421268 37.48952715 7 42 C2.71 42 -1.58 42 -6 42 C-6.24705103 35.29774455 -5.30077704 29.13950778 -4.0625 22.5625 C-2.52181354 14.26634976 -2.52181354 14.26634976 -1.43359375 5.90234375 C-1 2 -1 2 0 0 Z " fill="#FCC514" transform="translate(1071,157)"/>
</svg>
