<?xml version="1.0" encoding="UTF-8"?>
<svg version="1.1" xmlns="http://www.w3.org/2000/svg" width="1500" height="1500">
<path d="M0 0 C495 0 990 0 1500 0 C1500 495 1500 990 1500 1500 C1005 1500 510 1500 0 1500 C0 1005 0 510 0 0 Z " fill="#A21942" transform="translate(0,0)"/>
<path d="M0 0 C3.49130654 1.037956 4.40667357 2.59656884 6.3125 5.6875 C6.89898561 8.90624756 6.85102474 12.07960148 6.81865788 15.34405422 C6.82477123 16.3272826 6.83088459 17.31051098 6.83718321 18.32353416 C6.8528596 21.63840959 6.8398858 24.95256137 6.8271637 28.2674408 C6.83248557 30.6598685 6.83954918 33.05229285 6.84821075 35.44471079 C6.86300148 40.65669267 6.86528151 45.86852754 6.85661316 51.08051682 C6.84375763 58.83086711 6.85369223 66.58107108 6.86811271 74.33141257 C6.89307067 88.17251673 6.89493047 102.01355257 6.88683859 115.85467267 C6.87977146 127.96773027 6.87970288 140.08076131 6.88670158 152.19381905 C6.88761291 153.81735413 6.88852367 155.44088921 6.88943387 157.06442429 C6.89081697 159.51081109 6.89220806 161.95719789 6.89362001 164.40358467 C6.90660484 187.15409638 6.91171003 209.90459917 6.9000864 232.65511227 C6.89964843 233.51308983 6.89921046 234.37106739 6.89875922 235.25504427 C6.89515223 242.22285542 6.89131754 249.19066646 6.88746829 256.15847748 C6.87261939 283.3412846 6.88140046 310.52399125 6.90942383 337.70678711 C6.9408343 368.23360798 6.95582731 398.76036937 6.94562382 429.28720671 C6.944587 432.54059286 6.94359978 435.79397902 6.9426403 439.04736519 C6.94239142 439.84845543 6.94214253 440.64954567 6.9418861 441.47491137 C6.93844249 453.58073227 6.94776568 465.68650073 6.96341133 477.79231071 C6.98115821 491.55576381 6.98134433 505.31908906 6.95805968 519.08253663 C6.94553507 526.78877619 6.94685212 534.49472225 6.96794054 542.20094475 C6.98212383 547.947979 6.97029721 553.69472082 6.94814359 559.441719 C6.94323476 561.7720761 6.94684479 564.10246917 6.95963103 566.43279635 C6.97571395 569.59078457 6.9612578 572.74718909 6.93891239 575.90510464 C6.95689991 577.27509819 6.95689991 577.27509819 6.97525081 578.67276838 C6.91322878 582.93989694 6.6560146 585.82662863 3.97393507 589.25170928 C0.60061588 592.33902848 -1.06580679 592.44100638 -5.59509277 592.44940186 C-6.27779031 592.4587618 -6.96048785 592.46812174 -7.6638732 592.47776532 C-9.94533218 592.50164737 -12.2243838 592.4827662 -14.50585938 592.46386719 C-16.14379781 592.47199974 -17.78172527 592.48268416 -19.41963196 592.49572754 C-23.86401851 592.52307494 -28.30756918 592.51247847 -32.75197029 592.49345303 C-37.4034767 592.4782597 -42.05491167 592.49235104 -46.7064209 592.50177002 C-54.5177902 592.51268523 -62.3288191 592.4983022 -70.14013672 592.46972656 C-79.17050692 592.43707278 -88.20006436 592.44764985 -97.23041487 592.480685 C-104.9843159 592.50791501 -112.73797229 592.51175415 -120.49190569 592.49605298 C-125.12272495 592.48669981 -129.75316221 592.48544856 -134.38395691 592.50527191 C-138.73782065 592.52260798 -143.09063685 592.51057722 -147.44438744 592.47590637 C-149.04193062 592.46797438 -150.63956201 592.47024911 -152.23707008 592.48348236 C-154.4192044 592.49989159 -156.59798651 592.4793165 -158.77990723 592.44940186 C-160.0003196 592.4471397 -161.22073196 592.44487755 -162.47812653 592.44254684 C-166.0916924 591.59240848 -167.38401394 590.32392161 -169.64545753 587.44337016 C-171.40243589 584.48281341 -171.31319089 581.80925202 -171.31391239 578.41505718 C-171.32088 577.70171354 -171.32784761 576.98836989 -171.33502635 576.25340977 C-171.35227611 573.8622948 -171.33390366 571.47279921 -171.31568909 569.08171082 C-171.32073411 567.35052308 -171.3279626 565.61934057 -171.33718723 563.88817006 C-171.3561433 559.13026548 -171.34385678 554.37287379 -171.3264643 549.61498201 C-171.31311093 544.48396025 -171.32852024 539.35301455 -171.34028625 534.22200012 C-171.35868354 524.16922723 -171.35013605 514.11664848 -171.33219803 504.0638816 C-171.31818082 495.89332056 -171.31427735 487.72281228 -171.3176403 479.55224037 C-171.31811775 478.3900001 -171.31859519 477.22775982 -171.3190871 476.03030014 C-171.32011342 473.66930092 -171.32116878 471.3083017 -171.32225286 468.9473025 C-171.33082445 448.06012569 -171.3141313 427.17304266 -171.28442383 406.28588867 C-171.25559649 386.01729389 -171.24849705 365.74883427 -171.26391602 345.48022461 C-171.28067885 323.4148341 -171.28471065 301.3495078 -171.26720566 279.28411561 C-171.26536126 276.93081272 -171.26352653 274.57750983 -171.26170158 272.22420692 C-171.26078949 271.06631695 -171.2598774 269.90842697 -171.25893768 268.71544942 C-171.25333194 260.55627745 -171.25663992 252.39713681 -171.26324654 244.23796654 C-171.27097999 234.29213138 -171.26422693 224.34642926 -171.2390715 214.4006209 C-171.22657556 209.32610511 -171.2204311 204.25179644 -171.23161316 199.1772728 C-171.24165926 194.53047495 -171.23318783 189.88409002 -171.21003198 185.23734239 C-171.20487577 183.55770269 -171.20642897 181.87802595 -171.21542663 180.19840243 C-171.27137517 168.80505716 -170.346032 160.060872 -162.3671875 151.34765625 C-160.02171453 149.02945622 -157.53698414 146.90267524 -155.0234375 144.76953125 C-152.12587752 142.18692344 -149.41227288 139.45009924 -146.6875 136.6875 C-143.46380458 133.42342739 -140.25228668 130.21916904 -136.75 127.25 C-133.02792332 124.0874004 -129.6188366 120.65779586 -126.1875 117.1875 C-122.17837142 113.13285194 -118.12885501 109.24771851 -113.77734375 105.55859375 C-110.96839466 103.0436655 -108.33641383 100.36914678 -105.6875 97.6875 C-102.46351619 94.42367703 -99.25232179 91.21919881 -95.75 88.25 C-92.02792332 85.0874004 -88.6188366 81.65779586 -85.1875 78.1875 C-81.17837142 74.13285194 -77.12885501 70.24771851 -72.77734375 66.55859375 C-69.96839466 64.0436655 -67.33641383 61.36914678 -64.6875 58.6875 C-61.46351619 55.42367703 -58.25232179 52.21919881 -54.75 49.25 C-51.02792332 46.0874004 -47.6188366 42.65779586 -44.1875 39.1875 C-40.17837142 35.13285194 -36.12885501 31.24771851 -31.77734375 27.55859375 C-28.96837889 25.04365138 -26.33661394 22.36897016 -23.6875 19.6875 C-19.74845984 15.70489725 -15.77580236 11.83973353 -11.4921875 8.22265625 C-10.24057918 7.15797645 -9.01798472 6.05860385 -7.8203125 4.93359375 C-3.43660028 0.87913031 -3.43660028 0.87913031 0 0 Z " fill="#FEFEFE" transform="translate(1044.6875,732.3125)"/>
<path d="M0 0 C1.66746187 1.135203 1.66746187 1.135203 3 3 C3.37834883 5.72005689 3.37834883 5.72005689 3.38311005 9.08675194 C3.39216669 10.36804777 3.40122333 11.64934359 3.41055441 12.96946657 C3.40544957 14.39959779 3.40005744 15.829728 3.39440918 17.25985718 C3.39929501 18.77268924 3.40548338 20.28551756 3.41286707 21.79833949 C3.4293291 25.96634166 3.42693601 30.13415547 3.4214921 34.30217886 C3.41882957 38.79308511 3.43333908 43.28394027 3.44558716 47.77482605 C3.46667661 56.57732062 3.47117999 65.37974938 3.46939927 74.18226622 C3.46809336 81.33509751 3.47188703 88.48790821 3.47932434 95.64073563 C3.48142346 97.6984932 3.48352106 99.75625078 3.48561716 101.81400836 C3.48666069 102.83810933 3.48770422 103.86221031 3.48877937 104.91734464 C3.50769606 124.30083635 3.50662722 143.68429025 3.49981004 163.06778736 C3.49423402 180.81166004 3.51506 198.55538835 3.54817051 216.29922728 C3.5818801 234.50498865 3.59707922 252.71068081 3.59245348 270.91647398 C3.59020596 281.14308327 3.59549312 291.36955913 3.62034607 301.59614182 C3.64132402 310.3026093 3.64498619 319.00887022 3.62604648 327.71534608 C3.61686674 332.1595595 3.6158136 336.60338743 3.63640213 341.04757118 C3.65503242 345.11395263 3.65069897 349.17963075 3.62785631 353.24598475 C3.62365029 354.71905736 3.6279375 356.19218306 3.64145225 357.66519968 C3.65854515 359.66392413 3.64195976 361.66285239 3.62361908 363.66156578 C3.62389146 364.77289985 3.62416385 365.88423392 3.62444448 367.02924478 C2.79397685 370.98014215 1.08215664 372.47896416 -2 375 C-5.34855593 376.11618531 -7.86505143 376.1314631 -11.39460754 376.14044189 C-12.37215493 376.14489858 -12.37215493 376.14489858 -13.36945075 376.1494453 C-15.55726723 376.1581298 -17.74502897 376.15964033 -19.93286133 376.16113281 C-21.49990455 376.16576117 -23.06694665 376.17078585 -24.63398743 376.17617798 C-28.89440692 376.1893024 -33.15481065 376.19574703 -37.4152472 376.20018864 C-40.07687419 376.20311932 -42.73849687 376.20722413 -45.40012169 376.21169281 C-53.72738907 376.22536791 -62.05464661 376.23503448 -70.38192445 376.2388947 C-79.99517246 376.2433755 -89.60827828 376.26092433 -99.22148305 376.2898953 C-106.6517274 376.31151041 -114.08193175 376.32159889 -121.51220721 376.32293582 C-125.95018299 376.32398398 -130.38802511 376.32989409 -134.82596779 376.34775543 C-139.00138397 376.36423316 -143.17656599 376.36639312 -147.3520031 376.35761642 C-148.88303377 376.35684589 -150.41407702 376.36119103 -151.94507599 376.37107468 C-154.03847606 376.38379458 -156.13104681 376.37791803 -158.22444153 376.36749268 C-159.39490933 376.36895924 -160.56537714 376.3704258 -161.77131367 376.3719368 C-165.46242283 375.94673002 -167.84639091 374.94307929 -171 373 C-173.33114308 369.50328538 -173.25119952 368.13649187 -173.25447559 364.00415897 C-173.26030779 362.74314682 -173.26613998 361.48213467 -173.27214891 360.18291003 C-173.26851537 358.77567183 -173.26469097 357.36843412 -173.26069641 355.9611969 C-173.2637151 354.47240362 -173.26760316 352.98361189 -173.27228898 351.49482292 C-173.28261413 347.39332873 -173.28037573 343.29192151 -173.27610838 339.19042003 C-173.27364932 334.77112236 -173.28264507 330.35184608 -173.29014587 325.93255615 C-173.30291773 317.27077419 -173.30468348 308.60902318 -173.30234561 299.94723339 C-173.30056509 292.90929137 -173.30230636 285.87135878 -173.30657005 278.83341789 C-173.30716524 277.83307385 -173.30776043 276.8327298 -173.30837366 275.8020723 C-173.30958536 273.77010282 -173.3107995 271.73813335 -173.31201603 269.70616388 C-173.32290112 250.63554953 -173.32072448 231.56495284 -173.31463119 212.49433749 C-173.30946094 195.03435351 -173.32071859 177.57442531 -173.33972941 160.11445237 C-173.35908457 142.20137621 -173.36736791 124.28832648 -173.36360615 106.37523979 C-173.3616906 96.31245873 -173.36421601 86.24972515 -173.37832069 76.18695259 C-173.39020592 67.62066692 -173.39167162 59.05445796 -173.37953053 50.48817129 C-173.37362172 46.11505459 -173.37259736 41.7420784 -173.38453293 37.36897087 C-173.39532406 33.36879329 -173.39236986 29.36887467 -173.37827124 25.36870956 C-173.37560552 23.91853592 -173.37804914 22.46834243 -173.38600711 21.01818819 C-173.3960477 19.05270823 -173.38593939 17.0871558 -173.37473011 15.12168217 C-173.37478513 14.02819495 -173.37484014 12.93470774 -173.37489682 11.80808455 C-172.95701827 8.67805455 -172.10420778 7.3048777 -170 5 C-164.13860313 5.34435707 -161.06130503 7.01748362 -157 11.0625 C-156.51789062 11.51560547 -156.03578125 11.96871094 -155.5390625 12.43554688 C-152.84121339 15.01563273 -150.35710468 17.72293809 -147.9375 20.56420898 C-143.50248036 25.65175969 -138.72991601 30.37655894 -133.9375 35.125 C-132.97748625 36.0805937 -132.01777547 37.03649184 -131.05834961 37.99267578 C-128.04173631 40.9979755 -125.02118404 43.99929612 -122 47 C-118.49329849 50.48293011 -114.98832534 53.96756502 -111.48757935 57.45648193 C-110.1011466 58.83653133 -108.71162702 60.21347744 -107.32202148 61.59033203 C-102.83232224 66.06274212 -98.48652348 70.58851497 -94.37280273 75.41064453 C-92.03437097 78.29113916 -92.03437097 78.29113916 -88.59681225 79.30965328 C-85.49025581 78.93921626 -84.62608232 78.24324914 -82.45100403 76.04554749 C-81.79071701 75.39068863 -81.13042999 74.73582977 -80.45013428 74.06112671 C-79.74189514 73.33334015 -79.03365601 72.60555359 -78.30395508 71.85571289 C-77.54565903 71.09654068 -76.78736298 70.33736847 -76.00608826 69.55519104 C-73.49868132 67.03919242 -71.00933966 64.50606137 -68.51953125 61.97265625 C-66.78385387 60.22511526 -65.04699592 58.47874609 -63.30900574 56.73350525 C-58.73352427 52.13324615 -54.17281356 47.51861967 -49.61541748 42.90045166 C-43.18403635 36.38868351 -36.73279918 29.89657657 -30.28385925 23.40220642 C-26.84767769 19.94170705 -23.41705802 16.47583275 -19.99067688 13.00563049 C-18.42975377 11.42829896 -16.86881606 9.85098188 -15.30786133 8.27368164 C-14.5935495 7.54791931 -13.87923767 6.82215698 -13.14328003 6.07440186 C-12.49145248 5.41672318 -11.83962494 4.75904449 -11.16804504 4.08143616 C-10.6011839 3.50715913 -10.03432276 2.9328821 -9.450284 2.34120274 C-6.47752331 -0.40796554 -3.93574514 -0.32128532 0 0 Z " fill="#FEFEFE" transform="translate(828,949)"/>
<path d="M0 0 C0.33 0.33 0.66 0.66 1 1 C0.43691309 9.33731903 -1.41559968 17.4630332 -3.125 25.625 C-3.44240239 27.15445557 -3.75978484 28.68391528 -4.07714844 30.21337891 C-6.29061173 40.83191904 -8.64258441 51.4151824 -11.08349609 61.98388672 C-13.0938123 70.76696157 -14.9622358 79.57371553 -16.78125 88.3984375 C-17.27566703 90.78467815 -17.77013347 93.17090856 -18.26464844 95.55712891 C-19.00759605 99.14439509 -19.74641412 102.7322738 -20.47277832 106.32293701 C-21.15427823 109.69136105 -21.84937381 113.05673376 -22.546875 116.421875 C-22.85123474 117.95719376 -22.85123474 117.95719376 -23.16174316 119.52352905 C-23.35941284 120.46548126 -23.55708252 121.40743347 -23.76074219 122.37792969 C-23.92838074 123.20153992 -24.09601929 124.02515015 -24.26873779 124.87371826 C-25.10328863 127.30033103 -25.98199999 128.43379251 -28 130 C-31.79234298 130.10400514 -33.14439082 128.87713414 -36.04614258 126.40795898 C-37.17258618 125.28088537 -38.2881749 124.14289179 -39.39453125 122.99609375 C-39.98674973 122.39821548 -40.5789682 121.80033722 -41.18913269 121.18434143 C-43.07320469 119.27792983 -44.94287154 117.35806809 -46.8125 115.4375 C-48.08956854 114.14036347 -49.36755339 112.84412838 -50.64648438 111.54882812 C-53.77504052 108.37623663 -56.89075189 105.19151172 -60 102 C-63.83685204 103.58210344 -66.25410912 106.0119061 -69.16343594 108.93410015 C-69.67306544 109.44321954 -70.18269494 109.95233893 -70.70776775 110.47688618 C-72.42215958 112.19200216 -74.12926222 113.91419545 -75.83653259 115.63639832 C-77.07342445 116.87671319 -78.31076594 118.1165798 -79.54851919 119.35603505 C-82.95477708 122.76948118 -86.35477899 126.18910056 -89.75386417 129.60968721 C-93.41825628 133.29501603 -97.08848136 136.97452686 -100.75813293 140.65461731 C-107.11790989 147.03383072 -113.47434754 153.41635569 -119.82887077 159.80080223 C-129.8667899 169.88540632 -139.91503013 179.95969124 -149.96498108 190.03230286 C-153.40121571 193.47654053 -156.83738312 196.92084527 -160.27353001 200.36517048 C-161.13225912 201.22593805 -161.99098823 202.08670562 -162.87573944 202.97355705 C-172.65254172 212.77384983 -182.42720694 222.57627283 -192.20092773 232.37963867 C-193.09453861 233.27595441 -193.98814948 234.17227015 -194.90883947 235.09574697 C-209.40246405 249.63377006 -223.8883956 264.17944007 -238.37240046 278.72704621 C-253.23145675 293.65079338 -268.10194844 308.56308095 -282.98235232 323.46554261 C-292.16746975 332.66513731 -301.34296046 341.87413072 -310.50646389 351.09525571 C-316.78139853 357.40807562 -323.06708612 363.71005115 -329.36148327 370.00346514 C-332.99711543 373.63922382 -336.62756728 377.2798043 -340.24518204 380.93349838 C-343.55283222 384.27394387 -346.87384111 387.60045681 -350.20631463 390.91613344 C-351.41343353 392.12209812 -352.61541751 393.33322761 -353.81185173 394.54979327 C-355.43139985 396.19513178 -357.06812257 397.8211476 -358.71072292 399.44342327 C-359.61798482 400.35404764 -360.52524672 401.26467201 -361.46000141 402.20289105 C-364 404 -364 404 -366.67304492 403.91155899 C-369.92638018 402.63710078 -371.76930119 400.72186544 -374.23286438 398.24815369 C-374.73532989 397.74910587 -375.2377954 397.25005806 -375.75548714 396.73588759 C-377.4355906 395.06236916 -379.1010041 393.37496233 -380.7668457 391.68725586 C-381.9686791 390.48429412 -383.17139409 389.28221259 -384.37492371 388.08094788 C-387.63973934 384.81728084 -390.89206731 381.54141955 -394.14231896 378.26325679 C-397.54111186 374.83947474 -400.95122034 371.42700171 -404.3601532 368.01332092 C-410.81373967 361.54729741 -417.25706123 355.07114421 -423.6967718 348.59130436 C-431.0286371 341.21474417 -438.37185099 333.84952613 -445.71604788 326.48524654 C-460.823375 311.33609859 -475.91636845 296.17273876 -491 281 C-496.24768459 285.38487202 -501.13499168 290.0012013 -505.95207214 294.852005 C-506.7229387 295.62413383 -507.49380525 296.39626266 -508.2880314 297.19178933 C-510.85741077 299.76652462 -513.42318619 302.34482119 -515.98901367 304.9230957 C-517.83551111 306.77478895 -519.68225301 308.62623846 -521.52922058 310.47746277 C-525.49915763 314.45708165 -529.46741458 318.43836929 -533.43468285 322.42064857 C-539.70409627 328.7134905 -545.97874449 335.00109849 -552.25422668 341.28788757 C-554.40329985 343.44096136 -556.55233894 345.59406918 -558.70136738 347.74718761 C-559.23828984 348.2851293 -559.7752123 348.82307099 -560.32840514 349.37731395 C-566.43002109 355.49065568 -572.53055606 361.60507561 -578.63061523 367.7199707 C-579.46645697 368.55784109 -579.46645697 368.55784109 -580.3191844 369.41263815 C-589.36558125 378.48125513 -598.4081409 387.55369093 -607.44975408 396.62707696 C-616.73774703 405.94742885 -626.03147093 415.26204011 -635.3301428 424.57173795 C-641.06388516 430.31271001 -646.79283577 436.05838226 -652.51575146 441.81014737 C-656.8950638 446.21065629 -661.2821211 450.60336629 -665.67215157 454.99318123 C-667.47434718 456.7978071 -669.27395023 458.60502619 -671.07080841 460.41496658 C-673.51666439 462.87789054 -675.97150074 465.33149336 -678.42887878 467.78291321 C-679.14395086 468.50740593 -679.85902294 469.23189865 -680.59576386 469.97834569 C-681.25428953 470.63151492 -681.9128152 471.28468414 -682.5912962 471.95764637 C-683.43997518 472.8088472 -683.43997518 472.8088472 -684.30579919 473.67724401 C-686.21967251 475.17151044 -687.60330148 475.68115282 -690 476 C-691.63085938 475.06298828 -691.63085938 475.06298828 -693.34375 473.4453125 C-694.38595703 472.47126465 -694.38595703 472.47126465 -695.44921875 471.47753906 C-696.29097656 470.65995117 -697.13273437 469.84236328 -698 469 C-699.0896492 467.95780436 -700.17950843 466.9158283 -701.26953125 465.87402344 C-704.39549448 462.87085828 -707.48672559 459.8342442 -710.56640625 456.78369141 C-711.86452426 455.50229158 -713.1680044 454.22630304 -714.4765625 452.95556641 C-716.38197435 451.1047169 -718.27058897 449.23812961 -720.15625 447.3671875 C-720.74361938 446.80248749 -721.33098877 446.23778748 -721.93615723 445.65597534 C-725.89441012 441.67662667 -725.89441012 441.67662667 -726.37828892 438.57590044 C-725.88798277 435.23723586 -724.76312745 434.13570335 -722.39073658 431.75873756 C-721.5856723 430.94001785 -720.78060802 430.12129813 -719.95114785 429.27776873 C-719.05185845 428.38895081 -718.15256904 427.5001329 -717.22602844 426.5843811 C-716.27157578 425.62345357 -715.31821496 424.66144052 -714.36585778 423.69843614 C-711.7415671 421.05127424 -709.10182937 418.41999931 -706.45932162 415.79103923 C-703.61383412 412.954784 -700.78273335 410.10423093 -697.94975281 407.25549316 C-692.39611562 401.67572992 -686.82892706 396.10967931 -681.25670419 390.54848273 C-676.72971082 386.03003729 -672.20742079 381.50693527 -667.68846703 376.98044968 C-667.04602683 376.3369546 -666.40358664 375.69345951 -665.74167856 375.03046458 C-664.43671528 373.72333045 -663.13175996 372.41618836 -661.82681253 371.1090384 C-649.58172654 358.84450938 -637.32095227 346.59575925 -625.05504604 334.35205786 C-614.52291668 323.83818377 -604.00545849 313.30981389 -593.49829102 302.77099609 C-581.30580744 290.54178784 -569.10355299 278.32246002 -556.88608807 266.11820543 C-555.58424651 264.81770502 -554.28242103 263.51718851 -552.9806118 262.21665573 C-552.01975677 261.2567467 -552.01975677 261.2567467 -551.03949052 260.27744556 C-546.51863527 255.7596229 -542.00498204 251.23468058 -537.49410439 246.70689774 C-531.99964328 241.19215667 -526.49478808 235.68805738 -520.97611532 230.19754107 C-518.15881034 227.39405165 -515.34660528 224.5858953 -512.54712296 221.76459885 C-509.98688627 219.18467617 -507.41333979 216.61888064 -504.82822409 214.06389432 C-503.44797113 212.69254626 -502.08252521 211.30634529 -500.71756917 209.91977084 C-499.89946616 209.11669761 -499.08136314 208.31362437 -498.23846912 207.48621559 C-497.53560679 206.7837853 -496.83274446 206.08135501 -496.10858327 205.35763896 C-494 204 -494 204 -491.39095616 204.15614009 C-488.06145473 205.33124854 -486.31060542 207.21342677 -483.83201599 209.72061157 C-483.33645629 210.2162814 -482.8408966 210.71195122 -482.33031994 211.22264135 C-480.67335365 212.88472433 -479.03113248 214.56064577 -477.38842773 216.23681641 C-476.20297619 217.43158212 -475.01660227 218.62543325 -473.82937622 219.81843567 C-471.27548873 222.38835494 -468.72790022 224.96430545 -466.1849041 227.54500198 C-462.16637726 231.62234023 -458.13214536 235.6838897 -454.0952301 239.74301147 C-444.07287113 249.82545325 -434.07165604 259.92880228 -424.07421875 270.03594971 C-416.30096176 277.89402061 -408.52211361 285.74637804 -400.72598988 293.58177125 C-396.70947383 297.61982665 -392.70508601 301.66943015 -388.70933712 305.7280314 C-386.22591008 308.24546884 -383.73222807 310.75254823 -381.23553848 313.2568264 C-380.07657785 314.42357719 -378.92195646 315.59465608 -377.77195549 316.77023888 C-376.20621861 318.36961671 -374.62595382 319.95305401 -373.04100037 321.53335571 C-372.15888602 322.4252743 -371.27677168 323.31719288 -370.3679266 324.2361393 C-368.24175763 326.21874145 -368.24175763 326.21874145 -366.13947707 325.87464231 C-363.24599849 324.69175569 -361.60991048 322.98221035 -359.40044022 320.7695837 C-358.47634299 319.85145962 -357.55224576 318.93333553 -356.60014558 317.9873895 C-355.57812445 316.9568089 -354.55624255 315.9260902 -353.53448486 314.89524841 C-352.44685034 313.80892152 -351.35855705 312.72325385 -350.26966071 311.63819176 C-347.27330239 308.64855879 -344.28640752 305.64962263 -341.30093122 302.64912808 C-338.08211858 299.41738889 -334.85467075 296.19429431 -331.62825012 292.97015381 C-326.03743348 287.38091204 -320.45214629 281.78619324 -314.87055206 276.18774223 C-306.80044811 268.09328189 -298.72209639 260.00709473 -290.64169213 251.92291833 C-277.53276098 238.80741742 -264.43054663 225.68522766 -251.33251953 212.55883789 C-238.60718869 199.80598006 -225.87871826 187.05626939 -213.14599609 174.31079102 C-212.36146715 173.5254739 -211.57693821 172.74015679 -210.76863566 171.93104219 C-206.83295905 167.99145053 -202.89722047 164.05192081 -198.96145105 160.11242187 C-166.29801867 127.41787724 -133.64547046 94.71247894 -101 62 C-101.94241982 60.88919185 -102.88647704 59.77977279 -103.83120728 58.67092896 C-104.35675013 58.05297014 -104.88229298 57.43501133 -105.42376137 56.79832649 C-107.62307495 54.28913543 -109.99022339 51.98765016 -112.3984375 49.6796875 C-113.38208687 48.72324875 -114.3651436 47.76620017 -115.34765625 46.80859375 C-116.86946685 45.33024934 -118.39468502 43.8562297 -119.93017578 42.39208984 C-121.43111874 40.9576654 -122.91569447 39.50788591 -124.3984375 38.0546875 C-125.28192871 37.20374512 -126.16541992 36.35280273 -127.07568359 35.47607422 C-129 33 -129 33 -129.41259766 30.30908203 C-129 28 -129 28 -127 26 C-125.14582825 25.38899231 -125.14582825 25.38899231 -122.85864258 24.87426758 C-121.99664246 24.6765123 -121.13464233 24.47875702 -120.246521 24.27500916 C-118.83478607 23.96292259 -118.83478607 23.96292259 -117.39453125 23.64453125 C-116.41639465 23.42225357 -115.43825806 23.19997589 -114.43048096 22.97096252 C-111.22601639 22.24451131 -108.01932808 21.52843887 -104.8125 20.8125 C-102.59482489 20.31200634 -100.37729609 19.81086393 -98.15991211 19.30908203 C-93.76307888 18.315252 -89.36538109 17.32540651 -84.96679688 16.33935547 C-80.09554802 15.2470909 -75.22650595 14.14561055 -70.359375 13.03515625 C-64.3030514 11.65474918 -58.24247871 10.29430962 -52.18017578 8.94042969 C-48.13991485 8.03475831 -44.10430324 7.10914329 -40.06846619 6.18399048 C-36.30924985 5.3249884 -32.54767161 4.47664993 -28.78561401 3.63018799 C-26.94684599 3.21420447 -25.10902702 2.79400056 -23.27224731 2.36932373 C-20.70476952 1.77644121 -18.13423282 1.19910184 -15.5625 0.625 C-14.80033676 0.44522614 -14.03817352 0.26545227 -13.25291443 0.08023071 C-8.55128986 -0.9490443 -4.78696808 -1.05004461 0 0 Z " fill="#FEFDFD" transform="translate(1106,557)"/>
<path d="M0 0 C2.35968817 2.30143888 2.96312484 3.70779071 3.37834883 6.99814409 C3.37992003 8.18168004 3.38149123 9.36521599 3.38311005 10.58461666 C3.38806956 11.24788817 3.39302908 11.91115967 3.39813888 12.59453031 C3.41113821 14.82696128 3.40269699 17.05879837 3.39440918 19.29124451 C3.39929605 20.90393454 3.4054849 22.51662107 3.41286707 24.12930161 C3.42931564 28.56867886 3.42693871 33.00787911 3.4214921 37.44727623 C3.41882796 42.23196301 3.43334206 47.01660196 3.44558716 51.80126953 C3.46666911 61.17780723 3.47118044 70.55428314 3.46939927 79.93084174 C3.46809309 87.54989582 3.47188842 95.16893058 3.47932434 102.78798103 C3.48142347 104.98028328 3.48352107 107.17258553 3.48561716 109.36488777 C3.48666069 110.45595871 3.48770422 111.54702964 3.48877937 112.67116333 C3.50769272 133.31842526 3.50662811 153.96565168 3.49981004 174.61291868 C3.49423314 193.51423237 3.51506436 212.41541057 3.54817051 231.31669258 C3.58187778 250.71125789 3.59707958 270.10575824 3.59245348 289.5003534 C3.59020587 300.39428731 3.59549456 311.28809598 3.62034607 322.18200493 C3.6413209 331.45571006 3.64498918 340.72922128 3.62604648 350.00293427 C3.61686521 354.73675928 3.61581846 359.47022236 3.63640213 364.20401955 C3.65502623 368.53495676 3.65070576 372.86523344 3.62785631 377.19614483 C3.62364877 378.76541834 3.62794246 380.33474166 3.64145225 381.90396266 C3.6585401 384.033294 3.644978 386.1603 3.62361908 388.2895422 C3.62389146 389.4732405 3.62416385 390.6569388 3.62444448 391.87650675 C2.81047857 395.94799283 1.20638834 397.44523543 -2 400 C-5.1937561 400.6292057 -5.1937561 400.6292057 -8.86962891 400.63491821 C-9.54824289 400.64271817 -10.22685688 400.65051812 -10.92603493 400.65855443 C-13.19343446 400.67845283 -15.4591514 400.66272066 -17.7265625 400.64697266 C-19.35464455 400.65374982 -20.98271894 400.66265352 -22.61077881 400.67352295 C-27.02822424 400.69631137 -31.4450856 400.68748203 -35.8625412 400.67162752 C-40.4860135 400.6589661 -45.10943589 400.67070931 -49.73291016 400.67855835 C-57.49716162 400.68765421 -65.26117527 400.67566869 -73.02539062 400.65185547 C-82.00114564 400.62464425 -90.97633279 400.63345847 -99.95207405 400.6609875 C-107.65924502 400.6836794 -115.36624506 400.68687827 -123.07343864 400.67379415 C-127.67627139 400.66600006 -132.27883724 400.66495682 -136.88165283 400.68147659 C-141.20913517 400.69592335 -145.5358856 400.68589639 -149.86328888 400.65700531 C-151.45116206 400.65039552 -153.03909686 400.65229044 -154.6269455 400.66331863 C-156.79558456 400.67699165 -158.96188122 400.65984272 -161.13037109 400.63491821 C-162.34340912 400.63303308 -163.55644714 400.63114796 -164.8062439 400.6292057 C-169.10816352 399.78167938 -170.50596054 398.60097163 -173 395 C-173.70575357 391.86375518 -173.6752611 388.81798685 -173.63491821 385.6137085 C-173.64271817 384.66431876 -173.65051812 383.71492903 -173.65855443 382.73676991 C-173.6785105 379.5529606 -173.66269502 376.37034179 -173.64697266 373.18652344 C-173.65374732 370.90484417 -173.66264959 368.62317037 -173.67352295 366.34150696 C-173.69634565 360.14084729 -173.687466 353.94060294 -173.67162752 347.73993587 C-173.65897794 341.25119333 -173.6707066 334.7624866 -173.67855835 328.27374268 C-173.68824349 316.6734268 -173.67268804 305.07330051 -173.64726166 293.4730145 C-173.624944 282.9661281 -173.62878524 272.45951808 -173.65185547 261.95263672 C-173.67864894 249.74440958 -173.68855255 237.53637925 -173.67379415 225.32812333 C-173.66600507 218.86847949 -173.66494285 212.40902579 -173.68147659 205.94939423 C-173.69594425 199.87208351 -173.68585671 193.7952932 -173.65700531 187.71803856 C-173.65040572 185.49004416 -173.65227278 183.2620058 -173.66331863 181.03402901 C-173.67703032 177.98684111 -173.65978884 174.94130913 -173.63491821 171.89422607 C-173.64607182 171.01726129 -173.65722543 170.14029651 -173.66871703 169.23675704 C-173.5504001 161.73717693 -170.76114651 156.36187499 -166.04296875 150.6171875 C-165.43066406 150.04226563 -164.81835938 149.46734375 -164.1875 148.875 C-163.49398438 148.21628906 -162.80046875 147.55757812 -162.0859375 146.87890625 C-159.53603259 144.58208179 -156.93645245 142.34784381 -154.33203125 140.11328125 C-151.27930408 137.34690704 -148.39590544 134.42895429 -145.5 131.5 C-141.49088259 127.44533738 -137.44135484 123.56021837 -133.08984375 119.87109375 C-130.28089466 117.3561655 -127.64891383 114.68164678 -125 112 C-121.77601619 108.73617703 -118.56482179 105.53169881 -115.0625 102.5625 C-111.34042332 99.3999004 -107.9313366 95.97029586 -104.5 92.5 C-100.49087142 88.44535194 -96.44135501 84.56021851 -92.08984375 80.87109375 C-89.28089466 78.3561655 -86.64891383 75.68164678 -84 73 C-80.77601619 69.73617703 -77.56482179 66.53169881 -74.0625 63.5625 C-70.34042332 60.3999004 -66.9313366 56.97029586 -63.5 53.5 C-59.49087142 49.44535194 -55.44135501 45.56021851 -51.08984375 41.87109375 C-48.28089466 39.3561655 -45.64891383 36.68164678 -43 34 C-39.77601619 30.73617703 -36.56482179 27.53169881 -33.0625 24.5625 C-29.3686102 21.42922134 -26.01671503 18.01380449 -22.625 14.5625 C-7.0944541 -1.0980649 -7.0944541 -1.0980649 0 0 Z " fill="#FEFEFE" transform="translate(605,924)"/>
<path d="M0 0 C1.15048828 -0.00773437 2.30097656 -0.01546875 3.48632812 -0.0234375 C22.45535989 0.01955181 40.08252009 5.28131967 54.25 18.3125 C68.86264747 33.68458614 73.01155701 53.69519016 73 74.1875 C73.00040283 74.91821716 73.00080566 75.64893433 73.0012207 76.40179443 C72.93255131 98.0356135 67.99127418 117.25949047 52.6171875 133.21875 C51.93914062 133.8890625 51.26109375 134.559375 50.5625 135.25 C50.00820312 135.8171875 49.45390625 136.384375 48.8828125 136.96875 C47.79181739 138.07823655 46.68066681 139.16790309 45.5625 140.25 C46.38041016 140.74306641 46.38041016 140.74306641 47.21484375 141.24609375 C63.29789893 151.3907901 70.58683743 164.79449091 75.5390625 182.80078125 C81.76318085 211.27466849 79.0212173 243.38064124 63.58203125 268.40625 C52.52217733 283.97989343 36.87004051 291.40029435 18.45703125 294.828125 C-5.38976104 297.41132818 -29.62602831 295.70948756 -49.41015625 281.046875 C-60.95123854 271.08986283 -67.87775014 259.11588525 -72.25 244.625 C-72.45705566 243.94501953 -72.66411133 243.26503906 -72.87744141 242.56445312 C-75.75261269 232.43958712 -75.62393964 222.07199676 -75.62280273 211.62841797 C-75.62498908 209.38619988 -75.64320811 207.14447533 -75.66210938 204.90234375 C-75.74703404 183.95025794 -71.12659595 164.14542271 -56.03515625 148.80859375 C-53.88874359 146.86932241 -51.71066533 145.03783623 -49.4375 143.25 C-48.06851563 142.15365234 -48.06851563 142.15365234 -46.671875 141.03515625 C-45.93453125 140.44605469 -45.1971875 139.85695313 -44.4375 139.25 C-45.13875 138.59515625 -45.84 137.9403125 -46.5625 137.265625 C-63.64176208 120.83611746 -71.30718223 102.28842405 -71.79101562 78.71191406 C-71.93916001 55.27143242 -68.33466677 35.68370844 -51.75 18.0625 C-37.39734157 4.21000997 -19.35951274 -0.12971198 0 0 Z " fill="#FEFDFE" transform="translate(191.4375,124.75)"/>
<path d="M0 0 C8.94445116 9.81708054 9.87034236 20.45314581 9.828125 33.21875 C9.83003845 34.49802368 9.8319519 35.77729736 9.83392334 37.09533691 C9.83685683 39.79163493 9.83263461 42.48779962 9.82324219 45.18408203 C9.81184859 48.6201667 9.81841765 52.05593879 9.83038712 55.49201202 C9.83939928 58.79678229 9.83306807 62.10147089 9.828125 65.40625 C9.83217346 66.63041626 9.83622192 67.85458252 9.84039307 69.11584473 C9.78206526 79.80008215 8.23869422 90.12523676 1.25 98.625 C-7.88808779 106.06297844 -16.89850223 107.54223899 -28.4375 106.8125 C-36.84918715 105.78511836 -42.65501088 102.4462269 -48.05078125 95.875 C-52.60320564 89.1040702 -54.55037805 81.35484891 -54.58276367 73.27880859 C-54.58914352 72.19352875 -54.59552338 71.1082489 -54.60209656 69.99008179 C-54.60320938 68.82546417 -54.6043222 67.66084656 -54.60546875 66.4609375 C-54.60879715 65.25112213 -54.61212555 64.04130676 -54.61555481 62.79483032 C-54.62061487 60.23448059 -54.62296342 57.67412426 -54.62280273 55.11376953 C-54.62498021 51.22286902 -54.6431212 47.33225628 -54.66210938 43.44140625 C-54.66504539 40.94791763 -54.66702879 38.45442767 -54.66796875 35.9609375 C-54.67515427 34.80846527 -54.68233978 33.65599304 -54.68974304 32.46859741 C-54.65828873 21.17974197 -53.82506568 10.80674308 -46.4375 1.8125 C-34.18822365 -9.12354524 -13.30817761 -9.75255764 0 0 Z " fill="#FDFAFB" transform="translate(698.4375,312.1875)"/>
<path d="M0 0 C7.55493844 6.03333492 10.43188598 15.62862905 11.50292969 24.99118042 C11.64765368 28.38438253 11.68000345 31.75617702 11.65625 35.15234375 C11.66199036 37.00600304 11.66199036 37.00600304 11.66784668 38.89710999 C11.67054932 41.49122948 11.66330481 44.08537699 11.64648438 46.67944336 C11.62507191 50.61179431 11.64633583 54.54231458 11.671875 58.47460938 C11.70978661 90.54121686 11.70978661 90.54121686 1.4140625 100.9140625 C-2.34039474 103.82280582 -6.33813304 105.3912523 -10.875 106.6875 C-11.49761719 106.87699219 -12.12023437 107.06648438 -12.76171875 107.26171875 C-23.48123941 109.4214743 -33.43752678 107.46601689 -42.75 102 C-51.96670818 91.97005287 -53.33957521 79.15501627 -53.2734375 66.09375 C-53.27630768 64.82583618 -53.27917786 63.55792236 -53.28213501 62.25158691 C-53.28416575 59.58553541 -53.28024613 56.92032443 -53.26611328 54.25439453 C-53.24902303 50.86899822 -53.25888387 47.48431586 -53.27683067 44.09894562 C-53.29039205 40.82635632 -53.28084569 37.55384868 -53.2734375 34.28125 C-53.28254654 32.48234314 -53.28254654 32.48234314 -53.2918396 30.64709473 C-53.20222723 19.79779446 -51.86838803 9.62675674 -43.875 1.6875 C-31.90161398 -8.03003068 -12.83106795 -8.409368 0 0 Z " fill="#FDFAFB" transform="translate(552.875,311.3125)"/>
<path d="M0 0 C8.52697791 7.20055912 11.1592653 16.75421556 12.090271 27.61553955 C12.20413113 30.91685392 12.2287945 34.20462236 12.2109375 37.5078125 C12.21380768 38.70630829 12.21667786 39.90480408 12.21963501 41.13961792 C12.22166085 43.6521655 12.21623574 46.1647294 12.20361328 48.67724609 C12.18751082 52.49743203 12.2035285 56.3165647 12.22265625 60.13671875 C12.22067411 62.59375231 12.21683104 65.05078521 12.2109375 67.5078125 C12.21701019 68.63518829 12.22308289 69.76256409 12.2293396 70.92410278 C12.13244187 81.97384935 10.21150904 92.58602365 2.40234375 100.87109375 C-4.57437796 107.14084099 -12.88971041 108.68651668 -22.015625 108.52734375 C-30.86469898 107.90663532 -38.14571878 105.85210604 -44.375 99.25 C-49.7563843 92.5880189 -52.29123309 84.13697045 -52.34863281 75.67944336 C-52.35824036 74.53402573 -52.3678479 73.38860809 -52.37774658 72.20848083 C-52.3841214 70.35538048 -52.3841214 70.35538048 -52.390625 68.46484375 C-52.39632507 67.1870253 -52.40202515 65.90920685 -52.40789795 64.59266663 C-52.41839269 61.8850973 -52.42424407 59.17755749 -52.42773438 56.4699707 C-52.43318964 53.02951516 -52.45715948 49.58946128 -52.48570633 46.14913082 C-52.50902287 42.83771106 -52.51079595 39.52634118 -52.515625 36.21484375 C-52.5279718 34.99361313 -52.5403186 33.77238251 -52.55303955 32.5141449 C-52.52111411 20.09456047 -50.2287057 9.69719201 -41.5 0.5625 C-29.15222707 -7.59168967 -12.75064457 -6.5003286 0 0 Z " fill="#FDFAFB" transform="translate(922.1875,131.625)"/>
<path d="M0 0 C6.9258726 5.60665877 10.38516246 12.88248938 11.4160614 21.64485168 C11.84416459 26.7265331 11.83095615 31.82111325 11.86328125 36.91796875 C11.871353 38.14099197 11.87942474 39.3640152 11.88774109 40.62409973 C11.90152725 43.20519618 11.91227366 45.78631044 11.92016602 48.36743164 C11.93168291 50.98858032 11.95212983 53.60970559 11.98168945 56.23071289 C12.02462444 60.04329155 12.04057044 63.85517753 12.05078125 67.66796875 C12.06828934 68.82258102 12.08579742 69.9771933 12.10383606 71.16679382 C12.07675017 81.48409264 10.23922757 92.30317694 3.46875 100.47265625 C-4.17121627 107.31949042 -12.86507054 108.45059041 -22.703125 108.328125 C-31.6019899 107.83584737 -38.01266115 105.71619049 -44.49609375 99.453125 C-47.51498384 95.71246285 -49.0126225 91.69058649 -50.375 87.125 C-50.705 86.135 -51.035 85.145 -51.375 84.125 C-51.48424842 82.05216848 -51.5339619 79.97602072 -51.55200195 77.90039062 C-51.56483719 76.6147522 -51.57767242 75.32911377 -51.59089661 74.0045166 C-51.59906877 72.59676501 -51.60651159 71.18900903 -51.61328125 69.78125 C-51.61735678 69.06958176 -51.6214323 68.35791351 -51.62563133 67.62467957 C-51.64648936 63.85135185 -51.66078721 60.07806037 -51.67016602 56.3046875 C-51.68117679 52.43253001 -51.71551437 48.56095572 -51.75533772 44.68900299 C-51.78167135 41.6912744 -51.78987297 38.69368059 -51.79344749 35.69584656 C-51.79827738 34.27027996 -51.80978693 32.84471789 -51.82848549 31.41926575 C-51.95611121 21.03720965 -50.84385113 12.63435179 -45.25 3.75 C-32.94682581 -7.48333296 -14.1823198 -7.87906655 0 0 Z " fill="#FDFBFC" transform="translate(1139.375,310.875)"/>
<path d="M0 0 C43.62857143 0 43.62857143 0 53 8 C60.65372451 16.38265065 60.30847589 26.14734373 60.30078125 36.95703125 C60.30467783 38.30930205 60.30901445 39.66157165 60.31376648 41.01383972 C60.32119458 43.83877541 60.32096293 46.66358606 60.31567383 49.48852539 C60.30989189 53.07910594 60.32679542 56.6691685 60.3500185 60.25966358 C60.36487198 63.05066334 60.36561179 65.84154178 60.36250877 68.63257408 C60.36326048 70.59042516 60.37704001 72.54825764 60.39118958 74.50605774 C60.33951938 84.58191304 59.43774213 94.25699649 52.80078125 102.27734375 C39.1203135 115.3642988 16.5041618 110 0 110 C0 73.7 0 37.4 0 0 Z " fill="#FEFDFD" transform="translate(377,128)"/>
<path d="M0 0 C43.62857143 0 43.62857143 0 53 8 C60.48657846 16.38832321 60.31746366 25.20780577 60.3359375 36.0078125 C60.34237897 37.37914157 60.34910829 38.75046932 60.35610962 40.12179565 C60.36804638 42.99138567 60.37179448 45.86085568 60.37060547 48.73046875 C60.37040315 52.3714496 60.39762954 56.01164225 60.43214989 59.65243721 C60.45461854 62.48555894 60.45843689 65.31849746 60.45738602 68.15169907 C60.46083264 70.13497482 60.48237579 72.11819338 60.50448608 74.10134888 C60.45380425 84.29602876 59.32834042 95.95767509 51.83984375 103.63671875 C37.60867449 114.18168281 14.94336985 110 0 110 C0 73.7 0 37.4 0 0 Z " fill="#FEFDFD" transform="translate(1251,128)"/>
<path d="M0 0 C6.93 0 13.86 0 21 0 C22.56448749 7.31208038 24.12723286 14.62451923 25.6875 21.9375 C25.91654022 23.01034241 26.14558044 24.08318481 26.38156128 25.1885376 C29.23740126 38.57469751 32.07365745 51.96104799 34.64135742 65.40600586 C34.81256104 66.2903833 34.98376465 67.17476074 35.16015625 68.0859375 C35.30074463 68.8289209 35.44133301 69.5719043 35.58618164 70.33740234 C35.855012 72.02680684 35.855012 72.02680684 37 73 C38.16870532 67.42464327 39.33685891 61.84917127 40.50463867 56.27362061 C41.1231827 53.32117438 41.74225181 50.36883856 42.36132812 47.41650391 C44.22515126 38.52221004 46.08391497 29.62715481 47.8984375 20.72265625 C48.03831085 20.03812881 48.1781842 19.35360138 48.32229614 18.64833069 C48.96427364 15.50641813 49.6027619 12.36388759 50.23486328 9.2199707 C50.4564209 8.13417725 50.67797852 7.04838379 50.90625 5.9296875 C51.09509766 4.99366699 51.28394531 4.05764648 51.47851562 3.09326172 C52 1 52 1 53 0 C54.4887186 -0.08669432 55.981445 -0.10703494 57.47265625 -0.09765625 C58.28226807 -0.09515869 59.09187988 -0.09266113 59.92602539 -0.09008789 C60.96106201 -0.08098389 61.99609863 -0.07187988 63.0625 -0.0625 C64.83520291 -0.05101153 66.60790819 -0.0398853 68.38061523 -0.02905273 C69.92041016 -0.01936849 71.46020508 -0.00968424 73 0 C73.90254708 15.16057614 74.27018262 30.31115499 74.50268555 45.49560547 C74.56187393 49.3343952 74.62720924 53.17304338 74.69335938 57.01171875 C74.98488261 74.67658794 75.04953268 92.33334419 75 110 C69.72 110 64.44 110 59 110 C58.97494385 108.45731445 58.9498877 106.91462891 58.92407227 105.32519531 C58.82929471 99.55510356 58.72925102 93.78511265 58.62768555 88.01513672 C58.58460089 85.52655409 58.54290949 83.03794691 58.50268555 80.54931641 C58.4443357 76.9546776 58.38083411 73.36015941 58.31640625 69.765625 C58.29969376 68.66825012 58.28298126 67.57087524 58.26576233 66.44024658 C58.13066933 59.25934271 57.682118 52.14953109 57 45 C52.31008994 66.66172362 47.63313532 88.3260526 43 110 C38.71 110 34.42 110 30 110 C29.71801758 108.61514404 29.43603516 107.23028809 29.14550781 105.8034668 C28.08005485 100.57173071 27.01377342 95.34016373 25.94726562 90.10864258 C25.489364 87.86194248 25.03167495 85.61519904 24.57421875 83.3684082 C21.76433644 69.56855857 18.92375992 55.77620257 16 42 C14.78700647 56.12281672 14.66888835 70.27181066 14.4375 84.4375 C14.3942158 86.92253191 14.3505987 89.40755804 14.30664062 91.89257812 C14.20058892 97.92832569 14.0990426 103.96413352 14 110 C8.72 110 3.44 110 -2 110 C-2.06594482 93.91679021 -1.89575093 77.84240804 -1.62768555 61.76147461 C-1.5628742 57.83516927 -1.50296531 53.90880926 -1.44335938 49.98242188 C-1.17770498 33.31114142 -0.68727994 16.65915968 0 0 Z " fill="#FCFAFA" transform="translate(721,307)"/>
<path d="M0 0 C5.61 0 11.22 0 17 0 C19.64 21.45 22.28 42.9 25 65 C26.61519664 63.38480336 26.45520034 61.45632974 26.76171875 59.2265625 C26.90826904 58.19007568 27.05481934 57.15358887 27.20581055 56.08569336 C27.36476807 54.94366455 27.52372559 53.80163574 27.6875 52.625 C29.35138342 41.03187441 31.21372943 29.48162247 33.1875 17.9375 C33.31973969 17.15667053 33.45197937 16.37584106 33.58822632 15.5713501 C33.9653736 13.34771294 34.34707762 11.12491187 34.73046875 8.90234375 C34.95114014 7.61835693 35.17181152 6.33437012 35.39916992 5.01147461 C36 2 36 2 37 0 C41.62 0 46.24 0 51 0 C51.23187012 1.40693115 51.46374023 2.8138623 51.70263672 4.26342773 C52.56861413 9.51384484 53.43787847 14.76371345 54.30810547 20.01342773 C54.68334309 22.27988235 55.05770495 24.54648214 55.43115234 26.81323242 C55.96999197 30.08291129 56.51204299 33.35204447 57.0546875 36.62109375 C57.21935516 37.62458359 57.38402283 38.62807343 57.55368042 39.66197205 C58.27717485 44.00396313 59.04414129 48.30226394 60.05908203 52.58618164 C61.16344624 57.34883271 61.61389076 62.13299143 62 67 C64.18292731 53.05100002 66.01159081 39.08799016 67.625 25.0625 C67.94972758 22.25230177 68.27545104 19.44223105 68.60360718 16.63243103 C68.80493992 14.90754594 69.00429996 13.18242901 69.20132446 11.45704651 C69.29166962 10.68110641 69.38201477 9.90516632 69.47509766 9.10571289 C69.59143051 8.09366539 69.59143051 8.09366539 69.71011353 7.06117249 C70.04334326 4.69181754 70.53075819 2.34620907 71 0 C76.61 0 82.22 0 88 0 C87.35639528 8.66026939 86.35655879 17.2004567 85.109375 25.79296875 C84.92433411 27.08687531 84.73929321 28.38078186 84.54864502 29.71389771 C84.0549252 33.16437061 83.55669299 36.61417617 83.05718994 40.06381607 C82.64572202 42.90840082 82.2365727 45.75331736 81.82730865 48.59821987 C79.58588106 64.17459565 77.33205074 79.7494093 75 95.3125 C74.90054077 95.98268158 74.80108154 96.65286316 74.6986084 97.34335327 C74.42775473 99.16304786 74.15157301 100.98194715 73.875 102.80078125 C73.72804688 103.77184814 73.58109375 104.74291504 73.4296875 105.7434082 C73 108 73 108 72 110 C66.72 110 61.44 110 56 110 C55.60167969 107.71964844 55.20335937 105.43929687 54.79296875 103.08984375 C54.39618231 100.8256892 53.99877784 98.56164391 53.60131836 96.29760742 C53.33016799 94.75117047 53.05963732 93.2046247 52.78979492 91.65795898 C51.19755701 82.53446542 49.50526885 73.44549689 47.6628418 64.36889648 C46.7606101 59.78329974 46.01071363 55.18291915 45.3125 50.5625 C45.18294922 49.72396484 45.05339844 48.88542969 44.91992188 48.02148438 C44.61031578 46.0147782 44.30468436 44.00745935 44 42 C43.80422363 43.19822388 43.80422363 43.19822388 43.60449219 44.4206543 C41.20541861 59.0640364 38.74974151 73.68359535 35.9140625 88.25 C34.50878204 95.4822714 33.2623289 102.74160882 32 110 C26.39 110 20.78 110 15 110 C12.78592388 97.78791592 10.84299191 85.56598419 9.08203125 73.28125 C8.81733161 71.44379895 8.5525752 69.60635609 8.2877655 67.7689209 C7.73874756 63.95397948 7.1920426 60.13871469 6.64672852 56.32324219 C5.95022553 51.45293967 5.24530243 46.58389512 4.53838062 41.71509552 C3.9910341 37.93575805 3.44941595 34.1556156 2.90936852 30.37522888 C2.65187849 28.57932584 2.39234624 26.78371429 2.13065529 24.98841858 C1.76573401 22.48072892 1.40890356 19.97200867 1.05395508 17.46289062 C0.94645935 16.73649384 0.83896362 16.01009705 0.72821045 15.26168823 C0.01518414 10.13656315 -0.08583936 5.17477929 0 0 Z " fill="#FCF9FA" transform="translate(776,128)"/>
<path d="M0 0 C5.61 0 11.22 0 17 0 C19.34861908 15.05054956 21.32799322 30.13194737 23.1875 45.25 C23.46265671 47.47138315 23.73804611 49.6927375 24.01367188 51.9140625 C24.67845272 57.27571392 25.34040381 62.63770842 26 68 C26.16798096 66.69466309 26.33596191 65.38932617 26.5090332 64.04443359 C28.37259284 49.83469854 30.68440737 35.73456755 33.1875 21.625 C33.55962799 19.50918194 33.93137435 17.39329673 34.30273438 15.27734375 C35.19745214 10.18411559 36.09723588 5.09180784 37 0 C41.62 0 46.24 0 51 0 C54.51089292 16.57576437 57.41528033 33.19592202 60.03173828 49.93237305 C60.15555878 50.71759338 60.27937927 51.50281372 60.4069519 52.31182861 C60.64090514 53.79771929 60.87194012 55.28407325 61.09963989 56.77093506 C61.66355672 60.49981676 61.66355672 60.49981676 63 64 C65.69979334 43.00409973 68.39776803 22.00826295 71 1 C76.61 1 82.22 1 88 1 C87.33696911 12.82777964 85.79190717 24.41709117 84.09375 36.1328125 C83.80574259 38.1434103 83.51811093 40.15406196 83.23083496 42.1647644 C82.6320059 46.34888991 82.02995331 50.5325336 81.42529297 54.71582031 C80.65042954 60.07721183 79.881792 65.43947259 79.11528778 70.8020649 C78.5233901 74.94065307 77.92924269 79.07891558 77.33430481 83.21706772 C77.04996957 85.19536567 76.76610177 87.17373087 76.48271179 89.15216446 C76.08762008 91.90660704 75.68974167 94.66063226 75.29101562 97.41455078 C75.1164257 98.63636299 75.1164257 98.63636299 74.93830872 99.88285828 C74.43789026 103.32059865 73.84371787 106.62512853 73 110 C67.72 110 62.44 110 57 110 C55.15068177 106.30136354 54.50060302 103.91130667 53.87084961 99.90209961 C53.57560646 98.05514748 53.57560646 98.05514748 53.2743988 96.17088318 C53.0669828 94.83137999 52.85963269 93.4918666 52.65234375 92.15234375 C52.4340463 90.77508893 52.21508816 89.39793869 51.99549866 88.02088928 C51.41977186 84.40125866 50.85154951 80.78049282 50.28533936 77.15936279 C49.37739524 71.3597682 48.45889676 65.56184223 47.53882027 59.76416206 C47.21880504 57.73990096 46.9024875 55.71508763 46.58665466 53.69017029 C46.39297806 52.46202103 46.19930145 51.23387177 45.99975586 49.96850586 C45.83035995 48.88580917 45.66096405 47.80311249 45.48643494 46.68760681 C45.05008466 43.91323186 45.05008466 43.91323186 44 41 C43.85304688 42.36705078 43.85304688 42.36705078 43.703125 43.76171875 C42.71460041 52.32609125 41.35343161 60.73539257 39.67944336 69.19140625 C37.7910368 78.83226437 36.22354005 88.524954 34.6628418 98.22314453 C34.46086182 99.46306152 34.25888184 100.70297852 34.05078125 101.98046875 C33.87200439 103.09317139 33.69322754 104.20587402 33.5090332 105.35229492 C33 108 33 108 32 110 C26.39 110 20.78 110 15 110 C13.03924237 96.54443211 11.08306367 83.08820729 9.13272858 69.6311245 C8.22696799 63.38249645 7.31963149 57.13410571 6.40869141 50.88623047 C5.52965292 44.85675296 4.65475682 38.82668762 3.7827301 32.79619217 C3.44929987 30.49549564 3.11437733 28.19501487 2.77793884 25.89475632 C2.30699171 22.67307172 1.84135493 19.45066101 1.37695312 16.22802734 C1.23669205 15.27712219 1.09643097 14.32621704 0.95191956 13.34649658 C0.82570724 12.46317657 0.69949493 11.57985657 0.56945801 10.66976929 C0.45884285 9.90836828 0.34822769 9.14696728 0.23426056 8.36249352 C-0.04090165 5.58751108 0 2.78859136 0 0 Z " fill="#FCF9FA" transform="translate(1159,307)"/>
<path d="M0 0 C44.87567568 0 44.87567568 0 54 8 C60.8039409 15.29242896 61.41351732 23.62185743 61.2421875 33.2734375 C60.64004507 42.53866134 57.86198427 48.66713259 51 55 C50.01 55.495 50.01 55.495 49 56 C50.35244348 63.44718118 52.22082976 70.66683382 54.3125 77.9375 C57.34006053 88.59397256 60.21393178 99.27785869 63 110 C56.07 110 49.14 110 42 110 C39.375 99.9375 39.375 99.9375 38.49902344 96.57080078 C37.1030592 91.20712464 35.69550173 85.84692993 34.265625 80.4921875 C33.99057129 79.45586182 33.71551758 78.41953613 33.43212891 77.35180664 C32.90188992 75.3551505 32.36782642 73.35950534 31.82958984 71.36499023 C31.58934082 70.45692627 31.3490918 69.5488623 31.1015625 68.61328125 C30.88838379 67.81704346 30.67520508 67.02080566 30.45556641 66.20043945 C30 64 30 64 30 60 C27.03 60 24.06 60 21 60 C21 76.5 21 93 21 110 C14.07 110 7.14 110 0 110 C0 73.7 0 37.4 0 0 Z " fill="#FCF9FA" transform="translate(944,128)"/>
<path d="M0 0 C45.84592105 0 45.84592105 0 54.375 8.16796875 C61.18947413 15.85063309 60.60184279 26.24570158 60.17480469 35.91748047 C59.60830234 42.66645397 57.41863434 48.13875254 52.375 52.6875 C49.3915493 55 49.3915493 55 47 55 C47.36351562 56.11632812 47.72703125 57.23265625 48.1015625 58.3828125 C51.29172665 68.27885374 54.22813243 78.21320889 56.90673828 88.26025391 C58.30713648 93.50856667 59.80261439 98.70746009 61.44262695 103.88647461 C62 106 62 106 62 109 C55.07 109 48.14 109 41 109 C40.13375 105.2565625 40.13375 105.2565625 39.25 101.4375 C37.02372587 91.92540454 34.6139022 82.46847985 31.859375 73.09375 C31.49328125 71.8459375 31.1271875 70.598125 30.75 69.3125 C30.41484375 68.19488281 30.0796875 67.07726562 29.734375 65.92578125 C29 63 29 63 29 59 C26.03 59 23.06 59 20 59 C20 75.5 20 92 20 109 C13.4 109 6.8 109 0 109 C0 73.03 0 37.06 0 0 Z " fill="#FEFDFD" transform="translate(1017,308)"/>
<path d="M0 0 C4.62 0 9.24 0 14 0 C18.2924827 8.400274 22.20147555 16.8756378 25.875 25.5625 C26.35324219 26.68462891 26.83148437 27.80675781 27.32421875 28.96289062 C31.58002129 38.96234225 35.78282984 48.98422086 40 59 C40.33 39.53 40.66 20.06 41 0 C46.61 0 52.22 0 58 0 C58 36.3 58 72.6 58 110 C53.38 110 48.76 110 44 110 C35.37561994 90.10953788 27.11281655 70.10567579 19 50 C18.67 69.8 18.34 89.6 18 110 C12.06 110 6.12 110 0 110 C0 73.7 0 37.4 0 0 Z " fill="#FCF9FA" transform="translate(575,307)"/>
<path d="M0 0 C6.6 0 13.2 0 20 0 C20 14.85 20 29.7 20 45 C27.26 45 34.52 45 42 45 C42 30.15 42 15.3 42 0 C48.6 0 55.2 0 62 0 C62 35.97 62 71.94 62 109 C55.4 109 48.8 109 42 109 C42 92.83 42 76.66 42 60 C34.74 60 27.48 60 20 60 C20 76.17 20 92.34 20 109 C13.4 109 6.8 109 0 109 C0 73.03 0 37.06 0 0 Z " fill="#FEFEFE" transform="translate(1312,308)"/>
<path d="M0 0 C4.62 0 9.24 0 14 0 C19.78577699 12.68195563 25.3723553 25.44166398 30.83691406 38.26464844 C31.31999023 39.39805664 31.80306641 40.53146484 32.30078125 41.69921875 C32.72528564 42.69783936 33.14979004 43.69645996 33.5871582 44.7253418 C35.35862273 48.83120903 37.18386466 52.91369548 39 57 C39.33 38.19 39.66 19.38 40 0 C45.61 0 51.22 0 57 0 C57 36.3 57 72.6 57 110 C52.71 110 48.42 110 44 110 C40.49041014 103.15070781 37.33521802 96.25929042 34.42578125 89.13671875 C33.8109211 87.64420341 33.8109211 87.64420341 33.18363953 86.12153625 C31.88973359 82.97829377 30.60105939 79.83293749 29.3125 76.6875 C28.43718884 74.55910498 27.5615407 72.43084851 26.68554688 70.30273438 C20.72089436 55.80223589 20.72089436 55.80223589 18 49 C17.67 69.13 17.34 89.26 17 110 C11.39 110 5.78 110 0 110 C0 73.7 0 37.4 0 0 Z " fill="#FEFCFD" transform="translate(1181,128)"/>
<path d="M0 0 C4.62 0 9.24 0 14 0 C17.58243776 6.91810427 20.64423436 14.01830629 23.6875 21.1875 C24.67050211 23.49351977 25.65357724 25.79950841 26.63671875 28.10546875 C27.74660156 30.71066406 28.85648438 33.31585938 30 36 C32.97 42.93 35.94 49.86 39 57 C39.33 38.19 39.66 19.38 40 0 C45.61 0 51.22 0 57 0 C57 36.3 57 72.6 57 110 C52.71 110 48.42 110 44 110 C40.86755225 103.92602619 38.15172395 97.75852368 35.55859375 91.4375 C35.14964371 90.4467749 34.74069366 89.4560498 34.3193512 88.43530273 C33.45994851 86.3516536 32.6019748 84.26741456 31.74536133 82.18261719 C30.44095181 79.0083998 29.13199153 75.83608946 27.82226562 72.6640625 C26.98410724 70.63031866 26.14620791 68.59646804 25.30859375 66.5625 C24.72723915 65.15278931 24.72723915 65.15278931 24.13414001 63.71459961 C23.76688309 62.8200708 23.39962616 61.92554199 23.02124023 61.00390625 C22.70243393 60.22861572 22.38362762 59.4533252 22.05516052 58.65454102 C20.65149283 55.12323618 19.33428741 51.55809976 18 48 C17.67 68.46 17.34 88.92 17 110 C11.39 110 5.78 110 0 110 C0 73.7 0 37.4 0 0 Z " fill="#FDFCFC" transform="translate(626,128)"/>
<path d="M0 0 C6.60218928 5.31573328 9.69392535 11.16623136 10.75 19.5234375 C10.87503316 24.19467633 10.79409565 28.84929905 10.75 33.5234375 C4.48 33.5234375 -1.79 33.5234375 -8.25 33.5234375 C-8.4453125 30.04036458 -8.640625 26.55729167 -8.8359375 23.07421875 C-9.32044213 18.91936301 -10.06128204 15.84931523 -12.875 12.7109375 C-16.31540157 10.99073671 -19.53655019 10.71296234 -23.25 11.5234375 C-25.94105198 13.69918166 -27.70532928 15.43409606 -29.25 18.5234375 C-29.35679611 20.51299656 -29.39885906 22.50614965 -29.41113281 24.49853516 C-29.42074036 25.75389069 -29.4303479 27.00924622 -29.44024658 28.30264282 C-29.44509645 29.6809267 -29.44937482 31.05921269 -29.453125 32.4375 C-29.45887889 33.85037233 -29.4646366 35.26324464 -29.47039795 36.67611694 C-29.48091267 39.64361942 -29.48675119 42.61109479 -29.49023438 45.57861328 C-29.49569825 49.36467427 -29.51967848 53.15037181 -29.54820633 56.93631935 C-29.56692245 59.85843921 -29.57204321 62.78047345 -29.57357025 65.70264816 C-29.57658077 67.09718166 -29.58455474 68.49171424 -29.59775543 69.88618851 C-29.66357578 77.37851215 -29.70105164 83.76311509 -26.25 90.5234375 C-22.30526839 92.49580331 -17.53934827 92.10719496 -13.25 91.5234375 C-10.40281415 88.94741221 -8.43133831 86.34544553 -8.04467773 82.46044922 C-7.98969116 81.21932373 -7.98969116 81.21932373 -7.93359375 79.953125 C-7.89169922 79.05722656 -7.84980469 78.16132813 -7.80664062 77.23828125 C-7.76732422 76.30113281 -7.72800781 75.36398437 -7.6875 74.3984375 C-7.62272461 72.98111328 -7.62272461 72.98111328 -7.55664062 71.53515625 C-7.4504106 69.19809578 -7.34968729 66.8607862 -7.25 64.5234375 C-11.21 64.5234375 -15.17 64.5234375 -19.25 64.5234375 C-19.25 59.9034375 -19.25 55.2834375 -19.25 50.5234375 C-9.02 50.5234375 1.21 50.5234375 11.75 50.5234375 C11.75 69.0034375 11.75 87.4834375 11.75 106.5234375 C7.13 106.5234375 2.51 106.5234375 -2.25 106.5234375 C-2.745 102.0684375 -2.745 102.0684375 -3.25 97.5234375 C-3.60191406 98.06613281 -3.95382812 98.60882813 -4.31640625 99.16796875 C-7.55913675 103.86696464 -10.4002116 107.44169925 -16.25 108.5234375 C-26.37796087 109.55850724 -33.10270035 107.88897958 -41.5 102.3984375 C-50.93890849 92.53048771 -51.5619715 79.34535163 -51.55078125 66.34765625 C-51.55506638 65.22003372 -51.5593515 64.09241119 -51.56376648 62.93061829 C-51.56947394 60.55995348 -51.57003672 58.18927118 -51.56567383 55.81860352 C-51.56251763 52.23097227 -51.5860067 48.6441701 -51.61132812 45.05664062 C-51.70300265 12.55258253 -51.70300265 12.55258253 -42.25 2.5234375 C-31.24304831 -6.72878276 -12.06279213 -7.91620734 0 0 Z " fill="#FCF8F9" transform="translate(993.25,310.4765625)"/>
<path d="M0 0 C6.6 0 13.2 0 20 0 C20.33 14.85 20.66 29.7 21 45 C31.09255498 22.54085513 31.09255498 22.54085513 41 0 C47.6 0 54.2 0 61 0 C57.62756748 10.11729757 57.62756748 10.11729757 56.08300781 13.52246094 C55.56797699 14.66844757 55.56797699 14.66844757 55.0425415 15.83758545 C54.68303406 16.628526 54.32352661 17.41946655 53.953125 18.234375 C53.18304931 19.95939247 52.4135341 21.68466025 51.64453125 23.41015625 C50.44326325 26.0943859 49.23795536 28.77654805 48.02294922 31.45458984 C46.8417612 34.0634623 45.67750377 36.67935754 44.515625 39.296875 C44.14802063 40.09591248 43.78041626 40.89494995 43.40167236 41.71820068 C40.97221841 47.20703242 40.97221841 47.20703242 42 53 C42.31831787 53.92965576 42.63663574 54.85931152 42.96459961 55.81713867 C43.35655518 56.8404126 43.74851074 57.86368652 44.15234375 58.91796875 C44.59473389 60.0783667 45.03712402 61.23876465 45.49291992 62.43432617 C45.97441706 63.68539549 46.45594443 64.93645317 46.9375 66.1875 C47.42915653 67.47422613 47.9204443 68.76109321 48.41137695 70.0480957 C50.66916076 75.95972699 52.94495748 81.86434072 55.23204041 87.76469421 C55.93804543 89.58609663 56.64298458 91.40791209 57.34790039 93.22973633 C58.22911712 95.50432582 59.11362973 97.77764164 60.00170898 100.04956055 C60.39688721 101.06832275 60.79206543 102.08708496 61.19921875 103.13671875 C61.54815186 104.03092529 61.89708496 104.92513184 62.2565918 105.84643555 C63 108 63 108 63 110 C56.4 110 49.8 110 43 110 C38.51940814 99.54814135 34.59074856 88.92773755 30.6875 78.25 C30.03604705 76.47387038 29.38435607 74.69782804 28.73242188 72.921875 C27.1522051 68.61558356 25.57520308 64.3081278 24 60 C20.20571607 64.79254722 20.52719487 69.49483461 20.48828125 75.33203125 C20.47033005 76.32377853 20.45237885 77.31552582 20.43388367 78.33732605 C20.37983032 81.49567451 20.34590048 84.65387225 20.3125 87.8125 C20.27932258 89.95770324 20.24483253 92.10288661 20.20898438 94.24804688 C20.12164244 99.49871903 20.06153029 104.74870834 20 110 C13.4 110 6.8 110 0 110 C0 73.7 0 37.4 0 0 Z " fill="#FEFCFD" transform="translate(1016,128)"/>
<path d="M0 0 C7.26 0 14.52 0 22 0 C22.90093384 4.46708496 22.90093384 4.46708496 23.82006836 9.02441406 C25.80294049 18.85536063 27.78682754 28.68610219 29.77121639 38.51674271 C30.97451315 44.47802285 32.17746618 50.43937193 33.37963867 56.40087891 C34.53944703 62.15223966 35.70015175 67.90341884 36.86148262 73.65447235 C37.30476485 75.85047694 37.74772207 78.04654715 38.19035149 80.24268341 C38.80955741 83.31463172 39.42991033 86.38634629 40.05053711 89.45800781 C40.2339566 90.36934982 40.4173761 91.28069183 40.60635376 92.21965027 C40.77601151 93.05815018 40.94566925 93.89665009 41.12046814 94.76055908 C41.26703322 95.48693195 41.41359831 96.21330482 41.56460476 96.961689 C41.96555113 98.97889692 41.96555113 98.97889692 42.55497074 100.82746506 C43 103 43 103 43 110 C37.06 110 31.12 110 25 110 C23.46610525 105.39831575 22.52299193 101.66372686 21.875 96.9375 C21.62363281 95.15666016 21.62363281 95.15666016 21.3671875 93.33984375 C21 90 21 90 21 85 C14.4 85 7.8 85 1 85 C1 87.97 1 90.94 1 94 C0.5651443 96.90162643 0.09503693 99.70026219 -0.5 102.5625 C-0.995 105.016875 -1.49 107.47125 -2 110 C-8.6 110 -15.2 110 -22 110 C-17.31800846 85.71462216 -12.4985302 61.46015228 -7.56591797 37.2244873 C-6.70623889 32.9988436 -5.84832907 28.77284067 -4.99023438 24.546875 C-3.32847498 16.36424678 -1.66472311 8.18202578 0 0 Z " fill="#FDFBFC" transform="translate(1130,128)"/>
<path d="M0 0 C6.31863299 3.84114592 10.26790779 8.8528906 12.37109375 15.94140625 C13.95443247 23.72699536 13.56234641 31.53629615 13.37109375 39.44140625 C6.77109375 39.44140625 0.17109375 39.44140625 -6.62890625 39.44140625 C-6.64308594 37.98347656 -6.65726563 36.52554688 -6.671875 35.0234375 C-6.71878252 33.10022903 -6.76702987 31.17705292 -6.81640625 29.25390625 C-6.82220703 28.29419922 -6.82800781 27.33449219 -6.83398438 26.34570312 C-6.98012496 21.65296672 -7.09529324 19.1698016 -9.9296875 15.30078125 C-13.25215303 13.01207851 -14.80471064 12.75131601 -18.6953125 13.0234375 C-21.89638457 13.71538641 -23.50340507 14.99385944 -25.62890625 17.44140625 C-26.5401914 21.51136084 -26.76288337 25.43434652 -26.79003906 29.59521484 C-26.79964661 30.79020599 -26.80925415 31.98519714 -26.81915283 33.21640015 C-26.82552765 35.13375473 -26.82552765 35.13375473 -26.83203125 37.08984375 C-26.83485863 37.74734241 -26.837686 38.40484108 -26.84059906 39.08226395 C-26.85553421 42.56038049 -26.86480004 46.03845616 -26.86914062 49.51660156 C-26.87462359 53.08956501 -26.8986638 56.66214709 -26.92711258 60.23499107 C-26.94582643 63.00097722 -26.95094913 65.76687294 -26.9524765 68.53291702 C-26.95693416 70.48482949 -26.97553273 72.43669336 -26.9944458 74.38851929 C-26.97768435 81.09788118 -26.66555558 86.39860346 -23.62890625 92.44140625 C-20.18965305 94.16103285 -16.39726063 93.82360589 -12.62890625 93.44140625 C-9.33959111 91.7145158 -8.81487955 90.99932615 -7.62890625 87.44140625 C-7.48243485 85.88873972 -7.38196551 84.33144963 -7.3125 82.7734375 C-7.27439209 81.9688208 -7.23628418 81.1642041 -7.19702148 80.33520508 C-7.15391846 79.31837646 -7.11081543 78.30154785 -7.06640625 77.25390625 C-6.92203125 74.01578125 -6.77765625 70.77765625 -6.62890625 67.44140625 C-0.02890625 67.44140625 6.57109375 67.44140625 13.37109375 67.44140625 C14.14906277 93.11438387 14.14906277 93.11438387 5.37109375 103.44140625 C-3.2302665 110.02968218 -12.44025693 111.24967099 -23.04296875 110.203125 C-31.1005042 108.96830146 -37.63702632 105.4802396 -42.56640625 98.87890625 C-45.89405658 93.90532135 -47.08015248 88.77835298 -47.7421875 82.89453125 C-47.82648514 82.15648254 -47.91078278 81.41843384 -47.99763489 80.65802002 C-48.85841272 72.37324273 -48.89534886 64.10475635 -48.8347168 55.78320312 C-48.81632276 53.17958828 -48.81420915 50.57632981 -48.81445312 47.97265625 C-48.76291234 21.53865807 -48.76291234 21.53865807 -45.31640625 13.94140625 C-44.90777344 13.00296875 -44.49914062 12.06453125 -44.078125 11.09765625 C-41.84377784 7.00235688 -39.42163657 3.49430588 -35.25390625 1.25390625 C-34.70992187 0.95097656 -34.1659375 0.64804688 -33.60546875 0.3359375 C-23.56474924 -4.2081826 -10.19428461 -4.45321109 0 0 Z " fill="#FCF9FA" transform="translate(548.62890625,129.55859375)"/>
<path d="M0 0 C5.9734805 5.13997159 8.95117664 11.52241231 9.6875 19.3125 C9.8878753 24.98486925 9.77690128 30.6355186 9.6875 36.3125 C3.4175 36.3125 -2.8525 36.3125 -9.3125 36.3125 C-9.6875 27.6875 -9.6875 27.6875 -9.79052734 25.00537109 C-10.01599571 20.47253869 -10.48759227 16.53719481 -12.3125 12.3125 C-16.1658697 10.31445645 -21.40221289 11.15761186 -25.625 11.5 C-27.52968525 12.20747637 -27.52968525 12.20747637 -28.40080261 14.44262695 C-29.46103327 17.78005823 -29.57350575 20.541018 -29.5871582 24.04296875 C-29.59226913 24.69891022 -29.59738007 25.35485168 -29.60264587 26.03067017 C-29.61648458 28.18720764 -29.61558977 30.34342355 -29.61328125 32.5 C-29.61717078 34.00545367 -29.62150599 35.51090625 -29.62626648 37.01635742 C-29.63371595 40.16686567 -29.63344628 43.31726183 -29.62817383 46.46777344 C-29.62237489 50.49956276 -29.63932622 54.53089334 -29.6625185 58.56260681 C-29.67726745 61.66990834 -29.67812608 64.7770996 -29.67500877 67.88442993 C-29.67552121 69.37074697 -29.68074436 70.8570703 -29.69082069 72.34335327 C-29.70319357 74.42321417 -29.69638992 76.50218402 -29.68481445 78.58203125 C-29.68544388 79.76385986 -29.6860733 80.94568848 -29.6867218 82.16333008 C-29.23900256 85.93099932 -28.01487215 88.61012785 -25.3125 91.3125 C-22.82182826 91.58982802 -22.82182826 91.58982802 -19.9375 91.625 C-18.96039063 91.66238281 -17.98328125 91.69976562 -16.9765625 91.73828125 C-14.21805292 91.56250889 -14.21805292 91.56250889 -12.5234375 89.54296875 C-10.6521868 86.09624569 -10.19033514 82.86920276 -9.99609375 78.984375 C-9.95798584 78.2634668 -9.91987793 77.54255859 -9.88061523 76.79980469 C-9.83751221 75.89649414 -9.79440918 74.99318359 -9.75 74.0625 C-9.605625 71.175 -9.46125 68.2875 -9.3125 65.3125 C-3.0425 65.3125 3.2275 65.3125 9.6875 65.3125 C10.27070775 91.1680436 10.27070775 91.1680436 2.6875 100.3125 C-3.52558932 106.52558932 -11.16656903 108.56800756 -19.75 108.8125 C-28.13900984 108.56676133 -34.61102811 106.64305637 -41.6875 102.1875 C-50.6604479 92.35998564 -51.62025244 80.64717917 -51.578125 67.94140625 C-51.58003845 66.66450424 -51.5819519 65.38760223 -51.58392334 64.07200623 C-51.58528038 61.37981416 -51.58263446 58.6879889 -51.57324219 55.99584961 C-51.56186012 52.56883108 -51.56841016 49.14212636 -51.58038712 45.71511936 C-51.58941066 42.41553759 -51.58306577 39.11599215 -51.578125 35.81640625 C-51.58217346 34.59740128 -51.58622192 33.3783963 -51.59039307 32.12245178 C-51.53520767 22.01448789 -50.80918374 11.4945209 -43.77734375 3.5859375 C-31.85786962 -7.43753972 -13.80771036 -7.0341166 0 0 Z " fill="#FDFAFB" transform="translate(481.3125,310.6875)"/>
<path d="M0 0 C6.51134287 5.06570528 9.03628609 11.70954736 10.75390625 19.59375 C10.83156709 21.03473431 10.86186992 22.47883629 10.8515625 23.921875 C10.84833984 24.72109375 10.84511719 25.5203125 10.84179688 26.34375 C10.82922852 27.58125 10.82922852 27.58125 10.81640625 28.84375 C10.81189453 29.68421875 10.80738281 30.5246875 10.80273438 31.390625 C10.79098586 33.45836401 10.77305147 35.52606624 10.75390625 37.59375 C7.60809202 37.62263514 4.46231156 37.64050923 1.31640625 37.65625 C0.41857422 37.66462891 -0.47925781 37.67300781 -1.40429688 37.68164062 C-2.68530273 37.68647461 -2.68530273 37.68647461 -3.9921875 37.69140625 C-4.78294678 37.69664307 -5.57370605 37.70187988 -6.38842773 37.70727539 C-8.24609375 37.59375 -8.24609375 37.59375 -9.24609375 36.59375 C-9.34241048 35.16393191 -9.37806866 33.7299074 -9.38671875 32.296875 C-9.40605469 31.4203125 -9.42539062 30.54375 -9.4453125 29.640625 C-9.47887907 27.79188151 -9.49737351 25.94279633 -9.5 24.09375 C-9.62689986 19.52535521 -9.75763992 17.25332881 -12.54296875 13.4921875 C-15.85192736 11.1682657 -17.40716188 10.85403402 -21.3125 11.09765625 C-24.62844098 11.94841283 -26.22049047 13.95432754 -28.24609375 16.59375 C-29.33288434 19.85412178 -29.38610152 22.26657497 -29.40722656 25.69824219 C-29.41683411 26.95674988 -29.42644165 28.21525757 -29.43634033 29.51190186 C-29.44118931 30.88814106 -29.44546789 32.26438237 -29.44921875 33.640625 C-29.45497383 35.05446371 -29.46073152 36.46830242 -29.4664917 37.88214111 C-29.47699489 40.84786339 -29.48284155 43.81355862 -29.48632812 46.77929688 C-29.49180191 50.56654791 -29.51580849 54.35343745 -29.54430008 58.14057541 C-29.56299268 61.06265277 -29.56813563 63.98464435 -29.569664 66.90677643 C-29.57267774 68.30213643 -29.58066281 69.69749538 -29.59384918 71.09279633 C-29.82326003 81.28944247 -29.82326003 81.28944247 -26.24609375 90.59375 C-23.79227241 91.82066067 -22.04625272 91.79550931 -19.30859375 91.84375 C-18.43332031 91.86953125 -17.55804687 91.8953125 -16.65625 91.921875 C-13.78855829 91.53145992 -12.9907032 90.84697599 -11.24609375 88.59375 C-10.04338411 86.18833071 -10.04292712 84.49008409 -9.9296875 81.8046875 C-9.8668457 80.39316406 -9.8668457 80.39316406 -9.80273438 78.953125 C-9.76341797 77.96828125 -9.72410156 76.9834375 -9.68359375 75.96875 C-9.64041016 74.97617187 -9.59722656 73.98359375 -9.55273438 72.9609375 C-9.44648428 70.50537967 -9.3457692 68.04958349 -9.24609375 65.59375 C-2.64609375 65.59375 3.95390625 65.59375 10.75390625 65.59375 C11.33637125 91.61051999 11.33637125 91.61051999 2.75390625 101.59375 C-5.36220002 108.43844906 -14.98552746 109.45320465 -25.24609375 108.59375 C-32.42069667 107.21324354 -38.14258322 104.69726053 -43.37109375 99.46875 C-48.10901895 92.20393136 -50.35867747 84.40101069 -50.39135742 75.76879883 C-50.39773727 74.62022903 -50.40411713 73.47165924 -50.41069031 72.2882843 C-50.41180313 71.05490829 -50.41291595 69.82153229 -50.4140625 68.55078125 C-50.4173909 67.27200607 -50.4207193 65.9932309 -50.42414856 64.67570496 C-50.43012557 61.96991126 -50.43199007 59.26414943 -50.43139648 56.55834961 C-50.43129526 53.11679306 -50.44491231 49.67544468 -50.46216869 46.23393726 C-50.47606994 42.92288279 -50.47538047 39.61186443 -50.4765625 36.30078125 C-50.48374802 35.0775264 -50.49093353 33.85427155 -50.49833679 32.59394836 C-50.46810741 21.15383529 -49.61214248 11.59481606 -41.6796875 2.87109375 C-31.03829868 -7.17773514 -12.18426861 -7.62841165 0 0 Z " fill="#FDFBFB" transform="translate(892.24609375,310.40625)"/>
<path d="M0 0 C5.08762172 2.83288027 8.4110783 6.76579309 10.5625 12.1484375 C15.99914932 32.93964033 18.85739607 60.61786322 7.953125 80.16015625 C5.02996681 84.33961557 1.27039863 87.17609381 -3.4375 89.1484375 C-9.60902225 89.97258488 -15.28780055 89.64741816 -20.72265625 86.46875 C-28.69028095 80.33422346 -30.78324717 69.84062481 -32.08203125 60.3828125 C-33.6858837 43.90724852 -35.61041385 19.73898977 -24.890625 5.62890625 C-18.03200565 -1.35877315 -9.45703521 -3.30390012 0 0 Z " fill="#A31B44" transform="translate(201.4375,289.8515625)"/>
<path d="M0 0 C15.18 0 30.36 0 46 0 C46 4.95 46 9.9 46 15 C37.75 15 29.5 15 21 15 C21 25.23 21 35.46 21 46 C27.6 46 34.2 46 41 46 C41 50.62 41 55.24 41 60 C34.4 60 27.8 60 21 60 C21 71.88 21 83.76 21 96 C29.58 96 38.16 96 47 96 C47 100.62 47 105.24 47 110 C31.49 110 15.98 110 0 110 C0 73.7 0 37.4 0 0 Z " fill="#FCF8F9" transform="translate(448,128)"/>
<path d="M0 0 C15.18 0 30.36 0 46 0 C46 4.95 46 9.9 46 15 C37.42 15 28.84 15 20 15 C20 25.23 20 35.46 20 46 C26.6 46 33.2 46 40 46 C40 50.62 40 55.24 40 60 C33.4 60 26.8 60 20 60 C20 71.88 20 83.76 20 96 C28.58 96 37.16 96 46 96 C46 100.62 46 105.24 46 110 C30.82 110 15.64 110 0 110 C0 73.7 0 37.4 0 0 Z " fill="#FEFDFD" transform="translate(572,128)"/>
<path d="M0 0 C15.18 0 30.36 0 46 0 C46 4.62 46 9.24 46 14 C37.42 14 28.84 14 20 14 C20 24.23 20 34.46 20 45 C26.93 45 33.86 45 41 45 C41.09765625 55.83984375 41.09765625 55.83984375 41 59 C40 60 40 60 38.05053711 60.11352539 C37.2178833 60.10828857 36.38522949 60.10305176 35.52734375 60.09765625 C34.71773193 60.09515869 33.90812012 60.09266113 33.07397461 60.09008789 C32.03893799 60.08098389 31.00390137 60.07187988 29.9375 60.0625 C26.658125 60.041875 23.37875 60.02125 20 60 C20 71.55 20 83.1 20 95 C28.58 95 37.16 95 46 95 C46 99.62 46 104.24 46 109 C30.82 109 15.64 109 0 109 C0 73.03 0 37.06 0 0 Z " fill="#FEFCFD" transform="translate(377,308)"/>
<path d="M0 0 C18.81 0 37.62 0 57 0 C57 4.95 57 9.9 57 15 C51.06 15 45.12 15 39 15 C39 46.35 39 77.7 39 110 C32.4 110 25.8 110 19 110 C19 78.65 19 47.3 19 15 C12.73 15 6.46 15 0 15 C0 10.05 0 5.1 0 0 Z " fill="#FEFDFD" transform="translate(688,128)"/>
<path d="M0 0 C18.81 0 37.62 0 57 0 C57 4.62 57 9.24 57 14 C51.06 14 45.12 14 39 14 C39 45.35 39 76.7 39 109 C32.4 109 25.8 109 19 109 C19 77.65 19 46.3 19 14 C12.73 14 6.46 14 0 14 C0 9.38 0 4.76 0 0 Z " fill="#FEFEFE" transform="translate(1249,308)"/>
<path d="M0 0 C6.23194815 3.49477877 9.06693454 9.02861235 11.19506836 15.65209961 C12.47063616 21.40652944 12.24016113 27.25913549 12.1875 33.125 C12.19910156 34.39794922 12.21070313 35.67089844 12.22265625 36.98242188 C12.18798744 48.34801229 11.69047639 63.23372473 3.328125 71.9921875 C-0.85811378 75.66032742 -4.42757604 76.88220894 -10 76.76953125 C-14.93798584 76.02001554 -18.60471218 73.40983404 -21.6953125 69.55859375 C-28.13744326 59.08530931 -28.67535867 46.7067487 -28.5625 34.75 C-28.57410156 33.50927734 -28.58570313 32.26855469 -28.59765625 30.99023438 C-28.56651887 21.18714868 -27.55752802 12.26353443 -21.1875 4.4375 C-14.9477765 -1.6051796 -8.12368813 -3.60027088 0 0 Z " fill="#A21B43" transform="translate(200.1875,167.5625)"/>
<path d="M0 0 C6.6 0 13.2 0 20 0 C20 35.97 20 71.94 20 109 C13.4 109 6.8 109 0 109 C0 73.03 0 37.06 0 0 Z " fill="#FDFCFC" transform="translate(810,308)"/>
<path d="M0 0 C5.33101466 2.01170365 5.33101466 2.01170365 7.15179443 4.70155334 C8.26995847 7.73152684 8.25438192 10.29486652 8.25878906 13.52514648 C8.2622937 14.17118835 8.26579834 14.81723022 8.26940918 15.48284912 C8.27819092 17.61237424 8.27238942 19.74156541 8.265625 21.87109375 C8.26697284 23.35555586 8.26891437 24.84001754 8.27142334 26.32447815 C8.27436992 29.43389086 8.27009263 32.54318856 8.26074219 35.65258789 C8.2493578 39.63163397 8.25590353 43.61040993 8.26788712 47.58944607 C8.27512683 50.65470908 8.27280793 53.71990845 8.26763153 56.78517342 C8.26630036 58.25194392 8.26792407 59.71872025 8.27259064 61.18548393 C8.27768959 63.23896374 8.26989844 65.29201123 8.25878906 67.34545898 C8.25640228 69.09607887 8.25640228 69.09607887 8.25396729 70.88206482 C7.93748707 74.76746599 7.03273824 77.66369029 4.64453125 80.75390625 C1.50059535 83.13612847 -2.15940302 83.21627935 -6 83 C-9.48726432 81.35147505 -11.38335966 80.2117044 -13.14299011 76.75401306 C-14.13594041 73.56315362 -14.26097834 70.90257896 -14.2746582 67.56079102 C-14.28419022 66.27918594 -14.29372223 64.99758087 -14.30354309 63.67713928 C-14.30328164 62.28606132 -14.30234451 60.89498335 -14.30078125 59.50390625 C-14.30467153 58.06810889 -14.30900688 56.63231268 -14.31376648 55.19651794 C-14.32121529 52.19143946 -14.32094713 49.18647849 -14.31567383 46.18139648 C-14.30988012 42.34026707 -14.32681383 38.49961999 -14.3500185 34.65857029 C-14.36478686 31.6944856 -14.36562336 28.73051626 -14.36250877 25.76640129 C-14.3630204 24.35068748 -14.36822834 22.93496695 -14.37832069 21.51928902 C-14.39072699 19.53576497 -14.3819311 17.55214305 -14.37231445 15.56860352 C-14.37294388 14.44229019 -14.3735733 13.31597687 -14.3742218 12.15553284 C-13.8495168 7.73108759 -12.29007071 4.38221861 -9.25 1.125 C-5.98163512 -0.50918244 -3.61260181 -0.37371743 0 0 Z " fill="#A21A43" transform="translate(1122,321)"/>
<path d="M0 0 C3.55997986 2.16694426 5.48915066 4.1496634 7 8 C7.26069641 10.90156555 7.26069641 10.90156555 7.2746582 14.30981445 C7.28895622 16.22749382 7.28895622 16.22749382 7.30354309 18.18391418 C7.3032816 19.57703682 7.30234423 20.97015947 7.30078125 22.36328125 C7.30467074 23.79811222 7.30900593 25.23294204 7.31376648 26.66777039 C7.32122335 29.67462902 7.32094205 32.68137024 7.31567383 35.68823242 C7.30989048 39.52817169 7.32678479 43.36762684 7.3500185 47.20748615 C7.36480515 50.17161334 7.36562069 53.1356254 7.36250877 56.09978294 C7.36301986 57.51467024 7.36821755 58.92956435 7.37832069 60.34441566 C7.46499684 74.18437453 7.46499684 74.18437453 4 80 C1.62500132 82.23529288 0.06742425 82.93889521 -3.18359375 83.125 C-7.41613221 82.90260061 -9.39515947 82.58971951 -12.5 79.5625 C-14.82629339 75.58841545 -15.13351935 73.4637876 -15.16113281 68.82543945 C-15.17074036 67.52681473 -15.1803479 66.22819 -15.19024658 64.89021301 C-15.19509583 63.46457088 -15.19937435 62.0389267 -15.203125 60.61328125 C-15.20887807 59.15317279 -15.21463579 57.69306435 -15.22039795 56.23295593 C-15.23091191 53.16710051 -15.23675122 50.10127132 -15.24023438 47.03540039 C-15.24570406 43.11921019 -15.26969725 39.20337032 -15.29820633 35.28728962 C-15.31689711 32.26827508 -15.32204183 29.2493436 -15.32357025 26.23027611 C-15.32658546 24.78746829 -15.33457557 23.34466155 -15.34775543 21.90191078 C-15.46736597 7.79550033 -15.46736597 7.79550033 -12 2 C-8.69531126 -0.81510523 -4.14466482 -0.675671 0 0 Z " fill="#A21A43" transform="translate(536,321)"/>
<path d="M0 0 C3.52488367 1.96667329 5.70121477 4.10364431 7 8 C7.10433306 10.0994138 7.14862785 12.20198759 7.16113281 14.30395508 C7.17074036 15.60573196 7.1803479 16.90750885 7.19024658 18.24873352 C7.19509497 19.67233098 7.1993737 21.09593048 7.203125 22.51953125 C7.20887922 23.98060609 7.21463692 25.44168092 7.22039795 26.90275574 C7.23090075 29.96683096 7.23674794 33.03088001 7.24023438 36.0949707 C7.24571365 40.01235101 7.26973226 43.92938279 7.29820633 47.84665394 C7.31687441 50.86562597 7.32204054 53.8845148 7.32357025 56.90353966 C7.32658857 58.34717397 7.33458936 59.79080711 7.34775543 61.23438454 C7.36489916 63.25880628 7.36107888 65.28337229 7.35644531 67.30786133 C7.36009094 68.45797195 7.36373657 69.60808258 7.36749268 70.79304504 C6.83695268 75.42284579 5.32745145 78.78967662 1.875 81.9375 C-2.26540368 83.46764919 -5.78962441 83.29852705 -10 82 C-13.8937142 78.39831436 -14.88565729 75.25956367 -15.14717102 70.09170532 C-15.15701523 68.96396698 -15.16685944 67.83622864 -15.17700195 66.67431641 C-15.18983719 65.3926358 -15.20267242 64.1109552 -15.21589661 62.79043579 C-15.22406384 61.39414864 -15.23150761 59.9978571 -15.23828125 58.6015625 C-15.24235678 57.89560314 -15.2464323 57.18964378 -15.25063133 56.46229172 C-15.27145238 52.72714281 -15.28577239 48.99203023 -15.29516602 45.25683594 C-15.30623563 41.40775765 -15.34065241 37.55925663 -15.38033772 33.71038246 C-15.40652658 30.74202426 -15.4148597 27.77380338 -15.41844749 24.80533981 C-15.4233059 23.38680487 -15.43489873 21.96827576 -15.45348549 20.54985428 C-15.47792549 18.56153635 -15.47448736 16.57293566 -15.4699707 14.58447266 C-15.47583694 13.45514313 -15.48170319 12.3258136 -15.48774719 11.16226196 C-14.88232537 7.23706784 -13.45590817 5.08787888 -11 2 C-7.30751438 -0.46165708 -4.28488597 -0.80846905 0 0 Z " fill="#A21A43" transform="translate(680,321)"/>
<path d="M0 0 C2.8125 0.625 2.8125 0.625 5 2 C7.59747037 6.31293543 8.37752176 9.53252682 8.38818359 14.53686523 C8.39764008 15.81516708 8.40709656 17.09346893 8.4168396 18.4105072 C8.41146882 19.79320589 8.4053156 21.17590174 8.3984375 22.55859375 C8.40046101 23.99056649 8.40337476 25.42253822 8.40713501 26.85450745 C8.41154677 29.84947563 8.40516564 32.84417456 8.39111328 35.83911133 C8.37403725 39.66332963 8.3838593 43.48691546 8.40183067 47.3111105 C8.41271307 50.26667475 8.40920162 53.22209108 8.4014473 56.17765999 C8.39945676 57.58695616 8.40186396 58.9962661 8.40888596 60.40554619 C8.46316619 74.3618027 8.46316619 74.3618027 5 80 C0.77005384 82.8199641 -3.03220448 82.79231188 -8 82 C-11.34625024 79.47323961 -12.67977847 77.96066458 -14 74 C-14.10419608 71.93650107 -14.14861464 69.86980095 -14.16113281 67.80371094 C-14.17074036 66.5251825 -14.1803479 65.24665405 -14.19024658 63.92938232 C-14.19509552 62.53104837 -14.19937411 61.13271233 -14.203125 59.734375 C-14.20887994 58.29811604 -14.21463763 56.86185709 -14.22039795 55.42559814 C-14.23090149 52.41279748 -14.23674794 49.40002343 -14.24023438 46.38720703 C-14.24570847 42.53942434 -14.2697156 38.69199742 -14.29820633 34.84432602 C-14.31689678 31.87592567 -14.32204177 28.90760978 -14.32357025 25.93915558 C-14.32658443 24.5214672 -14.33457101 23.10377987 -14.34775543 21.6861496 C-14.46920937 7.61942819 -14.46920937 7.61942819 -11 2 C-7.26161646 -0.4922557 -4.32019126 -0.38890176 0 0 Z " fill="#A21A42" transform="translate(905,142)"/>
<path d="M0 0 C13 0 13 0 18 4 C20.04441591 7.73228546 20.25655055 10.94984145 20.2746582 15.16381836 C20.28895622 16.99613258 20.28895622 16.99613258 20.30354309 18.86546326 C20.30263168 20.17700882 20.30172028 21.48855438 20.30078125 22.83984375 C20.30467193 24.20838042 20.30900737 25.5769159 20.31376648 26.94544983 C20.32121375 29.80929484 20.32094827 32.67301654 20.31567383 35.53686523 C20.30988037 39.19640149 20.32681385 42.85543142 20.3500185 46.514884 C20.36479114 49.34000063 20.36562279 52.16499631 20.36250877 54.99014473 C20.36326784 56.99198257 20.37711117 58.99380173 20.39118958 60.99559021 C20.38496078 62.22028519 20.37873199 63.44498016 20.37231445 64.70678711 C20.37294388 65.77980576 20.3735733 66.8528244 20.3742218 67.95835876 C19.78699107 72.73131749 17.81892836 76.97668172 14 80 C11 81 11 81 0 81 C0 54.27 0 27.54 0 0 Z " fill="#A31C44" transform="translate(397,143)"/>
<path d="M0 0 C13 0 13 0 18 4 C20.00658674 7.67971862 20.25239853 10.81289808 20.25878906 14.96435547 C20.26509338 16.14262909 20.27139771 17.32090271 20.27789307 18.53488159 C20.2738446 19.79954254 20.26979614 21.06420349 20.265625 22.3671875 C20.26753845 23.67527374 20.2694519 24.98335999 20.27142334 26.33108521 C20.27436633 29.09658547 20.27010503 31.86195624 20.26074219 34.62744141 C20.24937042 38.15675152 20.25589771 41.68575663 20.26788712 45.21505547 C20.27689256 48.59912327 20.27056795 51.98311105 20.265625 55.3671875 C20.26967346 56.62779999 20.27372192 57.88841248 20.27789307 59.18722534 C20.20326818 73.20919364 20.20326818 73.20919364 16.125 78.375 C11.16265465 82.16973468 6.3199247 81 0 81 C0 54.27 0 27.54 0 0 Z " fill="#A31C44" transform="translate(1271,143)"/>
<path d="M0 0 C13 0 13 0 18 3 C22.01344274 8.39738851 21.62158363 14.5683361 21 21 C20.14048397 25.01823744 18.49396677 27.50603323 15.5625 30.4375 C12 32 12 32 0 32 C0 21.44 0 10.88 0 0 Z " fill="#A21A43" transform="translate(1037,322)"/>
<path d="M0 0 C13.30140845 0 13.30140845 0 18 4 C21.33835293 8.97942879 21.87597225 15.18315055 21 21 C19.70061027 25.63228768 18.22318043 29.01548892 14.4375 32.0625 C11 33 11 33 0 33 C0 22.11 0 11.22 0 0 Z " fill="#A31C45" transform="translate(965,142)"/>
<path d="M0 0 C0.66 0 1.32 0 2 0 C4.15773055 4.3154611 4.28012238 9.64363044 5 14.375 C5.17789062 15.50550781 5.35578125 16.63601562 5.5390625 17.80078125 C6.67380651 25.19355378 7.45664963 32.54025217 8 40 C3.38 40 -1.24 40 -6 40 C-5.33954997 31.15604271 -3.99302242 22.53998296 -2.4375 13.8125 C-2.20076043 12.46556704 -1.96442974 11.11856215 -1.72851562 9.77148438 C-1.15634168 6.513596 -0.58008867 3.25648673 0 0 Z " fill="#A7274D" transform="translate(1140,160)"/>
</svg>
