<?xml version="1.0" encoding="UTF-8"?>
<svg version="1.1" xmlns="http://www.w3.org/2000/svg" width="1500" height="1500">
<path d="M0 0 C495 0 990 0 1500 0 C1500 495 1500 990 1500 1500 C1005 1500 510 1500 0 1500 C0 1005 0 510 0 0 Z " fill="#FD6925" transform="translate(0,0)"/>
<path d="M0 0 C3.46484375 1.3984375 3.46484375 1.3984375 6.9375 3.375 C7.5773584 3.73368164 8.2172168 4.09236328 8.87646484 4.46191406 C10.92976608 5.62146042 12.9660093 6.80694442 15 8 C15.66177246 8.38510742 16.32354492 8.77021484 17.00537109 9.16699219 C20.49371597 11.19938392 23.97025732 13.25089959 27.44140625 15.3125 C32.28386247 18.18022935 37.17073978 20.9674595 42.0625 23.75 C49.63076196 28.05932818 57.16918565 32.41661963 64.6875 36.8125 C76.33069917 43.61933677 88.00905417 50.36397035 99.69580078 57.09570312 C103.02614252 59.01506662 106.35509148 60.93682353 109.68359375 62.859375 C119.6514338 68.61613196 129.62397306 74.36356416 139.625 80.0625 C149.21350049 85.5293764 158.7547266 91.07547732 168.27734375 96.65625 C171.90394626 98.78103672 175.54044526 100.88611486 179.19140625 102.96875 C179.97805664 103.4210498 180.76470703 103.87334961 181.57519531 104.33935547 C183.01730041 105.16804659 184.4630252 105.99048568 185.91308594 106.80517578 C189.43091242 108.83799612 192.03051221 110.42384985 194 114 C194.2830797 116.92838422 194.39206425 119.64046044 194.36076355 122.56732178 C194.36332682 123.44053613 194.3658901 124.31375048 194.36853105 125.21342587 C194.37347964 128.14474932 194.35695821 131.0755598 194.34057617 134.00683594 C194.33973013 136.1059213 194.34020459 138.20500756 194.34190369 140.30409241 C194.34276597 146.00829653 194.32510245 151.71231219 194.30418181 157.41647243 C194.28545383 163.37555936 194.28366763 169.33465039 194.28010559 175.29376221 C194.27077372 186.58073954 194.24614445 197.86762991 194.21605712 209.15456891 C194.18254866 222.00325626 194.16603604 234.85194771 194.15097082 247.70066786 C194.11959593 274.13382682 194.06681321 300.56690854 194 327 C195.1720826 327.46076935 195.1720826 327.46076935 196.36784363 327.93084717 C198.79527017 328.91684101 200.97031543 330.02350367 203.23828125 331.328125 C204.04571777 331.79081787 204.8531543 332.25351074 205.68505859 332.73022461 C206.98564209 333.48251343 206.98564209 333.48251343 208.3125 334.25 C209.23111816 334.77795166 210.14973633 335.30590332 211.09619141 335.84985352 C219.05234152 340.43076871 226.97491847 345.06915959 234.89794922 349.70703125 C241.87654416 353.78395852 248.89366087 357.78699789 255.9375 361.75 C263.10765634 365.78437595 270.23921618 369.87091945 277.31835938 374.06274414 C287.02423505 379.80310887 296.81114737 385.4042661 306.58300781 391.03125 C309.96020003 392.97706866 313.33585596 394.92552291 316.7109375 396.875 C318.91144172 398.1458621 321.11196242 399.41669567 323.3125 400.6875 C324.39281494 401.31140625 325.47312988 401.9353125 326.58618164 402.578125 C332.47026244 405.97331853 338.36398832 409.35049073 344.27075195 412.70605469 C348.52148087 415.12411254 352.7613166 417.56090925 357 420 C357.92232422 420.52787109 358.84464844 421.05574219 359.79492188 421.59960938 C362.57941326 423.19921081 365.35325801 424.81592813 368.125 426.4375 C368.97304199 426.92178467 369.82108398 427.40606934 370.69482422 427.9050293 C371.47873535 428.36820557 372.26264648 428.83138184 373.0703125 429.30859375 C374.10309326 429.90885376 374.10309326 429.90885376 375.15673828 430.52124023 C378.00450084 432.80586246 379.74413426 435.2253275 380.27658534 438.91838264 C380.38735421 441.29485975 380.39968784 443.6545365 380.38095093 446.03356934 C380.38797089 447.40063404 380.38797089 447.40063404 380.39513266 448.79531622 C380.40710128 451.85002018 380.39761802 454.90427706 380.38818359 457.95898438 C380.39224846 460.14862836 380.39758986 462.33827029 380.40411377 464.52790833 C380.41780323 470.47615642 380.41248192 476.42424861 380.40297651 482.37249947 C380.3953884 488.59351145 380.40242317 494.81450996 380.40713501 501.03552246 C380.41294489 512.15264147 380.40361396 523.26969908 380.388357 534.38680595 C380.37495386 544.46509982 380.37728198 554.54329003 380.39111328 564.62158203 C380.40717048 576.32725835 380.41314247 588.03287416 380.40427649 599.7385602 C380.39959612 605.9342272 380.39898518 612.1298228 380.40888596 618.32548523 C380.41754304 624.14986477 380.41155656 629.97404827 380.39420319 635.7984066 C380.39023164 637.93778342 380.39138376 640.07717671 380.39799118 642.21654701 C380.40617021 645.1333987 380.39592893 648.04961935 380.38095093 650.96643066 C380.39098918 652.24099066 380.39098918 652.24099066 380.40123022 653.54129934 C380.3548089 658.19141066 379.9950695 661.21267298 377 665 C374.77734375 666.7109375 374.77734375 666.7109375 371.9375 668.375 C371.11958984 668.85984863 371.11958984 668.85984863 370.28515625 669.35449219 C368.19819538 670.58399392 366.09926966 671.79163145 364 673 C362.03239752 674.14296312 360.06496314 675.28621566 358.09765625 676.4296875 C347.0391496 682.84137047 335.93960234 689.18113748 324.83398438 695.51074219 C317.17249428 699.88497967 309.5560908 704.33506868 301.94091797 708.78930664 C294.63010563 713.0611031 287.28812441 717.27490697 279.92919922 721.46313477 C273.30049313 725.2417843 266.70916447 729.08185568 260.125 732.9375 C251.18301645 738.17246497 242.18799976 743.3042777 233.15722656 748.38427734 C227.52931036 751.55519394 221.93497066 754.77404553 216.375 758.0625 C215.71177734 758.45131348 215.04855469 758.84012695 214.36523438 759.24072266 C210.43039537 761.54927494 206.52653445 763.90143094 202.63671875 766.28515625 C200.77900667 767.39903951 198.92093815 768.51232855 197.0625 769.625 C196.21026855 770.15875244 195.35803711 770.69250488 194.47998047 771.24243164 C188.64313159 774.69736877 183.77053128 776.58141101 177 775 C172.38331188 773.022431 168.14958722 770.49161529 163.875 767.875 C162.63536986 767.13850807 161.39446055 766.40416533 160.15234375 765.671875 C157.62836439 764.17988798 155.11159457 762.67679829 152.60058594 761.16308594 C147.43387551 758.0513835 142.21460566 755.03047764 137 752 C135.04164084 750.85421081 133.08330784 749.70837691 131.125 748.5625 C124.44189714 744.66402333 117.72221909 740.83041599 111 737 C101.27875494 731.46014067 91.59105132 725.86625068 81.93310547 720.21655273 C74.67788284 715.97382733 67.40647504 711.76000503 60.125 707.5625 C58.50658203 706.62954102 58.50658203 706.62954102 56.85546875 705.67773438 C53.57057008 703.78470874 50.28534897 701.89224402 47 700 C43.71289555 698.10674489 40.42592682 696.21327634 37.140625 694.31689453 C34.97754966 693.07202656 32.8109113 691.83332766 30.640625 690.60107422 C25.1338351 687.46090079 19.74926594 684.21976123 14.453125 680.734375 C13.38980957 680.05576416 12.32649414 679.37715332 11.23095703 678.67797852 C9.21660081 677.3870615 7.22569072 676.05850555 5.26513672 674.68725586 C2.44771284 672.91133585 0.25947537 671.70172837 -3 671 C-7.53704973 672.18090121 -11.10212071 674.44866678 -15 677 C-16.68682947 677.97314639 -18.37679504 678.94088331 -20.0703125 679.90234375 C-21.75739332 680.91041474 -23.44221859 681.92226824 -25.125 682.9375 C-27.04225599 684.08192411 -28.96025722 685.2251004 -30.87890625 686.3671875 C-31.87422363 686.95983398 -32.86954102 687.55248047 -33.89501953 688.16308594 C-39.26044616 691.33728549 -44.66056217 694.45096468 -50.0625 697.5625 C-51.16078125 698.19526855 -52.2590625 698.82803711 -53.390625 699.47998047 C-60.97231429 703.84304929 -68.56839867 708.18057218 -76.16821289 712.51196289 C-83.82893166 716.8858612 -91.44463228 721.33549162 -99.05908203 725.78930664 C-105.51846369 729.56360181 -111.99841116 733.29893393 -118.5 737 C-125.882403 741.20255944 -133.23110687 745.45909919 -140.5625 749.75 C-149.76387682 755.13239561 -158.99624041 760.45836578 -168.25 765.75 C-169.16798874 766.27563538 -169.16798874 766.27563538 -170.10452271 766.81188965 C-171.84500981 767.80813261 -173.58654665 768.80254094 -175.328125 769.796875 C-176.3274707 770.36760742 -177.32681641 770.93833984 -178.35644531 771.52636719 C-183.71018883 774.5107776 -187.74243594 776.15957053 -194 775 C-198.55174538 773.08904145 -202.75721643 770.63155317 -207 768.125 C-208.21382295 767.4267498 -209.42859623 766.73014919 -210.64428711 766.03515625 C-214.11007503 764.04665358 -217.55594996 762.02591179 -221 760 C-222.54268879 759.10108187 -224.08561199 758.20256575 -225.62890625 757.3046875 C-228.27244548 755.75997073 -230.90769306 754.20206414 -233.5390625 752.63671875 C-239.14245845 749.31124198 -244.79157467 746.06505747 -250.4375 742.8125 C-252.09857788 741.85537109 -252.09857788 741.85537109 -253.79321289 740.87890625 C-256.06369079 739.57093309 -258.334281 738.26315487 -260.60498047 736.95556641 C-266.0716998 733.80667946 -271.53574887 730.65316736 -277 727.5 C-279.16665311 726.2499765 -281.33331979 724.99997653 -283.5 723.75 C-296.5 716.25 -309.5 708.75 -322.5 701.25 C-323.57338623 700.6307666 -324.64677246 700.0115332 -325.75268555 699.37353516 C-327.91049803 698.12858718 -330.06821353 696.8834711 -332.22583008 695.63818359 C-337.77716592 692.43447349 -343.33036541 689.2340637 -348.88671875 686.0390625 C-354.32121141 682.91339689 -359.75012031 679.77826428 -365.17431641 676.63476562 C-366.95589962 675.60405185 -368.73919906 674.57629356 -370.52490234 673.55273438 C-372.64706505 672.33594964 -374.76202017 671.10763824 -376.875 669.875 C-377.98617188 669.23304688 -379.09734375 668.59109375 -380.2421875 667.9296875 C-383.64956736 665.54548686 -386.5494626 663.36507561 -387.36760807 659.07025814 C-387.51679719 656.66857756 -387.53297374 654.29676488 -387.50793457 651.89050293 C-387.51729451 650.51118757 -387.51729451 650.51118757 -387.52684355 649.10400724 C-387.54280338 646.0215516 -387.53015739 642.93988344 -387.51757812 639.85742188 C-387.5229979 637.64807168 -387.53011974 635.4387251 -387.53881836 633.22938538 C-387.55707167 627.2273811 -387.54997574 621.2256515 -387.53730202 615.22364235 C-387.52718483 608.94657264 -387.53656413 602.66952667 -387.54284668 596.39245605 C-387.5505933 585.17511633 -387.53815172 573.95788997 -387.51780933 562.74057692 C-387.49993842 552.57129269 -387.50304257 542.4021911 -387.52148438 532.23291016 C-387.54289368 520.42175358 -387.5508568 508.61068546 -387.53903532 496.79950571 C-387.53279466 490.54792806 -387.53198059 484.29647622 -387.54518127 478.04490662 C-387.5567238 472.16794225 -387.5487429 466.29132328 -387.52560425 460.41439629 C-387.52030866 458.2556713 -387.52184538 456.09691732 -387.53065491 453.93820381 C-387.54156014 450.99490722 -387.52790711 448.05272251 -387.50793457 445.10949707 C-387.51685746 444.25200851 -387.52578034 443.39451995 -387.53497362 442.51104689 C-387.48211841 438.50479058 -387.31543463 436.49709696 -385.12001801 433.03731537 C-382.82022001 430.82723329 -380.61694865 429.31881198 -377.8359375 427.7578125 C-376.29679687 426.88286133 -376.29679687 426.88286133 -374.7265625 425.99023438 C-373.06753906 425.06694336 -373.06753906 425.06694336 -371.375 424.125 C-370.20771729 423.46528152 -369.04106118 422.80445328 -367.875 422.14257812 C-365.4538987 420.76945685 -363.03018097 419.4011325 -360.60449219 418.03613281 C-355.04408522 414.90190918 -349.52428849 411.69729676 -344 408.5 C-341.83352333 407.24967073 -339.66685602 405.99967173 -337.5 404.75 C-336.4275 404.13125 -335.355 403.5125 -334.25 402.875 C-272.49999999 367.25 -272.49999999 367.25 -269.24951172 365.37475586 C-267.08442929 364.12564482 -264.91939018 362.87645871 -262.75439453 361.62719727 C-257.31384294 358.48797691 -251.87252784 355.35009437 -246.4296875 352.21484375 C-245.33140625 351.58191406 -244.233125 350.94898438 -243.1015625 350.296875 C-241.0784209 349.13099679 -239.05502318 347.96556279 -237.03125 346.80078125 C-235.04211664 345.65422985 -233.08023861 344.45939326 -231.14480591 343.22434998 C-227.91244797 341.31404774 -224.73153642 340.27121835 -221.1401062 339.19837952 C-214.06505622 336.69836143 -207.08350163 333.61761365 -203 327 C-197.99772905 313.70755707 -200.10705497 297.06890646 -200.49634266 283.17103577 C-200.63384743 277.31399143 -200.63101706 271.45703761 -200.64251709 265.59863281 C-200.6846459 254.51511465 -200.84536996 243.43679783 -201.05232787 232.35525703 C-201.35090802 216.07946989 -201.46981661 199.80214308 -201.5893364 183.5242157 C-201.60724317 181.12136793 -201.62521367 178.71852063 -201.64324951 176.31567383 C-201.65184581 175.1426644 -201.6604421 173.96965498 -201.66929889 172.76109982 C-201.72436698 165.79236465 -201.8135764 158.82509977 -201.93351507 151.85718441 C-202.00620212 147.52933005 -202.06406292 143.20134541 -202.11979103 138.87324333 C-202.14961137 136.86638326 -202.1865768 134.85961477 -202.23119926 132.85302925 C-202.2916031 130.11450682 -202.32733262 127.37669286 -202.35748291 124.63769531 C-202.39367985 123.44675026 -202.39367985 123.44675026 -202.43060803 122.23174572 C-202.45427599 117.02049875 -201.41537189 114.15463857 -198 110 C-195.93896484 108.36352539 -195.93896484 108.36352539 -193.7109375 107.09765625 C-192.86563477 106.60797363 -192.02033203 106.11829102 -191.14941406 105.61376953 C-190.23385742 105.10185059 -189.31830078 104.58993164 -188.375 104.0625 C-187.40788086 103.50675293 -186.44076172 102.95100586 -185.44433594 102.37841797 C-183.37012717 101.18781552 -181.29253537 100.00309096 -179.21191406 98.82373047 C-176.02507867 97.01423971 -172.85067734 95.18475487 -169.6796875 93.34765625 C-164.23026732 90.19095455 -158.77358002 87.04710606 -153.31445312 83.90722656 C-147.87349435 80.77635076 -142.43694752 77.63783458 -137 74.5 C-134.83335502 73.24996242 -132.66668834 71.99996244 -130.5 70.75 C-129.4275 70.13125 -128.355 69.5125 -127.25 68.875 C-65.5 33.25 -65.5 33.25 -62.24658203 31.37304688 C-60.09128689 30.1295949 -57.93601327 28.88610564 -55.78076172 27.64257812 C-50.77662326 24.75537125 -45.7722948 21.8684957 -40.76715088 18.98303223 C-39.01658759 17.97380896 -37.26609589 16.96446164 -35.515625 15.95507812 C-33.33607835 14.6983234 -31.15640168 13.44179414 -28.9765625 12.18554688 C-27.47609375 11.32026367 -27.47609375 11.32026367 -25.9453125 10.4375 C-24.47626465 9.59832031 -24.47626465 9.59832031 -22.97753906 8.7421875 C-20.91509479 7.535431 -18.8764057 6.28749383 -16.85839844 5.0078125 C-6.89267832 -1.21334528 -6.89267832 -1.21334528 0 0 Z " fill="#FEFEFE" transform="translate(762,557)"/>
<path d="M0 0 C18.47007453 15.52336856 25.2114948 38.91095353 28 62 C28.25739213 66.52524668 28.27426139 71.0351761 28.25878906 75.56689453 C28.26404602 77.49906075 28.26404602 77.49906075 28.26940918 79.47026062 C28.27842891 82.96449606 28.2750311 86.45861171 28.26865101 89.95284891 C28.2635299 93.64214265 28.26829981 97.33142722 28.27142334 101.02072144 C28.27504813 107.2189108 28.27030603 113.4170523 28.26074219 119.61523438 C28.24988943 126.72983317 28.25336607 133.84431701 28.264395 140.95891297 C28.27354527 147.11314648 28.27471492 153.26734588 28.26951766 159.42158401 C28.26643632 163.07675099 28.26587995 166.73186444 28.27259064 170.38702774 C28.33533309 209.98799315 28.33533309 209.98799315 23.375 227.1875 C23.11775146 228.10039795 22.86050293 229.0132959 22.59545898 229.95385742 C17.54358874 247.00895943 9.46319173 261.50651232 -6 271 C-9.59787004 272.860316 -13.24305817 274.49020095 -17 276 C-17.76642822 276.32790527 -18.53285645 276.65581055 -19.32250977 276.99365234 C-28.89786385 280.59259549 -39.35926128 280.30908103 -49.4375 280.25 C-50.75298828 280.25773437 -52.06847656 280.26546875 -53.42382812 280.2734375 C-71.84426382 280.23697944 -90.05790301 277.06001028 -104.0625 264.08984375 C-108.26158076 259.53782301 -111.30701073 254.55429037 -114 249 C-114.433125 248.14019531 -114.86625 247.28039062 -115.3125 246.39453125 C-118.05507917 240.4767637 -119.68886862 234.64177094 -120.8125 228.25 C-120.93641113 227.57267822 -121.06032227 226.89535645 -121.18798828 226.19750977 C-122.41617777 218.34632201 -122 211.18266334 -122 203 C-104.84 203 -87.68 203 -70 203 C-69.34 209.6 -68.68 216.2 -68 223 C-65.9527791 230.28714283 -65.9527791 230.28714283 -61.125 235.625 C-55.61705509 238.14598997 -48.8763538 237.74888091 -43 237 C-38.95619721 235.40376206 -36.36386158 234.0670926 -34.3125 230.1875 C-27.2970125 213.87645345 -28.60231833 193.99208652 -28.8125 176.625 C-28.82760332 174.41276973 -28.84128154 172.20052925 -28.85351562 169.98828125 C-28.88600638 164.65862501 -28.93573989 159.32936322 -29 154 C-29.70970444 154.72826241 -29.70970444 154.72826241 -30.43374634 155.47123718 C-31.0584079 156.10552139 -31.68306946 156.7398056 -32.32666016 157.39331055 C-32.94417145 158.02319382 -33.56168274 158.65307709 -34.19790649 159.30204773 C-36.41315434 161.38927855 -38.57901638 162.62441687 -41.375 163.8125 C-42.22835937 164.19019531 -43.08171875 164.56789063 -43.9609375 164.95703125 C-51.40831782 167.51288028 -58.45727486 168.36290016 -66.3125 168.3125 C-67.23530762 168.30686035 -68.15811523 168.3012207 -69.10888672 168.29541016 C-83.20192905 168.04520849 -94.85213724 164.16029985 -105.25 154.375 C-120.24323035 138.47884928 -126.13941334 115.91105275 -126.16796875 94.5234375 C-126.17129715 93.63572662 -126.17462555 92.74801575 -126.17805481 91.83340454 C-126.18309166 89.96267205 -126.18546414 88.09193067 -126.18530273 86.22119141 C-126.18747775 83.40381496 -126.20563678 80.58683805 -126.22460938 77.76953125 C-126.25657637 67.64393002 -125.87680075 57.9783382 -124 48 C-123.86456787 47.2363916 -123.72913574 46.4727832 -123.58959961 45.68603516 C-120.86774097 31.37653461 -114.80356206 17.86769004 -105 7 C-104.49339844 6.401875 -103.98679688 5.80375 -103.46484375 5.1875 C-78.92020339 -21.82969627 -27.98677621 -20.20755717 0 0 Z " fill="#FEFEFE" transform="translate(242,139)"/>
<path d="M0 0 C3.61639284 1.41283723 6.90350029 2.99445287 10.26171875 4.94921875 C11.28475098 5.54226807 12.3077832 6.13531738 13.36181641 6.74633789 C14.45929199 7.38692139 15.55676758 8.02750488 16.6875 8.6875 C17.84794246 9.36159474 19.00859074 10.03533525 20.16943359 10.70874023 C22.58134125 12.10820931 24.99235586 13.50919971 27.40283203 14.91113281 C31.89378096 17.5212544 36.39561671 20.11240464 40.8972168 22.70410156 C50.24152681 28.08409459 59.56806052 33.49313349 68.875 38.9375 C77.55262241 44.01275123 86.26605568 49.02258767 95 54 C104.70347198 59.52993921 114.37390585 65.11304717 124.01416016 70.75268555 C131.7865565 75.29800381 139.57647958 79.81221025 147.375 84.3125 C148.50566895 84.96549072 149.63633789 85.61848145 150.80126953 86.29125977 C151.84395996 86.89252686 152.88665039 87.49379395 153.9609375 88.11328125 C154.88696777 88.64735596 155.81299805 89.18143066 156.76708984 89.73168945 C158.1590113 90.5223118 159.56820979 91.28410489 161 92 C161 153.38 161 214.76 161 278 C157.42169044 276.56867617 154.3869441 275.19002658 151.078125 273.3125 C150.14403809 272.78390381 149.20995117 272.25530762 148.24755859 271.71069336 C146.76376709 270.86390015 146.76376709 270.86390015 145.25 270 C144.22084473 269.41549072 143.19168945 268.83098145 142.13134766 268.22875977 C135.49992962 264.45300837 128.90444708 260.62073163 122.33911133 256.73144531 C116.90304128 253.51550618 111.42665692 250.37433788 105.9375 247.25 C98.26334191 242.88103461 90.62220271 238.4589733 83 234 C75.52259352 229.626186 68.02835075 225.28554518 60.5 221 C51.95907439 216.13804235 43.46596349 211.19765721 34.9831543 206.23510742 C27.24523051 201.71340174 19.47580018 197.24924694 11.68554688 192.81835938 C10.87794922 192.35880859 10.07035156 191.89925781 9.23828125 191.42578125 C8.53743408 191.02786377 7.83658691 190.62994629 7.11450195 190.2199707 C6.06782349 189.61608521 6.06782349 189.61608521 5 189 C3.71568447 188.44937661 3.71568447 188.44937661 2.40542316 187.88762951 C0 186 0 186 -0.61523914 182.72602558 C-0.63628795 181.34348849 -0.62943249 179.96036769 -0.60127258 178.57795715 C-0.60554471 177.81585314 -0.60981683 177.05374913 -0.61421841 176.26855105 C-0.62247501 173.70684367 -0.5949214 171.14676235 -0.56762695 168.58520508 C-0.56621705 166.75227395 -0.56700733 164.91934 -0.56983948 163.08641052 C-0.5712773 158.10302999 -0.54182837 153.12024809 -0.50696969 148.137007 C-0.47576706 142.93200078 -0.47278027 137.72698167 -0.46684265 132.52189636 C-0.45128627 122.66205824 -0.41023349 112.80249648 -0.3600952 102.9427802 C-0.30425757 91.71926307 -0.27672928 80.49573292 -0.25161803 69.27211154 C-0.19931925 46.18125432 -0.11134207 23.09064263 0 0 Z " fill="#FD6925" transform="translate(399,1020)"/>
<path d="M0 0 C2.47167969 1.16064453 2.47167969 1.16064453 4.921875 2.6328125 C6.31575439 3.45930298 6.31575439 3.45930298 7.73779297 4.30249023 C8.73182129 4.90391846 9.72584961 5.50534668 10.75 6.125 C12.91360121 7.41093269 15.07768002 8.6960621 17.2421875 9.98046875 C18.35819336 10.6461084 19.47419922 11.31174805 20.62402344 11.99755859 C26.01253101 15.19372139 31.44352595 18.31510214 36.875 21.4375 C39.05998436 22.69646096 41.24487972 23.95557638 43.4296875 25.21484375 C44.51475586 25.83987793 45.59982422 26.46491211 46.71777344 27.10888672 C52.14659942 30.23680148 57.57319281 33.36858448 63 36.5 C65.16665583 37.75001879 67.3333225 39.00001878 69.5 40.25 C82.5 47.75 95.5 55.25 108.5 62.75 C109.57435303 63.3697168 110.64870605 63.98943359 111.75561523 64.62792969 C113.90392287 65.86754312 116.05187718 67.1077691 118.19946289 68.34863281 C123.28144145 71.28397683 128.36684663 74.21285272 133.4649353 77.12011719 C135.87653083 78.49586791 138.28611876 79.87511347 140.69555664 81.25463867 C142.3999055 82.22851818 144.10714938 83.19732565 145.81445312 84.16601562 C146.84376953 84.75576172 147.87308594 85.34550781 148.93359375 85.953125 C149.84165771 86.47036133 150.74972168 86.98759766 151.68530273 87.52050781 C153.77350796 88.85523239 155.34578204 90.16933668 157 92 C156.33170166 92.3717334 155.66340332 92.7434668 154.97485352 93.12646484 C138.19311466 102.4658349 138.19311466 102.4658349 121.5859375 112.11010742 C115.27328523 115.85224409 108.92096234 119.52381678 102.5625 123.1875 C101.45527588 123.82550537 100.34805176 124.46351074 99.20727539 125.12084961 C96.93662932 126.42889477 94.66587642 127.73675448 92.39501953 129.04443359 C86.9283002 132.19332054 81.46425113 135.34683264 76 138.5 C73.83334689 139.7500235 71.66668021 141.00002347 69.5 142.25 C68.4275 142.86875 67.355 143.4875 66.25 144.125 C56.5 149.75 56.5 149.75 53.24682617 151.62670898 C51.09059787 152.87076792 48.93450951 154.11506942 46.77856445 155.35961914 C41.78550811 158.24155038 36.79127478 161.1213495 31.79167175 163.99191284 C30.05567404 164.98879783 28.32019343 165.98658314 26.5847168 166.984375 C24.35134206 168.26838491 22.11715274 169.55097919 19.88208008 170.83203125 C15.42277903 173.39809968 10.98242922 175.96788843 6.65625 178.75390625 C6.05143799 179.14263916 5.44662598 179.53137207 4.82348633 179.93188477 C3.34470411 180.89736338 1.88039566 181.88492255 0.41796875 182.875 C-2.64621127 184.3006605 -3.77822466 183.90178037 -7 183 C-9.57348633 181.73168945 -9.57348633 181.73168945 -12.33203125 180.11328125 C-13.36561768 179.51169189 -14.3992041 178.91010254 -15.46411133 178.2902832 C-16.56907959 177.63761475 -17.67404785 176.98494629 -18.8125 176.3125 C-19.97576406 175.63238652 -21.13942599 174.95295312 -22.3034668 174.27416992 C-25.29445183 172.52811341 -28.28077834 170.77424907 -31.26611328 169.01855469 C-34.95083857 166.85399908 -38.6433811 164.70281486 -42.3347168 162.54956055 C-44.32626101 161.38781281 -46.31730639 160.22520954 -48.30786133 159.06176758 C-55.53641736 154.8399953 -62.79679601 150.67683067 -70.07202148 146.53613281 C-76.70035567 142.75778879 -83.29124523 138.91790441 -89.875 135.0625 C-97.85778621 130.38908432 -105.87576775 125.78585685 -113.9375 121.25 C-122.57013338 116.39110827 -131.14182507 111.44396731 -139.66015625 106.38769531 C-143.44146005 104.14511071 -147.2278986 101.91122349 -151.01342773 99.67578125 C-155.34314929 97.11864888 -159.67164677 94.5594476 -164 92 C-161.2917449 89.10226411 -158.71363261 87.06681687 -155.24609375 85.15234375 C-154.31933838 84.63551025 -153.39258301 84.11867676 -152.43774414 83.58618164 C-151.44766357 83.0421167 -150.45758301 82.49805176 -149.4375 81.9375 C-147.34069454 80.76903864 -145.24434631 79.59975644 -143.1484375 78.4296875 C-142.10526367 77.84928711 -141.06208984 77.26888672 -139.98730469 76.67089844 C-135.8223172 74.34128301 -131.68853309 71.96026511 -127.5625 69.5625 C-126.80324219 69.12188232 -126.04398438 68.68126465 -125.26171875 68.22729492 C-117.96415195 63.98732969 -110.67869206 59.72654898 -103.39038086 55.47070312 C-92.70994494 49.23883123 -81.99722987 43.06329888 -71.28222656 36.89111328 C-64.78152037 33.14561565 -58.28374968 29.39502735 -51.78564453 25.64501953 C-46.76346298 22.74705111 -41.74072934 19.85005713 -36.71557617 16.95724487 C-34.94954478 15.94052802 -33.18372569 14.92344342 -31.41796875 13.90625 C-29.21265845 12.63599127 -27.00695784 11.36640982 -24.80078125 10.09765625 C-23.79402344 9.51757812 -22.78726563 8.9375 -21.75 8.33984375 C-20.78320312 7.7866748 -19.81640625 7.23350586 -18.8203125 6.66357422 C-16.93512845 5.55158979 -15.07494668 4.39612755 -13.2421875 3.19970703 C-12.37851562 2.64009277 -11.51484375 2.08047852 -10.625 1.50390625 C-9.87476563 0.99802979 -9.12453125 0.49215332 -8.3515625 -0.02905273 C-5.15480202 -1.34897761 -3.30754091 -0.89964899 0 0 Z " fill="#FD6925" transform="translate(948,907)"/>
<path d="M0 0 C0.3037724 23.98242287 0.53296903 47.9645572 0.67355824 71.94851685 C0.74057405 83.08498467 0.83192401 94.22025677 0.98071289 105.35595703 C1.11034711 115.06271123 1.19416963 124.76859956 1.22315043 134.47619534 C1.24009102 139.616192 1.27984865 144.75371181 1.37449074 149.89291382 C1.46290298 154.73315269 1.48992259 159.56990185 1.47039986 164.41087151 C1.47396943 166.18474256 1.49974497 167.95873307 1.54967117 169.73190498 C1.69322856 175.09461873 1.64025746 179.85935161 0 185 C-3.93060672 188.90298532 -7.91295165 190.79029733 -13 193 C-15.17358934 194.22781974 -17.33580168 195.47623842 -19.48046875 196.75390625 C-21.71499702 198.02545846 -23.95071386 199.29492382 -26.1875 200.5625 C-28.65817597 201.96765477 -31.12788106 203.37451273 -33.59765625 204.78125 C-34.21775574 205.13417618 -34.83785522 205.48710236 -35.47674561 205.85072327 C-41.70638085 209.39784056 -47.9175022 212.97679664 -54.125 216.5625 C-55.18871826 217.17681885 -56.25243652 217.7911377 -57.34838867 218.42407227 C-59.49309587 219.66292223 -61.6377088 220.90193541 -63.78222656 222.14111328 C-69.18670645 225.26324605 -74.59347412 228.38141204 -80 231.5 C-82.1666775 232.74998122 -84.33334417 233.99998121 -86.5 235.25 C-90.83333333 237.75 -95.16666667 240.25 -99.5 242.75 C-100.5734668 243.36931396 -101.64693359 243.98862793 -102.75292969 244.62670898 C-104.90980903 245.87104998 -107.06670992 247.11535364 -109.22363281 248.35961914 C-114.7902267 251.57088902 -120.35640288 254.78288013 -125.921875 257.99609375 C-131.34960383 261.12959221 -136.77848732 264.26107913 -142.20849609 267.390625 C-143.96442369 268.40296318 -145.72000799 269.4158973 -147.47509766 270.4296875 C-149.50308696 271.60096113 -151.53249124 272.76973124 -153.5625 273.9375 C-154.61566406 274.54464844 -155.66882813 275.15179687 -156.75390625 275.77734375 C-159 277 -159 277 -160 277 C-160 215.62 -160 154.24 -160 91 C-149.605 85.06 -149.605 85.06 -139 79 C-135.03725236 76.69435802 -131.07775874 74.38496761 -127.125 72.0625 C-118.18377377 66.8262583 -109.18797782 61.69570996 -100.15722656 56.61572266 C-93.84012325 53.05649985 -87.57239049 49.42439611 -81.33447266 45.72851562 C-75.89976215 42.51387082 -70.4250351 39.37349335 -64.9375 36.25 C-57.3693696 31.94043772 -49.83080874 27.58339714 -42.3125 23.1875 C-33.43133636 17.9951992 -24.53530633 12.82956969 -15.625 7.6875 C-14.49489502 7.03483154 -13.36479004 6.38216309 -12.20043945 5.7097168 C-11.15718506 5.10812744 -10.11393066 4.50653809 -9.0390625 3.88671875 C-7.65001709 3.08560669 -7.65001709 3.08560669 -6.23291016 2.26831055 C-2.23946102 0 -2.23946102 0 0 0 Z " fill="#FD6925" transform="translate(1117,1021)"/>
<path d="M0 0 C0 56.43 0 112.86 0 171 C-3.31091286 169.67563486 -6.18786896 168.4418494 -9.265625 166.75 C-10.06355469 166.31212158 -10.86148438 165.87424316 -11.68359375 165.4230957 C-12.53050781 164.95347412 -13.37742187 164.48385254 -14.25 164 C-15.14332031 163.50653076 -16.03664063 163.01306152 -16.95703125 162.50463867 C-23.0275774 159.13529127 -29.03320228 155.6705086 -35.00097656 152.12304688 C-41.95356733 147.99944131 -48.97636349 144.00076461 -56 140 C-64.33581406 135.25038251 -72.65162345 130.47274142 -80.90673828 125.58374023 C-86.3660204 122.35669491 -91.86556735 119.20304632 -97.375 116.0625 C-106.44572868 110.89005831 -115.51051441 105.70909551 -124.52636719 100.44140625 C-126.2719915 99.42421656 -128.02030073 98.41162778 -129.77050781 97.40234375 C-132.58259123 95.7789916 -135.38571226 94.14104354 -138.1875 92.5 C-139.06801025 91.99533203 -139.94852051 91.49066406 -140.85571289 90.97070312 C-141.66000732 90.49568359 -142.46430176 90.02066406 -143.29296875 89.53125 C-144.0099292 89.11423828 -144.72688965 88.69722656 -145.46557617 88.26757812 C-146.22511597 87.64012695 -146.22511597 87.64012695 -147 87 C-147 86.01 -147 85.02 -147 84 C-146.4831665 83.71914551 -145.96633301 83.43829102 -145.43383789 83.14892578 C-135.70112086 77.85111249 -126.02118091 72.49125675 -116.49267578 66.83349609 C-111.00729204 63.57984219 -105.48079157 60.40387051 -99.9375 57.25 C-92.36928284 52.940591 -84.83083615 48.58334603 -77.3125 44.1875 C-60.0602618 34.10247994 -42.74862292 24.12147404 -25.38305664 14.23291016 C-18.90350711 10.53592317 -12.46788549 6.76774015 -6.06225586 2.9440918 C-1.10542262 0 -1.10542262 0 0 0 Z " fill="#FD6A26" transform="translate(932,698)"/>
<path d="M0 0 C0 56.43 0 112.86 0 171 C-3.42711442 169.62915423 -6.27398566 168.37607666 -9.4140625 166.56640625 C-10.24719971 166.0883252 -11.08033691 165.61024414 -11.9387207 165.11767578 C-12.82519287 164.60446777 -13.71166504 164.09125977 -14.625 163.5625 C-15.55723389 163.02608887 -16.48946777 162.48967773 -17.44995117 161.93701172 C-20.30191312 160.29468751 -23.15116565 158.64774213 -26 157 C-27.58716683 156.08450927 -29.17440202 155.16913705 -30.76171875 154.25390625 C-37.36504062 150.44176672 -43.95769832 146.61164629 -50.5390625 142.76171875 C-61.43273456 136.39034437 -72.35021685 130.064897 -83.3125 123.8125 C-83.90944672 123.4720163 -84.50639343 123.13153259 -85.12142944 122.7807312 C-85.71452911 122.44244293 -86.30762878 122.10415466 -86.91870117 121.75561523 C-95.79444256 116.69278211 -104.65214894 111.60042002 -113.48486328 106.46289062 C-115.32398306 105.39319486 -117.16356613 104.32429553 -119.00341797 103.25585938 C-122.2323498 101.38045728 -125.46008411 99.50300952 -128.6875 97.625 C-129.69200195 97.04153809 -130.69650391 96.45807617 -131.73144531 95.85693359 C-137.21530284 92.66154972 -142.63821999 89.39643004 -148 86 C-145.68061309 83.44698211 -143.28338472 81.88270455 -140.2734375 80.21484375 C-138.86263916 79.42678345 -138.86263916 79.42678345 -137.42333984 78.62280273 C-135.91441162 77.78857788 -135.91441162 77.78857788 -134.375 76.9375 C-132.27017216 75.76159936 -130.16600953 74.58450727 -128.0625 73.40625 C-127.02609375 72.82617188 -125.9896875 72.24609375 -124.921875 71.6484375 C-121.04338919 69.4603078 -117.20399983 67.21080816 -113.375 64.9375 C-107.26258546 61.31492111 -101.11251342 57.76480455 -94.9375 54.25 C-87.36936906 49.94043742 -79.83083812 45.58334718 -72.3125 41.1875 C-54.94239132 31.03357722 -37.51225231 20.98417824 -20.03149414 11.02197266 C-14.32062032 7.76488878 -8.63881341 4.46370287 -2.984375 1.109375 C-1 0 -1 0 0 0 Z " fill="#FD6925" transform="translate(746,1020)"/>
<path d="M0 0 C0 56.1 0 112.2 0 170 C-4.34474663 168.55175112 -7.30399545 167.41967407 -11.09765625 165.1640625 C-12.05285156 164.60074219 -13.00804687 164.03742188 -13.9921875 163.45703125 C-15.00539063 162.85246094 -16.01859375 162.24789062 -17.0625 161.625 C-19.22998181 160.34552892 -21.39795935 159.06689728 -23.56640625 157.7890625 C-24.65066895 157.1487207 -25.73493164 156.50837891 -26.85205078 155.84863281 C-31.37789765 153.19082977 -35.93631451 150.59211355 -40.5 148 C-49.05540934 143.13098834 -57.56161049 138.18107586 -66.05859375 133.2109375 C-72.51817012 129.43661617 -78.99825333 125.70115591 -85.5 122 C-92.88240108 117.79744166 -100.23119733 113.54105339 -107.5625 109.25 C-120.98261573 101.39643459 -134.48763208 93.69337094 -148 86 C-148 85.34 -148 84.68 -148 84 C-146.9790625 83.44054687 -145.958125 82.88109375 -144.90625 82.3046875 C-135.04898688 76.87822603 -125.29923061 71.28692428 -115.59179688 65.59716797 C-107.75806094 61.01111723 -99.88737844 56.49280879 -92 52 C-82.16084279 46.39424103 -72.35909918 40.72806199 -62.5859375 35.0078125 C-55.40527863 30.80870891 -48.19174272 26.67067737 -40.96264648 22.55566406 C-32.96948817 17.99858209 -25.02188395 13.36462999 -17.08007812 8.71875 C-15.21466548 7.62754043 -13.34850446 6.53760875 -11.48144531 5.44921875 C-9.92555242 4.54054301 -8.372369 3.62719451 -6.82324219 2.70703125 C-2.21891447 0 -2.21891447 0 0 0 Z " fill="#FD6925" transform="translate(746,806)"/>
<path d="M0 0 C17.04180602 9.08896321 17.04180602 9.08896321 22.8125 12.5625 C29.98814308 16.8282517 37.20393812 21.02074119 44.4375 25.1875 C45.54391846 25.82502197 46.65033691 26.46254395 47.7902832 27.11938477 C50.06173458 28.42793295 52.33330128 29.73628095 54.60498047 31.04443359 C60.0716998 34.19332054 65.53574887 37.34683264 71 40.5 C73.16665311 41.7500235 75.33331979 43.00002347 77.5 44.25 C81.83333333 46.75 86.16666667 49.25 90.5 51.75 C91.57362793 52.36939453 92.64725586 52.98878906 93.75341797 53.62695312 C95.90871311 54.8704051 98.06398673 56.11389436 100.21923828 57.35742188 C105.22337674 60.24462875 110.2277052 63.1315043 115.23284912 66.01696777 C116.98341241 67.02619104 118.73390411 68.03553836 120.484375 69.04492188 C122.66392165 70.3016766 124.84359832 71.55820586 127.0234375 72.81445312 C134.02861283 76.85416442 141.01858507 80.9193684 148 85 C145.07370751 88.17440814 142.15654511 90.2534503 138.3984375 92.36328125 C137.28194824 92.99500244 136.16545898 93.62672363 135.01513672 94.27758789 C133.80176234 94.95590002 132.58838331 95.63420384 131.375 96.3125 C130.11301227 97.02454459 128.85146267 97.73736621 127.59033203 98.45092773 C125.64596335 99.55093263 123.70133341 100.65044428 121.75534058 101.74757385 C115.43720944 105.30991389 109.15340573 108.93064676 102.875 112.5625 C100.72659533 113.80344225 98.5781578 115.04432762 96.4296875 116.28515625 C95.36975586 116.89762207 94.30982422 117.51008789 93.21777344 118.14111328 C87.81329355 121.26324605 82.40652588 124.38141204 77 127.5 C74.8333225 128.74998122 72.66665583 129.99998121 70.5 131.25 C57.5 138.75 57.5 138.75 54.24609375 140.62719727 C52.0923828 141.86976019 49.93873633 143.11243489 47.78515625 144.35522461 C42.76315738 147.25314623 37.74057193 150.15003349 32.71557617 153.04275513 C30.94954478 154.05947198 29.18372569 155.07655658 27.41796875 156.09375 C25.21265845 157.36400873 23.00695784 158.63359018 20.80078125 159.90234375 C15.13585991 163.16638294 9.51676466 166.48428892 3.9609375 169.93139648 C2 171 2 171 0 171 C0 114.57 0 58.14 0 0 Z " fill="#FD6925" transform="translate(585,698)"/>
<path d="M0 0 C6.93 3.96 6.93 3.96 14 8 C18.44726163 10.48754233 18.44726163 10.48754233 22.89819336 12.96850586 C34.31696603 19.32267404 45.63636596 25.83021427 56.91015625 32.4375 C63.21570419 36.1321331 69.54294436 39.78852681 75.875 43.4375 C77.49523071 44.37130493 77.49523071 44.37130493 79.14819336 45.32397461 C81.33796334 46.58576826 83.52782355 47.84740534 85.71777344 49.10888672 C91.14659943 52.23680149 96.57318635 55.36859566 102 58.5 C104.14191898 59.73569114 106.28384609 60.97136817 108.42578125 62.20703125 C112.40462432 64.50249458 116.38330773 66.79823414 120.36178589 69.09432983 C122.15066918 70.12673478 123.93958717 71.15907956 125.72851562 72.19140625 C127.97337636 73.48685948 130.2181719 74.7824257 132.46289062 76.078125 C137.63571774 79.06307914 142.81145009 82.04245317 148 85 C148 85.66 148 86.32 148 87 C147.51982422 87.25990723 147.03964844 87.51981445 146.54492188 87.78759766 C134.32137607 94.41970494 122.2614979 101.29750835 110.265625 108.33203125 C103.90228965 112.06325971 97.51650445 115.75478058 91.125 119.4375 C89.50537354 120.37094238 89.50537354 120.37094238 87.85302734 121.32324219 C85.66285466 122.58528726 83.47258757 123.84716852 81.28222656 125.10888672 C75.85340062 128.23680146 70.42677993 131.36853731 65 134.5 C58.47766725 138.26363919 51.95486238 142.02644622 45.4296875 145.78515625 C43.24478807 147.04426459 41.05989221 148.30337914 38.875 149.5625 C37.81474609 150.17295166 36.75449219 150.78340332 35.66210938 151.41235352 C30.12784828 154.60282634 24.60590431 157.81287582 19.1015625 161.0546875 C17.99312988 161.70622803 16.88469727 162.35776855 15.74267578 163.02905273 C13.62162506 164.2773778 11.50271524 165.52934949 9.38623047 166.78540039 C8.44408691 167.3396167 7.50194336 167.89383301 6.53125 168.46484375 C5.28698242 169.20142212 5.28698242 169.20142212 4.01757812 169.95288086 C2 171 2 171 0 171 C0 114.57 0 58.14 0 0 Z " fill="#FD6925" transform="translate(585,1127)"/>
<path d="M0 0 C3.49472611 1.39789045 6.44993488 2.71716195 9.67578125 4.546875 C11.02216675 5.30846924 11.02216675 5.30846924 12.39575195 6.08544922 C13.35827881 6.63475098 14.32080566 7.18405273 15.3125 7.75 C16.32723389 8.32637207 17.34196777 8.90274414 18.38745117 9.49658203 C27.5780878 14.73040401 36.71188214 20.06024042 45.83984375 25.40234375 C55.43942238 31.01678675 65.08135951 36.5580032 74.71777344 42.10888672 C81.2235961 45.8573323 87.72644083 49.61094181 94.22973633 53.36376953 C99.75737281 56.55328795 105.28599381 59.74107821 110.81640625 62.92578125 C122.91186046 69.89322882 134.98785531 76.88974723 147 84 C145.78416075 87.64751775 144.99712003 87.85255743 141.71484375 89.64453125 C140.80452393 90.14895752 139.8942041 90.65338379 138.95629883 91.1730957 C137.96009521 91.71409912 136.9638916 92.25510254 135.9375 92.8125 C133.81423372 93.98801246 131.69186414 95.1651458 129.5703125 96.34375 C128.4762207 96.94960938 127.38212891 97.55546875 126.25488281 98.1796875 C121.23328177 100.98804764 116.27283958 103.89771275 111.3125 106.8125 C102.57449896 111.9333917 93.79984375 116.98647309 85 122 C75.28379177 127.5367641 65.60103355 133.1274309 55.94848633 138.7746582 C47.45579786 143.74149363 38.93880537 148.66539685 30.41162109 153.57275391 C25.33368216 156.49571405 20.2612825 159.42685734 15.20703125 162.390625 C14.32249268 162.90794189 13.4379541 163.42525879 12.52661133 163.95825195 C10.88502193 164.91934869 9.24541511 165.8838427 7.6081543 166.85229492 C2.22307717 170 2.22307717 170 0 170 C0 113.9 0 57.8 0 0 Z " fill="#FD6925" transform="translate(771,806)"/>
<path d="M0 0 C8.9843408 9.292627 9.45856304 20.72825598 9.3984375 33.06640625 C9.40130768 34.38108383 9.40417786 35.69576141 9.40713501 37.05027771 C9.41152335 39.81447092 9.40524061 42.57837059 9.39111328 45.3425293 C9.37400612 48.85805104 9.38389389 52.37288613 9.40183067 55.88838291 C9.41537015 59.28111019 9.40584987 62.67365958 9.3984375 66.06640625 C9.40754654 67.93867638 9.40754654 67.93867638 9.4168396 69.84877014 C9.33009987 80.71825577 7.57060785 90.74559531 0 99 C-10.27643014 106.3603833 -21.80220236 106.05936208 -34 105 C-41.0584757 103.22543396 -46.0747476 99.06984395 -50 93 C-53.2588314 86.59471069 -54.11272615 80.73829307 -54.17700195 73.6184082 C-54.19625481 71.75035271 -54.19625481 71.75035271 -54.21589661 69.84455872 C-54.22406719 68.49663701 -54.23151031 67.14871072 -54.23828125 65.80078125 C-54.24235678 65.11392935 -54.2464323 64.42707745 -54.25063133 63.71941185 C-54.27142181 60.0822315 -54.2857525 56.44508806 -54.29516602 52.80786133 C-54.30620392 49.08039111 -54.34059295 45.35352215 -54.38033772 41.62626362 C-54.40667093 38.73405462 -54.41487258 35.84198526 -54.41844749 32.94966698 C-54.42327204 31.57712948 -54.43476571 30.20459643 -54.45348549 28.83217812 C-54.58396103 18.63110373 -53.36903465 10.35081973 -47.875 1.625 C-35.26902744 -9.88480103 -13.31948278 -10.95157473 0 0 Z " fill="#FEFCFB" transform="translate(1065,132)"/>
<path d="M0 0 C6.469415 5.27215313 9.84327208 11.21458921 11.53125 19.3359375 C11.6327717 21.39623024 11.67958949 23.45946399 11.69238281 25.5222168 C11.70199036 26.77419357 11.7115979 28.02617035 11.72149658 29.31608582 C11.72634627 30.68077409 11.73062468 32.04546451 11.734375 33.41015625 C11.73861607 34.44692977 11.73861607 34.44692977 11.74294281 35.50464821 C11.75791575 39.16545619 11.76715595 42.82622498 11.77148438 46.48706055 C11.77695292 50.24830412 11.80095169 54.00918274 11.82945633 57.77031231 C11.84818871 60.67960108 11.853294 63.58880401 11.85482025 66.49814796 C11.85782564 67.88348183 11.86578179 69.26881496 11.87900543 70.65408897 C11.94781079 78.41888923 11.7290714 85.18303334 8.53125 92.3359375 C8.24115051 92.9882988 7.95105103 93.6406601 7.65216064 94.31278992 C4.86571803 100.2090771 -0.18789416 103.88879263 -6.0546875 106.4765625 C-15.39865217 108.82859022 -28.70301552 109.37722115 -37.53125 105.2109375 C-44.67322461 100.59117375 -48.00100822 94.27142087 -50.46875 86.3359375 C-51.25482004 82.28238328 -51.60232844 78.43158546 -51.62988281 74.30566406 C-51.63949036 73.13714905 -51.6490979 71.96863403 -51.65899658 70.76470947 C-51.66324646 69.51462097 -51.66749634 68.26453247 -51.671875 66.9765625 C-51.67757507 65.67700623 -51.68327515 64.37744995 -51.68914795 63.03851318 C-51.69961962 60.29162204 -51.70548705 57.54475982 -51.70898438 54.79785156 C-51.71445625 51.30355083 -51.7384721 47.80964223 -51.76695633 44.31546402 C-51.79022908 40.95250558 -51.79204178 37.58959716 -51.796875 34.2265625 C-51.8092218 32.98457092 -51.8215686 31.74257935 -51.83428955 30.46295166 C-51.80738226 19.87321687 -50.39131688 10.78108381 -43.0078125 2.74609375 C-32.35385071 -7.48270994 -12.06379961 -8.13161176 0 0 Z " fill="#FEFCFB" transform="translate(1330.46875,129.6640625)"/>
<path d="M0 0 C44.23943662 0 44.23943662 0 54 9 C60.68576909 17.13753609 60.30810523 27.5821016 60.30078125 37.51953125 C60.30506638 38.81388596 60.3093515 40.10824066 60.31376648 41.44181824 C60.32119281 44.17259842 60.32096428 46.90324925 60.31567383 49.6340332 C60.30989248 53.10355249 60.32679479 56.57253561 60.3500185 60.04196644 C60.36844833 63.38867518 60.36456736 66.7352723 60.36328125 70.08203125 C60.372491 71.31258743 60.38170074 72.54314362 60.39118958 73.81098938 C60.33815632 83.81172393 59.11342432 93.79514104 53 102 C37.59464899 114.92254687 20.78084988 110 0 110 C0 73.7 0 37.4 0 0 Z " fill="#FEFCFB" transform="translate(430,126)"/>
<path d="M0 0 C44.97641258 0 44.97641258 0 53.30859375 7.89453125 C56.22545595 11.52545209 57.6361542 15.59254351 59 20 C59.495 21.485 59.495 21.485 60 23 C60.09855884 24.9052122 60.13823833 26.81368871 60.14526367 28.72143555 C60.15164352 29.89663254 60.15802338 31.07182953 60.16459656 32.28263855 C60.16570938 33.55448502 60.1668222 34.82633148 60.16796875 36.13671875 C60.17296135 38.09953545 60.17296135 38.09953545 60.17805481 40.102005 C60.18404362 42.875222 60.18589513 45.64840785 60.18530273 48.42163086 C60.1852015 51.95760394 60.19881492 55.49337449 60.21607494 59.02929974 C60.22994475 62.41927538 60.22928597 65.80921515 60.23046875 69.19921875 C60.23765427 70.46094406 60.24483978 71.72266937 60.25224304 73.02262878 C60.22590758 83.21704061 58.95529833 92.41863036 53 101 C37.72615669 114.47202876 21.66559634 109 0 109 C0 73.03 0 37.06 0 0 Z " fill="#FEFDFC" transform="translate(467,306)"/>
<path d="M0 0 C44.84313725 0 44.84313725 0 52.83984375 7.79296875 C59.37476198 14.91589598 60.36233673 20.25254459 60.375 29.75 C60.39949219 30.70132812 60.42398438 31.65265625 60.44921875 32.6328125 C60.47568543 39.07303769 59.61040838 44.54046258 56 50 C54.76552067 51.04454687 53.49280979 52.04544057 52.1875 53 C50.33316407 54.35710728 50.33316407 54.35710728 49 56 C49.17606544 63.15529963 51.17312181 69.69059923 53.25 76.5 C53.56138916 77.54575195 53.87277832 78.59150391 54.19360352 79.66894531 C55.39008444 83.68322329 56.60399722 87.69212694 57.81787109 91.70117188 C58.30657905 93.31778876 58.7935203 94.93494126 59.27832031 96.55273438 C59.70577117 97.97757056 60.13840366 99.40086652 60.57714844 100.82226562 C61.55892263 104.0859564 62 106.5431869 62 110 C55.4 110 48.8 110 42 110 C40.12720521 104.38161562 38.42833269 99.07197618 37.02734375 93.3671875 C36.85876358 92.68625031 36.69018341 92.00531311 36.51649475 91.30374146 C35.98674061 89.16165403 35.46183998 87.01841845 34.9375 84.875 C34.40874748 82.72465911 33.87892895 80.57458878 33.34779358 78.42483521 C32.86773792 76.48018363 32.39068527 74.53479144 31.91381836 72.58935547 C31.00908248 69.03567475 30.02502192 65.52042013 29 62 C26.36 61.67 23.72 61.34 21 61 C21 77.5 21 94 21 111 C14.07 111 7.14 111 0 111 C0 74.37 0 37.74 0 0 Z " fill="#FEFAF8" transform="translate(714,305)"/>
<path d="M0 0 C45.74468085 0 45.74468085 0 55.0625 8.9375 C59.35630418 15.72448081 60.53317063 20.87557473 60.4375 28.8125 C60.42847656 29.6996167 60.41945313 30.5867334 60.41015625 31.50073242 C60.21269972 38.95814434 59.59322691 45.50399433 54.00585938 50.94018555 C53.29236328 51.5412915 52.57886719 52.14239746 51.84375 52.76171875 C51.12380859 53.37362061 50.40386719 53.98552246 49.66210938 54.6159668 C49.11361328 55.07269775 48.56511719 55.52942871 48 56 C48.1451001 56.53028809 48.2902002 57.06057617 48.43969727 57.60693359 C49.99181524 63.28211057 51.53924104 68.95855355 53.08398438 74.63574219 C53.70678224 76.92309682 54.33051461 79.21019716 54.95507812 81.49707031 C55.91046522 84.99726121 56.86185683 88.49851806 57.8125 92 C58.11422119 93.10263184 58.41594238 94.20526367 58.72680664 95.34130859 C59.00903076 96.38367676 59.29125488 97.42604492 59.58203125 98.5 C59.83186768 99.4178125 60.0817041 100.335625 60.33911133 101.28125 C61.03793218 104.15604463 61.51362358 107.08174149 62 110 C55.4 110 48.8 110 42 110 C40.04624371 104.13873112 38.2474086 98.42907514 36.7734375 92.45703125 C36.58028961 91.6849382 36.38714172 90.91284515 36.18814087 90.11735535 C35.78486154 88.50191843 35.38329547 86.8860529 34.98339844 85.26977539 C34.37362931 82.80696388 33.75753527 80.34579695 33.140625 77.88476562 C32.74702216 76.30478054 32.35378038 74.72470546 31.9609375 73.14453125 C31.77864594 72.4162764 31.59635437 71.68802155 31.40853882 70.93769836 C30.43192579 66.9766245 29.6112192 63.03380953 29 59 C26.03 59 23.06 59 20 59 C20 75.83 20 92.66 20 110 C13.4 110 6.8 110 0 110 C0 73.7 0 37.4 0 0 Z " fill="#FEFDFC" transform="translate(1294,306)"/>
<path d="M0 0 C42.08 0 42.08 0 52.625 7.125 C59.73652954 14.40439827 60.57662525 22.61969857 60.4753418 32.375 C60.17948437 40.13412578 58.54028253 46.0260107 53.4375 52 C51 54 51 54 48 56 C49.81694707 64.43673325 51.90475264 72.77864965 54.26953125 81.078125 C54.57249367 82.14256836 54.57249367 82.14256836 54.88157654 83.22851562 C55.91099119 86.83584658 56.95085925 90.43987316 58.00170898 94.04101562 C58.39189353 95.39709825 58.78195403 96.75321657 59.171875 98.109375 C59.6992627 99.91873535 59.6992627 99.91873535 60.23730469 101.76464844 C61 105 61 105 61 110 C54.4 110 47.8 110 41 110 C40.2575 107.009375 39.515 104.01875 38.75 100.9375 C34.54902367 83.92591778 34.54902367 83.92591778 29.515625 67.1484375 C28.92961624 64.70673435 28.91220813 62.50206842 29 60 C26.03 60 23.06 60 20 60 C20 76.5 20 93 20 110 C13.4 110 6.8 110 0 110 C0 73.7 0 37.4 0 0 Z " fill="#FEFDFC" transform="translate(677,126)"/>
<path d="M0 0 C44.31980907 0 44.31980907 0 54 8 C60.6500436 16.01415511 60.85725898 25.94177259 60.24707031 35.89355469 C59.50824185 42.1925784 57.21087732 48.0396662 52.44921875 52.26171875 C50 54 50 54 48 55 C49.37010598 62.549221 51.26638225 69.87632679 53.375 77.25 C53.68445557 78.34666992 53.99391113 79.44333984 54.31274414 80.57324219 C55.6330198 85.24376482 56.96572589 89.90982328 58.34765625 94.5625 C58.88712891 96.3878125 58.88712891 96.3878125 59.4375 98.25 C59.74558594 99.26578125 60.05367187 100.2815625 60.37109375 101.328125 C61 104 61 104 61 109 C54.4 109 47.8 109 41 109 C40.56429687 107.30617188 40.12859375 105.61234375 39.6796875 103.8671875 C35.90052111 89.21238452 32.02699771 74.58864738 28 60 C25.36 59.67 22.72 59.34 20 59 C20 75.5 20 92 20 109 C13.4 109 6.8 109 0 109 C0 73.03 0 37.06 0 0 Z " fill="#FEFCFC" transform="translate(963,306)"/>
<path d="M0 0 C4.95 0 9.9 0 15 0 C17.75796211 6.33085507 20.51466777 12.66225527 23.27026367 18.99414062 C24.20579974 21.1433756 25.14166541 23.29246713 26.07788086 25.44140625 C27.43171718 28.54909239 28.78432547 31.65731066 30.13671875 34.765625 C30.54838791 35.70988342 30.96005707 36.65414185 31.38420105 37.62701416 C34.32565725 44.39208574 37.16186132 51.18846716 40 58 C40.33 38.86 40.66 19.72 41 0 C46.61 0 52.22 0 58 0 C58 36.3 58 72.6 58 110 C53.38 110 48.76 110 44 110 C43.52691406 108.85748779 43.05382813 107.71497559 42.56640625 106.5378418 C40.77025713 102.20053159 38.97336242 97.86353057 37.17626953 93.52661133 C36.40621697 91.66796848 35.63635287 89.80924753 34.86669922 87.95043945 C33.74499242 85.24148089 32.62255227 82.53282706 31.5 79.82421875 C31.16943604 79.02545822 30.83887207 78.22669769 30.49829102 77.4037323 C26.70403045 68.25262049 22.84451154 59.13071491 19 50 C18.67 69.8 18.34 89.6 18 110 C12.06 110 6.12 110 0 110 C0 73.7 0 37.4 0 0 Z " fill="#FEFBF9" transform="translate(1349,126)"/>
<path d="M0 0 C4.95 0 9.9 0 15 0 C15.96679688 2.25972656 16.93359375 4.51945313 17.9296875 6.84765625 C18.9060943 9.12856605 19.88272527 11.40937975 20.859375 13.69018555 C21.51878671 15.23045082 22.17797919 16.77080997 22.83691406 18.3112793 C28.5060286 31.56392474 34.25247357 44.78068922 40 58 C40.33 38.86 40.66 19.72 41 0 C46.61 0 52.22 0 58 0 C58 36.3 58 72.6 58 110 C53.38 110 48.76 110 44 110 C41.56402737 104.18769908 39.12875993 98.37510334 36.6940918 92.56225586 C35.86908118 90.59277744 35.04389164 88.62337396 34.21850586 86.65405273 C33.01887456 83.79171057 31.81992928 80.92908179 30.62109375 78.06640625 C30.26349472 77.21357559 29.90589569 76.36074493 29.53746033 75.48207092 C25.98793142 67.00284772 22.50015918 58.50038657 19 50 C18.67 69.8 18.34 89.6 18 110 C12.06 110 6.12 110 0 110 C0 73.7 0 37.4 0 0 Z " fill="#FEFAF8" transform="translate(879,126)"/>
<path d="M0 0 C4.62 0 9.24 0 14 0 C17.92466669 7.64164116 21.40128696 15.40336855 24.75 23.3125 C25.72386908 25.60029841 26.69783021 27.88805764 27.671875 30.17578125 C28.77015625 32.75777344 29.8684375 35.33976562 31 38 C33.97 44.93 36.94 51.86 40 59 C40.33 39.53 40.66 20.06 41 0 C46.61 0 52.22 0 58 0 C58 36.63 58 73.26 58 111 C53.38 111 48.76 111 44 111 C41.26013581 104.43931259 38.52175599 97.87800821 35.78466797 91.31616211 C34.85602553 89.09041173 33.92699861 86.86482173 32.99755859 84.6394043 C31.65097106 81.41498667 30.30583181 78.18996792 28.9609375 74.96484375 C28.55442963 73.99232162 28.14792175 73.0197995 27.72909546 72.01780701 C24.4053335 64.04115492 21.21044614 56.02611535 18 48 C17.67 68.79 17.34 89.58 17 111 C11.39 111 5.78 111 0 111 C0 74.37 0 37.74 0 0 Z " fill="#FEFAF8" transform="translate(398,305)"/>
<path d="M0 0 C5.61 0 11.22 0 17 0 C17 36.63 17 73.26 17 111 C12.71 111 8.42 111 4 111 C-1.72673242 98.95605374 -6.75424271 86.64824999 -11.8125 74.3125 C-13.11640163 71.13894338 -14.42108412 67.9657101 -15.72648621 64.79277039 C-16.53327088 62.83112665 -17.33906196 60.86907391 -18.14375305 58.90657043 C-18.50470566 58.0277269 -18.86565826 57.14888336 -19.23754883 56.2434082 C-19.55476395 55.46987503 -19.87197906 54.69634186 -20.19880676 53.89936829 C-20.7552711 52.58017253 -21.35969851 51.28060299 -22 50 C-22.33 70.13 -22.66 90.26 -23 111 C-28.61 111 -34.22 111 -40 111 C-40 74.7 -40 38.4 -40 1 C-35.38 1 -30.76 1 -26 1 C-21.23703672 10.9689929 -16.76344483 21.04940353 -12.375 31.1875 C-12.09782135 31.82721741 -11.8206427 32.46693481 -11.5350647 33.1260376 C-7.95655394 41.39096699 -4.46443874 49.68534701 -1 58 C-0.67 38.86 -0.34 19.72 0 0 Z " fill="#FEFDFC" transform="translate(636,305)"/>
<path d="M0 0 C4.62 0 9.24 0 14 0 C20.24265371 13.46944343 26.21787499 27.04164646 32.0625 40.6875 C32.39927765 41.47283112 32.7360553 42.25816223 33.08303833 43.06729126 C34.04793807 45.31888085 35.01078773 47.57133279 35.97265625 49.82421875 C36.26390381 50.50459198 36.55515137 51.18496521 36.85522461 51.88595581 C37.99847262 54.57142993 39.0765026 57.2295078 40 60 C40.33 40.2 40.66 20.4 41 0 C46.28 0 51.56 0 57 0 C57 36.3 57 72.6 57 110 C52.71 110 48.42 110 44 110 C41.0824846 104.3168343 38.49032416 98.58054096 36.06640625 92.671875 C35.52668434 91.36648773 35.52668434 91.36648773 34.97605896 90.034729 C33.83543383 87.27428734 32.69886546 84.51219754 31.5625 81.75 C30.8043121 79.91264665 30.04585076 78.07540611 29.28710938 76.23828125 C28.20904904 73.62773209 27.13134023 71.01704562 26.05580139 68.40545654 C23.38853469 61.92924609 20.69391642 55.46539941 18 49 C17.67 69.13 17.34 89.26 17 110 C11.39 110 5.78 110 0 110 C0 73.7 0 37.4 0 0 Z " fill="#FEFEFD" transform="translate(946,126)"/>
<path d="M0 0 C4.62 0 9.24 0 14 0 C17.33854926 6.55757744 20.44721232 13.14513083 23.3203125 19.91796875 C23.70565155 20.81945145 24.0909906 21.72093414 24.48800659 22.6497345 C25.70321444 25.4944389 26.91419361 28.34091982 28.125 31.1875 C28.94372748 33.10624054 29.76273569 35.02486133 30.58203125 36.94335938 C32.38712364 41.17148121 34.18955759 45.40072436 35.98953247 49.63102722 C37.32235061 52.75572921 38.6618238 55.87758888 40 59 C40.33 39.53 40.66 20.06 41 0 C46.28 0 51.56 0 57 0 C57 36.3 57 72.6 57 110 C52.71 110 48.42 110 44 110 C39.57836942 100.51503102 35.57320856 90.87351041 31.5793457 81.20239258 C30.43830816 78.4394569 29.29459427 75.67764144 28.15039062 72.91601562 C27.41130269 71.13027274 26.67236531 69.34446754 25.93359375 67.55859375 C25.59806992 66.74788925 25.26254608 65.93718475 24.91685486 65.10191345 C22.56972217 59.41661055 20.28467621 53.71169053 18 48 C17.67 68.46 17.34 88.92 17 110 C11.39 110 5.78 110 0 110 C0 73.7 0 37.4 0 0 Z " fill="#FEFDFC" transform="translate(363,126)"/>
<path d="M0 0 C6.6 0 13.2 0 20 0 C20.01458252 2.60406738 20.02916504 5.20813477 20.04418945 7.89111328 C20.09455507 16.5006285 20.16115374 25.10996324 20.23571491 33.71930122 C20.28041812 38.93850278 20.31967448 44.15762628 20.34643555 49.37695312 C20.37246883 54.4150982 20.41287172 59.4529429 20.46318626 64.49090195 C20.47985475 66.41175471 20.49136914 68.33265943 20.49761391 70.25357437 C20.50725511 72.94687544 20.53531466 75.6394081 20.56762695 78.33251953 C20.56547432 79.52043343 20.56547432 79.52043343 20.5632782 80.73234558 C20.66069559 86.48407945 21.79045241 90.79045241 26 95 C28.33706139 95.28127623 28.33706139 95.28127623 30.9375 95.1875 C32.25041016 95.17783203 32.25041016 95.17783203 33.58984375 95.16796875 C36.1437675 95.09069243 36.1437675 95.09069243 39 94 C41.04247894 88.72804041 41.30348813 83.82436144 41.31884766 78.21899414 C41.33391609 76.9446199 41.33391609 76.9446199 41.34928894 75.64450073 C41.37998803 72.85805896 41.39711895 70.07171269 41.4140625 67.28515625 C41.43278484 65.34459113 41.45235904 63.40403405 41.4727478 61.46348572 C41.52396237 56.37218991 41.56364514 51.28086773 41.60089111 46.18945312 C41.6409978 40.98756445 41.69205969 35.78578443 41.7421875 30.58398438 C41.83882042 20.38939185 41.92225224 10.19475406 42 0 C48.6 0 55.2 0 62 0 C62.04525379 10.94445468 62.08191793 21.88884681 62.10362434 32.83337402 C62.11404434 37.91580696 62.12817092 42.99817234 62.15087891 48.08056641 C62.17267094 52.98888815 62.18458204 57.89714507 62.18975449 62.80551147 C62.19343883 64.67452006 62.20063338 66.54352525 62.21146011 68.4125061 C62.2260596 71.03810182 62.22797442 73.66343248 62.22705078 76.2890625 C62.23424133 77.05511307 62.24143188 77.82116364 62.24884033 78.61042786 C62.21527618 87.47597556 60.15274633 97.13158763 54.27734375 104.01953125 C46.76381627 111.11481068 39.13533934 112.50457111 29.02563477 112.41992188 C21.13825482 112.13057884 14.2616217 110.28602081 8.125 105.1875 C-1.20932247 94.16793035 -0.68622333 79.2780831 -0.48828125 65.72265625 C-0.47893102 63.81596311 -0.47182539 61.90925778 -0.46684265 60.00254822 C-0.44794649 55.03591489 -0.39900032 50.07003768 -0.34332275 45.10369873 C-0.29175048 40.01520001 -0.26924831 34.92657656 -0.24414062 29.83789062 C-0.19086058 19.89154505 -0.10307181 9.94595431 0 0 Z " fill="#FEFCFA" transform="translate(1222,305)"/>
<path d="M0 0 C6.27 0 12.54 0 19 0 C19.01458252 2.53300781 19.02916504 5.06601563 19.04418945 7.67578125 C19.09461421 16.06176722 19.16122322 24.44756904 19.23571491 32.83337402 C19.28036815 37.91575523 19.31963543 42.99805721 19.34643555 48.08056641 C19.37251881 52.9890466 19.41295681 57.89722108 19.46318626 62.80551147 C19.47982102 64.67447089 19.49135636 66.54348314 19.49761391 68.4125061 C19.50729199 71.03834792 19.53539497 73.66341358 19.56762695 76.2890625 C19.56547432 77.43813835 19.56547432 77.43813835 19.5632782 78.61042786 C19.65624951 83.99525927 20.72534064 88.0950417 23 93 C27.01987251 95.67991501 30.277269 95.68445377 35 95 C38.88650417 92.40899722 39.79977741 89.40100151 41 85 C41.20167906 82.1404009 41.31086096 79.37495937 41.31884766 76.51611328 C41.33391609 75.2712188 41.33391609 75.2712188 41.34928894 74.00117493 C41.38003291 71.27422744 41.39713154 68.54737775 41.4140625 65.8203125 C41.43278122 63.92315841 41.45235516 62.02601257 41.4727478 60.12887573 C41.52400058 55.14771402 41.56366298 50.16652534 41.60089111 45.1852417 C41.64097375 40.09738531 41.69204665 35.00964045 41.7421875 29.921875 C41.8388657 19.94798736 41.9222801 9.97405341 42 0 C48.27 0 54.54 0 61 0 C61.09071778 11.11885931 61.1639553 22.23746891 61.20724869 33.35661602 C61.22803746 38.52084397 61.25619427 43.68480346 61.30175781 48.84887695 C61.34552836 53.84153153 61.36920244 58.83392946 61.37950897 63.82676125 C61.38684472 65.72236986 61.4011682 67.61796597 61.42292023 69.51346397 C61.69127786 93.88937793 61.69127786 93.88937793 54.875 103.5 C47.41899447 109.98348307 41.19109135 111.44725029 31.4375 111.5 C30.55126953 111.50628418 29.66503906 111.51256836 28.75195312 111.51904297 C21.64607565 111.38320307 15.40361473 110.01122688 9.25 106.375 C1.45507018 98.14701852 -0.32923409 88.05170174 -0.22705078 77.08374023 C-0.22734283 76.24361893 -0.22763489 75.40349762 -0.22793579 74.53791809 C-0.22655601 71.79470038 -0.21105934 69.05176329 -0.1953125 66.30859375 C-0.19157755 64.39331714 -0.18873286 62.47803861 -0.18673706 60.5627594 C-0.17913855 55.54701364 -0.1595229 50.53138561 -0.1373291 45.51568604 C-0.11678881 40.38742668 -0.10771791 35.2591481 -0.09765625 30.13085938 C-0.07627313 20.08717981 -0.04112218 10.04361816 0 0 Z " fill="#FEFEFD" transform="translate(497,126)"/>
<path d="M0 0 C6.27 0 12.54 0 19 0 C19.01458252 2.46718506 19.02916504 4.93437012 19.04418945 7.47631836 C19.09464811 15.65075635 19.16126291 23.8250061 19.23571491 31.999259 C19.28033961 36.95269565 19.31961302 41.90605156 19.34643555 46.85961914 C19.37254749 51.6449142 19.41300533 56.4298972 19.46318626 61.21499825 C19.47980175 63.03568181 19.49134901 64.85641929 19.49761391 66.67716789 C19.5073132 69.23815079 19.53544061 71.79834482 19.56762695 74.35913086 C19.56547432 75.47476158 19.56547432 75.47476158 19.5632782 76.6129303 C19.65835536 82.00254523 20.56064487 87.14154155 23 92 C27.02464978 94.68309985 30.27292814 94.67651934 35 94 C39.25430602 91.27288076 39.86726508 87.75746044 41 83 C41.27803599 80.19300103 41.31073731 77.40557506 41.31884766 74.58618164 C41.33391609 73.37032883 41.33391609 73.37032883 41.34928894 72.12991333 C41.37997038 69.47333429 41.39711391 66.81685533 41.4140625 64.16015625 C41.43278627 62.30927173 41.45236058 60.45839563 41.4727478 58.60752869 C41.52394729 53.75297019 41.56363805 48.89838405 41.60089111 44.04370117 C41.64100734 39.08310172 41.69206485 34.12261603 41.7421875 29.16210938 C41.83880253 19.44147845 41.92224119 9.72080007 42 0 C48.27 0 54.54 0 61 0 C61.04525173 11.07483852 61.08191675 22.14961526 61.10362434 33.22452545 C61.11404484 38.36749212 61.12817237 43.51039205 61.15087891 48.65332031 C61.17266911 53.61999667 61.18458166 58.58660898 61.18975449 63.55332947 C61.19343916 65.44466662 61.20063435 67.33600042 61.21146011 69.22731018 C61.22605716 71.88403803 61.22797452 74.54050389 61.22705078 77.19726562 C61.23424133 77.97266693 61.24143188 78.74806824 61.24884033 79.54696655 C61.21365921 88.94728634 58.94394229 97.96642265 52.25 104.8125 C48.61760665 107.25738014 45.17259559 108.74991063 41 110 C40.39542969 110.18433594 39.79085938 110.36867188 39.16796875 110.55859375 C28.18080454 112.79561998 18.00028114 110.77795479 8.625 104.875 C1.48766254 97.05791612 -0.16001464 88.73286618 -0.11352539 78.44604492 C-0.11367142 77.59675415 -0.11381744 76.74746338 -0.1139679 75.87243652 C-0.11327319 73.07508763 -0.10550149 70.27780596 -0.09765625 67.48046875 C-0.0957905 65.5370538 -0.09436734 63.59363837 -0.09336853 61.65022278 C-0.08955571 56.54239599 -0.07973597 51.43459776 -0.06866455 46.32678223 C-0.05842387 41.11173896 -0.05386522 35.89669106 -0.04882812 30.68164062 C-0.0381126 20.45441253 -0.02052579 10.22721311 0 0 Z " fill="#FEFEFD" transform="translate(1032,306)"/>
<path d="M0 0 C6.93 0 13.86 0 21 0 C22.2090141 3.6270423 23.25627415 6.78071875 23.99978638 10.44630432 C24.17081879 11.28032776 24.3418512 12.1143512 24.51806641 12.97364807 C24.69789062 13.86994431 24.87771484 14.76624054 25.06298828 15.68969727 C25.25835175 16.64814545 25.45371521 17.60659363 25.65499878 18.59408569 C26.29729673 21.75075631 26.93403001 24.90851803 27.5703125 28.06640625 C28.01566843 30.26549575 28.4612177 32.4645461 28.9069519 34.66355896 C29.83909799 39.26697948 30.76840012 43.87096302 31.69580078 48.4753418 C32.88477754 54.3768531 34.08157484 60.27674701 35.28059578 66.17622471 C36.20193768 70.71452842 37.11875202 75.25373776 38.03423691 79.79322624 C38.47372023 81.96923766 38.91470368 84.14494666 39.35721207 86.32034492 C39.9747354 89.35921128 40.586062 92.3992608 41.19580078 95.43969727 C41.37967346 96.33801773 41.56354614 97.2363382 41.75299072 98.16188049 C41.91838348 98.99308411 42.08377625 99.82428772 42.25418091 100.68067932 C42.39907015 101.39833749 42.54395939 102.11599566 42.69323921 102.85540104 C43 105 43 105 43 110 C37.06 110 31.12 110 25 110 C24.34 107.36 23.68 104.72 23 102 C22.79117187 101.1853125 22.58234375 100.370625 22.3671875 99.53125 C22.20476562 98.8609375 22.04234375 98.190625 21.875 97.5 C21.70742187 96.8296875 21.53984375 96.159375 21.3671875 95.46875 C20.85349883 92.0150134 21 88.49172917 21 85 C14.4 85 7.8 85 1 85 C0.87625 86.5675 0.7525 88.135 0.625 89.75 C-0.81715531 105.63431062 -0.81715531 105.63431062 -3 110 C-9.27 110 -15.54 110 -22 110 C-20.54726079 102.39425485 -19.09031223 94.78933084 -17.62988281 87.18505859 C-17.13595091 84.61208268 -16.64372922 82.0387974 -16.15234375 79.46533203 C-13.06311905 63.29121501 -9.80149433 47.16776558 -6.31201172 31.07519531 C-4.84594694 24.31350408 -3.45904995 17.539035 -2.125 10.75 C-1.91359375 9.68394531 -1.7021875 8.61789063 -1.484375 7.51953125 C-0.98766438 5.0134004 -0.49349237 2.50676655 0 0 Z " fill="#FEFDFC" transform="translate(1157,126)"/>
<path d="M0 0 C0.87454834 0.00523682 1.74909668 0.01047363 2.65014648 0.01586914 C3.59438477 0.0190918 4.53862305 0.02231445 5.51147461 0.02563477 C6.50469727 0.03401367 7.49791992 0.04239258 8.52124023 0.05102539 C9.51833008 0.05553711 10.51541992 0.06004883 11.54272461 0.06469727 C14.01478872 0.07652532 16.48673541 0.0930069 18.95874023 0.11352539 C24.32641452 25.3621012 29.50973453 50.64609862 34.57669449 75.95653152 C35.02228588 78.18124602 35.46862409 80.40580959 35.91513062 82.63034058 C36.62362099 86.16111065 37.32995834 89.69230467 38.03453445 93.22385788 C38.42408802 95.17458385 38.81534504 97.12496939 39.20663452 99.0753479 C39.43815216 100.23915985 39.6696698 101.4029718 39.90820312 102.60205078 C40.11200089 103.62263077 40.31579865 104.64321075 40.52577209 105.69471741 C40.95874023 108.11352539 40.95874023 108.11352539 40.95874023 110.11352539 C34.68874023 110.11352539 28.41874023 110.11352539 21.95874023 110.11352539 C19.70874023 99.98852539 19.70874023 99.98852539 19.32592773 96.51586914 C19.211604 95.51414673 19.211604 95.51414673 19.0949707 94.4921875 C19.00876465 93.686604 18.92255859 92.88102051 18.83374023 92.05102539 C18.40061523 88.12196289 18.40061523 88.12196289 17.95874023 84.11352539 C11.68874023 84.11352539 5.41874023 84.11352539 -1.04125977 84.11352539 C-1.3184082 85.75063477 -1.59555664 87.38774414 -1.88110352 89.07446289 C-2.24682248 91.2125122 -2.61271697 93.3505315 -2.97875977 95.48852539 C-3.16116211 96.56875977 -3.34356445 97.64899414 -3.53149414 98.76196289 C-3.70874023 99.79321289 -3.88598633 100.82446289 -4.06860352 101.88696289 C-4.23094482 102.84006348 -4.39328613 103.79316406 -4.56054688 104.77514648 C-5.04125977 107.11352539 -5.04125977 107.11352539 -6.04125977 109.11352539 C-11.98125977 109.11352539 -17.92125977 109.11352539 -24.04125977 109.11352539 C-23.40929781 101.70665945 -22.29319896 94.5286245 -20.85375977 87.23852539 C-20.63236328 86.1027002 -20.4109668 84.966875 -20.18286133 83.79663086 C-18.41429948 74.80952472 -16.51379206 65.85337698 -14.56518555 56.90380859 C-12.88320621 49.14505228 -11.27028203 41.37476544 -9.69360352 33.59399414 C-9.49036469 32.59239258 -9.28712585 31.59079102 -9.07772827 30.55883789 C-8.05499625 25.51507839 -7.03700363 20.47041469 -6.0246582 15.42456055 C-5.64881891 13.56694813 -5.27284846 11.70936225 -4.89672852 9.85180664 C-4.72406967 8.98339645 -4.55141083 8.11498627 -4.3735199 7.22026062 C-2.93837537 0.1634188 -2.93837537 0.1634188 0 0 Z " fill="#FEFDFC" transform="translate(803.041259765625,305.886474609375)"/>
<path d="M0 0 C0.87454834 0.00523682 1.74909668 0.01047363 2.65014648 0.01586914 C3.59438477 0.0190918 4.53862305 0.02231445 5.51147461 0.02563477 C6.50469727 0.03401367 7.49791992 0.04239258 8.52124023 0.05102539 C9.51833008 0.05553711 10.51541992 0.06004883 11.54272461 0.06469727 C14.01478872 0.07652532 16.48673541 0.0930069 18.95874023 0.11352539 C21.23949773 11.2067439 23.5175115 22.30052217 25.79221725 33.39498329 C26.84903264 38.54898992 27.90672113 43.70281386 28.96655273 48.85620117 C29.99320373 53.84842436 31.01736847 58.84115221 32.03995514 63.83420944 C32.42653808 65.71972445 32.81395154 67.60506941 33.2022934 69.49022293 C35.98407004 82.99795809 38.54150317 96.53582949 40.95874023 110.11352539 C34.68874023 110.11352539 28.41874023 110.11352539 21.95874023 110.11352539 C20.851474 107.89899293 20.57225213 106.13017919 20.20483398 103.68383789 C20.07270508 102.80598633 19.94057617 101.92813477 19.80444336 101.02368164 C19.66973633 100.10458008 19.5350293 99.18547852 19.39624023 98.23852539 C19.18837891 96.87147461 19.18837891 96.87147461 18.97631836 95.47680664 C18.40218753 91.61344349 17.95874023 88.03329295 17.95874023 84.11352539 C11.68874023 84.11352539 5.41874023 84.11352539 -1.04125977 84.11352539 C-1.30938477 86.01102539 -1.57750977 87.90852539 -1.85375977 89.86352539 C-2.85302842 96.41268901 -4.34445814 102.71195561 -6.04125977 109.11352539 C-11.98125977 109.11352539 -17.92125977 109.11352539 -24.04125977 109.11352539 C-23.37281654 100.85628556 -21.96137358 92.86099165 -20.35375977 84.73852539 C-20.0833356 83.35768151 -19.81299208 81.97682183 -19.54272461 80.59594727 C-17.61705207 70.80682836 -15.56760005 61.04652057 -13.4440918 51.29833984 C-11.88404066 44.11774013 -10.38164514 36.92805544 -8.92016602 29.72680664 C-8.73858948 28.83351654 -8.55701294 27.94022644 -8.36993408 27.01986694 C-7.4645592 22.56248601 -6.56378477 18.10423394 -5.66870117 13.64477539 C-5.33860108 12.0158406 -5.00836672 10.38693302 -4.67797852 8.75805664 C-4.52720352 7.9990657 -4.37642853 7.24007477 -4.22108459 6.45808411 C-2.93786872 0.16339062 -2.93786872 0.16339062 0 0 Z " fill="#FEFDFC" transform="translate(352.041259765625,305.886474609375)"/>
<path d="M0 0 C5.56805139 4.20827463 8.10549314 9.72312494 9.578125 16.44140625 C10.0786294 20.51347118 10.08774823 24.49311543 10.04296875 28.58984375 C10.02234375 31.27109375 10.00171875 33.95234375 9.98046875 36.71484375 C3.38046875 36.71484375 -3.21953125 36.71484375 -10.01953125 36.71484375 C-10.07560547 34.51054687 -10.07560547 34.51054687 -10.1328125 32.26171875 C-10.19847376 30.32940162 -10.26492105 28.3971111 -10.33203125 26.46484375 C-10.36586914 25.01271484 -10.36586914 25.01271484 -10.40039062 23.53125 C-10.43583984 22.59667969 -10.47128906 21.66210938 -10.5078125 20.69921875 C-10.53399658 19.84038086 -10.56018066 18.98154297 -10.5871582 18.09667969 C-11.10896995 15.22214814 -12.02268413 13.8268313 -14.01953125 11.71484375 C-17.65735757 10.50223498 -20.19689124 10.31939823 -24.01953125 10.71484375 C-27.48692281 13.42845453 -29.28243861 15.40808101 -30.01953125 19.71484375 C-30.12075391 21.71919319 -30.1678386 23.72653566 -30.18066406 25.73339844 C-30.19027161 26.9485614 -30.19987915 28.16372437 -30.20977783 29.41571045 C-30.21615265 31.38135956 -30.21615265 31.38135956 -30.22265625 33.38671875 C-30.22548363 34.05708412 -30.228311 34.72744949 -30.23122406 35.41812897 C-30.24619336 38.96755871 -30.2554363 42.51694807 -30.25976562 46.06640625 C-30.26523858 49.71565266 -30.28924774 53.36452375 -30.31773758 57.0136528 C-30.33645391 59.83454431 -30.34157437 62.65534715 -30.3431015 65.47629547 C-30.34756358 67.4703047 -30.36616739 69.4642663 -30.3850708 71.45819092 C-30.3684743 78.24794382 -30.06205566 83.59062079 -27.01953125 89.71484375 C-23.98024009 92.23011919 -20.8564545 92.03458735 -17.01953125 91.71484375 C-14.42971021 90.85157007 -13.36600049 90.27974944 -11.93603516 87.94824219 C-10.89853653 85.41999566 -10.70520947 83.45671519 -10.60546875 80.73046875 C-10.56679687 79.79589844 -10.528125 78.86132812 -10.48828125 77.8984375 C-10.45734375 76.93035156 -10.42640625 75.96226562 -10.39453125 74.96484375 C-10.35585937 73.98128906 -10.3171875 72.99773437 -10.27734375 71.984375 C-10.18325155 69.56150086 -10.10030973 67.1381983 -10.01953125 64.71484375 C-3.41953125 64.71484375 3.18046875 64.71484375 9.98046875 64.71484375 C10.83138418 90.88049327 10.83138418 90.88049327 1.98046875 100.71484375 C-6.41556237 107.38668991 -15.56109595 108.59087248 -26.01953125 107.71484375 C-35.17244899 105.9536784 -41.3610667 102.29817749 -46.765625 94.6640625 C-50.59756293 88.70724934 -51.13269273 82.38150556 -51.1965332 75.42504883 C-51.20936844 74.19969925 -51.22220367 72.97434967 -51.23542786 71.71186829 C-51.24281479 70.3992955 -51.25020172 69.08672272 -51.2578125 67.734375 C-51.26188803 67.05855566 -51.26596355 66.38273632 -51.27016258 65.68643761 C-51.29095145 62.107612 -51.30528278 58.5288239 -51.31469727 54.94995117 C-51.32573434 51.28301059 -51.36012279 47.61668132 -51.39986897 43.94995594 C-51.42620713 41.10406995 -51.43440426 38.25832582 -51.43797874 35.41232872 C-51.44512338 33.41231457 -51.47148456 31.41239812 -51.49836731 29.41255188 C-51.47280639 18.5688704 -49.61646551 9.41348121 -41.953125 1.37109375 C-30.46785729 -8.46679213 -12.25863817 -7.80095156 0 0 Z " fill="#FEFCFB" transform="translate(1153.01953125,309.28515625)"/>
<path d="M0 0 C5.37218517 5.67916718 8.36475742 12.25899539 8.25 20.0625 C8.24097656 20.86171875 8.23195313 21.6609375 8.22265625 22.484375 C8.21105469 23.08765625 8.19945312 23.6909375 8.1875 24.3125 C2.53949888 26.1542395 -2.89757728 26.86025239 -8.8125 27.3125 C-8.91046875 26.49265625 -9.0084375 25.6728125 -9.109375 24.828125 C-9.25890625 23.75046875 -9.4084375 22.6728125 -9.5625 21.5625 C-9.70171875 20.49515625 -9.8409375 19.4278125 -9.984375 18.328125 C-10.94487238 14.83046473 -11.91398374 13.46201913 -14.8125 11.3125 C-17.05777933 10.72391155 -17.05777933 10.72391155 -19.375 10.875 C-20.52162109 10.87693359 -20.52162109 10.87693359 -21.69140625 10.87890625 C-24.39317243 11.43120099 -25.25998004 12.03223631 -26.8125 14.3125 C-27.32737778 17.07367314 -27.32737778 17.07367314 -27.25 20.125 C-27.26933594 21.14207031 -27.28867187 22.15914063 -27.30859375 23.20703125 C-26.28159392 29.63588843 -21.76098256 33.6108606 -17.0625 37.75 C-16.53172852 38.22808105 -16.00095703 38.70616211 -15.45410156 39.19873047 C-12.52894658 41.82498393 -9.5560128 44.38945042 -6.5625 46.9375 C2.24831348 54.66756921 9.61830348 62.78393056 10.69921875 74.88671875 C11.12612181 83.05275283 11.140458 90.54308389 6.09375 97.36328125 C-0.68649779 104.29636249 -7.97411181 107.2935862 -17.625 107.6875 C-26.53624845 107.49837238 -33.60686322 104.462761 -40.12109375 98.3828125 C-43.06196436 94.78313254 -44.45218346 90.70855121 -45.8125 86.3125 C-46.1425 85.3225 -46.4725 84.3325 -46.8125 83.3125 C-46.88052967 81.58454648 -46.89745645 79.85414635 -46.875 78.125 C-46.86597656 77.22394531 -46.85695313 76.32289063 -46.84765625 75.39453125 C-46.83605469 74.70746094 -46.82445312 74.02039063 -46.8125 73.3125 C-44.91864563 72.80505577 -43.02231334 72.30685426 -41.125 71.8125 C-40.06925781 71.5340625 -39.01351562 71.255625 -37.92578125 70.96875 C-35.10107328 70.3733285 -32.68413292 70.18463508 -29.8125 70.3125 C-29.57015625 71.42109375 -29.3278125 72.5296875 -29.078125 73.671875 C-28.74034406 75.13559243 -28.40176002 76.59912469 -28.0625 78.0625 C-27.90523437 78.79210937 -27.74796875 79.52171875 -27.5859375 80.2734375 C-26.5534459 84.64167119 -25.63153153 87.58764571 -21.8125 90.3125 C-18.95482798 90.95972706 -16.79682086 90.59672103 -13.8125 90.3125 C-10.56400023 88.59023504 -10.56400023 88.59023504 -9.8125 85.3125 C-9.10326385 77.38814994 -10.34851656 72.28388656 -15.3125 66 C-18.79658668 62.07609049 -22.84680351 58.91303846 -26.9296875 55.63671875 C-45.70486744 40.49954793 -45.70486744 40.49954793 -47.03417969 28.27368164 C-47.15253009 25.99139022 -47.1836849 23.72274728 -47.1875 21.4375 C-47.21199219 20.67308594 -47.23648438 19.90867187 -47.26171875 19.12109375 C-47.29549164 12.49035041 -45.39770003 7.52792292 -41.2421875 2.359375 C-28.62427491 -8.16611993 -13.85021604 -8.31012962 0 0 Z " fill="#FEFCFB" transform="translate(893.8125,309.6875)"/>
<path d="M0 0 C6.41468999 4.9815158 9.23225326 12.15133208 10.53515625 19.96875 C10.55930908 21.96860415 10.56340202 23.96894947 10.53515625 25.96875 C8.64130188 26.47619423 6.74496959 26.97439574 4.84765625 27.46875 C3.26404297 27.88640625 3.26404297 27.88640625 1.6484375 28.3125 C-1.17627047 28.9079215 -3.59321083 29.09661492 -6.46484375 28.96875 C-6.66980469 28.06511719 -6.87476563 27.16148437 -7.0859375 26.23046875 C-7.35535156 25.05097656 -7.62476563 23.87148437 -7.90234375 22.65625 C-8.16917969 21.48449219 -8.43601562 20.31273437 -8.7109375 19.10546875 C-9.41798344 15.96638029 -9.41798344 15.96638029 -10.46484375 12.96875 C-16.57445825 11.80706032 -16.57445825 11.80706032 -22.46484375 13.28125 C-24.73079357 15.19314516 -25.34603296 16.15963351 -25.7734375 19.0703125 C-26.06957819 24.86749077 -25.42153999 28.33285036 -21.6328125 32.76953125 C-15.45373579 39.03767573 -8.944584 44.93605803 -2.15234375 50.53125 C5.6386646 57.29886319 11.9219483 66.06045796 12.84375 76.4453125 C13.13493429 85.25143142 12.77726281 93.21217519 6.69921875 100.02734375 C-0.19807308 106.38289426 -6.08104823 108.48191623 -15.33984375 108.40625 C-16.19964844 108.42623047 -17.05945313 108.44621094 -17.9453125 108.46679688 C-25.52407652 108.46104667 -31.69753848 106.24601822 -37.21484375 100.90625 C-43.87523192 93.77446449 -45.10119684 84.36902271 -45.46484375 74.96875 C-43.02852485 74.29748871 -40.59095492 73.63158646 -38.15234375 72.96875 C-37.46205078 72.77796875 -36.77175781 72.5871875 -36.06054688 72.390625 C-33.10696426 71.59158816 -30.53925156 70.96875 -27.46484375 70.96875 C-27.30048828 72.14630859 -27.30048828 72.14630859 -27.1328125 73.34765625 C-26.23181365 79.31768929 -25.3624408 84.63717142 -22.46484375 89.96875 C-18.75470976 92.44217266 -16.85424113 92.35378486 -12.46484375 91.96875 C-9.27980805 90.20859869 -8.63187403 89.46984084 -7.46484375 85.96875 C-6.92145315 79.55674097 -7.67726873 75.23760436 -11.46484375 69.96875 C-16.57571908 64.18900173 -22.12901857 59.1506655 -28.15234375 54.34375 C-36.37233593 47.77010819 -43.69449531 40.71293366 -45.46484375 29.96875 C-46.20766068 19.88592346 -45.73010323 12.18184492 -39.21484375 4.21875 C-27.59407607 -5.28915083 -13.55634349 -7.73605604 0 0 Z " fill="#FEFCFB" transform="translate(609.46484375,129.03125)"/>
<path d="M0 0 C5.81174958 2.95038491 8.76100042 7.30956167 10.98681641 13.18652344 C14.77035051 26.1684256 14.62558323 39.31998841 14.59643555 52.74609375 C14.59038371 56.18066449 14.63509907 59.6125849 14.69232464 63.04660797 C14.73831855 66.36447559 14.73329367 69.68181569 14.734375 73 C14.75795578 74.2209436 14.78153656 75.44188721 14.80583191 76.6998291 C14.72960528 83.77331301 13.87106914 87.77451754 8.76643372 92.81872559 C2.4676271 97.99350902 -2.92848643 99.00421747 -11.09375 98.73046875 C-16.29540111 98.05906919 -18.79449101 95.71312289 -22.27734375 92.03125 C-28.29959902 83.10169908 -28.24454524 73.72906303 -28.2578125 63.33203125 C-28.2611409 62.40134323 -28.2644693 61.47065521 -28.26789856 60.51176453 C-28.27293148 58.55285125 -28.27530802 56.5939295 -28.27514648 54.63500977 C-28.27732501 51.68165497 -28.29549812 48.72867919 -28.31445312 45.77539062 C-28.40472237 15.59097545 -28.40472237 15.59097545 -21.27734375 4.53125 C-15.48765304 -1.25844071 -7.76599653 -2.43866807 0 0 Z " fill="#FD6A27" transform="translate(200.08984375,166.65625)"/>
<path d="M0 0 C5.94 0 11.88 0 18 0 C20.24774405 7.86710418 20.24774405 7.86710418 20.89453125 11.3984375 C21.11701538 12.59279419 21.11701538 12.59279419 21.34399414 13.8112793 C21.49860107 14.65730713 21.65320801 15.50333496 21.8125 16.375 C23.32376858 24.49471948 24.91859931 32.59364109 26.5625 40.6875 C28.59962892 50.75902188 30.405472 60.84946811 32 71 C33.39747048 67.04738346 34.41957692 63.23837285 35.11328125 59.10571289 C35.30688232 57.9675563 35.5004834 56.82939972 35.69995117 55.65675354 C36.00316284 53.83312538 36.00316284 53.83312538 36.3125 51.97265625 C36.64009558 50.04382342 36.96769549 48.11499131 37.29554749 46.18620205 C37.86766169 42.81230102 38.43345127 39.43733918 39 36.0625 C39.67638633 32.03722043 40.354217 28.01220113 41.0378418 23.98814392 C41.46235203 21.48679794 41.88324472 18.9848346 42.30004883 16.48219299 C42.4936499 15.34088425 42.68725098 14.1995755 42.88671875 13.02368164 C43.05389404 12.02695938 43.22106934 11.03023712 43.39331055 10.00331116 C44.07560141 6.62574832 45.05336937 3.31320721 46 0 C51.94 0 57.88 0 64 0 C63.38317238 9.58195227 61.54763801 18.75862498 59.5625 28.125 C59.21136866 29.80478377 58.86096428 31.48471963 58.51123047 33.16479492 C57.95053816 35.85768484 57.3893323 38.55045867 56.82592773 41.24278259 C54.60934065 51.838126 52.44960535 62.44501013 50.28927612 73.05194092 C49.63578504 76.2595623 48.98126864 79.46697274 48.32641602 82.67431641 C47.91811655 84.67480163 47.50983137 86.67528978 47.1015625 88.67578125 C46.82699974 90.02049751 46.82699974 90.02049751 46.54689026 91.39237976 C46.28512245 92.67602165 46.28512245 92.67602165 46.01806641 93.9855957 C45.84978333 94.80734283 45.68150024 95.62908997 45.50811768 96.47573853 C45.1493235 98.2581806 44.80099311 100.04274433 44.46014404 101.82870483 C44.28557678 102.73754425 44.11100952 103.64638367 43.93115234 104.58276367 C43.77609222 105.40612717 43.6210321 106.22949066 43.46127319 107.07780457 C43 109 43 109 42 110 C40.5112814 110.08669432 39.018555 110.10703494 37.52734375 110.09765625 C36.62822266 110.09443359 35.72910156 110.09121094 34.80273438 110.08789062 C33.38444336 110.07532227 33.38444336 110.07532227 31.9375 110.0625 C30.98810547 110.05798828 30.03871094 110.05347656 29.06054688 110.04882812 C26.70696935 110.0370011 24.35351523 110.02052025 22 110 C21.8078038 109.05448021 21.8078038 109.05448021 21.61172485 108.08985901 C20.35586841 101.91178197 19.09980294 95.73374746 17.84356499 89.55574799 C17.16652569 86.22608734 16.48958909 82.89640588 15.81286621 79.56668091 C12.87738163 65.12313423 9.93760001 50.68052248 6.9765625 36.2421875 C6.51088366 33.96932402 6.04522555 31.6964563 5.57958984 29.42358398 C4.91745298 26.1917427 4.25464027 22.96004792 3.58966064 19.72879028 C2.97996707 16.76615026 2.37256666 13.80304856 1.765625 10.83984375 C1.5849649 9.96556732 1.40430481 9.09129089 1.21817017 8.19052124 C0 2.2274203 0 2.2274203 0 0 Z " fill="#FEFBFA" transform="translate(1076,126)"/>
<path d="M0 0 C15.18 0 30.36 0 46 0 C46 4.95 46 9.9 46 15 C37.42 15 28.84 15 20 15 C20 25.23 20 35.46 20 46 C26.6 46 33.2 46 40 46 C40 50.62 40 55.24 40 60 C33.4 60 26.8 60 20 60 C20 71.88 20 83.76 20 96 C28.58 96 37.16 96 46 96 C46 100.95 46 105.9 46 111 C30.82 111 15.64 111 0 111 C0 74.37 0 37.74 0 0 Z " fill="#FEFCFB" transform="translate(1364,305)"/>
<path d="M0 0 C6.27 0 12.54 0 19 0 C23.43967562 13.96873547 27.75685964 27.97038381 32 42 C32.32274902 40.86981445 32.64549805 39.73962891 32.97802734 38.57519531 C34.17800419 34.37711361 35.38314618 30.18052935 36.58984375 25.984375 C37.11110893 24.16902362 37.63097781 22.35327068 38.14941406 20.53710938 C38.89540597 17.9247086 39.64642899 15.31379927 40.3984375 12.703125 C40.6287265 11.89256653 40.8590155 11.08200806 41.09628296 10.24688721 C41.31636017 9.48640076 41.53643738 8.72591431 41.76318359 7.94238281 C42.04964249 6.9431076 42.04964249 6.9431076 42.34188843 5.92364502 C43 4 43 4 45 0 C50.94 0 56.88 0 63 0 C61.4387126 7.95000365 59.04736618 15.60426614 56.60369873 23.31640625 C55.85939275 25.67444541 55.12751124 28.03610036 54.39697266 30.3984375 C50.27888558 43.61457685 50.27888558 43.61457685 47.53125 49.8984375 C39.34297647 68.96428808 40.85173568 89.60438883 41 110 C34.73 110 28.46 110 22 110 C22.25716797 106.45765625 22.25716797 106.45765625 22.51953125 102.84375 C24.07502171 70.23988968 14.23393015 42.15940934 3.17593384 11.99902344 C2.7587912 10.85530273 2.34164856 9.71158203 1.91186523 8.53320312 C1.5418187 7.53260864 1.17177216 6.53201416 0.79051208 5.50109863 C0 3 0 3 0 0 Z " fill="#FEFDFC" transform="translate(738,126)"/>
<path d="M0 0 C14.85 0 29.7 0 45 0 C45 4.62 45 9.24 45 14 C36.75 14 28.5 14 20 14 C20 24.56 20 35.12 20 46 C26.6 46 33.2 46 40 46 C40 50.62 40 55.24 40 60 C33.4 60 26.8 60 20 60 C20 76.83 20 93.66 20 111 C13.4 111 6.8 111 0 111 C0 74.37 0 37.74 0 0 Z " fill="#FEFDFC" transform="translate(664,305)"/>
<path d="M0 0 C18.48 0 36.96 0 56 0 C56 4.95 56 9.9 56 15 C50.06 15 44.12 15 38 15 C38 46.35 38 77.7 38 110 C31.4 110 24.8 110 18 110 C18 78.65 18 47.3 18 15 C12.06 15 6.12 15 0 15 C0 10.05 0 5.1 0 0 Z " fill="#FFFEFD" transform="translate(1193,126)"/>
<path d="M0 0 C18.48 0 36.96 0 56 0 C56 4.95 56 9.9 56 15 C50.06 15 44.12 15 38 15 C38 46.35 38 77.7 38 110 C31.4 110 24.8 110 18 110 C18 78.65 18 47.3 18 15 C12.06 15 6.12 15 0 15 C0 10.05 0 5.1 0 0 Z " fill="#FFFCFC" transform="translate(619,126)"/>
<path d="M0 0 C18.81 0 37.62 0 57 0 C57 4.62 57 9.24 57 14 C51.06 14 45.12 14 39 14 C39 45.68 39 77.36 39 110 C32.4 110 25.8 110 19 110 C19 78.32 19 46.64 19 14 C12.73 14 6.46 14 0 14 C0 9.38 0 4.76 0 0 Z " fill="#FEFEFD" transform="translate(1163,306)"/>
<path d="M0 0 C18.48 0 36.96 0 56 0 C56 4.62 56 9.24 56 14 C47.585 14.495 47.585 14.495 39 15 C38.67 46.02 38.34 77.04 38 109 C31.73 109 25.46 109 19 109 C19 77.98 19 46.96 19 15 C12.73 15 6.46 15 0 15 C0 10.05 0 5.1 0 0 Z " fill="#FEFEFE" transform="translate(903,306)"/>
<path d="M0 0 C6.6 0 13.2 0 20 0 C20 36.3 20 72.6 20 110 C13.4 110 6.8 110 0 110 C0 73.7 0 37.4 0 0 Z " fill="#FFFEFE" transform="translate(1251,126)"/>
<path d="M0 0 C6.6 0 13.2 0 20 0 C20 36.3 20 72.6 20 110 C13.4 110 6.8 110 0 110 C0 73.7 0 37.4 0 0 Z " fill="#FEFCFB" transform="translate(850,126)"/>
<path d="M0 0 C6.27 0 12.54 0 19 0 C19 36.3 19 72.6 19 110 C12.73 110 6.46 110 0 110 C0 73.7 0 37.4 0 0 Z " fill="#FFFEFE" transform="translate(334,126)"/>
<path d="M0 0 C6.27 0 12.54 0 19 0 C19 35.97 19 71.94 19 109 C12.73 109 6.46 109 0 109 C0 73.03 0 37.06 0 0 Z " fill="#FFFFFF" transform="translate(565,306)"/>
<path d="M0 0 C2.82216786 1.2270295 4.42014049 2.12079646 6.11465454 4.69007874 C7.29757115 7.77638161 7.26956245 10.40375099 7.29052734 13.70874023 C7.30060318 14.70706375 7.30060318 14.70706375 7.31088257 15.72555542 C7.32984018 17.919978 7.33378538 20.11409444 7.3359375 22.30859375 C7.34236635 23.83789698 7.34909477 25.36719898 7.35610962 26.89649963 C7.36807629 30.10005546 7.37179101 33.30350348 7.37060547 36.50708008 C7.37040216 40.60738655 7.39771842 44.70700083 7.43214989 48.80714321 C7.45441087 51.9650641 7.45844329 55.12281809 7.45738602 58.2808094 C7.45974265 59.79226126 7.46856978 61.30371767 7.48405075 62.81509209 C7.50369869 64.93117367 7.49787969 67.04575837 7.48583984 69.16186523 C7.48868988 70.36447495 7.49153992 71.56708466 7.49447632 72.80613708 C6.90339123 76.62400393 5.67869718 78.26953349 3 81 C-0.6967396 82.8483698 -4.96443821 82.47016254 -9 82 C-12.52590223 79.620016 -13.67252889 76.96043563 -15 73 C-15.26742554 69.97145081 -15.26742554 69.97145081 -15.29052734 66.56079102 C-15.30328705 65.27918594 -15.31604675 63.99758087 -15.32919312 62.67713928 C-15.33225062 61.28606315 -15.33447846 59.89498498 -15.3359375 58.50390625 C-15.3423696 57.06810881 -15.34909827 55.63231267 -15.35610962 54.19651794 C-15.36806351 51.19144655 -15.37179231 48.18648996 -15.37060547 45.18139648 C-15.37040217 41.34014972 -15.39772253 37.49964193 -15.43214989 33.65857029 C-15.45443884 30.69447988 -15.45844245 27.73056691 -15.45738602 24.76640129 C-15.45973828 23.35067125 -15.46854073 21.93493605 -15.48405075 20.51928902 C-15.50375093 18.53582492 -15.49533987 16.55214269 -15.48583984 14.56860352 C-15.48868988 13.44229019 -15.49153992 12.31597687 -15.49447632 11.15553284 C-14.88068959 7.23861282 -13.4505869 5.08373174 -11 2 C-7.28957469 -0.47361688 -4.30137325 -0.54607278 0 0 Z " fill="#FD6B28" transform="translate(1046,140)"/>
<path d="M0 0 C3.41532558 1.88932905 4.65555761 3.14548182 6.11174011 6.75808716 C7.02036311 10.07431995 7.25980089 12.8146535 7.2746582 16.24560547 C7.28895622 18.06812332 7.28895622 18.06812332 7.30354309 19.92745972 C7.30263168 21.22756989 7.30172028 22.52768005 7.30078125 23.8671875 C7.30467402 25.22950367 7.30900988 26.59181865 7.31376648 27.95413208 C7.32120768 30.80360861 7.32095304 33.6529612 7.31567383 36.50244141 C7.30988601 40.13597049 7.32680319 43.76898868 7.3500185 47.4024334 C7.36482354 50.21476152 7.36561834 53.02696857 7.36250877 55.83932877 C7.36326497 57.82445779 7.37708371 59.80956816 7.39118958 61.79464722 C7.35678727 68.54011407 7.10903261 73.946072 4 80 C-0.44082189 82.96054793 -4.79027847 82.64828619 -10 82 C-13.16620095 79.81381363 -13.7896387 78.63108389 -15 75 C-15.1097035 72.80354137 -15.15902189 70.60390819 -15.17700195 68.40478516 C-15.18357315 67.73938217 -15.19014435 67.07397919 -15.19691467 66.38841248 C-15.21660918 64.18862795 -15.22830055 61.98891152 -15.23828125 59.7890625 C-15.24235678 59.03680767 -15.2464323 58.28455284 -15.25063133 57.50950241 C-15.27147398 53.52912421 -15.28578442 49.54878031 -15.29516602 45.56835938 C-15.30623698 41.46021859 -15.34064931 37.35261849 -15.38033772 33.24466896 C-15.40649357 30.08247884 -15.41485681 26.9204179 -15.41844749 23.75812912 C-15.42331484 22.24387325 -15.4349332 20.72962321 -15.45348549 19.21547318 C-15.47786063 17.09454789 -15.47691619 14.97502667 -15.4699707 12.85400391 C-15.47583694 11.64837799 -15.48170319 10.44275208 -15.48774719 9.20059204 C-14.90465494 5.3743467 -13.68465171 3.73397037 -11 1 C-7.53193957 -0.73403022 -3.7919279 -0.46579045 0 0 Z " fill="#FD6B28" transform="translate(1315,140)"/>
<path d="M0 0 C13.64705882 0 13.64705882 0 18 4 C19.40468119 6.80936237 19.14280521 9.15565607 19.16113281 12.2980957 C19.16609772 12.94384552 19.17106262 13.58959534 19.17617798 14.25491333 C19.19080464 16.39521342 19.19760303 18.53543935 19.203125 20.67578125 C19.20887685 22.16310122 19.21463458 23.65042116 19.22039795 25.13774109 C19.23090992 28.25906724 19.23675103 31.38036762 19.24023438 34.50170898 C19.24571401 38.49656282 19.2697295 42.49107494 19.29820633 46.48582172 C19.31685525 49.55965663 19.32203954 52.63340968 19.32357025 55.70729637 C19.32659316 57.17966768 19.33460954 58.65203768 19.34775543 60.12435341 C19.36486085 62.18773783 19.36292514 64.25029363 19.35644531 66.3137207 C19.36009094 67.48683304 19.36373657 68.65994537 19.36749268 69.86860657 C18.85231613 74.25840957 17.24507742 76.87164859 14 79.8125 C11 81 11 81 0 81 C0 54.27 0 27.54 0 0 Z " fill="#FD6925" transform="translate(450,141)"/>
<path d="M0 0 C11.76190476 0 11.76190476 0 15 2 C18.69880683 5.82802431 19.50286877 8.24660013 19.51757812 13.53100586 C19.53018677 14.83263168 19.54279541 16.13425751 19.55578613 17.47532654 C19.54862534 18.88850447 19.54042111 20.30167744 19.53125 21.71484375 C19.53394683 23.17306273 19.53783085 24.63127995 19.54284668 26.0894928 C19.54873473 29.14178635 19.54020314 32.19361074 19.52148438 35.24584961 C19.49871465 39.14770664 19.51180844 43.04846181 19.53577423 46.95027828 C19.55026882 49.9607413 19.54560932 52.97094564 19.53526306 55.9814167 C19.53260479 57.41945083 19.53583379 58.85750885 19.54518127 60.29551506 C19.55540297 62.31020499 19.5370463 64.32497781 19.51757812 66.33959961 C19.51280457 68.05571693 19.51280457 68.05571693 19.50793457 69.8065033 C18.87819292 73.765828 17.52707527 75.91333273 15 79 C11 81 11 81 0 81 C0 54.27 0 27.54 0 0 Z " fill="#FD6925" transform="translate(487,320)"/>
<path d="M0 0 C12.59433962 0 12.59433962 0 17 3 C20.73632213 7.49951404 21.54715356 10.7001119 21.5 16.5 C21.5103125 17.7684375 21.520625 19.036875 21.53125 20.34375 C20.79520388 25.40947921 18.56688008 28.43311992 15 32 C11 33 11 33 0 33 C0 22.11 0 11.22 0 0 Z " fill="#FD6D2B" transform="translate(1314,319)"/>
<path d="M0 0 C11.75 0 11.75 0 17 3 C21.43738169 7.58529441 21.34643968 13.07663991 21.28125 19.171875 C20.86966752 23.31056554 19.65661859 26.77247484 17 30 C12 33 12 33 0 33 C0 22.11 0 11.22 0 0 Z " fill="#FD6B29" transform="translate(697,140)"/>
<path d="M0 0 C14.34375 0 14.34375 0 18 3 C21.24151871 9.05083493 22.06578717 15.20067257 21 22 C18.92224137 27.0872106 16.9539252 29.5230374 12 32 C8.04 32 4.08 32 0 32 C0 21.44 0 10.88 0 0 Z " fill="#FD6A27" transform="translate(983,320)"/>
<path d="M0 0 C12 0 12 0 17 3 C20.52347614 6.52347614 20.18204385 10.49327646 20.25 15.3125 C20.19524912 20.73283734 19.89998205 24.40002848 17 29 C12 32 12 32 0 32 C0 21.44 0 10.88 0 0 Z " fill="#FD6926" transform="translate(735,320)"/>
<path d="M0 0 C6.27 0 12.54 0 19 0 C19.061875 3.114375 19.12375 6.22875 19.1875 9.4375 C19.21481201 10.39970459 19.24212402 11.36190918 19.27026367 12.35327148 C19.3393892 19.63820974 18.31906347 26.03675224 13.75 31.875 C10.57292422 34.3300131 7.75053301 35.6027426 4 37 C1.37613513 33.93882432 1 33.26826873 1 29 C2.65071396 27.97388051 4.31970006 26.97691857 6 26 C7.86679546 23.33314934 8.96996388 21.09010837 10 18 C6.7 18 3.4 18 0 18 C0 12.06 0 6.12 0 0 Z " fill="#FEFAF7" transform="translate(799,218)"/>
<path d="M0 0 C0.33 0 0.66 0 1 0 C1.86348361 4.69404388 2.71762572 9.38966073 3.56347656 14.08691406 C3.85198365 15.68177093 4.14295602 17.27618402 4.43652344 18.87011719 C4.86014881 21.17267961 5.27462856 23.476738 5.6875 25.78125 C5.81874268 26.48366821 5.94998535 27.18608643 6.08520508 27.90979004 C6.92628329 32.67166911 7.11379237 37.16382434 7 42 C2.38 42 -2.24 42 -7 42 C-6.35488475 33.37891442 -5.05921179 24.99993172 -3.5 16.5 C-3.16162109 14.60894531 -3.16162109 14.60894531 -2.81640625 12.6796875 C-1.14205211 3.42615632 -1.14205211 3.42615632 0 0 Z " fill="#FD7132" transform="translate(360,335)"/>
<path d="M0 0 C0.66 0 1.32 0 2 0 C2.82358766 4.3938288 3.63176556 8.79036524 4.4375 13.1875 C4.66759766 14.41404297 4.89769531 15.64058594 5.13476562 16.90429688 C6.59884287 24.94611246 7.50251599 32.84011859 8 41 C3.38 41 -1.24 41 -6 41 C-5.32374766 32.00662124 -3.96439965 23.1923193 -2.4375 14.3125 C-2.20078918 12.91738259 -1.96445859 11.5222006 -1.72851562 10.12695312 C-1.15671441 6.75054824 -0.57981045 3.3750399 0 0 Z " fill="#FD7333" transform="translate(1167,157)"/>
<path d="M0 0 C0.33 0 0.66 0 1 0 C1.86169938 5.1400215 2.71594299 10.28120767 3.56347656 15.42358398 C3.85247449 17.17066374 4.14346214 18.91741562 4.43652344 20.66381836 C4.85883114 23.18258215 5.2738307 25.70246112 5.6875 28.22265625 C5.81874268 28.99585709 5.94998535 29.76905792 6.08520508 30.56568909 C6.26539185 31.67604774 6.26539185 31.67604774 6.44921875 32.80883789 C6.55580811 33.45059464 6.66239746 34.09235138 6.7722168 34.7535553 C7.08323804 37.8209106 7 40.91691668 7 44 C2.38 44 -2.24 44 -7 44 C-5.50277097 29.16382144 -2.83092528 14.63507486 0 0 Z " fill="#FD7131" transform="translate(811,333)"/>
</svg>
